<svg width="176" height="35" viewBox="0 0 176 35" fill="none" xmlns="http://www.w3.org/2000/svg">
<rect width="176" height="34.6552" rx="17.3276" fill="#1E6CFF"/>
<rect x="149.182" y="10" width="2.63283" height="10.0435" fill="white"/>
<rect x="157" y="23.7563" width="1.71257" height="13" transform="rotate(90 157 23.7563)" fill="white"/>
<path d="M150.497 22.3706L155.705 16.9421H145.289L150.497 22.3706Z" fill="white"/>
<path d="M36.7799 17.044C36.7799 18.024 36.5745 18.8873 36.1639 19.634C35.7532 20.3807 35.1559 20.964 34.3719 21.384C33.5972 21.7947 32.6732 22 31.5999 22H28.0859V12.116H31.5999C32.6732 12.116 33.5972 12.3213 34.3719 12.732C35.1559 13.1333 35.7532 13.7073 36.1639 14.454C36.5745 15.1913 36.7799 16.0547 36.7799 17.044ZM31.4319 20.236C32.4959 20.236 33.3172 19.956 33.8959 19.396C34.4839 18.836 34.7779 18.052 34.7779 17.044C34.7779 16.0267 34.4839 15.238 33.8959 14.678C33.3172 14.118 32.4959 13.838 31.4319 13.838H30.0599V20.236H31.4319ZM44.5717 11.976C45.4957 11.976 46.3311 12.1907 47.0777 12.62C47.8337 13.0493 48.4264 13.6513 48.8557 14.426C49.2944 15.1913 49.5137 16.0593 49.5137 17.03C49.5137 18.0007 49.2944 18.8733 48.8557 19.648C48.4264 20.4227 47.8337 21.0247 47.0777 21.454C46.3311 21.8833 45.4957 22.098 44.5717 22.098C43.6477 22.098 42.8077 21.8833 42.0517 21.454C41.3051 21.0247 40.7124 20.4227 40.2737 19.648C39.8444 18.8733 39.6297 18.0007 39.6297 17.03C39.6297 16.0593 39.8444 15.1913 40.2737 14.426C40.7124 13.6513 41.3051 13.0493 42.0517 12.62C42.8077 12.1907 43.6477 11.976 44.5717 11.976ZM44.5717 13.796C43.9931 13.796 43.4844 13.9267 43.0457 14.188C42.6071 14.4493 42.2617 14.8273 42.0097 15.322C41.7671 15.8073 41.6457 16.3767 41.6457 17.03C41.6457 17.6833 41.7671 18.2573 42.0097 18.752C42.2617 19.2373 42.6071 19.6107 43.0457 19.872C43.4844 20.1333 43.9931 20.264 44.5717 20.264C45.1504 20.264 45.6591 20.1333 46.0977 19.872C46.5364 19.6107 46.8771 19.2373 47.1197 18.752C47.3717 18.2573 47.4977 17.6833 47.4977 17.03C47.4977 16.3767 47.3717 15.8073 47.1197 15.322C46.8771 14.8273 46.5364 14.4493 46.0977 14.188C45.6591 13.9267 45.1504 13.796 44.5717 13.796ZM65.6423 12.116L63.2203 22H60.7843L58.9363 14.832L57.0743 22H54.6523L52.2303 12.116H54.3723L55.8843 19.774L57.8443 12.116H60.0143L61.9883 19.774L63.5003 12.116H65.6423ZM77.0447 22H75.0707L70.6467 15.28V22H68.6727V12.116H70.6467L75.0707 18.892V12.116H77.0447V22ZM82.4849 20.488H85.8029V22H80.5109V12.116H82.4849V20.488ZM93.2917 11.976C94.2157 11.976 95.0511 12.1907 95.7977 12.62C96.5537 13.0493 97.1464 13.6513 97.5757 14.426C98.0144 15.1913 98.2337 16.0593 98.2337 17.03C98.2337 18.0007 98.0144 18.8733 97.5757 19.648C97.1464 20.4227 96.5537 21.0247 95.7977 21.454C95.0511 21.8833 94.2157 22.098 93.2917 22.098C92.3677 22.098 91.5277 21.8833 90.7717 21.454C90.0251 21.0247 89.4324 20.4227 88.9937 19.648C88.5644 18.8733 88.3497 18.0007 88.3497 17.03C88.3497 16.0593 88.5644 15.1913 88.9937 14.426C89.4324 13.6513 90.0251 13.0493 90.7717 12.62C91.5277 12.1907 92.3677 11.976 93.2917 11.976ZM93.2917 13.796C92.7131 13.796 92.2044 13.9267 91.7657 14.188C91.3271 14.4493 90.9817 14.8273 90.7297 15.322C90.4871 15.8073 90.3657 16.3767 90.3657 17.03C90.3657 17.6833 90.4871 18.2573 90.7297 18.752C90.9817 19.2373 91.3271 19.6107 91.7657 19.872C92.2044 20.1333 92.7131 20.264 93.2917 20.264C93.8704 20.264 94.3791 20.1333 94.8177 19.872C95.2564 19.6107 95.5971 19.2373 95.8397 18.752C96.0917 18.2573 96.2177 17.6833 96.2177 17.03C96.2177 16.3767 96.0917 15.8073 95.8397 15.322C95.5971 14.8273 95.2564 14.4493 94.8177 14.188C94.3791 13.9267 93.8704 13.796 93.2917 13.796ZM107.418 20.012H103.456L102.756 22H100.67L104.31 12.228H106.564L110.19 22H108.104L107.418 20.012ZM106.886 18.514L105.43 14.342L103.974 18.514H106.886ZM121.63 17.044C121.63 18.024 121.424 18.8873 121.014 19.634C120.603 20.3807 120.006 20.964 119.222 21.384C118.447 21.7947 117.523 22 116.45 22H112.936V12.116H116.45C117.523 12.116 118.447 12.3213 119.222 12.732C120.006 13.1333 120.603 13.7073 121.014 14.454C121.424 15.1913 121.63 16.0547 121.63 17.044ZM116.282 20.236C117.346 20.236 118.167 19.956 118.746 19.396C119.334 18.836 119.628 18.052 119.628 17.044C119.628 16.0267 119.334 15.238 118.746 14.678C118.167 14.118 117.346 13.838 116.282 13.838H114.91V20.236H116.282Z" fill="white"/>
</svg>
