<svg width="1439" height="481" viewBox="0 0 1439 481" fill="none" xmlns="http://www.w3.org/2000/svg">
<g clip-path="url(#clip0)">
<rect width="1439" height="481" fill="white"/>
<circle cx="1311.87" cy="442.865" r="200.974" stroke="url(#paint0_linear)" stroke-width="31.788"/>
<circle cx="1311.87" cy="442.865" r="180.426" stroke="url(#paint1_linear)" stroke-width="31.788"/>
<rect x="1180.57" y="114.594" width="32.119" height="42.0229" rx="4.36306" fill="url(#paint2_linear)"/>
<rect x="1180.57" y="93.5823" width="32.119" height="42.0229" rx="4.36306" fill="#F8F0ED"/>
<rect x="1185.22" y="100.696" width="22.8116" height="2.80798" rx="1.40399" fill="#E9D1D1"/>
<rect x="1185.22" y="105.468" width="11.5835" height="2.80798" rx="1.40399" fill="#E9D1D1"/>
<rect x="1185.22" y="110.24" width="17.281" height="2.80798" rx="1.40399" fill="#E9D1D1"/>
<rect x="1185.22" y="115.011" width="18.9902" height="2.80798" rx="1.40399" fill="#E9D1D1"/>
<rect x="1185.22" y="119.783" width="14.9307" height="2.80798" rx="1.40399" fill="#E9D1D1"/>
<rect x="1185.22" y="124.555" width="22.2663" height="2.80798" rx="1.40399" fill="#E9D1D1"/>
<rect width="142.966" height="279.466" rx="20.8177" transform="matrix(-1 0 0 1 1347.67 232.732)" fill="url(#paint3_linear)"/>
<rect width="131.288" height="275.202" rx="19.0829" transform="matrix(-1 0 0 1 1336.97 234.982)" fill="url(#paint4_linear)"/>
<rect width="118.681" height="261.715" rx="12.1436" transform="matrix(-1 0 0 1 1330.67 241.437)" fill="url(#paint5_linear)"/>
<rect x="1237.03" y="236.672" width="68.9339" height="7.90411" fill="#481330"/>
<rect x="1243.76" y="236.672" width="55.4699" height="14.6362" fill="#481330"/>
<circle cx="1243.76" cy="244.575" r="6.73245" fill="#481330"/>
<circle cx="1299.23" cy="244.575" r="6.73245" fill="#481330"/>
<rect x="1237.03" y="236.672" width="68.9339" height="7.90411" fill="#481330"/>
<rect x="1243.76" y="236.671" width="55.4699" height="14.6362" fill="#481330"/>
<circle cx="1243.76" cy="244.576" r="6.73245" fill="#481330"/>
<circle cx="1299.23" cy="244.576" r="6.73245" fill="#481330"/>
<rect x="1253.35" y="242.636" width="26.7624" height="2.71062" rx="1.26819" fill="#1B1615"/>
<ellipse cx="1288.54" cy="243.991" rx="2.23054" ry="2.55404" fill="#1A1A1A"/>
<ellipse cx="1288.95" cy="244.091" rx="1.04914" ry="1.35029" fill="#525252"/>
<ellipse cx="1288.46" cy="243.991" rx="2.23054" ry="2.55404" fill="url(#paint6_radial)"/>
<circle cx="1287.74" cy="242.851" r="0.235142" fill="white"/>
<rect x="1218.41" y="385.78" width="105.974" height="51.8204" rx="4.33702" fill="white"/>
<rect x="1237.03" y="404.109" width="65.5962" height="15.1613" rx="7.58067" fill="#E9E9E9"/>
<circle cx="1245.52" cy="411.691" r="2.18937" fill="#6E1770"/>
<circle cx="1257.67" cy="411.691" r="2.18937" fill="#6E1770"/>
<circle cx="1269.83" cy="411.691" r="2.18937" fill="#6E1770"/>
<circle cx="1281.98" cy="411.691" r="2.18937" fill="#6E1770"/>
<circle cx="1294.13" cy="411.691" r="2.18937" fill="#6E1770"/>
<path d="M1284.71 337.64V318.258C1284.71 311.481 1279.21 305.986 1272.44 305.986V305.986C1265.66 305.986 1260.16 311.481 1260.16 318.258V337.64" stroke="#FF975E" stroke-width="8.99203"/>
<path d="M1272.28 309.912C1272.04 309.912 1271.79 309.928 1271.53 309.958C1269.19 310.113 1267.8 310.383 1265.47 311.93C1263.74 313.08 1262.31 315.849 1262.31 317.56V335.401H1264.03L1264.09 318.142C1264.09 313.185 1268.25 310.344 1271.53 309.958C1271.77 309.942 1272.02 309.927 1272.28 309.912Z" fill="#FF4E63"/>
<path d="M1281.49 307.137C1279.68 305.195 1276.51 302.976 1272.92 302.07C1277.24 302.346 1280.18 303.514 1282.76 305.762C1285.86 308.452 1288.2 312.142 1288.65 316.493C1288.94 319.362 1288.84 330.318 1288.65 335.452H1285.59C1285.72 330.978 1285.59 322.719 1285.59 317.8C1285.59 313.181 1284.49 310.37 1281.49 307.137Z" fill="url(#paint7_linear)"/>
<path d="M1296.44 333.072C1296.44 330.913 1294.69 329.163 1292.53 329.163H1266.43C1264.27 329.163 1262.52 330.913 1262.52 333.072V351.285C1262.52 358.842 1268.65 364.968 1276.21 364.968H1282.76C1290.32 364.968 1296.44 358.842 1296.44 351.285V333.072Z" fill="url(#paint8_linear)"/>
<path d="M1283.39 333.072C1283.39 330.913 1281.64 329.163 1279.48 329.163H1253.38C1251.22 329.163 1249.47 330.913 1249.47 333.072V351.285C1249.47 358.842 1255.59 364.968 1263.15 364.968H1269.7C1277.26 364.968 1283.39 358.842 1283.39 351.285V333.072Z" fill="#FFC367"/>
<circle r="5.08219" transform="matrix(-1 0 0 1 1266.43 341.741)" fill="#3A0B42"/>
<rect width="3.82047" height="12.4628" transform="matrix(-1 0 0 1 1268.34 342.552)" fill="#3A0B42"/>
<path d="M1264.52 346.453C1262.66 345.698 1261.35 343.873 1261.35 341.742C1261.35 338.935 1263.62 336.659 1266.43 336.659C1269.24 336.659 1271.51 338.935 1271.51 341.742C1271.51 343.873 1270.2 345.697 1268.34 346.452V355.016H1264.52V346.453Z" fill="url(#paint9_linear)"/>
<path fill-rule="evenodd" clip-rule="evenodd" d="M1266.87 355.013V346.452C1265.01 345.697 1263.7 343.872 1263.7 341.741C1263.7 339.337 1265.36 337.323 1267.61 336.794C1269.84 337.326 1271.51 339.338 1271.51 341.739C1271.51 343.87 1270.2 345.695 1268.34 346.45V355.013H1266.87Z" fill="#570C4B"/>
<rect width="2.35053" height="8.56338" transform="matrix(-1 0 0 1 1266.87 346.452)" fill="#98766F"/>
<rect x="1349.48" y="240.902" width="10.946" height="111.155" fill="#1C1418"/>
<g filter="url(#filter0_f)">
<path d="M1343.88 256.745C1339.21 256.745 1334.58 258.183 1330.26 260.976C1325.94 263.768 1322.02 267.862 1318.71 273.022C1315.41 278.183 1312.79 284.309 1311 291.052C1309.21 297.794 1308.29 305.021 1308.29 312.318C1308.29 319.616 1309.21 326.843 1311 333.585C1312.79 340.328 1315.41 346.454 1318.71 351.615C1322.02 356.775 1325.94 360.869 1330.26 363.661C1334.58 366.454 1339.21 367.892 1343.88 367.892L1343.88 312.318V256.745Z" fill="#32141A" fill-opacity="0.58"/>
</g>
<ellipse cx="1359.73" cy="296.481" rx="52.133" ry="55.5732" fill="url(#paint10_linear)"/>
<ellipse cx="1350.79" cy="296.483" rx="52.133" ry="55.5732" fill="#2D2929"/>
<path d="M1348.6 273.61C1355.86 273.61 1362.03 278.774 1364.27 285.965M1332.48 287.676C1332.18 289.052 1332.08 290.361 1332.02 291.967C1331.86 296.682 1332.11 299.963 1331.56 303.34C1331.08 306.33 1330.64 307.852 1329.52 310.332M1343.92 274.351C1339.5 275.79 1335.84 279.219 1333.79 283.703M1365.15 290.849C1365.19 291.3 1365.24 291.517 1365.27 291.956C1365.68 298.382 1365.61 302.863 1365.18 308.207C1364.75 313.551 1363.26 319.615 1361.61 323.803" stroke="url(#paint11_linear)" stroke-width="2.82827" stroke-linecap="round"/>
<path d="M1330.47 277.639C1327.86 281.677 1326.33 286.623 1326.33 291.965C1326.33 294.122 1326.34 295.441 1326.75 297.527M1363.48 273.614C1359.54 269.691 1354.32 267.304 1348.6 267.304C1343.09 267.304 1338.05 269.521 1334.16 273.193M1366.52 277.313C1369.23 281.371 1371.29 286.523 1371.32 291.949C1371.32 291.949 1371.67 303.242 1370.87 310.48" stroke="url(#paint12_linear)" stroke-width="2.82827" stroke-linecap="round"/>
<path d="M1348.6 279.74C1351.91 279.74 1354.87 281.349 1356.9 283.898C1358.27 285.626 1359.21 287.786 1359.52 290.17C1359.6 290.756 1359.64 291.356 1359.64 291.966C1359.71 293.506 1359.99 303.881 1358.95 310.51M1343.87 280.915C1340.14 282.877 1337.56 287.088 1337.56 291.966C1337.56 293.764 1337.7 297.017 1337.42 300.813M1336.74 305.95C1335.83 311.559 1335.01 313.248 1333.24 316.683M1354.21 328.011C1356.09 322.798 1357.01 319.617 1357.88 315.74" stroke="url(#paint13_linear)" stroke-width="2.82827" stroke-linecap="round"/>
<path d="M1343.25 290.774C1343.16 291.206 1343.12 291.655 1343.12 292.116C1343.08 294.312 1343.23 301.981 1342.35 306.75C1341.95 308.904 1341.5 310.729 1341.02 312.302M1345.45 287.122C1346.35 286.413 1347.45 285.997 1348.64 285.997C1351.69 285.997 1354.17 288.736 1354.17 292.116C1354.32 293.078 1354.33 295.413 1354.21 298.265M1337.25 321.437C1337.71 320.224 1338.4 318.93 1339.16 317.246M1353.94 304.548C1353.72 306.955 1353.37 309.673 1353 311.627C1352.64 313.606 1350.05 322.756 1348.61 326.25" stroke="url(#paint14_linear)" stroke-width="2.82827" stroke-linecap="round"/>
<path d="M1348.48 292.053C1348.57 293.077 1348.66 295.158 1348.65 297.694M1342.33 324.921C1343.57 321.365 1346.04 316.043 1347.49 309.753C1347.91 307.903 1348.19 305.838 1348.37 303.78" stroke="url(#paint15_linear)" stroke-width="2.82827" stroke-linecap="round"/>
<rect x="1121.06" y="378.251" width="128.837" height="82.4206" rx="7.14918" fill="url(#paint16_linear)"/>
<g filter="url(#filter1_d)">
<rect x="1204.7" y="390.481" width="55.1622" height="78.2122" rx="7.14918" fill="#FFAC5F" fill-opacity="0.01"/>
</g>
<rect x="1116.15" y="378.251" width="128.837" height="82.4206" rx="7.14918" fill="#FFC367"/>
<rect x="1128.08" y="435.705" width="20.4217" height="6.68907" rx="3.34453" fill="white"/>
<rect x="1127.98" y="406.748" width="29.5267" height="18.9304" rx="2.5997" fill="url(#paint17_linear)"/>
<rect x="1151.79" y="435.705" width="20.4217" height="6.68907" rx="3.34453" fill="white"/>
<rect x="1175.49" y="435.705" width="20.4217" height="6.68907" rx="3.34453" fill="white"/>
<rect x="1199.19" y="435.705" width="20.4217" height="6.68907" rx="3.34453" fill="white"/>
<rect width="32.119" height="42.0229" rx="4.36306" transform="matrix(1 0 0 -1 1263.43 189.357)" fill="url(#paint18_linear)"/>
<rect width="32.119" height="42.0229" rx="4.36306" transform="matrix(1 0 0 -1 1263.43 210.368)" fill="#F8F0ED"/>
<rect width="22.8116" height="2.80798" rx="1.40399" transform="matrix(1 0 0 -1 1268.09 203.254)" fill="#E9D1D1"/>
<rect width="11.5835" height="2.80798" rx="1.40399" transform="matrix(1 0 0 -1 1268.09 198.483)" fill="#E9D1D1"/>
<rect width="17.281" height="2.80798" rx="1.40399" transform="matrix(1 0 0 -1 1268.09 193.711)" fill="#E9D1D1"/>
<rect width="18.9902" height="2.80798" rx="1.40399" transform="matrix(1 0 0 -1 1268.09 188.939)" fill="#E9D1D1"/>
<rect width="14.9307" height="2.80798" rx="1.40399" transform="matrix(1 0 0 -1 1268.09 184.167)" fill="#E9D1D1"/>
<rect width="22.2663" height="2.80798" rx="1.40399" transform="matrix(1 0 0 -1 1268.09 179.395)" fill="#E9D1D1"/>
<path d="M1276.25 97.2175C1276.25 99.6272 1278.21 101.581 1280.62 101.581H1288.59C1293.26 101.581 1294.67 95.2256 1290.43 93.2593L1288.99 92.5952C1287.28 91.8 1286.27 89.9909 1286.5 88.1142L1288.26 73.4952C1288.42 72.1518 1289.2 70.9597 1290.36 70.2681L1294.73 67.6706C1298.54 65.404 1296.93 59.5577 1292.5 59.5577H1280.62C1278.21 59.5577 1276.25 61.5111 1276.25 63.9207V97.2175Z" fill="url(#paint19_linear)"/>
<rect width="32.119" height="42.0229" rx="4.36306" transform="matrix(1 0 0 -1 1276.25 122.592)" fill="#FF3969"/>
<rect width="22.8116" height="2.80798" rx="1.40399" transform="matrix(1 0 0 -1 1280.91 115.477)" fill="#5C3659"/>
<rect width="11.5835" height="2.80798" rx="1.40399" transform="matrix(1 0 0 -1 1280.91 110.705)" fill="#5C3659"/>
<rect width="17.281" height="2.80798" rx="1.40399" transform="matrix(1 0 0 -1 1280.91 105.933)" fill="#5C3659"/>
<rect width="18.9902" height="2.80798" rx="1.40399" transform="matrix(1 0 0 -1 1280.91 101.162)" fill="#5C3659"/>
<rect width="14.9307" height="2.80798" rx="1.40399" transform="matrix(1 0 0 -1 1280.91 96.3906)" fill="#5C3659"/>
<rect width="22.2663" height="2.80798" rx="1.40399" transform="matrix(1 0 0 -1 1280.91 91.6188)" fill="#5C3659"/>
<rect width="32.119" height="42.0229" rx="4.36306" transform="matrix(1 0 0 -1 1263.72 1.02295)" fill="url(#paint20_linear)"/>
<rect width="32.119" height="42.0229" rx="4.36306" transform="matrix(1 0 0 -1 1263.72 22.0339)" fill="#F8F0ED"/>
<rect width="22.8116" height="2.80798" rx="1.40399" transform="matrix(1 0 0 -1 1268.37 14.9196)" fill="#E9D1D1"/>
<rect width="11.5835" height="2.80798" rx="1.40399" transform="matrix(1 0 0 -1 1268.37 10.1487)" fill="#E9D1D1"/>
<rect width="17.281" height="2.80798" rx="1.40399" transform="matrix(1 0 0 -1 1268.37 5.37585)" fill="#E9D1D1"/>
<rect width="18.9902" height="2.80798" rx="1.40399" transform="matrix(1 0 0 -1 1268.37 0.604858)" fill="#E9D1D1"/>
<rect x="1206.4" y="35.9304" width="32.119" height="42.0229" rx="4.36306" fill="url(#paint21_linear)"/>
<rect x="1206.4" y="14.9194" width="32.119" height="42.0229" rx="4.36306" fill="#F8F0ED"/>
<rect x="1211.05" y="22.0338" width="22.8116" height="2.80798" rx="1.40399" fill="#E9D1D1"/>
<rect x="1211.05" y="26.8057" width="11.5835" height="2.80798" rx="1.40399" fill="#E9D1D1"/>
<rect x="1211.05" y="31.5775" width="17.281" height="2.80798" rx="1.40399" fill="#E9D1D1"/>
<rect x="1211.05" y="36.3485" width="18.9902" height="2.80798" rx="1.40399" fill="#E9D1D1"/>
<rect x="1211.05" y="41.1204" width="14.9307" height="2.80798" rx="1.40399" fill="#E9D1D1"/>
<rect x="1211.05" y="45.8922" width="22.2663" height="2.80798" rx="1.40399" fill="#E9D1D1"/>
<path fill-rule="evenodd" clip-rule="evenodd" d="M1318.4 127.301C1336.83 127.301 1351.78 110.392 1351.78 89.5341C1351.78 68.6759 1336.83 51.767 1318.4 51.767C1299.96 51.767 1285.01 68.6759 1285.01 89.5341C1285.01 110.392 1299.96 127.301 1318.4 127.301ZM1318.4 121.899C1334.2 121.899 1347.01 107.408 1347.01 89.5332C1347.01 71.6583 1334.2 57.1678 1318.4 57.1678C1302.59 57.1678 1289.78 71.6583 1289.78 89.5332C1289.78 107.408 1302.59 121.899 1318.4 121.899Z" fill="#31172A"/>
<rect x="1313.34" y="51.767" width="10.108" height="5.40197" fill="#FFD160"/>
<path fill-rule="evenodd" clip-rule="evenodd" d="M1341.6 106.978C1344.45 101.944 1346.1 95.9572 1346.1 89.5334C1346.1 71.6584 1333.29 57.1678 1317.49 57.1678C1301.69 57.1678 1288.88 71.6584 1288.88 89.5334C1288.88 107.408 1301.69 121.899 1317.49 121.899C1317.94 121.899 1318.38 121.887 1318.82 121.865C1303.64 121.076 1291.55 106.902 1291.55 89.5336C1291.55 72.1665 1303.64 57.9942 1318.82 57.2029C1334 57.9867 1346.1 72.1621 1346.1 89.5343C1346.1 95.9577 1344.45 101.944 1341.6 106.978Z" fill="url(#paint22_linear)"/>
<ellipse cx="1315.82" cy="89.5333" rx="28.612" ry="32.3655" fill="url(#paint23_radial)"/>
<rect width="12.9055" height="57.9188" rx="6.45273" transform="matrix(0.902716 -0.430237 0.349042 0.937107 1319.39 122.105)" fill="url(#paint24_linear)"/>
<rect x="1313.34" y="121.898" width="9.37434" height="5.40167" fill="#FD9F47"/>
<path fill-rule="evenodd" clip-rule="evenodd" d="M1313.34 127.3C1331.78 127.3 1346.73 110.391 1346.73 89.5332C1346.73 68.675 1331.78 51.7661 1313.34 51.7661C1294.9 51.7661 1279.95 68.675 1279.95 89.5332C1279.95 110.391 1294.9 127.3 1313.34 127.3ZM1313.34 121.899C1329.14 121.899 1341.95 107.408 1341.95 89.5333C1341.95 71.6584 1329.14 57.1679 1313.34 57.1679C1297.54 57.1679 1284.73 71.6584 1284.73 89.5333C1284.73 107.408 1297.54 121.899 1313.34 121.899Z" fill="#FFC367"/>
<path fill-rule="evenodd" clip-rule="evenodd" d="M1313.34 127.3C1331.78 127.3 1346.73 110.391 1346.73 89.5332C1346.73 68.675 1331.78 51.7661 1313.34 51.7661C1294.9 51.7661 1279.95 68.675 1279.95 89.5332C1279.95 110.391 1294.9 127.3 1313.34 127.3ZM1313.34 121.899C1329.14 121.899 1341.95 107.408 1341.95 89.5333C1341.95 71.6584 1329.14 57.1679 1313.34 57.1679C1297.54 57.1679 1284.73 71.6584 1284.73 89.5333C1284.73 107.408 1297.54 121.899 1313.34 121.899Z" fill="#FFC367"/>
<path fill-rule="evenodd" clip-rule="evenodd" d="M1317.8 126.966C1334.13 124.501 1346.73 108.681 1346.73 89.5331C1346.73 70.3848 1334.13 54.5648 1317.8 52.0998C1319.26 51.8796 1320.74 51.766 1322.26 51.766C1340.7 51.766 1355.64 68.6749 1355.64 89.5331C1355.64 110.391 1340.7 127.3 1322.26 127.3C1320.74 127.3 1319.26 127.187 1317.8 126.966Z" fill="url(#paint25_linear)"/>
<path fill-rule="evenodd" clip-rule="evenodd" d="M1334.98 110.714C1339.32 105.038 1341.95 97.6329 1341.95 89.5334C1341.95 71.6584 1329.14 57.1678 1313.34 57.1678C1297.54 57.1678 1284.73 71.6584 1284.73 89.5334C1284.73 107.408 1297.54 121.899 1313.34 121.899C1313.79 121.899 1314.23 121.887 1314.67 121.865C1299.49 121.076 1287.39 106.902 1287.39 89.5336C1287.39 72.1665 1299.49 57.9942 1314.67 57.2029C1329.85 57.9867 1341.95 72.1621 1341.95 89.5343C1341.95 97.6334 1339.32 105.038 1334.98 110.714Z" fill="url(#paint26_linear)"/>
<circle cx="1300.23" cy="76.9124" r="2.93984" fill="white"/>
<mask id="mask0" mask-type="alpha" maskUnits="userSpaceOnUse" x="1288" y="56" width="56" height="66">
<path d="M1316.15 56.9426C1331.34 57.7264 1343.44 71.9018 1343.44 89.274C1343.44 106.641 1331.35 120.813 1316.17 121.605C1300.98 120.821 1288.88 106.645 1288.88 89.2733C1288.88 71.9062 1300.97 57.7339 1316.15 56.9426Z" fill="#F1F1F1"/>
</mask>
<g mask="url(#mask0)">
<rect width="45.7719" height="59.8858" rx="6.21768" transform="matrix(1 0 0 -1 1274.41 101.007)" fill="url(#paint27_linear)"/>
<rect width="45.7719" height="59.8858" rx="6.21768" transform="matrix(1 0 0 -1 1274.41 130.949)" fill="#FF3969"/>
<rect width="32.5082" height="4.00158" rx="2.00079" transform="matrix(1 0 0 -1 1281.04 120.811)" fill="#5C3659"/>
<rect width="16.5073" height="4.00158" rx="2.00079" transform="matrix(1 0 0 -1 1281.04 114.01)" fill="#5C3659"/>
<rect width="24.6267" height="4.00158" rx="2.00079" transform="matrix(1 0 0 -1 1281.04 107.211)" fill="#5C3659"/>
<rect width="27.0625" height="4.00158" rx="2.00079" transform="matrix(1 0 0 -1 1281.04 100.411)" fill="#5C3659"/>
<rect width="21.2774" height="4.00158" rx="2.00079" transform="matrix(1 0 0 -1 1281.04 93.6111)" fill="#5C3659"/>
<rect width="31.7311" height="4.00158" rx="2.00079" transform="matrix(1 0 0 -1 1281.04 86.8115)" fill="#5C3659"/>
</g>
<path d="M76.3708 0V50.1392C76.3708 85.6938 105.194 114.517 140.748 114.517H142.101C177.655 114.517 206.478 143.339 206.478 178.894V231.632V305.788V361.724C206.478 397.279 177.655 426.101 142.101 426.101H-70" stroke="#F1F1F1" stroke-width="31.5813"/>
<circle cx="80.2299" cy="68.254" r="5.76967" fill="#DBDBDB"/>
<circle cx="206.478" cy="177.232" r="5.76967" fill="#DBDBDB"/>
<circle cx="206.478" cy="217.251" r="5.76967" fill="#DBDBDB"/>
<circle cx="206.478" cy="257.271" r="5.76967" fill="#DBDBDB"/>
<circle cx="34.3832" cy="422.251" r="5.76967" fill="#DBDBDB"/>
<circle cx="-4.04528" cy="422.251" r="5.76967" fill="#DBDBDB"/>
<circle cx="74.3288" cy="27.2424" r="5.76967" fill="#DBDBDB"/>
<circle cx="206.478" cy="297.29" r="5.76967" fill="#DBDBDB"/>
<circle cx="206.478" cy="337.309" r="5.76967" fill="#DBDBDB"/>
<g filter="url(#filter2_f)">
<path d="M32.8542 249.615C29.9188 248.3 3.09488 232.914 -0.852783 221.678L67.7759 171.269L83.8702 167.625V199.207L188.635 232.914V254.778C181.044 251.033 159.422 241.416 133.672 232.914C107.921 224.411 89.7411 229.371 83.8702 232.914V249.615H32.8542Z" fill="url(#paint28_linear)"/>
</g>
<path d="M95.7384 371.619C96.4437 368.684 99.069 366.615 102.088 366.615L240.499 366.615C243.729 366.615 246.473 368.976 246.956 372.169L254.28 420.637C254.431 421.635 254.348 422.654 254.039 423.615L243.391 456.67C242.522 459.368 240.01 461.198 237.175 461.198L82.5006 461.198C78.277 461.198 75.1644 457.249 76.1511 453.142L95.7384 371.619Z" fill="url(#paint29_linear)"/>
<path d="M95.7384 371.619C96.4437 368.684 99.069 366.615 102.088 366.615L240.499 366.615C243.729 366.615 246.473 368.976 246.956 372.169L254.28 420.637C254.431 421.635 254.348 422.654 254.039 423.615L243.391 456.67C242.522 459.368 240.01 461.198 237.175 461.198L82.5006 461.198C78.277 461.198 75.1644 457.249 76.1511 453.142L95.7384 371.619Z" fill="url(#paint30_linear)"/>
<path d="M83.8491 334.254C84.062 328.412 88.8905 324.334 94.7357 324.334L240.943 324.334C247.242 324.334 252.567 329.001 253.392 335.246L265.524 427.012C266.519 434.536 260.664 441.216 253.075 441.216H106.578C102.156 441.216 98.1454 438.832 96.6612 434.667C93.8491 426.775 89.4977 410.925 86.4469 382.775C83.7804 358.172 83.5317 342.964 83.8491 334.254Z" fill="url(#paint31_linear)"/>
<path d="M89.6041 333.993C88.9277 328.876 92.9091 324.334 98.07 324.334H251.603C255.887 324.334 259.508 327.508 260.069 331.754L273.264 431.557C273.94 436.674 269.959 441.216 264.798 441.216H111.264C106.981 441.216 103.36 438.043 102.799 433.796L89.6041 333.993Z" fill="#FFEDE9"/>
<path d="M96.9058 336.208C96.5875 333.801 98.4612 331.663 100.89 331.663L248.856 331.663C250.872 331.663 252.576 333.156 252.84 335.155L265.292 429.342C265.611 431.75 263.737 433.888 261.309 433.888L113.342 433.888C111.326 433.888 109.622 432.394 109.358 430.396L96.9058 336.208Z" fill="url(#paint32_linear)"/>
<circle cx="256.661" cy="164.82" r="49.5452" transform="rotate(169.213 256.661 164.82)" stroke="url(#paint33_linear)" stroke-width="2.59016"/>
<circle cx="256.662" cy="164.821" r="39.1306" transform="rotate(169.213 256.662 164.821)" stroke="url(#paint34_linear)" stroke-width="2.59016"/>
<circle cx="256.661" cy="164.82" r="29.8571" transform="rotate(169.213 256.661 164.82)" stroke="url(#paint35_linear)" stroke-width="2.59016"/>
<circle cx="256.661" cy="164.82" r="20.4279" transform="rotate(169.213 256.661 164.82)" stroke="url(#paint36_linear)" stroke-width="2.59016"/>
<circle cx="259.788" cy="336.605" r="49.5452" transform="rotate(20.0936 259.788 336.605)" stroke="url(#paint37_linear)" stroke-width="2.59016"/>
<circle cx="259.787" cy="336.605" r="39.1306" transform="rotate(20.0936 259.787 336.605)" stroke="url(#paint38_linear)" stroke-width="2.59016"/>
<circle cx="259.788" cy="336.606" r="29.8571" transform="rotate(20.0936 259.788 336.606)" stroke="url(#paint39_linear)" stroke-width="2.59016"/>
<circle cx="259.788" cy="336.605" r="20.4279" transform="rotate(20.0936 259.788 336.605)" stroke="url(#paint40_linear)" stroke-width="2.59016"/>
<rect x="182.863" y="304.276" width="9.59203" height="82.1258" fill="url(#paint41_linear)"/>
<g filter="url(#filter3_f)">
<path fill-rule="evenodd" clip-rule="evenodd" d="M174.692 403.4C201.801 385.441 203.802 373.809 203.802 351.36V336.564C203.802 336.564 189.702 334.523 174.692 321.258V403.4ZM174.691 403.4C147.583 385.441 145.582 373.809 145.582 351.36V336.564C145.582 336.564 159.682 334.523 174.691 321.258V403.4Z" fill="#823C5D" fill-opacity="0.29"/>
</g>
<path d="M153.754 334.361C153.754 356.81 155.755 368.443 182.863 386.402V304.26C167.854 317.525 153.754 319.566 153.754 319.566V334.361Z" fill="url(#paint42_linear)"/>
<path d="M163.346 334.361C163.346 356.81 165.347 368.443 192.455 386.402V304.26C177.446 317.525 163.346 319.566 163.346 319.566V334.361Z" fill="#FAB54B"/>
<path d="M221.566 334.361C221.566 356.81 219.565 368.443 192.457 386.402V304.26C207.466 317.525 221.566 319.566 221.566 319.566V334.361Z" fill="#FAB54B"/>
<path d="M169.765 336.781C169.765 354.281 171.325 363.349 192.458 377.35V313.315C180.757 323.656 169.765 325.247 169.765 325.247V336.781Z" fill="#FFE819"/>
<path d="M215.148 336.781C215.148 354.281 213.588 363.349 192.455 377.349V313.314C204.156 323.655 215.148 325.246 215.148 325.246V336.781Z" fill="#FFE819"/>
<path d="M172.844 338.256C172.844 352.735 174.135 360.237 191.618 371.82V318.842C181.938 327.398 172.844 328.714 172.844 328.714V338.256Z" fill="#FFEAD7"/>
<path d="M210.388 338.255C210.388 352.734 209.098 360.236 191.614 371.819V318.841C201.295 327.397 210.388 328.713 210.388 328.713V338.255Z" fill="#FFEAD7"/>
<path d="M182.963 345.338C182.963 351.873 187.303 356.643 192.065 356.643C196.827 356.643 201.167 351.873 201.167 345.338C201.167 338.804 196.827 334.034 192.065 334.034C187.303 334.034 182.963 338.804 182.963 345.338Z" stroke="url(#paint43_linear)" stroke-width="3.17042"/>
<path d="M202.273 345.339C202.273 337.949 197.421 332.521 192.066 332.521C186.71 332.521 181.858 337.949 181.858 345.339C181.858 352.729 186.71 358.156 192.066 358.156C197.421 358.156 202.273 352.729 202.273 345.339Z" stroke="url(#paint44_linear)" stroke-width="3.17042"/>
<rect x="14.3306" y="160.033" width="63.77" height="85.0267" rx="5.466" fill="url(#paint45_linear)"/>
<rect x="21.6184" y="160.033" width="63.77" height="85.0267" rx="5.466" fill="#FFF0ED"/>
<g filter="url(#filter4_f)">
<path d="M58.3623 222.892V191.614L163.128 225.321V247.185C155.536 243.44 133.914 233.824 108.164 225.321C82.4126 216.818 64.2332 219.349 58.3623 222.892Z" fill="url(#paint46_linear)"/>
</g>
<path fill-rule="evenodd" clip-rule="evenodd" d="M59.2732 182.504H42.2678V220.766H59.2732L59.2731 220.766C59.2731 220.766 75.9748 208.619 104.216 202.546C132.457 196.473 172.237 195.258 172.237 195.258V182.504H59.2732V182.504Z" fill="url(#paint47_linear)"/>
<path d="M42.2678 182.505H155.232V195.259C155.232 195.259 115.451 196.473 87.2105 202.547C58.9695 208.62 42.2678 220.767 42.2678 220.767L42.2678 182.505Z" fill="#F9E7E0"/>
<rect x="158.876" y="156.997" width="24.9007" height="13.3613" rx="1.21467" fill="#D9B7BB"/>
<path d="M137.619 157.603H160.09V170.357H138.834C138.163 170.357 137.619 169.814 137.619 169.143V157.603Z" fill="#F3EBE6"/>
<path fill-rule="evenodd" clip-rule="evenodd" d="M160.603 157.69C159.782 157.377 158.876 157.968 158.876 158.847V169.002C158.876 169.673 159.42 170.216 160.09 170.216H171.022C171.693 170.216 172.237 169.673 172.237 169.002V161.094C172.237 160.427 171.7 159.888 171.034 159.858C167.399 159.695 163.899 158.945 160.603 157.69Z" fill="#D9B7BB"/>
<path d="M185.598 170.965C185.598 169.623 184.511 168.535 183.169 168.535H136.404C135.063 168.535 133.975 169.623 133.975 170.965V177.645H185.598V170.965Z" fill="url(#paint48_linear)"/>
<path d="M175.881 199.51C175.881 200.851 174.793 201.939 173.452 201.939H146.122C144.78 201.939 143.692 200.851 143.692 199.51V177.646H175.881V199.51Z" fill="url(#paint49_linear)"/>
<path d="M175.881 199.51C175.881 200.851 174.793 201.939 173.452 201.939H146.122C144.78 201.939 143.692 200.851 143.692 199.51V177.646H175.881V199.51Z" fill="url(#paint50_linear)"/>
<ellipse cx="115.451" cy="117.824" rx="37.351" ry="42.2097" fill="url(#paint51_linear)"/>
<path fill-rule="evenodd" clip-rule="evenodd" d="M277.754 124.201C281.009 124.201 283.774 121.734 283.774 118.478C283.774 90.8532 263.838 68.4448 239.204 68.3262H238.811C214.177 68.4448 194.24 90.8532 194.24 118.478C194.24 121.734 197.005 124.201 200.261 124.201H277.754Z" fill="#381F22"/>
<path fill-rule="evenodd" clip-rule="evenodd" d="M122.996 75.6144H223.253V160.034H120.006V159.921C100.654 158.34 85.3884 140.096 85.3884 117.823C85.3884 95.55 100.654 77.3062 120.006 75.7247V75.6144H122.483C122.568 75.6137 122.654 75.6134 122.739 75.6134C122.825 75.6134 122.911 75.6137 122.996 75.6144Z" fill="url(#paint52_linear)"/>
<ellipse cx="222.949" cy="117.824" rx="37.351" ry="42.2097" fill="url(#paint53_linear)"/>
<ellipse cx="222.949" cy="117.824" rx="37.351" ry="42.2097" fill="url(#paint54_radial)"/>
<ellipse cx="222.949" cy="117.824" rx="29.4557" ry="33.707" fill="url(#paint55_linear)"/>
<ellipse cx="222.342" cy="117.824" rx="28.241" ry="32.4923" fill="url(#paint56_radial)"/>
<ellipse cx="222.342" cy="117.824" rx="28.241" ry="32.4923" fill="url(#paint57_linear)"/>
<path d="M275.591 124.2H277.754C281.009 124.2 283.774 121.733 283.774 118.478C283.774 90.7797 263.731 68.3257 239.007 68.3257C214.283 68.3257 194.24 90.7797 194.24 118.478C194.24 120.413 194.338 122.322 194.528 124.2H202.424L202.427 123.832L202.383 123.404C202.22 121.791 202.136 120.147 202.136 118.478C202.136 94.273 219.463 76.221 239.007 76.221C258.552 76.221 275.879 94.273 275.879 118.478C275.879 120.147 275.795 121.791 275.631 123.404L275.591 123.801V124.2Z" fill="#DA6537"/>
<ellipse cx="222.342" cy="117.824" rx="16.0943" ry="17.9163" fill="url(#paint58_linear)"/>
<path fill-rule="evenodd" clip-rule="evenodd" d="M247.31 138.083C249.467 123.801 253.817 94.9948 218.394 94.1377C196.559 93.6095 188.509 105.334 185.599 117.589C185.711 94.3851 202.39 75.6143 222.949 75.6143C243.578 75.6143 260.3 94.5122 260.3 117.824C260.3 119.509 260.213 121.171 260.043 122.805L246.939 140.599C247.047 139.825 247.174 138.983 247.31 138.083Z" fill="url(#paint59_linear)"/>
<ellipse cx="219.913" cy="117.824" rx="10.021" ry="11.2357" fill="url(#paint60_radial)"/>
<path fill-rule="evenodd" clip-rule="evenodd" d="M275.631 123.404L275.591 123.801V124.2C275.591 124.201 275.591 124.201 275.591 124.201H279.738C281.866 124.201 283.666 122.589 283.74 120.462C283.762 119.804 283.774 119.143 283.774 118.479C283.774 90.7802 263.731 68.3262 239.007 68.3262C218.146 68.3262 200.618 84.3112 195.649 105.944C195.557 106.345 195.47 106.747 195.386 107.152C194.636 110.792 194.24 114.583 194.24 118.478C194.24 120.413 194.338 122.322 194.528 124.2C194.528 124.201 194.528 124.201 194.529 124.201H202.054C202.259 124.201 202.425 124.036 202.427 123.831L202.383 123.404C202.22 121.79 202.135 120.147 202.135 118.478C202.135 94.2727 219.463 76.2208 239.007 76.2208C258.551 76.2208 275.879 94.2727 275.879 118.478C275.879 120.147 275.794 121.79 275.631 123.404Z" fill="#D45353"/>
<circle cx="224.771" cy="114.18" r="0.911" fill="#7C7F86"/>
<path fill-rule="evenodd" clip-rule="evenodd" d="M116.362 68.3264H239.044V68.3269L239.007 68.3269C214.283 68.3269 194.24 90.781 194.24 118.479C194.24 120.414 194.338 122.323 194.528 124.201H156.27C156.229 124.202 156.189 124.202 156.148 124.202H78.6549C75.3995 124.202 72.6343 121.735 72.6343 118.48C72.6343 91.1701 92.1181 68.9588 116.362 68.3402V68.3264Z" fill="url(#paint61_linear)"/>
<g clip-path="url(#clip1)">
<rect width="490.25" height="106" transform="translate(472 191)" fill="white"/>
<rect x="625.699" y="228.11" width="9.54" height="33.3778" fill="black"/>
<path fill-rule="evenodd" clip-rule="evenodd" d="M616.014 262.017C625.96 262.017 633.103 253.485 633.103 244.792C633.103 236.581 626.008 227.567 616.014 227.567C606.456 227.567 599.199 235.279 599.199 244.792C599.199 254.305 606.456 262.017 616.014 262.017ZM617.063 253.311C621.963 253.311 625.701 249.66 625.701 244.793C625.701 239.925 621.963 236.275 617.063 236.275C612.162 236.275 608.367 240.088 608.367 244.793C608.367 249.497 612.162 253.311 617.063 253.311Z" fill="black"/>
<path fill-rule="evenodd" clip-rule="evenodd" d="M673.562 237.412L664.825 241.471C663.711 238.961 661.361 236.941 658.183 236.941C653.665 236.941 650.167 240.457 650.167 244.795C650.167 249.132 653.665 252.648 658.183 252.648C661.434 252.648 663.818 250.828 664.9 248.192L673.62 252.304C670.942 258.055 665.195 262.021 658.031 262.021C648.385 262.021 640.806 254.309 640.806 244.796C640.806 235.282 648.729 227.571 658.031 227.571C664.749 227.571 670.748 231.593 673.562 237.412Z" fill="black"/>
<rect x="678.966" y="228.103" width="9.54" height="33.3898" fill="black"/>
<path d="M700.166 241.088L709.706 240.293V261.493H700.166V241.088Z" fill="black"/>
<path d="M721.367 241.088L730.907 240.293V261.493H721.367V241.088Z" fill="black"/>
<path d="M697.056 227.57C705.498 227.57 709.705 234.039 709.705 240.82L700.165 242.594C700.165 239.661 697.515 237.021 694.335 237.021C691.155 237.021 688.505 239.762 688.505 242.942L685.979 239.376C684.984 237.021 688.588 227.57 697.056 227.57Z" fill="black"/>
<path d="M718.257 227.57C726.699 227.57 730.907 234.039 730.907 240.82L721.367 242.594C721.367 239.661 718.717 237.021 715.537 237.021C712.357 237.021 709.707 239.762 709.707 242.942L707.18 239.376C706.186 237.021 709.79 227.57 718.257 227.57Z" fill="black"/>
<path d="M718.256 227.57C726.698 227.57 730.906 234.039 730.906 240.82L721.366 241.615C721.366 238.683 718.716 236.315 715.536 236.315C712.356 236.315 709.706 238.435 709.706 241.615L704.936 236.58C707.056 231.81 709.789 227.57 718.256 227.57Z" fill="black"/>
<circle cx="745.601" cy="255.25" r="6.21529" fill="black"/>
<path d="M547.438 267.118C547.438 269.825 544.467 271.03 540.799 271.03C537.13 271.03 534.159 269.825 534.159 267.118C534.159 264.687 535.564 266.96 540.799 266.96C546.033 266.96 547.438 264.816 547.438 267.118Z" fill="white"/>
<path fill-rule="evenodd" clip-rule="evenodd" d="M792.078 237.415L783.344 241.472C782.23 238.962 779.88 236.942 776.702 236.942C772.185 236.942 768.686 240.458 768.686 244.795C768.686 249.133 772.185 252.649 776.702 252.649C779.953 252.649 782.337 250.829 783.419 248.193L792.135 252.303C789.457 258.055 783.71 262.021 776.545 262.021C766.899 262.021 759.32 254.309 759.32 244.796C759.32 235.283 767.244 227.571 776.545 227.571C783.264 227.571 789.264 231.595 792.078 237.415Z" fill="black"/>
<rect width="9.54" height="48.563" transform="matrix(-1 0 0 1 845.976 213.011)" fill="black"/>
<path fill-rule="evenodd" clip-rule="evenodd" d="M855.642 262.02C845.696 262.02 838.553 253.489 838.553 244.795C838.553 236.584 845.648 227.57 855.642 227.57C865.2 227.57 872.457 235.282 872.457 244.795C872.457 254.309 865.2 262.02 855.642 262.02ZM854.596 253.314C849.695 253.314 845.957 249.663 845.957 244.796C845.957 239.928 849.695 236.278 854.596 236.278C859.496 236.278 863.291 240.091 863.291 244.796C863.291 249.501 859.496 253.314 854.596 253.314Z" fill="black"/>
<path d="M794.035 228.066L805.178 228.066L817.462 256.772L809.211 262.334L794.035 228.066Z" fill="black"/>
<path d="M832.325 228.066L821.66 228.066L811.6 258.334L809.304 261.749L808.705 264.021L818.131 266.354L832.325 228.066Z" fill="black"/>
<path fill-rule="evenodd" clip-rule="evenodd" d="M801.18 268.218C804.553 268.218 807.924 266.448 808.712 263.988L818.132 266.347C815.233 273.137 810.58 277.543 801.18 277.543L799.972 277.543L799.972 268.218L801.18 268.218Z" fill="black"/>
<rect x="917.525" y="228.094" width="9.53997" height="33.3975" fill="black"/>
<path fill-rule="evenodd" clip-rule="evenodd" d="M938.952 227.687C938.233 227.628 937.47 227.598 936.661 227.598C927.473 227.598 924.132 236.545 923.357 242L927.067 247.496C927.067 242.743 930.532 238.264 937.515 238.264H938.952V227.687Z" fill="black"/>
<path fill-rule="evenodd" clip-rule="evenodd" d="M894.735 227.571C885.434 227.571 877.51 235.283 877.51 244.796L877.511 244.796C877.511 254.309 885.09 262.021 894.736 262.021C901.738 262.021 907.407 258.528 909.991 254.444L902.126 250.734C900.763 252.139 898.916 253.158 896.867 253.603C896.205 253.766 895.499 253.853 894.752 253.853C894.72 253.853 894.688 253.853 894.656 253.852C894.62 253.853 894.584 253.853 894.549 253.853C889.547 253.853 885.673 249.882 885.673 244.983C885.673 244.953 885.673 244.923 885.673 244.894C885.673 244.861 885.673 244.829 885.673 244.796C885.673 239.794 889.635 235.739 894.752 235.739C899.208 235.739 902.226 239.311 902.932 243.105C903.915 243.085 904.483 243.566 904.483 245.144C904.483 245.54 904.453 245.928 904.394 246.307L910.705 248.18L911.333 248.244C913.377 235.252 904.037 227.571 894.735 227.571Z" fill="black"/>
<path d="M882.049 240.824H903.313L911.333 248.244H910.389H882.17L882.049 240.824Z" fill="black"/>
<rect x="535.6" y="191" width="74.9533" height="74.9533" rx="21.2" transform="rotate(45 535.6 191)" fill="#FFBA44"/>
<path d="M519.444 238.377C519.439 236.474 520.976 234.927 522.879 234.922L548.203 234.848C550.105 234.843 551.652 236.381 551.658 238.283L551.721 259.58C551.727 261.483 550.189 263.03 548.286 263.035L522.963 263.108C521.06 263.114 519.513 261.576 519.507 259.673L519.444 238.377Z" fill="white"/>
<path d="M547.735 234.815C547.735 241.475 542.301 246.873 535.598 246.873C528.895 246.873 523.46 241.475 523.46 234.815C523.46 228.156 528.895 222.758 535.598 222.758C542.301 222.758 547.735 228.156 547.735 234.815Z" fill="white"/>
<path d="M547.735 234.815C547.735 241.475 542.301 246.873 535.598 246.873L547.735 246.873L547.735 234.815Z" fill="white"/>
<path d="M535.598 246.873C528.895 246.873 523.46 241.475 523.46 234.815V246.873L535.598 246.873Z" fill="white"/>
<ellipse rx="7.52635" ry="7.4989" transform="matrix(1 0 0.00784149 0.999969 535.684 234.283)" fill="#FFBA44"/>
<rect x="533.527" y="233.495" width="4.02671" height="25.5025" rx="2.01335" fill="#FFBA44"/>
<rect x="534.198" y="248.931" width="7.3823" height="3.35559" rx="1.37803" fill="#FFBA44"/>
<rect x="534.198" y="255.642" width="7.3823" height="3.35559" rx="1.37803" fill="#FFBA44"/>
<ellipse rx="2.68447" ry="2.68354" transform="matrix(1 0 0.00586924 0.999983 535.708 232.128)" fill="white"/>
<g style="mix-blend-mode:lighten">
<rect x="759" y="202" width="225" height="81" fill="url(#paint62_linear)"/>
</g>
<g style="mix-blend-mode:color-burn">
<ellipse cx="466.965" cy="284.606" rx="36.0327" ry="42.6055" fill="url(#paint63_linear)"/>
</g>
</g>
</g>
<defs>
<filter id="filter0_f" x="1286.64" y="235.095" width="78.8896" height="154.446" filterUnits="userSpaceOnUse" color-interpolation-filters="sRGB">
<feFlood flood-opacity="0" result="BackgroundImageFix"/>
<feBlend mode="normal" in="SourceGraphic" in2="BackgroundImageFix" result="shape"/>
<feGaussianBlur stdDeviation="10.8249" result="effect1_foregroundBlur"/>
</filter>
<filter id="filter1_d" x="1193.57" y="381.821" width="77.4305" height="100.481" filterUnits="userSpaceOnUse" color-interpolation-filters="sRGB">
<feFlood flood-opacity="0" result="BackgroundImageFix"/>
<feColorMatrix in="SourceAlpha" type="matrix" values="0 0 0 0 0 0 0 0 0 0 0 0 0 0 0 0 0 0 127 0"/>
<feOffset dy="2.47427"/>
<feGaussianBlur stdDeviation="5.5671"/>
<feColorMatrix type="matrix" values="0 0 0 0 0.25 0 0 0 0 0.135417 0 0 0 0 0.197292 0 0 0 0.25 0"/>
<feBlend mode="normal" in2="BackgroundImageFix" result="effect1_dropShadow"/>
<feBlend mode="normal" in="SourceGraphic" in2="effect1_dropShadow" result="shape"/>
</filter>
<filter id="filter2_f" x="-13.6068" y="154.871" width="214.996" height="112.66" filterUnits="userSpaceOnUse" color-interpolation-filters="sRGB">
<feFlood flood-opacity="0" result="BackgroundImageFix"/>
<feBlend mode="normal" in="SourceGraphic" in2="BackgroundImageFix" result="shape"/>
<feGaussianBlur stdDeviation="6.377" result="effect1_foregroundBlur"/>
</filter>
<filter id="filter3_f" x="136.624" y="312.301" width="76.1351" height="100.057" filterUnits="userSpaceOnUse" color-interpolation-filters="sRGB">
<feFlood flood-opacity="0" result="BackgroundImageFix"/>
<feBlend mode="normal" in="SourceGraphic" in2="BackgroundImageFix" result="shape"/>
<feGaussianBlur stdDeviation="4.47862" result="effect1_foregroundBlur"/>
</filter>
<filter id="filter4_f" x="45.6083" y="178.86" width="130.273" height="81.0792" filterUnits="userSpaceOnUse" color-interpolation-filters="sRGB">
<feFlood flood-opacity="0" result="BackgroundImageFix"/>
<feBlend mode="normal" in="SourceGraphic" in2="BackgroundImageFix" result="shape"/>
<feGaussianBlur stdDeviation="6.377" result="effect1_foregroundBlur"/>
</filter>
<linearGradient id="paint0_linear" x1="1127.61" y1="306.113" x2="1311.87" y2="659.733" gradientUnits="userSpaceOnUse">
<stop stop-color="#F4F4F4" stop-opacity="0.68"/>
<stop offset="1" stop-color="#F4F4F4" stop-opacity="0"/>
</linearGradient>
<linearGradient id="paint1_linear" x1="1306.59" y1="284.446" x2="1311.87" y2="639.185" gradientUnits="userSpaceOnUse">
<stop stop-color="#E2E2E2"/>
<stop offset="1" stop-color="#F4F4F4" stop-opacity="0"/>
</linearGradient>
<linearGradient id="paint2_linear" x1="1196.63" y1="114.594" x2="1196.63" y2="156.617" gradientUnits="userSpaceOnUse">
<stop stop-color="#F26780"/>
<stop offset="0.442708" stop-color="#F7886E" stop-opacity="0.43"/>
<stop offset="1" stop-color="#FFBB54" stop-opacity="0"/>
</linearGradient>
<linearGradient id="paint3_linear" x1="71.4829" y1="0" x2="71.4829" y2="279.466" gradientUnits="userSpaceOnUse">
<stop stop-color="#FFB3A5"/>
<stop offset="0.09375" stop-color="#ED6A6A"/>
<stop offset="0.838542" stop-color="#BC3963"/>
<stop offset="1" stop-color="#C02255"/>
</linearGradient>
<linearGradient id="paint4_linear" x1="65.6442" y1="-7.75203e-07" x2="11.1198" y2="275.202" gradientUnits="userSpaceOnUse">
<stop stop-color="#481330"/>
<stop offset="0.296875" stop-color="#8E285F"/>
<stop offset="1" stop-color="#481330"/>
</linearGradient>
<linearGradient id="paint5_linear" x1="59.3403" y1="0" x2="59.3403" y2="261.715" gradientUnits="userSpaceOnUse">
<stop stop-color="#FFEAD7"/>
<stop offset="1" stop-color="#FFD7DC"/>
</linearGradient>
<radialGradient id="paint6_radial" cx="0" cy="0" r="1" gradientUnits="userSpaceOnUse" gradientTransform="translate(1287.66 243.991) rotate(72.5984) scale(2.67654 2.40256)">
<stop stop-color="white" stop-opacity="0.31"/>
<stop offset="1" stop-color="white" stop-opacity="0"/>
</radialGradient>
<linearGradient id="paint7_linear" x1="1285.7" y1="330.202" x2="1269.51" y2="300.637" gradientUnits="userSpaceOnUse">
<stop stop-color="#FF4E63"/>
<stop offset="1" stop-color="#FF4E63" stop-opacity="0"/>
</linearGradient>
<linearGradient id="paint8_linear" x1="1279.48" y1="329.163" x2="1279.48" y2="364.968" gradientUnits="userSpaceOnUse">
<stop stop-color="#FFD99F"/>
<stop offset="0.145833" stop-color="#FF9519"/>
<stop offset="0.864583" stop-color="#FF8267"/>
<stop offset="1" stop-color="#FF5A7F"/>
</linearGradient>
<linearGradient id="paint9_linear" x1="1266.43" y1="336.659" x2="1266.43" y2="355.016" gradientUnits="userSpaceOnUse">
<stop stop-color="#FFEAA0" stop-opacity="0"/>
<stop offset="0.640625" stop-color="#FFEAA0"/>
</linearGradient>
<linearGradient id="paint10_linear" x1="1359.73" y1="240.908" x2="1359.73" y2="352.054" gradientUnits="userSpaceOnUse">
<stop stop-color="#5C5656"/>
<stop offset="1" stop-color="#1C1419"/>
</linearGradient>
<linearGradient id="paint11_linear" x1="1347.43" y1="273.61" x2="1347.43" y2="323.803" gradientUnits="userSpaceOnUse">
<stop stop-color="#FF5375"/>
<stop offset="1" stop-color="#D9A575"/>
</linearGradient>
<linearGradient id="paint12_linear" x1="1348.86" y1="267.304" x2="1348.86" y2="310.48" gradientUnits="userSpaceOnUse">
<stop stop-color="#FF5375"/>
<stop offset="1" stop-color="#D9A575"/>
</linearGradient>
<linearGradient id="paint13_linear" x1="1346.49" y1="279.74" x2="1346.49" y2="328.011" gradientUnits="userSpaceOnUse">
<stop stop-color="#FF5375"/>
<stop offset="1" stop-color="#D9A575"/>
</linearGradient>
<linearGradient id="paint14_linear" x1="1345.77" y1="285.997" x2="1345.77" y2="326.25" gradientUnits="userSpaceOnUse">
<stop stop-color="#FF5375"/>
<stop offset="1" stop-color="#D9A575"/>
</linearGradient>
<linearGradient id="paint15_linear" x1="1345.49" y1="292.053" x2="1345.49" y2="324.921" gradientUnits="userSpaceOnUse">
<stop stop-color="#FF5375"/>
<stop offset="1" stop-color="#D9A575"/>
</linearGradient>
<linearGradient id="paint16_linear" x1="1185.48" y1="378.251" x2="1185.48" y2="460.672" gradientUnits="userSpaceOnUse">
<stop stop-color="#FFAC5F"/>
<stop offset="1" stop-color="#FF5375"/>
</linearGradient>
<linearGradient id="paint17_linear" x1="1124.84" y1="406.748" x2="1156.29" y2="425.679" gradientUnits="userSpaceOnUse">
<stop stop-color="#FF8246"/>
<stop offset="0.383058" stop-color="#FFD661"/>
<stop offset="0.978924" stop-color="#FDA243"/>
</linearGradient>
<linearGradient id="paint18_linear" x1="16.0595" y1="0" x2="16.0595" y2="42.0229" gradientUnits="userSpaceOnUse">
<stop stop-color="#FF3D60"/>
<stop offset="1" stop-color="#FF5454" stop-opacity="0"/>
</linearGradient>
<linearGradient id="paint19_linear" x1="1292.31" y1="101.581" x2="1292.31" y2="59.5577" gradientUnits="userSpaceOnUse">
<stop stop-color="#FF3D60"/>
<stop offset="1" stop-color="#FF5454" stop-opacity="0"/>
</linearGradient>
<linearGradient id="paint20_linear" x1="16.0595" y1="0" x2="16.0595" y2="42.0229" gradientUnits="userSpaceOnUse">
<stop stop-color="#FF3D60"/>
<stop offset="1" stop-color="#FF5454" stop-opacity="0"/>
</linearGradient>
<linearGradient id="paint21_linear" x1="1222.45" y1="35.9304" x2="1222.45" y2="77.9533" gradientUnits="userSpaceOnUse">
<stop stop-color="#F26780"/>
<stop offset="0.442708" stop-color="#F7886E" stop-opacity="0.43"/>
<stop offset="1" stop-color="#FFBB54" stop-opacity="0"/>
</linearGradient>
<linearGradient id="paint22_linear" x1="1343.55" y1="57.1678" x2="1343.55" y2="121.899" gradientUnits="userSpaceOnUse">
<stop stop-color="#FF6C64"/>
<stop offset="1" stop-color="#FFE2AC"/>
</linearGradient>
<radialGradient id="paint23_radial" cx="0" cy="0" r="1" gradientUnits="userSpaceOnUse" gradientTransform="translate(1308.35 88.2161) rotate(67.7215) scale(45.0473 39.8231)">
<stop stop-color="#FFE8C6" stop-opacity="0.63"/>
<stop offset="1" stop-color="white" stop-opacity="0"/>
</radialGradient>
<linearGradient id="paint24_linear" x1="6.83363" y1="8.63025" x2="6.45324" y2="57.9188" gradientUnits="userSpaceOnUse">
<stop stop-color="#FF8652"/>
<stop offset="1" stop-color="#FFAB5A"/>
</linearGradient>
<linearGradient id="paint25_linear" x1="1322.26" y1="51.766" x2="1335.35" y2="125.588" gradientUnits="userSpaceOnUse">
<stop stop-color="#FFD961"/>
<stop offset="0.171875" stop-color="#FFAE5B"/>
<stop offset="0.28125" stop-color="#FF8341"/>
<stop offset="0.416667" stop-color="#FF9063"/>
<stop offset="1" stop-color="#FDA43F"/>
</linearGradient>
<linearGradient id="paint26_linear" x1="1339.4" y1="57.1678" x2="1339.4" y2="121.899" gradientUnits="userSpaceOnUse">
<stop stop-color="#FF6C64"/>
<stop offset="1" stop-color="#FFE2AC"/>
</linearGradient>
<linearGradient id="paint27_linear" x1="22.886" y1="0" x2="22.886" y2="59.8858" gradientUnits="userSpaceOnUse">
<stop stop-color="#FF3D60"/>
<stop offset="1" stop-color="#FF5454" stop-opacity="0"/>
</linearGradient>
<linearGradient id="paint28_linear" x1="60.7915" y1="188.579" x2="199.567" y2="254.778" gradientUnits="userSpaceOnUse">
<stop stop-color="#483B3F" stop-opacity="0.54"/>
<stop offset="1" stop-color="#FED1B8" stop-opacity="0"/>
</linearGradient>
<linearGradient id="paint29_linear" x1="85.0592" y1="413.906" x2="295.348" y2="480.079" gradientUnits="userSpaceOnUse">
<stop stop-color="#FF7269"/>
<stop offset="0.13538" stop-color="#7B1212"/>
<stop offset="0.331178" stop-color="#7C1A2C"/>
<stop offset="0.692708" stop-color="#891C1C"/>
<stop offset="0.760417" stop-color="#FF685F"/>
</linearGradient>
<linearGradient id="paint30_linear" x1="164.362" y1="439.79" x2="164.362" y2="461.198" gradientUnits="userSpaceOnUse">
<stop stop-color="#5E2B66" stop-opacity="0.31"/>
<stop offset="0.428551" stop-color="#FF3434" stop-opacity="0"/>
</linearGradient>
<linearGradient id="paint31_linear" x1="175.572" y1="324.334" x2="175.572" y2="441.216" gradientUnits="userSpaceOnUse">
<stop stop-color="#FFA799"/>
<stop offset="0.135417" stop-color="#E93351"/>
<stop offset="0.880208" stop-color="#CB3458"/>
<stop offset="1" stop-color="#984B5E"/>
</linearGradient>
<linearGradient id="paint32_linear" x1="248.804" y1="346.529" x2="130.491" y2="433.888" gradientUnits="userSpaceOnUse">
<stop stop-color="#F8B17D"/>
<stop offset="1" stop-color="#F2D383"/>
</linearGradient>
<linearGradient id="paint33_linear" x1="256.661" y1="101.787" x2="256.661" y2="132.444" gradientUnits="userSpaceOnUse">
<stop stop-color="#787878"/>
<stop offset="1" stop-color="white" stop-opacity="0"/>
</linearGradient>
<linearGradient id="paint34_linear" x1="256.662" y1="114.699" x2="256.662" y2="139.077" gradientUnits="userSpaceOnUse">
<stop stop-color="#787878"/>
<stop offset="1" stop-color="white" stop-opacity="0"/>
</linearGradient>
<linearGradient id="paint35_linear" x1="256.661" y1="126.197" x2="256.661" y2="144.982" gradientUnits="userSpaceOnUse">
<stop stop-color="#787878"/>
<stop offset="1" stop-color="white" stop-opacity="0"/>
</linearGradient>
<linearGradient id="paint36_linear" x1="256.661" y1="137.887" x2="256.661" y2="150.986" gradientUnits="userSpaceOnUse">
<stop stop-color="#787878"/>
<stop offset="1" stop-color="white" stop-opacity="0"/>
</linearGradient>
<linearGradient id="paint37_linear" x1="259.788" y1="273.572" x2="259.788" y2="304.229" gradientUnits="userSpaceOnUse">
<stop stop-color="#787878"/>
<stop offset="1" stop-color="white" stop-opacity="0"/>
</linearGradient>
<linearGradient id="paint38_linear" x1="259.787" y1="286.484" x2="259.787" y2="310.861" gradientUnits="userSpaceOnUse">
<stop stop-color="#787878"/>
<stop offset="1" stop-color="white" stop-opacity="0"/>
</linearGradient>
<linearGradient id="paint39_linear" x1="259.788" y1="297.982" x2="259.788" y2="316.767" gradientUnits="userSpaceOnUse">
<stop stop-color="#787878"/>
<stop offset="1" stop-color="white" stop-opacity="0"/>
</linearGradient>
<linearGradient id="paint40_linear" x1="259.788" y1="309.673" x2="259.788" y2="322.772" gradientUnits="userSpaceOnUse">
<stop stop-color="#787878"/>
<stop offset="1" stop-color="white" stop-opacity="0"/>
</linearGradient>
<linearGradient id="paint41_linear" x1="187.659" y1="304.276" x2="187.659" y2="386.402" gradientUnits="userSpaceOnUse">
<stop stop-color="#FF8A50"/>
<stop offset="1" stop-color="#FF4180"/>
</linearGradient>
<linearGradient id="paint42_linear" x1="168.309" y1="304.26" x2="168.309" y2="386.402" gradientUnits="userSpaceOnUse">
<stop stop-color="#FF8E4F"/>
<stop offset="1" stop-color="#FF3E83"/>
</linearGradient>
<linearGradient id="paint43_linear" x1="178.927" y1="342.439" x2="206.515" y2="353.386" gradientUnits="userSpaceOnUse">
<stop stop-color="#3C0C37"/>
<stop offset="1" stop-color="#753223" stop-opacity="0"/>
</linearGradient>
<linearGradient id="paint44_linear" x1="198.182" y1="349.033" x2="189.561" y2="332.22" gradientUnits="userSpaceOnUse">
<stop stop-color="#460F2A"/>
<stop offset="1" stop-color="#3A202D" stop-opacity="0"/>
</linearGradient>
<linearGradient id="paint45_linear" x1="46.2156" y1="160.033" x2="46.2156" y2="245.06" gradientUnits="userSpaceOnUse">
<stop stop-color="#FFD4B6"/>
<stop offset="0.145833" stop-color="#FFCBCB"/>
<stop offset="0.911458" stop-color="#FFDAD2"/>
<stop offset="1" stop-color="#FFC5E1"/>
</linearGradient>
<linearGradient id="paint46_linear" x1="35.2833" y1="180.986" x2="174.059" y2="247.185" gradientUnits="userSpaceOnUse">
<stop stop-color="#483B3F" stop-opacity="0.54"/>
<stop offset="1" stop-color="#FED1B8" stop-opacity="0"/>
</linearGradient>
<linearGradient id="paint47_linear" x1="60.1841" y1="226.84" x2="158.269" y2="201.939" gradientUnits="userSpaceOnUse">
<stop stop-color="#DEA9B3"/>
<stop offset="1" stop-color="#FFB3C5"/>
</linearGradient>
<linearGradient id="paint48_linear" x1="185.598" y1="177.645" x2="133.975" y2="177.645" gradientUnits="userSpaceOnUse">
<stop stop-color="#D2BBB6"/>
<stop offset="0.489583" stop-color="#C795A1"/>
<stop offset="1" stop-color="#F8E9EB"/>
</linearGradient>
<linearGradient id="paint49_linear" x1="175.881" y1="177.646" x2="143.692" y2="177.646" gradientUnits="userSpaceOnUse">
<stop stop-color="#C6B6B1"/>
<stop offset="0.432292" stop-color="#D9B7BF"/>
<stop offset="1" stop-color="#F4DED7"/>
</linearGradient>
<linearGradient id="paint50_linear" x1="159.787" y1="201.939" x2="159.787" y2="177.646" gradientUnits="userSpaceOnUse">
<stop offset="0.703125" stop-color="#AE4175" stop-opacity="0"/>
<stop offset="1" stop-color="#D02B2B" stop-opacity="0.37"/>
</linearGradient>
<linearGradient id="paint51_linear" x1="115.451" y1="75.6143" x2="115.451" y2="160.034" gradientUnits="userSpaceOnUse">
<stop stop-color="#5E3043"/>
<stop offset="0.609375" stop-color="#C75E84"/>
<stop offset="1" stop-color="#E43B45"/>
</linearGradient>
<linearGradient id="paint52_linear" x1="151.187" y1="75.6134" x2="151.187" y2="160.034" gradientUnits="userSpaceOnUse">
<stop offset="0.533843" stop-color="#B93131"/>
<stop offset="0.65625" stop-color="#F08360"/>
<stop offset="0.817321" stop-color="#F1684E"/>
<stop offset="1" stop-color="#DF4040"/>
</linearGradient>
<linearGradient id="paint53_linear" x1="222.949" y1="75.6143" x2="222.949" y2="160.034" gradientUnits="userSpaceOnUse">
<stop offset="0.540836" stop-color="#D54B57"/>
<stop offset="0.800146" stop-color="#ED6E56"/>
<stop offset="1" stop-color="#E14643"/>
</linearGradient>
<radialGradient id="paint54_radial" cx="0" cy="0" r="1" gradientUnits="userSpaceOnUse" gradientTransform="translate(222.949 117.824) rotate(90) scale(42.2097 37.351)">
<stop offset="0.9375" stop-color="#D55353"/>
<stop offset="1" stop-color="#FF7B5E" stop-opacity="0"/>
</radialGradient>
<linearGradient id="paint55_linear" x1="222.949" y1="84.1167" x2="222.949" y2="151.531" gradientUnits="userSpaceOnUse">
<stop stop-color="#141317"/>
<stop offset="1" stop-color="#3B3A47"/>
</linearGradient>
<radialGradient id="paint56_radial" cx="0" cy="0" r="1" gradientUnits="userSpaceOnUse" gradientTransform="translate(227.808 118.128) rotate(99.6375) scale(32.6495 28.3776)">
<stop stop-color="#1A1A20"/>
<stop offset="1" stop-color="#342A38"/>
</radialGradient>
<linearGradient id="paint57_linear" x1="254.531" y1="93.8342" x2="221.127" y2="155.782" gradientUnits="userSpaceOnUse">
<stop offset="0.1875" stop-color="#14252D" stop-opacity="0.11"/>
<stop offset="0.442831" stop-color="white" stop-opacity="0.05"/>
<stop offset="0.479475" stop-color="white" stop-opacity="0"/>
</linearGradient>
<linearGradient id="paint58_linear" x1="222.342" y1="99.9077" x2="222.342" y2="135.74" gradientUnits="userSpaceOnUse">
<stop stop-color="#1A1A24"/>
<stop offset="1" stop-color="#343445"/>
</linearGradient>
<linearGradient id="paint59_linear" x1="222.95" y1="75.6143" x2="222.95" y2="140.599" gradientUnits="userSpaceOnUse">
<stop stop-color="#1A0E29"/>
<stop offset="1" stop-color="#230D17" stop-opacity="0"/>
</linearGradient>
<radialGradient id="paint60_radial" cx="0" cy="0" r="1" gradientUnits="userSpaceOnUse" gradientTransform="translate(222.949 117.217) rotate(104.381) scale(12.2261 10.9044)">
<stop stop-color="#39394F"/>
<stop offset="1" stop-color="#1F1F23"/>
</radialGradient>
<linearGradient id="paint61_linear" x1="155.839" y1="68.3264" x2="155.839" y2="124.202" gradientUnits="userSpaceOnUse">
<stop stop-color="#FFB287"/>
<stop offset="0.578125" stop-color="#E99E5A"/>
<stop offset="0.901042" stop-color="#E68C39"/>
<stop offset="1" stop-color="#D95E37"/>
</linearGradient>
<linearGradient id="paint62_linear" x1="765.093" y1="278.718" x2="941.665" y2="183.356" gradientUnits="userSpaceOnUse">
<stop stop-color="#F5B100"/>
<stop offset="1" stop-color="#FFE040"/>
</linearGradient>
<linearGradient id="paint63_linear" x1="476.958" y1="242" x2="466.965" y2="327.211" gradientUnits="userSpaceOnUse">
<stop stop-color="#070707" stop-opacity="0.58"/>
<stop offset="1" stop-color="#070707" stop-opacity="0"/>
</linearGradient>
<clipPath id="clip0">
<rect width="1439" height="481" fill="white"/>
</clipPath>
<clipPath id="clip1">
<rect width="490.25" height="106" fill="white" transform="translate(472 191)"/>
</clipPath>
</defs>
</svg>
