<svg width="1439" height="481" viewBox="0 0 1439 481" fill="none" xmlns="http://www.w3.org/2000/svg">
<g clip-path="url(#clip0)">
<rect width="1439" height="481" fill="white"/>
<g opacity="0.33" filter="url(#filter0_f)">
<path d="M1178.17 359.54H1242.36C1252.07 359.54 1261.39 355.682 1268.25 348.815L1289.97 327.099C1292.78 324.285 1296.6 322.704 1300.58 322.704L1382.22 322.704C1386.2 322.704 1390.02 324.285 1392.83 327.099L1440.19 374.455C1448.41 382.672 1459.55 387.289 1471.17 387.289L1484.42 387.289" stroke="#3A1225" stroke-width="19.3617"/>
</g>
<g opacity="0.32" filter="url(#filter1_f)">
<circle cx="1158.01" cy="357.593" r="37.0078" fill="#49032D"/>
</g>
<ellipse cx="1161.12" cy="353.149" rx="36.7127" ry="35.1622" fill="url(#paint0_linear)"/>
<path d="M1205.43 343.621H1252.99C1256.97 343.621 1260.79 342.04 1263.61 339.226L1285.15 317.686C1292.12 310.707 1301.59 306.786 1311.46 306.786H1386.23C1395.94 306.786 1405.25 310.644 1412.12 317.51L1461.58 366.976C1464.4 369.79 1468.22 371.371 1472.2 371.371H1492.01" stroke="#A77195" stroke-width="6.60272"/>
<path d="M1205.43 350.152H1248.78C1257.22 350.152 1265.31 346.8 1271.28 340.834L1291.76 320.349C1296.26 315.846 1302.37 313.317 1308.74 313.317H1388.55C1395.39 313.317 1401.96 316.036 1406.8 320.876L1454.33 368.408C1460.41 374.487 1468.65 377.902 1477.25 377.902L1492.01 377.902" stroke="#D297B7" stroke-width="6.60272"/>
<path d="M1205.43 356.035H1249.96C1259.67 356.035 1268.98 352.178 1275.85 345.311L1297.56 323.595C1300.38 320.781 1304.2 319.2 1308.17 319.2L1389.81 319.2C1393.79 319.2 1397.61 320.781 1400.43 323.595L1447.78 370.951C1456 379.168 1467.14 383.785 1478.77 383.785L1492.01 383.785" stroke="#DEAFC3" stroke-width="6.60272"/>
<circle cx="1175.41" cy="263.034" r="10.6169" fill="#EEEEEE"/>
<circle cx="1215.28" cy="263.034" r="10.6169" fill="#EEEEEE"/>
<circle cx="1332.52" cy="182.456" r="8.88593" fill="#F1F1F1"/>
<circle cx="1313.56" cy="69.9934" r="8.88593" fill="#F1F1F1"/>
<circle cx="1374.62" cy="182.456" r="8.88593" fill="#F1F1F1"/>
<circle cx="1355.65" cy="69.9934" r="8.88593" fill="#F1F1F1"/>
<circle cx="1431.03" cy="180.86" r="11.2942" fill="#EEEEEE"/>
<ellipse cx="1224.32" cy="120.619" rx="74.5675" ry="70.7229" fill="#B03C43"/>
<ellipse cx="1224.32" cy="117" rx="74.5675" ry="70.7229" fill="url(#paint1_linear)"/>
<ellipse cx="1224.32" cy="116.999" rx="59.7157" ry="56.6368" fill="url(#paint2_linear)"/>
<ellipse cx="1224.32" cy="117.113" rx="32.3679" ry="28.7598" fill="url(#paint3_linear)"/>
<ellipse cx="1224.32" cy="113.133" rx="32.3679" ry="28.7598" fill="#962264"/>
<circle cx="1224.32" cy="50.1347" r="3.85732" fill="#C9006C"/>
<ellipse cx="1224.32" cy="181.382" rx="3.85732" ry="3.65843" fill="#C9006C"/>
<ellipse cx="1291.64" cy="117.529" rx="3.65843" ry="3.85732" transform="rotate(90 1291.64 117.529)" fill="#C9006C"/>
<circle cx="1156.99" cy="117.459" r="3.85732" transform="rotate(90 1156.99 117.459)" fill="#C9006C"/>
<g opacity="0.24" filter="url(#filter2_f)">
<path fill-rule="evenodd" clip-rule="evenodd" d="M1158.65 166.727C1141.95 166.727 1128.41 153.187 1128.41 136.484C1128.41 119.782 1141.95 106.242 1158.65 106.242C1169.95 106.242 1179.79 112.433 1184.99 121.607L1224.12 108.183L1228.18 118.242L1188.46 131.363C1188.75 133.028 1188.89 134.739 1188.89 136.484C1188.89 153.187 1175.35 166.727 1158.65 166.727Z" fill="#49032D"/>
</g>
<circle cx="1224.32" cy="112.421" r="6.17926" fill="#FFB9B9"/>
<rect x="1218.14" y="49.9739" width="12.3582" height="62.5384" fill="#FFB9B9"/>
<rect x="1218.14" y="49.9739" width="12.3582" height="62.5384" fill="url(#paint4_radial)"/>
<circle r="32.5857" transform="matrix(-1 0 0 1 1224.1 62.521)" fill="url(#paint5_radial)"/>
<circle cx="1240.55" cy="42.7161" r="1.55498" fill="white" fill-opacity="0.52"/>
<rect x="1339.8" y="272.703" width="84.2148" height="21.0537" rx="10.5269" transform="rotate(-180 1339.8 272.703)" fill="#EFEFEF"/>
<circle cx="1297.7" cy="262.242" r="5.38583" transform="rotate(-180 1297.7 262.242)" fill="#F8F8F8"/>
<circle cx="1328.05" cy="262.242" r="5.38583" transform="rotate(-180 1328.05 262.242)" fill="#F8F8F8"/>
<circle cx="1268.39" cy="262.242" r="5.38583" transform="rotate(-180 1268.39 262.242)" fill="#F8F8F8"/>
<rect x="1372" y="380.948" width="84.2148" height="21.0537" rx="10.5269" transform="rotate(-180 1372 380.948)" fill="#EFEFEF"/>
<circle cx="1329.89" cy="370.487" r="5.38583" transform="rotate(-180 1329.89 370.487)" fill="#F8F8F8"/>
<circle cx="1360.24" cy="370.487" r="5.38583" transform="rotate(-180 1360.24 370.487)" fill="#F8F8F8"/>
<circle cx="1300.59" cy="370.487" r="5.38583" transform="rotate(-180 1300.59 370.487)" fill="#F8F8F8"/>
<rect x="1341.41" y="424.104" width="84.2148" height="21.0537" rx="10.5269" transform="rotate(-180 1341.41 424.104)" fill="#EFEFEF"/>
<circle cx="1299.3" cy="413.643" r="5.38583" transform="rotate(-180 1299.3 413.643)" fill="#F8F8F8"/>
<circle cx="1329.65" cy="413.643" r="5.38583" transform="rotate(-180 1329.65 413.643)" fill="#F8F8F8"/>
<circle cx="1270" cy="413.643" r="5.38583" transform="rotate(-180 1270 413.643)" fill="#F8F8F8"/>
<rect x="1140.9" y="408.257" width="89.6047" height="18.7482" rx="9.37409" fill="#F1F1F1"/>
<rect x="1335.74" y="137.462" width="140.943" height="20.1348" rx="10.0674" fill="#F1F1F1"/>
<rect x="1316.77" y="25" width="140.943" height="20.1348" rx="10.0674" fill="#F1F1F1"/>
<rect x="1256.83" y="218.601" width="109.409" height="21.0537" rx="10.5269" fill="#EEEEEE"/>
<rect x="1261.51" y="223.021" width="80.9786" height="12.2128" rx="6.10641" fill="#F8F8F8"/>
<rect x="1317.85" y="94.8521" width="140.943" height="20.1348" rx="10.0674" fill="#F1F1F1"/>
<path fill-rule="evenodd" clip-rule="evenodd" d="M1206.34 371.328V371.328H1192.51V337.774H1206.25C1206.28 337.773 1206.31 337.773 1206.34 337.773C1210.16 337.773 1213.26 340.87 1213.26 344.69V364.411C1213.26 368.23 1210.16 371.327 1206.34 371.328Z" fill="url(#paint6_linear)"/>
<path fill-rule="evenodd" clip-rule="evenodd" d="M1206.34 331.868H1192.51V365.423H1206.29C1206.3 365.423 1206.32 365.423 1206.34 365.423C1210.16 365.423 1213.26 362.326 1213.26 358.506V338.786C1213.26 334.966 1210.16 331.869 1206.34 331.868V331.868Z" fill="#F47A90"/>
<circle cx="1206.75" cy="359.029" r="1.435" fill="#893348"/>
<circle cx="1206.75" cy="352.235" r="1.435" fill="#893348"/>
<circle cx="1206.75" cy="345.179" r="1.435" fill="#893348"/>
<circle cx="1206.75" cy="338.386" r="1.435" fill="#893348"/>
<path d="M1359.69 431.056L1359.69 440.397C1359.69 441.905 1360.91 443.127 1362.42 443.127L1403.48 443.127C1404.99 443.127 1406.21 441.905 1406.21 440.397L1406.21 431.056C1406.21 429.548 1404.99 428.325 1403.48 428.325L1362.42 428.325C1360.91 428.325 1359.69 429.548 1359.69 431.056Z" fill="#F3F3F3"/>
<path d="M1378.07 457.918L1388.19 457.918C1389.7 457.918 1390.92 456.696 1390.92 455.188L1390.92 415.851C1390.92 414.343 1389.7 413.12 1388.19 413.12L1378.07 413.12C1376.56 413.12 1375.34 414.343 1375.34 415.851L1375.34 455.188C1375.34 456.696 1376.56 457.918 1378.07 457.918Z" fill="#F3F3F3"/>
<ellipse cx="1383.22" cy="450.365" rx="2.43422" ry="2.34406" transform="rotate(-180 1383.22 450.365)" fill="white"/>
<ellipse cx="1365.91" cy="435.779" rx="2.43422" ry="2.34406" transform="rotate(-180 1365.91 435.779)" fill="white"/>
<ellipse cx="1383.22" cy="419.111" rx="2.43422" ry="2.34406" transform="rotate(-180 1383.22 419.111)" fill="white"/>
<ellipse cx="1399.99" cy="435.779" rx="2.43422" ry="2.34406" transform="rotate(-180 1399.99 435.779)" fill="white"/>
<rect width="28.1547" height="6.36831" transform="matrix(-1 0 0 1 1152.56 348.083)" fill="#FE9399"/>
<ellipse cx="1161.12" cy="348.055" rx="36.7127" ry="34.738" fill="url(#paint7_linear)"/>
<ellipse cx="1161.12" cy="331.211" rx="8.6043" ry="8.03083" fill="#562B47"/>
<ellipse cx="1161.12" cy="330.459" rx="7.79805" ry="7.27831" fill="#FF91A4"/>
<path fill-rule="evenodd" clip-rule="evenodd" d="M1154.49 326.63C1154.24 327.171 1154.08 327.729 1153.99 328.274C1153.59 330.784 1154.65 333.493 1158.22 335.475C1160.34 336.654 1163.11 336.571 1165.85 336.247C1164.54 337.181 1162.9 337.736 1161.12 337.736C1156.82 337.736 1153.32 334.477 1153.32 330.458C1153.32 329.053 1153.75 327.742 1154.49 326.63Z" fill="#F95B6E"/>
<ellipse cx="1161.12" cy="364.898" rx="8.6043" ry="8.03083" fill="#562B47"/>
<ellipse cx="1161.12" cy="364.146" rx="7.79805" ry="7.27831" fill="#FF91A4"/>
<path fill-rule="evenodd" clip-rule="evenodd" d="M1154.49 360.317C1154.24 360.858 1154.08 361.415 1153.99 361.961C1153.59 364.471 1154.65 367.18 1158.22 369.161C1160.34 370.34 1163.11 370.258 1165.85 369.934C1164.54 370.868 1162.9 371.423 1161.12 371.423C1156.82 371.423 1153.32 368.164 1153.32 364.144C1153.32 362.74 1153.75 361.429 1154.49 360.317Z" fill="#F95B6E"/>
<ellipse cx="1143.44" cy="348.471" rx="8.6043" ry="8.03083" fill="#562B47"/>
<ellipse cx="1143.44" cy="347.718" rx="7.79805" ry="7.27831" fill="#FF91A4"/>
<path fill-rule="evenodd" clip-rule="evenodd" d="M1136.8 343.89C1136.56 344.431 1136.39 344.989 1136.31 345.534C1135.91 348.044 1136.97 350.753 1140.53 352.735C1142.66 353.914 1145.43 353.831 1148.16 353.507C1146.85 354.441 1145.22 354.996 1143.44 354.996C1139.13 354.996 1135.64 351.737 1135.64 347.718C1135.64 346.313 1136.07 345.002 1136.8 343.89Z" fill="#F95B6E"/>
<ellipse cx="1178.81" cy="348.084" rx="8.6043" ry="8.03083" fill="#562B47"/>
<ellipse cx="1178.8" cy="347.331" rx="7.79805" ry="7.27831" fill="#FF91A4"/>
<path fill-rule="evenodd" clip-rule="evenodd" d="M1172.17 343.503C1171.92 344.044 1171.76 344.602 1171.67 345.147C1171.28 347.657 1172.33 350.366 1175.9 352.347C1178.02 353.526 1180.8 353.444 1183.53 353.12C1182.22 354.054 1180.58 354.609 1178.81 354.609C1174.5 354.609 1171.01 351.35 1171.01 347.331C1171.01 345.926 1171.43 344.615 1172.17 343.503Z" fill="#F95B6E"/>
<circle cx="1164.8" cy="327.241" r="0.588627" fill="#FFDEDE"/>
<circle cx="1147.55" cy="343.891" r="0.588627" fill="#FFDEDE"/>
<circle cx="1182.97" cy="343.891" r="0.588627" fill="#FFDEDE"/>
<circle cx="1165.26" cy="361.633" r="0.588627" fill="#FFDEDE"/>
<g opacity="0.2" filter="url(#filter3_f)">
<path d="M236.711 104.497H159.588C153.316 104.497 148.231 109.581 148.231 115.854V115.854C148.231 124.936 140.869 132.298 131.787 132.298H64.5714" stroke="#551839" stroke-width="27.245"/>
</g>
<g opacity="0.2" filter="url(#filter4_f)">
<path d="M32.1396 140.082H-44.9832C-51.2555 140.082 -56.3403 145.166 -56.3403 151.439V151.439C-56.3403 160.521 -63.7026 167.883 -72.7844 167.883H-140" stroke="#551839" stroke-width="27.245"/>
</g>
<g opacity="0.2" filter="url(#filter5_f)">
<circle r="39.3461" transform="matrix(-1 0 0 1 276.082 103.031)" fill="#49032D" fill-opacity="0.66"/>
</g>
<ellipse rx="39.0324" ry="37.3839" transform="matrix(-1 0 0 1 280.348 97.6039)" fill="url(#paint8_linear)"/>
<rect x="48.5344" y="107.779" width="9.52267" height="32.5297" rx="1.21089" fill="url(#paint9_linear)"/>
<rect x="49.4734" y="134.946" width="9.52267" height="1.95122" rx="0.975609" fill="#F2B75E"/>
<rect x="49.4734" y="134.946" width="9.52267" height="1.95122" rx="0.975609" fill="url(#paint10_linear)"/>
<rect x="49.4734" y="131.483" width="9.52267" height="1.95122" rx="0.975609" fill="#F2B75E"/>
<rect x="49.4734" y="131.483" width="9.52267" height="1.95122" rx="0.975609" fill="url(#paint11_linear)"/>
<rect x="49.4734" y="128.02" width="9.52267" height="1.95122" rx="0.975609" fill="#F2B75E"/>
<rect x="49.4734" y="128.02" width="9.52267" height="1.95122" rx="0.975609" fill="url(#paint12_linear)"/>
<rect x="49.4734" y="124.556" width="9.52267" height="1.95122" rx="0.975609" fill="#F2B75E"/>
<rect x="49.4734" y="124.556" width="9.52267" height="1.95122" rx="0.975609" fill="url(#paint13_linear)"/>
<rect x="49.4734" y="121.092" width="9.52267" height="1.95122" rx="0.975609" fill="#F2B75E"/>
<rect x="49.4734" y="121.092" width="9.52267" height="1.95122" rx="0.975609" fill="url(#paint14_linear)"/>
<rect x="49.4734" y="117.629" width="9.52267" height="1.95122" rx="0.975609" fill="#F2B75E"/>
<rect x="49.4734" y="117.629" width="9.52267" height="1.95122" rx="0.975609" fill="url(#paint15_linear)"/>
<rect x="49.4734" y="114.165" width="9.52267" height="1.95122" rx="0.975609" fill="#F2B75E"/>
<rect x="49.4734" y="114.165" width="9.52267" height="1.95122" rx="0.975609" fill="url(#paint16_linear)"/>
<rect x="49.4734" y="110.701" width="9.52267" height="1.95122" rx="0.975609" fill="#F2B75E"/>
<rect x="49.4734" y="110.701" width="9.52267" height="1.95122" rx="0.975609" fill="url(#paint17_linear)"/>
<rect x="141.23" y="236.146" width="89.5359" height="22.384" rx="11.192" transform="rotate(-180 141.23 236.146)" fill="#EFEFEF"/>
<circle cx="96.4619" cy="225.024" r="5.72613" transform="rotate(-180 96.4619 225.024)" fill="#F8F8F8"/>
<circle cx="128.731" cy="225.024" r="5.72613" transform="rotate(-180 128.731 225.024)" fill="#F8F8F8"/>
<circle cx="65.3083" cy="225.024" r="5.72613" transform="rotate(-180 65.3083 225.024)" fill="#F8F8F8"/>
<path d="M224.918 89.1311L162.568 89.1309C153.623 89.1309 146.371 96.3823 146.371 105.327V105.327C146.371 111.737 141.176 116.932 134.767 116.932L65.8048 116.932" stroke="#A36084" stroke-width="7.65808"/>
<path d="M228.076 95.6611H163.979C157.706 95.6611 152.622 100.746 152.622 107.018V107.018C152.622 116.1 145.259 123.462 136.177 123.462H68.962" stroke="#AE73A8" stroke-width="7.65808"/>
<path d="M231.001 103.03H162.106C160.701 103.03 159.562 104.169 159.562 105.574V105.574C159.562 119.523 148.254 130.832 134.305 130.832L71.8878 130.832" stroke="#B884B9" stroke-width="7.65808"/>
<path fill-rule="evenodd" clip-rule="evenodd" d="M70.6204 144.985V144.985H55.9119V109.31H70.5333C70.5618 109.31 70.5904 109.31 70.619 109.31C74.6806 109.31 77.9732 112.602 77.9732 116.664V137.631C77.9732 141.692 74.6814 144.984 70.6204 144.985Z" fill="url(#paint18_linear)"/>
<path fill-rule="evenodd" clip-rule="evenodd" d="M70.6204 138.706V138.707H55.9119V103.032H70.5055C70.5433 103.031 70.5811 103.031 70.619 103.031C74.6806 103.031 77.9732 106.324 77.9732 110.385V131.352C77.9732 135.413 74.6814 138.705 70.6204 138.706Z" fill="#F47A90"/>
<circle cx="71.0552" cy="131.908" r="1.52567" fill="#893348"/>
<circle cx="71.0552" cy="124.685" r="1.52567" fill="#893348"/>
<circle cx="71.0552" cy="117.185" r="1.52567" fill="#893348"/>
<path fill-rule="evenodd" clip-rule="evenodd" d="M232.273 116.931V116.931H246.982V81.2564H232.385C232.348 81.2559 232.312 81.2556 232.275 81.2556C228.213 81.2556 224.92 84.5482 224.92 88.6099V109.576C224.92 113.638 228.212 116.93 232.273 116.931Z" fill="url(#paint19_linear)"/>
<path fill-rule="evenodd" clip-rule="evenodd" d="M232.273 110.653V110.653H246.982V74.9779H232.352C232.326 74.9777 232.3 74.9775 232.275 74.9775C228.213 74.9775 224.92 78.2702 224.92 82.3318V103.298C224.92 107.359 228.212 110.652 232.273 110.653Z" fill="#F47A90"/>
<circle r="1.52567" transform="matrix(-1 0 0 1 231.838 103.855)" fill="#893348"/>
<circle r="1.52567" transform="matrix(-1 0 0 1 231.838 96.6319)" fill="#893348"/>
<circle r="1.52567" transform="matrix(-1 0 0 1 231.838 89.1304)" fill="#893348"/>
<circle r="1.52567" transform="matrix(-1 0 0 1 231.838 81.908)" fill="#893348"/>
<path fill-rule="evenodd" clip-rule="evenodd" d="M17.4306 144.985V144.985H32.1392V109.31H17.5176C17.4891 109.31 17.4605 109.31 17.4319 109.31C13.3703 109.31 10.0777 112.602 10.0777 116.664V137.63C10.0777 141.692 13.3696 144.984 17.4306 144.985Z" fill="url(#paint20_linear)"/>
<path fill-rule="evenodd" clip-rule="evenodd" d="M17.432 103.031H32.1394V138.706H17.432C17.4316 138.706 17.4313 138.706 17.4309 138.706C13.3698 138.706 10.0777 135.413 10.0777 131.352V110.386C10.0777 106.324 13.3698 103.032 17.4309 103.031C17.4313 103.031 17.4316 103.031 17.432 103.031Z" fill="#F47A90"/>
<circle r="1.52567" transform="matrix(-1 0 0 1 16.9958 131.908)" fill="#893348"/>
<circle r="1.52567" transform="matrix(-1 0 0 1 16.9958 124.686)" fill="#893348"/>
<circle r="1.52567" transform="matrix(-1 0 0 1 16.9958 117.183)" fill="#893348"/>
<circle r="1.52567" transform="matrix(-1 0 0 1 16.9958 109.962)" fill="#893348"/>
<circle cx="71.0552" cy="109.962" r="1.52567" fill="#893348"/>
<circle cx="113.807" cy="33.5106" r="9.5953" fill="#F1F1F1"/>
<circle cx="53.3995" cy="66.1314" r="9.5953" fill="#F1F1F1"/>
<circle cx="149.839" cy="33.5106" r="9.5953" fill="#F1F1F1"/>
<circle cx="89.4307" cy="66.1314" r="9.5953" fill="#F1F1F1"/>
<rect x="40.7136" y="25.4197" width="46.6583" height="18.7443" rx="9.37215" fill="#E3E3E3"/>
<rect x="40.7144" y="22" width="46.6583" height="18.7443" rx="9.37215" fill="#F3F3F3"/>
<rect x="47.2183" y="28.3254" width="32.15" height="6.53913" rx="3.26956" fill="white"/>
<path d="M146.834 178.09L146.834 188.022C146.834 189.625 148.134 190.925 149.737 190.925L193.391 190.925C194.994 190.925 196.294 189.625 196.294 188.022L196.294 178.09C196.294 176.487 194.994 175.187 193.391 175.187L149.737 175.187C148.134 175.187 146.834 176.487 146.834 178.09Z" fill="#F3F3F3"/>
<path d="M166.38 206.65L177.136 206.65C178.739 206.65 180.039 205.351 180.039 203.747L180.039 161.925C180.039 160.322 178.739 159.022 177.136 159.022L166.38 159.022C164.776 159.022 163.477 160.322 163.477 161.925L163.477 203.747C163.477 205.351 164.776 206.65 166.38 206.65Z" fill="#F3F3F3"/>
<ellipse cx="171.849" cy="198.62" rx="2.58802" ry="2.49217" transform="rotate(-180 171.849 198.62)" fill="white"/>
<ellipse cx="153.446" cy="183.113" rx="2.58802" ry="2.49217" transform="rotate(-180 153.446 183.113)" fill="white"/>
<ellipse cx="171.849" cy="165.391" rx="2.58802" ry="2.49217" transform="rotate(-180 171.849 165.391)" fill="white"/>
<ellipse cx="189.679" cy="183.113" rx="2.58802" ry="2.49217" transform="rotate(-180 189.679 183.113)" fill="white"/>
<rect x="-11.1763" y="174.134" width="137.847" height="19.6924" rx="9.84621" fill="#F3F3F3"/>
<g filter="url(#filter6_f)">
<path d="M-113.964 270.806C-127.708 270.806 -138.85 281.948 -138.85 295.692L-138.85 435.112C-138.85 448.857 -127.708 459.999 -113.964 459.999L249.91 459.999C255.879 459.999 261.648 457.853 266.167 453.954L278.721 443.122C284.2 438.395 287.35 431.517 287.35 424.281L287.35 295.692C287.35 281.948 276.208 270.806 262.463 270.806L-113.964 270.806Z" fill="#460839" fill-opacity="0.33"/>
</g>
<rect x="-55.8389" y="264.159" width="341.309" height="181.008" rx="20.8552" fill="url(#paint21_linear)"/>
<rect x="-55.8389" y="253.629" width="341.309" height="181.008" rx="20.8552" fill="url(#paint22_linear)"/>
<rect x="110.266" y="272.334" width="156.072" height="143.598" rx="7.9234" fill="#7D304C" stroke="#422641" stroke-width="2.11796"/>
<rect x="255.396" y="283.41" width="121.445" height="134.188" rx="5.48923" transform="rotate(90 255.396 283.41)" fill="#5F1731"/>
<rect x="58.0427" y="277.694" width="51.3522" height="19.6894" rx="3.24364" transform="rotate(90 58.0427 277.694)" fill="#571727" stroke="#422641" stroke-width="1.49706"/>
<rect x="20.0845" y="294.412" width="56.2275" height="17.9163" rx="3.24364" fill="url(#paint23_linear)" stroke="#422641" stroke-width="1.49706"/>
<rect x="20.833" y="292.47" width="54.7304" height="16.4192" rx="2.49511" fill="url(#paint24_linear)"/>
<rect x="57.2942" y="275.752" width="49.8552" height="18.1923" rx="2.49511" transform="rotate(90 57.2942 275.752)" fill="#862F63"/>
<line x1="28.0247" y1="300.423" x2="31.597" y2="300.423" stroke="#FFD8D8" stroke-width="2.99413" stroke-linecap="round"/>
<line x1="65.2248" y1="300.423" x2="68.7972" y2="300.423" stroke="#FFD8D8" stroke-width="2.99413" stroke-linecap="round"/>
<line x1="48.3252" y1="282.089" x2="48.3252" y2="285.661" stroke="#FFD8D8" stroke-width="2.99413" stroke-linecap="round"/>
<line x1="48.3252" y1="315.885" x2="48.3252" y2="319.458" stroke="#FFD8D8" stroke-width="2.99413" stroke-linecap="round"/>
<ellipse cx="39.6117" cy="364.054" rx="13.3315" ry="12.4429" fill="#422641"/>
<ellipse cx="54.0451" cy="397.793" rx="13.3315" ry="12.4429" fill="#422641"/>
<ellipse cx="39.6116" cy="362.887" rx="12.0823" ry="11.277" fill="#95326D"/>
<path fill-rule="evenodd" clip-rule="evenodd" d="M29.3332 356.957C28.947 357.795 28.6953 358.659 28.5619 359.504C27.9477 363.394 29.5855 367.59 35.1127 370.661C38.4006 372.488 42.6977 372.36 46.934 371.858C44.9023 373.305 42.3644 374.164 39.6116 374.164C32.9387 374.164 27.5293 369.115 27.5293 362.887C27.5293 360.711 28.1895 358.68 29.3332 356.957Z" fill="#62284B"/>
<ellipse cx="54.0454" cy="396.628" rx="12.0823" ry="11.277" fill="#95326D"/>
<path fill-rule="evenodd" clip-rule="evenodd" d="M43.7663 390.698C43.3801 391.536 43.1284 392.4 42.995 393.245C42.3808 397.135 44.0186 401.331 49.5458 404.402C52.8337 406.229 57.1308 406.101 61.3671 405.599C59.3354 407.046 56.7975 407.905 54.0447 407.905C47.3718 407.905 41.9624 402.856 41.9624 396.628C41.9624 394.452 42.6226 392.42 43.7663 390.698Z" fill="#62284B"/>
<circle cx="46.6445" cy="357.37" r="0.798514" fill="#FFDEDE"/>
<circle cx="59.673" cy="389.898" r="0.798514" fill="#FFDEDE"/>
<rect x="143.313" y="366.746" width="2.68455" height="2.68455" fill="white"/>
<rect x="143.313" y="364.061" width="2.68455" height="2.68455" fill="white"/>
<rect x="143.313" y="374.799" width="2.68455" height="2.68455" fill="white"/>
<rect x="143.313" y="369.43" width="2.68455" height="2.68455" fill="white"/>
<rect x="137.945" y="369.43" width="2.68455" height="2.68455" fill="white"/>
<rect x="143.313" y="372.115" width="2.68455" height="2.68455" fill="white"/>
<rect x="145.998" y="366.746" width="2.68455" height="2.68455" fill="white"/>
<rect x="145.998" y="364.061" width="2.68455" height="2.68455" fill="white"/>
<rect x="145.998" y="374.799" width="2.68455" height="2.68455" fill="white"/>
<rect x="148.683" y="364.061" width="2.68455" height="2.68455" fill="white"/>
<rect x="148.683" y="374.799" width="2.68455" height="2.68455" fill="white"/>
<rect x="148.683" y="377.484" width="2.68455" height="2.68455" fill="white"/>
<rect x="145.998" y="372.115" width="2.68455" height="2.68455" fill="white"/>
<rect x="151.368" y="366.746" width="2.68455" height="2.68455" fill="white"/>
<rect x="151.368" y="364.061" width="2.68455" height="2.68455" fill="white"/>
<rect x="151.368" y="374.799" width="2.68455" height="2.68455" fill="white"/>
<rect x="151.368" y="377.484" width="2.68455" height="2.68455" fill="white"/>
<rect x="151.368" y="372.115" width="2.68455" height="2.68455" fill="white"/>
<rect x="154.052" y="366.746" width="2.68455" height="2.68455" fill="white"/>
<rect x="159.421" y="366.746" width="2.68455" height="2.68455" fill="white"/>
<rect x="167.475" y="366.746" width="2.68455" height="2.68455" fill="white"/>
<rect x="154.052" y="364.061" width="2.68455" height="2.68455" fill="white"/>
<rect x="159.421" y="364.061" width="2.68455" height="2.68455" fill="white"/>
<rect x="159.421" y="334.92" width="2.68455" height="2.68455" fill="white"/>
<rect x="159.421" y="322.442" width="2.68455" height="2.68455" fill="white"/>
<rect x="159.421" y="309.966" width="2.68455" height="2.68455" fill="white"/>
<rect x="159.421" y="297.488" width="2.68455" height="2.68455" fill="white"/>
<rect x="159.421" y="358.691" width="2.68455" height="2.68455" fill="white"/>
<rect x="159.421" y="356.007" width="2.68455" height="2.68455" fill="white"/>
<rect x="159.421" y="353.323" width="2.68455" height="2.68455" fill="white"/>
<rect x="167.475" y="364.061" width="2.68455" height="2.68455" fill="white"/>
<rect x="172.844" y="364.061" width="2.68455" height="2.68455" fill="white"/>
<rect x="154.052" y="374.799" width="2.68455" height="2.68455" fill="white"/>
<rect x="156.736" y="374.799" width="2.68455" height="2.68455" fill="white"/>
<rect x="154.052" y="377.484" width="2.68455" height="2.68455" fill="white"/>
<rect x="167.475" y="374.799" width="2.68455" height="2.68455" fill="white"/>
<rect x="167.475" y="377.484" width="2.68455" height="2.68455" fill="white"/>
<rect x="172.844" y="374.799" width="2.68455" height="2.68455" fill="white"/>
<rect x="154.052" y="369.43" width="2.68455" height="2.68455" fill="white"/>
<rect x="159.421" y="369.43" width="2.68455" height="2.68455" fill="white"/>
<rect x="167.475" y="369.43" width="2.68455" height="2.68455" fill="white"/>
<rect x="172.844" y="369.43" width="2.68455" height="2.68455" fill="white"/>
<rect x="154.052" y="372.115" width="2.68455" height="2.68455" fill="white"/>
<rect x="159.421" y="372.115" width="2.68455" height="2.68455" fill="white"/>
<rect x="172.844" y="372.115" width="2.68455" height="2.68455" fill="white"/>
<rect x="156.736" y="366.746" width="2.68455" height="2.68455" fill="white"/>
<rect x="162.105" y="366.746" width="2.68455" height="2.68455" fill="white"/>
<rect x="164.79" y="366.746" width="2.68455" height="2.68455" fill="white"/>
<rect x="170.16" y="366.746" width="2.68455" height="2.68455" fill="white"/>
<rect x="175.528" y="366.746" width="2.68455" height="2.68455" fill="white"/>
<rect x="156.736" y="364.061" width="2.68455" height="2.68455" fill="white"/>
<rect x="162.105" y="364.061" width="2.68455" height="2.68455" fill="white"/>
<rect x="164.79" y="364.061" width="2.68455" height="2.68455" fill="white"/>
<rect x="170.16" y="364.061" width="2.68455" height="2.68455" fill="white"/>
<rect x="175.528" y="364.061" width="2.68455" height="2.68455" fill="white"/>
<rect x="164.79" y="374.799" width="2.68455" height="2.68455" fill="white"/>
<rect x="162.105" y="374.799" width="2.68455" height="2.68455" fill="white"/>
<rect x="164.79" y="377.484" width="2.68455" height="2.68455" fill="white"/>
<rect x="170.16" y="374.799" width="2.68455" height="2.68455" fill="white"/>
<rect x="170.16" y="377.484" width="2.68455" height="2.68455" fill="white"/>
<rect x="175.528" y="374.799" width="2.68455" height="2.68455" fill="white"/>
<rect x="156.736" y="369.43" width="2.68455" height="2.68455" fill="white"/>
<rect x="162.105" y="369.43" width="2.68455" height="2.68455" fill="white"/>
<rect x="164.79" y="369.43" width="2.68455" height="2.68455" fill="white"/>
<rect x="170.16" y="369.43" width="2.68455" height="2.68455" fill="white"/>
<rect x="175.528" y="369.43" width="2.68455" height="2.68455" fill="white"/>
<rect x="180.898" y="369.43" width="2.68455" height="2.68455" fill="white"/>
<rect x="156.736" y="372.115" width="2.68455" height="2.68455" fill="white"/>
<rect x="162.105" y="372.115" width="2.68455" height="2.68455" fill="white"/>
<rect x="164.79" y="372.115" width="2.68455" height="2.68455" fill="white"/>
<rect x="170.16" y="372.115" width="2.68455" height="2.68455" fill="white"/>
<rect x="175.528" y="372.115" width="2.68455" height="2.68455" fill="white"/>
<rect x="201.663" y="366.746" width="2.68455" height="2.68455" fill="white"/>
<rect x="201.663" y="364.062" width="2.68455" height="2.68455" fill="white"/>
<rect x="201.663" y="374.8" width="2.68455" height="2.68455" fill="white"/>
<rect x="201.663" y="369.431" width="2.68455" height="2.68455" fill="white"/>
<rect x="196.294" y="369.431" width="2.68455" height="2.68455" fill="white"/>
<rect x="201.663" y="372.115" width="2.68455" height="2.68455" fill="white"/>
<rect x="204.347" y="366.746" width="2.68455" height="2.68455" fill="white"/>
<rect x="204.347" y="364.062" width="2.68455" height="2.68455" fill="white"/>
<rect x="204.347" y="374.8" width="2.68455" height="2.68455" fill="white"/>
<rect x="207.032" y="364.062" width="2.68455" height="2.68455" fill="white"/>
<rect x="207.032" y="374.8" width="2.68455" height="2.68455" fill="white"/>
<rect x="207.032" y="377.484" width="2.68455" height="2.68455" fill="white"/>
<rect x="204.347" y="372.115" width="2.68455" height="2.68455" fill="white"/>
<rect x="209.717" y="366.746" width="2.68455" height="2.68455" fill="white"/>
<rect x="209.717" y="364.062" width="2.68455" height="2.68455" fill="white"/>
<rect x="209.717" y="374.8" width="2.68455" height="2.68455" fill="white"/>
<rect x="209.717" y="377.484" width="2.68455" height="2.68455" fill="white"/>
<rect x="209.717" y="372.115" width="2.68455" height="2.68455" fill="white"/>
<rect x="212.401" y="366.746" width="2.68455" height="2.68455" fill="white"/>
<rect x="217.771" y="366.746" width="2.68455" height="2.68455" fill="white"/>
<rect x="225.824" y="366.746" width="2.68455" height="2.68455" fill="white"/>
<rect x="212.401" y="364.062" width="2.68455" height="2.68455" fill="white"/>
<rect x="217.771" y="364.062" width="2.68455" height="2.68455" fill="white"/>
<rect x="217.771" y="358.692" width="2.68455" height="2.68455" fill="white"/>
<rect x="217.771" y="356.008" width="2.68455" height="2.68455" fill="white"/>
<rect x="217.771" y="353.323" width="2.68455" height="2.68455" fill="white"/>
<rect x="225.824" y="364.062" width="2.68455" height="2.68455" fill="white"/>
<rect x="231.193" y="364.062" width="2.68455" height="2.68455" fill="white"/>
<rect x="212.401" y="374.8" width="2.68455" height="2.68455" fill="white"/>
<rect x="215.085" y="374.8" width="2.68455" height="2.68455" fill="white"/>
<rect x="212.401" y="377.484" width="2.68455" height="2.68455" fill="white"/>
<rect x="225.824" y="374.8" width="2.68455" height="2.68455" fill="white"/>
<rect x="225.824" y="377.484" width="2.68455" height="2.68455" fill="white"/>
<rect x="231.193" y="374.8" width="2.68455" height="2.68455" fill="white"/>
<rect x="212.401" y="369.431" width="2.68455" height="2.68455" fill="white"/>
<rect x="217.771" y="369.431" width="2.68455" height="2.68455" fill="white"/>
<rect x="225.824" y="369.431" width="2.68455" height="2.68455" fill="white"/>
<rect x="231.193" y="369.431" width="2.68455" height="2.68455" fill="white"/>
<rect x="212.401" y="372.115" width="2.68455" height="2.68455" fill="white"/>
<rect x="217.771" y="372.115" width="2.68455" height="2.68455" fill="white"/>
<rect x="231.193" y="372.115" width="2.68455" height="2.68455" fill="white"/>
<rect x="215.085" y="366.746" width="2.68455" height="2.68455" fill="white"/>
<rect x="220.455" y="366.746" width="2.68455" height="2.68455" fill="white"/>
<rect x="223.139" y="366.746" width="2.68455" height="2.68455" fill="white"/>
<rect x="228.509" y="366.746" width="2.68455" height="2.68455" fill="white"/>
<rect x="233.877" y="366.746" width="2.68455" height="2.68455" fill="white"/>
<rect x="215.085" y="364.062" width="2.68455" height="2.68455" fill="white"/>
<rect x="220.455" y="364.062" width="2.68455" height="2.68455" fill="white"/>
<rect x="223.139" y="364.062" width="2.68455" height="2.68455" fill="white"/>
<rect x="228.509" y="364.062" width="2.68455" height="2.68455" fill="white"/>
<rect x="233.877" y="364.062" width="2.68455" height="2.68455" fill="white"/>
<rect x="223.139" y="374.8" width="2.68455" height="2.68455" fill="white"/>
<rect x="220.455" y="374.8" width="2.68455" height="2.68455" fill="white"/>
<rect x="223.139" y="377.484" width="2.68455" height="2.68455" fill="white"/>
<rect x="228.509" y="374.8" width="2.68455" height="2.68455" fill="white"/>
<rect x="228.509" y="377.484" width="2.68455" height="2.68455" fill="white"/>
<rect x="233.877" y="374.8" width="2.68455" height="2.68455" fill="white"/>
<rect x="215.085" y="369.431" width="2.68455" height="2.68455" fill="white"/>
<rect x="220.455" y="369.431" width="2.68455" height="2.68455" fill="white"/>
<rect x="223.139" y="369.431" width="2.68455" height="2.68455" fill="white"/>
<rect x="228.509" y="369.431" width="2.68455" height="2.68455" fill="white"/>
<rect x="233.877" y="369.431" width="2.68455" height="2.68455" fill="white"/>
<rect x="239.247" y="369.431" width="2.68455" height="2.68455" fill="white"/>
<rect x="215.085" y="372.115" width="2.68455" height="2.68455" fill="white"/>
<rect x="220.455" y="372.115" width="2.68455" height="2.68455" fill="white"/>
<rect x="223.139" y="372.115" width="2.68455" height="2.68455" fill="white"/>
<rect x="228.509" y="372.115" width="2.68455" height="2.68455" fill="white"/>
<rect x="233.877" y="372.115" width="2.68455" height="2.68455" fill="white"/>
<g style="mix-blend-mode:screen">
<rect x="255.396" y="283.411" width="121.445" height="134.188" rx="5.48923" transform="rotate(90 255.396 283.411)" fill="url(#paint25_radial)"/>
</g>
<path d="M304.088 419.356L304.088 260.476" stroke="url(#paint26_linear)" stroke-width="1.81633"/>
<circle cx="298.514" cy="245.685" r="0.967624" fill="white"/>
<rect x="289.447" y="92.2185" width="29.9337" height="6.77069" fill="#FE9399"/>
<ellipse rx="39.0324" ry="36.933" transform="matrix(-1 0 0 1 280.346 92.1883)" fill="url(#paint27_linear)"/>
<path d="M271.246 72.5256C271.246 70.4109 272.96 68.6965 275.075 68.6965H285.618C287.732 68.6965 289.447 70.4108 289.447 72.5256V80.6005C289.447 81.6831 288.988 82.7152 288.185 83.4411L282.913 88.2064C281.455 89.5244 279.236 89.5243 277.778 88.2061L272.507 83.4411C271.704 82.7152 271.246 81.6832 271.246 80.6008V72.5256Z" fill="#460F41"/>
<path d="M271.246 114.186C271.246 116.301 272.96 118.015 275.075 118.015H285.618C287.732 118.015 289.447 116.301 289.447 114.186V106.111C289.447 105.028 288.988 103.996 288.185 103.27L282.913 98.505C281.455 97.187 279.236 97.1871 277.778 98.5053L272.507 103.27C271.704 103.996 271.246 105.028 271.246 106.111V114.186Z" fill="#460F41"/>
<path d="M303.979 101.631C306.093 101.631 307.808 99.9166 307.808 97.8019L307.808 89.006C307.808 86.8913 306.093 85.177 303.979 85.177L294.233 85.177C293.284 85.177 292.369 85.5294 291.665 86.1658L286.801 90.5644C285.119 92.0847 285.119 94.7249 286.801 96.245L291.665 100.642C292.369 101.279 293.284 101.631 294.233 101.631L303.979 101.631Z" fill="#460F41"/>
<path d="M256.715 101.631C254.6 101.631 252.886 99.9166 252.886 97.8019L252.886 89.006C252.886 86.8913 254.6 85.177 256.715 85.177L266.46 85.177C267.409 85.177 268.324 85.5294 269.028 86.1658L273.893 90.5644C275.574 92.0847 275.574 94.7249 273.892 96.245L269.028 100.642C268.324 101.279 267.409 101.631 266.46 101.631L256.715 101.631Z" fill="#460F41"/>
<path d="M271.246 112.892C271.246 115.007 272.96 116.721 275.075 116.721H285.618C287.732 116.721 289.447 115.007 289.447 112.892V104.817C289.447 103.734 288.988 102.702 288.185 101.976L282.913 97.2111C281.455 95.8931 279.236 95.8932 277.778 97.2113L272.507 101.976C271.704 102.702 271.246 103.734 271.246 104.817V112.892Z" fill="#692D60"/>
<path d="M256.715 100.123C254.6 100.123 252.886 98.4086 252.886 96.2939L252.886 87.498C252.886 85.3833 254.6 83.6689 256.715 83.6689L266.46 83.6689C267.409 83.6689 268.324 84.0213 269.028 84.6578L273.893 89.0563C275.574 90.5766 275.574 93.2168 273.892 94.737L269.028 99.1343C268.324 99.7706 267.409 100.123 266.46 100.123L256.715 100.123Z" fill="#692D60"/>
<path d="M303.979 100.123C306.093 100.123 307.808 98.4086 307.808 96.2939L307.808 87.498C307.808 85.3833 306.093 83.6689 303.979 83.6689L294.233 83.6689C293.284 83.6689 292.369 84.0213 291.665 84.6578L286.801 89.0563C285.119 90.5766 285.119 93.2168 286.801 94.737L291.665 99.1343C292.369 99.7706 293.284 100.123 294.233 100.123L303.979 100.123Z" fill="#692D60"/>
<path d="M280.346 107.704L280.346 111.468" stroke="#DDB9C0" stroke-width="3.19087" stroke-linecap="round"/>
<path d="M258.497 91.7158L262.661 91.7158" stroke="#DDB9C0" stroke-width="3.19087" stroke-linecap="round"/>
<path d="M298.033 91.7158L302.197 91.7158" stroke="#DDB9C0" stroke-width="3.19087" stroke-linecap="round"/>
<path d="M271.246 70.8989C271.246 68.7841 272.96 67.0698 275.075 67.0698H285.618C287.732 67.0698 289.447 68.7841 289.447 70.8989V78.9738C289.447 80.0564 288.988 81.0885 288.185 81.8144L282.913 86.5797C281.455 87.8977 279.236 87.8976 277.778 86.5794L272.507 81.8144C271.704 81.0884 271.246 80.0565 271.246 78.9741V70.8989Z" fill="#692D60"/>
<path d="M280.346 71.9622L280.346 75.7264" stroke="#DDB9C0" stroke-width="3.19087" stroke-linecap="round"/>
<g clip-path="url(#clip1)">
<rect width="500.695" height="105.243" transform="translate(464 191)" fill="white"/>
<rect x="616.603" y="227.844" width="9.4719" height="33.1396" fill="black"/>
<path fill-rule="evenodd" clip-rule="evenodd" d="M606.987 261.51C616.862 261.51 623.954 253.039 623.954 244.408C623.954 236.256 616.909 227.306 606.987 227.306C597.497 227.306 590.292 234.963 590.292 244.408C590.292 253.853 597.497 261.51 606.987 261.51ZM608.026 252.865C612.892 252.865 616.603 249.24 616.603 244.408C616.603 239.575 612.892 235.95 608.026 235.95C603.161 235.95 599.392 239.737 599.392 244.408C599.392 249.079 603.161 252.865 608.026 252.865Z" fill="black"/>
<path fill-rule="evenodd" clip-rule="evenodd" d="M664.125 237.082L655.449 241.113C654.343 238.62 652.01 236.614 648.854 236.614C644.369 236.614 640.895 240.105 640.895 244.411C640.895 248.717 644.369 252.208 648.854 252.208C652.082 252.208 654.449 250.401 655.523 247.784L664.181 251.866C661.521 257.576 655.816 261.512 648.704 261.512C639.126 261.512 631.602 253.856 631.602 244.41C631.602 234.965 639.468 227.308 648.704 227.308C655.375 227.308 661.332 231.304 664.125 237.082Z" fill="black"/>
<rect x="669.488" y="227.838" width="9.4719" height="33.1514" fill="black"/>
<path d="M690.538 240.729L700.01 239.94V260.989H690.538V240.729Z" fill="black"/>
<path d="M711.585 240.729L721.057 239.94V260.989H711.585V240.729Z" fill="black"/>
<path d="M687.45 227.309C695.832 227.309 700.009 233.731 700.009 240.464L690.537 242.225C690.537 239.313 687.906 236.692 684.749 236.692C681.592 236.692 678.961 239.414 678.961 242.571L676.452 239.03C675.465 236.692 679.043 227.309 687.45 227.309Z" fill="black"/>
<path d="M708.497 227.309C716.879 227.309 721.057 233.731 721.057 240.464L711.585 242.225C711.585 239.313 708.954 236.692 705.796 236.692C702.639 236.692 700.008 239.414 700.008 242.571L697.499 239.03C696.512 236.692 700.09 227.309 708.497 227.309Z" fill="black"/>
<path d="M708.497 227.309C716.879 227.309 721.057 233.731 721.057 240.464L711.585 241.253C711.585 238.342 708.954 235.991 705.797 235.991C702.639 235.991 700.008 238.096 700.008 241.253L695.272 236.254C697.377 231.518 700.09 227.309 708.497 227.309Z" fill="black"/>
<circle cx="735.647" cy="254.791" r="6.17092" fill="black"/>
<path d="M541.047 266.574C541.047 269.262 538.012 270.459 534.266 270.459C530.519 270.459 527.485 269.262 527.485 266.574C527.485 264.161 528.92 266.417 534.266 266.417C539.612 266.417 541.047 264.289 541.047 266.574Z" fill="white"/>
<path fill-rule="evenodd" clip-rule="evenodd" d="M762.458 227.473C770.847 226.474 775.753 231.186 777.219 234.769L769.246 238.03C768.714 237.105 766.877 235.406 764.541 235.406C761.631 235.406 761.053 236.509 760.852 237.091C760.584 237.868 760.996 238.587 761.953 238.94C762.866 239.277 763.842 239.519 764.867 239.773L764.867 239.773C765.409 239.907 765.964 240.044 766.531 240.201L766.532 240.2L766.598 240.218C768.74 240.806 771.15 241.55 773.975 243.682C775.99 245.202 777.209 247.318 777.462 249.681C777.703 251.934 777.031 254.033 776.013 255.701C774.021 258.965 770.137 261.52 765.62 261.52L765.571 261.52C764.514 261.521 761.691 261.521 758.701 260.681C755.668 259.83 751.784 257.912 749.735 253.582L757.752 249.788C757.779 249.858 758.226 250.959 759.84 252.156C761.508 253.392 763.521 253.578 765.621 253.126C767.976 252.619 768.347 251.097 767.649 250.408C766.83 249.6 765.192 249.136 763.567 248.675C763.373 248.62 763.178 248.564 762.986 248.509L762.986 248.506C762.918 248.487 762.849 248.468 762.779 248.449C762.756 248.442 762.734 248.435 762.711 248.429L762.708 248.429C761.03 247.954 758.955 247.276 756.456 245.937C754.417 244.845 752.709 243.247 751.761 241.151C750.792 239.006 750.776 236.663 751.618 234.547C753.26 230.422 757.615 228.049 762.458 227.473Z" fill="black"/>
<rect x="875.219" y="212.787" width="9.4719" height="48.2808" fill="black"/>
<path fill-rule="evenodd" clip-rule="evenodd" d="M865.622 261.512C875.497 261.512 882.589 253.041 882.589 244.41C882.589 236.257 875.544 227.308 865.622 227.308C856.132 227.308 848.927 234.965 848.927 244.41C848.927 253.855 856.132 261.512 865.622 261.512ZM866.66 252.867C871.525 252.867 875.236 249.242 875.236 244.41C875.236 239.577 871.525 235.952 866.66 235.952C861.794 235.952 858.026 239.739 858.026 244.41C858.026 249.081 861.794 252.867 866.66 252.867Z" fill="black"/>
<path fill-rule="evenodd" clip-rule="evenodd" d="M925.493 261.512C935.412 261.512 942.595 253.855 942.595 244.41C942.595 234.965 934.728 227.308 925.493 227.308C916.258 227.308 908.391 234.965 908.391 244.41C908.391 253.855 915.916 261.512 925.493 261.512ZM925.493 252.947C930.445 252.947 934.03 249.125 934.03 244.41C934.03 239.695 930.103 235.873 925.493 235.873C920.883 235.873 916.956 239.695 916.956 244.41C916.956 249.125 920.712 252.947 925.493 252.947Z" fill="black"/>
<path d="M787.624 251.09L797.096 249.754V218.302L787.624 222.173L787.624 251.09Z" fill="black"/>
<path d="M781.308 227.856H804.988V236.276H781.308V227.856Z" fill="black"/>
<path d="M798.675 260.986C788.79 260.986 787.624 254.882 787.624 250.997C790.328 249.371 795.202 248.895 797.096 248.895C797.096 250.745 798.411 252.594 801.043 252.594H804.989L804.989 260.801C802.621 260.986 801.692 260.986 798.675 260.986Z" fill="black"/>
<rect x="892.866" y="227.829" width="9.4719" height="33.2369" fill="black"/>
<circle cx="897.601" cy="217.313" r="5.78838" fill="black"/>
<rect x="843.962" y="260.99" width="9.58373" height="32.6021" transform="rotate(-180 843.962 260.99)" fill="black"/>
<path d="M820.624 244.761L811.041 246.63V228.388H820.624V244.761Z" fill="black"/>
<path d="M825.807 261.503C816.7 261.503 811.039 254.816 811.039 246.618L820.621 244.419C820.621 249.81 823.152 252.219 827.49 252.219C831.592 252.219 834.383 249.912 834.383 245.44L837.438 248.531C837.438 251.068 835.228 261.503 825.807 261.503Z" fill="black"/>
<g style="mix-blend-mode:lighten">
<rect x="746.578" y="197.577" width="218.117" height="87.0888" fill="url(#paint28_linear)"/>
</g>
</g>
<rect x="527.145" y="191.004" width="74.4206" height="74.4206" rx="21.0493" transform="rotate(45 527.145 191.004)" fill="#ED3266"/>
<path fill-rule="evenodd" clip-rule="evenodd" d="M544.179 236.832C545.299 236.832 546.239 237.668 546.346 238.783C546.541 240.819 546.805 244.112 546.805 246.994C546.805 249.989 546.528 252.8 546.333 254.416C546.228 255.279 545.603 255.977 544.764 256.206L535.788 258.654C534.751 258.937 533.658 258.432 533.103 257.511C531.922 255.549 529.685 252.517 527.145 252.516V252.518C524.604 252.518 522.367 255.55 521.186 257.513C520.631 258.434 519.538 258.938 518.501 258.655L509.525 256.207C508.686 255.979 508.061 255.281 507.956 254.418C507.761 252.802 507.484 249.991 507.484 246.995C507.484 244.114 507.748 240.821 507.943 238.784C508.05 237.67 508.99 236.834 510.11 236.834H527.144V236.832H544.179Z" fill="white"/>
<path fill-rule="evenodd" clip-rule="evenodd" d="M506.247 241.501C506.315 240.736 505.476 240.284 504.976 240.867C503.661 242.398 502.867 244.389 502.867 246.566C502.867 248.65 503.595 250.564 504.811 252.068C505.302 252.675 506.161 252.221 506.099 251.443C506.003 250.228 505.939 248.909 505.939 247.542C505.939 245.594 506.072 243.459 506.247 241.501Z" fill="white"/>
<path fill-rule="evenodd" clip-rule="evenodd" d="M548.043 241.501C547.975 240.736 548.814 240.284 549.314 240.867C550.629 242.398 551.423 244.389 551.423 246.566C551.423 248.65 550.695 250.564 549.479 252.068C548.988 252.675 548.129 252.221 548.191 251.443C548.287 250.228 548.351 248.909 548.351 247.542C548.351 245.594 548.218 243.459 548.043 241.501Z" fill="white"/>
<path d="M523.612 226.228C523.612 225.496 524.205 224.903 524.937 224.903H529.355C530.087 224.903 530.681 225.496 530.681 226.228V235.506H523.612V226.228Z" fill="white"/>
<circle cx="539.517" cy="243.019" r="2.20903" fill="#ED3266"/>
<circle cx="535.098" cy="249.647" r="2.20903" fill="#ED3266"/>
<rect x="515.04" y="241.216" width="3.1574" height="9.99843" rx="1.05247" fill="#ED3266"/>
<rect x="521.62" y="244.636" width="3.1574" height="9.99843" rx="1.05247" transform="rotate(90 521.62 244.636)" fill="#ED3266"/>
</g>
<defs>
<filter id="filter0_f" x="1163.93" y="298.786" width="334.718" height="112.42" filterUnits="userSpaceOnUse" color-interpolation-filters="sRGB">
<feFlood flood-opacity="0" result="BackgroundImageFix"/>
<feBlend mode="normal" in="SourceGraphic" in2="BackgroundImageFix" result="shape"/>
<feGaussianBlur stdDeviation="7.11828" result="effect1_foregroundBlur"/>
</filter>
<filter id="filter1_f" x="1112.46" y="312.044" width="91.0994" height="91.0994" filterUnits="userSpaceOnUse" color-interpolation-filters="sRGB">
<feFlood flood-opacity="0" result="BackgroundImageFix"/>
<feBlend mode="normal" in="SourceGraphic" in2="BackgroundImageFix" result="shape"/>
<feGaussianBlur stdDeviation="4.27097" result="effect1_foregroundBlur"/>
</filter>
<filter id="filter2_f" x="1124.99" y="102.825" width="106.602" height="67.3186" filterUnits="userSpaceOnUse" color-interpolation-filters="sRGB">
<feFlood flood-opacity="0" result="BackgroundImageFix"/>
<feBlend mode="normal" in="SourceGraphic" in2="BackgroundImageFix" result="shape"/>
<feGaussianBlur stdDeviation="1.70839" result="effect1_foregroundBlur"/>
</filter>
<filter id="filter3_f" x="54.279" y="80.5815" width="192.725" height="75.6314" filterUnits="userSpaceOnUse" color-interpolation-filters="sRGB">
<feFlood flood-opacity="0" result="BackgroundImageFix"/>
<feBlend mode="normal" in="SourceGraphic" in2="BackgroundImageFix" result="shape"/>
<feGaussianBlur stdDeviation="5.14627" result="effect1_foregroundBlur"/>
</filter>
<filter id="filter4_f" x="-150.292" y="116.166" width="192.725" height="75.6314" filterUnits="userSpaceOnUse" color-interpolation-filters="sRGB">
<feFlood flood-opacity="0" result="BackgroundImageFix"/>
<feBlend mode="normal" in="SourceGraphic" in2="BackgroundImageFix" result="shape"/>
<feGaussianBlur stdDeviation="5.14627" result="effect1_foregroundBlur"/>
</filter>
<filter id="filter5_f" x="227.654" y="54.6034" width="96.8555" height="96.8555" filterUnits="userSpaceOnUse" color-interpolation-filters="sRGB">
<feFlood flood-opacity="0" result="BackgroundImageFix"/>
<feBlend mode="normal" in="SourceGraphic" in2="BackgroundImageFix" result="shape"/>
<feGaussianBlur stdDeviation="4.54083" result="effect1_foregroundBlur"/>
</filter>
<filter id="filter6_f" x="-146.263" y="263.393" width="441.025" height="204.018" filterUnits="userSpaceOnUse" color-interpolation-filters="sRGB">
<feFlood flood-opacity="0" result="BackgroundImageFix"/>
<feBlend mode="normal" in="SourceGraphic" in2="BackgroundImageFix" result="shape"/>
<feGaussianBlur stdDeviation="3.70644" result="effect1_foregroundBlur"/>
</filter>
<linearGradient id="paint0_linear" x1="1193.42" y1="388.311" x2="1124.41" y2="388.311" gradientUnits="userSpaceOnUse">
<stop stop-color="#AD2C46"/>
<stop offset="0.348958" stop-color="#C2465B"/>
<stop offset="0.5625" stop-color="#EB7A85"/>
<stop offset="1" stop-color="#FF949A"/>
</linearGradient>
<linearGradient id="paint1_linear" x1="1288.25" y1="62.3036" x2="1165.04" y2="177.551" gradientUnits="userSpaceOnUse">
<stop stop-color="#FF9C9C"/>
<stop offset="0.34535" stop-color="#FF4E4E"/>
<stop offset="1" stop-color="#F74B89"/>
</linearGradient>
<linearGradient id="paint2_linear" x1="1284.03" y1="92.9776" x2="1194.82" y2="173.636" gradientUnits="userSpaceOnUse">
<stop stop-color="#EEB7C5"/>
<stop offset="1" stop-color="#D784AC"/>
</linearGradient>
<linearGradient id="paint3_linear" x1="1256.69" y1="145.873" x2="1191.95" y2="145.873" gradientUnits="userSpaceOnUse">
<stop stop-color="#C1387A"/>
<stop offset="0.4375" stop-color="#912845"/>
<stop offset="0.609375" stop-color="#731E41"/>
<stop offset="1" stop-color="#5F174A"/>
</linearGradient>
<radialGradient id="paint4_radial" cx="0" cy="0" r="1" gradientUnits="userSpaceOnUse" gradientTransform="translate(1221.89 88.4396) rotate(60.0965) scale(22.0056 42.1441)">
<stop stop-color="#411045" stop-opacity="0.73"/>
<stop offset="1" stop-color="white" stop-opacity="0"/>
<stop offset="1" stop-color="#532E1A" stop-opacity="0"/>
</radialGradient>
<radialGradient id="paint5_radial" cx="0" cy="0" r="1" gradientUnits="userSpaceOnUse" gradientTransform="translate(17.9843 23.5006) rotate(70.6896) scale(44.155 57.4036)">
<stop stop-color="#FB4469"/>
<stop offset="0.494792" stop-color="#FD435A"/>
<stop offset="0.609375" stop-color="#EE323E"/>
<stop offset="1" stop-color="#C8003C"/>
</radialGradient>
<linearGradient id="paint6_linear" x1="1214.15" y1="371.328" x2="1190.2" y2="371.328" gradientUnits="userSpaceOnUse">
<stop stop-color="#CB488F"/>
<stop offset="0.302083" stop-color="#BB5168"/>
<stop offset="1" stop-color="#C8506D"/>
</linearGradient>
<linearGradient id="paint7_linear" x1="1186.38" y1="320.75" x2="1133.94" y2="376.507" gradientUnits="userSpaceOnUse">
<stop stop-color="#FF5E68"/>
<stop offset="0.427083" stop-color="#F54D63"/>
<stop offset="1" stop-color="#FD4D6D"/>
</linearGradient>
<linearGradient id="paint8_linear" x1="73.369" y1="74.7678" x2="1.74925e-05" y2="74.7678" gradientUnits="userSpaceOnUse">
<stop stop-color="#88134B"/>
<stop offset="0.348958" stop-color="#E43943"/>
<stop offset="0.5625" stop-color="#F75363"/>
<stop offset="1" stop-color="#FF8D94"/>
</linearGradient>
<linearGradient id="paint9_linear" x1="48.5344" y1="122.525" x2="59.7265" y2="122.525" gradientUnits="userSpaceOnUse">
<stop stop-color="#B94F75"/>
<stop offset="0.396555" stop-color="#B94F75"/>
<stop offset="1" stop-color="#8B295E"/>
</linearGradient>
<linearGradient id="paint10_linear" x1="56.6634" y1="136.898" x2="51.7396" y2="136.898" gradientUnits="userSpaceOnUse">
<stop stop-color="#631A41" stop-opacity="0.72"/>
<stop offset="1" stop-color="white" stop-opacity="0"/>
</linearGradient>
<linearGradient id="paint11_linear" x1="56.6634" y1="133.434" x2="51.7396" y2="133.434" gradientUnits="userSpaceOnUse">
<stop stop-color="#631A41" stop-opacity="0.72"/>
<stop offset="1" stop-color="white" stop-opacity="0"/>
</linearGradient>
<linearGradient id="paint12_linear" x1="56.6634" y1="129.971" x2="51.7396" y2="129.971" gradientUnits="userSpaceOnUse">
<stop stop-color="#631A41" stop-opacity="0.72"/>
<stop offset="1" stop-color="white" stop-opacity="0"/>
</linearGradient>
<linearGradient id="paint13_linear" x1="56.6634" y1="126.507" x2="51.7396" y2="126.507" gradientUnits="userSpaceOnUse">
<stop stop-color="#631A41" stop-opacity="0.72"/>
<stop offset="1" stop-color="white" stop-opacity="0"/>
</linearGradient>
<linearGradient id="paint14_linear" x1="56.6634" y1="123.044" x2="51.7396" y2="123.044" gradientUnits="userSpaceOnUse">
<stop stop-color="#631A41" stop-opacity="0.72"/>
<stop offset="1" stop-color="white" stop-opacity="0"/>
</linearGradient>
<linearGradient id="paint15_linear" x1="56.6634" y1="119.58" x2="51.7396" y2="119.58" gradientUnits="userSpaceOnUse">
<stop stop-color="#631A41" stop-opacity="0.72"/>
<stop offset="1" stop-color="white" stop-opacity="0"/>
</linearGradient>
<linearGradient id="paint16_linear" x1="56.6634" y1="116.116" x2="51.7396" y2="116.116" gradientUnits="userSpaceOnUse">
<stop stop-color="#631A41" stop-opacity="0.72"/>
<stop offset="1" stop-color="white" stop-opacity="0"/>
</linearGradient>
<linearGradient id="paint17_linear" x1="56.6634" y1="112.653" x2="51.7396" y2="112.653" gradientUnits="userSpaceOnUse">
<stop stop-color="#631A41" stop-opacity="0.72"/>
<stop offset="1" stop-color="white" stop-opacity="0"/>
</linearGradient>
<linearGradient id="paint18_linear" x1="78.9222" y1="144.985" x2="53.4617" y2="144.985" gradientUnits="userSpaceOnUse">
<stop stop-color="#CB488F"/>
<stop offset="0.302083" stop-color="#BB5168"/>
<stop offset="1" stop-color="#C8506D"/>
</linearGradient>
<linearGradient id="paint19_linear" x1="223.972" y1="116.931" x2="249.432" y2="116.931" gradientUnits="userSpaceOnUse">
<stop stop-color="#CB488F"/>
<stop offset="0.302083" stop-color="#BB5168"/>
<stop offset="1" stop-color="#C8506D"/>
</linearGradient>
<linearGradient id="paint20_linear" x1="9.12873" y1="144.985" x2="34.5893" y2="144.985" gradientUnits="userSpaceOnUse">
<stop stop-color="#CB488F"/>
<stop offset="0.302083" stop-color="#BB5168"/>
<stop offset="1" stop-color="#C8506D"/>
</linearGradient>
<linearGradient id="paint21_linear" x1="285.47" y1="445.168" x2="-55.8389" y2="445.168" gradientUnits="userSpaceOnUse">
<stop stop-color="#FF6E65"/>
<stop offset="0.0677083" stop-color="#BC233F"/>
<stop offset="0.9375" stop-color="#BD2D4F"/>
<stop offset="1" stop-color="#B42C55"/>
</linearGradient>
<linearGradient id="paint22_linear" x1="253.234" y1="253.629" x2="-55.8389" y2="425.431" gradientUnits="userSpaceOnUse">
<stop stop-color="#FF8080"/>
<stop offset="0.375" stop-color="#F7535D"/>
<stop offset="1" stop-color="#F0538C"/>
</linearGradient>
<linearGradient id="paint23_linear" x1="75.5634" y1="311.58" x2="20.833" y2="311.58" gradientUnits="userSpaceOnUse">
<stop stop-color="#7C3939"/>
<stop offset="0.078125" stop-color="#571726"/>
<stop offset="1" stop-color="#571727"/>
</linearGradient>
<linearGradient id="paint24_linear" x1="20.833" y1="300.68" x2="75.5634" y2="300.68" gradientUnits="userSpaceOnUse">
<stop stop-color="#87374A"/>
<stop offset="0.286458" stop-color="#862F63"/>
<stop offset="0.744792" stop-color="#862F63"/>
<stop offset="1" stop-color="#5A1123"/>
</linearGradient>
<radialGradient id="paint25_radial" cx="0" cy="0" r="1" gradientUnits="userSpaceOnUse" gradientTransform="translate(316.119 350.505) rotate(90) scale(67.0942 60.7224)">
<stop stop-color="#364468"/>
<stop offset="1" stop-color="#161C2A"/>
</radialGradient>
<linearGradient id="paint26_linear" x1="304.588" y1="260.476" x2="304.588" y2="419.356" gradientUnits="userSpaceOnUse">
<stop stop-color="white" stop-opacity="0.65"/>
<stop offset="1" stop-color="white" stop-opacity="0"/>
</linearGradient>
<linearGradient id="paint27_linear" x1="15.1841" y1="-2.06299e-06" x2="72.4977" y2="64.1812" gradientUnits="userSpaceOnUse">
<stop stop-color="#FF6871"/>
<stop offset="1" stop-color="#FF4B61"/>
</linearGradient>
<linearGradient id="paint28_linear" x1="752.484" y1="280.062" x2="931.204" y2="193.035" gradientUnits="userSpaceOnUse">
<stop stop-color="#FF3939"/>
<stop offset="1" stop-color="#FF70D6"/>
</linearGradient>
<clipPath id="clip0">
<rect width="1439" height="481" fill="white"/>
</clipPath>
<clipPath id="clip1">
<rect width="500.695" height="105.243" fill="white" transform="translate(464 191)"/>
</clipPath>
</defs>
</svg>
