<svg width="127" height="52" viewBox="0 0 127 52" fill="none" xmlns="http://www.w3.org/2000/svg">
<rect x="25.5533" y="0.522949" width="9.19916" height="32.1853" fill="black"/>
<path fill-rule="evenodd" clip-rule="evenodd" d="M16.2139 33.2192C25.8051 33.2192 32.6923 24.9923 32.6923 16.6096C32.6923 8.69169 25.851 0 16.2139 0C6.99747 0 0 7.43637 0 16.6096C0 25.7828 6.99747 33.2192 16.2139 33.2192ZM17.2232 24.8235C21.9487 24.8235 25.5529 21.3031 25.5529 16.6095C25.5529 11.9159 21.9487 8.39546 17.2232 8.39546C12.4977 8.39546 8.83809 12.073 8.83809 16.6095C8.83809 21.1459 12.4977 24.8235 17.2232 24.8235Z" fill="black"/>
<path fill-rule="evenodd" clip-rule="evenodd" d="M71.7059 9.49542L63.2822 13.4086C62.2076 10.988 59.9417 9.03994 56.8775 9.03994C52.521 9.03994 49.1471 12.4303 49.1471 16.6126C49.1471 20.7948 52.521 24.1852 56.8775 24.1852C60.0116 24.1852 62.3106 22.4305 63.3539 19.8887L71.7602 23.8525C69.1775 29.3984 63.636 33.2221 56.7281 33.2221C47.4268 33.2221 40.1185 25.7857 40.1185 16.6125C40.1185 7.4393 47.7589 0.00292969 56.7281 0.00292969C63.207 0.00292969 68.9926 3.88318 71.7059 9.49542Z" fill="black"/>
<rect x="76.9153" y="0.516235" width="9.19916" height="32.1968" fill="black"/>
<path d="M97.3583 13.0372L106.557 12.2706V32.7132H97.3583V13.0372Z" fill="black"/>
<path d="M117.801 13.0372L127 12.2706V32.7132H117.801V13.0372Z" fill="black"/>
<path d="M94.3589 0.00280762C102.5 0.00280762 106.557 6.23988 106.557 12.7794L97.3577 14.4897C97.3577 11.6618 94.8024 9.11611 91.736 9.11611C88.6696 9.11611 86.1143 11.7592 86.1143 14.8256L83.6779 11.387C82.719 9.11611 86.1942 0.00280762 94.3589 0.00280762Z" fill="black"/>
<path d="M114.801 0.00280762C122.942 0.00280762 126.999 6.23988 126.999 12.7794L117.8 14.4897C117.8 11.6618 115.245 9.11611 112.178 9.11611C109.112 9.11611 106.557 11.7592 106.557 14.8256L104.12 11.387C103.161 9.11611 106.637 0.00280762 114.801 0.00280762Z" fill="black"/>
<path d="M114.802 0.00280762C122.942 0.00280762 127 6.23988 127 12.7794L117.801 13.546C117.801 10.7181 115.245 8.43537 112.179 8.43537C109.112 8.43537 106.557 10.4796 106.557 13.546L101.958 8.6909C104.002 4.09132 106.637 0.00280762 114.802 0.00280762Z" fill="black"/>
<rect x="12.844" y="41.3994" width="2.87573" height="10.0614" fill="black"/>
<path fill-rule="evenodd" clip-rule="evenodd" d="M9.92407 51.6204C12.9224 51.6204 15.0754 49.0486 15.0754 46.4281C15.0754 43.9529 12.9367 41.2358 9.92407 41.2358C7.04294 41.2358 4.85547 43.5605 4.85547 46.4281C4.85547 49.2958 7.04294 51.6204 9.92407 51.6204ZM10.2394 48.9958C11.7166 48.9958 12.8433 47.8953 12.8433 46.428C12.8433 44.9608 11.7166 43.8603 10.2394 43.8603C8.76218 43.8603 7.61815 45.0099 7.61815 46.428C7.61815 47.8462 8.76218 48.9958 10.2394 48.9958Z" fill="black"/>
<path d="M19.9324 48.4564L22.8081 48.0506V38.5017L19.9324 39.6768L19.9324 48.4564Z" fill="black"/>
<path d="M18.0159 41.4025H25.2052V43.9587H18.0159V41.4025Z" fill="black"/>
<path d="M23.2874 51.4608C20.2865 51.4608 19.9324 49.6075 19.9324 48.4281C20.7532 47.9342 22.233 47.7897 22.8081 47.7897C22.8081 48.3514 23.2075 48.913 24.0063 48.913H25.2046L25.2046 51.4047C24.4856 51.4608 24.2034 51.4608 23.2874 51.4608Z" fill="black"/>
<path fill-rule="evenodd" clip-rule="evenodd" d="M36.9397 38.1665V46.077L36.9396 46.1158C36.9396 47.8603 38.0524 48.4935 39.5027 48.4937V46.1162H39.5035V48.4937C40.9606 48.4935 42.0788 47.8604 42.079 46.1162H42.0794V38.1665H45.0804V46.336L45.0806 46.3831L45.0804 46.4313V46.604H45.0764C44.9639 49.5432 42.606 51.4608 39.5921 51.4608V51.4608C36.5781 51.4608 34.2202 49.5432 34.1077 46.604H34.1039V46.4481C34.1036 46.4265 34.1035 46.4048 34.1035 46.3831C34.1035 46.3619 34.1036 46.3407 34.1039 46.3196V38.1665H36.9397Z" fill="black"/>
<path d="M47.3525 44.7866C47.3525 48.5801 50.2445 51.4607 53.9669 51.4607V38.1664C50.3774 38.1664 47.3525 40.9931 47.3525 44.7866Z" fill="black"/>
<path d="M60.4039 44.8135C60.4039 49.2171 57.6894 51.4607 53.967 51.4607V38.1664C57.5565 38.1664 60.4039 40.41 60.4039 44.8135Z" fill="black"/>
<path d="M50.1437 44.8135C50.1437 47.0241 51.8084 48.6871 53.9776 48.6871V40.9398C51.8859 40.9398 50.1437 42.6028 50.1437 44.8135Z" fill="white"/>
<path d="M57.92 44.8135C57.92 47.1627 56.1469 48.6871 53.9776 48.6871V40.9398C56.0694 40.9398 57.92 42.4642 57.92 44.8135Z" fill="white"/>
<path d="M61.7682 39.8595L55.7408 43.2606L55.7409 46.5862L61.7682 49.515L65.1339 45.16L61.7682 39.8595Z" fill="white"/>
<path d="M61.1886 38.1664H64.0429V51.323H61.1886V38.1664Z" fill="black"/>
<path d="M61.1886 48.7729H69.5376V51.4606H61.1886V48.7729Z" fill="black"/>
<path d="M76.0021 38.1526L78.2676 38.1526L78.1594 39.734L73.7567 51.4601L71.0056 51.4601L76.0021 38.1526Z" fill="black"/>
<path d="M78.8542 38.1526L76.5888 38.1526L76.6969 39.734L81.0996 51.4601L83.8507 51.4601L78.8542 38.1526Z" fill="black"/>
<path d="M76.3248 38.1526L78.5903 38.1526L78.4822 39.734L74.0795 51.4601L71.3284 51.4601L76.3248 38.1526Z" fill="black"/>
<path d="M79.2037 38.1526L76.9382 38.1526L81.9347 51.4601L84.2002 51.4601L79.2037 38.1526Z" fill="black"/>
<path d="M73.6373 47.0811H81.4553V49.489H73.6373V47.0811Z" fill="black"/>
</svg>
