<svg width="220" height="176" viewBox="0 0 220 176" fill="none" xmlns="http://www.w3.org/2000/svg">
<path d="M0.807861 9.79702C0.807861 4.67294 4.96175 0.519043 10.0858 0.519043H210.722C215.846 0.519043 220 4.67293 220 9.79702V166.595C220 171.719 215.846 175.873 210.722 175.873H10.0858C4.96176 175.873 0.807861 171.719 0.807861 166.595V9.79702Z" fill="#2B34FE"/>
<rect x="110.404" y="31.5352" width="80.5676" height="80.5676" rx="22.788" transform="rotate(45 110.404 31.5352)" fill="#1E6CFF"/>
<rect x="91.2404" y="80.3882" width="4.6413" height="16.2386" fill="white"/>
<path fill-rule="evenodd" clip-rule="evenodd" d="M86.5286 96.8848C91.3677 96.8848 94.8425 92.734 94.8425 88.5046C94.8425 84.5098 91.3909 80.1245 86.5286 80.1245C81.8786 80.1245 78.3481 83.8764 78.3481 88.5046C78.3481 93.1328 81.8786 96.8848 86.5286 96.8848ZM87.038 92.6486C89.4221 92.6486 91.2406 90.8725 91.2406 88.5044C91.2406 86.1363 89.4221 84.3601 87.038 84.3601C84.6538 84.3601 82.8074 86.2156 82.8074 88.5044C82.8074 90.7932 84.6538 92.6486 87.038 92.6486Z" fill="white"/>
<path fill-rule="evenodd" clip-rule="evenodd" d="M114.526 84.9149L110.276 86.8892C109.734 85.6681 108.591 84.6853 107.045 84.6853C104.847 84.6853 103.145 86.3959 103.145 88.506C103.145 90.6161 104.847 92.3266 107.045 92.3266C108.626 92.3266 109.786 91.4411 110.313 90.1584L114.554 92.1582C113.251 94.9564 110.455 96.8857 106.969 96.8857C102.276 96.8857 98.5892 93.1338 98.5892 88.5056C98.5892 83.8774 102.444 80.1255 106.969 80.1255C110.238 80.1255 113.157 82.0833 114.526 84.9149Z" fill="white"/>
<rect x="117.154" y="80.3853" width="4.6413" height="16.2444" fill="white"/>
<path d="M127.468 86.7022L132.109 86.3154V96.6294H127.468V86.7022Z" fill="white"/>
<path d="M137.782 86.7022L142.423 86.3154V96.6294H137.782V86.7022Z" fill="white"/>
<path d="M125.955 80.126C130.062 80.126 132.11 83.2728 132.11 86.5722L127.468 87.4351C127.468 86.0083 126.179 84.724 124.632 84.724C123.085 84.724 121.795 86.0575 121.795 87.6046L120.566 85.8697C120.082 84.724 121.836 80.126 125.955 80.126Z" fill="white"/>
<path d="M136.269 80.126C140.377 80.126 142.424 83.2728 142.424 86.5722L137.782 87.4351C137.782 86.0083 136.493 84.724 134.946 84.724C133.399 84.724 132.11 86.0575 132.11 87.6046L130.88 85.8697C130.397 84.724 132.15 80.126 136.269 80.126Z" fill="white"/>
<path d="M136.269 80.126C140.376 80.126 142.423 83.2728 142.423 86.5722L137.782 86.959C137.782 85.5322 136.493 84.3805 134.946 84.3805C133.399 84.3805 132.109 85.4119 132.109 86.959L129.789 84.5094C130.82 82.1888 132.15 80.126 136.269 80.126Z" fill="white"/>
</svg>
