<svg width="220" height="176" viewBox="0 0 220 176" fill="none" xmlns="http://www.w3.org/2000/svg">
<path d="M0.808105 9.79702C0.808105 4.67295 4.96199 0.519043 10.0861 0.519043H210.722C215.846 0.519043 220 4.67293 220 9.79701V166.595C220 171.719 215.846 175.873 210.722 175.873H10.0861C4.96201 175.873 0.808105 171.719 0.808105 166.595V9.79702Z" fill="#EEF8FF"/>
<path fill-rule="evenodd" clip-rule="evenodd" d="M128.795 45.3086C119.582 36.0964 104.646 36.0963 95.4342 45.3086L69.8211 70.9218C60.6088 80.134 60.6088 95.07 69.821 104.282L95.4342 129.895C104.646 139.108 119.582 139.108 128.795 129.895L154.408 104.282C163.62 95.07 163.62 80.134 154.408 70.9218L128.795 45.3086ZM97.0818 79.1992H92.2773V80.539C90.9222 79.5475 89.2606 78.9267 87.3993 78.9267C82.5857 78.9267 78.9311 82.8106 78.9311 87.6016C78.9311 92.3925 82.5857 96.2764 87.3993 96.2764C89.2565 96.2764 90.9196 95.6858 92.2773 94.7193V96.0089H97.0818V79.1992ZM87.9269 83.311C90.3847 83.311 92.2617 85.1344 92.2773 87.5705V87.6315C92.2617 90.0676 90.3847 91.891 87.9269 91.891C85.4589 91.891 83.5475 89.9703 83.5475 87.601C83.5475 85.2317 85.4589 83.311 87.9269 83.311ZM111.982 85.9296L116.382 83.8855C114.965 80.9543 111.943 78.9277 108.56 78.9277C103.875 78.9277 99.8847 82.8115 99.8847 87.6025C99.8847 92.3935 103.702 96.2774 108.56 96.2774C112.167 96.2774 115.061 94.2805 116.41 91.3841L112.02 89.3137C111.475 90.6414 110.274 91.558 108.637 91.558C106.362 91.558 104.6 89.7872 104.6 87.6029C104.6 85.4186 106.362 83.6479 108.637 83.6479C110.237 83.6479 111.421 84.6654 111.982 85.9296ZM119.102 79.1957H123.907V81.0918C124.846 79.9094 126.277 78.9282 128.213 78.9282C130.567 78.9282 132.267 79.9266 133.316 81.3975C134.356 79.9607 135.925 78.9282 138.89 78.9282C140.398 78.9282 141.638 79.3379 142.61 80.0192C144.307 81.209 145.188 83.2266 145.256 85.3357L145.261 85.3354V85.5485L145.261 85.6011L145.261 85.6011L145.261 85.6012V96.0121H140.456V86.4677C140.44 85.0014 139.112 83.6878 137.52 83.6878C135.919 83.6878 134.584 85.0683 134.584 86.6698L134.584 86.6692V96.0121H129.779V86.4507C129.753 84.9913 128.429 83.6878 126.843 83.6878C125.242 83.6878 123.907 85.0683 123.907 86.6698L123.907 86.6696V96.0115H119.102V79.1957Z" fill="white"/>
</svg>
