<svg width="220" height="177" viewBox="0 0 220 177" fill="none" xmlns="http://www.w3.org/2000/svg">
<path d="M0 9.83121C0 4.68824 4.1692 0.519043 9.31217 0.519043H210.688C215.831 0.519043 220 4.68824 220 9.83121V167.207C220 172.35 215.831 176.519 210.688 176.519H9.31216C4.16919 176.519 0 172.35 0 167.207V9.83121Z" fill="#2B34FE"/>
<path fill-rule="evenodd" clip-rule="evenodd" d="M127.279 45.8305C117.959 36.5109 102.849 36.5109 93.5292 45.8306L67.6176 71.7422C58.298 81.0618 58.298 96.1719 67.6177 105.492L93.5293 131.403C102.849 140.723 117.959 140.723 127.279 131.403L153.19 105.492C162.51 96.1719 162.51 81.0618 153.19 71.7422L127.279 45.8305ZM95.1962 80.1164H90.3356V81.4715C88.9648 80.4684 87.2838 79.8404 85.4008 79.8404C80.5312 79.8404 76.8339 83.7696 76.8339 88.6164C76.8339 93.4632 80.5312 97.3924 85.4008 97.3924C87.2797 97.3924 88.9622 96.7949 90.3356 95.8172V97.1221H95.1962V80.1164ZM85.9347 84.276C88.4149 84.276 90.3105 86.1114 90.3356 88.5666V88.6653C90.3105 91.1206 88.4149 92.956 85.9347 92.956C83.4379 92.956 81.5043 91.0129 81.5043 88.616C81.5043 86.2191 83.4379 84.276 85.9347 84.276ZM110.27 86.9249L114.721 84.8572C113.288 81.892 110.231 79.8419 106.808 79.8419C102.069 79.8419 98.0317 83.771 98.0317 88.6178C98.0317 93.4647 101.893 97.3938 106.808 97.3938C110.458 97.3938 113.386 95.3734 114.75 92.4429L110.308 90.3485C109.757 91.6917 108.543 92.619 106.886 92.619C104.585 92.619 102.802 90.8276 102.802 88.6178C102.802 86.408 104.585 84.6167 106.886 84.6167C108.505 84.6167 109.703 85.6459 110.27 86.9249ZM117.474 80.1131H122.334V82.0306C123.284 80.8344 124.732 79.8418 126.691 79.8418C129.072 79.8418 130.792 80.8519 131.853 82.34C132.905 80.8864 134.492 79.8418 137.492 79.8418C141.681 79.8418 143.824 82.9685 143.932 86.324L143.937 86.3236V86.5328L143.937 86.5431C143.937 86.5596 143.937 86.5761 143.937 86.5925L143.937 86.5926V97.1248H139.076V87.4648C139.057 85.9833 137.715 84.657 136.106 84.657C134.486 84.657 133.136 86.0535 133.136 87.6737L133.135 87.6732V97.1248H128.275V87.4502C128.247 85.9745 126.908 84.657 125.305 84.657C123.685 84.657 122.334 86.0535 122.334 87.6737L122.334 87.6735V97.1249H117.474V80.1131Z" fill="white"/>
</svg>
