<svg width="219" height="176" viewBox="0 0 219 176" fill="none" xmlns="http://www.w3.org/2000/svg">
<path d="M0 9.78887C0 4.66928 4.15025 0.519043 9.26984 0.519043H209.73C214.85 0.519043 219 4.66929 219 9.78889V166.449C219 171.569 214.85 175.719 209.73 175.719H9.26983C4.15024 175.719 0 171.569 0 166.449V9.78887Z" fill="#EEF8FF"/>
<rect x="109.5" y="31.5049" width="80.497" height="80.497" rx="22.768" transform="rotate(45 109.5 31.5049)" fill="#1E6CFF"/>
<rect x="90.3534" y="80.3149" width="4.63723" height="16.2244" fill="white"/>
<path fill-rule="evenodd" clip-rule="evenodd" d="M85.6455 96.7973C90.4804 96.7973 93.9522 92.6502 93.9522 88.4245C93.9522 84.4332 90.5035 80.0518 85.6455 80.0518C80.9996 80.0518 77.4722 83.8004 77.4722 88.4245C77.4722 93.0487 80.9996 96.7973 85.6455 96.7973ZM86.1545 92.5644C88.5366 92.5644 90.3534 90.7898 90.3534 88.4238C90.3534 86.0578 88.5366 84.2832 86.1545 84.2832C83.7724 84.2832 81.9276 86.137 81.9276 88.4238C81.9276 90.7106 83.7724 92.5644 86.1545 92.5644Z" fill="white"/>
<path fill-rule="evenodd" clip-rule="evenodd" d="M113.619 84.8375L109.372 86.8104C108.83 85.5907 107.688 84.6093 106.144 84.6093C103.947 84.6093 102.247 86.3184 102.247 88.4266C102.247 90.5348 103.947 92.2439 106.144 92.2439C107.724 92.2439 108.883 91.3588 109.409 90.0767L113.646 92.0748C112.344 94.8706 109.551 96.7983 106.069 96.7983C101.38 96.7983 97.6957 93.0497 97.6957 88.4255C97.6957 83.8014 101.547 80.0527 106.069 80.0527C109.334 80.0527 112.251 82.0086 113.619 84.8375Z" fill="white"/>
<rect x="116.244" y="80.312" width="4.63723" height="16.2302" fill="white"/>
<path d="M126.549 86.6237L131.186 86.2373V96.5423H126.549V86.6237Z" fill="white"/>
<path d="M136.854 86.6237L141.491 86.2373V96.5423H136.854V86.6237Z" fill="white"/>
<path d="M125.038 80.0527C129.141 80.0527 131.187 83.1968 131.187 86.4933L126.549 87.3555C126.549 85.93 125.261 84.6467 123.716 84.6467C122.17 84.6467 120.882 85.979 120.882 87.5248L119.654 85.7914C119.17 84.6467 120.922 80.0527 125.038 80.0527Z" fill="white"/>
<path d="M135.343 80.0527C139.446 80.0527 141.492 83.1968 141.492 86.4933L136.854 87.3555C136.854 85.93 135.566 84.6467 134.02 84.6467C132.475 84.6467 131.187 85.979 131.187 87.5248L129.958 85.7914C129.475 84.6467 131.227 80.0527 135.343 80.0527Z" fill="white"/>
<path d="M135.343 80.0527C139.446 80.0527 141.492 83.1968 141.492 86.4933L136.854 86.8798C136.854 85.4542 135.566 84.3035 134.02 84.3035C132.475 84.3035 131.187 85.334 131.187 86.8798L128.868 84.4323C129.899 82.1137 131.227 80.0527 135.343 80.0527Z" fill="white"/>
</svg>
