<svg width="268" height="268" viewBox="0 0 268 268" fill="none" xmlns="http://www.w3.org/2000/svg">
<g clip-path="url(#clip0)">
<rect x="0.286865" y="0.222656" width="267.671" height="267.671" rx="13.3004" fill="#F4F4F4"/>
<g filter="url(#filter0_f)">
<rect width="250.991" height="44.7827" rx="11.2131" transform="matrix(0.866025 0.5 -0.866025 0.5 80.4454 118.607)" fill="#48382C" fill-opacity="0.17"/>
</g>
<g filter="url(#filter1_f)">
<rect width="203.078" height="44.7827" rx="11.2131" transform="matrix(0.866025 0.5 -0.866025 0.5 136.232 84.8608)" fill="#48382C" fill-opacity="0.17"/>
</g>
<g filter="url(#filter2_f)">
<rect width="163.252" height="44.7827" rx="11.2131" transform="matrix(0.866025 0.5 -0.866025 0.5 185.846 56.938)" fill="#48382C" fill-opacity="0.17"/>
</g>
<rect width="253.675" height="54.2002" rx="6.76069" transform="matrix(0.866025 0.5 -0.866025 0.5 186.15 26.8379)" fill="white"/>
<circle r="12.9228" transform="matrix(0.866025 0.5 -0.866025 0.5 188.049 54.4404)" fill="url(#paint0_linear)"/>
<circle r="3.40504" transform="matrix(0.866025 0.5 -0.866025 0.5 188.049 54.4407)" fill="white"/>
<rect width="16.8378" height="3.44938" rx="1.72469" transform="matrix(0.866025 0.5 -0.866025 0.5 224.391 62.4995)" fill="#E0E0E0"/>
<rect width="72.912" height="6.53788" rx="3.26894" transform="matrix(0.866025 0.5 -0.866025 0.5 219.627 65.2505)" fill="#C6C6C6"/>
<rect width="21.953" height="6.53788" rx="3.26894" transform="matrix(0.866025 0.5 -0.866025 0.5 209.765 70.9453)" fill="#EC8AAE"/>
<rect width="253.675" height="54.2002" rx="6.76069" transform="matrix(0.866025 0.5 -0.866025 0.5 133.754 57.0889)" fill="white"/>
<circle r="12.9228" transform="matrix(0.866025 0.5 -0.866025 0.5 135.653 84.6918)" fill="url(#paint1_linear)"/>
<circle r="3.85325" transform="matrix(0.866025 0.5 -0.866025 0.5 247.418 145.815)" fill="url(#paint2_linear)"/>
<circle r="3.85325" transform="matrix(0.866025 0.5 -0.866025 0.5 232.79 154.259)" fill="url(#paint3_linear)"/>
<circle r="3.40504" transform="matrix(0.866025 0.5 -0.866025 0.5 135.653 84.6917)" fill="white"/>
<path d="M248.645 132.659L217.705 150.523" stroke="#DCDCDC" stroke-width="0.751188" stroke-linecap="round"/>
<rect width="16.8378" height="3.44938" rx="1.72469" transform="matrix(0.866025 0.5 -0.866025 0.5 171.995 92.7515)" fill="#E0E0E0"/>
<rect width="16.8378" height="3.44938" rx="1.72469" transform="matrix(0.866025 0.5 -0.866025 0.5 252.322 139.128)" fill="#EDEDED"/>
<rect width="16.8378" height="3.44938" rx="1.72469" transform="matrix(0.866025 0.5 -0.866025 0.5 237.696 147.574)" fill="#EDEDED"/>
<rect width="53.4063" height="6.53788" rx="3.26894" transform="matrix(0.866025 0.5 -0.866025 0.5 167.231 95.502)" fill="#C6C6C6"/>
<rect width="21.953" height="6.53788" rx="3.26894" transform="matrix(0.866025 0.5 -0.866025 0.5 157.369 101.196)" fill="#EC8AAE"/>
<rect width="253.675" height="54.2002" rx="6.76069" transform="matrix(0.866025 0.5 -0.866025 0.5 81.3542 87.3413)" fill="white"/>
<circle r="12.9228" transform="matrix(0.866025 0.5 -0.866025 0.5 83.2523 114.943)" fill="url(#paint4_linear)"/>
<circle r="3.85325" transform="matrix(0.866025 0.5 -0.866025 0.5 195.017 176.065)" fill="url(#paint5_linear)"/>
<circle r="3.85325" transform="matrix(0.866025 0.5 -0.866025 0.5 180.391 184.511)" fill="url(#paint6_linear)"/>
<circle r="3.40504" transform="matrix(0.866025 0.5 -0.866025 0.5 83.2523 114.943)" fill="white"/>
<path d="M196.244 162.91L165.304 180.774" stroke="#DCDCDC" stroke-width="0.751188" stroke-linecap="round"/>
<path d="M255.04 196.855L224.099 214.719" stroke="#DCDCDC" stroke-width="0.751188" stroke-linecap="round"/>
<rect width="16.8378" height="3.44938" rx="1.72469" transform="matrix(0.866025 0.5 -0.866025 0.5 119.594 123.002)" fill="#E0E0E0"/>
<rect width="16.8378" height="3.44938" rx="1.72469" transform="matrix(0.866025 0.5 -0.866025 0.5 199.923 169.38)" fill="#EDEDED"/>
<rect width="16.8378" height="3.44938" rx="1.72469" transform="matrix(0.866025 0.5 -0.866025 0.5 185.297 177.825)" fill="#EDEDED"/>
<rect width="62.8064" height="6.53788" rx="3.26894" transform="matrix(0.866025 0.5 -0.866025 0.5 114.831 125.753)" fill="#C6C6C6"/>
<rect width="21.953" height="6.53788" rx="3.26894" transform="matrix(0.866025 0.5 -0.866025 0.5 104.968 131.448)" fill="#EC8AAE"/>
<rect width="21.953" height="6.53788" rx="3.26894" transform="matrix(0.866025 0.5 -0.866025 0.5 249.651 207.879)" fill="#EC8AAE"/>
</g>
<defs>
<filter id="filter0_f" x="26.0461" y="100.586" width="287.38" height="183.928" filterUnits="userSpaceOnUse" color-interpolation-filters="sRGB">
<feFlood flood-opacity="0" result="BackgroundImageFix"/>
<feBlend mode="normal" in="SourceGraphic" in2="BackgroundImageFix" result="shape"/>
<feGaussianBlur stdDeviation="10.6524" result="effect1_foregroundBlur"/>
</filter>
<filter id="filter1_f" x="81.833" y="66.8402" width="245.887" height="159.972" filterUnits="userSpaceOnUse" color-interpolation-filters="sRGB">
<feFlood flood-opacity="0" result="BackgroundImageFix"/>
<feBlend mode="normal" in="SourceGraphic" in2="BackgroundImageFix" result="shape"/>
<feGaussianBlur stdDeviation="10.6524" result="effect1_foregroundBlur"/>
</filter>
<filter id="filter2_f" x="131.447" y="38.9173" width="211.396" height="140.058" filterUnits="userSpaceOnUse" color-interpolation-filters="sRGB">
<feFlood flood-opacity="0" result="BackgroundImageFix"/>
<feBlend mode="normal" in="SourceGraphic" in2="BackgroundImageFix" result="shape"/>
<feGaussianBlur stdDeviation="10.6524" result="effect1_foregroundBlur"/>
</filter>
<linearGradient id="paint0_linear" x1="2.19746" y1="5.91459" x2="23.5761" y2="22.2982" gradientUnits="userSpaceOnUse">
<stop stop-color="#FB8791"/>
<stop offset="1" stop-color="#C892F4"/>
</linearGradient>
<linearGradient id="paint1_linear" x1="2.19746" y1="5.91459" x2="23.5761" y2="22.2982" gradientUnits="userSpaceOnUse">
<stop stop-color="#FB8791"/>
<stop offset="1" stop-color="#C892F4"/>
</linearGradient>
<linearGradient id="paint2_linear" x1="0.655228" y1="1.76358" x2="7.0298" y2="6.64877" gradientUnits="userSpaceOnUse">
<stop stop-color="#FB8791"/>
<stop offset="1" stop-color="#F4C192"/>
</linearGradient>
<linearGradient id="paint3_linear" x1="0.655228" y1="1.76358" x2="7.0298" y2="6.64877" gradientUnits="userSpaceOnUse">
<stop stop-color="#FB8791"/>
<stop offset="1" stop-color="#F4C192"/>
</linearGradient>
<linearGradient id="paint4_linear" x1="2.19746" y1="5.91459" x2="23.5761" y2="22.2982" gradientUnits="userSpaceOnUse">
<stop stop-color="#FB8791"/>
<stop offset="1" stop-color="#C892F4"/>
</linearGradient>
<linearGradient id="paint5_linear" x1="0.655228" y1="1.76358" x2="7.0298" y2="6.64877" gradientUnits="userSpaceOnUse">
<stop stop-color="#FB8791"/>
<stop offset="1" stop-color="#F4C192"/>
</linearGradient>
<linearGradient id="paint6_linear" x1="0.655228" y1="1.76358" x2="7.0298" y2="6.64877" gradientUnits="userSpaceOnUse">
<stop stop-color="#FB8791"/>
<stop offset="1" stop-color="#F4C192"/>
</linearGradient>
<clipPath id="clip0">
<rect x="0.286865" y="0.222656" width="267.671" height="267.671" rx="13.3004" fill="white"/>
</clipPath>
</defs>
</svg>
