<svg width="302" height="268" viewBox="0 0 302 268" fill="none" xmlns="http://www.w3.org/2000/svg">
<g clip-path="url(#clip0)">
<rect width="151" height="267" transform="translate(150.982 0.603516)" fill="#FFC4E7"/>
<g filter="url(#filter0_d)">
<rect x="394.419" y="313.383" width="335.872" height="255.973" rx="12.118" transform="rotate(-180 394.419 313.383)" fill="#2D2236"/>
<rect x="79.9736" y="94.5806" width="265.214" height="8.94432" rx="4.47216" fill="#4E3952"/>
<rect x="79.9736" y="110.269" width="173.69" height="8.94432" rx="4.47216" fill="#4E3952"/>
<rect x="98.3601" y="157.334" width="131.377" height="8.94432" rx="4.47216" fill="#DBC1D5"/>
<rect x="106.64" y="173.023" width="59.1652" height="8.94432" rx="4.47216" fill="#DBC1D5"/>
<rect x="184.982" y="173.022" width="26.2385" height="8.94432" rx="4.47216" fill="#DBC1D5"/>
<rect x="171.378" y="173.023" width="8.86684" height="8.94432" rx="4.43342" fill="#FF4B6B"/>
<rect x="141.102" y="204.4" width="91.4868" height="8.94432" rx="4.47216" fill="#DBC1D5"/>
<rect x="106.64" y="219.375" width="119.53" height="8.94432" rx="4.47216" fill="#DBC1D5"/>
<rect x="229.738" y="235.057" width="56.3689" height="8.94432" rx="4.47216" fill="#D2D2D2"/>
<rect x="120.71" y="126.166" width="78.5287" height="8.94432" rx="4.47216" fill="#DBC1D5"/>
<rect x="120.71" y="141.854" width="49.4538" height="8.94432" rx="4.47216" fill="#DBC1D5"/>
</g>
</g>
<g clip-path="url(#clip1)">
<rect width="151" height="267" transform="translate(0 0.603516)" fill="#F4F4F4"/>
<g filter="url(#filter1_d)">
<rect x="394.989" y="313.382" width="335.872" height="255.973" rx="12.118" transform="rotate(-180 394.989 313.382)" fill="#2D2236"/>
<circle cx="72.5826" cy="70.8516" r="3.47518" fill="#FF4040"/>
<circle cx="84.0187" cy="70.8516" r="3.47518" fill="#FFC635"/>
<circle cx="95.4548" cy="70.8516" r="3.47518" fill="#5BFF40"/>
<rect x="80.5437" y="94.5801" width="265.214" height="8.94432" rx="4.47216" fill="#616161"/>
<rect x="80.5437" y="110.269" width="173.69" height="8.94432" rx="4.47216" fill="#616161"/>
<rect x="80.5437" y="157.333" width="14.8221" height="8.94432" rx="4.47216" fill="#4B78BB"/>
<rect x="98.9302" y="157.333" width="131.377" height="8.94432" rx="4.47216" fill="#E6E6E6"/>
<rect x="107.21" y="173.022" width="59.1652" height="8.94432" rx="4.47216" fill="#E6E6E6"/>
<rect x="107.21" y="188.711" width="43.7718" height="8.94432" rx="4.47216" fill="#E6E6E6"/>
<rect x="107.21" y="204.399" width="28.138" height="8.94432" rx="4.47216" fill="#4B78BB"/>
<rect x="141.672" y="204.399" width="91.4868" height="8.94432" rx="4.47216" fill="#E6E6E6"/>
<rect x="107.21" y="219.374" width="119.53" height="8.94432" rx="4.47216" fill="#E6E6E6"/>
<rect x="80.5437" y="126.165" width="35.0822" height="8.94432" rx="4.47216" fill="#FFA14B"/>
<rect x="121.28" y="126.165" width="78.5287" height="8.94432" rx="4.47216" fill="#E6E6E6"/>
<rect x="80.5437" y="141.854" width="35.0822" height="8.94432" rx="4.47216" fill="#FFA14B"/>
<rect x="121.28" y="141.854" width="49.4538" height="8.94432" rx="4.47216" fill="#E6E6E6"/>
<rect x="80.5437" y="237.915" width="60.5774" height="8.94432" rx="4.47216" fill="#D2D2D2"/>
</g>
</g>
<defs>
<filter id="filter0_d" x="25.0435" y="52.4199" width="377.216" height="297.317" filterUnits="userSpaceOnUse" color-interpolation-filters="sRGB">
<feFlood flood-opacity="0" result="BackgroundImageFix"/>
<feColorMatrix in="SourceAlpha" type="matrix" values="0 0 0 0 0 0 0 0 0 0 0 0 0 0 0 0 0 0 127 0"/>
<feOffset dx="-12.8308" dy="15.6821"/>
<feGaussianBlur stdDeviation="10.3359"/>
<feColorMatrix type="matrix" values="0 0 0 0 0.183333 0 0 0 0 0.0863195 0 0 0 0 0.127065 0 0 0 0.42 0"/>
<feBlend mode="normal" in2="BackgroundImageFix" result="effect1_dropShadow"/>
<feBlend mode="normal" in="SourceGraphic" in2="effect1_dropShadow" result="shape"/>
</filter>
<filter id="filter1_d" x="25.6135" y="52.4194" width="377.216" height="297.317" filterUnits="userSpaceOnUse" color-interpolation-filters="sRGB">
<feFlood flood-opacity="0" result="BackgroundImageFix"/>
<feColorMatrix in="SourceAlpha" type="matrix" values="0 0 0 0 0 0 0 0 0 0 0 0 0 0 0 0 0 0 127 0"/>
<feOffset dx="-12.8308" dy="15.6821"/>
<feGaussianBlur stdDeviation="10.3359"/>
<feColorMatrix type="matrix" values="0 0 0 0 0.183333 0 0 0 0 0.0863195 0 0 0 0 0.127065 0 0 0 0.42 0"/>
<feBlend mode="normal" in2="BackgroundImageFix" result="effect1_dropShadow"/>
<feBlend mode="normal" in="SourceGraphic" in2="effect1_dropShadow" result="shape"/>
</filter>
<clipPath id="clip0">
<rect width="151" height="267" fill="white" transform="translate(150.982 0.603516)"/>
</clipPath>
<clipPath id="clip1">
<rect width="151" height="267" fill="white" transform="translate(0 0.603516)"/>
</clipPath>
</defs>
</svg>
