<svg width="274" height="274" viewBox="0 0 274 274" fill="none" xmlns="http://www.w3.org/2000/svg">
<g clip-path="url(#clip0)">
<rect x="0.266602" y="0.140625" width="272.861" height="272.861" rx="10.3378" fill="#F4F4F4"/>
<g filter="url(#filter0_f)">
<rect width="143.204" height="193.704" rx="3.83615" transform="matrix(0.866025 0.5 -0.866025 0.5 188.428 70.9165)" fill="url(#paint0_linear)" fill-opacity="0.31"/>
</g>
<path fill-rule="evenodd" clip-rule="evenodd" d="M129.171 19.9951C129.205 20.0019 130.471 19.998 131.1 19.9951L131.1 19.9979C131.616 20.0175 132.163 20.1776 132.708 20.4923L248.999 87.6326C250.965 88.7681 252.167 91.4871 251.682 93.7057L231.808 184.704C231.323 186.923 229.336 187.801 227.37 186.666L111.079 119.525C109.113 118.39 107.911 115.671 108.396 113.452L128.27 22.4535C128.482 21.4835 128.981 20.7697 129.64 20.3685L129.171 19.9951Z" fill="#868686"/>
<rect width="142.504" height="101.367" rx="4.11187" transform="matrix(0.866025 0.5 -0.213371 0.976971 127.59 18.4351)" fill="url(#paint1_linear)"/>
<rect width="135.881" height="85.9853" transform="matrix(0.866025 0.5 -0.213371 0.976971 128.946 27.2393)" fill="url(#paint2_linear)"/>
<path fill-rule="evenodd" clip-rule="evenodd" d="M119.263 122.448L119.258 122.445V119.735H114.564L111.378 117.895C109.165 116.618 105.578 116.618 103.365 117.895L26.5794 162.228H24.1863V165.147H24.1954C24.2702 165.922 24.8204 166.685 25.8459 167.277L75.0261 195.671L75.2472 195.543C75.7388 195.26 76.536 195.26 77.0277 195.543L92.2263 204.318V205.602H92.2279L92.2272 205.602L141.405 233.995C143.618 235.272 147.205 235.272 149.417 233.995L226.937 189.239C228.046 188.599 228.599 187.76 228.596 186.921H228.601V184.139H226.115L218.549 179.77L216.772 180.796L117.486 123.474L119.145 122.517H119.258V122.451L119.263 122.448Z" fill="url(#paint3_linear)"/>
<path d="M119.273 119.675L111.387 115.122C109.174 113.845 105.587 113.845 103.375 115.122L25.8553 159.878C23.6427 161.155 23.6427 163.226 25.8553 164.504L75.0355 192.898L75.2565 192.77C75.7481 192.487 76.5453 192.487 77.037 192.77L92.4575 201.674C92.9492 201.957 92.9492 202.418 92.4575 202.701L92.2365 202.829L141.415 231.222C143.627 232.499 147.214 232.499 149.427 231.222L226.946 186.466C229.159 185.189 229.159 183.118 226.946 181.84L218.558 176.997L216.781 178.023L117.496 120.701L119.273 119.675Z" fill="url(#paint4_linear)"/>
<g filter="url(#filter1_ii)">
<rect width="126.012" height="45.2745" rx="2.56992" transform="matrix(0.866025 0.5 -0.866025 0.5 107.418 121.125)" fill="#747577"/>
</g>
<rect x="-7.65895e-09" y="0.128496" width="66.6583" height="39.5969" rx="2.44142" transform="matrix(0.866025 0.5 -0.866025 0.5 92.3771 159.486)" fill="url(#paint5_radial)" stroke="#6B6B6B" stroke-width="0.256992"/>
<rect width="6.95816" height="6.95816" rx="0.508365" transform="matrix(0.866025 0.5 -0.866025 0.5 107.941 123.6)" fill="url(#paint6_linear)"/>
<rect width="6.95816" height="6.95816" rx="0.508365" transform="matrix(-0.866025 -0.5 -0.866025 0.5 204.904 188.075)" fill="url(#paint7_linear)"/>
<rect width="6.95816" height="6.95816" rx="0.508365" transform="matrix(0.866025 0.5 -0.866025 0.5 115.317 127.859)" fill="url(#paint8_linear)"/>
<rect width="6.95816" height="6.95816" rx="0.508365" transform="matrix(-0.866025 -0.5 -0.866025 0.5 197.529 183.815)" fill="url(#paint9_linear)"/>
<rect width="12.6006" height="6.95816" rx="0.508365" transform="matrix(-0.866025 -0.5 -0.866025 0.5 197.55 192.32)" fill="url(#paint10_linear)"/>
<rect width="6.95816" height="6.95816" rx="0.508365" transform="matrix(0.866025 0.5 -0.866025 0.5 122.695 132.117)" fill="url(#paint11_linear)"/>
<rect width="6.95816" height="6.95816" rx="0.508365" transform="matrix(-0.866025 -0.5 -0.866025 0.5 190.151 179.555)" fill="url(#paint12_linear)"/>
<rect width="6.95816" height="6.95816" rx="0.508365" transform="matrix(-0.866025 -0.5 -0.866025 0.5 185.287 185.24)" fill="url(#paint13_linear)"/>
<rect width="16.9354" height="6.95816" rx="0.508365" transform="matrix(-0.866025 -0.5 -0.866025 0.5 190.195 196.566)" fill="url(#paint14_linear)"/>
<rect width="6.95816" height="6.95816" rx="0.508365" transform="matrix(0.866025 0.5 -0.866025 0.5 130.071 136.375)" fill="url(#paint15_linear)"/>
<rect width="6.95816" height="6.95816" rx="0.508365" transform="matrix(-0.866025 -0.5 -0.866025 0.5 182.775 175.298)" fill="url(#paint16_linear)"/>
<rect width="6.95816" height="6.95816" rx="0.508365" transform="matrix(-0.866025 -0.5 -0.866025 0.5 177.911 180.981)" fill="url(#paint17_linear)"/>
<rect width="6.95816" height="6.95816" rx="0.508365" transform="matrix(-0.866025 -0.5 -0.866025 0.5 174.178 187.318)" fill="url(#paint18_linear)"/>
<rect width="6.95816" height="6.95816" rx="0.508365" transform="matrix(-0.866025 -0.5 -0.866025 0.5 160.922 188.157)" fill="url(#paint19_linear)"/>
<rect width="6.95816" height="3.6424" rx="0.508365" transform="matrix(-0.866025 -0.5 -0.866025 0.5 165.427 194.073)" fill="url(#paint20_linear)"/>
<rect width="6.95816" height="6.95816" rx="0.508365" transform="matrix(-0.866025 -0.5 -0.866025 0.5 175.676 196.675)" fill="url(#paint21_linear)"/>
<rect width="6.95816" height="3.64233" rx="0.508365" transform="matrix(-0.866025 -0.5 -0.866025 0.5 179.969 202.47)" fill="url(#paint22_linear)"/>
<rect width="6.95816" height="6.95816" rx="0.508365" transform="matrix(0.866025 0.5 -0.866025 0.5 137.448 140.636)" fill="url(#paint23_linear)"/>
<rect width="6.95816" height="6.95816" rx="0.508365" transform="matrix(-0.866025 -0.5 -0.866025 0.5 175.398 171.039)" fill="url(#paint24_linear)"/>
<rect width="6.95816" height="6.95816" rx="0.508365" transform="matrix(-0.866025 -0.5 -0.866025 0.5 170.534 176.721)" fill="url(#paint25_linear)"/>
<rect width="6.95816" height="6.95816" rx="0.508365" transform="matrix(-0.866025 -0.5 -0.866025 0.5 166.802 183.059)" fill="url(#paint26_linear)"/>
<rect width="8.51763" height="6.95816" rx="0.508365" transform="matrix(-0.866025 -0.5 -0.866025 0.5 153.547 183.898)" fill="url(#paint27_linear)"/>
<rect width="8.51763" height="6.95816" rx="0.508365" transform="matrix(-0.866025 -0.5 -0.866025 0.5 108.117 157.669)" fill="url(#paint28_linear)"/>
<rect width="40.6771" height="6.95816" rx="0.508365" transform="matrix(-0.866025 -0.5 -0.866025 0.5 144.694 178.787)" fill="url(#paint29_linear)"/>
<rect width="6.95816" height="6.95816" rx="0.508365" transform="matrix(0.866025 0.5 -0.866025 0.5 144.824 144.894)" fill="url(#paint30_linear)"/>
<rect width="6.95816" height="6.95816" rx="0.508365" transform="matrix(-0.866025 -0.5 -0.866025 0.5 168.022 166.779)" fill="url(#paint31_linear)"/>
<rect width="6.95816" height="6.95816" rx="0.508365" transform="matrix(-0.866025 -0.5 -0.866025 0.5 163.158 172.464)" fill="url(#paint32_linear)"/>
<rect width="6.95816" height="6.95816" rx="0.508365" transform="matrix(-0.866025 -0.5 -0.866025 0.5 159.425 178.802)" fill="url(#paint33_linear)"/>
<rect width="6.95816" height="6.95816" rx="0.508365" transform="matrix(0.866025 0.5 -0.866025 0.5 152.2 149.153)" fill="url(#paint34_linear)"/>
<rect width="6.95816" height="6.95816" rx="0.508365" transform="matrix(-0.866025 -0.5 -0.866025 0.5 160.646 162.521)" fill="url(#paint35_linear)"/>
<rect width="6.95816" height="6.95816" rx="0.508365" transform="matrix(-0.866025 -0.5 -0.866025 0.5 155.781 168.204)" fill="url(#paint36_linear)"/>
<rect width="6.95816" height="6.95816" rx="0.508365" transform="matrix(-0.866025 -0.5 -0.866025 0.5 152.049 174.542)" fill="url(#paint37_linear)"/>
<rect width="6.95816" height="6.95816" rx="0.508365" transform="matrix(0.866025 0.5 -0.866025 0.5 159.577 153.412)" fill="url(#paint38_linear)"/>
<rect width="6.95816" height="6.95816" rx="0.508365" transform="matrix(-0.866025 -0.5 -0.866025 0.5 153.269 158.262)" fill="url(#paint39_linear)"/>
<rect width="6.95816" height="6.95816" rx="0.508365" transform="matrix(-0.866025 -0.5 -0.866025 0.5 148.404 163.945)" fill="url(#paint40_linear)"/>
<rect width="6.95816" height="6.95816" rx="0.508365" transform="matrix(-0.866025 -0.5 -0.866025 0.5 144.672 170.282)" fill="url(#paint41_linear)"/>
<rect width="6.95816" height="6.95816" rx="0.508365" transform="matrix(0.866025 0.5 -0.866025 0.5 166.955 157.671)" fill="url(#paint42_linear)"/>
<rect width="6.95816" height="6.95816" rx="0.508365" transform="matrix(-0.866025 -0.5 -0.866025 0.5 145.893 154.003)" fill="url(#paint43_linear)"/>
<rect width="6.95816" height="6.95816" rx="0.508365" transform="matrix(-0.866025 -0.5 -0.866025 0.5 141.027 159.687)" fill="url(#paint44_linear)"/>
<rect width="6.95816" height="6.95816" rx="0.508365" transform="matrix(-0.866025 -0.5 -0.866025 0.5 137.295 166.024)" fill="url(#paint45_linear)"/>
<rect width="6.95816" height="6.95816" rx="0.508365" transform="matrix(0.866025 0.5 -0.866025 0.5 174.33 161.929)" fill="url(#paint46_linear)"/>
<rect width="6.95816" height="6.95816" rx="0.508365" transform="matrix(-0.866025 -0.5 -0.866025 0.5 138.515 149.744)" fill="url(#paint47_linear)"/>
<rect width="6.95816" height="6.95816" rx="0.508365" transform="matrix(-0.866025 -0.5 -0.866025 0.5 133.651 155.428)" fill="url(#paint48_linear)"/>
<rect width="6.95816" height="6.95816" rx="0.508365" transform="matrix(-0.866025 -0.5 -0.866025 0.5 129.919 161.766)" fill="url(#paint49_linear)"/>
<rect width="6.95816" height="6.95816" rx="0.508365" transform="matrix(0.866025 0.5 -0.866025 0.5 181.706 166.188)" fill="url(#paint50_linear)"/>
<rect width="6.95816" height="6.95816" rx="0.508365" transform="matrix(-0.866025 -0.5 -0.866025 0.5 131.14 145.486)" fill="url(#paint51_linear)"/>
<rect width="6.95816" height="6.95816" rx="0.508365" transform="matrix(-0.866025 -0.5 -0.866025 0.5 126.276 151.169)" fill="url(#paint52_linear)"/>
<rect width="6.95816" height="6.95816" rx="0.508365" transform="matrix(-0.866025 -0.5 -0.866025 0.5 122.544 157.506)" fill="url(#paint53_linear)"/>
<rect width="6.95816" height="6.95816" rx="0.508365" transform="matrix(0.866025 0.5 -0.866025 0.5 189.084 170.448)" fill="url(#paint54_linear)"/>
<rect width="6.95816" height="6.95816" rx="0.508365" transform="matrix(-0.866025 -0.5 -0.866025 0.5 123.762 141.228)" fill="url(#paint55_linear)"/>
<rect width="6.95816" height="6.95816" rx="0.508365" transform="matrix(-0.866025 -0.5 -0.866025 0.5 118.899 146.91)" fill="url(#paint56_linear)"/>
<rect width="6.95816" height="6.95816" rx="0.508365" transform="matrix(-0.866025 -0.5 -0.866025 0.5 115.166 153.248)" fill="url(#paint57_linear)"/>
<rect width="6.95816" height="6.95816" rx="0.508365" transform="matrix(-0.866025 -0.5 -0.866025 0.5 92.0126 148.372)" fill="url(#paint58_linear)"/>
<rect width="6.95816" height="6.95816" rx="0.508365" transform="matrix(-0.866025 -0.5 -0.866025 0.5 99.3894 152.631)" fill="url(#paint59_linear)"/>
<rect width="6.95816" height="6.95816" rx="0.508365" transform="matrix(0.866025 0.5 -0.866025 0.5 196.459 174.706)" fill="url(#paint60_linear)"/>
<rect width="6.95816" height="6.95816" rx="0.508365" transform="matrix(-0.866025 -0.5 -0.866025 0.5 116.386 136.967)" fill="url(#paint61_linear)"/>
<rect width="6.95816" height="6.95816" rx="0.508365" transform="matrix(-0.866025 -0.5 -0.866025 0.5 111.522 142.651)" fill="url(#paint62_linear)"/>
<rect width="6.95816" height="6.95816" rx="0.508365" transform="matrix(-0.866025 -0.5 -0.866025 0.5 107.79 148.989)" fill="url(#paint63_linear)"/>
<rect width="6.95816" height="6.95816" rx="0.508365" transform="matrix(-0.866025 -0.5 -0.866025 0.5 84.6368 144.114)" fill="url(#paint64_linear)"/>
<rect width="9.72517" height="6.95816" rx="0.508365" transform="matrix(0.866025 0.5 -0.866025 0.5 203.835 178.965)" fill="url(#paint65_linear)"/>
<rect width="9.72517" height="6.95816" rx="0.508365" transform="matrix(-0.866025 -0.5 -0.866025 0.5 109.01 132.709)" fill="url(#paint66_linear)"/>
<rect width="12.6004" height="6.95816" rx="0.508365" transform="matrix(-0.866025 -0.5 -0.866025 0.5 104.145 138.393)" fill="url(#paint67_linear)"/>
<rect width="16.7832" height="6.95816" rx="0.508365" transform="matrix(-0.866025 -0.5 -0.866025 0.5 100.413 144.73)" fill="url(#paint68_linear)"/>
<rect width="5.20934" height="40.9269" transform="matrix(0.866025 0.5 -0.866025 0.5 99.7595 118.878)" fill="#4E4E4E" fill-opacity="0.47"/>
<rect width="5.20934" height="40.9269" transform="matrix(0.866025 0.5 -0.866025 0.5 216.014 185.998)" fill="#4E4E4E" fill-opacity="0.47"/>
<circle r="1.28739" transform="matrix(0.866025 0.5 -0.301205 0.953559 190.121 58.8239)" fill="#242424"/>
<circle r="0.247837" transform="matrix(0.866025 0.5 -0.301205 0.953559 190.41 58.9374)" fill="#838383"/>
<circle r="0.851254" transform="matrix(0.866025 0.5 -0.301205 0.953559 189.93 58.5513)" fill="url(#paint69_radial)"/>
<circle r="0.0914648" transform="matrix(0.866025 0.5 -0.301205 0.953559 189.801 57.9557)" fill="white"/>
<path fill-rule="evenodd" clip-rule="evenodd" d="M72.1631 191.26L25.5968 164.525L25.7248 164.302L72.291 191.037L72.1631 191.26Z" fill="url(#paint70_linear)"/>
<path fill-rule="evenodd" clip-rule="evenodd" d="M141.086 230.892L94.5199 204.157L94.6478 203.934L141.214 230.669L141.086 230.892Z" fill="url(#paint71_linear)"/>
<path fill-rule="evenodd" clip-rule="evenodd" d="M178.153 47.6481L131.587 20.9133L131.715 20.6904L178.281 47.4252L178.153 47.6481Z" fill="url(#paint72_linear)"/>
<path d="M134.042 22.0365C134.042 22.2347 133.881 22.3953 133.683 22.3953C133.485 22.3953 133.324 22.2347 133.324 22.0365C133.324 21.8384 133.485 21.6777 133.683 21.6777C133.881 21.6777 134.042 21.8384 134.042 22.0365Z" fill="white"/>
<g opacity="0.39" filter="url(#filter2_f)">
<path fill-rule="evenodd" clip-rule="evenodd" d="M109.291 114.652L136.723 166.917L197.773 203.166L226.407 186.634C228.62 185.357 228.62 183.286 226.407 182.008L218.019 177.165L216.242 178.191L116.957 120.869L118.734 119.843L110.848 115.29C110.382 115.021 109.854 114.808 109.291 114.652Z" fill="url(#paint73_linear)"/>
</g>
</g>
<defs>
<filter id="filter0_f" x="18.7663" y="68.1852" width="295.589" height="173.917" filterUnits="userSpaceOnUse" color-interpolation-filters="sRGB">
<feFlood flood-opacity="0" result="BackgroundImageFix"/>
<feBlend mode="normal" in="SourceGraphic" in2="BackgroundImageFix" result="shape"/>
<feGaussianBlur stdDeviation="1.92744" result="effect1_foregroundBlur"/>
</filter>
<filter id="filter1_ii" x="69.5126" y="121.878" width="145.731" height="84.3948" filterUnits="userSpaceOnUse" color-interpolation-filters="sRGB">
<feFlood flood-opacity="0" result="BackgroundImageFix"/>
<feBlend mode="normal" in="SourceGraphic" in2="BackgroundImageFix" result="shape"/>
<feColorMatrix in="SourceAlpha" type="matrix" values="0 0 0 0 0 0 0 0 0 0 0 0 0 0 0 0 0 0 127 0" result="hardAlpha"/>
<feOffset/>
<feGaussianBlur stdDeviation="0.513984"/>
<feComposite in2="hardAlpha" operator="arithmetic" k2="-1" k3="1"/>
<feColorMatrix type="matrix" values="0 0 0 0 0.0903861 0 0 0 0 0.0762847 0 0 0 0 0.108333 0 0 0 0.69 0"/>
<feBlend mode="normal" in2="shape" result="effect1_innerShadow"/>
<feColorMatrix in="SourceAlpha" type="matrix" values="0 0 0 0 0 0 0 0 0 0 0 0 0 0 0 0 0 0 127 0" result="hardAlpha"/>
<feMorphology radius="0.513984" operator="dilate" in="SourceAlpha" result="effect2_innerShadow"/>
<feOffset dy="0.513984"/>
<feGaussianBlur stdDeviation="0.385488"/>
<feComposite in2="hardAlpha" operator="arithmetic" k2="-1" k3="1"/>
<feColorMatrix type="matrix" values="0 0 0 0 1 0 0 0 0 1 0 0 0 0 1 0 0 0 1 0"/>
<feBlend mode="normal" in2="effect1_innerShadow" result="effect2_innerShadow"/>
</filter>
<filter id="filter2_f" x="104.922" y="110.283" width="127.514" height="97.2513" filterUnits="userSpaceOnUse" color-interpolation-filters="sRGB">
<feFlood flood-opacity="0" result="BackgroundImageFix"/>
<feBlend mode="normal" in="SourceGraphic" in2="BackgroundImageFix" result="shape"/>
<feGaussianBlur stdDeviation="2.18443" result="effect1_foregroundBlur"/>
</filter>
<linearGradient id="paint0_linear" x1="71.6021" y1="0" x2="71.6021" y2="193.704" gradientUnits="userSpaceOnUse">
<stop stop-opacity="0"/>
<stop offset="0.614583" stop-color="#482C36"/>
</linearGradient>
<linearGradient id="paint1_linear" x1="8.90561" y1="4.48157" x2="100.351" y2="127.267" gradientUnits="userSpaceOnUse">
<stop stop-color="#0D0D0D"/>
<stop offset="0.484375" stop-color="#262626"/>
<stop offset="0.541667" stop-color="#0E0E0E"/>
<stop offset="1" stop-color="#272425"/>
</linearGradient>
<linearGradient id="paint2_linear" x1="10.516" y1="10.4678" x2="84.4381" y2="106.662" gradientUnits="userSpaceOnUse">
<stop stop-color="#FF6448"/>
<stop offset="1" stop-color="#A89AFF"/>
</linearGradient>
<linearGradient id="paint3_linear" x1="227.751" y1="165.212" x2="24.1863" y2="165.212" gradientUnits="userSpaceOnUse">
<stop stop-color="#2E2E2E"/>
<stop offset="0.0152179" stop-color="#454B50"/>
<stop offset="0.0909353" stop-color="#485666"/>
<stop offset="0.351348" stop-color="#44474D"/>
<stop offset="0.402508" stop-color="#848484"/>
<stop offset="0.446897" stop-color="#525353"/>
<stop offset="0.662573" stop-color="#767676"/>
<stop offset="0.666513" stop-color="#6E7276"/>
<stop offset="0.717302" stop-color="#545557"/>
<stop offset="0.750578" stop-color="#383B44"/>
<stop offset="0.754519" stop-color="#4B5359"/>
<stop offset="0.976451" stop-color="#565759"/>
<stop offset="1" stop-color="#979797"/>
</linearGradient>
<linearGradient id="paint4_linear" x1="32.8366" y1="129.573" x2="205.643" y2="69.3883" gradientUnits="userSpaceOnUse">
<stop stop-color="#606872"/>
<stop offset="0.271874" stop-color="#6F7275"/>
<stop offset="0.612224" stop-color="#585F67"/>
<stop offset="0.998493" stop-color="#697078"/>
</linearGradient>
<radialGradient id="paint5_radial" cx="0" cy="0" r="1" gradientUnits="userSpaceOnUse" gradientTransform="translate(33.4577 19.927) rotate(90) scale(19.927 33.4577)">
<stop stop-color="#72757B" stop-opacity="0.76"/>
<stop offset="1" stop-color="#545860" stop-opacity="0.7"/>
</radialGradient>
<linearGradient id="paint6_linear" x1="3.47908" y1="0" x2="3.47908" y2="6.95816" gradientUnits="userSpaceOnUse">
<stop stop-color="#1B1B1B"/>
<stop offset="0.869792"/>
<stop offset="1" stop-color="#3A3A3A"/>
</linearGradient>
<linearGradient id="paint7_linear" x1="3.47908" y1="0" x2="3.47908" y2="6.95816" gradientUnits="userSpaceOnUse">
<stop stop-color="#1B1B1B"/>
<stop offset="0.869792"/>
<stop offset="1" stop-color="#3A3A3A"/>
</linearGradient>
<linearGradient id="paint8_linear" x1="3.47908" y1="0" x2="3.47908" y2="6.95816" gradientUnits="userSpaceOnUse">
<stop stop-color="#1B1B1B"/>
<stop offset="0.869792"/>
<stop offset="1" stop-color="#3A3A3A"/>
</linearGradient>
<linearGradient id="paint9_linear" x1="3.47908" y1="0" x2="3.47908" y2="6.95816" gradientUnits="userSpaceOnUse">
<stop stop-color="#1B1B1B"/>
<stop offset="0.869792"/>
<stop offset="1" stop-color="#3A3A3A"/>
</linearGradient>
<linearGradient id="paint10_linear" x1="6.3003" y1="0" x2="6.3003" y2="6.95816" gradientUnits="userSpaceOnUse">
<stop stop-color="#1B1B1B"/>
<stop offset="0.869792"/>
<stop offset="1" stop-color="#3A3A3A"/>
</linearGradient>
<linearGradient id="paint11_linear" x1="3.47908" y1="0" x2="3.47908" y2="6.95816" gradientUnits="userSpaceOnUse">
<stop stop-color="#1B1B1B"/>
<stop offset="0.869792"/>
<stop offset="1" stop-color="#3A3A3A"/>
</linearGradient>
<linearGradient id="paint12_linear" x1="3.47908" y1="0" x2="3.47908" y2="6.95816" gradientUnits="userSpaceOnUse">
<stop stop-color="#1B1B1B"/>
<stop offset="0.869792"/>
<stop offset="1" stop-color="#3A3A3A"/>
</linearGradient>
<linearGradient id="paint13_linear" x1="3.47908" y1="0" x2="3.47908" y2="6.95816" gradientUnits="userSpaceOnUse">
<stop stop-color="#1B1B1B"/>
<stop offset="0.869792"/>
<stop offset="1" stop-color="#3A3A3A"/>
</linearGradient>
<linearGradient id="paint14_linear" x1="8.46772" y1="0" x2="8.46772" y2="6.95816" gradientUnits="userSpaceOnUse">
<stop stop-color="#1B1B1B"/>
<stop offset="0.869792"/>
<stop offset="1" stop-color="#3A3A3A"/>
</linearGradient>
<linearGradient id="paint15_linear" x1="3.47908" y1="0" x2="3.47908" y2="6.95816" gradientUnits="userSpaceOnUse">
<stop stop-color="#1B1B1B"/>
<stop offset="0.869792"/>
<stop offset="1" stop-color="#3A3A3A"/>
</linearGradient>
<linearGradient id="paint16_linear" x1="3.47908" y1="0" x2="3.47908" y2="6.95816" gradientUnits="userSpaceOnUse">
<stop stop-color="#1B1B1B"/>
<stop offset="0.869792"/>
<stop offset="1" stop-color="#3A3A3A"/>
</linearGradient>
<linearGradient id="paint17_linear" x1="3.47908" y1="0" x2="3.47908" y2="6.95816" gradientUnits="userSpaceOnUse">
<stop stop-color="#1B1B1B"/>
<stop offset="0.869792"/>
<stop offset="1" stop-color="#3A3A3A"/>
</linearGradient>
<linearGradient id="paint18_linear" x1="3.47908" y1="0" x2="3.47908" y2="6.95816" gradientUnits="userSpaceOnUse">
<stop stop-color="#1B1B1B"/>
<stop offset="0.869792"/>
<stop offset="1" stop-color="#3A3A3A"/>
</linearGradient>
<linearGradient id="paint19_linear" x1="3.47908" y1="0" x2="3.47908" y2="6.95816" gradientUnits="userSpaceOnUse">
<stop stop-color="#1B1B1B"/>
<stop offset="0.869792"/>
<stop offset="1" stop-color="#3A3A3A"/>
</linearGradient>
<linearGradient id="paint20_linear" x1="3.47908" y1="0" x2="3.47908" y2="3.6424" gradientUnits="userSpaceOnUse">
<stop stop-color="#1B1B1B"/>
<stop offset="0.869792"/>
<stop offset="1" stop-color="#3A3A3A"/>
</linearGradient>
<linearGradient id="paint21_linear" x1="3.47908" y1="0" x2="3.47908" y2="6.95816" gradientUnits="userSpaceOnUse">
<stop stop-color="#1B1B1B"/>
<stop offset="0.869792"/>
<stop offset="1" stop-color="#3A3A3A"/>
</linearGradient>
<linearGradient id="paint22_linear" x1="3.47908" y1="0" x2="3.47908" y2="3.64233" gradientUnits="userSpaceOnUse">
<stop stop-color="#1B1B1B"/>
<stop offset="0.869792"/>
<stop offset="1" stop-color="#3A3A3A"/>
</linearGradient>
<linearGradient id="paint23_linear" x1="3.47908" y1="0" x2="3.47908" y2="6.95816" gradientUnits="userSpaceOnUse">
<stop stop-color="#1B1B1B"/>
<stop offset="0.869792"/>
<stop offset="1" stop-color="#3A3A3A"/>
</linearGradient>
<linearGradient id="paint24_linear" x1="3.47908" y1="0" x2="3.47908" y2="6.95816" gradientUnits="userSpaceOnUse">
<stop stop-color="#1B1B1B"/>
<stop offset="0.869792"/>
<stop offset="1" stop-color="#3A3A3A"/>
</linearGradient>
<linearGradient id="paint25_linear" x1="3.47908" y1="0" x2="3.47908" y2="6.95816" gradientUnits="userSpaceOnUse">
<stop stop-color="#1B1B1B"/>
<stop offset="0.869792"/>
<stop offset="1" stop-color="#3A3A3A"/>
</linearGradient>
<linearGradient id="paint26_linear" x1="3.47908" y1="0" x2="3.47908" y2="6.95816" gradientUnits="userSpaceOnUse">
<stop stop-color="#1B1B1B"/>
<stop offset="0.869792"/>
<stop offset="1" stop-color="#3A3A3A"/>
</linearGradient>
<linearGradient id="paint27_linear" x1="4.25882" y1="0" x2="4.25882" y2="6.95816" gradientUnits="userSpaceOnUse">
<stop stop-color="#1B1B1B"/>
<stop offset="0.869792"/>
<stop offset="1" stop-color="#3A3A3A"/>
</linearGradient>
<linearGradient id="paint28_linear" x1="4.25882" y1="0" x2="4.25882" y2="6.95816" gradientUnits="userSpaceOnUse">
<stop stop-color="#1B1B1B"/>
<stop offset="0.869792"/>
<stop offset="1" stop-color="#3A3A3A"/>
</linearGradient>
<linearGradient id="paint29_linear" x1="20.3386" y1="0" x2="20.3386" y2="6.95816" gradientUnits="userSpaceOnUse">
<stop stop-color="#1B1B1B"/>
<stop offset="0.869792"/>
<stop offset="1" stop-color="#3A3A3A"/>
</linearGradient>
<linearGradient id="paint30_linear" x1="3.47908" y1="0" x2="3.47908" y2="6.95816" gradientUnits="userSpaceOnUse">
<stop stop-color="#1B1B1B"/>
<stop offset="0.869792"/>
<stop offset="1" stop-color="#3A3A3A"/>
</linearGradient>
<linearGradient id="paint31_linear" x1="3.47908" y1="0" x2="3.47908" y2="6.95816" gradientUnits="userSpaceOnUse">
<stop stop-color="#1B1B1B"/>
<stop offset="0.869792"/>
<stop offset="1" stop-color="#3A3A3A"/>
</linearGradient>
<linearGradient id="paint32_linear" x1="3.47908" y1="0" x2="3.47908" y2="6.95816" gradientUnits="userSpaceOnUse">
<stop stop-color="#1B1B1B"/>
<stop offset="0.869792"/>
<stop offset="1" stop-color="#3A3A3A"/>
</linearGradient>
<linearGradient id="paint33_linear" x1="3.47908" y1="0" x2="3.47908" y2="6.95816" gradientUnits="userSpaceOnUse">
<stop stop-color="#1B1B1B"/>
<stop offset="0.869792"/>
<stop offset="1" stop-color="#3A3A3A"/>
</linearGradient>
<linearGradient id="paint34_linear" x1="3.47908" y1="0" x2="3.47908" y2="6.95816" gradientUnits="userSpaceOnUse">
<stop stop-color="#1B1B1B"/>
<stop offset="0.869792"/>
<stop offset="1" stop-color="#3A3A3A"/>
</linearGradient>
<linearGradient id="paint35_linear" x1="3.47908" y1="0" x2="3.47908" y2="6.95816" gradientUnits="userSpaceOnUse">
<stop stop-color="#1B1B1B"/>
<stop offset="0.869792"/>
<stop offset="1" stop-color="#3A3A3A"/>
</linearGradient>
<linearGradient id="paint36_linear" x1="3.47908" y1="0" x2="3.47908" y2="6.95816" gradientUnits="userSpaceOnUse">
<stop stop-color="#1B1B1B"/>
<stop offset="0.869792"/>
<stop offset="1" stop-color="#3A3A3A"/>
</linearGradient>
<linearGradient id="paint37_linear" x1="3.47908" y1="0" x2="3.47908" y2="6.95816" gradientUnits="userSpaceOnUse">
<stop stop-color="#1B1B1B"/>
<stop offset="0.869792"/>
<stop offset="1" stop-color="#3A3A3A"/>
</linearGradient>
<linearGradient id="paint38_linear" x1="3.47908" y1="0" x2="3.47908" y2="6.95816" gradientUnits="userSpaceOnUse">
<stop stop-color="#1B1B1B"/>
<stop offset="0.869792"/>
<stop offset="1" stop-color="#3A3A3A"/>
</linearGradient>
<linearGradient id="paint39_linear" x1="3.47908" y1="0" x2="3.47908" y2="6.95816" gradientUnits="userSpaceOnUse">
<stop stop-color="#1B1B1B"/>
<stop offset="0.869792"/>
<stop offset="1" stop-color="#3A3A3A"/>
</linearGradient>
<linearGradient id="paint40_linear" x1="3.47908" y1="0" x2="3.47908" y2="6.95816" gradientUnits="userSpaceOnUse">
<stop stop-color="#1B1B1B"/>
<stop offset="0.869792"/>
<stop offset="1" stop-color="#3A3A3A"/>
</linearGradient>
<linearGradient id="paint41_linear" x1="3.47908" y1="0" x2="3.47908" y2="6.95816" gradientUnits="userSpaceOnUse">
<stop stop-color="#1B1B1B"/>
<stop offset="0.869792"/>
<stop offset="1" stop-color="#3A3A3A"/>
</linearGradient>
<linearGradient id="paint42_linear" x1="3.47908" y1="0" x2="3.47908" y2="6.95816" gradientUnits="userSpaceOnUse">
<stop stop-color="#1B1B1B"/>
<stop offset="0.869792"/>
<stop offset="1" stop-color="#3A3A3A"/>
</linearGradient>
<linearGradient id="paint43_linear" x1="3.47908" y1="0" x2="3.47908" y2="6.95816" gradientUnits="userSpaceOnUse">
<stop stop-color="#1B1B1B"/>
<stop offset="0.869792"/>
<stop offset="1" stop-color="#3A3A3A"/>
</linearGradient>
<linearGradient id="paint44_linear" x1="3.47908" y1="0" x2="3.47908" y2="6.95816" gradientUnits="userSpaceOnUse">
<stop stop-color="#1B1B1B"/>
<stop offset="0.869792"/>
<stop offset="1" stop-color="#3A3A3A"/>
</linearGradient>
<linearGradient id="paint45_linear" x1="3.47908" y1="0" x2="3.47908" y2="6.95816" gradientUnits="userSpaceOnUse">
<stop stop-color="#1B1B1B"/>
<stop offset="0.869792"/>
<stop offset="1" stop-color="#3A3A3A"/>
</linearGradient>
<linearGradient id="paint46_linear" x1="3.47908" y1="0" x2="3.47908" y2="6.95816" gradientUnits="userSpaceOnUse">
<stop stop-color="#1B1B1B"/>
<stop offset="0.869792"/>
<stop offset="1" stop-color="#3A3A3A"/>
</linearGradient>
<linearGradient id="paint47_linear" x1="3.47908" y1="0" x2="3.47908" y2="6.95816" gradientUnits="userSpaceOnUse">
<stop stop-color="#1B1B1B"/>
<stop offset="0.869792"/>
<stop offset="1" stop-color="#3A3A3A"/>
</linearGradient>
<linearGradient id="paint48_linear" x1="3.47908" y1="0" x2="3.47908" y2="6.95816" gradientUnits="userSpaceOnUse">
<stop stop-color="#1B1B1B"/>
<stop offset="0.869792"/>
<stop offset="1" stop-color="#3A3A3A"/>
</linearGradient>
<linearGradient id="paint49_linear" x1="3.47908" y1="0" x2="3.47908" y2="6.95816" gradientUnits="userSpaceOnUse">
<stop stop-color="#1B1B1B"/>
<stop offset="0.869792"/>
<stop offset="1" stop-color="#3A3A3A"/>
</linearGradient>
<linearGradient id="paint50_linear" x1="3.47908" y1="0" x2="3.47908" y2="6.95816" gradientUnits="userSpaceOnUse">
<stop stop-color="#1B1B1B"/>
<stop offset="0.869792"/>
<stop offset="1" stop-color="#3A3A3A"/>
</linearGradient>
<linearGradient id="paint51_linear" x1="3.47908" y1="0" x2="3.47908" y2="6.95816" gradientUnits="userSpaceOnUse">
<stop stop-color="#1B1B1B"/>
<stop offset="0.869792"/>
<stop offset="1" stop-color="#3A3A3A"/>
</linearGradient>
<linearGradient id="paint52_linear" x1="3.47908" y1="0" x2="3.47908" y2="6.95816" gradientUnits="userSpaceOnUse">
<stop stop-color="#1B1B1B"/>
<stop offset="0.869792"/>
<stop offset="1" stop-color="#3A3A3A"/>
</linearGradient>
<linearGradient id="paint53_linear" x1="3.47908" y1="0" x2="3.47908" y2="6.95816" gradientUnits="userSpaceOnUse">
<stop stop-color="#1B1B1B"/>
<stop offset="0.869792"/>
<stop offset="1" stop-color="#3A3A3A"/>
</linearGradient>
<linearGradient id="paint54_linear" x1="3.47908" y1="0" x2="3.47908" y2="6.95816" gradientUnits="userSpaceOnUse">
<stop stop-color="#1B1B1B"/>
<stop offset="0.869792"/>
<stop offset="1" stop-color="#3A3A3A"/>
</linearGradient>
<linearGradient id="paint55_linear" x1="3.47908" y1="0" x2="3.47908" y2="6.95816" gradientUnits="userSpaceOnUse">
<stop stop-color="#1B1B1B"/>
<stop offset="0.869792"/>
<stop offset="1" stop-color="#3A3A3A"/>
</linearGradient>
<linearGradient id="paint56_linear" x1="3.47908" y1="0" x2="3.47908" y2="6.95816" gradientUnits="userSpaceOnUse">
<stop stop-color="#1B1B1B"/>
<stop offset="0.869792"/>
<stop offset="1" stop-color="#3A3A3A"/>
</linearGradient>
<linearGradient id="paint57_linear" x1="3.47908" y1="0" x2="3.47908" y2="6.95816" gradientUnits="userSpaceOnUse">
<stop stop-color="#1B1B1B"/>
<stop offset="0.869792"/>
<stop offset="1" stop-color="#3A3A3A"/>
</linearGradient>
<linearGradient id="paint58_linear" x1="3.47908" y1="0" x2="3.47908" y2="6.95816" gradientUnits="userSpaceOnUse">
<stop stop-color="#1B1B1B"/>
<stop offset="0.869792"/>
<stop offset="1" stop-color="#3A3A3A"/>
</linearGradient>
<linearGradient id="paint59_linear" x1="3.47908" y1="0" x2="3.47908" y2="6.95816" gradientUnits="userSpaceOnUse">
<stop stop-color="#1B1B1B"/>
<stop offset="0.869792"/>
<stop offset="1" stop-color="#3A3A3A"/>
</linearGradient>
<linearGradient id="paint60_linear" x1="3.47908" y1="0" x2="3.47908" y2="6.95816" gradientUnits="userSpaceOnUse">
<stop stop-color="#1B1B1B"/>
<stop offset="0.869792"/>
<stop offset="1" stop-color="#3A3A3A"/>
</linearGradient>
<linearGradient id="paint61_linear" x1="3.47908" y1="0" x2="3.47908" y2="6.95816" gradientUnits="userSpaceOnUse">
<stop stop-color="#1B1B1B"/>
<stop offset="0.869792"/>
<stop offset="1" stop-color="#3A3A3A"/>
</linearGradient>
<linearGradient id="paint62_linear" x1="3.47908" y1="0" x2="3.47908" y2="6.95816" gradientUnits="userSpaceOnUse">
<stop stop-color="#1B1B1B"/>
<stop offset="0.869792"/>
<stop offset="1" stop-color="#3A3A3A"/>
</linearGradient>
<linearGradient id="paint63_linear" x1="3.47908" y1="0" x2="3.47908" y2="6.95816" gradientUnits="userSpaceOnUse">
<stop stop-color="#1B1B1B"/>
<stop offset="0.869792"/>
<stop offset="1" stop-color="#3A3A3A"/>
</linearGradient>
<linearGradient id="paint64_linear" x1="3.47908" y1="0" x2="3.47908" y2="6.95816" gradientUnits="userSpaceOnUse">
<stop stop-color="#1B1B1B"/>
<stop offset="0.869792"/>
<stop offset="1" stop-color="#3A3A3A"/>
</linearGradient>
<linearGradient id="paint65_linear" x1="4.86258" y1="0" x2="4.86258" y2="6.95816" gradientUnits="userSpaceOnUse">
<stop stop-color="#1B1B1B"/>
<stop offset="0.869792"/>
<stop offset="1" stop-color="#3A3A3A"/>
</linearGradient>
<linearGradient id="paint66_linear" x1="4.86258" y1="0" x2="4.86258" y2="6.95816" gradientUnits="userSpaceOnUse">
<stop stop-color="#1B1B1B"/>
<stop offset="0.869792"/>
<stop offset="1" stop-color="#3A3A3A"/>
</linearGradient>
<linearGradient id="paint67_linear" x1="6.3002" y1="0" x2="6.3002" y2="6.95816" gradientUnits="userSpaceOnUse">
<stop stop-color="#1B1B1B"/>
<stop offset="0.869792"/>
<stop offset="1" stop-color="#3A3A3A"/>
</linearGradient>
<linearGradient id="paint68_linear" x1="8.39162" y1="0" x2="8.39162" y2="6.95816" gradientUnits="userSpaceOnUse">
<stop stop-color="#1B1B1B"/>
<stop offset="0.869792"/>
<stop offset="1" stop-color="#3A3A3A"/>
</linearGradient>
<radialGradient id="paint69_radial" cx="0" cy="0" r="1" gradientUnits="userSpaceOnUse" gradientTransform="translate(0.851254 0.851254) rotate(90) scale(0.851254)">
<stop stop-color="white" stop-opacity="0.33"/>
<stop offset="1" stop-color="white" stop-opacity="0"/>
</radialGradient>
<linearGradient id="paint70_linear" x1="48.9439" y1="164.414" x2="48.9439" y2="191.148" gradientUnits="userSpaceOnUse">
<stop stop-color="white" stop-opacity="0.6"/>
<stop offset="1" stop-color="white" stop-opacity="0"/>
</linearGradient>
<linearGradient id="paint71_linear" x1="117.867" y1="204.046" x2="117.867" y2="230.78" gradientUnits="userSpaceOnUse">
<stop stop-color="white" stop-opacity="0"/>
<stop offset="0.515625" stop-color="white" stop-opacity="0.45"/>
<stop offset="1" stop-color="white" stop-opacity="0"/>
</linearGradient>
<linearGradient id="paint72_linear" x1="154.934" y1="20.8019" x2="154.934" y2="47.5367" gradientUnits="userSpaceOnUse">
<stop stop-color="white" stop-opacity="0.6"/>
<stop offset="1" stop-color="white" stop-opacity="0"/>
</linearGradient>
<linearGradient id="paint73_linear" x1="144.569" y1="131.694" x2="119.122" y2="180.727" gradientUnits="userSpaceOnUse">
<stop stop-color="#E982A5"/>
<stop offset="0.307087" stop-color="#9EC3E9" stop-opacity="0"/>
</linearGradient>
<clipPath id="clip0">
<rect x="0.266602" y="0.140625" width="272.861" height="272.861" rx="10.3378" fill="white"/>
</clipPath>
</defs>
</svg>
