<svg width="221" height="178" viewBox="0 0 221 178" fill="none" xmlns="http://www.w3.org/2000/svg">
<path d="M0.0644531 10.0638C0.0644531 4.90373 4.24748 0.720703 9.40751 0.720703H211.451C216.611 0.720703 220.794 4.90373 220.794 10.0638V167.961C220.794 173.121 216.611 177.305 211.451 177.305H9.4075C4.24747 177.305 0.0644531 173.121 0.0644531 167.961V10.0638Z" fill="#FBDADA"/>
<rect x="79.5913" y="84.4167" width="3.92196" height="13.7219" fill="white"/>
<path fill-rule="evenodd" clip-rule="evenodd" d="M75.6094 98.3565C79.6985 98.3565 82.6348 94.849 82.6348 91.2752C82.6348 87.8995 79.7181 84.1938 75.6094 84.1938C71.6801 84.1938 68.6968 87.3643 68.6968 91.2752C68.6968 95.1861 71.6801 98.3565 75.6094 98.3565ZM76.0398 94.7775C78.0545 94.7775 79.5911 93.2766 79.5911 91.2755C79.5911 89.2745 78.0545 87.7736 76.0398 87.7736C74.0252 87.7736 72.4649 89.3414 72.4649 91.2755C72.4649 93.2096 74.0252 94.7775 76.0398 94.7775Z" fill="white"/>
<path fill-rule="evenodd" clip-rule="evenodd" d="M99.2677 88.2425L95.6765 89.9108C95.2184 88.8788 94.2523 88.0482 92.9459 88.0482C91.0886 88.0482 89.6501 89.4937 89.6501 91.2767C89.6501 93.0598 91.0886 94.5053 92.9459 94.5053C94.2821 94.5053 95.2623 93.7571 95.7071 92.6734L99.291 94.3633C98.19 96.7279 95.8273 98.3582 92.8821 98.3582C88.9166 98.3582 85.8008 95.1878 85.8008 91.2769C85.8008 87.366 89.0582 84.1956 92.8821 84.1956C95.6443 84.1956 98.1109 85.8498 99.2677 88.2425Z" fill="white"/>
<rect x="101.489" y="84.4153" width="3.92196" height="13.7268" fill="white"/>
<path d="M110.205 89.7521L114.127 89.4253V98.1408H110.205V89.7521Z" fill="white"/>
<path d="M118.92 89.7521L122.842 89.4253V98.1408H118.92V89.7521Z" fill="white"/>
<path d="M108.926 84.1948C112.396 84.1948 114.126 86.8539 114.126 89.642L110.204 90.3712C110.204 89.1655 109.115 88.0802 107.807 88.0802C106.5 88.0802 105.411 89.207 105.411 90.5143L104.372 89.0483C103.963 88.0802 105.445 84.1948 108.926 84.1948Z" fill="white"/>
<path d="M117.641 84.1948C121.112 84.1948 122.842 86.8539 122.842 89.642L118.92 90.3712C118.92 89.1655 117.83 88.0802 116.523 88.0802C115.216 88.0802 114.126 89.207 114.126 90.5143L113.088 89.0483C112.679 88.0802 114.16 84.1948 117.641 84.1948Z" fill="white"/>
<path d="M117.642 84.1948C121.112 84.1948 122.842 86.8539 122.842 89.642L118.92 89.9688C118.92 88.7632 117.831 87.79 116.523 87.79C115.216 87.79 114.127 88.6615 114.127 89.9688L112.166 87.8989C113.037 85.9379 114.161 84.1948 117.642 84.1948Z" fill="white"/>
<circle cx="128.883" cy="95.5752" r="2.55515" fill="white"/>
<path fill-rule="evenodd" clip-rule="evenodd" d="M48.0596 75.3239C44.656 71.9203 39.1377 71.9203 35.7341 75.3239L26.271 84.7871C22.8674 88.1907 22.8674 93.709 26.271 97.1126L35.7341 106.576C39.1377 109.979 44.656 109.979 48.0597 106.576L57.5228 97.1126C60.9264 93.709 60.9264 88.1907 57.5228 84.7871L48.0596 75.3239ZM45.9112 96.6292C45.9112 98.7589 44.1359 99.6651 41.9477 99.6651C39.7595 99.6651 37.9842 98.5735 37.9842 96.6292C37.9842 95.2664 37.3397 94.3049 36.6357 93.2546C35.7883 91.9904 34.8547 90.5976 34.8547 88.2217C34.8547 84.3125 38.0296 81.1447 41.9477 81.1447C45.8658 81.1447 49.0407 84.3125 49.0407 88.2217C49.0407 90.917 48.008 92.4405 47.129 93.7371C46.4779 94.6976 45.9112 95.5336 45.9112 96.6292ZM44.4576 100.453C44.4576 101.566 43.31 102.062 41.8932 102.062C40.4763 102.062 39.3288 101.566 39.3288 100.453C39.3288 99.8902 39.5012 99.9412 40.0137 100.093C40.4105 100.211 41.011 100.388 41.8932 100.388C42.7736 100.388 43.3736 100.221 43.7704 100.111C44.2846 99.9674 44.4576 99.9192 44.4576 100.453Z" fill="white"/>
<path d="M43.6123 92.6689C44.5155 92.1012 45.1121 91.1056 45.1121 89.9661C45.1121 88.987 44.6688 88.1066 43.9645 87.5224C43.4052 87.0535 43.7118 89.53 43.2477 89.9661C42.7547 90.4268 41.0478 90.4104 40.5382 89.9661C40.0576 89.5424 40.1985 87.2057 39.8215 87.5224C39.1213 88.1066 38.6738 88.987 38.6738 89.9661C38.6738 91.1015 39.2704 92.1012 40.1736 92.6689V96.7211C40.1736 97.404 40.8075 97.7043 41.893 97.7043C42.9784 97.7043 43.6123 97.4657 43.6123 96.7211V92.6689Z" fill="white"/>
<mask id="mask0" mask-type="alpha" maskUnits="userSpaceOnUse" x="134" y="78" width="63" height="21">
<rect x="160.972" y="84.3989" width="3.92196" height="13.7219" fill="white"/>
<path fill-rule="evenodd" clip-rule="evenodd" d="M156.99 98.3389C161.079 98.3389 164.015 94.8315 164.015 91.2576C164.015 87.8819 161.098 84.1763 156.99 84.1763C153.06 84.1763 150.077 87.3467 150.077 91.2576C150.077 95.1685 153.06 98.3389 156.99 98.3389ZM157.42 94.7597C159.435 94.7597 160.972 93.2588 160.972 91.2577C160.972 89.2567 159.435 87.7558 157.42 87.7558C155.406 87.7558 153.845 89.3236 153.845 91.2577C153.845 93.1918 155.406 94.7597 157.42 94.7597Z" fill="white"/>
<path fill-rule="evenodd" clip-rule="evenodd" d="M180.213 88.2237L176.621 89.8922C176.163 88.8602 175.197 88.0296 173.891 88.0296C172.033 88.0296 170.595 89.4751 170.595 91.2581C170.595 93.0412 172.033 94.4866 173.891 94.4866C175.227 94.4866 176.207 93.7385 176.652 92.6547L180.236 94.3446C179.134 96.7089 176.772 98.3389 173.827 98.3389C169.861 98.3389 166.746 95.1685 166.746 91.2576C166.746 87.3467 170.003 84.1763 173.827 84.1763C176.589 84.1763 179.056 85.8308 180.213 88.2237Z" fill="white"/>
<rect x="134.716" y="78.313" width="3.92196" height="19.8041" fill="white"/>
<path d="M144.215 90.5734L148.137 89.6021V98.1289H144.215L144.215 90.5734Z" fill="white"/>
<path d="M142.439 84.1577C146.242 84.1577 148.137 86.8168 148.137 89.6049L144.215 90.7666C144.215 89.3041 143.371 88.0431 141.462 88.0431C139.521 88.0431 138.639 89.4593 138.639 90.7666L137.45 89.0112C136.796 87.6642 138.625 84.1577 142.439 84.1577Z" fill="white"/>
<rect x="182.76" y="78.3123" width="3.92196" height="19.8092" fill="white"/>
<path d="M190.853 84.6118H196.052L185.92 95.4248L182.996 93.5293L190.853 84.6118Z" fill="white"/>
<path d="M191.339 98.1406H196.167L188.97 88.9696L186.028 91.335L191.339 98.1406Z" fill="white"/>
</mask>
<g mask="url(#mask0)">
<g style="mix-blend-mode:darken">
<rect x="134.716" y="76.4661" width="67.3884" height="29.7304" fill="url(#paint0_linear)"/>
</g>
</g>
<defs>
<linearGradient id="paint0_linear" x1="136.541" y1="104.625" x2="202.105" y2="76.4661" gradientUnits="userSpaceOnUse">
<stop stop-color="#BD00FF"/>
<stop offset="1" stop-color="#FF5F96"/>
</linearGradient>
</defs>
</svg>
