<svg width="220" height="176" viewBox="0 0 220 176" fill="none" xmlns="http://www.w3.org/2000/svg">
<path d="M0 9.29401C0 4.16106 4.16108 0 9.29402 0H210.277C215.41 0 219.571 4.16108 219.571 9.29402V166.363C219.571 171.496 215.41 175.657 210.277 175.657H9.29403C4.16108 175.657 0 171.496 0 166.363V9.29401Z" fill="#FF2E53"/>
<rect x="44.9453" y="82.0293" width="4.84324" height="16.9452" fill="white"/>
<path fill-rule="evenodd" clip-rule="evenodd" d="M40.0285 99.2434C45.0782 99.2434 48.7042 94.912 48.7042 90.4987C48.7042 86.33 45.1024 81.7539 40.0285 81.7539C35.1762 81.7539 31.4921 85.6691 31.4921 90.4987C31.4921 95.3282 35.1762 99.2434 40.0285 99.2434ZM40.5599 94.8235C43.0478 94.8235 44.9454 92.9701 44.9454 90.499C44.9454 88.0278 43.0478 86.1744 40.5599 86.1744C38.072 86.1744 36.1452 88.1106 36.1452 90.499C36.1452 92.8874 38.072 94.8235 40.5599 94.8235Z" fill="white"/>
<path fill-rule="evenodd" clip-rule="evenodd" d="M69.2439 86.753L64.8094 88.813C64.2435 87.5387 63.0506 86.5131 61.4374 86.5131C59.1437 86.5131 57.3674 88.2981 57.3674 90.5C57.3674 92.702 59.1437 94.4869 61.4374 94.4869C63.0876 94.4869 64.298 93.563 64.8473 92.2246L69.273 94.3115C67.9134 97.2317 64.9957 99.2451 61.3585 99.2451C56.4614 99.2451 52.6137 95.33 52.6137 90.5004C52.6137 85.6708 56.6363 81.7556 61.3585 81.7556C64.7694 81.7556 67.8154 83.7984 69.2439 86.753Z" fill="white"/>
<rect x="71.987" y="82.0254" width="4.84324" height="16.9512" fill="white"/>
<path d="M82.7498 88.618L87.593 88.2144V98.9771H82.7498V88.618Z" fill="white"/>
<path d="M93.5126 88.618L98.3558 88.2144V98.9771H93.5126V88.618Z" fill="white"/>
<path d="M81.1708 81.7554C85.4568 81.7554 87.5929 85.0391 87.5929 88.4821L82.7496 89.3826C82.7496 87.8937 81.4043 86.5534 79.7899 86.5534C78.1755 86.5534 76.8301 87.945 76.8301 89.5594L75.5474 87.749C75.0425 86.5534 76.8722 81.7554 81.1708 81.7554Z" fill="white"/>
<path d="M91.9336 81.7554C96.2196 81.7554 98.3557 85.0391 98.3557 88.4821L93.5124 89.3826C93.5124 87.8937 92.1671 86.5534 90.5527 86.5534C88.9382 86.5534 87.5929 87.945 87.5929 89.5594L86.3101 87.749C85.8053 86.5534 87.635 81.7554 91.9336 81.7554Z" fill="white"/>
<path d="M91.9336 81.7554C96.2196 81.7554 98.3557 85.0391 98.3557 88.4821L93.5124 88.8857C93.5124 87.3968 92.1671 86.195 90.5527 86.195C88.9383 86.195 87.5929 87.2713 87.5929 88.8857L85.1713 86.3295C86.2476 83.9079 87.635 81.7554 91.9336 81.7554Z" fill="white"/>
<circle cx="105.816" cy="95.8084" r="3.15536" fill="white"/>
<rect x="145.712" y="82.0076" width="4.84324" height="16.9452" fill="white"/>
<path fill-rule="evenodd" clip-rule="evenodd" d="M140.795 99.2214C145.845 99.2214 149.471 94.8901 149.471 90.4767C149.471 86.308 145.869 81.7319 140.795 81.7319C135.943 81.7319 132.259 85.6471 132.259 90.4767C132.259 95.3063 135.943 99.2214 140.795 99.2214ZM141.326 94.8018C143.814 94.8018 145.712 92.9483 145.712 90.4772C145.712 88.0061 143.814 86.1526 141.326 86.1526C138.838 86.1526 136.912 88.0888 136.912 90.4772C136.912 92.8656 138.838 94.8018 141.326 94.8018Z" fill="white"/>
<path fill-rule="evenodd" clip-rule="evenodd" d="M169.473 86.73L165.037 88.7903C164.472 87.516 163.279 86.4905 161.666 86.4905C159.372 86.4905 157.596 88.2755 157.596 90.4774C157.596 92.6793 159.372 94.4643 161.666 94.4643C163.316 94.4643 164.526 93.5403 165.075 92.2019L169.501 94.2888C168.141 97.2085 165.224 99.2214 161.587 99.2214C156.69 99.2214 152.842 95.3063 152.842 90.4767C152.842 85.6471 156.865 81.7319 161.587 81.7319C164.998 81.7319 168.044 83.775 169.473 86.73Z" fill="white"/>
<rect x="113.289" y="74.491" width="4.84324" height="24.4561" fill="white"/>
<path d="M125.019 89.631L129.862 88.4314V98.9612H125.019L125.019 89.631Z" fill="white"/>
<path d="M122.825 81.7083C127.521 81.7083 129.862 84.992 129.862 88.435L125.018 89.8696C125.018 88.0636 123.977 86.5063 121.619 86.5063C119.223 86.5063 118.133 88.2552 118.133 89.8696L116.664 87.7019C115.856 86.0384 118.116 81.7083 122.825 81.7083Z" fill="white"/>
<rect x="172.619" y="74.4905" width="4.84324" height="24.4624" fill="white"/>
<path d="M182.613 82.27H189.032L176.52 95.6231L172.909 93.2822L182.613 82.27Z" fill="white"/>
<path d="M183.213 98.9771H189.175L180.287 87.6518L176.655 90.5727L183.213 98.9771Z" fill="white"/>
</svg>
