<svg width="222" height="177" viewBox="0 0 222 177" fill="none" xmlns="http://www.w3.org/2000/svg">
<path d="M0.658447 9.43445C0.658447 4.2644 4.8496 0.0732422 10.0197 0.0732422H212.456C217.626 0.0732422 221.817 4.2644 221.817 9.43445V167.639C221.817 172.809 217.626 177 212.456 177H10.0197C4.84962 177 0.658447 172.809 0.658447 167.639V9.43445Z" fill="#D06CFF"/>
<rect x="42.2499" y="84.4116" width="4.87825" height="17.0677" fill="white"/>
<path fill-rule="evenodd" clip-rule="evenodd" d="M37.2972 101.75C42.3834 101.75 46.0356 97.3873 46.0356 92.942C46.0356 88.7432 42.4077 84.134 37.2972 84.134C32.4098 84.134 28.6991 88.0775 28.6991 92.942C28.6991 97.8065 32.4098 101.75 37.2972 101.75ZM37.8328 97.2979C40.3387 97.2979 42.25 95.431 42.25 92.9421C42.25 90.4531 40.3387 88.5862 37.8328 88.5862C35.3269 88.5862 33.3862 90.5364 33.3862 92.9421C33.3862 95.3477 35.3269 97.2979 37.8328 97.2979Z" fill="white"/>
<path fill-rule="evenodd" clip-rule="evenodd" d="M66.724 89.1691L62.2571 91.2442C61.6872 89.9606 60.4856 88.9277 58.8607 88.9277C56.5505 88.9277 54.7614 90.7256 54.7614 92.9434C54.7614 95.1612 56.5505 96.9591 58.8607 96.9591C60.5228 96.9591 61.742 96.0285 62.2953 94.6804L66.7535 96.7826C65.384 99.7239 62.4452 101.752 58.7817 101.752C53.8493 101.752 49.9738 97.8084 49.9738 92.9439C49.9738 88.0794 54.0254 84.136 58.7817 84.136C62.2172 84.136 65.285 86.1933 66.724 89.1691Z" fill="white"/>
<rect x="69.4868" y="84.408" width="4.87825" height="17.0738" fill="white"/>
<path d="M80.3273 91.0479L85.2056 90.6414V101.482H80.3273V91.0479Z" fill="white"/>
<path d="M91.1677 91.0479L96.0459 90.6414V101.482H91.1677V91.0479Z" fill="white"/>
<path d="M78.7369 84.1355C83.0539 84.1355 85.2055 87.443 85.2055 90.9108L80.3272 91.8178C80.3272 90.3182 78.9721 88.9682 77.346 88.9682C75.72 88.9682 74.3649 90.3698 74.3649 91.9959L73.0729 90.1724C72.5644 88.9682 74.4073 84.1355 78.7369 84.1355Z" fill="white"/>
<path d="M89.5775 84.1355C93.8945 84.1355 96.046 87.443 96.046 90.9108L91.1677 91.8178C91.1677 90.3182 89.8127 88.9682 88.1866 88.9682C86.5605 88.9682 85.2054 90.3698 85.2054 91.9959L83.9134 90.1724C83.405 88.9682 85.2478 84.1355 89.5775 84.1355Z" fill="white"/>
<path d="M89.5775 84.1355C93.8945 84.1355 96.046 87.443 96.046 90.9108L91.1678 91.3174C91.1678 89.8177 89.8127 88.6072 88.1866 88.6072C86.5606 88.6072 85.2055 89.6913 85.2055 91.3174L82.7664 88.7427C83.8504 86.3036 85.2479 84.1355 89.5775 84.1355Z" fill="white"/>
<circle cx="103.561" cy="98.2897" r="3.17817" fill="white"/>
<mask id="mask0" mask-type="alpha" maskUnits="userSpaceOnUse" x="111" y="76" width="77" height="26">
<rect x="143.744" y="84.3889" width="4.87825" height="17.0677" fill="white"/>
<path fill-rule="evenodd" clip-rule="evenodd" d="M138.792 101.728C143.878 101.728 147.53 97.3651 147.53 92.9198C147.53 88.721 143.902 84.1118 138.792 84.1118C133.904 84.1118 130.194 88.0553 130.194 92.9198C130.194 97.7843 133.904 101.728 138.792 101.728ZM139.327 97.2757C141.833 97.2757 143.744 95.4089 143.744 92.9199C143.744 90.4309 141.833 88.564 139.327 88.564C136.821 88.564 134.881 90.5142 134.881 92.9199C134.881 95.3255 136.821 97.2757 139.327 97.2757Z" fill="white"/>
<path fill-rule="evenodd" clip-rule="evenodd" d="M167.677 89.1456L163.21 91.2208C162.64 89.9373 161.438 88.9043 159.813 88.9043C157.503 88.9043 155.714 90.7022 155.714 92.92C155.714 95.1378 157.503 96.9357 159.813 96.9357C161.475 96.9357 162.695 96.0051 163.248 94.6571L167.706 96.7591C166.336 99.7 163.397 101.728 159.734 101.728C154.802 101.728 150.926 97.7843 150.926 92.9198C150.926 88.0553 154.978 84.1118 159.734 84.1118C163.17 84.1118 166.238 86.1695 167.677 89.1456Z" fill="white"/>
<rect x="111.087" y="76.8181" width="4.87825" height="24.6329" fill="white"/>
<path d="M122.901 92.0681L127.78 90.8599V101.466H122.901L122.901 92.0681Z" fill="white"/>
<path d="M120.692 84.0879C125.422 84.0879 127.78 87.3954 127.78 90.8632L122.901 92.3082C122.901 90.4891 121.852 88.9206 119.478 88.9206C117.064 88.9206 115.966 90.6821 115.966 92.3082L114.487 90.1248C113.673 88.4493 115.949 84.0879 120.692 84.0879Z" fill="white"/>
<rect x="170.846" y="76.8176" width="4.87825" height="24.6392" fill="white"/>
<path d="M180.912 84.6538H187.377L174.775 98.1034L171.138 95.7456L180.912 84.6538Z" fill="white"/>
<path d="M181.516 101.481H187.522L178.57 90.0741L174.911 93.0161L181.516 101.481Z" fill="white"/>
</mask>
<g mask="url(#mask0)">
<g style="mix-blend-mode:darken">
<rect x="109.016" y="72.8271" width="83.8196" height="36.9795" fill="url(#paint0_linear)"/>
</g>
</g>
<defs>
<linearGradient id="paint0_linear" x1="111.286" y1="107.852" x2="192.836" y2="72.8271" gradientUnits="userSpaceOnUse">
<stop stop-color="#FF56DA"/>
<stop offset="1" stop-color="#FF3D3D"/>
</linearGradient>
</defs>
</svg>
