<svg width="221" height="177" viewBox="0 0 221 177" fill="none" xmlns="http://www.w3.org/2000/svg">
<path d="M0 9.4163C0 4.25627 4.18303 0.0732422 9.34306 0.0732422H211.387C216.547 0.0732422 220.73 4.25627 220.73 9.4163V167.314C220.73 172.474 216.547 176.657 211.387 176.657H9.34305C4.18302 176.657 0 172.474 0 167.314V9.4163Z" fill="#FBDADA"/>
<rect x="79.5268" y="83.7693" width="3.92196" height="13.7219" fill="white"/>
<path fill-rule="evenodd" clip-rule="evenodd" d="M75.5451 97.709C79.6342 97.709 82.5705 94.2016 82.5705 90.6277C82.5705 87.252 79.6538 83.5464 75.5451 83.5464C71.6158 83.5464 68.6325 86.7168 68.6325 90.6277C68.6325 94.5386 71.6158 97.709 75.5451 97.709ZM75.9755 94.13C77.9902 94.13 79.5268 92.6291 79.5268 90.6281C79.5268 88.627 77.9902 87.1261 75.9755 87.1261C73.9609 87.1261 72.4006 88.694 72.4006 90.6281C72.4006 92.5621 73.9609 94.13 75.9755 94.13Z" fill="white"/>
<path fill-rule="evenodd" clip-rule="evenodd" d="M99.2033 87.5951L95.6121 89.2633C95.154 88.2313 94.1879 87.4008 92.8815 87.4008C91.0242 87.4008 89.5857 88.8462 89.5857 90.6293C89.5857 92.4123 91.0242 93.8578 92.8815 93.8578C94.2178 93.8578 95.1979 93.1097 95.6427 92.0259L99.2266 93.7158C98.1256 96.0804 95.7629 97.7107 92.8177 97.7107C88.8522 97.7107 85.7364 94.5403 85.7364 90.6294C85.7364 86.7185 88.9938 83.5481 92.8177 83.5481C95.5799 83.5481 98.0465 85.2024 99.2033 87.5951Z" fill="white"/>
<rect x="101.424" y="83.7678" width="3.92196" height="13.7268" fill="white"/>
<path d="M110.14 89.1047L114.062 88.7778V97.4933H110.14V89.1047Z" fill="white"/>
<path d="M118.855 89.1047L122.777 88.7778V97.4933H118.855V89.1047Z" fill="white"/>
<path d="M108.861 83.5474C112.332 83.5474 114.062 86.2065 114.062 88.9945L110.14 89.7237C110.14 88.5181 109.05 87.4327 107.743 87.4327C106.436 87.4327 105.346 88.5596 105.346 89.8669L104.307 88.4009C103.899 87.4327 105.38 83.5474 108.861 83.5474Z" fill="white"/>
<path d="M117.577 83.5474C121.048 83.5474 122.777 86.2065 122.777 88.9945L118.855 89.7237C118.855 88.5181 117.766 87.4327 116.459 87.4327C115.151 87.4327 114.062 88.5596 114.062 89.8669L113.023 88.4009C112.614 87.4327 114.096 83.5474 117.577 83.5474Z" fill="white"/>
<path d="M117.577 83.5474C121.048 83.5474 122.777 86.2065 122.777 88.9945L118.856 89.3214C118.856 88.1157 117.766 87.1425 116.459 87.1425C115.151 87.1425 114.062 88.014 114.062 89.3214L112.101 87.2514C112.973 85.2905 114.096 83.5474 117.577 83.5474Z" fill="white"/>
<circle cx="128.819" cy="94.9277" r="2.55515" fill="white"/>
<path fill-rule="evenodd" clip-rule="evenodd" d="M47.995 74.6765C44.5914 71.2729 39.0731 71.2729 35.6695 74.6765L26.2063 84.1396C22.8027 87.5432 22.8027 93.0616 26.2063 96.4652L35.6695 105.928C39.0731 109.332 44.5914 109.332 47.995 105.928L57.4582 96.4652C60.8618 93.0616 60.8618 87.5432 57.4582 84.1396L47.995 74.6765ZM45.8466 95.9817C45.8466 98.1114 44.0713 99.0177 41.8831 99.0177C39.6949 99.0177 37.9196 97.926 37.9196 95.9817C37.9196 94.619 37.2751 93.6574 36.571 92.6071C35.7237 91.343 34.79 89.9502 34.79 87.5742C34.79 83.665 37.965 80.4973 41.8831 80.4973C45.8012 80.4973 48.9761 83.665 48.9761 87.5742C48.9761 90.2695 47.9433 91.7931 47.0644 93.0897C46.4133 94.0502 45.8466 94.8862 45.8466 95.9817ZM44.3929 99.8059C44.3929 100.919 43.2454 101.414 41.8285 101.414C40.4117 101.414 39.2641 100.919 39.2641 99.8059C39.2641 99.2427 39.4366 99.2938 39.9491 99.4456C40.3458 99.5631 40.9464 99.7409 41.8285 99.7409C42.709 99.7409 43.309 99.5737 43.7057 99.4632C44.22 99.3199 44.3929 99.2717 44.3929 99.8059Z" fill="white"/>
<path d="M43.5479 92.0214C44.4511 91.4537 45.0477 90.4582 45.0477 89.3186C45.0477 88.3395 44.6044 87.4591 43.9 86.875C43.3407 86.406 43.6473 88.8826 43.1833 89.3186C42.6903 89.7794 40.9833 89.7629 40.4737 89.3186C39.9932 88.8949 40.134 86.5582 39.757 86.875C39.0568 87.4591 38.6094 88.3395 38.6094 89.3186C38.6094 90.4541 39.206 91.4537 40.1092 92.0214V96.0736C40.1092 96.7565 40.743 97.0568 41.8285 97.0568C42.914 97.0568 43.5479 96.8182 43.5479 96.0736V92.0214Z" fill="white"/>
<mask id="mask0" mask-type="alpha" maskUnits="userSpaceOnUse" x="134" y="77" width="63" height="21">
<rect x="160.907" y="83.7515" width="3.92196" height="13.7219" fill="white"/>
<path fill-rule="evenodd" clip-rule="evenodd" d="M156.926 97.6915C161.015 97.6915 163.951 94.184 163.951 90.6101C163.951 87.2344 161.034 83.5288 156.926 83.5288C152.996 83.5288 150.013 86.6992 150.013 90.6101C150.013 94.521 152.996 97.6915 156.926 97.6915ZM157.356 94.1122C159.371 94.1122 160.907 92.6113 160.907 90.6103C160.907 88.6092 159.371 87.1083 157.356 87.1083C155.341 87.1083 153.781 88.6762 153.781 90.6103C153.781 92.5443 155.341 94.1122 157.356 94.1122Z" fill="white"/>
<path fill-rule="evenodd" clip-rule="evenodd" d="M180.149 87.5763L176.557 89.2447C176.099 88.2127 175.133 87.3821 173.826 87.3821C171.969 87.3821 170.531 88.8276 170.531 90.6107C170.531 92.3937 171.969 93.8392 173.826 93.8392C175.163 93.8392 176.143 93.091 176.588 92.0073L180.171 93.6972C179.07 96.0614 176.708 97.6915 173.763 97.6915C169.797 97.6915 166.681 94.521 166.681 90.6101C166.681 86.6992 169.939 83.5288 173.763 83.5288C176.525 83.5288 178.992 85.1833 180.149 87.5763Z" fill="white"/>
<rect x="134.652" y="77.6655" width="3.92196" height="19.8041" fill="white"/>
<path d="M144.15 89.926L148.072 88.9546V97.4814H144.15L144.15 89.926Z" fill="white"/>
<path d="M142.374 83.5103C146.177 83.5103 148.072 86.1694 148.072 88.9574L144.15 90.1192C144.15 88.6567 143.307 87.3956 141.398 87.3956C139.457 87.3956 138.574 88.8118 138.574 90.1192L137.385 88.3638C136.731 87.0167 138.561 83.5103 142.374 83.5103Z" fill="white"/>
<rect x="182.696" y="77.6648" width="3.92196" height="19.8092" fill="white"/>
<path d="M190.789 83.9644H195.987L185.856 94.7774L182.931 92.8818L190.789 83.9644Z" fill="white"/>
<path d="M191.275 97.4932H196.103L188.906 88.3222L185.964 90.6875L191.275 97.4932Z" fill="white"/>
</mask>
<g mask="url(#mask0)">
<g style="mix-blend-mode:darken">
<rect x="134.652" y="75.8186" width="67.3884" height="29.7304" fill="url(#paint0_linear)"/>
</g>
</g>
<defs>
<linearGradient id="paint0_linear" x1="136.477" y1="103.977" x2="202.04" y2="75.8186" gradientUnits="userSpaceOnUse">
<stop stop-color="#FF56DA"/>
<stop offset="1" stop-color="#FF3D3D"/>
</linearGradient>
</defs>
</svg>
