<svg width="220" height="176" viewBox="0 0 220 176" fill="none" xmlns="http://www.w3.org/2000/svg">
<path d="M0 9.31216C0 4.1692 4.1692 0 9.31217 0H210.688C215.831 0 220 4.1692 220 9.31217V166.688C220 171.831 215.831 176 210.688 176H9.31216C4.16919 176 0 171.831 0 166.688V9.31216Z" fill="#FFEEEE"/>
<rect x="43.8025" y="84.8765" width="4.8527" height="16.9783" fill="black"/>
<path fill-rule="evenodd" clip-rule="evenodd" d="M38.8762 102.124C43.9357 102.124 47.5688 97.7844 47.5688 93.3624C47.5688 89.1856 43.9599 84.6006 38.8762 84.6006C34.0144 84.6006 30.3231 88.5234 30.3231 93.3624C30.3231 98.2014 34.0144 102.124 38.8762 102.124ZM39.4085 97.6954C41.9013 97.6954 43.8026 95.8383 43.8026 93.3623C43.8026 90.8864 41.9013 89.0293 39.4085 89.0293C36.9157 89.0293 34.9852 90.9693 34.9852 93.3623C34.9852 95.7554 36.9157 97.6954 39.4085 97.6954Z" fill="black"/>
<path fill-rule="evenodd" clip-rule="evenodd" d="M68.1483 89.6089L63.7052 91.673C63.1383 90.3962 61.943 89.3686 60.3266 89.3686C58.0285 89.3686 56.2487 91.1571 56.2487 93.3633C56.2487 95.5695 58.0285 97.358 60.3266 97.358C61.98 97.358 63.1928 96.4323 63.7432 95.0912L68.1778 97.1823C66.8156 100.108 63.8922 102.126 60.2477 102.126C55.3411 102.126 51.4859 98.2031 51.4859 93.3641C51.4859 88.5251 55.5163 84.6023 60.2477 84.6023C63.6651 84.6023 66.7169 86.6488 68.1483 89.6089Z" fill="black"/>
<rect x="70.8969" y="84.8728" width="4.8527" height="16.9843" fill="black"/>
<path d="M81.6807 91.4779L86.5334 91.0735V101.857H81.6807V91.4779Z" fill="black"/>
<path d="M92.4645 91.4779L97.3172 91.0735V101.857H92.4645V91.4779Z" fill="black"/>
<path d="M80.0986 84.6018C84.393 84.6018 86.5332 87.892 86.5332 91.3417L81.6805 92.2439C81.6805 90.7521 80.3326 89.4092 78.715 89.4092C77.0974 89.4092 75.7494 90.8035 75.7494 92.421L74.4642 90.6071C73.9584 89.4092 75.7916 84.6018 80.0986 84.6018Z" fill="black"/>
<path d="M90.8824 84.6018C95.1768 84.6018 97.317 87.892 97.317 91.3417L92.4643 92.2439C92.4643 90.7521 91.1164 89.4092 89.4988 89.4092C87.8812 89.4092 86.5332 90.8035 86.5332 92.421L85.248 90.6071C84.7422 89.4092 86.5754 84.6018 90.8824 84.6018Z" fill="black"/>
<path d="M90.8824 84.6018C95.1768 84.6018 97.3171 87.892 97.3171 91.3417L92.4644 91.7461C92.4644 90.2543 91.1164 89.0501 89.4988 89.0501C87.8813 89.0501 86.5333 90.1285 86.5333 91.7461L84.1069 89.1849C85.1853 86.7586 86.5754 84.6018 90.8824 84.6018Z" fill="black"/>
<circle cx="104.792" cy="98.682" r="3.16152" fill="black"/>
<rect x="144.766" y="84.8545" width="4.8527" height="16.9783" fill="black"/>
<path fill-rule="evenodd" clip-rule="evenodd" d="M139.839 102.102C144.899 102.102 148.532 97.7627 148.532 93.3407C148.532 89.1639 144.923 84.5789 139.839 84.5789C134.978 84.5789 131.286 88.5017 131.286 93.3407C131.286 98.1797 134.978 102.102 139.839 102.102ZM140.372 97.6738C142.864 97.6738 144.766 95.8167 144.766 93.3408C144.766 90.8648 142.864 89.0077 140.372 89.0077C137.879 89.0077 135.948 90.9477 135.948 93.3408C135.948 95.7338 137.879 97.6738 140.372 97.6738Z" fill="black"/>
<path fill-rule="evenodd" clip-rule="evenodd" d="M168.573 89.5862L164.129 91.6505C163.562 90.3737 162.367 89.3462 160.75 89.3462C158.452 89.3462 156.673 91.1346 156.673 93.3409C156.673 95.5471 158.452 97.3355 160.75 97.3355C162.404 97.3355 163.617 96.4098 164.167 95.0688L168.602 97.1598C167.239 100.085 164.316 102.102 160.672 102.102C155.765 102.102 151.91 98.1797 151.91 93.3407C151.91 88.5017 155.941 84.5789 160.672 84.5789C164.09 84.5789 167.142 86.6257 168.573 89.5862Z" fill="black"/>
<rect x="112.28" y="77.3228" width="4.8527" height="24.5038" fill="black"/>
<path d="M124.032 92.4934L128.885 91.2915V101.842H124.032L124.032 92.4934Z" fill="black"/>
<path d="M121.835 84.5552C126.54 84.5552 128.885 87.8453 128.885 91.295L124.032 92.7325C124.032 90.9229 122.989 89.3626 120.626 89.3626C118.225 89.3626 117.133 91.1149 117.133 92.7325L115.661 90.5605C114.852 88.8938 117.116 84.5552 121.835 84.5552Z" fill="black"/>
<rect x="171.726" y="77.3228" width="4.8527" height="24.5102" fill="black"/>
<path d="M181.739 85.1179H188.171L175.635 98.497L172.016 96.1516L181.739 85.1179Z" fill="black"/>
<path d="M182.34 101.857H188.314L179.409 90.5098L175.769 93.4365L182.34 101.857Z" fill="black"/>
<g style="mix-blend-mode:lighten">
<rect x="109.314" y="73.5459" width="83.3806" height="36.7858" fill="url(#paint0_linear)"/>
</g>
<defs>
<linearGradient id="paint0_linear" x1="111.572" y1="108.387" x2="192.695" y2="73.5459" gradientUnits="userSpaceOnUse">
<stop stop-color="#FF56DA"/>
<stop offset="1" stop-color="#FF3D3D"/>
</linearGradient>
</defs>
</svg>
