<svg width="220" height="177" viewBox="0 0 220 177" fill="none" xmlns="http://www.w3.org/2000/svg">
<path d="M0.0644531 9.94147C0.0644531 4.80852 4.22553 0.647461 9.35848 0.647461H210.342C215.475 0.647461 219.636 4.80854 219.636 9.94148V167.01C219.636 172.143 215.475 176.305 210.342 176.305H9.35848C4.22553 176.305 0.0644531 172.143 0.0644531 167.01V9.94147Z" fill="#FF2E53"/>
<rect x="45.0098" y="82.6772" width="4.84324" height="16.9452" fill="white"/>
<path fill-rule="evenodd" clip-rule="evenodd" d="M40.0931 99.8913C45.1427 99.8913 48.7687 95.56 48.7687 91.1466C48.7687 86.9779 45.1669 82.4019 40.0931 82.4019C35.2407 82.4019 31.5566 86.317 31.5566 91.1466C31.5566 95.9762 35.2407 99.8913 40.0931 99.8913ZM40.6244 95.4715C43.1123 95.4715 45.0099 93.618 45.0099 91.1469C45.0099 88.6758 43.1123 86.8223 40.6244 86.8223C38.1365 86.8223 36.2097 88.7585 36.2097 91.1469C36.2097 93.5353 38.1365 95.4715 40.6244 95.4715Z" fill="white"/>
<path fill-rule="evenodd" clip-rule="evenodd" d="M69.3084 87.4009L64.8738 89.461C64.308 88.1867 63.1151 87.1611 61.5019 87.1611C59.2082 87.1611 57.4319 88.9461 57.4319 91.148C57.4319 93.3499 59.2082 95.1349 61.5019 95.1349C63.152 95.1349 64.3625 94.211 64.9117 92.8726L69.3375 94.9594C67.9778 97.8796 65.0602 99.8931 61.423 99.8931C56.5259 99.8931 52.6782 95.9779 52.6782 91.1483C52.6782 86.3187 56.7008 82.4036 61.423 82.4036C64.8339 82.4036 67.8798 84.4463 69.3084 87.4009Z" fill="white"/>
<rect x="72.0513" y="82.6733" width="4.84324" height="16.9512" fill="white"/>
<path d="M82.814 89.2659L87.6572 88.8623V99.6251H82.814V89.2659Z" fill="white"/>
<path d="M93.5767 89.2659L98.4199 88.8623V99.6251H93.5767V89.2659Z" fill="white"/>
<path d="M81.2349 82.4033C85.5209 82.4033 87.657 85.6871 87.657 89.13L82.8137 90.0305C82.8137 88.5416 81.4684 87.2014 79.854 87.2014C78.2396 87.2014 76.8942 88.5929 76.8942 90.2073L75.6115 88.3969C75.1067 87.2014 76.9363 82.4033 81.2349 82.4033Z" fill="white"/>
<path d="M91.9981 82.4033C96.2841 82.4033 98.4202 85.6871 98.4202 89.13L93.5769 90.0305C93.5769 88.5416 92.2316 87.2014 90.6172 87.2014C89.0028 87.2014 87.6574 88.5929 87.6574 90.2073L86.3747 88.3969C85.8698 87.2014 87.6995 82.4033 91.9981 82.4033Z" fill="white"/>
<path d="M91.9977 82.4033C96.2837 82.4033 98.4197 85.6871 98.4197 89.13L93.5765 89.5337C93.5765 88.0448 92.2311 86.843 90.6167 86.843C89.0023 86.843 87.657 87.9192 87.657 89.5337L85.2354 86.9775C86.3116 84.5559 87.699 82.4033 91.9977 82.4033Z" fill="white"/>
<circle cx="105.88" cy="96.4564" r="3.15536" fill="white"/>
<rect x="145.777" y="82.6555" width="4.84324" height="16.9452" fill="white"/>
<path fill-rule="evenodd" clip-rule="evenodd" d="M140.86 99.8694C145.909 99.8694 149.535 95.538 149.535 91.1246C149.535 86.9559 145.933 82.3799 140.86 82.3799C136.007 82.3799 132.323 86.295 132.323 91.1246C132.323 95.9542 136.007 99.8694 140.86 99.8694ZM141.391 95.4497C143.879 95.4497 145.777 93.5963 145.777 91.1251C145.777 88.654 143.879 86.8006 141.391 86.8006C138.903 86.8006 136.976 88.7367 136.976 91.1251C136.976 93.5135 138.903 95.4497 141.391 95.4497Z" fill="white"/>
<path fill-rule="evenodd" clip-rule="evenodd" d="M169.538 87.3779L165.102 89.4383C164.537 88.164 163.344 87.1384 161.731 87.1384C159.437 87.1384 157.661 88.9234 157.661 91.1253C157.661 93.3272 159.437 95.1122 161.731 95.1122C163.381 95.1122 164.591 94.1883 165.14 92.8499L169.566 94.9367C168.206 97.8564 165.289 99.8694 161.652 99.8694C156.755 99.8694 152.907 95.9542 152.907 91.1246C152.907 86.295 156.93 82.3799 161.652 82.3799C165.063 82.3799 168.109 84.4229 169.538 87.3779Z" fill="white"/>
<rect x="113.354" y="75.1389" width="4.84324" height="24.4561" fill="white"/>
<path d="M125.083 90.2789L129.927 89.0793V99.6092H125.084L125.083 90.2789Z" fill="white"/>
<path d="M122.891 82.3562C127.587 82.3562 129.927 85.6399 129.927 89.0829L125.084 90.5175C125.084 88.7115 124.042 87.1542 121.684 87.1542C119.288 87.1542 118.198 88.9031 118.198 90.5175L116.729 88.3498C115.922 86.6863 118.181 82.3562 122.891 82.3562Z" fill="white"/>
<rect x="172.684" y="75.1384" width="4.84324" height="24.4624" fill="white"/>
<path d="M182.678 82.918H189.097L176.585 96.271L172.974 93.9302L182.678 82.918Z" fill="white"/>
<path d="M183.278 99.625H189.24L180.352 88.2997L176.72 91.2207L183.278 99.625Z" fill="white"/>
</svg>
