<svg width="222" height="178" viewBox="0 0 222 178" fill="none" xmlns="http://www.w3.org/2000/svg">
<path d="M0.722656 10.0819C0.722656 4.91186 4.91381 0.720703 10.0839 0.720703H212.52C217.69 0.720703 221.881 4.91186 221.881 10.0819V168.286C221.881 173.456 217.69 177.647 212.52 177.647H10.0839C4.91383 177.647 0.722656 173.456 0.722656 168.286V10.0819Z" fill="#D06CFF"/>
<rect x="42.3145" y="85.0596" width="4.87825" height="17.0677" fill="white"/>
<path fill-rule="evenodd" clip-rule="evenodd" d="M37.3618 102.398C42.448 102.398 46.1002 98.0352 46.1002 93.5899C46.1002 89.3911 42.4723 84.782 37.3618 84.782C32.4744 84.782 28.7637 88.7254 28.7637 93.5899C28.7637 98.4544 32.4744 102.398 37.3618 102.398ZM37.8974 97.9458C40.4033 97.9458 42.3146 96.079 42.3146 93.59C42.3146 91.101 40.4033 89.2342 37.8974 89.2342C35.3915 89.2342 33.4508 91.1843 33.4508 93.59C33.4508 95.9957 35.3915 97.9458 37.8974 97.9458Z" fill="white"/>
<path fill-rule="evenodd" clip-rule="evenodd" d="M66.7888 89.817L62.3219 91.8921C61.752 90.6086 60.5504 89.5756 58.9255 89.5756C56.6153 89.5756 54.8262 91.3735 54.8262 93.5913C54.8262 95.8092 56.6153 97.6071 58.9255 97.6071C60.5876 97.6071 61.8068 96.6764 62.3601 95.3284L66.8183 97.4306C65.4488 100.372 62.51 102.4 58.8465 102.4C53.9141 102.4 50.0386 98.4564 50.0386 93.5919C50.0386 88.7274 54.0902 84.7839 58.8465 84.7839C62.282 84.7839 65.3498 86.8413 66.7888 89.817Z" fill="white"/>
<rect x="69.5513" y="85.0559" width="4.87825" height="17.0738" fill="white"/>
<path d="M80.3921 91.6958L85.2703 91.2893V102.13H80.3921V91.6958Z" fill="white"/>
<path d="M91.2324 91.6958L96.1107 91.2893V102.13H91.2324V91.6958Z" fill="white"/>
<path d="M78.8015 84.7834C83.1185 84.7834 85.27 88.0909 85.27 91.5588L80.3918 92.4658C80.3918 90.9661 79.0367 89.6162 77.4106 89.6162C75.7846 89.6162 74.4295 91.0178 74.4295 92.6439L73.1375 90.8204C72.629 89.6162 74.4719 84.7834 78.8015 84.7834Z" fill="white"/>
<path d="M89.6419 84.7834C93.9589 84.7834 96.1104 88.0909 96.1104 91.5588L91.2321 92.4658C91.2321 90.9661 89.8771 89.6162 88.251 89.6162C86.6249 89.6162 85.2698 91.0178 85.2698 92.6439L83.9778 90.8204C83.4693 89.6162 85.3122 84.7834 89.6419 84.7834Z" fill="white"/>
<path d="M89.6422 84.7834C93.9592 84.7834 96.1107 88.0909 96.1107 91.5588L91.2325 91.9653C91.2325 90.4657 89.8774 89.2552 88.2513 89.2552C86.6253 89.2552 85.2702 90.3392 85.2702 91.9653L82.8311 89.3907C83.9151 86.9516 85.3126 84.7834 89.6422 84.7834Z" fill="white"/>
<circle cx="103.625" cy="98.9377" r="3.17817" fill="white"/>
<mask id="mask0" mask-type="alpha" maskUnits="userSpaceOnUse" x="111" y="77" width="77" height="26">
<rect x="143.809" y="85.0369" width="4.87825" height="17.0677" fill="white"/>
<path fill-rule="evenodd" clip-rule="evenodd" d="M138.856 102.376C143.943 102.376 147.595 98.013 147.595 93.5677C147.595 89.3689 143.967 84.7598 138.856 84.7598C133.969 84.7598 130.258 88.7032 130.258 93.5677C130.258 98.4322 133.969 102.376 138.856 102.376ZM139.392 97.9237C141.898 97.9237 143.809 96.0568 143.809 93.5678C143.809 91.0788 141.898 89.212 139.392 89.212C136.886 89.212 134.945 91.1622 134.945 93.5678C134.945 95.9735 136.886 97.9237 139.392 97.9237Z" fill="white"/>
<path fill-rule="evenodd" clip-rule="evenodd" d="M167.741 89.7935L163.274 91.8688C162.704 90.5852 161.503 89.5522 159.878 89.5522C157.568 89.5522 155.778 91.3501 155.778 93.568C155.778 95.7858 157.568 97.5837 159.878 97.5837C161.54 97.5837 162.759 96.6531 163.312 95.305L167.77 97.407C166.401 100.348 163.462 102.376 159.799 102.376C154.866 102.376 150.991 98.4322 150.991 93.5677C150.991 88.7032 155.042 84.7598 159.799 84.7598C163.234 84.7598 166.302 86.8174 167.741 89.7935Z" fill="white"/>
<rect x="111.152" y="77.4661" width="4.87825" height="24.6329" fill="white"/>
<path d="M122.966 92.716L127.844 91.5078V102.114H122.966L122.966 92.716Z" fill="white"/>
<path d="M120.757 84.7358C125.487 84.7358 127.844 88.0433 127.844 91.5112L122.966 92.9562C122.966 91.1371 121.917 89.5686 119.542 89.5686C117.128 89.5686 116.03 91.3301 116.03 92.9562L114.551 90.7728C113.738 89.0973 116.013 84.7358 120.757 84.7358Z" fill="white"/>
<rect x="170.91" y="77.4656" width="4.87825" height="24.6392" fill="white"/>
<path d="M180.976 85.3018H187.441L174.84 98.7513L171.202 96.3936L180.976 85.3018Z" fill="white"/>
<path d="M181.581 102.129H187.586L178.634 90.722L174.976 93.6641L181.581 102.129Z" fill="white"/>
</mask>
<g mask="url(#mask0)">
<g style="mix-blend-mode:darken">
<rect x="109.081" y="73.4751" width="83.8196" height="36.9795" fill="url(#paint0_linear)"/>
</g>
</g>
<defs>
<linearGradient id="paint0_linear" x1="111.351" y1="108.5" x2="192.901" y2="73.4751" gradientUnits="userSpaceOnUse">
<stop stop-color="#BD00FF"/>
<stop offset="1" stop-color="#FF5F96"/>
</linearGradient>
</defs>
</svg>
