<svg width="221" height="177" viewBox="0 0 221 177" fill="none" xmlns="http://www.w3.org/2000/svg">
<path d="M0.0644531 9.95963C0.0644531 4.81666 4.23365 0.647461 9.37662 0.647461H210.752C215.895 0.647461 220.064 4.81666 220.064 9.95963V167.335C220.064 172.478 215.895 176.647 210.752 176.647H9.37661C4.23364 176.647 0.0644531 172.478 0.0644531 167.335V9.95963Z" fill="#FFEEEE"/>
<rect x="43.8672" y="85.5239" width="4.8527" height="16.9783" fill="black"/>
<path fill-rule="evenodd" clip-rule="evenodd" d="M38.9408 102.772C44.0003 102.772 47.6334 98.4319 47.6334 94.0099C47.6334 89.833 44.0245 85.248 38.9408 85.248C34.079 85.248 30.3877 89.1709 30.3877 94.0099C30.3877 98.8489 34.079 102.772 38.9408 102.772ZM39.4731 98.3428C41.9659 98.3428 43.8671 96.4857 43.8671 94.0098C43.8671 91.5339 41.9659 89.6768 39.4731 89.6768C36.9803 89.6768 35.0498 91.6167 35.0498 94.0098C35.0498 96.4029 36.9803 98.3428 39.4731 98.3428Z" fill="black"/>
<path fill-rule="evenodd" clip-rule="evenodd" d="M68.2132 90.2564L63.7701 92.3205C63.2031 91.0436 62.0079 90.0161 60.3915 90.0161C58.0934 90.0161 56.3136 91.8046 56.3136 94.0108C56.3136 96.217 58.0934 98.0055 60.3915 98.0055C62.0449 98.0055 63.2577 97.0797 63.8081 95.7387L68.2427 97.8298C66.8805 100.756 63.957 102.773 60.3126 102.773C55.406 102.773 51.5508 98.8506 51.5508 94.0116C51.5508 89.1726 55.5812 85.2498 60.3126 85.2498C63.73 85.2498 66.7818 87.2963 68.2132 90.2564Z" fill="black"/>
<rect x="70.9619" y="85.5203" width="4.8527" height="16.9843" fill="black"/>
<path d="M81.7461 92.1253L86.5988 91.7209V102.505H81.7461V92.1253Z" fill="black"/>
<path d="M92.5293 92.1253L97.382 91.7209V102.505H92.5293V92.1253Z" fill="black"/>
<path d="M80.1635 85.2493C84.4579 85.2493 86.5982 88.5394 86.5982 91.9891L81.7454 92.8913C81.7454 91.3996 80.3975 90.0567 78.7799 90.0567C77.1623 90.0567 75.8144 91.4509 75.8144 93.0685L74.5291 91.2546C74.0233 90.0567 75.8565 85.2493 80.1635 85.2493Z" fill="black"/>
<path d="M90.9477 85.2493C95.2421 85.2493 97.3823 88.5394 97.3823 91.9891L92.5296 92.8913C92.5296 91.3996 91.1817 90.0567 89.5641 90.0567C87.9465 90.0567 86.5985 91.4509 86.5985 93.0685L85.3133 91.2546C84.8075 90.0567 86.6407 85.2493 90.9477 85.2493Z" fill="black"/>
<path d="M90.9474 85.2493C95.2418 85.2493 97.382 88.5394 97.382 91.9891L92.5293 92.3935C92.5293 90.9018 91.1813 89.6976 89.5638 89.6976C87.9462 89.6976 86.5982 90.776 86.5982 92.3935L84.1719 89.8324C85.2503 87.406 86.6404 85.2493 90.9474 85.2493Z" fill="black"/>
<circle cx="104.857" cy="99.3295" r="3.16152" fill="black"/>
<rect x="144.83" y="85.502" width="4.8527" height="16.9783" fill="black"/>
<path fill-rule="evenodd" clip-rule="evenodd" d="M139.904 102.75C144.963 102.75 148.596 98.4101 148.596 93.9881C148.596 89.8113 144.987 85.2263 139.904 85.2263C135.042 85.2263 131.351 89.1491 131.351 93.9881C131.351 98.8272 135.042 102.75 139.904 102.75ZM140.436 98.3212C142.929 98.3212 144.83 96.4642 144.83 93.9882C144.83 91.5123 142.929 89.6552 140.436 89.6552C137.943 89.6552 136.013 91.5952 136.013 93.9882C136.013 96.3813 137.943 98.3212 140.436 98.3212Z" fill="black"/>
<path fill-rule="evenodd" clip-rule="evenodd" d="M168.636 90.2336L164.193 92.298C163.626 91.0212 162.43 89.9936 160.814 89.9936C158.516 89.9936 156.736 91.7821 156.736 93.9883C156.736 96.1945 158.516 97.983 160.814 97.983C162.467 97.983 163.68 97.0573 164.231 95.7162L168.665 97.8073C167.303 100.733 164.38 102.75 160.735 102.75C155.829 102.75 151.974 98.8272 151.974 93.9881C151.974 89.1491 156.004 85.2263 160.735 85.2263C164.153 85.2263 167.205 87.2732 168.636 90.2336Z" fill="black"/>
<rect x="112.344" y="77.9702" width="4.8527" height="24.5038" fill="black"/>
<path d="M124.097 93.1409L128.949 91.939V102.489H124.097L124.097 93.1409Z" fill="black"/>
<path d="M121.899 85.2026C126.604 85.2026 128.949 88.4928 128.949 91.9425L124.096 93.3799C124.096 91.5703 123.053 90.01 120.69 90.01C118.289 90.01 117.197 91.7623 117.197 93.3799L115.726 91.208C114.916 89.5412 117.18 85.2026 121.899 85.2026Z" fill="black"/>
<rect x="171.789" y="77.9702" width="4.8527" height="24.5102" fill="black"/>
<path d="M181.803 85.7654H188.234L175.698 99.1445L172.08 96.7991L181.803 85.7654Z" fill="black"/>
<path d="M182.404 102.505H188.378L179.473 91.1572L175.833 94.0839L182.404 102.505Z" fill="black"/>
<g style="mix-blend-mode:lighten">
<rect x="109.379" y="74.1934" width="83.3806" height="36.7858" fill="url(#paint0_linear)"/>
</g>
<defs>
<linearGradient id="paint0_linear" x1="111.637" y1="109.035" x2="192.759" y2="74.1934" gradientUnits="userSpaceOnUse">
<stop stop-color="#BD00FF"/>
<stop offset="1" stop-color="#FF5F96"/>
</linearGradient>
</defs>
</svg>
