<svg width="1440" height="477" viewBox="0 0 1440 477" fill="none" xmlns="http://www.w3.org/2000/svg">
<rect width="1440" height="477" fill="#F3F3F3"/>
<line y1="179.5" x2="1439" y2="179.5" stroke="#BBBBBB"/>
<line y1="175.5" x2="1439" y2="175.5" stroke="#BBBBBB"/>
<line y1="270.5" x2="1439" y2="270.5" stroke="#BBBBBB"/>
<line y1="271.5" x2="1439" y2="271.5" stroke="#BBBBBB"/>
<line y1="301.5" x2="1439" y2="301.5" stroke="#BBBBBB"/>
<line y1="296.5" x2="1439" y2="296.5" stroke="#BBBBBB"/>
<line x1="1" y1="207.5" x2="1440" y2="207.5" stroke="#BBBBBB"/>
<rect x="269.075" y="207.956" width="18" height="58.0254" fill="black"/>
<path fill-rule="evenodd" clip-rule="evenodd" d="M224.075 285.141C229.575 293.141 239.443 299.141 252.459 299.141C271.844 299.141 287.075 285.099 287.075 265.981L269.075 265.981C268.972 274.726 261.461 282.387 252.523 282.387C248.065 282.387 241.348 278.893 238.348 275.393L224.075 285.141Z" fill="black"/>
<path d="M282.984 239.494C282.984 255.897 269.508 271.994 250.74 271.994C232.707 271.994 219.015 257.443 219.015 239.494C219.015 221.545 232.707 206.994 250.74 206.994C269.597 206.994 282.984 224.001 282.984 239.494Z" fill="black"/>
<path d="M269.015 239.494C269.015 248.678 261.962 255.567 252.716 255.567C243.469 255.567 236.309 248.371 236.309 239.494C236.309 230.618 243.469 223.422 252.716 223.422C261.962 223.422 269.015 230.31 269.015 239.494Z" fill="#F3F3F3"/>
<rect x="364.566" y="271.001" width="18.2125" height="62" transform="rotate(-180 364.566 271.001)" fill="black"/>
<path d="M320.213 240.119L302 243.672V209.006H320.213V240.119Z" fill="black"/>
<path d="M330.063 271.976C312.757 271.976 302 259.268 302 243.689L320.209 239.51C320.209 249.755 325.018 254.334 333.261 254.334C341.057 254.334 346.361 249.948 346.361 241.45L352.168 247.326C352.168 252.147 347.967 271.976 330.063 271.976Z" fill="black"/>
<rect x="385" y="208" width="18" height="63" fill="black"/>
<rect x="612" y="208" width="18" height="63" fill="black"/>
<circle cx="394" cy="188" r="11" fill="black"/>
<circle cx="621" cy="188" r="11" fill="black"/>
<rect x="468.964" y="179" width="18" height="92" fill="black"/>
<path d="M482.969 239.494C482.969 255.897 469.493 271.994 450.726 271.994C432.692 271.994 419 257.443 419 239.494C419 221.545 432.692 206.994 450.726 206.994C469.583 206.994 482.969 224.001 482.969 239.494Z" fill="black"/>
<path d="M469 239.494C469 248.678 461.948 255.567 452.701 255.567C443.455 255.567 436.294 248.371 436.294 239.494C436.294 230.618 443.455 223.422 452.701 223.422C461.948 223.422 469 230.31 469 239.494Z" fill="#F3F3F3"/>
<path d="M532.5 272C551.35 272 565.079 258.587 564.085 247.658L531.85 249.9L513.65 238.2L500 239.5C500 257.449 514.3 272 532.5 272Z" fill="black"/>
<path d="M755.5 272C774.35 272 788.079 258.587 787.085 247.658L754.85 249.9L736.65 238.2L723 239.5C723 257.449 737.3 272 755.5 272Z" fill="black"/>
<path d="M532.5 207C514.95 207 500 221.551 500 239.5L563.589 246.167C567.444 221.653 550.05 207 532.5 207Z" fill="black"/>
<path d="M755.5 207C737.95 207 723 221.551 723 239.5L786.589 246.167C790.444 221.653 773.05 207 755.5 207Z" fill="black"/>
<path d="M548.266 239.5C548.266 248.938 542.188 256.588 532.535 256.588C522.881 256.588 515.404 248.938 515.404 239.5C515.404 230.062 522.881 222.412 532.535 222.412C542.188 222.412 548.266 231.298 548.266 239.5Z" fill="#F3F3F3"/>
<path d="M771.266 239.5C771.266 248.938 765.188 256.588 755.535 256.588C745.881 256.588 738.404 248.938 738.404 239.5C738.404 230.062 745.881 222.412 755.535 222.412C765.188 222.412 771.266 231.298 771.266 239.5Z" fill="#F3F3F3"/>
<path d="M550.895 240.157C550.895 249.4 542.062 256.588 532.151 256.588C522.713 256.588 515.404 249.096 515.404 239.853C515.404 230.611 523.739 239.156 533.176 239.156C543.087 239.156 550.895 232.125 550.895 240.157Z" fill="#F3F3F3"/>
<path d="M773.895 240.157C773.895 249.4 765.062 256.588 755.151 256.588C745.713 256.588 738.404 249.096 738.404 239.853C738.404 230.611 746.739 239.156 756.176 239.156C766.087 239.156 773.895 232.125 773.895 240.157Z" fill="#F3F3F3"/>
<path d="M563.588 246.167L535.1 237.712V245.35L569.55 261.6L568.9 245.35L563.588 246.167Z" fill="#F3F3F3"/>
<path d="M786.588 246.167L758.1 237.712V245.35L792.55 261.6L791.9 245.35L786.588 246.167Z" fill="#F3F3F3"/>
<path d="M508.563 231.896H548.685L563.588 246.167H562.098H508.563L508.563 231.896Z" fill="black"/>
<path d="M731.563 231.896H771.685L786.588 246.167H785.098H731.563L731.563 231.896Z" fill="black"/>
<rect x="574" y="175" width="18" height="96" fill="black"/>
<rect x="647" y="208.063" width="18" height="63.0004" fill="black"/>
<path d="M690.593 236.443L708.593 231.984V271.119H690.593L690.593 236.443Z" fill="black"/>
<path d="M682.442 206.999C699.894 206.999 708.593 219.203 708.593 231.999L690.593 237.33C690.593 230.618 686.722 224.831 677.959 224.831C669.052 224.831 665.001 231.33 665.001 237.33L659.544 229.274C656.542 223.092 664.938 206.999 682.442 206.999Z" fill="black"/>
<path fill-rule="evenodd" clip-rule="evenodd" d="M821.178 207.31C837.119 205.412 846.444 214.366 849.229 221.174L833.494 227.611C833.497 227.618 833.499 227.622 833.499 227.622C833.497 227.623 833.365 227.345 832.999 226.92C832.618 226.477 832.058 225.962 831.292 225.495C829.864 224.625 827.349 223.695 823.187 224.19C819.053 224.683 817.312 226.008 816.681 226.665C816.905 226.863 817.257 227.123 817.799 227.413C821.82 229.567 824.754 230.364 828.127 231.28C828.429 231.363 828.735 231.446 829.046 231.531C833.116 232.647 837.695 234.061 843.064 238.112C846.894 241.002 849.211 245.022 849.691 249.512C850.149 253.795 848.872 257.784 846.938 260.953C843.152 267.156 835.771 272.012 827.186 272.012L827.094 272.012C825.086 272.012 819.72 272.013 814.038 270.418C808.274 268.799 800.894 265.154 797 256.927L812.366 249.654C813.31 251.648 815.297 253.114 818.633 254.051C821.962 254.985 825.35 255.012 827.186 255.012C829.377 255.012 831.476 253.655 832.427 252.098C832.555 251.887 832.637 251.714 832.69 251.581C829.923 249.522 827.784 248.812 824.551 247.926C824.248 247.843 823.935 247.758 823.613 247.671C820.131 246.731 815.547 245.492 809.771 242.398C805.897 240.322 802.65 237.287 800.85 233.304C799.008 229.227 798.977 224.774 800.578 220.753C803.698 212.914 811.975 208.405 821.178 207.31Z" fill="black"/>
<path d="M818.819 233.753L821.986 220.075L810.987 225.017L818.819 233.753Z" fill="black"/>
<path d="M825.136 222.384C829.81 222.384 833.431 225.963 834.216 227.637L828.917 231.496C825.799 230.635 822.867 230.079 820.218 229.101C818.4 228.429 817.615 227.064 818.125 225.586C818.506 224.48 819.605 222.384 825.136 222.384Z" fill="#F3F3F3"/>
<path d="M822.543 262.583L822.056 241.954L846.646 252.82L822.543 262.583Z" fill="black"/>
<path d="M831.044 250.895C829.213 249.088 825.225 248.184 821.659 247.133L810.949 247.042L812.233 249.71C812.233 249.71 813.035 251.867 816.204 254.216C819.373 256.564 823.199 256.918 827.189 256.059C831.665 255.096 832.37 252.204 831.044 250.895Z" fill="#F3F3F3"/>
<path d="M813.131 269.087C804.204 264.739 801.03 259.131 800.145 256.861L829.906 271.857C824.212 271.857 817.385 271.159 813.131 269.087Z" fill="black"/>
<line x1="218.026" y1="0.172852" x2="218.026" y2="480.885" stroke="#BBBBBB" stroke-width="2"/>
</svg>
