<svg width="1002" height="688" viewBox="0 0 1002 688" fill="none" xmlns="http://www.w3.org/2000/svg">
<rect y="67" width="1002" height="74" rx="15" fill="#F7F7F7"/>
<rect y="227" width="1002" height="74" rx="15" fill="#F7F7F7"/>
<rect y="384" width="1002" height="78" rx="15" fill="#F7F7F7"/>
<rect y="545" width="1002" height="75" rx="15" fill="#F7F7F7"/>
<path d="M92.048 9.248L87.368 26H83.408L80.264 14.072L76.976 26L73.04 26.024L68.528 9.248H72.128L75.08 22.256L78.488 9.248H82.232L85.448 22.184L88.424 9.248H92.048ZM103.698 26.168C102.13 26.168 100.69 25.8 99.3779 25.064C98.0659 24.328 97.0259 23.312 96.2579 22.016C95.4899 20.704 95.1059 19.224 95.1059 17.576C95.1059 15.944 95.4899 14.48 96.2579 13.184C97.0259 11.872 98.0659 10.848 99.3779 10.112C100.69 9.376 102.13 9.008 103.698 9.008C105.282 9.008 106.722 9.376 108.018 10.112C109.33 10.848 110.362 11.872 111.114 13.184C111.882 14.48 112.266 15.944 112.266 17.576C112.266 19.224 111.882 20.704 111.114 22.016C110.362 23.312 109.33 24.328 108.018 25.064C106.706 25.8 105.266 26.168 103.698 26.168ZM103.698 23.168C104.706 23.168 105.594 22.944 106.362 22.496C107.13 22.032 107.73 21.376 108.162 20.528C108.594 19.68 108.81 18.696 108.81 17.576C108.81 16.456 108.594 15.48 108.162 14.648C107.73 13.8 107.13 13.152 106.362 12.704C105.594 12.256 104.706 12.032 103.698 12.032C102.69 12.032 101.794 12.256 101.01 12.704C100.242 13.152 99.6419 13.8 99.2099 14.648C98.7779 15.48 98.5619 16.456 98.5619 17.576C98.5619 18.696 98.7779 19.68 99.2099 20.528C99.6419 21.376 100.242 22.032 101.01 22.496C101.794 22.944 102.69 23.168 103.698 23.168ZM125.086 26L121.39 19.472H119.806V26H116.446V9.248H122.734C124.03 9.248 125.134 9.48 126.046 9.944C126.958 10.392 127.638 11.008 128.086 11.792C128.55 12.56 128.782 13.424 128.782 14.384C128.782 15.488 128.462 16.488 127.822 17.384C127.182 18.264 126.23 18.872 124.966 19.208L128.974 26H125.086ZM119.806 16.952H122.614C123.526 16.952 124.206 16.736 124.654 16.304C125.102 15.856 125.326 15.24 125.326 14.456C125.326 13.688 125.102 13.096 124.654 12.68C124.206 12.248 123.526 12.032 122.614 12.032H119.806V16.952ZM139.357 9.248C141.117 9.248 142.661 9.592 143.989 10.28C145.333 10.968 146.365 11.952 147.085 13.232C147.821 14.496 148.189 15.968 148.189 17.648C148.189 19.328 147.821 20.8 147.085 22.064C146.365 23.312 145.333 24.28 143.989 24.968C142.661 25.656 141.117 26 139.357 26H133.501V9.248H139.357ZM139.237 23.144C140.997 23.144 142.357 22.664 143.317 21.704C144.277 20.744 144.757 19.392 144.757 17.648C144.757 15.904 144.277 14.544 143.317 13.568C142.357 12.576 140.997 12.08 139.237 12.08H136.861V23.144H139.237ZM170.648 9.248V26H167.288V15.104L162.8 26H160.256L155.744 15.104V26H152.384V9.248H156.2L161.528 21.704L166.856 9.248H170.648ZM185.922 22.808H179.25L178.146 26H174.618L180.642 9.224H184.554L190.578 26H187.026L185.922 22.808ZM185.01 20.12L182.586 13.112L180.162 20.12H185.01ZM203.149 26L199.453 19.472H197.869V26H194.509V9.248H200.797C202.093 9.248 203.197 9.48 204.109 9.944C205.021 10.392 205.701 11.008 206.149 11.792C206.613 12.56 206.845 13.424 206.845 14.384C206.845 15.488 206.525 16.488 205.885 17.384C205.245 18.264 204.293 18.872 203.029 19.208L207.037 26H203.149ZM197.869 16.952H200.677C201.589 16.952 202.269 16.736 202.717 16.304C203.165 15.856 203.389 15.24 203.389 14.456C203.389 13.688 203.165 13.096 202.717 12.68C202.269 12.248 201.589 12.032 200.677 12.032H197.869V16.952ZM221.02 26L214.924 18.536V26H211.564V9.248H214.924V16.76L221.02 9.248H225.076L218.164 17.552L225.268 26H221.02ZM234.943 26.168C233.775 26.168 232.719 25.968 231.775 25.568C230.847 25.168 230.111 24.592 229.567 23.84C229.023 23.088 228.743 22.2 228.727 21.176H232.327C232.375 21.864 232.615 22.408 233.047 22.808C233.495 23.208 234.103 23.408 234.871 23.408C235.655 23.408 236.271 23.224 236.719 22.856C237.167 22.472 237.391 21.976 237.391 21.368C237.391 20.872 237.239 20.464 236.935 20.144C236.631 19.824 236.247 19.576 235.783 19.4C235.335 19.208 234.711 19 233.911 18.776C232.823 18.456 231.935 18.144 231.247 17.84C230.575 17.52 229.991 17.048 229.495 16.424C229.015 15.784 228.775 14.936 228.775 13.88C228.775 12.888 229.023 12.024 229.519 11.288C230.015 10.552 230.711 9.992 231.607 9.608C232.503 9.208 233.527 9.008 234.679 9.008C236.407 9.008 237.807 9.432 238.879 10.28C239.967 11.112 240.567 12.28 240.679 13.784H236.983C236.951 13.208 236.703 12.736 236.239 12.368C235.791 11.984 235.191 11.792 234.439 11.792C233.783 11.792 233.255 11.96 232.855 12.296C232.471 12.632 232.279 13.12 232.279 13.76C232.279 14.208 232.423 14.584 232.711 14.888C233.015 15.176 233.383 15.416 233.815 15.608C234.263 15.784 234.887 15.992 235.687 16.232C236.775 16.552 237.663 16.872 238.351 17.192C239.039 17.512 239.631 17.992 240.127 18.632C240.623 19.272 240.871 20.112 240.871 21.152C240.871 22.048 240.639 22.88 240.175 23.648C239.711 24.416 239.031 25.032 238.135 25.496C237.239 25.944 236.175 26.168 234.943 26.168Z" fill="#767676"/>
<path d="M815.016 9.248V26H811.656V9.248H815.016ZM834.344 26H830.984L823.376 14.504V26H820.016V9.224H823.376L830.984 20.744V9.224H834.344V26ZM845.927 17.6C845.927 15.952 846.295 14.48 847.031 13.184C847.783 11.872 848.799 10.856 850.079 10.136C851.375 9.4 852.823 9.032 854.423 9.032C856.295 9.032 857.935 9.512 859.343 10.472C860.751 11.432 861.735 12.76 862.295 14.456H858.431C858.047 13.656 857.503 13.056 856.799 12.656C856.111 12.256 855.311 12.056 854.399 12.056C853.423 12.056 852.551 12.288 851.783 12.752C851.031 13.2 850.439 13.84 850.007 14.672C849.591 15.504 849.383 16.48 849.383 17.6C849.383 18.704 849.591 19.68 850.007 20.528C850.439 21.36 851.031 22.008 851.783 22.472C852.551 22.92 853.423 23.144 854.399 23.144C855.311 23.144 856.111 22.944 856.799 22.544C857.503 22.128 858.047 21.52 858.431 20.72H862.295C861.735 22.432 860.751 23.768 859.343 24.728C857.951 25.672 856.311 26.144 854.423 26.144C852.823 26.144 851.375 25.784 850.079 25.064C848.799 24.328 847.783 23.312 847.031 22.016C846.295 20.72 845.927 19.248 845.927 17.6ZM874.621 26.168C873.053 26.168 871.613 25.8 870.301 25.064C868.989 24.328 867.949 23.312 867.181 22.016C866.413 20.704 866.029 19.224 866.029 17.576C866.029 15.944 866.413 14.48 867.181 13.184C867.949 11.872 868.989 10.848 870.301 10.112C871.613 9.376 873.053 9.008 874.621 9.008C876.205 9.008 877.645 9.376 878.941 10.112C880.253 10.848 881.285 11.872 882.037 13.184C882.805 14.48 883.189 15.944 883.189 17.576C883.189 19.224 882.805 20.704 882.037 22.016C881.285 23.312 880.253 24.328 878.941 25.064C877.629 25.8 876.189 26.168 874.621 26.168ZM874.621 23.168C875.629 23.168 876.517 22.944 877.285 22.496C878.053 22.032 878.653 21.376 879.085 20.528C879.517 19.68 879.733 18.696 879.733 17.576C879.733 16.456 879.517 15.48 879.085 14.648C878.653 13.8 878.053 13.152 877.285 12.704C876.517 12.256 875.629 12.032 874.621 12.032C873.613 12.032 872.717 12.256 871.933 12.704C871.165 13.152 870.565 13.8 870.133 14.648C869.701 15.48 869.485 16.456 869.485 17.576C869.485 18.696 869.701 19.68 870.133 20.528C870.565 21.376 871.165 22.032 871.933 22.496C872.717 22.944 873.613 23.168 874.621 23.168ZM899.585 14.432C899.585 15.328 899.369 16.168 898.937 16.952C898.521 17.736 897.857 18.368 896.945 18.848C896.049 19.328 894.913 19.568 893.537 19.568H890.729V26H887.369V9.248H893.537C894.833 9.248 895.937 9.472 896.849 9.92C897.761 10.368 898.441 10.984 898.889 11.768C899.353 12.552 899.585 13.44 899.585 14.432ZM893.393 16.856C894.321 16.856 895.009 16.648 895.457 16.232C895.905 15.8 896.129 15.2 896.129 14.432C896.129 12.8 895.217 11.984 893.393 11.984H890.729V16.856H893.393ZM916.97 9.248L911.306 20.168V26H907.946V20.168L902.258 9.248H906.05L909.65 16.904L913.226 9.248H916.97Z" fill="#767676"/>
<path d="M41.5317 81.5282C46.2086 76.8513 53.7914 76.8513 58.4684 81.5282L71.4718 94.5316C76.1487 99.2086 76.1487 106.791 71.4718 111.468L58.4683 124.472C53.7914 129.149 46.2086 129.149 41.5317 124.472L28.5282 111.468C23.8513 106.791 23.8513 99.2086 28.5282 94.5316L41.5317 81.5282Z" fill="#ED3266"/>
<path fill-rule="evenodd" clip-rule="evenodd" d="M59.692 99.1338C60.329 99.1338 60.8641 99.6096 60.9248 100.244C61.0356 101.402 61.1859 103.276 61.1858 104.915C61.1858 106.619 61.0286 108.219 60.9172 109.138C60.8577 109.629 60.5019 110.026 60.0247 110.156L54.918 111.549C54.3276 111.71 53.7061 111.423 53.3904 110.899C52.7181 109.783 51.4454 108.057 50 108.057V108.057C48.5547 108.057 47.282 109.783 46.6096 110.899C46.294 111.423 45.6725 111.71 45.0821 111.549L39.9753 110.156C39.4982 110.026 39.1423 109.629 39.0829 109.138C38.9715 108.219 38.8143 106.619 38.8143 104.915C38.8142 103.276 38.9644 101.402 39.0753 100.244C39.1359 99.6096 39.6711 99.1338 40.308 99.1338H50V99.1338H59.692Z" fill="white"/>
<path fill-rule="evenodd" clip-rule="evenodd" d="M38.1096 101.789C38.1483 101.354 37.6712 101.096 37.3865 101.428C36.6386 102.299 36.1866 103.432 36.1866 104.671C36.1866 105.857 36.6011 106.946 37.2931 107.801C37.5725 108.147 38.0611 107.889 38.0259 107.446C37.9709 106.754 37.9347 106.004 37.9347 105.226C37.9346 104.118 38.0105 102.903 38.1096 101.789Z" fill="white"/>
<path fill-rule="evenodd" clip-rule="evenodd" d="M61.8904 101.789C61.8517 101.354 62.3288 101.096 62.6135 101.428C63.3614 102.299 63.8134 103.432 63.8134 104.671C63.8134 105.857 63.3989 106.946 62.7069 107.801C62.4275 108.147 61.9389 107.889 61.9741 107.446C62.0291 106.754 62.0653 106.004 62.0653 105.226C62.0654 104.118 61.9895 102.903 61.8904 101.789Z" fill="white"/>
<path d="M47.989 93.101C47.989 92.6845 48.3266 92.3469 48.7431 92.3469H51.2567C51.6732 92.3469 52.0108 92.6845 52.0108 93.101V98.3797H47.989V93.101Z" fill="white"/>
<path d="M58.295 102.653C58.295 103.347 57.7323 103.91 57.0381 103.91C56.344 103.91 55.7813 103.347 55.7813 102.653C55.7813 101.959 56.344 101.396 57.0381 101.396C57.7323 101.396 58.295 101.959 58.295 102.653Z" fill="#ED3266"/>
<path d="M55.7813 106.423C55.7813 107.118 55.2186 107.68 54.5245 107.68C53.8304 107.68 53.2677 107.118 53.2677 106.423C53.2677 105.729 53.8304 105.167 54.5245 105.167C55.2186 105.167 55.7813 105.729 55.7813 106.423Z" fill="#ED3266"/>
<path d="M43.1138 102.227C43.1138 101.896 43.3819 101.628 43.7126 101.628H44.3114C44.6421 101.628 44.9102 101.896 44.9102 102.227V106.718C44.9102 107.049 44.6421 107.317 44.3114 107.317H43.7126C43.3819 107.317 43.1138 107.049 43.1138 106.718V102.227Z" fill="#ED3266"/>
<path d="M46.2575 103.574C46.5882 103.574 46.8563 103.843 46.8563 104.173L46.8563 104.772C46.8563 105.103 46.5882 105.371 46.2575 105.371L41.7665 105.371C41.4358 105.371 41.1677 105.103 41.1677 104.772L41.1677 104.173C41.1677 103.843 41.4358 103.574 41.7665 103.574L46.2575 103.574Z" fill="#ED3266"/>
<path d="M100.898 94.0205H106.287V112.876H100.898V94.0205Z" fill="black"/>
<path fill-rule="evenodd" clip-rule="evenodd" d="M95.4269 113.175C101.046 113.175 105.081 108.356 105.081 103.445C105.081 98.8062 101.073 93.7142 95.4269 93.7142C90.0276 93.7142 85.9282 98.0707 85.9282 103.445C85.9282 108.819 90.0276 113.175 95.4269 113.175ZM96.0184 108.257C98.7867 108.257 100.898 106.194 100.898 103.445C100.898 100.695 98.7867 98.6326 96.0184 98.6326C93.25 98.6326 91.106 100.787 91.106 103.445C91.106 106.102 93.25 108.257 96.0184 108.257Z" fill="black"/>
<path fill-rule="evenodd" clip-rule="evenodd" d="M127.936 99.277L123.001 101.57C122.372 100.151 121.044 99.0101 119.249 99.0101C116.697 99.0101 114.72 100.996 114.72 103.446C114.72 105.897 116.697 107.883 119.249 107.883C121.085 107.883 122.432 106.855 123.043 105.366L127.968 107.688C126.455 110.937 123.209 113.177 119.162 113.177C113.713 113.177 109.431 108.821 109.431 103.446C109.431 98.0725 113.907 93.7159 119.162 93.7159C122.957 93.7159 126.347 95.9891 127.936 99.277Z" fill="black"/>
<path d="M130.988 94.0167H136.377V112.879H130.988V94.0167Z" fill="black"/>
<path d="M142.964 101.352L148.353 100.903V112.879H142.964V101.352Z" fill="black"/>
<path d="M154.94 101.352L160.329 100.903V112.879H154.94V101.352Z" fill="black"/>
<path d="M141.207 93.7159C145.976 93.7159 148.353 97.3699 148.353 101.201L142.964 102.203C142.964 100.546 141.467 99.0549 139.671 99.0549C137.874 99.0549 136.377 100.603 136.377 102.4L134.95 100.385C134.388 99.0549 136.424 93.7159 141.207 93.7159Z" fill="black"/>
<path d="M153.183 93.7159C157.952 93.7159 160.329 97.3699 160.329 101.201L154.94 102.203C154.94 100.546 153.443 99.0549 151.647 99.0549C149.85 99.0549 148.353 100.603 148.353 102.4L146.926 100.385C146.364 99.0549 148.4 93.7159 153.183 93.7159Z" fill="black"/>
<path d="M153.183 93.7159C157.952 93.7159 160.329 97.3699 160.329 101.201L154.94 101.65C154.94 99.9934 153.443 98.6561 151.647 98.6561C149.85 98.6561 148.353 99.8537 148.353 101.65L145.659 98.8058C146.856 96.1112 148.4 93.7159 153.183 93.7159Z" fill="black"/>
<path d="M172.142 109.353C172.142 111.292 170.57 112.864 168.631 112.864C166.692 112.864 165.12 111.292 165.12 109.353C165.12 107.414 166.692 105.842 168.631 105.842C170.57 105.842 172.142 107.414 172.142 109.353Z" fill="black"/>
<mask id="mask0" mask-type="alpha" maskUnits="userSpaceOnUse" x="176" y="84" width="111" height="30">
<path fill-rule="evenodd" clip-rule="evenodd" d="M183.886 93.8103C188.658 93.2421 191.45 95.923 192.284 97.9613L187.748 99.817C187.445 99.2906 186.4 98.3235 185.071 98.3235C183.415 98.3235 183.086 98.9511 182.972 99.2823C182.819 99.7246 183.054 100.133 183.598 100.335C184.118 100.526 184.673 100.664 185.256 100.808C185.564 100.884 185.88 100.963 186.203 101.052L186.203 101.052L186.241 101.062C187.46 101.396 188.831 101.82 190.438 103.033C191.585 103.898 192.279 105.102 192.422 106.446C192.56 107.728 192.177 108.922 191.598 109.871C190.465 111.728 188.255 113.182 185.684 113.182L185.657 113.182C185.056 113.182 183.449 113.183 181.748 112.705C180.022 112.22 177.813 111.129 176.647 108.666L181.209 106.507C181.223 106.543 181.476 107.171 182.397 107.854C183.346 108.557 184.491 108.663 185.686 108.406C187.026 108.118 187.237 107.252 186.84 106.86C186.374 106.4 185.442 106.136 184.518 105.873C184.407 105.842 184.296 105.811 184.186 105.779L184.186 105.778C184.155 105.769 184.123 105.76 184.09 105.751C184.07 105.745 184.05 105.739 184.03 105.733L184.028 105.733C183.073 105.464 181.892 105.078 180.47 104.316C179.31 103.694 178.338 102.785 177.799 101.593C177.248 100.372 177.239 99.0391 177.718 97.8352C178.652 95.4882 181.13 94.1383 183.886 93.8103Z" fill="black"/>
<path d="M248.043 85.4537H253.432V112.924H248.043V85.4537Z" fill="black"/>
<path fill-rule="evenodd" clip-rule="evenodd" d="M242.583 113.177C248.201 113.177 252.236 108.357 252.236 103.446C252.236 98.8079 248.228 93.7159 242.583 93.7159C237.183 93.7159 233.084 98.0725 233.084 103.446C233.084 108.821 237.183 113.177 242.583 113.177ZM243.174 108.259C245.942 108.259 248.054 106.196 248.054 103.446C248.054 100.697 245.942 98.6344 243.174 98.6344C240.406 98.6344 238.262 100.789 238.262 103.446C238.262 106.104 240.406 108.259 243.174 108.259Z" fill="black"/>
<path fill-rule="evenodd" clip-rule="evenodd" d="M276.647 113.177C282.29 113.177 286.377 108.821 286.377 103.446C286.377 98.0725 281.901 93.7159 276.647 93.7159C271.392 93.7159 266.916 98.0725 266.916 103.446C266.916 108.821 271.198 113.177 276.647 113.177ZM276.647 108.304C279.464 108.304 281.504 106.129 281.504 103.446C281.504 100.764 279.27 98.5891 276.647 98.5891C274.024 98.5891 271.79 100.764 271.79 103.446C271.79 106.129 273.927 108.304 276.647 108.304Z" fill="black"/>
<path d="M198.204 107.247L203.593 106.487V88.5919L198.204 90.794L198.204 107.247Z" fill="black"/>
<path d="M194.611 94.028H208.084V98.8184H194.611V94.028Z" fill="black"/>
<path d="M204.491 112.878C198.867 112.878 198.204 109.404 198.204 107.194C199.742 106.269 202.515 105.998 203.593 105.998C203.593 107.05 204.341 108.103 205.838 108.103H208.084L208.084 112.772C206.737 112.878 206.208 112.878 204.491 112.878Z" fill="black"/>
<path d="M258.084 94.0123H263.473V112.923H258.084V94.0123Z" fill="black"/>
<path d="M264.072 88.029C264.072 89.8479 262.597 91.3224 260.778 91.3224C258.96 91.3224 257.485 89.8479 257.485 88.029C257.485 86.2101 258.96 84.7356 260.778 84.7356C262.597 84.7356 264.072 86.2101 264.072 88.029Z" fill="black"/>
<path d="M230.259 112.88H224.807V94.3299H230.259V112.88Z" fill="black"/>
<path d="M216.98 103.645L211.527 104.709V94.3299H216.98V103.645Z" fill="black"/>
<path d="M219.929 113.171C214.748 113.171 211.527 109.367 211.527 104.702L216.979 103.451C216.979 106.518 218.419 107.889 220.887 107.889C223.221 107.889 224.809 106.576 224.809 104.032L226.547 105.791C226.547 107.235 225.289 113.171 219.929 113.171Z" fill="black"/>
</mask>
<g mask="url(#mask0)">
<path d="M174.85 76.6206H298.952V126.172H174.85V76.6206Z" fill="url(#paint0_linear)"/>
</g>
<path d="M100.898 174.02H106.287V192.876H100.898V174.02Z" fill="black"/>
<path fill-rule="evenodd" clip-rule="evenodd" d="M95.4269 193.175C101.046 193.175 105.081 188.356 105.081 183.445C105.081 178.806 101.073 173.714 95.4269 173.714C90.0275 173.714 85.9281 178.071 85.9281 183.445C85.9281 188.819 90.0275 193.175 95.4269 193.175ZM96.0183 188.257C98.7867 188.257 100.898 186.194 100.898 183.445C100.898 180.695 98.7867 178.633 96.0183 178.633C93.25 178.633 91.106 180.787 91.106 183.445C91.106 186.102 93.25 188.257 96.0183 188.257Z" fill="black"/>
<path fill-rule="evenodd" clip-rule="evenodd" d="M127.936 179.277L123.001 181.569C122.372 180.151 121.044 179.01 119.249 179.01C116.697 179.01 114.72 180.996 114.72 183.446C114.72 185.896 116.697 187.883 119.249 187.883C121.085 187.883 122.432 186.855 123.043 185.366L127.968 187.688C126.455 190.937 123.209 193.177 119.162 193.177C113.713 193.177 109.431 188.82 109.431 183.446C109.431 178.072 113.907 173.716 119.162 173.716C122.957 173.716 126.347 175.989 127.936 179.277Z" fill="black"/>
<path d="M130.988 174.017H136.377V192.879H130.988V174.017Z" fill="black"/>
<path d="M142.964 181.352L148.353 180.903V192.879H142.964V181.352Z" fill="black"/>
<path d="M154.94 181.352L160.329 180.903V192.879H154.94V181.352Z" fill="black"/>
<path d="M141.207 173.716C145.976 173.716 148.353 177.37 148.353 181.201L142.964 182.203C142.964 180.546 141.467 179.055 139.671 179.055C137.874 179.055 136.377 180.603 136.377 182.4L134.95 180.385C134.388 179.055 136.424 173.716 141.207 173.716Z" fill="black"/>
<path d="M153.183 173.716C157.952 173.716 160.329 177.37 160.329 181.201L154.94 182.203C154.94 180.546 153.443 179.055 151.647 179.055C149.85 179.055 148.353 180.603 148.353 182.4L146.926 180.385C146.364 179.055 148.4 173.716 153.183 173.716Z" fill="black"/>
<path d="M153.183 173.716C157.952 173.716 160.329 177.37 160.329 181.201L154.94 181.65C154.94 179.993 153.443 178.656 151.647 178.656C149.85 178.656 148.353 179.854 148.353 181.65L145.659 178.806C146.856 176.111 148.4 173.716 153.183 173.716Z" fill="black"/>
<path d="M172.142 189.353C172.142 191.292 170.57 192.864 168.631 192.864C166.692 192.864 165.12 191.292 165.12 189.353C165.12 187.414 166.692 185.842 168.631 185.842C170.57 185.842 172.142 187.414 172.142 189.353Z" fill="black"/>
<path d="M41.5316 161.528C46.2086 156.851 53.7914 156.851 58.4683 161.528L71.4717 174.532C76.1487 179.209 76.1487 186.791 71.4717 191.468L58.4683 204.472C53.7914 209.149 46.2086 209.149 41.5316 204.472L28.5282 191.468C23.8513 186.791 23.8513 179.209 28.5282 174.532L41.5316 161.528Z" fill="#FF6B6B"/>
<path d="M53.4111 173.237C53.4111 175.121 51.8839 176.648 50 176.648C48.1162 176.648 46.589 175.121 46.589 173.237C46.589 171.353 48.1162 169.826 50 169.826C51.8839 169.826 53.4111 171.353 53.4111 173.237Z" fill="white"/>
<path d="M53.4111 192.763C53.4111 194.646 51.8839 196.174 50 196.174C48.1162 196.174 46.589 194.646 46.589 192.763C46.589 190.879 48.1162 189.352 50 189.352C51.8839 189.352 53.4111 190.879 53.4111 192.763Z" fill="white"/>
<path d="M59.7625 186.411C57.8787 186.411 56.3515 184.884 56.3515 183C56.3515 181.116 57.8787 179.589 59.7625 179.589C61.6464 179.589 63.1736 181.116 63.1736 183C63.1736 184.884 61.6464 186.411 59.7625 186.411Z" fill="white"/>
<path d="M40.2372 186.411C38.3534 186.411 36.8262 184.884 36.8262 183C36.8262 181.116 38.3534 179.589 40.2372 179.589C42.1211 179.589 43.6483 181.116 43.6483 183C43.6483 184.884 42.1211 186.411 40.2372 186.411Z" fill="white"/>
<path fill-rule="evenodd" clip-rule="evenodd" d="M50.7901 174.028L41.0275 183.79L39.4472 182.21L49.2099 172.447L50.7901 174.028Z" fill="white"/>
<path fill-rule="evenodd" clip-rule="evenodd" d="M50.7901 191.972L41.0275 182.21L39.4472 183.79L49.2099 193.553L50.7901 191.972Z" fill="white"/>
<path fill-rule="evenodd" clip-rule="evenodd" d="M49.2098 174.028L58.9724 183.79L60.5526 182.21L50.79 172.447L49.2098 174.028Z" fill="white"/>
<path fill-rule="evenodd" clip-rule="evenodd" d="M48.8826 192.41V173.237H51.1174V192.41H48.8826Z" fill="white"/>
<path fill-rule="evenodd" clip-rule="evenodd" d="M40.4725 181.765H47.8827V184H40.4725V181.765Z" fill="white"/>
<path fill-rule="evenodd" clip-rule="evenodd" d="M52.1172 181.765H59.5273V184H52.1172V181.765Z" fill="white"/>
<mask id="mask1" mask-type="alpha" maskUnits="userSpaceOnUse" x="176" y="164" width="76" height="39">
<path d="M177.545 174.01H182.934V192.921H177.545V174.01Z" fill="black"/>
<path d="M183.533 168.027C183.533 169.846 182.058 171.321 180.24 171.321C178.421 171.321 176.946 169.846 176.946 168.027C176.946 166.208 178.421 164.734 180.24 164.734C182.058 164.734 183.533 166.208 183.533 168.027Z" fill="black"/>
<path fill-rule="evenodd" clip-rule="evenodd" d="M205.689 179.735L200.727 182.04C200.2 180.412 198.785 179.008 196.794 179.008C194.242 179.008 192.265 180.995 192.265 183.445C192.265 185.895 194.242 187.881 196.794 187.881C198.824 187.881 200.255 186.625 200.757 184.878L205.716 187.217C204.306 190.718 200.945 193.175 196.707 193.175C191.257 193.175 186.976 188.819 186.976 183.445C186.976 178.071 191.452 173.714 196.707 173.714C200.677 173.714 204.202 176.201 205.689 179.735Z" fill="black"/>
<path d="M214.521 174.052H209.132V202.172H214.521V174.052Z" fill="black"/>
<path fill-rule="evenodd" clip-rule="evenodd" d="M220.018 193.175C214.399 193.175 210.364 188.356 210.364 183.445C210.364 178.806 214.372 173.714 220.018 173.714C225.417 173.714 229.517 178.071 229.517 183.445C229.517 188.819 225.417 193.175 220.018 193.175ZM219.426 188.257C216.658 188.257 214.546 186.194 214.546 183.445C214.546 180.695 216.658 178.633 219.426 178.633C222.195 178.633 224.339 180.787 224.339 183.445C224.339 186.102 222.195 188.257 219.426 188.257Z" fill="black"/>
<path fill-rule="evenodd" clip-rule="evenodd" d="M250.99 179.275L246.055 181.568C245.426 180.15 244.098 179.008 242.303 179.008C239.751 179.008 237.774 180.995 237.774 183.445C237.774 185.895 239.751 187.881 242.303 187.881C244.139 187.881 245.486 186.853 246.097 185.364L251.022 187.686C249.509 190.935 246.263 193.175 242.216 193.175C236.766 193.175 232.485 188.819 232.485 183.445C232.485 178.071 236.961 173.714 242.216 173.714C246.011 173.714 249.401 175.987 250.99 179.275Z" fill="black"/>
</mask>
<g mask="url(#mask1)">
<path d="M175 159.224H253.892V208.775H175V159.224Z" fill="url(#paint1_linear)"/>
</g>
<path d="M100.898 254.02H106.287V272.876H100.898V254.02Z" fill="black"/>
<path fill-rule="evenodd" clip-rule="evenodd" d="M95.4269 273.175C101.046 273.175 105.081 268.356 105.081 263.445C105.081 258.806 101.073 253.714 95.4269 253.714C90.0276 253.714 85.9282 258.071 85.9282 263.445C85.9282 268.819 90.0276 273.175 95.4269 273.175ZM96.0184 268.257C98.7867 268.257 100.898 266.194 100.898 263.445C100.898 260.695 98.7867 258.633 96.0184 258.633C93.25 258.633 91.106 260.787 91.106 263.445C91.106 266.102 93.25 268.257 96.0184 268.257Z" fill="black"/>
<path fill-rule="evenodd" clip-rule="evenodd" d="M127.936 259.277L123.001 261.569C122.372 260.151 121.044 259.01 119.249 259.01C116.697 259.01 114.72 260.996 114.72 263.446C114.72 265.896 116.697 267.883 119.249 267.883C121.085 267.883 122.432 266.855 123.043 265.366L127.968 267.688C126.455 270.937 123.209 273.177 119.162 273.177C113.713 273.177 109.431 268.82 109.431 263.446C109.431 258.072 113.907 253.716 119.162 253.716C122.957 253.716 126.347 255.989 127.936 259.277Z" fill="black"/>
<path d="M130.988 254.017H136.377V272.879H130.988V254.017Z" fill="black"/>
<path d="M142.964 261.352L148.353 260.903V272.879H142.964V261.352Z" fill="black"/>
<path d="M154.94 261.352L160.329 260.903V272.879H154.94V261.352Z" fill="black"/>
<path d="M141.207 253.716C145.976 253.716 148.353 257.37 148.353 261.201L142.964 262.203C142.964 260.546 141.467 259.055 139.671 259.055C137.874 259.055 136.377 260.603 136.377 262.4L134.95 260.385C134.388 259.055 136.424 253.716 141.207 253.716Z" fill="black"/>
<path d="M153.183 253.716C157.952 253.716 160.329 257.37 160.329 261.201L154.94 262.203C154.94 260.546 153.443 259.055 151.647 259.055C149.85 259.055 148.353 260.603 148.353 262.4L146.926 260.385C146.364 259.055 148.4 253.716 153.183 253.716Z" fill="black"/>
<path d="M153.183 253.716C157.953 253.716 160.329 257.37 160.329 261.201L154.94 261.65C154.94 259.993 153.443 258.656 151.647 258.656C149.85 258.656 148.353 259.854 148.353 261.65L145.659 258.806C146.856 256.111 148.4 253.716 153.183 253.716Z" fill="black"/>
<path d="M172.142 269.353C172.142 271.292 170.57 272.864 168.631 272.864C166.692 272.864 165.12 271.292 165.12 269.353C165.12 267.414 166.692 265.842 168.631 265.842C170.57 265.842 172.142 267.414 172.142 269.353Z" fill="black"/>
<path d="M41.5317 241.528C46.2086 236.851 53.7914 236.851 58.4683 241.528L71.4718 254.532C76.1487 259.209 76.1487 266.791 71.4718 271.468L58.4683 284.472C53.7914 289.149 46.2086 289.149 41.5317 284.472L28.5282 271.468C23.8513 266.791 23.8513 259.209 28.5282 254.532L41.5317 241.528Z" fill="#FE823C"/>
<path d="M53.7425 259.233C53.7425 255.097 50.3931 251.748 46.2575 251.748C42.1219 251.748 38.7725 255.097 38.7725 259.233C38.7725 263.369 42.1219 266.718 46.2575 266.718C46.2575 262.582 49.6069 259.233 53.7425 259.233Z" fill="white"/>
<path d="M53.7425 259.233C53.7425 263.369 50.3931 266.718 46.2575 266.718C46.2575 270.854 49.6069 274.203 53.7425 274.203C57.8781 274.203 61.2275 270.854 61.2275 266.718C61.2275 262.582 57.8781 259.233 53.7425 259.233Z" fill="white"/>
<mask id="mask2" mask-type="alpha" maskUnits="userSpaceOnUse" x="176" y="244" width="116" height="38">
<path d="M191.905 245.499H197.295V272.924H191.905V245.499Z" fill="black"/>
<path fill-rule="evenodd" clip-rule="evenodd" d="M186.445 273.177C192.064 273.177 196.099 268.357 196.099 263.446C196.099 258.808 192.091 253.716 186.445 253.716C181.045 253.716 176.946 258.072 176.946 263.446C176.946 268.821 181.045 273.177 186.445 273.177ZM187.036 268.259C189.804 268.259 191.916 266.196 191.916 263.446C191.916 260.697 189.804 258.634 187.036 258.634C184.268 258.634 182.124 260.789 182.124 263.446C182.124 266.104 184.268 268.259 187.036 268.259Z" fill="black"/>
<path fill-rule="evenodd" clip-rule="evenodd" d="M209.818 253.718C204.563 253.718 200.087 258.074 200.087 263.448V263.448C200.087 268.822 204.369 273.179 209.818 273.179C213.774 273.179 216.977 271.205 218.436 268.898L213.994 266.802C213.224 267.595 212.181 268.171 211.024 268.423C210.65 268.515 210.25 268.564 209.828 268.564C209.809 268.564 209.79 268.564 209.771 268.564C209.752 268.564 209.732 268.564 209.713 268.564C206.887 268.564 204.699 266.321 204.699 263.554C204.699 263.537 204.699 263.52 204.699 263.503C204.699 263.485 204.699 263.467 204.699 263.448C204.699 260.623 206.938 258.332 209.828 258.332C212.345 258.332 214.05 260.35 214.449 262.493C215.004 262.482 215.325 262.753 215.325 263.645C215.325 263.868 215.308 264.087 215.275 264.302L218.842 265.36L219.194 265.396C220.348 258.057 215.072 253.718 209.818 253.718Z" fill="black"/>
<path d="M202.651 261.204H214.663L219.194 265.396H218.661H202.719L202.651 261.204Z" fill="black"/>
<path fill-rule="evenodd" clip-rule="evenodd" d="M228.583 253.795C233.356 253.227 236.148 255.908 236.982 257.946L232.446 259.802C232.143 259.275 231.098 258.308 229.769 258.308C228.113 258.308 227.784 258.936 227.67 259.267C227.517 259.709 227.752 260.118 228.296 260.319C228.815 260.511 229.371 260.648 229.954 260.793C230.262 260.869 230.578 260.947 230.901 261.037L230.901 261.036L230.939 261.047C232.158 261.381 233.529 261.804 235.136 263.017C236.283 263.882 236.976 265.086 237.12 266.431C237.258 267.713 236.875 268.907 236.296 269.856C235.163 271.713 232.953 273.167 230.382 273.167L230.355 273.167C229.753 273.167 228.147 273.167 226.446 272.69C224.72 272.205 222.51 271.114 221.345 268.651L225.906 266.491C225.92 266.527 226.174 267.156 227.095 267.839C228.044 268.542 229.189 268.648 230.384 268.391C231.724 268.102 231.935 267.237 231.538 266.845C231.072 266.385 230.14 266.12 229.215 265.858C229.105 265.827 228.994 265.795 228.884 265.764L228.884 265.763C228.852 265.754 228.82 265.745 228.788 265.736C228.768 265.73 228.748 265.724 228.728 265.718L228.725 265.718C227.771 265.448 226.59 265.062 225.168 264.3C224.008 263.679 223.036 262.77 222.497 261.578C221.946 260.357 221.937 259.024 222.416 257.82C223.35 255.473 225.828 254.123 228.583 253.795Z" fill="black"/>
<path d="M240.656 254.012H246.045V272.923H240.656V254.012Z" fill="black"/>
<path d="M246.644 248.029C246.644 249.848 245.169 251.322 243.351 251.322C241.532 251.322 240.057 249.848 240.057 248.029C240.057 246.21 241.532 244.736 243.351 244.736C245.169 244.736 246.644 246.21 246.644 248.029Z" fill="black"/>
<path d="M264.476 254.004H269.866V271.377H264.476V254.004Z" fill="black"/>
<path fill-rule="evenodd" clip-rule="evenodd" d="M251.003 277.113C252.65 279.508 255.605 281.305 259.502 281.305C265.306 281.305 269.866 277.1 269.866 271.377L264.476 271.377C264.446 273.995 262.197 276.289 259.521 276.289C258.186 276.289 256.175 275.242 255.277 274.194L251.003 277.113Z" fill="black"/>
<path fill-rule="evenodd" clip-rule="evenodd" d="M258.987 273.177C264.606 273.177 268.641 268.357 268.641 263.446C268.641 258.808 264.633 253.716 258.987 253.716C253.588 253.716 249.488 258.072 249.488 263.446C249.488 268.821 253.588 273.177 258.987 273.177ZM259.579 268.259C262.347 268.259 264.459 266.196 264.459 263.446C264.459 260.697 262.347 258.634 259.579 258.634C256.81 258.634 254.666 260.789 254.666 263.446C254.666 266.104 256.81 268.259 259.579 268.259Z" fill="black"/>
<path d="M273.44 254.036H278.83V272.898H273.44V254.036Z" fill="black"/>
<path d="M286.492 262.533L291.881 261.198V272.915H286.492L286.492 262.533Z" fill="black"/>
<path d="M284.052 253.717C289.277 253.717 291.881 257.371 291.881 261.202L286.492 262.799C286.492 260.789 285.333 259.056 282.71 259.056C280.043 259.056 278.83 261.002 278.83 262.799L277.196 260.386C276.297 258.535 278.811 253.717 284.052 253.717Z" fill="black"/>
</mask>
<g mask="url(#mask2)">
<path d="M174.551 237.997H299.551V287.548H174.551V237.997Z" fill="url(#paint2_linear)"/>
</g>
<path d="M100.898 334.023H106.287V352.878H100.898V334.023Z" fill="black"/>
<path fill-rule="evenodd" clip-rule="evenodd" d="M95.4269 353.178C101.046 353.178 105.081 348.358 105.081 343.447C105.081 338.809 101.073 333.717 95.4269 333.717C90.0275 333.717 85.9281 338.073 85.9281 343.447C85.9281 348.821 90.0275 353.178 95.4269 353.178ZM96.0183 348.259C98.7867 348.259 100.898 346.197 100.898 343.447C100.898 340.698 98.7867 338.635 96.0183 338.635C93.25 338.635 91.106 340.79 91.106 343.447C91.106 346.105 93.25 348.259 96.0183 348.259Z" fill="black"/>
<path fill-rule="evenodd" clip-rule="evenodd" d="M127.936 339.28L123.001 341.572C122.372 340.154 121.044 339.013 119.249 339.013C116.697 339.013 114.72 340.999 114.72 343.449C114.72 345.899 116.697 347.885 119.249 347.885C121.085 347.885 122.432 346.857 123.043 345.368L127.968 347.69C126.455 350.939 123.209 353.18 119.162 353.18C113.713 353.18 109.431 348.823 109.431 343.449C109.431 338.075 113.907 333.719 119.162 333.719C122.957 333.719 126.347 335.992 127.936 339.28Z" fill="black"/>
<path d="M130.988 334.019H136.377V352.881H130.988V334.019Z" fill="black"/>
<path d="M142.964 341.354L148.353 340.905V352.881H142.964V341.354Z" fill="black"/>
<path d="M154.94 341.354L160.329 340.905V352.881H154.94V341.354Z" fill="black"/>
<path d="M141.207 333.719C145.976 333.719 148.353 337.372 148.353 341.204L142.964 342.205C142.964 340.549 141.467 339.057 139.671 339.057C137.874 339.057 136.377 340.606 136.377 342.402L134.95 340.388C134.388 339.057 136.424 333.719 141.207 333.719Z" fill="black"/>
<path d="M153.183 333.719C157.952 333.719 160.329 337.372 160.329 341.204L154.94 342.205C154.94 340.549 153.443 339.057 151.647 339.057C149.85 339.057 148.353 340.606 148.353 342.402L146.926 340.388C146.364 339.057 148.4 333.719 153.183 333.719Z" fill="black"/>
<path d="M153.183 333.719C157.952 333.719 160.329 337.372 160.329 341.204L154.94 341.653C154.94 339.996 153.443 338.659 151.647 338.659C149.85 338.659 148.353 339.856 148.353 341.653L145.659 338.808C146.856 336.114 148.4 333.719 153.183 333.719Z" fill="black"/>
<path d="M172.142 349.355C172.142 351.294 170.57 352.866 168.631 352.866C166.692 352.866 165.12 351.294 165.12 349.355C165.12 347.416 166.692 345.844 168.631 345.844C170.57 345.844 172.142 347.416 172.142 349.355Z" fill="black"/>
<path d="M41.5316 321.528C46.2086 316.851 53.7914 316.851 58.4683 321.528L71.4717 334.532C76.1487 339.209 76.1487 346.791 71.4717 351.468L58.4683 364.472C53.7914 369.149 46.2086 369.149 41.5316 364.472L28.5282 351.468C23.8513 346.791 23.8513 339.209 28.5282 334.532L41.5316 321.528Z" fill="#FFBA44"/>
<path d="M40.874 339.822C40.8708 338.748 41.7396 337.874 42.8144 337.871L57.1198 337.829C58.1946 337.826 59.0685 338.695 59.0717 339.77L59.1073 351.801C59.1105 352.875 58.2418 353.749 57.167 353.752L42.8616 353.794C41.7868 353.797 40.9129 352.928 40.9097 351.853L40.874 339.822Z" fill="white"/>
<path d="M56.8561 337.811C56.8561 341.573 53.7863 344.622 49.9995 344.622C46.2128 344.622 43.143 341.573 43.143 337.811C43.143 334.049 46.2128 331 49.9995 331C53.7863 331 56.8561 334.049 56.8561 337.811Z" fill="white"/>
<path d="M56.8561 337.811C56.8561 341.573 53.7863 344.622 49.9995 344.622L56.8561 344.622L56.8561 337.811Z" fill="white"/>
<path d="M49.9995 344.622C46.2128 344.622 43.143 341.573 43.143 337.811L43.143 344.622L49.9995 344.622Z" fill="white"/>
<path d="M54.2999 337.51C54.3183 339.85 52.4296 341.746 50.0815 341.746C47.7333 341.746 45.8149 339.85 45.7966 337.51C45.7782 335.171 47.6669 333.274 50.015 333.274C52.3632 333.274 54.2816 335.171 54.2999 337.51Z" fill="#FFBA44"/>
<path d="M48.8296 338.203C48.8296 337.575 49.3388 337.065 49.9669 337.065V337.065C50.5951 337.065 51.1043 337.575 51.1043 338.203V350.335C51.1043 350.963 50.5951 351.472 49.9669 351.472V351.472C49.3388 351.472 48.8296 350.963 48.8296 350.335V338.203Z" fill="#FFBA44"/>
<path d="M49.2088 346.564C49.2088 346.134 49.5573 345.785 49.9873 345.785H52.6007C53.0306 345.785 53.3791 346.134 53.3791 346.564V346.902C53.3791 347.332 53.0306 347.681 52.6007 347.681H49.9873C49.5573 347.681 49.2088 347.332 49.2088 346.902V346.564Z" fill="#FFBA44"/>
<path d="M49.2088 350.355C49.2088 349.925 49.5573 349.576 49.9873 349.576H52.6007C53.0306 349.576 53.3791 349.925 53.3791 350.355V350.694C53.3791 351.123 53.0306 351.472 52.6007 351.472H49.9873C49.5573 351.472 49.2088 351.123 49.2088 350.694V350.355Z" fill="#FFBA44"/>
<path d="M51.5776 336.293C51.5825 337.13 50.9075 337.809 50.07 337.809C49.2325 337.809 48.5495 337.13 48.5446 336.293C48.5397 335.455 49.2147 334.777 50.0522 334.777C50.8897 334.777 51.5727 335.455 51.5776 336.293Z" fill="white"/>
<mask id="mask3" mask-type="alpha" maskUnits="userSpaceOnUse" x="176" y="325" width="102" height="37">
<path fill-rule="evenodd" clip-rule="evenodd" d="M195.002 339.28L190.067 341.572C189.438 340.154 188.11 339.013 186.315 339.013C183.763 339.013 181.786 340.999 181.786 343.449C181.786 345.899 183.763 347.885 186.315 347.885C188.151 347.885 189.498 346.857 190.109 345.368L195.034 347.69C193.521 350.939 190.274 353.18 186.228 353.18C180.778 353.18 176.497 348.823 176.497 343.449C176.497 338.075 180.973 333.719 186.228 333.719C190.023 333.719 193.413 335.992 195.002 339.28Z" fill="black"/>
<path d="M225.449 325.493H220.06V352.927H225.449V325.493Z" fill="black"/>
<path fill-rule="evenodd" clip-rule="evenodd" d="M230.91 353.18C225.291 353.18 221.256 348.36 221.256 343.449C221.256 338.81 225.264 333.719 230.91 333.719C236.309 333.719 240.409 338.075 240.409 343.449C240.409 348.823 236.309 353.18 230.91 353.18ZM230.318 348.261C227.55 348.261 225.438 346.199 225.438 343.449C225.438 340.699 227.55 338.637 230.318 338.637C233.087 338.637 235.231 340.791 235.231 343.449C235.231 346.107 233.087 348.261 230.318 348.261Z" fill="black"/>
<path d="M196.108 333.998L202.402 333.998L209.342 350.215L204.681 353.356L196.108 333.998Z" fill="black"/>
<path d="M217.737 333.997L211.713 333.997L206.029 351.096L204.733 353.026L204.394 354.309L209.719 355.627L217.737 333.997Z" fill="black"/>
<path fill-rule="evenodd" clip-rule="evenodd" d="M200.144 356.68C202.049 356.68 203.953 355.68 204.399 354.29L209.72 355.623C208.083 359.459 205.454 361.948 200.144 361.948L199.462 361.948L199.461 356.68L200.144 356.68Z" fill="black"/>
<path d="M265.868 334.014H271.257V352.88H265.868V334.014Z" fill="black"/>
<path fill-rule="evenodd" clip-rule="evenodd" d="M277.971 333.784C277.565 333.751 277.134 333.734 276.677 333.734C271.487 333.734 269.599 338.788 269.162 341.869L271.257 344.974C271.257 342.29 273.215 339.759 277.159 339.759H277.971V333.784Z" fill="black"/>
<path fill-rule="evenodd" clip-rule="evenodd" d="M252.994 333.719C247.74 333.719 243.263 338.075 243.263 343.449V343.449C243.263 348.823 247.545 353.18 252.994 353.18C256.95 353.18 260.153 351.206 261.612 348.899L257.17 346.803C256.401 347.596 255.358 348.172 254.201 348.424C253.826 348.516 253.427 348.565 253.004 348.565C252.985 348.565 252.967 348.565 252.948 348.565C252.928 348.565 252.909 348.565 252.889 348.565C250.064 348.565 247.876 346.322 247.876 343.555C247.876 343.538 247.876 343.521 247.876 343.504C247.876 343.486 247.876 343.467 247.876 343.449C247.876 340.623 250.114 338.333 253.004 338.333C255.522 338.333 257.227 340.35 257.625 342.494C258.18 342.483 258.502 342.754 258.502 343.646C258.502 343.869 258.484 344.088 258.451 344.302L262.018 345.361L262.37 345.397C263.525 338.057 258.249 333.719 252.994 333.719Z" fill="black"/>
<path d="M245.827 341.205H257.84L262.37 345.397H261.837H245.896L245.827 341.205Z" fill="black"/>
</mask>
<g mask="url(#mask3)">
<path d="M172.68 317.627H278.219V367.178H172.68V317.627Z" fill="url(#paint3_linear)"/>
</g>
<path d="M100.898 414.023H106.287V432.878H100.898V414.023Z" fill="black"/>
<path fill-rule="evenodd" clip-rule="evenodd" d="M95.4269 433.178C101.046 433.178 105.081 428.358 105.081 423.447C105.081 418.809 101.073 413.717 95.4269 413.717C90.0275 413.717 85.9281 418.073 85.9281 423.447C85.9281 428.821 90.0275 433.178 95.4269 433.178ZM96.0183 428.259C98.7867 428.259 100.898 426.197 100.898 423.447C100.898 420.698 98.7867 418.635 96.0183 418.635C93.25 418.635 91.106 420.79 91.106 423.447C91.106 426.105 93.25 428.259 96.0183 428.259Z" fill="black"/>
<path fill-rule="evenodd" clip-rule="evenodd" d="M127.936 419.28L123.001 421.572C122.372 420.154 121.044 419.013 119.249 419.013C116.697 419.013 114.72 420.999 114.72 423.449C114.72 425.899 116.697 427.885 119.249 427.885C121.085 427.885 122.432 426.857 123.043 425.368L127.968 427.69C126.455 430.939 123.209 433.18 119.162 433.18C113.713 433.18 109.431 428.823 109.431 423.449C109.431 418.075 113.907 413.719 119.162 413.719C122.957 413.719 126.347 415.992 127.936 419.28Z" fill="black"/>
<path d="M130.988 414.019H136.377V432.881H130.988V414.019Z" fill="black"/>
<path d="M142.964 421.354L148.353 420.905V432.881H142.964V421.354Z" fill="black"/>
<path d="M154.94 421.354L160.329 420.905V432.881H154.94V421.354Z" fill="black"/>
<path d="M141.207 413.719C145.976 413.719 148.353 417.372 148.353 421.204L142.964 422.205C142.964 420.549 141.467 419.057 139.671 419.057C137.874 419.057 136.377 420.606 136.377 422.402L134.95 420.388C134.388 419.057 136.424 413.719 141.207 413.719Z" fill="black"/>
<path d="M153.183 413.719C157.952 413.719 160.329 417.372 160.329 421.204L154.94 422.205C154.94 420.549 153.443 419.057 151.647 419.057C149.85 419.057 148.353 420.606 148.353 422.402L146.926 420.388C146.364 419.057 148.4 413.719 153.183 413.719Z" fill="black"/>
<path d="M153.183 413.719C157.952 413.719 160.329 417.372 160.329 421.204L154.94 421.653C154.94 419.996 153.443 418.659 151.647 418.659C149.85 418.659 148.353 419.856 148.353 421.653L145.659 418.808C146.856 416.114 148.4 413.719 153.183 413.719Z" fill="black"/>
<path d="M172.142 429.355C172.142 431.294 170.57 432.866 168.631 432.866C166.692 432.866 165.12 431.294 165.12 429.355C165.12 427.416 166.692 425.844 168.631 425.844C170.57 425.844 172.142 427.416 172.142 429.355Z" fill="black"/>
<path d="M41.5316 401.528C46.2086 396.851 53.7914 396.851 58.4683 401.528L71.4717 414.532C76.1487 419.208 76.1487 426.791 71.4717 431.468L58.4683 444.472C53.7914 449.149 46.2086 449.149 41.5316 444.472L28.5282 431.468C23.8513 426.791 23.8513 419.208 28.5282 414.532L41.5316 401.528Z" fill="#5EDA12"/>
<path d="M54.8752 426.853C59.6802 426.853 63.5817 422.984 63.6345 418.191L54.7768 426.852C54.8096 426.853 54.8424 426.853 54.8752 426.853Z" fill="white"/>
<path d="M60.3855 415.042C55.5805 415.042 51.679 418.91 51.6263 423.703L60.4839 415.042C60.4511 415.042 60.4183 415.042 60.3855 415.042Z" fill="white"/>
<path d="M63.6345 415.042H60.4849V418.191H63.6345V415.042Z" fill="white"/>
<path d="M54.7771 423.703H51.6275V426.852H54.7771V423.703Z" fill="white"/>
<path d="M60.4849 415.042L63.6345 418.191L54.7763 426.852L51.6267 423.703L60.4849 415.042Z" fill="white"/>
<path fill-rule="evenodd" clip-rule="evenodd" d="M51.6271 427.774V426.035H53.4962V427.774C53.4962 429.951 52.3443 431.966 50.468 433.07L50.0997 433.287L49.1516 431.676L49.5199 431.459L49.994 432.265L49.5199 431.459C50.8255 430.691 51.6271 429.289 51.6271 427.774Z" fill="white"/>
<path d="M46.0973 427.181C41.3413 427.181 37.4797 423.352 37.4275 418.609L46.1947 427.181C46.1623 427.181 46.1299 427.181 46.0973 427.181Z" fill="white"/>
<path d="M40.6389 415.491C45.3949 415.491 49.2565 419.321 49.3088 424.064L40.5415 415.492C40.5739 415.492 40.6064 415.491 40.6389 415.491Z" fill="white"/>
<path d="M37.4252 415.491H40.5426V418.609H37.4252V415.491Z" fill="white"/>
<path d="M46.1937 424.064H49.3111V427.182H46.1937V424.064Z" fill="white"/>
<path d="M40.5426 415.491L37.4251 418.609L46.1929 427.182L49.3104 424.064L40.5426 415.491Z" fill="white"/>
<path fill-rule="evenodd" clip-rule="evenodd" d="M46.2276 424.45C45.9493 424.729 45.498 424.729 45.2196 424.45L40.6578 419.888C40.3794 419.61 40.3794 419.159 40.6578 418.88C40.9361 418.602 41.3875 418.602 41.6658 418.88L46.2276 423.442C46.506 423.721 46.506 424.172 46.2276 424.45Z" fill="#5EDA12"/>
<path fill-rule="evenodd" clip-rule="evenodd" d="M54.8745 424.001C55.1528 424.279 55.6042 424.279 55.8825 424.001L60.4443 419.439C60.7227 419.161 60.7227 418.71 60.4443 418.431C60.166 418.153 59.7147 418.153 59.4363 418.431L54.8745 422.993C54.5961 423.271 54.5961 423.723 54.8745 424.001Z" fill="#5EDA12"/>
<path fill-rule="evenodd" clip-rule="evenodd" d="M47.4551 435.037C48.2465 435.037 48.8881 434.396 48.8881 433.604C48.8881 432.813 48.2465 432.171 47.4551 432.171C46.6636 432.171 46.0221 432.813 46.0221 433.604C46.0221 434.396 46.6636 435.037 47.4551 435.037ZM47.4551 436.748C49.1913 436.748 50.5988 435.341 50.5988 433.604C50.5988 431.868 49.1913 430.461 47.4551 430.461C45.7189 430.461 44.3114 431.868 44.3114 433.604C44.3114 435.341 45.7189 436.748 47.4551 436.748Z" fill="white"/>
<path d="M51.497 428.814C50.6736 430.61 49.3114 430.461 47.4551 430.461L51.0479 432.407L51.497 428.814Z" fill="white"/>
<path d="M52.2455 431.509C51.8213 432.032 50.8982 433.155 50.4491 434.577L49.5509 431.658L52.2455 431.509Z" fill="white"/>
<mask id="mask4" mask-type="alpha" maskUnits="userSpaceOnUse" x="174" y="405" width="156" height="29">
<path d="M178.144 427.185L183.533 426.424V408.529L178.144 410.732L178.144 427.185Z" fill="black"/>
<path d="M174.551 413.965H188.024V418.756H174.551V413.965Z" fill="black"/>
<path d="M184.431 432.815C178.807 432.815 178.144 429.342 178.144 427.132C179.682 426.206 182.455 425.935 183.533 425.935C183.533 426.988 184.281 428.04 185.778 428.04H188.024L188.024 432.71C186.677 432.815 186.148 432.815 184.431 432.815Z" fill="black"/>
<path fill-rule="evenodd" clip-rule="evenodd" d="M200.748 413.707C195.494 413.707 191.018 418.063 191.018 423.437V423.437C191.018 428.811 195.299 433.168 200.748 433.168C204.705 433.168 207.908 431.194 209.367 428.887L204.925 426.792C204.155 427.585 203.112 428.16 201.955 428.412C201.581 428.505 201.181 428.554 200.759 428.554C200.74 428.554 200.721 428.553 200.702 428.553C200.683 428.553 200.663 428.554 200.644 428.554C197.818 428.554 195.63 426.31 195.63 423.543C195.63 423.526 195.63 423.509 195.63 423.492C195.63 423.474 195.63 423.456 195.63 423.437C195.63 420.612 197.868 418.321 200.759 418.321C203.276 418.321 204.981 420.339 205.38 422.482C205.935 422.471 206.256 422.743 206.256 423.634C206.256 423.857 206.239 424.076 206.206 424.291L209.773 425.349L210.125 425.385C211.279 418.046 206.003 413.707 200.748 413.707Z" fill="black"/>
<path d="M193.582 421.14H205.594L210.125 425.332H209.591H193.65L193.582 421.14Z" fill="black"/>
<path d="M227.994 414.013H233.383V432.868H227.994V414.013Z" fill="black"/>
<path fill-rule="evenodd" clip-rule="evenodd" d="M222.523 433.168C228.142 433.168 232.176 428.348 232.176 423.437C232.176 418.799 228.168 413.707 222.523 413.707C217.123 413.707 213.024 418.063 213.024 423.437C213.024 428.811 217.123 433.168 222.523 433.168ZM223.114 428.249C225.882 428.249 227.994 426.187 227.994 423.437C227.994 420.688 225.882 418.625 223.114 418.625C220.346 418.625 218.202 420.78 218.202 423.437C218.202 426.095 220.346 428.249 223.114 428.249Z" fill="black"/>
<path fill-rule="evenodd" clip-rule="evenodd" d="M255.331 419.268L250.397 421.56C249.767 420.142 248.439 419.001 246.644 419.001C244.092 419.001 242.116 420.987 242.116 423.437C242.116 425.887 244.092 427.874 246.644 427.874C248.48 427.874 249.827 426.846 250.439 425.356L255.363 427.679C253.85 430.928 250.604 433.168 246.557 433.168C241.108 433.168 236.826 428.811 236.826 423.437C236.826 418.063 241.302 413.707 246.557 413.707C250.352 413.707 253.742 415.98 255.331 419.268Z" fill="black"/>
<path d="M258.383 405.485H263.772V432.863H258.383V405.485Z" fill="black"/>
<path d="M271.435 422.472L276.824 421.136V432.863H271.435L271.435 422.472Z" fill="black"/>
<path d="M268.995 413.655C274.22 413.655 276.824 417.309 276.824 421.14L271.435 422.736C271.435 420.726 270.276 418.994 267.652 418.994C264.986 418.994 263.773 420.94 263.773 422.736L262.139 420.324C261.24 418.473 263.754 413.655 268.995 413.655Z" fill="black"/>
<path d="M281.886 405.623H287.725V432.569H281.886V405.623Z" fill="black"/>
<path d="M281.886 427.329H298.952V432.868H281.886V427.329Z" fill="black"/>
<path d="M312.246 405.623L316.916 405.623L316.693 408.861L307.617 432.868L301.946 432.868L312.246 405.623Z" fill="black"/>
<path d="M318.096 405.623L313.473 405.623L313.694 408.861L322.679 432.868L328.293 432.868L318.096 405.623Z" fill="black"/>
<path d="M312.892 405.623L317.515 405.623L317.294 408.861L308.309 432.868L302.695 432.868L312.892 405.623Z" fill="black"/>
<path d="M318.845 405.623L314.222 405.623L324.418 432.868L329.042 432.868L318.845 405.623Z" fill="black"/>
<path d="M307.335 423.886H323.353V428.826H307.335V423.886Z" fill="black"/>
</mask>
<g mask="url(#mask4)">
<path d="M172.156 397.551H340.269V447.102H172.156V397.551Z" fill="url(#paint4_linear)"/>
</g>
<path d="M100.898 574.02H106.287V592.876H100.898V574.02Z" fill="black"/>
<path fill-rule="evenodd" clip-rule="evenodd" d="M95.4269 593.175C101.046 593.175 105.081 588.355 105.081 583.445C105.081 578.806 101.073 573.714 95.4269 573.714C90.0276 573.714 85.9282 578.071 85.9282 583.445C85.9282 588.819 90.0276 593.175 95.4269 593.175ZM96.0184 588.257C98.7867 588.257 100.898 586.194 100.898 583.444C100.898 580.695 98.7867 578.632 96.0184 578.632C93.25 578.632 91.106 580.787 91.106 583.444C91.106 586.102 93.25 588.257 96.0184 588.257Z" fill="black"/>
<path fill-rule="evenodd" clip-rule="evenodd" d="M127.936 579.277L123.001 581.569C122.372 580.151 121.044 579.01 119.249 579.01C116.697 579.01 114.72 580.996 114.72 583.446C114.72 585.896 116.697 587.883 119.249 587.883C121.085 587.883 122.432 586.855 123.043 585.365L127.968 587.688C126.455 590.937 123.209 593.177 119.162 593.177C113.713 593.177 109.431 588.82 109.431 583.446C109.431 578.072 113.907 573.716 119.162 573.716C122.957 573.716 126.347 575.989 127.936 579.277Z" fill="black"/>
<path d="M130.988 574.016H136.377V592.879H130.988V574.016Z" fill="black"/>
<path d="M142.964 581.352L148.353 580.903V592.879H142.964V581.352Z" fill="black"/>
<path d="M154.94 581.352L160.329 580.903V592.879H154.94V581.352Z" fill="black"/>
<path d="M141.207 573.716C145.976 573.716 148.353 577.37 148.353 581.201L142.964 582.203C142.964 580.546 141.467 579.055 139.671 579.055C137.874 579.055 136.377 580.603 136.377 582.399L134.95 580.385C134.388 579.055 136.424 573.716 141.207 573.716Z" fill="black"/>
<path d="M153.183 573.716C157.952 573.716 160.329 577.37 160.329 581.201L154.94 582.203C154.94 580.546 153.443 579.055 151.647 579.055C149.85 579.055 148.353 580.603 148.353 582.399L146.926 580.385C146.364 579.055 148.4 573.716 153.183 573.716Z" fill="black"/>
<path d="M153.183 573.716C157.952 573.716 160.329 577.37 160.329 581.201L154.94 581.65C154.94 579.993 153.443 578.656 151.647 578.656C149.85 578.656 148.353 579.853 148.353 581.65L145.659 578.806C146.856 576.111 148.4 573.716 153.183 573.716Z" fill="black"/>
<path d="M172.142 589.352C172.142 591.292 170.57 592.864 168.631 592.864C166.692 592.864 165.12 591.292 165.12 589.352C165.12 587.413 166.692 585.841 168.631 585.841C170.57 585.841 172.142 587.413 172.142 589.352Z" fill="black"/>
<path d="M41.5317 561.528C46.2086 556.851 53.7914 556.851 58.4684 561.528L71.4718 574.532C76.1487 579.208 76.1487 586.791 71.4718 591.468L58.4684 604.472C53.7914 609.149 46.2086 609.149 41.5317 604.472L28.5282 591.468C23.8513 586.791 23.8513 579.208 28.5282 574.532L41.5317 561.528Z" fill="#28B2FF"/>
<path fill-rule="evenodd" clip-rule="evenodd" d="M44.2337 581.386C44.2273 581.763 43.9201 582.066 43.5422 582.066C43.1602 582.066 42.8505 581.756 42.8505 581.374H42.8504V587.599H42.8505C42.8505 587.599 42.8505 587.599 42.8505 587.599C42.8505 587.217 43.1601 586.907 43.5421 586.907C43.9209 586.907 44.2285 587.212 44.2337 587.589V581.386Z" fill="white"/>
<path fill-rule="evenodd" clip-rule="evenodd" d="M57.1439 579.299C57.1438 579.681 56.8342 579.991 56.4522 579.991C56.0703 579.991 55.7606 579.681 55.7606 579.299V585.52C55.7624 585.14 56.0714 584.832 56.4522 584.832C56.8342 584.832 57.1438 585.142 57.1438 585.524C57.1438 585.524 57.1438 585.524 57.1438 585.524H57.1439V579.299Z" fill="white"/>
<path fill-rule="evenodd" clip-rule="evenodd" d="M50.6887 577.702C50.68 578.076 50.3738 578.377 49.9973 578.377C49.6153 578.377 49.3056 578.067 49.3056 577.685C49.3056 577.685 49.3056 577.685 49.3056 577.685H49.3055V588.982L49.3055 588.982C49.3055 588.6 49.6151 588.29 49.9971 588.29C50.3776 588.29 50.6863 588.597 50.6887 588.977V577.702Z" fill="white"/>
<path d="M37.7785 580.221C37.7785 578.821 38.9139 577.685 40.3144 577.685V577.685C41.715 577.685 42.8504 578.821 42.8504 580.221V587.599C42.8504 588.999 41.715 590.135 40.3144 590.135V590.135C38.9139 590.135 37.7785 588.999 37.7785 587.599V580.221Z" fill="white"/>
<path d="M44.2335 574.458C44.2335 573.057 45.3689 571.922 46.7694 571.922V571.922C48.17 571.922 49.3054 573.057 49.3054 574.458V592.44C49.3054 593.841 48.17 594.976 46.7694 594.976V594.976C45.3689 594.976 44.2335 593.841 44.2335 592.44V574.458Z" fill="white"/>
<path d="M62.2155 586.676C62.2155 588.077 61.0801 589.212 59.6796 589.212V589.212C58.279 589.212 57.1436 588.077 57.1436 586.676V579.299C57.1436 577.899 58.279 576.763 59.6796 576.763V576.763C61.0801 576.763 62.2155 577.899 62.2155 579.299V586.676Z" fill="white"/>
<path d="M55.7605 592.44C55.7605 593.84 54.6251 594.976 53.2246 594.976V594.976C51.824 594.976 50.6886 593.84 50.6886 592.44V574.458C50.6886 573.057 51.824 571.922 53.2246 571.922V571.922C54.6251 571.922 55.7605 573.057 55.7605 574.458V592.44Z" fill="white"/>
<path fill-rule="evenodd" clip-rule="evenodd" d="M53.2247 573.305C52.5881 573.305 52.072 573.821 52.072 574.458C52.072 574.917 52.3398 575.313 52.7276 575.498V580.164C52.7276 581.672 51.5051 582.894 49.9971 582.894C48.3008 582.894 46.8694 584.028 46.4195 585.58C45.7364 584.749 44.701 584.22 43.542 584.22C42.034 584.22 40.8115 582.997 40.8115 581.489V581.262C41.1992 581.076 41.467 580.68 41.467 580.221C41.467 579.585 40.9509 579.069 40.3143 579.069C39.6777 579.069 39.1616 579.585 39.1616 580.221C39.1616 580.68 39.4295 581.076 39.8174 581.262V581.489C39.8174 583.546 41.485 585.214 43.542 585.214C45.0468 585.214 46.2672 586.431 46.2725 587.935V591.4C45.8847 591.585 45.6169 591.981 45.6169 592.44C45.6169 593.077 46.133 593.593 46.7696 593.593C47.4062 593.593 47.9223 593.077 47.9223 592.44C47.9223 591.981 47.6544 591.585 47.2665 591.4V587.945C47.2665 587.941 47.2665 587.937 47.2665 587.933V586.619C47.2665 585.111 48.489 583.888 49.9971 583.888C51.7247 583.888 53.1777 582.712 53.5986 581.117C54.2819 581.93 55.3066 582.447 56.4522 582.447C57.9602 582.447 59.1827 583.67 59.1827 585.178V585.636C58.7949 585.822 58.527 586.218 58.527 586.677C58.527 587.313 59.0431 587.829 59.6797 587.829C60.3163 587.829 60.8324 587.313 60.8324 586.677C60.8324 586.218 60.5645 585.822 60.1767 585.636V585.178C60.1767 583.121 58.5092 581.453 56.4522 581.453C54.9441 581.453 53.7216 580.231 53.7216 578.723V575.498C54.1095 575.313 54.3774 574.917 54.3774 574.458C54.3774 573.821 53.8614 573.305 53.2247 573.305Z" fill="#28B2FF"/>
<mask id="mask5" mask-type="alpha" maskUnits="userSpaceOnUse" x="176" y="564" width="32" height="30">
<path d="M191.916 574.02H197.305V592.876H191.916V574.02Z" fill="black"/>
<path fill-rule="evenodd" clip-rule="evenodd" d="M186.445 593.175C192.064 593.175 196.099 588.355 196.099 583.445C196.099 578.806 192.091 573.714 186.445 573.714C181.045 573.714 176.946 578.071 176.946 583.445C176.946 588.819 181.045 593.175 186.445 593.175ZM187.036 588.257C189.805 588.257 191.916 586.194 191.916 583.444C191.916 580.695 189.805 578.632 187.036 578.632C184.268 578.632 182.124 580.787 182.124 583.444C182.124 586.102 184.268 588.257 187.036 588.257Z" fill="black"/>
<path d="M201.497 574.01H206.886V592.921H201.497V574.01Z" fill="black"/>
<path d="M207.485 568.027C207.485 569.846 206.011 571.321 204.192 571.321C202.373 571.321 200.898 569.846 200.898 568.027C200.898 566.208 202.373 564.734 204.192 564.734C206.011 564.734 207.485 566.208 207.485 568.027Z" fill="black"/>
</mask>
<g mask="url(#mask5)">
<path d="M175 560.94H208.832V601.808H175V560.94Z" fill="url(#paint5_linear)"/>
</g>
<path d="M100.898 494.02H106.287V512.876H100.898V494.02Z" fill="black"/>
<path fill-rule="evenodd" clip-rule="evenodd" d="M95.4269 513.175C101.046 513.175 105.081 508.355 105.081 503.445C105.081 498.806 101.073 493.714 95.4269 493.714C90.0275 493.714 85.9281 498.071 85.9281 503.445C85.9281 508.819 90.0275 513.175 95.4269 513.175ZM96.0183 508.257C98.7867 508.257 100.898 506.194 100.898 503.444C100.898 500.695 98.7867 498.632 96.0183 498.632C93.25 498.632 91.106 500.787 91.106 503.444C91.106 506.102 93.25 508.257 96.0183 508.257Z" fill="black"/>
<path fill-rule="evenodd" clip-rule="evenodd" d="M127.936 499.277L123.001 501.569C122.372 500.151 121.044 499.01 119.249 499.01C116.697 499.01 114.72 500.996 114.72 503.446C114.72 505.896 116.697 507.883 119.249 507.883C121.085 507.883 122.432 506.855 123.043 505.365L127.968 507.688C126.455 510.937 123.209 513.177 119.162 513.177C113.713 513.177 109.431 508.82 109.431 503.446C109.431 498.072 113.907 493.716 119.162 493.716C122.957 493.716 126.347 495.989 127.936 499.277Z" fill="black"/>
<path d="M130.988 494.016H136.377V512.879H130.988V494.016Z" fill="black"/>
<path d="M142.964 501.352L148.353 500.903V512.879H142.964V501.352Z" fill="black"/>
<path d="M154.94 501.352L160.329 500.903V512.879H154.94V501.352Z" fill="black"/>
<path d="M141.207 493.716C145.976 493.716 148.353 497.37 148.353 501.201L142.964 502.203C142.964 500.546 141.467 499.055 139.671 499.055C137.874 499.055 136.377 500.603 136.377 502.399L134.95 500.385C134.388 499.055 136.424 493.716 141.207 493.716Z" fill="black"/>
<path d="M153.183 493.716C157.952 493.716 160.329 497.37 160.329 501.201L154.94 502.203C154.94 500.546 153.443 499.055 151.647 499.055C149.85 499.055 148.353 500.603 148.353 502.399L146.926 500.385C146.364 499.055 148.4 493.716 153.183 493.716Z" fill="black"/>
<path d="M153.183 493.716C157.952 493.716 160.329 497.37 160.329 501.201L154.94 501.65C154.94 499.993 153.443 498.656 151.647 498.656C149.85 498.656 148.353 499.853 148.353 501.65L145.659 498.806C146.856 496.111 148.4 493.716 153.183 493.716Z" fill="black"/>
<path d="M172.142 509.353C172.142 511.292 170.57 512.864 168.631 512.864C166.692 512.864 165.12 511.292 165.12 509.353C165.12 507.413 166.692 505.841 168.631 505.841C170.57 505.841 172.142 507.413 172.142 509.353Z" fill="black"/>
<path d="M41.5317 481.528C46.2086 476.851 53.7914 476.851 58.4684 481.528L71.4718 494.532C76.1487 499.208 76.1487 506.791 71.4718 511.468L58.4684 524.472C53.7914 529.149 46.2086 529.149 41.5317 524.472L28.5282 511.468C23.8513 506.791 23.8513 499.208 28.5282 494.532L41.5317 481.528Z" fill="#00D4CA"/>
<path fill-rule="evenodd" clip-rule="evenodd" d="M37.8586 496.737C39.2557 496.115 40.893 496.742 41.5157 498.139L44.3722 504.847L47.556 498.575C48.0373 497.672 48.977 497.108 50 497.108C51.023 497.108 51.9627 497.672 52.4439 498.575L55.6277 504.847L58.4842 498.139C59.1069 496.742 60.7442 496.115 62.1413 496.737C63.5383 497.36 64.166 498.997 63.5433 500.394L58.3793 511.98C57.9486 512.946 57.0048 513.583 55.9473 513.62C54.8898 513.657 53.9036 513.089 53.4059 512.155L50 505.765L46.5941 512.155C46.0963 513.089 45.1101 513.657 44.0526 513.62C42.9952 513.583 42.0514 512.946 41.6206 511.98L36.4566 500.394C35.8339 498.997 36.4616 497.36 37.8586 496.737Z" fill="white"/>
<mask id="mask6" mask-type="alpha" maskUnits="userSpaceOnUse" x="174" y="494" width="29" height="19">
<path d="M190.839 494.015L185.715 494.015L179.911 512.856L185.176 512.856L190.839 494.015Z" fill="black"/>
<path d="M185.749 494.015L190.873 494.015L196.677 512.856L191.413 512.856L185.749 494.015Z" fill="black"/>
<path d="M174.102 494.073L179.687 494.015L183.803 512.856L179.292 512.856L174.102 494.073Z" fill="black"/>
<path d="M202.486 494.073L196.901 494.015L192.785 512.856L197.297 512.856L202.486 494.073Z" fill="black"/>
</mask>
<g mask="url(#mask6)">
<path d="M174.102 480.469H207.934V521.337H174.102V480.469Z" fill="url(#paint6_linear)"/>
</g>
<g clip-path="url(#clip0)">
<path d="M101.756 654.014H107.142V672.86H101.756V654.014Z" fill="black"/>
<path fill-rule="evenodd" clip-rule="evenodd" d="M96.2872 673.159C101.903 673.159 105.936 668.342 105.936 663.434C105.936 658.798 101.93 653.708 96.2872 653.708C90.8908 653.708 86.7935 658.063 86.7935 663.434C86.7935 668.805 90.8908 673.159 96.2872 673.159ZM96.8784 668.243C99.6453 668.243 101.756 666.182 101.756 663.434C101.756 660.685 99.6453 658.624 96.8784 658.624C94.1115 658.624 91.9687 660.777 91.9687 663.434C91.9687 666.09 94.1115 668.243 96.8784 668.243Z" fill="black"/>
<path fill-rule="evenodd" clip-rule="evenodd" d="M128.779 659.268L123.847 661.559C123.218 660.142 121.891 659.001 120.097 659.001C117.546 659.001 115.571 660.987 115.571 663.435C115.571 665.884 117.546 667.869 120.097 667.869C121.932 667.869 123.278 666.842 123.889 665.354L128.811 667.675C127.299 670.922 124.054 673.161 120.009 673.161C114.563 673.161 110.284 668.807 110.284 663.435C110.284 658.064 114.758 653.71 120.009 653.71C123.803 653.71 127.191 655.982 128.779 659.268Z" fill="black"/>
<path d="M131.83 654.011H137.216V672.863H131.83V654.011Z" fill="black"/>
<path d="M143.799 661.342L149.186 660.893V672.863H143.799V661.342Z" fill="black"/>
<path d="M155.769 661.342L161.155 660.893V672.863H155.769V661.342Z" fill="black"/>
<path d="M142.043 653.71C146.81 653.71 149.186 657.362 149.186 661.191L143.799 662.193C143.799 660.537 142.303 659.046 140.507 659.046C138.712 659.046 137.216 660.594 137.216 662.389L135.789 660.376C135.228 659.046 137.263 653.71 142.043 653.71Z" fill="black"/>
<path d="M154.013 653.71C158.78 653.71 161.155 657.362 161.155 661.191L155.769 662.193C155.769 660.537 154.273 659.046 152.477 659.046C150.682 659.046 149.185 660.594 149.185 662.389L147.759 660.376C147.197 659.046 149.232 653.71 154.013 653.71Z" fill="black"/>
<path d="M154.013 653.71C158.78 653.71 161.155 657.362 161.155 661.191L155.769 661.64C155.769 659.984 154.273 658.648 152.477 658.648C150.682 658.648 149.186 659.845 149.186 661.64L146.492 658.797C147.689 656.104 149.232 653.71 154.013 653.71Z" fill="black"/>
<path d="M172.962 669.339C172.962 671.277 171.39 672.848 169.452 672.848C167.514 672.848 165.943 671.277 165.943 669.339C165.943 667.4 167.514 665.829 169.452 665.829C171.39 665.829 172.962 667.4 172.962 669.339Z" fill="black"/>
<path d="M41.5229 641.526C46.1973 636.852 53.7761 636.852 58.4506 641.526L71.4471 654.523C76.1216 659.197 76.1216 666.776 71.4471 671.45L58.4506 684.447C53.7761 689.121 46.1973 689.121 41.5229 684.447L28.5263 671.45C23.8519 666.776 23.8519 659.197 28.5264 654.523L41.5229 641.526Z" fill="#C960FF"/>
<path d="M53.5034 676.039C53.5034 677.567 51.9274 678.248 49.9815 678.248C48.0357 678.248 46.4596 677.567 46.4596 676.039C46.4596 674.667 47.205 675.95 49.9815 675.95C52.7581 675.95 53.5034 674.739 53.5034 676.039Z" fill="white"/>
<path d="M55.4999 670.787C55.4999 673.712 53.0617 674.956 50.0565 674.956C47.0513 674.956 44.6131 673.457 44.6131 670.787C44.6131 666.663 40.3151 665.214 40.3151 659.24C40.3151 653.871 44.6755 649.521 50.0565 649.521C55.4376 649.521 59.798 653.871 59.798 659.24C59.798 665.684 55.4999 667.251 55.4999 670.787Z" fill="white"/>
<path d="M52.3429 665.348C53.5833 664.568 54.4027 663.201 54.4027 661.636C54.4027 660.291 53.7938 659.082 52.8265 658.28C52.0584 657.635 52.4795 661.037 51.8422 661.636C51.1651 662.268 48.8208 662.246 48.1209 661.636C47.4609 661.054 47.6543 657.844 47.1366 658.28C46.1749 659.082 45.5604 660.291 45.5604 661.636C45.5604 663.195 46.3798 664.568 47.6202 665.348V670.913C47.6202 671.851 48.4908 672.263 49.9815 672.263C51.4723 672.263 52.3429 671.935 52.3429 670.913V665.348Z" fill="#C960FF"/>
<mask id="mask7" mask-type="alpha" maskUnits="userSpaceOnUse" x="177" y="645" width="85" height="29">
<path d="M213.523 653.99H218.909V672.836H213.523V653.99Z" fill="black"/>
<path fill-rule="evenodd" clip-rule="evenodd" d="M208.054 673.135C213.67 673.135 217.703 668.318 217.703 663.409C217.703 658.773 213.697 653.684 208.054 653.684C202.658 653.684 198.561 658.038 198.561 663.409C198.561 668.781 202.658 673.135 208.054 673.135ZM208.645 668.219C211.412 668.219 213.523 666.158 213.523 663.409C213.523 660.661 211.412 658.6 208.645 658.6C205.878 658.6 203.736 660.753 203.736 663.409C203.736 666.066 205.878 668.219 208.645 668.219Z" fill="black"/>
<path fill-rule="evenodd" clip-rule="evenodd" d="M239.948 659.242L235.016 661.533C234.386 660.116 233.06 658.975 231.265 658.975C228.715 658.975 226.739 660.961 226.739 663.409C226.739 665.858 228.715 667.843 231.265 667.843C233.101 667.843 234.447 666.816 235.058 665.328L239.98 667.649C238.467 670.896 235.223 673.135 231.178 673.135C225.732 673.135 221.453 668.781 221.453 663.409C221.453 658.038 225.926 653.684 231.178 653.684C234.972 653.684 238.359 655.956 239.948 659.242Z" fill="black"/>
<path d="M177.464 645.63H182.85V672.829H177.464V645.63Z" fill="black"/>
<path d="M190.509 662.469L195.895 661.135V672.846H190.509L190.509 662.469Z" fill="black"/>
<path d="M188.07 653.658C193.292 653.658 195.895 657.31 195.895 661.139L190.509 662.735C190.509 660.726 189.35 658.994 186.728 658.994C184.063 658.994 182.851 660.939 182.851 662.735L181.217 660.324C180.319 658.474 182.832 653.658 188.07 653.658Z" fill="black"/>
<path d="M243.447 645.63H248.833V672.836H243.447V645.63Z" fill="black"/>
<path d="M254.562 654.283H261.701L247.786 669.133L243.77 666.53L254.562 654.283Z" fill="black"/>
<path d="M255.229 672.863H261.86L251.975 660.267L247.936 663.516L255.229 672.863Z" fill="black"/>
</mask>
<g mask="url(#mask7)">
<path d="M175.177 640.478H267.728V681.309H175.177V640.478Z" fill="url(#paint7_linear)"/>
<path d="M175.177 640.478H267.728V681.309H175.177V640.478Z" fill="url(#paint8_linear)"/>
</g>
</g>
<path d="M778.393 108.888H767.917L766.117 114H761.833L770.797 88.944H775.549L784.513 114H780.193L778.393 108.888ZM777.241 105.54L773.173 93.912L769.069 105.54H777.241ZM787.043 101.436C787.043 98.988 787.607 96.792 788.735 94.848C789.887 92.904 791.435 91.392 793.379 90.312C795.347 89.208 797.495 88.656 799.823 88.656C802.487 88.656 804.851 89.316 806.915 90.636C809.003 91.932 810.515 93.78 811.451 96.18H806.519C805.871 94.86 804.971 93.876 803.819 93.228C802.667 92.58 801.335 92.256 799.823 92.256C798.167 92.256 796.691 92.628 795.395 93.372C794.099 94.116 793.079 95.184 792.335 96.576C791.615 97.968 791.255 99.588 791.255 101.436C791.255 103.284 791.615 104.904 792.335 106.296C793.079 107.688 794.099 108.768 795.395 109.536C796.691 110.28 798.167 110.652 799.823 110.652C801.335 110.652 802.667 110.328 803.819 109.68C804.971 109.032 805.871 108.048 806.519 106.728H811.451C810.515 109.128 809.003 110.976 806.915 112.272C804.851 113.568 802.487 114.216 799.823 114.216C797.471 114.216 795.323 113.676 793.379 112.596C791.435 111.492 789.887 109.968 788.735 108.024C787.607 106.08 787.043 103.884 787.043 101.436ZM842.607 88.98V114H838.503V96.864L830.871 114H828.027L820.359 96.864V114H816.255V88.98H820.683L829.467 108.6L838.215 88.98H842.607ZM865.596 114.252C863.916 114.252 862.404 113.964 861.06 113.388C859.716 112.788 858.66 111.948 857.892 110.868C857.124 109.788 856.74 108.528 856.74 107.088H861.132C861.228 108.168 861.648 109.056 862.392 109.752C863.16 110.448 864.228 110.796 865.596 110.796C867.012 110.796 868.116 110.46 868.908 109.788C869.7 109.092 870.096 108.204 870.096 107.124C870.096 106.284 869.844 105.6 869.34 105.072C868.86 104.544 868.248 104.136 867.504 103.848C866.784 103.56 865.776 103.248 864.48 102.912C862.848 102.48 861.516 102.048 860.484 101.616C859.476 101.16 858.612 100.464 857.892 99.528C857.172 98.592 856.812 97.344 856.812 95.784C856.812 94.344 857.172 93.084 857.892 92.004C858.612 90.924 859.62 90.096 860.916 89.52C862.212 88.944 863.712 88.656 865.416 88.656C867.84 88.656 869.82 89.268 871.356 90.492C872.916 91.692 873.78 93.348 873.948 95.46H869.412C869.34 94.548 868.908 93.768 868.116 93.12C867.324 92.472 866.28 92.148 864.984 92.148C863.808 92.148 862.848 92.448 862.104 93.048C861.36 93.648 860.988 94.512 860.988 95.64C860.988 96.408 861.216 97.044 861.672 97.548C862.152 98.028 862.752 98.412 863.472 98.7C864.192 98.988 865.176 99.3 866.424 99.636C868.08 100.092 869.424 100.548 870.456 101.004C871.512 101.46 872.4 102.168 873.12 103.128C873.864 104.064 874.236 105.324 874.236 106.908C874.236 108.18 873.888 109.38 873.192 110.508C872.52 111.636 871.524 112.548 870.204 113.244C868.908 113.916 867.372 114.252 865.596 114.252ZM883.867 97.512V108.492C883.867 109.236 884.035 109.776 884.371 110.112C884.731 110.424 885.331 110.58 886.171 110.58H888.691V114H885.451C883.603 114 882.187 113.568 881.203 112.704C880.219 111.84 879.727 110.436 879.727 108.492V97.512H877.387V94.164H879.727V89.232H883.867V94.164H888.691V97.512H883.867ZM910.437 94.164V114H906.333V111.66C905.685 112.476 904.833 113.124 903.777 113.604C902.745 114.06 901.641 114.288 900.465 114.288C898.905 114.288 897.501 113.964 896.253 113.316C895.029 112.668 894.057 111.708 893.337 110.436C892.641 109.164 892.293 107.628 892.293 105.828V94.164H896.361V105.216C896.361 106.992 896.805 108.36 897.693 109.32C898.581 110.256 899.793 110.724 901.329 110.724C902.865 110.724 904.077 110.256 904.965 109.32C905.877 108.36 906.333 106.992 906.333 105.216V94.164H910.437ZM914.484 103.992C914.484 102 914.892 100.236 915.708 98.7C916.548 97.164 917.676 95.976 919.092 95.136C920.532 94.272 922.128 93.84 923.88 93.84C925.176 93.84 926.448 94.128 927.696 94.704C928.968 95.256 929.976 96 930.72 96.936V87.36H934.86V114H930.72V111.012C930.048 111.972 929.112 112.764 927.912 113.388C926.736 114.012 925.38 114.324 923.844 114.324C922.116 114.324 920.532 113.892 919.092 113.028C917.676 112.14 916.548 110.916 915.708 109.356C914.892 107.772 914.484 105.984 914.484 103.992ZM930.72 104.064C930.72 102.696 930.432 101.508 929.856 100.5C929.304 99.492 928.572 98.724 927.66 98.196C926.748 97.668 925.764 97.404 924.708 97.404C923.652 97.404 922.668 97.668 921.756 98.196C920.844 98.7 920.1 99.456 919.524 100.464C918.972 101.448 918.696 102.624 918.696 103.992C918.696 105.36 918.972 106.56 919.524 107.592C920.1 108.624 920.844 109.416 921.756 109.968C922.692 110.496 923.676 110.76 924.708 110.76C925.764 110.76 926.748 110.496 927.66 109.968C928.572 109.44 929.304 108.672 929.856 107.664C930.432 106.632 930.72 105.432 930.72 104.064ZM942.339 91.536C941.595 91.536 940.971 91.284 940.467 90.78C939.963 90.276 939.711 89.652 939.711 88.908C939.711 88.164 939.963 87.54 940.467 87.036C940.971 86.532 941.595 86.28 942.339 86.28C943.059 86.28 943.671 86.532 944.175 87.036C944.679 87.54 944.931 88.164 944.931 88.908C944.931 89.652 944.679 90.276 944.175 90.78C943.671 91.284 943.059 91.536 942.339 91.536ZM944.355 94.164V114H940.251V94.164H944.355ZM958.347 114.324C956.475 114.324 954.783 113.904 953.271 113.064C951.759 112.2 950.571 111 949.707 109.464C948.843 107.904 948.411 106.104 948.411 104.064C948.411 102.048 948.855 100.26 949.743 98.7C950.631 97.14 951.843 95.94 953.379 95.1C954.915 94.26 956.631 93.84 958.527 93.84C960.423 93.84 962.139 94.26 963.675 95.1C965.211 95.94 966.423 97.14 967.311 98.7C968.199 100.26 968.643 102.048 968.643 104.064C968.643 106.08 968.187 107.868 967.275 109.428C966.363 110.988 965.115 112.2 963.531 113.064C961.971 113.904 960.243 114.324 958.347 114.324ZM958.347 110.76C959.403 110.76 960.387 110.508 961.299 110.004C962.235 109.5 962.991 108.744 963.567 107.736C964.143 106.728 964.431 105.504 964.431 104.064C964.431 102.624 964.155 101.412 963.603 100.428C963.051 99.42 962.319 98.664 961.407 98.16C960.495 97.656 959.511 97.404 958.455 97.404C957.399 97.404 956.415 97.656 955.503 98.16C954.615 98.664 953.907 99.42 953.379 100.428C952.851 101.412 952.587 102.624 952.587 104.064C952.587 106.2 953.127 107.856 954.207 109.032C955.311 110.184 956.691 110.76 958.347 110.76Z" fill="#1C1C1C"/>
<path d="M807.151 188.888H796.675L794.875 194H790.591L799.555 168.944H804.307L813.271 194H808.951L807.151 188.888ZM805.999 185.54L801.931 173.912L797.827 185.54H805.999ZM815.801 181.436C815.801 178.988 816.365 176.792 817.493 174.848C818.645 172.904 820.193 171.392 822.137 170.312C824.105 169.208 826.253 168.656 828.581 168.656C831.245 168.656 833.609 169.316 835.673 170.636C837.761 171.932 839.273 173.78 840.209 176.18H835.277C834.629 174.86 833.729 173.876 832.577 173.228C831.425 172.58 830.093 172.256 828.581 172.256C826.925 172.256 825.449 172.628 824.153 173.372C822.857 174.116 821.837 175.184 821.093 176.576C820.373 177.968 820.013 179.588 820.013 181.436C820.013 183.284 820.373 184.904 821.093 186.296C821.837 187.688 822.857 188.768 824.153 189.536C825.449 190.28 826.925 190.652 828.581 190.652C830.093 190.652 831.425 190.328 832.577 189.68C833.729 189.032 834.629 188.048 835.277 186.728H840.209C839.273 189.128 837.761 190.976 835.673 192.272C833.609 193.568 831.245 194.216 828.581 194.216C826.229 194.216 824.081 193.676 822.137 192.596C820.193 191.492 818.645 189.968 817.493 188.024C816.365 186.08 815.801 183.884 815.801 181.436ZM871.365 168.98V194H867.261V176.864L859.629 194H856.785L849.117 176.864V194H845.013V168.98H849.441L858.225 188.6L866.973 168.98H871.365ZM890.214 168.98V194H886.11V168.98H890.214ZM894.234 181.436C894.234 178.988 894.798 176.792 895.926 174.848C897.078 172.904 898.626 171.392 900.57 170.312C902.538 169.208 904.686 168.656 907.014 168.656C909.678 168.656 912.042 169.316 914.106 170.636C916.194 171.932 917.706 173.78 918.642 176.18H913.71C913.062 174.86 912.162 173.876 911.01 173.228C909.858 172.58 908.526 172.256 907.014 172.256C905.358 172.256 903.882 172.628 902.586 173.372C901.29 174.116 900.27 175.184 899.526 176.576C898.806 177.968 898.446 179.588 898.446 181.436C898.446 183.284 898.806 184.904 899.526 186.296C900.27 187.688 901.29 188.768 902.586 189.536C903.882 190.28 905.358 190.652 907.014 190.652C908.526 190.652 909.858 190.328 911.01 189.68C912.162 189.032 913.062 188.048 913.71 186.728H918.642C917.706 189.128 916.194 190.976 914.106 192.272C912.042 193.568 909.678 194.216 907.014 194.216C904.662 194.216 902.514 193.676 900.57 192.596C898.626 191.492 897.078 189.968 895.926 188.024C894.798 186.08 894.234 183.884 894.234 181.436ZM940.942 176.432C940.942 177.704 940.642 178.904 940.042 180.032C939.442 181.16 938.482 182.084 937.162 182.804C935.842 183.5 934.15 183.848 932.086 183.848H927.55V194H923.446V168.98H932.086C934.006 168.98 935.626 169.316 936.946 169.988C938.29 170.636 939.286 171.524 939.934 172.652C940.606 173.78 940.942 175.04 940.942 176.432ZM932.086 180.5C933.646 180.5 934.81 180.152 935.578 179.456C936.346 178.736 936.73 177.728 936.73 176.432C936.73 173.696 935.182 172.328 932.086 172.328H927.55V180.5H932.086ZM943.488 181.436C943.488 178.988 944.052 176.792 945.18 174.848C946.332 172.904 947.88 171.392 949.824 170.312C951.792 169.208 953.94 168.656 956.268 168.656C958.932 168.656 961.296 169.316 963.36 170.636C965.448 171.932 966.96 173.78 967.896 176.18H962.964C962.316 174.86 961.416 173.876 960.264 173.228C959.112 172.58 957.78 172.256 956.268 172.256C954.612 172.256 953.136 172.628 951.84 173.372C950.544 174.116 949.524 175.184 948.78 176.576C948.06 177.968 947.7 179.588 947.7 181.436C947.7 183.284 948.06 184.904 948.78 186.296C949.524 187.688 950.544 188.768 951.84 189.536C953.136 190.28 954.612 190.652 956.268 190.652C957.78 190.652 959.112 190.328 960.264 189.68C961.416 189.032 962.316 188.048 962.964 186.728H967.896C966.96 189.128 965.448 190.976 963.36 192.272C961.296 193.568 958.932 194.216 956.268 194.216C953.916 194.216 951.768 193.676 949.824 192.596C947.88 191.492 946.332 189.968 945.18 188.024C944.052 186.08 943.488 183.884 943.488 181.436Z" fill="#1C1C1C"/>
<path d="M769.499 268.888H759.023L757.223 274H752.939L761.903 248.944H766.655L775.619 274H771.299L769.499 268.888ZM768.347 265.54L764.279 253.912L760.175 265.54H768.347ZM778.148 261.436C778.148 258.988 778.712 256.792 779.84 254.848C780.992 252.904 782.54 251.392 784.484 250.312C786.452 249.208 788.6 248.656 790.928 248.656C793.592 248.656 795.956 249.316 798.02 250.636C800.108 251.932 801.62 253.78 802.556 256.18H797.624C796.976 254.86 796.076 253.876 794.924 253.228C793.772 252.58 792.44 252.256 790.928 252.256C789.272 252.256 787.796 252.628 786.5 253.372C785.204 254.116 784.184 255.184 783.44 256.576C782.72 257.968 782.36 259.588 782.36 261.436C782.36 263.284 782.72 264.904 783.44 266.296C784.184 267.688 785.204 268.768 786.5 269.536C787.796 270.28 789.272 270.652 790.928 270.652C792.44 270.652 793.772 270.328 794.924 269.68C796.076 269.032 796.976 268.048 797.624 266.728H802.556C801.62 269.128 800.108 270.976 798.02 272.272C795.956 273.568 793.592 274.216 790.928 274.216C788.576 274.216 786.428 273.676 784.484 272.596C782.54 271.492 780.992 269.968 779.84 268.024C778.712 266.08 778.148 263.884 778.148 261.436ZM833.712 248.98V274H829.608V256.864L821.976 274H819.132L811.464 256.864V274H807.36V248.98H811.788L820.572 268.6L829.32 248.98H833.712ZM856.63 248.98C859.294 248.98 861.622 249.496 863.614 250.528C865.63 251.536 867.178 253 868.258 254.92C869.362 256.816 869.914 259.036 869.914 261.58C869.914 264.124 869.362 266.332 868.258 268.204C867.178 270.076 865.63 271.516 863.614 272.524C861.622 273.508 859.294 274 856.63 274H848.458V248.98H856.63ZM856.63 270.652C859.558 270.652 861.802 269.86 863.362 268.276C864.922 266.692 865.702 264.46 865.702 261.58C865.702 258.676 864.922 256.408 863.362 254.776C861.802 253.144 859.558 252.328 856.63 252.328H852.562V270.652H856.63ZM892.161 263.596C892.161 264.34 892.113 265.012 892.017 265.612H876.861C876.981 267.196 877.569 268.468 878.625 269.428C879.681 270.388 880.977 270.868 882.513 270.868C884.721 270.868 886.281 269.944 887.193 268.096H891.621C891.021 269.92 889.929 271.42 888.345 272.596C886.785 273.748 884.841 274.324 882.513 274.324C880.617 274.324 878.913 273.904 877.401 273.064C875.913 272.2 874.737 271 873.873 269.464C873.033 267.904 872.613 266.104 872.613 264.064C872.613 262.024 873.021 260.236 873.837 258.7C874.677 257.14 875.841 255.94 877.329 255.1C878.841 254.26 880.569 253.84 882.513 253.84C884.385 253.84 886.053 254.248 887.517 255.064C888.981 255.88 890.121 257.032 890.937 258.52C891.753 259.984 892.161 261.676 892.161 263.596ZM887.877 262.3C887.853 260.788 887.313 259.576 886.257 258.664C885.201 257.752 883.893 257.296 882.333 257.296C880.917 257.296 879.705 257.752 878.697 258.664C877.689 259.552 877.089 260.764 876.897 262.3H887.877ZM903.4 274.324C901.84 274.324 900.436 274.048 899.188 273.496C897.964 272.92 896.992 272.152 896.272 271.192C895.552 270.208 895.168 269.116 895.12 267.916H899.368C899.44 268.756 899.836 269.464 900.556 270.04C901.3 270.592 902.224 270.868 903.328 270.868C904.48 270.868 905.368 270.652 905.992 270.22C906.64 269.764 906.964 269.188 906.964 268.492C906.964 267.748 906.604 267.196 905.884 266.836C905.188 266.476 904.072 266.08 902.536 265.648C901.048 265.24 899.836 264.844 898.9 264.46C897.964 264.076 897.148 263.488 896.452 262.696C895.78 261.904 895.444 260.86 895.444 259.564C895.444 258.508 895.756 257.548 896.38 256.684C897.004 255.796 897.892 255.1 899.044 254.596C900.22 254.092 901.564 253.84 903.076 253.84C905.332 253.84 907.144 254.416 908.512 255.568C909.904 256.696 910.648 258.244 910.744 260.212H906.64C906.568 259.324 906.208 258.616 905.56 258.088C904.912 257.56 904.036 257.296 902.932 257.296C901.852 257.296 901.024 257.5 900.448 257.908C899.872 258.316 899.584 258.856 899.584 259.528C899.584 260.056 899.776 260.5 900.16 260.86C900.544 261.22 901.012 261.508 901.564 261.724C902.116 261.916 902.932 262.168 904.012 262.48C905.452 262.864 906.628 263.26 907.54 263.668C908.476 264.052 909.28 264.628 909.952 265.396C910.624 266.164 910.972 267.184 910.996 268.456C910.996 269.584 910.684 270.592 910.06 271.48C909.436 272.368 908.548 273.064 907.396 273.568C906.268 274.072 904.936 274.324 903.4 274.324ZM917.518 251.536C916.774 251.536 916.15 251.284 915.646 250.78C915.142 250.276 914.89 249.652 914.89 248.908C914.89 248.164 915.142 247.54 915.646 247.036C916.15 246.532 916.774 246.28 917.518 246.28C918.238 246.28 918.85 246.532 919.354 247.036C919.858 247.54 920.11 248.164 920.11 248.908C920.11 249.652 919.858 250.276 919.354 250.78C918.85 251.284 918.238 251.536 917.518 251.536ZM919.534 254.164V274H915.43V254.164H919.534ZM932.915 253.84C934.451 253.84 935.807 254.152 936.983 254.776C938.183 255.376 939.119 256.132 939.791 257.044V254.164H943.931V274.324C943.931 276.148 943.547 277.768 942.779 279.184C942.011 280.624 940.895 281.752 939.431 282.568C937.991 283.384 936.263 283.792 934.247 283.792C931.559 283.792 929.327 283.156 927.551 281.884C925.775 280.636 924.767 278.932 924.527 276.772H928.595C928.907 277.804 929.567 278.632 930.575 279.256C931.607 279.904 932.831 280.228 934.247 280.228C935.903 280.228 937.235 279.724 938.243 278.716C939.275 277.708 939.791 276.244 939.791 274.324V271.012C939.095 271.948 938.147 272.74 936.947 273.388C935.771 274.012 934.427 274.324 932.915 274.324C931.187 274.324 929.603 273.892 928.163 273.028C926.747 272.14 925.619 270.916 924.779 269.356C923.963 267.772 923.555 265.984 923.555 263.992C923.555 262 923.963 260.236 924.779 258.7C925.619 257.164 926.747 255.976 928.163 255.136C929.603 254.272 931.187 253.84 932.915 253.84ZM939.791 264.064C939.791 262.696 939.503 261.508 938.927 260.5C938.375 259.492 937.643 258.724 936.731 258.196C935.819 257.668 934.835 257.404 933.779 257.404C932.723 257.404 931.739 257.668 930.827 258.196C929.915 258.7 929.171 259.456 928.595 260.464C928.043 261.448 927.767 262.624 927.767 263.992C927.767 265.36 928.043 266.56 928.595 267.592C929.171 268.624 929.915 269.416 930.827 269.968C931.763 270.496 932.747 270.76 933.779 270.76C934.835 270.76 935.819 270.496 936.731 269.968C937.643 269.44 938.375 268.672 938.927 267.664C939.503 266.632 939.791 265.432 939.791 264.064ZM959.329 253.84C960.889 253.84 962.281 254.164 963.505 254.812C964.753 255.46 965.725 256.42 966.421 257.692C967.117 258.964 967.465 260.5 967.465 262.3V274H963.397V262.912C963.397 261.136 962.953 259.78 962.065 258.844C961.177 257.884 959.965 257.404 958.429 257.404C956.893 257.404 955.669 257.884 954.757 258.844C953.869 259.78 953.425 261.136 953.425 262.912V274H949.321V254.164H953.425V256.432C954.097 255.616 954.949 254.98 955.981 254.524C957.037 254.068 958.153 253.84 959.329 253.84Z" fill="#1C1C1C"/>
<path d="M731.389 428.888H720.913L719.113 434H714.829L723.793 408.944H728.545L737.509 434H733.189L731.389 428.888ZM730.237 425.54L726.169 413.912L722.065 425.54H730.237ZM740.039 421.436C740.039 418.988 740.603 416.792 741.731 414.848C742.883 412.904 744.431 411.392 746.375 410.312C748.343 409.208 750.491 408.656 752.819 408.656C755.483 408.656 757.847 409.316 759.911 410.636C761.999 411.932 763.511 413.78 764.447 416.18H759.515C758.867 414.86 757.967 413.876 756.815 413.228C755.663 412.58 754.331 412.256 752.819 412.256C751.163 412.256 749.687 412.628 748.391 413.372C747.095 414.116 746.075 415.184 745.331 416.576C744.611 417.968 744.251 419.588 744.251 421.436C744.251 423.284 744.611 424.904 745.331 426.296C746.075 427.688 747.095 428.768 748.391 429.536C749.687 430.28 751.163 430.652 752.819 430.652C754.331 430.652 755.663 430.328 756.815 429.68C757.967 429.032 758.867 428.048 759.515 426.728H764.447C763.511 429.128 761.999 430.976 759.911 432.272C757.847 433.568 755.483 434.216 752.819 434.216C750.467 434.216 748.319 433.676 746.375 432.596C744.431 431.492 742.883 429.968 741.731 428.024C740.603 426.08 740.039 423.884 740.039 421.436ZM795.603 408.98V434H791.499V416.864L783.867 434H781.023L773.355 416.864V434H769.251V408.98H773.679L782.463 428.6L791.211 408.98H795.603ZM826.512 408.98V412.328H819.852V434H815.748V412.328H809.052V408.98H826.512ZM848.849 423.596C848.849 424.34 848.801 425.012 848.705 425.612H833.549C833.669 427.196 834.257 428.468 835.313 429.428C836.369 430.388 837.665 430.868 839.201 430.868C841.409 430.868 842.969 429.944 843.881 428.096H848.309C847.709 429.92 846.617 431.42 845.033 432.596C843.473 433.748 841.529 434.324 839.201 434.324C837.305 434.324 835.601 433.904 834.089 433.064C832.601 432.2 831.425 431 830.561 429.464C829.721 427.904 829.301 426.104 829.301 424.064C829.301 422.024 829.709 420.236 830.525 418.7C831.365 417.14 832.529 415.94 834.017 415.1C835.529 414.26 837.257 413.84 839.201 413.84C841.073 413.84 842.741 414.248 844.205 415.064C845.669 415.88 846.809 417.032 847.625 418.52C848.441 419.984 848.849 421.676 848.849 423.596ZM844.565 422.3C844.541 420.788 844.001 419.576 842.945 418.664C841.889 417.752 840.581 417.296 839.021 417.296C837.605 417.296 836.393 417.752 835.385 418.664C834.377 419.552 833.777 420.764 833.585 422.3H844.565ZM851.52 423.992C851.52 422 851.928 420.236 852.744 418.7C853.584 417.164 854.712 415.976 856.128 415.136C857.568 414.272 859.152 413.84 860.88 413.84C862.44 413.84 863.796 414.152 864.948 414.776C866.124 415.376 867.06 416.132 867.756 417.044V414.164H871.896V434H867.756V431.048C867.06 431.984 866.112 432.764 864.912 433.388C863.712 434.012 862.344 434.324 860.808 434.324C859.104 434.324 857.544 433.892 856.128 433.028C854.712 432.14 853.584 430.916 852.744 429.356C851.928 427.772 851.52 425.984 851.52 423.992ZM867.756 424.064C867.756 422.696 867.468 421.508 866.892 420.5C866.34 419.492 865.608 418.724 864.696 418.196C863.784 417.668 862.8 417.404 861.744 417.404C860.688 417.404 859.704 417.668 858.792 418.196C857.88 418.7 857.136 419.456 856.56 420.464C856.008 421.448 855.732 422.624 855.732 423.992C855.732 425.36 856.008 426.56 856.56 427.592C857.136 428.624 857.88 429.416 858.792 429.968C859.728 430.496 860.712 430.76 861.744 430.76C862.8 430.76 863.784 430.496 864.696 429.968C865.608 429.44 866.34 428.672 866.892 427.664C867.468 426.632 867.756 425.432 867.756 424.064ZM875.918 424.064C875.918 422.024 876.326 420.236 877.142 418.7C877.982 417.14 879.134 415.94 880.598 415.1C882.062 414.26 883.742 413.84 885.638 413.84C888.038 413.84 890.018 414.416 891.578 415.568C893.162 416.696 894.23 418.316 894.782 420.428H890.354C889.994 419.444 889.418 418.676 888.626 418.124C887.834 417.572 886.838 417.296 885.638 417.296C883.958 417.296 882.614 417.896 881.606 419.096C880.622 420.272 880.13 421.928 880.13 424.064C880.13 426.2 880.622 427.868 881.606 429.068C882.614 430.268 883.958 430.868 885.638 430.868C888.014 430.868 889.586 429.824 890.354 427.736H894.782C894.206 429.752 893.126 431.36 891.542 432.56C889.958 433.736 887.99 434.324 885.638 434.324C883.742 434.324 882.062 433.904 880.598 433.064C879.134 432.2 877.982 431 877.142 429.464C876.326 427.904 875.918 426.104 875.918 424.064ZM909.132 413.84C910.644 413.84 911.988 414.164 913.164 414.812C914.364 415.46 915.3 416.42 915.972 417.692C916.668 418.964 917.016 420.5 917.016 422.3V434H912.948V422.912C912.948 421.136 912.504 419.78 911.616 418.844C910.728 417.884 909.516 417.404 907.98 417.404C906.444 417.404 905.22 417.884 904.308 418.844C903.42 419.78 902.976 421.136 902.976 422.912V434H898.872V407.36H902.976V416.468C903.672 415.628 904.548 414.98 905.604 414.524C906.684 414.068 907.86 413.84 909.132 413.84ZM935.706 430.688H944.166V434H931.602V408.98H935.706V430.688ZM962.682 428.888H952.206L950.406 434H946.122L955.086 408.944H959.838L968.802 434H964.482L962.682 428.888ZM961.53 425.54L957.462 413.912L953.358 425.54H961.53Z" fill="#1C1C1C"/>
<path d="M857.776 508.888H847.3L845.5 514H841.216L850.18 488.944H854.932L863.896 514H859.576L857.776 508.888ZM856.624 505.54L852.556 493.912L848.452 505.54H856.624ZM866.426 501.436C866.426 498.988 866.99 496.792 868.118 494.848C869.27 492.904 870.818 491.392 872.762 490.312C874.73 489.208 876.878 488.656 879.206 488.656C881.87 488.656 884.234 489.316 886.298 490.636C888.386 491.932 889.898 493.78 890.834 496.18H885.902C885.254 494.86 884.354 493.876 883.202 493.228C882.05 492.58 880.718 492.256 879.206 492.256C877.55 492.256 876.074 492.628 874.778 493.372C873.482 494.116 872.462 495.184 871.718 496.576C870.998 497.968 870.638 499.588 870.638 501.436C870.638 503.284 870.998 504.904 871.718 506.296C872.462 507.688 873.482 508.768 874.778 509.536C876.074 510.28 877.55 510.652 879.206 510.652C880.718 510.652 882.05 510.328 883.202 509.68C884.354 509.032 885.254 508.048 885.902 506.728H890.834C889.898 509.128 888.386 510.976 886.298 512.272C884.234 513.568 881.87 514.216 879.206 514.216C876.854 514.216 874.706 513.676 872.762 512.596C870.818 511.492 869.27 509.968 868.118 508.024C866.99 506.08 866.426 503.884 866.426 501.436ZM921.99 488.98V514H917.886V496.864L910.254 514H907.41L899.742 496.864V514H895.638V488.98H900.066L908.85 508.6L917.598 488.98H921.99ZM969.315 488.98L961.899 514H957.255L951.999 495.064L946.419 514L941.811 514.036L934.719 488.98H939.075L944.259 509.356L949.875 488.98H954.483L959.703 509.248L964.923 488.98H969.315Z" fill="#1C1C1C"/>
<path d="M859.147 588.888H848.671L846.871 594H842.587L851.551 568.944H856.303L865.267 594H860.947L859.147 588.888ZM857.995 585.54L853.927 573.912L849.823 585.54H857.995ZM867.797 581.436C867.797 578.988 868.361 576.792 869.489 574.848C870.641 572.904 872.189 571.392 874.133 570.312C876.101 569.208 878.249 568.656 880.577 568.656C883.241 568.656 885.605 569.316 887.669 570.636C889.757 571.932 891.269 573.78 892.205 576.18H887.273C886.625 574.86 885.725 573.876 884.573 573.228C883.421 572.58 882.089 572.256 880.577 572.256C878.921 572.256 877.445 572.628 876.149 573.372C874.853 574.116 873.833 575.184 873.089 576.576C872.369 577.968 872.009 579.588 872.009 581.436C872.009 583.284 872.369 584.904 873.089 586.296C873.833 587.688 874.853 588.768 876.149 589.536C877.445 590.28 878.921 590.652 880.577 590.652C882.089 590.652 883.421 590.328 884.573 589.68C885.725 589.032 886.625 588.048 887.273 586.728H892.205C891.269 589.128 889.757 590.976 887.669 592.272C885.605 593.568 883.241 594.216 880.577 594.216C878.225 594.216 876.077 593.676 874.133 592.596C872.189 591.492 870.641 589.968 869.489 588.024C868.361 586.08 867.797 583.884 867.797 581.436ZM923.361 568.98V594H919.257V576.864L911.625 594H908.781L901.113 576.864V594H897.009V568.98H901.437L910.221 588.6L918.969 568.98H923.361ZM953.19 588.888H942.714L940.914 594H936.63L945.594 568.944H950.346L959.31 594H954.99L953.19 588.888ZM952.038 585.54L947.97 573.912L943.866 585.54H952.038ZM967.312 568.98V594H963.208V568.98H967.312Z" fill="#1C1C1C"/>
<path d="M802.44 668.888H791.964L790.164 674H785.88L794.844 648.944H799.596L808.56 674H804.24L802.44 668.888ZM801.288 665.54L797.22 653.912L793.116 665.54H801.288ZM811.09 661.436C811.09 658.988 811.654 656.792 812.782 654.848C813.934 652.904 815.482 651.392 817.426 650.312C819.394 649.208 821.542 648.656 823.87 648.656C826.534 648.656 828.898 649.316 830.962 650.636C833.05 651.932 834.562 653.78 835.498 656.18H830.566C829.918 654.86 829.018 653.876 827.866 653.228C826.714 652.58 825.382 652.256 823.87 652.256C822.214 652.256 820.738 652.628 819.442 653.372C818.146 654.116 817.126 655.184 816.382 656.576C815.662 657.968 815.302 659.588 815.302 661.436C815.302 663.284 815.662 664.904 816.382 666.296C817.126 667.688 818.146 668.768 819.442 669.536C820.738 670.28 822.214 670.652 823.87 670.652C825.382 670.652 826.714 670.328 827.866 669.68C829.018 669.032 829.918 668.048 830.566 666.728H835.498C834.562 669.128 833.05 670.976 830.962 672.272C828.898 673.568 826.534 674.216 823.87 674.216C821.518 674.216 819.37 673.676 817.426 672.596C815.482 671.492 813.934 669.968 812.782 668.024C811.654 666.08 811.09 663.884 811.09 661.436ZM866.654 648.98V674H862.55V656.864L854.918 674H852.074L844.406 656.864V674H840.302V648.98H844.73L853.514 668.6L862.262 648.98H866.654ZM901.379 648.98V674H897.275V663.056H885.503V674H881.399V648.98H885.503V659.708H897.275V648.98H901.379ZM905.414 663.992C905.414 662 905.822 660.236 906.638 658.7C907.478 657.164 908.606 655.976 910.022 655.136C911.462 654.272 913.046 653.84 914.774 653.84C916.334 653.84 917.69 654.152 918.842 654.776C920.018 655.376 920.954 656.132 921.65 657.044V654.164H925.79V674H921.65V671.048C920.954 671.984 920.006 672.764 918.806 673.388C917.606 674.012 916.238 674.324 914.702 674.324C912.998 674.324 911.438 673.892 910.022 673.028C908.606 672.14 907.478 670.916 906.638 669.356C905.822 667.772 905.414 665.984 905.414 663.992ZM921.65 664.064C921.65 662.696 921.362 661.508 920.786 660.5C920.234 659.492 919.502 658.724 918.59 658.196C917.678 657.668 916.694 657.404 915.638 657.404C914.582 657.404 913.598 657.668 912.686 658.196C911.774 658.7 911.03 659.456 910.454 660.464C909.902 661.448 909.626 662.624 909.626 663.992C909.626 665.36 909.902 666.56 910.454 667.592C911.03 668.624 911.774 669.416 912.686 669.968C913.622 670.496 914.606 670.76 915.638 670.76C916.694 670.76 917.678 670.496 918.59 669.968C919.502 669.44 920.234 668.672 920.786 667.664C921.362 666.632 921.65 665.432 921.65 664.064ZM929.812 664.064C929.812 662.024 930.22 660.236 931.036 658.7C931.876 657.14 933.028 655.94 934.492 655.1C935.956 654.26 937.636 653.84 939.532 653.84C941.932 653.84 943.912 654.416 945.472 655.568C947.056 656.696 948.124 658.316 948.676 660.428H944.248C943.888 659.444 943.312 658.676 942.52 658.124C941.728 657.572 940.732 657.296 939.532 657.296C937.852 657.296 936.508 657.896 935.5 659.096C934.516 660.272 934.024 661.928 934.024 664.064C934.024 666.2 934.516 667.868 935.5 669.068C936.508 670.268 937.852 670.868 939.532 670.868C941.908 670.868 943.48 669.824 944.248 667.736H948.676C948.1 669.752 947.02 671.36 945.436 672.56C943.852 673.736 941.884 674.324 939.532 674.324C937.636 674.324 935.956 673.904 934.492 673.064C933.028 672.2 931.876 671 931.036 669.464C930.22 667.904 929.812 666.104 929.812 664.064ZM960.614 664.1L969.758 674H964.214L956.87 665.468V674H952.766V647.36H956.87V662.84L964.07 654.164H969.758L960.614 664.1Z" fill="#1C1C1C"/>
<path d="M784.511 348.888H774.035L772.235 354H767.951L776.915 328.944H781.667L790.631 354H786.311L784.511 348.888ZM783.359 345.54L779.291 333.912L775.187 345.54H783.359ZM793.16 341.436C793.16 338.988 793.724 336.792 794.852 334.848C796.004 332.904 797.552 331.392 799.496 330.312C801.464 329.208 803.612 328.656 805.94 328.656C808.604 328.656 810.968 329.316 813.032 330.636C815.12 331.932 816.632 333.78 817.568 336.18H812.636C811.988 334.86 811.088 333.876 809.936 333.228C808.784 332.58 807.452 332.256 805.94 332.256C804.284 332.256 802.808 332.628 801.512 333.372C800.216 334.116 799.196 335.184 798.452 336.576C797.732 337.968 797.372 339.588 797.372 341.436C797.372 343.284 797.732 344.904 798.452 346.296C799.196 347.688 800.216 348.768 801.512 349.536C802.808 350.28 804.284 350.652 805.94 350.652C807.452 350.652 808.784 350.328 809.936 349.68C811.088 349.032 811.988 348.048 812.636 346.728H817.568C816.632 349.128 815.12 350.976 813.032 352.272C810.968 353.568 808.604 354.216 805.94 354.216C803.588 354.216 801.44 353.676 799.496 352.596C797.552 351.492 796.004 349.968 794.852 348.024C793.724 346.08 793.16 343.884 793.16 341.436ZM848.724 328.98V354H844.62V336.864L836.988 354H834.144L826.476 336.864V354H822.372V328.98H826.8L835.584 348.6L844.332 328.98H848.724ZM862.102 341.436C862.102 338.988 862.666 336.792 863.794 334.848C864.946 332.904 866.494 331.392 868.438 330.312C870.406 329.208 872.554 328.656 874.882 328.656C877.546 328.656 879.91 329.316 881.974 330.636C884.062 331.932 885.574 333.78 886.51 336.18H881.578C880.93 334.86 880.03 333.876 878.878 333.228C877.726 332.58 876.394 332.256 874.882 332.256C873.226 332.256 871.75 332.628 870.454 333.372C869.158 334.116 868.138 335.184 867.394 336.576C866.674 337.968 866.314 339.588 866.314 341.436C866.314 343.284 866.674 344.904 867.394 346.296C868.138 347.688 869.158 348.768 870.454 349.536C871.75 350.28 873.226 350.652 874.882 350.652C876.394 350.652 877.726 350.328 878.878 349.68C880.03 349.032 880.93 348.048 881.578 346.728H886.51C885.574 349.128 884.062 350.976 881.974 352.272C879.91 353.568 877.546 354.216 874.882 354.216C872.53 354.216 870.382 353.676 868.438 352.596C866.494 351.492 864.946 349.968 863.794 348.024C862.666 346.08 862.102 343.884 862.102 341.436ZM909.169 334.164L897.001 363.324H892.753L896.785 353.676L888.973 334.164H893.545L899.125 349.284L904.921 334.164H909.169ZM916.37 337.116C917.066 336.156 918.014 335.376 919.214 334.776C920.438 334.152 921.794 333.84 923.282 333.84C925.034 333.84 926.618 334.26 928.034 335.1C929.45 335.94 930.566 337.14 931.382 338.7C932.198 340.236 932.606 342 932.606 343.992C932.606 345.984 932.198 347.772 931.382 349.356C930.566 350.916 929.438 352.14 927.998 353.028C926.582 353.892 925.01 354.324 923.282 354.324C921.746 354.324 920.378 354.024 919.178 353.424C918.002 352.824 917.066 352.056 916.37 351.12V354H912.266V327.36H916.37V337.116ZM928.43 343.992C928.43 342.624 928.142 341.448 927.566 340.464C927.014 339.456 926.27 338.7 925.334 338.196C924.422 337.668 923.438 337.404 922.382 337.404C921.35 337.404 920.366 337.668 919.43 338.196C918.518 338.724 917.774 339.492 917.198 340.5C916.646 341.508 916.37 342.696 916.37 344.064C916.37 345.432 916.646 346.632 917.198 347.664C917.774 348.672 918.518 349.44 919.43 349.968C920.366 350.496 921.35 350.76 922.382 350.76C923.438 350.76 924.422 350.496 925.334 349.968C926.27 349.416 927.014 348.624 927.566 347.592C928.142 346.56 928.43 345.36 928.43 343.992ZM954.845 343.596C954.845 344.34 954.797 345.012 954.701 345.612H939.545C939.665 347.196 940.253 348.468 941.309 349.428C942.365 350.388 943.661 350.868 945.197 350.868C947.405 350.868 948.965 349.944 949.877 348.096H954.305C953.705 349.92 952.613 351.42 951.029 352.596C949.469 353.748 947.525 354.324 945.197 354.324C943.301 354.324 941.597 353.904 940.085 353.064C938.597 352.2 937.421 351 936.557 349.464C935.717 347.904 935.297 346.104 935.297 344.064C935.297 342.024 935.705 340.236 936.521 338.7C937.361 337.14 938.525 335.94 940.013 335.1C941.525 334.26 943.253 333.84 945.197 333.84C947.069 333.84 948.737 334.248 950.201 335.064C951.665 335.88 952.805 337.032 953.621 338.52C954.437 339.984 954.845 341.676 954.845 343.596ZM950.561 342.3C950.537 340.788 949.997 339.576 948.941 338.664C947.885 337.752 946.577 337.296 945.017 337.296C943.601 337.296 942.389 337.752 941.381 338.664C940.373 339.552 939.773 340.764 939.581 342.3H950.561ZM962.988 337.044C963.588 336.036 964.38 335.256 965.364 334.704C966.372 334.128 967.56 333.84 968.928 333.84V338.088H967.884C966.276 338.088 965.052 338.496 964.212 339.312C963.396 340.128 962.988 341.544 962.988 343.56V354H958.884V334.164H962.988V337.044Z" fill="#1C1C1C"/>
<defs>
<linearGradient id="paint0_linear" x1="178.211" y1="123.552" x2="279.897" y2="74.0364" gradientUnits="userSpaceOnUse">
<stop stop-color="#FF3939"/>
<stop offset="1" stop-color="#FF70D6"/>
</linearGradient>
<linearGradient id="paint1_linear" x1="177.136" y1="206.156" x2="250.114" y2="183.565" gradientUnits="userSpaceOnUse">
<stop stop-color="#FF6B6B"/>
<stop offset="1" stop-color="#FF9CE3"/>
</linearGradient>
<linearGradient id="paint2_linear" x1="177.936" y1="284.929" x2="280.074" y2="234.833" gradientUnits="userSpaceOnUse">
<stop stop-color="#F87615"/>
<stop offset="1" stop-color="#FECE5C"/>
</linearGradient>
<linearGradient id="paint3_linear" x1="175.538" y1="364.558" x2="266.858" y2="326.742" gradientUnits="userSpaceOnUse">
<stop stop-color="#F5B100"/>
<stop offset="1" stop-color="#FFE040"/>
</linearGradient>
<linearGradient id="paint4_linear" x1="176.708" y1="444.482" x2="295.451" y2="366.155" gradientUnits="userSpaceOnUse">
<stop stop-color="#50C509"/>
<stop offset="1" stop-color="#BCF223"/>
</linearGradient>
<linearGradient id="paint5_linear" x1="175.916" y1="599.648" x2="209.345" y2="594.268" gradientUnits="userSpaceOnUse">
<stop stop-color="#28B2FF"/>
<stop offset="1" stop-color="#2EE5FF"/>
</linearGradient>
<linearGradient id="paint6_linear" x1="175.018" y1="519.176" x2="208.447" y2="513.796" gradientUnits="userSpaceOnUse">
<stop stop-color="#02D1C7"/>
<stop offset="1" stop-color="#50F392"/>
</linearGradient>
<linearGradient id="paint7_linear" x1="177.684" y1="679.15" x2="267.728" y2="640.478" gradientUnits="userSpaceOnUse">
<stop stop-color="#FF56DA"/>
<stop offset="1" stop-color="#FF3D3D"/>
</linearGradient>
<linearGradient id="paint8_linear" x1="267.728" y1="653.922" x2="242.402" y2="702.852" gradientUnits="userSpaceOnUse">
<stop stop-color="#FF5F96"/>
<stop offset="1" stop-color="#BD00FF"/>
</linearGradient>
<clipPath id="clip0">
<rect width="237" height="49.9735" fill="white" transform="translate(25 638)"/>
</clipPath>
</defs>
</svg>
