<svg width="1002" height="400" viewBox="0 0 1002 400" fill="none" xmlns="http://www.w3.org/2000/svg">
<rect width="228" height="188" rx="10" fill="#F2F2F2"/>
<rect y="212" width="228" height="188" rx="10" fill="#F2F2F2"/>
<rect x="258" width="228" height="188" rx="10" fill="#F2F2F2"/>
<rect x="258" y="212" width="228" height="188" rx="10" fill="#F2F2F2"/>
<rect x="516" width="228" height="188" rx="10" fill="#F2F2F2"/>
<rect x="516" y="212" width="228" height="188" rx="10" fill="#F2F2F2"/>
<rect x="774" width="228" height="188" rx="10" fill="#F2F2F2"/>
<rect x="774" y="212" width="228" height="188" rx="10" fill="#F2F2F2"/>
<g clip-path="url(#clip0)">
<rect x="63.2021" y="91.6143" width="3.75693" height="13.1445" fill="#2D3D48"/>
<path fill-rule="evenodd" clip-rule="evenodd" d="M59.3884 104.967C63.3054 104.967 66.1181 101.607 66.1181 98.184C66.1181 94.9503 63.3242 91.4006 59.3884 91.4006C55.6244 91.4006 52.7666 94.4376 52.7666 98.184C52.7666 101.93 55.6244 104.967 59.3884 104.967ZM59.8007 101.539C61.7306 101.539 63.2026 100.101 63.2026 98.1845C63.2026 96.2677 61.7306 94.8299 59.8007 94.8299C57.8708 94.8299 56.3762 96.3318 56.3762 98.1845C56.3762 100.037 57.8708 101.539 59.8007 101.539Z" fill="#2D3D48"/>
<path fill-rule="evenodd" clip-rule="evenodd" d="M82.0505 95.2791L78.6109 96.877C78.1721 95.8883 77.2466 95.0925 75.9951 95.0925C74.2159 95.0925 72.838 96.4771 72.838 98.1852C72.838 99.8932 74.2159 101.278 75.9951 101.278C77.275 101.278 78.2138 100.561 78.64 99.5233L82.0731 101.142C81.0185 103.407 78.7552 104.969 75.9337 104.969C72.1351 104.969 69.1504 101.932 69.1504 98.1859C69.1504 94.4396 72.2707 91.4026 75.9337 91.4026C78.5796 91.4026 80.9424 92.9872 82.0505 95.2791Z" fill="#2D3D48"/>
<rect x="84.1787" y="91.6125" width="3.75693" height="13.1492" fill="#2D3D48"/>
<path d="M92.5273 96.7262L96.2843 96.4131V104.762H92.5273V96.7262Z" fill="#2D3D48"/>
<path d="M100.876 96.7262L104.633 96.4131V104.762H100.876V96.7262Z" fill="#2D3D48"/>
<path d="M91.3025 91.4028C94.6271 91.4028 96.2841 93.9501 96.2841 96.6208L92.5272 97.3193C92.5272 96.1644 91.4836 95.1247 90.2313 95.1247C88.979 95.1247 87.9353 96.2041 87.9353 97.4564L86.9403 96.0521C86.5487 95.1247 87.968 91.4028 91.3025 91.4028Z" fill="#2D3D48"/>
<path d="M99.6511 91.4028C102.976 91.4028 104.633 93.9501 104.633 96.6208L100.876 97.3193C100.876 96.1644 99.8322 95.1247 98.5799 95.1247C97.3276 95.1247 96.284 96.2041 96.284 97.4564L95.289 96.0521C94.8974 95.1247 96.3166 91.4028 99.6511 91.4028Z" fill="#2D3D48"/>
<path d="M99.6508 91.4028C102.976 91.4028 104.632 93.9501 104.632 96.6208L100.876 96.9339C100.876 95.779 99.832 94.8467 98.5796 94.8467C97.3273 94.8467 96.2837 95.6816 96.2837 96.9339L94.4053 94.951C95.2401 93.0726 96.3164 91.4028 99.6508 91.4028Z" fill="#2D3D48"/>
<circle cx="110.42" cy="102.303" r="2.44763" fill="#2D3D48"/>
<rect x="141.367" y="91.5969" width="3.75693" height="13.1445" fill="#2D3D48"/>
<path fill-rule="evenodd" clip-rule="evenodd" d="M137.552 104.951C141.469 104.951 144.282 101.591 144.282 98.1674C144.282 94.9337 141.488 91.384 137.552 91.384C133.788 91.384 130.931 94.421 130.931 98.1674C130.931 101.914 133.788 104.951 137.552 104.951ZM137.966 101.521C139.896 101.521 141.368 100.084 141.368 98.1667C141.368 96.2498 139.896 94.8121 137.966 94.8121C136.036 94.8121 134.542 96.314 134.542 98.1667C134.542 100.019 136.036 101.521 137.966 101.521Z" fill="#2D3D48"/>
<path fill-rule="evenodd" clip-rule="evenodd" d="M159.798 95.2592L156.357 96.8578C155.918 95.8691 154.992 95.0733 153.741 95.0733C151.962 95.0733 150.584 96.4579 150.584 98.166C150.584 99.874 151.962 101.259 153.741 101.259C155.021 101.259 155.96 100.542 156.386 99.5041L159.821 101.124C158.766 103.389 156.503 104.951 153.682 104.951C149.883 104.951 146.898 101.914 146.898 98.1674C146.898 94.421 150.019 91.384 153.682 91.384C156.327 91.384 158.69 92.968 159.798 95.2592Z" fill="#2D3D48"/>
<rect x="116.217" y="85.7668" width="3.75693" height="18.9707" fill="#2D3D48"/>
<path d="M125.316 97.5103L129.073 96.5798V104.748H125.316L125.316 97.5103Z" fill="#2D3D48"/>
<path d="M123.614 91.3645C127.257 91.3645 129.072 93.9117 129.072 96.5825L125.315 97.6953C125.315 96.2943 124.507 95.0864 122.679 95.0864C120.819 95.0864 119.974 96.443 119.974 97.6953L118.835 96.0138C118.208 94.7234 119.961 91.3645 123.614 91.3645Z" fill="#2D3D48"/>
<rect x="162.239" y="85.7666" width="3.75693" height="18.9756" fill="#2D3D48"/>
<path d="M169.991 91.8005H174.97L165.265 102.159L162.464 100.343L169.991 91.8005Z" fill="#2D3D48"/>
<path d="M170.457 104.76H175.082L168.188 95.9752L165.37 98.241L170.457 104.76Z" fill="#2D3D48"/>
<g style="mix-blend-mode:lighten">
<rect x="113.921" y="82.842" width="64.5528" height="28.4794" fill="url(#paint0_linear)"/>
<rect x="113.921" y="82.842" width="64.5528" height="28.4794" fill="url(#paint1_linear)"/>
</g>
</g>
<g clip-path="url(#clip1)">
<rect x="340.202" y="91.6133" width="3.75693" height="13.1445" fill="#2D3D48"/>
<path fill-rule="evenodd" clip-rule="evenodd" d="M336.388 104.967C340.305 104.967 343.118 101.607 343.118 98.1837C343.118 94.9501 340.324 91.4004 336.388 91.4004C332.624 91.4004 329.766 94.4374 329.766 98.1837C329.766 101.93 332.624 104.967 336.388 104.967ZM336.8 101.538C338.73 101.538 340.202 100.1 340.202 98.1832C340.202 96.2663 338.73 94.8286 336.8 94.8286C334.87 94.8286 333.376 96.3305 333.376 98.1832C333.376 100.036 334.87 101.538 336.8 101.538Z" fill="#2D3D48"/>
<path fill-rule="evenodd" clip-rule="evenodd" d="M359.05 95.2776L355.611 96.8752C355.172 95.8865 354.247 95.0907 352.995 95.0907C351.216 95.0907 349.838 96.4753 349.838 98.1834C349.838 99.8914 351.216 101.276 352.995 101.276C354.275 101.276 355.214 100.559 355.64 99.5215L359.073 101.14C358.018 103.405 355.755 104.967 352.933 104.967C349.135 104.967 346.15 101.93 346.15 98.184C346.15 94.4376 349.27 91.4006 352.933 91.4006C355.579 91.4006 357.942 92.9854 359.05 95.2776Z" fill="#2D3D48"/>
<rect x="361.178" y="91.6106" width="3.75693" height="13.1492" fill="#2D3D48"/>
<path d="M369.527 96.7242L373.284 96.4111V104.76H369.527V96.7242Z" fill="#2D3D48"/>
<path d="M377.875 96.7242L381.632 96.4111V104.76H377.875V96.7242Z" fill="#2D3D48"/>
<path d="M368.301 91.4009C371.626 91.4009 373.283 93.9481 373.283 96.6188L369.526 97.3173C369.526 96.1624 368.483 95.1227 367.23 95.1227C365.978 95.1227 364.934 96.2022 364.934 97.4545L363.939 96.0502C363.548 95.1227 364.967 91.4009 368.301 91.4009Z" fill="#2D3D48"/>
<path d="M376.651 91.4009C379.976 91.4009 381.633 93.9481 381.633 96.6188L377.876 97.3173C377.876 96.1624 376.832 95.1227 375.58 95.1227C374.328 95.1227 373.284 96.2022 373.284 97.4545L372.289 96.0502C371.897 95.1227 373.317 91.4009 376.651 91.4009Z" fill="#2D3D48"/>
<path d="M376.65 91.4009C379.975 91.4009 381.632 93.9481 381.632 96.6188L377.875 96.9319C377.875 95.777 376.831 94.8447 375.579 94.8447C374.327 94.8447 373.283 95.6796 373.283 96.9319L371.405 94.9491C372.24 93.0706 373.316 91.4009 376.65 91.4009Z" fill="#2D3D48"/>
<circle cx="387.42" cy="102.302" r="2.44763" fill="#2D3D48"/>
<rect x="403.653" y="91.6133" width="3.75693" height="13.1445" fill="#2D3D48"/>
<path fill-rule="evenodd" clip-rule="evenodd" d="M399.839 104.967C403.756 104.967 406.569 101.607 406.569 98.1833C406.569 94.9496 403.775 91.3999 399.839 91.3999C396.075 91.3999 393.217 94.4369 393.217 98.1833C393.217 101.93 396.075 104.967 399.839 104.967ZM400.251 101.537C402.181 101.537 403.653 100.1 403.653 98.1828C403.653 96.2659 402.181 94.8282 400.251 94.8282C398.321 94.8282 396.827 96.3301 396.827 98.1828C396.827 100.035 398.321 101.537 400.251 101.537Z" fill="#2D3D48"/>
<rect x="410.332" y="91.606" width="3.75693" height="13.1831" fill="#2D3D48"/>
<circle cx="412.21" cy="87.4351" r="2.2959" fill="#2D3D48"/>
<g style="mix-blend-mode:lighten">
<rect x="391.86" y="81.905" width="23.5852" height="28.4901" fill="url(#paint2_linear)"/>
</g>
</g>
<g clip-path="url(#clip2)">
<rect x="599.202" y="91.6143" width="3.75693" height="13.1445" fill="#2D3D48"/>
<path fill-rule="evenodd" clip-rule="evenodd" d="M595.388 104.967C599.305 104.967 602.118 101.607 602.118 98.184C602.118 94.9503 599.324 91.4006 595.388 91.4006C591.624 91.4006 588.766 94.4376 588.766 98.184C588.766 101.93 591.624 104.967 595.388 104.967ZM595.8 101.539C597.73 101.539 599.202 100.101 599.202 98.1841C599.202 96.2673 597.73 94.8295 595.8 94.8295C593.87 94.8295 592.376 96.3314 592.376 98.1841C592.376 100.037 593.87 101.539 595.8 101.539Z" fill="#2D3D48"/>
<path fill-rule="evenodd" clip-rule="evenodd" d="M618.05 95.2794L614.61 96.8773C614.172 95.8886 613.246 95.0928 611.995 95.0928C610.215 95.0928 608.838 96.4774 608.838 98.1854C608.838 99.8935 610.215 101.278 611.995 101.278C613.275 101.278 614.213 100.562 614.64 99.5236L618.073 101.142C617.018 103.408 614.755 104.969 611.933 104.969C608.135 104.969 605.15 101.932 605.15 98.1859C605.15 94.4396 608.27 91.4026 611.933 91.4026C614.579 91.4026 616.942 92.9873 618.05 95.2794Z" fill="#2D3D48"/>
<rect x="620.178" y="91.6125" width="3.75693" height="13.1492" fill="#2D3D48"/>
<path d="M628.527 96.7254L632.284 96.4124V104.761H628.527V96.7254Z" fill="#2D3D48"/>
<path d="M636.875 96.7254L640.632 96.4124V104.761H636.875V96.7254Z" fill="#2D3D48"/>
<path d="M627.301 91.4021C630.626 91.4021 632.283 93.9493 632.283 96.6201L628.526 97.3185C628.526 96.1636 627.483 95.124 626.23 95.124C624.978 95.124 623.934 96.2034 623.934 97.4557L622.939 96.0514C622.548 95.124 623.967 91.4021 627.301 91.4021Z" fill="#2D3D48"/>
<path d="M635.651 91.4021C638.976 91.4021 640.633 93.9493 640.633 96.6201L636.876 97.3185C636.876 96.1636 635.832 95.124 634.58 95.124C633.328 95.124 632.284 96.2034 632.284 97.4557L631.289 96.0514C630.897 95.124 632.317 91.4021 635.651 91.4021Z" fill="#2D3D48"/>
<path d="M635.65 91.4021C638.975 91.4021 640.632 93.9493 640.632 96.6201L636.875 96.9331C636.875 95.7782 635.831 94.846 634.579 94.846C633.327 94.846 632.283 95.6808 632.283 96.9331L630.405 94.9503C631.24 93.0718 632.316 91.4021 635.65 91.4021Z" fill="#2D3D48"/>
<circle cx="646.419" cy="102.303" r="2.44763" fill="#2D3D48"/>
<path d="M661.797 91.6096L658.226 91.6096L654.179 104.744L657.849 104.744L661.797 91.6096Z" fill="#2D3D48"/>
<path d="M658.249 91.6096L661.82 91.6096L665.867 104.744L662.197 104.744L658.249 91.6096Z" fill="#2D3D48"/>
<path d="M650.13 91.6508L654.024 91.6104L656.893 104.745L653.748 104.745L650.13 91.6508Z" fill="#2D3D48"/>
<path d="M669.917 91.6501L666.024 91.6096L663.154 104.744L666.3 104.744L669.917 91.6501Z" fill="#2D3D48"/>
<g style="mix-blend-mode:lighten">
<rect x="648.877" y="81.9053" width="23.5852" height="28.4901" fill="url(#paint3_linear)"/>
</g>
</g>
<g clip-path="url(#clip3)">
<rect x="813.202" y="91.6138" width="3.75693" height="13.1445" fill="#2D3D48"/>
<path fill-rule="evenodd" clip-rule="evenodd" d="M809.388 104.967C813.305 104.967 816.118 101.607 816.118 98.1833C816.118 94.9496 813.324 91.3999 809.388 91.3999C805.624 91.3999 802.766 94.4369 802.766 98.1833C802.766 101.93 805.624 104.967 809.388 104.967ZM809.8 101.538C811.73 101.538 813.202 100.1 813.202 98.1832C813.202 96.2663 811.73 94.8286 809.8 94.8286C807.87 94.8286 806.376 96.3305 806.376 98.1832C806.376 100.036 807.87 101.538 809.8 101.538Z" fill="#2D3D48"/>
<path fill-rule="evenodd" clip-rule="evenodd" d="M832.051 95.2786L828.611 96.8764C828.172 95.8877 827.247 95.0919 825.995 95.0919C824.216 95.0919 822.838 96.4765 822.838 98.1846C822.838 99.8926 824.216 101.277 825.995 101.277C827.275 101.277 828.214 100.561 828.64 99.5227L832.072 101.141C831.018 103.406 828.755 104.968 825.933 104.968C822.135 104.968 819.15 101.931 819.15 98.1845C819.15 94.4381 822.27 91.4011 825.933 91.4011C828.58 91.4011 830.943 92.9862 832.051 95.2786Z" fill="#2D3D48"/>
<rect x="834.178" y="91.6116" width="3.75693" height="13.1492" fill="#2D3D48"/>
<path d="M842.527 96.7252L846.284 96.4121V104.761H842.527V96.7252Z" fill="#2D3D48"/>
<path d="M850.875 96.7252L854.632 96.4121V104.761H850.875V96.7252Z" fill="#2D3D48"/>
<path d="M841.301 91.4019C844.626 91.4019 846.283 93.9491 846.283 96.6198L842.526 97.3183C842.526 96.1634 841.483 95.1237 840.23 95.1237C838.978 95.1237 837.934 96.2032 837.934 97.4555L836.939 96.0511C836.548 95.1237 837.967 91.4019 841.301 91.4019Z" fill="#2D3D48"/>
<path d="M849.651 91.4019C852.976 91.4019 854.633 93.9491 854.633 96.6198L850.876 97.3183C850.876 96.1634 849.832 95.1237 848.58 95.1237C847.328 95.1237 846.284 96.2032 846.284 97.4555L845.289 96.0511C844.897 95.1237 846.317 91.4019 849.651 91.4019Z" fill="#2D3D48"/>
<path d="M849.65 91.4019C852.975 91.4019 854.632 93.9491 854.632 96.6198L850.875 96.9329C850.875 95.778 849.831 94.8457 848.579 94.8457C847.327 94.8457 846.283 95.6806 846.283 96.9329L844.405 94.9501C845.24 93.0716 846.316 91.4019 849.65 91.4019Z" fill="#2D3D48"/>
<circle cx="860.42" cy="102.302" r="2.44763" fill="#2D3D48"/>
<path d="M867.052 100.797L870.809 100.267V87.792L867.052 89.3272L867.052 100.797Z" fill="#2D3D48"/>
<path d="M864.546 91.582H873.939V94.9215H864.546V91.582Z" fill="#2D3D48"/>
<path d="M871.435 104.722C867.514 104.722 867.052 102.301 867.052 100.76C868.124 100.115 870.057 99.9264 870.809 99.9264C870.809 100.66 871.33 101.394 872.374 101.394H873.939L873.939 104.649C873 104.722 872.632 104.722 871.435 104.722Z" fill="#2D3D48"/>
<path fill-rule="evenodd" clip-rule="evenodd" d="M882.81 91.4004C879.147 91.4004 876.027 94.437 876.026 98.183L876.026 98.1831C876.026 101.929 879.011 104.966 882.809 104.966C885.566 104.966 887.799 103.592 888.816 101.984L885.72 100.523C885.183 101.077 884.454 101.479 883.645 101.654C883.386 101.718 883.109 101.751 882.816 101.751L882.781 101.751L882.736 101.751C880.766 101.751 879.241 100.188 879.241 98.2585L879.241 98.232C879.241 98.2163 879.24 98.2005 879.24 98.1847C879.24 96.2149 880.801 94.6181 882.816 94.6181C884.571 94.6181 885.759 96.0247 886.037 97.5187C886.424 97.511 886.648 97.7004 886.648 98.3219C886.648 98.4776 886.636 98.6305 886.613 98.78L889.092 99.5157L889.346 99.5416C890.151 94.4251 886.473 91.4004 882.81 91.4004Z" fill="#2D3D48"/>
<path d="M877.813 96.5837H886.188L889.346 99.5058H888.974H877.861L877.813 96.5837Z" fill="#2D3D48"/>
<rect x="901.803" y="91.6152" width="3.75693" height="13.1445" fill="#2D3D48"/>
<path fill-rule="evenodd" clip-rule="evenodd" d="M897.988 104.967C901.905 104.967 904.718 101.607 904.718 98.1837C904.718 94.9501 901.924 91.4004 897.988 91.4004C894.224 91.4004 891.366 94.4374 891.366 98.1837C891.366 101.93 894.224 104.967 897.988 104.967ZM898.4 101.539C900.33 101.539 901.802 100.101 901.802 98.1844C901.802 96.2676 900.33 94.8298 898.4 94.8298C896.47 94.8298 894.976 96.3317 894.976 98.1844C894.976 100.037 896.47 101.539 898.4 101.539Z" fill="#2D3D48"/>
<path fill-rule="evenodd" clip-rule="evenodd" d="M920.86 95.278L917.419 96.8766C916.98 95.8879 916.055 95.0921 914.803 95.0921C913.024 95.0921 911.646 96.4768 911.646 98.1848C911.646 99.8928 913.024 101.277 914.803 101.277C916.083 101.277 917.022 100.561 917.448 99.5229L920.881 101.142C919.826 103.406 917.563 104.967 914.743 104.967C910.944 104.967 907.959 101.93 907.959 98.1837C907.959 94.4374 911.08 91.4004 914.743 91.4004C917.389 91.4004 919.752 92.9855 920.86 95.278Z" fill="#2D3D48"/>
<rect x="922.988" y="85.6702" width="3.75693" height="19.086" fill="#2D3D48"/>
<path d="M932.086 97.5116L935.843 96.5803V104.755H932.086L932.086 97.5116Z" fill="#2D3D48"/>
<path d="M930.386 91.3657C934.028 91.3657 935.844 93.9129 935.844 96.5837L932.087 97.6965C932.087 96.2956 931.279 95.0876 929.45 95.0876C927.591 95.0876 926.745 96.4442 926.745 97.6965L925.606 96.015C924.98 94.7246 926.732 91.3657 930.386 91.3657Z" fill="#2D3D48"/>
<path d="M939.372 85.7656H943.442V104.55H939.372V85.7656Z" fill="#2D3D48"/>
<path d="M939.373 100.897H951.27V104.759H939.373V100.897Z" fill="#2D3D48"/>
<path d="M960.537 85.7654L963.793 85.7654L963.637 88.0225L957.31 104.759L953.357 104.759L960.537 85.7654Z" fill="#2D3D48"/>
<path d="M964.615 85.7654L961.392 85.7654L961.546 88.0225L967.81 104.759L971.724 104.759L964.615 85.7654Z" fill="#2D3D48"/>
<path d="M960.987 85.7654L964.21 85.7654L964.057 88.0225L957.793 104.759L953.879 104.759L960.987 85.7654Z" fill="#2D3D48"/>
<path d="M965.137 85.7654L961.914 85.7654L969.022 104.759L972.245 104.759L965.137 85.7654Z" fill="#2D3D48"/>
<path d="M957.113 98.4976H968.279V101.941H957.113V98.4976Z" fill="#2D3D48"/>
<g style="mix-blend-mode:lighten">
<rect x="864.547" y="77.9392" width="117.195" height="34.5429" fill="url(#paint4_linear)"/>
</g>
</g>
<g clip-path="url(#clip4)">
<rect x="57.2021" y="303.614" width="3.75693" height="13.1445" fill="#2D3D48"/>
<path fill-rule="evenodd" clip-rule="evenodd" d="M53.3884 316.967C57.3054 316.967 60.1181 313.607 60.1181 310.184C60.1181 306.95 57.3242 303.401 53.3884 303.401C49.6244 303.401 46.7666 306.438 46.7666 310.184C46.7666 313.93 49.6244 316.967 53.3884 316.967ZM53.8007 313.539C55.7306 313.539 57.2026 312.101 57.2026 310.184C57.2026 308.267 55.7306 306.829 53.8007 306.829C51.8708 306.829 50.3762 308.331 50.3762 310.184C50.3762 312.037 51.8708 313.539 53.8007 313.539Z" fill="#2D3D48"/>
<path fill-rule="evenodd" clip-rule="evenodd" d="M76.0512 307.28L72.6117 308.878C72.1728 307.889 71.2474 307.094 69.9958 307.094C68.2166 307.094 66.8387 308.478 66.8387 310.186C66.8387 311.894 68.2166 313.279 69.9958 313.279C71.2757 313.279 72.2146 312.562 72.6407 311.524L76.0728 313.143C75.0179 315.408 72.7549 316.969 69.9337 316.969C66.1351 316.969 63.1504 313.932 63.1504 310.186C63.1504 306.439 66.2707 303.402 69.9337 303.402C72.5802 303.402 74.9434 304.988 76.0512 307.28Z" fill="#2D3D48"/>
<rect x="78.1787" y="303.613" width="3.75693" height="13.1492" fill="#2D3D48"/>
<path d="M86.5273 308.725L90.2843 308.412V316.76H86.5273V308.725Z" fill="#2D3D48"/>
<path d="M94.876 308.725L98.6329 308.412V316.76H94.876V308.725Z" fill="#2D3D48"/>
<path d="M85.3025 303.401C88.6271 303.401 90.2841 305.949 90.2841 308.619L86.5272 309.318C86.5272 308.163 85.4836 307.123 84.2313 307.123C82.979 307.123 81.9353 308.203 81.9353 309.455L80.9403 308.051C80.5487 307.123 81.968 303.401 85.3025 303.401Z" fill="#2D3D48"/>
<path d="M93.6511 303.401C96.9758 303.401 98.6327 305.949 98.6327 308.619L94.8758 309.318C94.8758 308.163 93.8322 307.123 92.5799 307.123C91.3276 307.123 90.284 308.203 90.284 309.455L89.289 308.051C88.8974 307.123 90.3166 303.401 93.6511 303.401Z" fill="#2D3D48"/>
<path d="M93.6508 303.401C96.9755 303.401 98.6325 305.949 98.6325 308.619L94.8755 308.933C94.8755 307.778 93.832 306.845 92.5796 306.845C91.3273 306.845 90.2837 307.68 90.2837 308.933L88.4053 306.95C89.2401 305.071 90.3164 303.401 93.6508 303.401Z" fill="#2D3D48"/>
<circle cx="104.42" cy="314.303" r="2.44763" fill="#2D3D48"/>
<path fill-rule="evenodd" clip-rule="evenodd" d="M122.701 307.25L119.26 308.849C118.821 307.86 117.896 307.064 116.644 307.064C114.865 307.064 113.487 308.449 113.487 310.157C113.487 311.865 114.865 313.25 116.644 313.25C117.924 313.25 118.863 312.533 119.289 311.495L122.723 313.114C121.668 315.379 119.405 316.941 116.584 316.941C112.785 316.941 109.801 313.904 109.801 310.157C109.801 306.411 112.921 303.374 116.584 303.374C119.23 303.374 121.593 304.959 122.701 307.25Z" fill="#2D3D48"/>
<rect width="3.75693" height="19.1245" transform="matrix(-1 0 0 1 143.926 297.64)" fill="#2D3D48"/>
<path fill-rule="evenodd" clip-rule="evenodd" d="M147.733 316.941C143.816 316.941 141.003 313.581 141.003 310.158C141.003 306.924 143.797 303.374 147.733 303.374C151.497 303.374 154.354 306.411 154.354 310.158C154.354 313.904 151.497 316.941 147.733 316.941ZM147.321 313.512C145.391 313.512 143.919 312.075 143.919 310.158C143.919 308.241 145.391 306.803 147.321 306.803C149.251 306.803 150.745 308.305 150.745 310.158C150.745 312.01 149.251 313.512 147.321 313.512Z" fill="#2D3D48"/>
<path d="M123.472 303.569L127.86 303.569L132.698 314.874L129.448 317.064L123.472 303.569Z" fill="#2D3D48"/>
<path d="M138.551 303.569L134.351 303.569L130.389 315.489L129.485 316.834L129.249 317.728L132.961 318.647L138.551 303.569Z" fill="#2D3D48"/>
<path fill-rule="evenodd" clip-rule="evenodd" d="M126.285 319.381C127.614 319.381 128.941 318.684 129.251 317.715L132.961 318.644C131.82 321.318 129.987 323.053 126.285 323.053H125.81L125.81 319.381L126.285 319.381Z" fill="#2D3D48"/>
<rect x="172.104" y="303.58" width="3.75692" height="13.1522" fill="#2D3D48"/>
<path fill-rule="evenodd" clip-rule="evenodd" d="M180.541 303.419C180.258 303.396 179.958 303.384 179.639 303.384C176.021 303.384 174.705 306.907 174.4 309.056L175.861 311.22C175.861 309.348 177.226 307.584 179.976 307.584H180.541V303.419Z" fill="#2D3D48"/>
<path fill-rule="evenodd" clip-rule="evenodd" d="M163.128 303.374C159.465 303.374 156.345 306.411 156.345 310.157L156.347 310.158L156.346 310.158C156.346 313.904 159.331 316.941 163.129 316.941C165.888 316.941 168.12 315.565 169.137 313.956L166.041 312.496C165.5 313.054 164.764 313.458 163.948 313.631C163.693 313.692 163.422 313.724 163.136 313.724L163.121 313.724C163.1 313.724 163.078 313.724 163.056 313.724C161.086 313.724 159.561 312.16 159.561 310.231L159.561 310.226C159.561 310.203 159.56 310.18 159.56 310.157C159.56 308.187 161.121 306.591 163.136 306.591C164.891 306.591 166.079 307.997 166.357 309.492C166.745 309.484 166.969 309.673 166.969 310.295C166.969 310.45 166.957 310.603 166.934 310.752L169.422 311.49L169.664 311.515C170.469 306.399 166.791 303.374 163.128 303.374Z" fill="#2D3D48"/>
<path d="M158.133 308.593H166.507L169.665 311.515H169.293H158.18L158.133 308.593Z" fill="#2D3D48"/>
<g style="mix-blend-mode:lighten">
<rect x="108.13" y="291.818" width="73.5733" height="34.5429" fill="url(#paint5_linear)"/>
</g>
</g>
<g clip-path="url(#clip5)">
<rect x="310.202" y="303.612" width="3.75693" height="13.1445" fill="#2D3D48"/>
<path fill-rule="evenodd" clip-rule="evenodd" d="M306.388 316.965C310.305 316.965 313.118 313.605 313.118 310.182C313.118 306.948 310.324 303.398 306.388 303.398C302.624 303.398 299.766 306.435 299.766 310.182C299.766 313.928 302.624 316.965 306.388 316.965ZM306.8 313.536C308.73 313.536 310.202 312.099 310.202 310.182C310.202 308.265 308.73 306.827 306.8 306.827C304.87 306.827 303.376 308.329 303.376 310.182C303.376 312.035 304.87 313.536 306.8 313.536Z" fill="#2D3D48"/>
<path fill-rule="evenodd" clip-rule="evenodd" d="M329.05 307.276L325.61 308.874C325.172 307.886 324.246 307.09 322.995 307.09C321.215 307.09 319.837 308.474 319.837 310.182C319.837 311.891 321.215 313.275 322.995 313.275C324.274 313.275 325.213 312.559 325.639 311.521L329.073 313.139C328.018 315.405 325.755 316.966 322.933 316.966C319.135 316.966 316.15 313.929 316.15 310.183C316.15 306.437 319.27 303.4 322.933 303.4C325.579 303.4 327.942 304.984 329.05 307.276Z" fill="#2D3D48"/>
<rect x="331.178" y="303.61" width="3.75693" height="13.1492" fill="#2D3D48"/>
<path d="M339.527 308.723L343.284 308.41V316.759H339.527V308.723Z" fill="#2D3D48"/>
<path d="M347.875 308.723L351.632 308.41V316.759H347.875V308.723Z" fill="#2D3D48"/>
<path d="M338.301 303.4C341.626 303.4 343.283 305.947 343.283 308.617L339.526 309.316C339.526 308.161 338.483 307.121 337.23 307.121C335.978 307.121 334.934 308.201 334.934 309.453L333.939 308.049C333.548 307.121 334.967 303.4 338.301 303.4Z" fill="#2D3D48"/>
<path d="M346.651 303.4C349.976 303.4 351.633 305.947 351.633 308.617L347.876 309.316C347.876 308.161 346.832 307.121 345.58 307.121C344.328 307.121 343.284 308.201 343.284 309.453L342.289 308.049C341.897 307.121 343.317 303.4 346.651 303.4Z" fill="#2D3D48"/>
<path d="M346.65 303.4C349.975 303.4 351.632 305.947 351.632 308.617L347.875 308.931C347.875 307.776 346.831 306.843 345.579 306.843C344.327 306.843 343.283 307.678 343.283 308.931L341.405 306.948C342.24 305.069 343.316 303.4 346.65 303.4Z" fill="#2D3D48"/>
<circle cx="357.419" cy="314.3" r="2.44763" fill="#2D3D48"/>
<rect x="373.646" y="297.646" width="3.75693" height="19.1186" fill="#2D3D48"/>
<path fill-rule="evenodd" clip-rule="evenodd" d="M369.839 316.942C373.756 316.942 376.569 313.582 376.569 310.158C376.569 306.925 373.775 303.375 369.839 303.375C366.075 303.375 363.217 306.412 363.217 310.158C363.217 313.905 366.075 316.942 369.839 316.942ZM370.251 313.513C372.181 313.513 373.653 312.075 373.653 310.158C373.653 308.242 372.181 306.804 370.251 306.804C368.321 306.804 366.827 308.306 366.827 310.158C366.827 312.011 368.321 313.513 370.251 313.513Z" fill="#2D3D48"/>
<path fill-rule="evenodd" clip-rule="evenodd" d="M386.133 303.377C382.47 303.377 379.349 306.414 379.349 310.16L379.35 310.16L379.349 310.16C379.349 313.906 382.334 316.943 386.132 316.943C388.891 316.943 391.124 315.567 392.141 313.959L389.045 312.498C388.504 313.056 387.769 313.459 386.955 313.633C386.7 313.694 386.428 313.727 386.14 313.727L386.134 313.727C386.109 313.727 386.085 313.727 386.06 313.727C384.09 313.727 382.565 312.164 382.565 310.234C382.565 310.214 382.565 310.195 382.565 310.175L382.565 310.16C382.565 308.19 384.126 306.593 386.14 306.593C387.895 306.593 389.084 308 389.362 309.495C389.749 309.487 389.972 309.677 389.972 310.298C389.972 310.453 389.96 310.606 389.937 310.755L392.424 311.493L392.669 311.518C393.474 306.401 389.796 303.377 386.133 303.377Z" fill="#2D3D48"/>
<path d="M381.137 308.595H389.511L392.67 311.517H392.298H381.185L381.137 308.595Z" fill="#2D3D48"/>
<path fill-rule="evenodd" clip-rule="evenodd" d="M399.214 303.43C402.542 303.034 404.488 304.903 405.069 306.324L401.907 307.618C401.696 307.251 400.967 306.576 400.04 306.576C398.886 306.576 398.656 307.014 398.577 307.245C398.47 307.553 398.634 307.838 399.014 307.978C399.376 308.112 399.763 308.208 400.17 308.308L400.17 308.308C400.365 308.357 400.564 308.406 400.767 308.461L400.798 308.47L400.829 308.478L400.829 308.478L400.857 308.486C401.706 308.718 402.662 309.014 403.782 309.859C404.582 310.462 405.065 311.302 405.166 312.239C405.261 313.133 404.995 313.965 404.591 314.627C403.801 315.921 402.26 316.935 400.468 316.935L400.449 316.935C400.03 316.935 398.91 316.935 397.724 316.602C396.521 316.264 394.981 315.503 394.168 313.786L397.348 312.281C397.358 312.307 397.534 312.745 398.176 313.22C398.838 313.711 399.636 313.784 400.469 313.605C401.403 313.404 401.55 312.801 401.273 312.527C400.949 312.207 400.299 312.023 399.654 311.84C399.577 311.818 399.5 311.796 399.423 311.774L399.423 311.773C399.393 311.765 399.363 311.756 399.333 311.747C399.327 311.746 399.321 311.744 399.315 311.742L399.314 311.742C398.648 311.554 397.825 311.285 396.834 310.754C396.025 310.32 395.347 309.687 394.972 308.856C394.587 308.005 394.581 307.075 394.915 306.236C395.566 304.6 397.293 303.659 399.214 303.43Z" fill="#2D3D48"/>
<rect x="407.63" y="303.582" width="3.75693" height="13.1831" fill="#2D3D48"/>
<circle cx="409.509" cy="299.411" r="2.2959" fill="#2D3D48"/>
<rect x="424.236" y="303.576" width="3.75693" height="12.111" fill="#2D3D48"/>
<path fill-rule="evenodd" clip-rule="evenodd" d="M414.844 319.686C415.992 321.356 418.052 322.608 420.769 322.608C424.815 322.608 427.993 319.677 427.993 315.687L424.237 315.687C424.215 317.512 422.647 319.111 420.782 319.111C419.851 319.111 418.449 318.382 417.823 317.651L414.844 319.686Z" fill="#2D3D48"/>
<path fill-rule="evenodd" clip-rule="evenodd" d="M420.41 316.942C424.327 316.942 427.14 313.582 427.14 310.158C427.14 306.925 424.346 303.375 420.41 303.375C416.646 303.375 413.788 306.412 413.788 310.158C413.788 313.905 416.646 316.942 420.41 316.942ZM420.822 313.513C422.751 313.513 424.223 312.075 424.223 310.158C424.223 308.242 422.751 306.804 420.822 306.804C418.892 306.804 417.397 308.306 417.397 310.158C417.397 312.011 418.892 313.513 420.822 313.513Z" fill="#2D3D48"/>
<rect x="430.485" y="303.598" width="3.75693" height="13.1493" fill="#2D3D48"/>
<path d="M439.584 309.521L443.341 308.591V316.759H439.584L439.584 309.521Z" fill="#2D3D48"/>
<path d="M437.883 303.376C441.526 303.376 443.341 305.923 443.341 308.594L439.584 309.707C439.584 308.306 438.776 307.098 436.948 307.098C435.088 307.098 434.243 308.454 434.243 309.707L433.104 308.025C432.477 306.735 434.23 303.376 437.883 303.376Z" fill="#2D3D48"/>
<g style="mix-blend-mode:lighten">
<rect x="361.86" y="291.714" width="87.14" height="34.5429" fill="url(#paint6_linear)"/>
</g>
</g>
<g clip-path="url(#clip6)">
<rect x="568.202" y="303.614" width="3.75693" height="13.1445" fill="#2D3D48"/>
<path fill-rule="evenodd" clip-rule="evenodd" d="M564.388 316.967C568.305 316.967 571.118 313.607 571.118 310.184C571.118 306.95 568.324 303.401 564.388 303.401C560.624 303.401 557.766 306.438 557.766 310.184C557.766 313.93 560.624 316.967 564.388 316.967ZM564.8 313.538C566.73 313.538 568.202 312.101 568.202 310.184C568.202 308.267 566.73 306.829 564.8 306.829C562.87 306.829 561.376 308.331 561.376 310.184C561.376 312.036 562.87 313.538 564.8 313.538Z" fill="#2D3D48"/>
<path fill-rule="evenodd" clip-rule="evenodd" d="M587.05 307.279L583.61 308.877C583.171 307.888 582.246 307.092 580.995 307.092C579.215 307.092 577.837 308.477 577.837 310.185C577.837 311.893 579.215 313.278 580.995 313.278C582.275 313.278 583.214 312.561 583.64 311.523L587.073 313.142C586.018 315.407 583.755 316.969 580.933 316.969C577.135 316.969 574.15 313.932 574.15 310.185C574.15 306.439 577.27 303.402 580.933 303.402C583.579 303.402 585.942 304.987 587.05 307.279Z" fill="#2D3D48"/>
<rect x="589.178" y="303.613" width="3.75693" height="13.1492" fill="#2D3D48"/>
<path d="M597.526 308.725L601.283 308.412V316.761H597.526V308.725Z" fill="#2D3D48"/>
<path d="M605.875 308.725L609.632 308.412V316.761H605.875V308.725Z" fill="#2D3D48"/>
<path d="M596.301 303.402C599.626 303.402 601.283 305.949 601.283 308.62L597.526 309.319C597.526 308.164 596.483 307.124 595.23 307.124C593.978 307.124 592.934 308.203 592.934 309.456L591.939 308.051C591.548 307.124 592.967 303.402 596.301 303.402Z" fill="#2D3D48"/>
<path d="M604.65 303.402C607.975 303.402 609.632 305.949 609.632 308.62L605.875 309.319C605.875 308.164 604.831 307.124 603.579 307.124C602.327 307.124 601.283 308.203 601.283 309.456L600.288 308.051C599.896 307.124 601.316 303.402 604.65 303.402Z" fill="#2D3D48"/>
<path d="M604.65 303.402C607.975 303.402 609.632 305.949 609.632 308.62L605.875 308.933C605.875 307.778 604.831 306.846 603.579 306.846C602.327 306.846 601.283 307.681 601.283 308.933L599.405 306.95C600.24 305.072 601.316 303.402 604.65 303.402Z" fill="#2D3D48"/>
<circle cx="615.419" cy="314.303" r="2.44763" fill="#2D3D48"/>
<path fill-rule="evenodd" clip-rule="evenodd" d="M626.052 303.467C629.379 303.071 631.326 304.94 631.907 306.361L628.745 307.655C628.534 307.288 627.805 306.613 626.878 306.613C625.724 306.613 625.494 307.051 625.415 307.282C625.308 307.59 625.472 307.875 625.852 308.015C626.214 308.149 626.601 308.245 627.007 308.345L627.007 308.345C627.19 308.391 627.376 308.437 627.566 308.488L627.694 308.523C628.544 308.756 629.5 309.051 630.62 309.896C631.42 310.5 631.903 311.339 632.003 312.276C632.099 313.17 631.833 314.002 631.429 314.664C630.639 315.958 629.098 316.972 627.306 316.972L627.287 316.972C626.868 316.972 625.748 316.972 624.562 316.639C623.359 316.301 621.819 315.541 621.006 313.823L624.186 312.318C624.196 312.345 624.373 312.782 625.014 313.258C625.675 313.748 626.474 313.822 627.307 313.642C628.241 313.441 628.388 312.838 628.111 312.565C627.787 312.244 627.137 312.06 626.492 311.877C626.415 311.855 626.338 311.833 626.261 311.811L626.261 311.81C626.234 311.802 626.206 311.795 626.178 311.787C626.169 311.784 626.161 311.782 626.153 311.779L626.152 311.779C625.486 311.591 624.663 311.322 623.671 310.791C622.863 310.358 622.185 309.724 621.809 308.893C621.425 308.042 621.419 307.113 621.753 306.273C622.404 304.637 624.131 303.696 626.052 303.467Z" fill="#2D3D48"/>
<rect x="670.779" y="297.14" width="3.75693" height="19.6519" fill="#2D3D48"/>
<path fill-rule="evenodd" clip-rule="evenodd" d="M666.972 316.968C670.889 316.968 673.702 313.608 673.702 310.185C673.702 306.951 670.908 303.401 666.972 303.401C663.208 303.401 660.35 306.438 660.35 310.185C660.35 313.931 663.208 316.968 666.972 316.968ZM667.384 313.539C669.314 313.539 670.785 312.101 670.785 310.185C670.785 308.268 669.314 306.83 667.384 306.83C665.454 306.83 663.959 308.332 663.959 310.185C663.959 312.037 665.454 313.539 667.384 313.539Z" fill="#2D3D48"/>
<path fill-rule="evenodd" clip-rule="evenodd" d="M690.718 316.968C694.653 316.968 697.502 313.931 697.502 310.185C697.502 306.438 694.381 303.401 690.718 303.401C687.055 303.401 683.935 306.438 683.935 310.185C683.935 313.931 686.92 316.968 690.718 316.968ZM690.718 313.571C692.682 313.571 694.104 312.055 694.104 310.184C694.104 308.314 692.547 306.798 690.718 306.798C688.89 306.798 687.332 308.314 687.332 310.184C687.332 312.055 688.822 313.571 690.718 313.571Z" fill="#2D3D48"/>
<path d="M636.035 312.834L639.792 312.304V299.829L636.035 301.364L636.035 312.834Z" fill="#2D3D48"/>
<path d="M633.529 303.619H642.922V306.959H633.529V303.619Z" fill="#2D3D48"/>
<path d="M640.418 316.759C636.497 316.759 636.035 314.338 636.035 312.797C637.107 312.152 639.04 311.963 639.792 311.963C639.792 312.697 640.313 313.431 641.357 313.431H642.922L642.922 316.686C641.983 316.759 641.614 316.759 640.418 316.759Z" fill="#2D3D48"/>
<rect x="677.779" y="303.608" width="3.75693" height="13.1831" fill="#2D3D48"/>
<circle cx="679.656" cy="299.437" r="2.2959" fill="#2D3D48"/>
<rect x="658.382" y="316.76" width="3.80129" height="12.9313" transform="rotate(-180 658.382 316.76)" fill="#2D3D48"/>
<path d="M649.124 310.323L645.322 311.065V303.829H649.124V310.323Z" fill="#2D3D48"/>
<path d="M651.18 316.964C647.568 316.964 645.323 314.312 645.323 311.06L649.123 310.188C649.123 312.326 650.127 313.282 651.847 313.282C653.475 313.282 654.582 312.367 654.582 310.593L655.793 311.819C655.793 312.826 654.917 316.964 651.18 316.964Z" fill="#2D3D48"/>
<g style="mix-blend-mode:lighten">
<rect x="619.755" y="293.175" width="86.5138" height="34.5429" fill="url(#paint7_linear)"/>
</g>
</g>
<g clip-path="url(#clip7)">
<rect x="841.202" y="303.614" width="3.75693" height="13.1445" fill="#2D3D48"/>
<path fill-rule="evenodd" clip-rule="evenodd" d="M837.388 316.967C841.305 316.967 844.118 313.607 844.118 310.184C844.118 306.95 841.324 303.4 837.388 303.4C833.624 303.4 830.766 306.437 830.766 310.184C830.766 313.93 833.624 316.967 837.388 316.967ZM837.8 313.539C839.73 313.539 841.202 312.101 841.202 310.184C841.202 308.267 839.73 306.829 837.8 306.829C835.87 306.829 834.376 308.331 834.376 310.184C834.376 312.037 835.87 313.539 837.8 313.539Z" fill="#2D3D48"/>
<path fill-rule="evenodd" clip-rule="evenodd" d="M860.05 307.279L856.61 308.877C856.171 307.888 855.246 307.093 853.995 307.093C852.215 307.093 850.838 308.478 850.838 310.186C850.838 311.894 852.215 313.278 853.995 313.278C855.275 313.278 856.214 312.562 856.64 311.523L860.072 313.142C859.018 315.407 856.755 316.969 853.933 316.969C850.135 316.969 847.15 313.932 847.15 310.185C847.15 306.439 850.27 303.402 853.933 303.402C856.579 303.402 858.942 304.987 860.05 307.279Z" fill="#2D3D48"/>
<rect x="862.178" y="303.613" width="3.75693" height="13.1492" fill="#2D3D48"/>
<path d="M870.527 308.726L874.284 308.412V316.761H870.527V308.726Z" fill="#2D3D48"/>
<path d="M878.875 308.726L882.632 308.412V316.761H878.875V308.726Z" fill="#2D3D48"/>
<path d="M869.302 303.402C872.627 303.402 874.284 305.949 874.284 308.62L870.527 309.319C870.527 308.164 869.483 307.124 868.231 307.124C866.978 307.124 865.935 308.204 865.935 309.456L864.94 308.052C864.548 307.124 865.968 303.402 869.302 303.402Z" fill="#2D3D48"/>
<path d="M877.651 303.402C880.975 303.402 882.632 305.949 882.632 308.62L878.875 309.319C878.875 308.164 877.832 307.124 876.579 307.124C875.327 307.124 874.283 308.204 874.283 309.456L873.288 308.052C872.897 307.124 874.316 303.402 877.651 303.402Z" fill="#2D3D48"/>
<path d="M877.651 303.402C880.976 303.402 882.632 305.949 882.632 308.62L878.876 308.933C878.876 307.778 877.832 306.846 876.58 306.846C875.327 306.846 874.284 307.681 874.284 308.933L872.405 306.95C873.24 305.072 874.316 303.402 877.651 303.402Z" fill="#2D3D48"/>
<circle cx="888.419" cy="314.302" r="2.44763" fill="#2D3D48"/>
<rect x="894.635" y="303.607" width="3.75693" height="13.1831" fill="#2D3D48"/>
<circle cx="896.513" cy="299.436" r="2.2959" fill="#2D3D48"/>
<path fill-rule="evenodd" clip-rule="evenodd" d="M914.255 307.598L910.795 309.205C910.428 308.07 909.441 307.091 908.054 307.091C906.274 307.091 904.896 308.476 904.896 310.184C904.896 311.892 906.274 313.277 908.054 313.277C909.468 313.277 910.466 312.401 910.816 311.184L914.274 312.814C913.29 315.254 910.948 316.967 907.993 316.967C904.194 316.967 901.209 313.93 901.209 310.184C901.209 306.437 904.33 303.4 907.993 303.4C910.761 303.4 913.218 305.134 914.255 307.598Z" fill="#2D3D48"/>
<rect width="3.75693" height="19.6031" transform="matrix(-1 0 0 1 920.412 303.636)" fill="#2D3D48"/>
<path fill-rule="evenodd" clip-rule="evenodd" d="M924.243 316.967C920.326 316.967 917.514 313.607 917.514 310.184C917.514 306.95 920.308 303.4 924.243 303.4C928.007 303.4 930.865 306.437 930.865 310.184C930.865 313.93 928.007 316.967 924.243 316.967ZM923.831 313.538C921.901 313.538 920.429 312.1 920.429 310.184C920.429 308.267 921.901 306.829 923.831 306.829C925.761 306.829 927.255 308.331 927.255 310.184C927.255 312.036 925.761 313.538 923.831 313.538Z" fill="#2D3D48"/>
<path fill-rule="evenodd" clip-rule="evenodd" d="M945.835 307.277L942.394 308.876C941.956 307.887 941.03 307.091 939.779 307.091C938 307.091 936.622 308.476 936.622 310.184C936.622 311.892 938 313.277 939.779 313.277C941.059 313.277 941.998 312.56 942.424 311.522L945.857 313.141C944.802 315.406 942.539 316.967 939.718 316.967C935.92 316.967 932.935 313.93 932.935 310.184C932.935 306.437 936.055 303.4 939.718 303.4C942.364 303.4 944.727 304.985 945.835 307.277Z" fill="#2D3D48"/>
<g style="mix-blend-mode:lighten">
<rect x="890.877" y="293.175" width="54.9973" height="34.5429" fill="url(#paint8_linear)"/>
</g>
</g>
<defs>
<linearGradient id="paint0_linear" x1="115.669" y1="109.816" x2="178.474" y2="82.842" gradientUnits="userSpaceOnUse">
<stop stop-color="#FF56DA"/>
<stop offset="1" stop-color="#FF3D3D"/>
</linearGradient>
<linearGradient id="paint1_linear" x1="178.474" y1="92.2194" x2="160.809" y2="126.348" gradientUnits="userSpaceOnUse">
<stop stop-color="#FF5F96"/>
<stop offset="1" stop-color="#BD00FF"/>
</linearGradient>
<linearGradient id="paint2_linear" x1="392.499" y1="108.889" x2="415.802" y2="105.138" gradientUnits="userSpaceOnUse">
<stop stop-color="#28B2FF"/>
<stop offset="1" stop-color="#2EE5FF"/>
</linearGradient>
<linearGradient id="paint3_linear" x1="649.516" y1="108.889" x2="672.819" y2="105.139" gradientUnits="userSpaceOnUse">
<stop stop-color="#02D1C7"/>
<stop offset="1" stop-color="#50F392"/>
</linearGradient>
<linearGradient id="paint4_linear" x1="867.72" y1="110.656" x2="950.499" y2="56.0524" gradientUnits="userSpaceOnUse">
<stop stop-color="#50C509"/>
<stop offset="1" stop-color="#BCF223"/>
</linearGradient>
<linearGradient id="paint5_linear" x1="110.122" y1="324.535" x2="173.784" y2="298.172" gradientUnits="userSpaceOnUse">
<stop stop-color="#F5B100"/>
<stop offset="1" stop-color="#FFE040"/>
</linearGradient>
<linearGradient id="paint6_linear" x1="364.22" y1="324.431" x2="435.422" y2="289.508" gradientUnits="userSpaceOnUse">
<stop stop-color="#F87615"/>
<stop offset="1" stop-color="#FECE5C"/>
</linearGradient>
<linearGradient id="paint7_linear" x1="622.098" y1="325.892" x2="692.985" y2="291.373" gradientUnits="userSpaceOnUse">
<stop stop-color="#FF3939"/>
<stop offset="1" stop-color="#FF70D6"/>
</linearGradient>
<linearGradient id="paint8_linear" x1="892.366" y1="325.892" x2="943.24" y2="310.143" gradientUnits="userSpaceOnUse">
<stop stop-color="#FF6B6B"/>
<stop offset="1" stop-color="#FF9CE3"/>
</linearGradient>
<clipPath id="clip0">
<rect width="140" height="33" fill="white" transform="translate(44 77)"/>
</clipPath>
<clipPath id="clip1">
<rect width="102" height="33" fill="white" transform="translate(321 77)"/>
</clipPath>
<clipPath id="clip2">
<rect width="99" height="33" fill="white" transform="translate(580 77)"/>
</clipPath>
<clipPath id="clip3">
<rect width="188" height="33" fill="white" transform="translate(794 77)"/>
</clipPath>
<clipPath id="clip4">
<rect width="152" height="34" fill="white" transform="translate(38 289)"/>
</clipPath>
<clipPath id="clip5">
<rect width="161" height="34" fill="white" transform="translate(291 289)"/>
</clipPath>
<clipPath id="clip6">
<rect width="157" height="34" fill="white" transform="translate(549 289)"/>
</clipPath>
<clipPath id="clip7">
<rect width="133" height="34" fill="white" transform="translate(822 289)"/>
</clipPath>
</defs>
</svg>
