<svg width="486" height="486" viewBox="0 0 486 486" fill="none" xmlns="http://www.w3.org/2000/svg">
<rect x="0.0644531" y="0.931641" width="485.002" height="484.602" rx="10.6195" fill="#ECECEC"/>
<g clip-path="url(#clip0_1521:4173)">
<line x1="-18.333" y1="203.195" x2="604.944" y2="203.195" stroke="#4A4A4A" stroke-width="1.27632"/>
<line x1="-18.333" y1="200.538" x2="604.944" y2="200.538" stroke="#636363" stroke-width="1.27632"/>
<line x1="146.098" y1="172.936" x2="146.098" y2="314.136" stroke="#636363" stroke-width="1.27632"/>
<line x1="159.388" y1="172.936" x2="159.388" y2="314.136" stroke="#636363" stroke-width="1.27632"/>
<line y1="-0.63816" x2="141.201" y2="-0.63816" transform="matrix(-4.37114e-08 1 1 4.37114e-08 453.568 172.936)" stroke="#636363" stroke-width="1.27632"/>
<line x1="13.8677" y1="172.936" x2="13.8677" y2="314.136" stroke="#636363" stroke-width="1.27632"/>
<line x1="325.174" y1="172.936" x2="325.174" y2="314.136" stroke="#636363" stroke-width="1.27632"/>
<line x1="335.141" y1="172.936" x2="335.141" y2="314.136" stroke="#636363" stroke-width="1.27632"/>
<line x1="351.42" y1="172.936" x2="351.42" y2="314.136" stroke="#636363" stroke-width="1.27632"/>
<line x1="361.388" y1="172.936" x2="361.388" y2="314.136" stroke="#636363" stroke-width="1.27632"/>
<line x1="-18.333" y1="263.663" x2="604.944" y2="263.663" stroke="#636363" stroke-width="1.27632"/>
<line x1="-18.333" y1="264.328" x2="604.944" y2="264.328" stroke="#4A4A4A" stroke-width="1.27632"/>
<line x1="-18.333" y1="284.261" x2="604.944" y2="284.261" stroke="#636363" stroke-width="1.27632"/>
<line x1="-18.333" y1="280.939" x2="604.944" y2="280.939" stroke="#4A4A4A" stroke-width="1.27632"/>
<line x1="-17.3364" y1="221.801" x2="605.94" y2="221.801" stroke="#636363" stroke-width="1.27632"/>
<circle cx="159.414" cy="294.867" r="13.3158" stroke="#636363" stroke-width="1.27632"/>
<circle r="13.3158" transform="matrix(-1 0 0 1 466.858 242.373)" stroke="#636363" stroke-width="1.27632"/>
<circle cx="6.91692" cy="243.371" r="6.33882" stroke="#636363" stroke-width="1.27632"/>
<circle cx="159.414" cy="189.88" r="13.3158" stroke="#636363" stroke-width="1.27632"/>
<circle cx="317.226" cy="258.985" r="4.67764" stroke="#636363" stroke-width="1.27632"/>
<circle cx="343.473" cy="258.985" r="4.67764" stroke="#636363" stroke-width="1.27632"/>
<rect x="192.638" y="222.45" width="11.9605" height="41.8466" fill="black"/>
<path fill-rule="evenodd" clip-rule="evenodd" d="M180.495 264.961C192.965 264.961 201.92 254.264 201.92 243.365C201.92 233.071 193.025 221.77 180.495 221.77C168.512 221.77 159.414 231.439 159.414 243.365C159.414 255.292 168.512 264.961 180.495 264.961ZM181.808 254.045C187.952 254.045 192.638 249.468 192.638 243.366C192.638 237.263 187.952 232.686 181.808 232.686C175.664 232.686 170.905 237.467 170.905 243.366C170.905 249.264 175.664 254.045 181.808 254.045Z" fill="black"/>
<path fill-rule="evenodd" clip-rule="evenodd" d="M252.644 234.116L241.692 239.204C240.295 236.056 237.349 233.523 233.365 233.523C227.701 233.523 223.314 237.932 223.314 243.369C223.314 248.807 227.701 253.215 233.365 253.215C237.44 253.215 240.429 250.934 241.786 247.629L252.715 252.782C249.357 259.993 242.152 264.965 233.171 264.965C221.077 264.965 211.575 255.296 211.575 243.369C211.575 231.443 221.509 221.774 233.171 221.774C241.594 221.774 249.117 226.819 252.644 234.116Z" fill="black"/>
<rect x="259.417" y="222.442" width="11.9605" height="41.8616" fill="black"/>
<path d="M285.996 238.721L297.956 237.725V264.304H285.996V238.721Z" fill="black"/>
<path d="M312.575 238.721L324.535 237.725V264.304H312.575V238.721Z" fill="black"/>
<path d="M282.097 221.774C292.681 221.774 297.956 229.884 297.956 238.386L285.996 240.61C285.996 236.933 282.673 233.623 278.687 233.623C274.7 233.623 271.377 237.06 271.377 241.047L268.21 236.576C266.963 233.623 271.481 221.774 282.097 221.774Z" fill="black"/>
<path d="M308.675 221.774C319.26 221.774 324.535 229.884 324.535 238.386L312.574 240.61C312.574 236.933 309.252 233.623 305.265 233.623C301.278 233.623 297.956 237.06 297.956 241.047L294.788 236.576C293.541 233.623 298.06 221.774 308.675 221.774Z" fill="black"/>
<path d="M308.676 221.774C319.26 221.774 324.535 229.884 324.535 238.386L312.575 239.383C312.575 235.706 309.252 232.738 305.266 232.738C301.279 232.738 297.956 235.396 297.956 239.383L291.976 233.07C294.634 227.09 298.06 221.774 308.676 221.774Z" fill="black"/>
<circle cx="342.96" cy="256.478" r="7.79227" fill="black"/>
<circle cx="79.6564" cy="242.373" r="66.1152" stroke="#4A4A4A" stroke-width="0.664474"/>
<rect x="79.6562" y="176.395" width="93.3064" height="93.3064" transform="rotate(45 79.6562 176.395)" stroke="#4A4A4A" stroke-width="0.664474"/>
<circle cx="19.8532" cy="242.372" r="6.31251" stroke="#4A4A4A" stroke-width="0.664474"/>
<circle cx="33.1428" cy="242.372" r="6.31251" stroke="#4A4A4A" stroke-width="0.664474"/>
<circle cx="46.4323" cy="242.372" r="6.31251" stroke="#4A4A4A" stroke-width="0.664474"/>
<circle cx="59.7219" cy="242.372" r="6.31251" stroke="#4A4A4A" stroke-width="0.664474"/>
<circle cx="73.011" cy="242.372" r="6.31251" stroke="#4A4A4A" stroke-width="0.664474"/>
<circle cx="73.011" cy="242.372" r="6.31251" stroke="#4A4A4A" stroke-width="0.664474"/>
<circle cx="79.6557" cy="242.372" r="12.9572" stroke="#4A4A4A" stroke-width="0.664474"/>
<circle cx="79.6561" cy="213.468" r="26.2467" stroke="#4A4A4A" stroke-width="0.664474"/>
<circle cx="79.6561" cy="242.372" r="26.2467" stroke="#4A4A4A" stroke-width="0.664474"/>
<circle cx="79.6561" cy="242.372" r="39.5362" stroke="#4A4A4A" stroke-width="0.664474"/>
<circle cx="79.656" cy="242.373" r="52.8257" stroke="#4A4A4A" stroke-width="0.664474"/>
<mask id="path-47-inside-1_1521:4173" fill="white">
<path d="M145.439 228.419C147.271 228.419 149.086 228.78 150.779 229.481C152.472 230.182 154.01 231.21 155.306 232.506C156.602 233.802 157.629 235.34 158.331 237.033C159.032 238.726 159.393 240.54 159.393 242.373C159.393 244.205 159.032 246.02 158.331 247.713C157.629 249.406 156.602 250.944 155.306 252.24C154.01 253.536 152.472 254.563 150.779 255.265C149.086 255.966 147.271 256.327 145.439 256.327L145.439 242.373V228.419Z"/>
</mask>
<path d="M145.439 228.419C147.271 228.419 149.086 228.78 150.779 229.481C152.472 230.182 154.01 231.21 155.306 232.506C156.602 233.802 157.629 235.34 158.331 237.033C159.032 238.726 159.393 240.54 159.393 242.373C159.393 244.205 159.032 246.02 158.331 247.713C157.629 249.406 156.602 250.944 155.306 252.24C154.01 253.536 152.472 254.563 150.779 255.265C149.086 255.966 147.271 256.327 145.439 256.327L145.439 242.373V228.419Z" stroke="#636363" stroke-width="1.32895" mask="url(#path-47-inside-1_1521:4173)"/>
<rect x="79.6768" y="176.395" width="93.3064" height="93.3064" rx="26.2467" transform="rotate(45 79.6768 176.395)" stroke="black" stroke-width="0.664474"/>
</g>
<rect x="0.39669" y="176.264" width="484.336" height="133.336" stroke="#D9D9D9" stroke-width="0.664474"/>
<g opacity="0.24">
<g clip-path="url(#clip1_1521:4173)">
<line x1="-17.9326" y1="337.575" x2="605.344" y2="337.575" stroke="#4A4A4A" stroke-width="1.27632"/>
<line x1="-17.9326" y1="334.917" x2="605.344" y2="334.917" stroke="#636363" stroke-width="1.27632"/>
<line x1="146.499" y1="307.315" x2="146.499" y2="448.516" stroke="#636363" stroke-width="1.27632"/>
<line x1="159.788" y1="307.315" x2="159.788" y2="448.516" stroke="#636363" stroke-width="1.27632"/>
<line y1="-0.63816" x2="141.201" y2="-0.63816" transform="matrix(-4.37114e-08 1 1 4.37114e-08 453.969 307.315)" stroke="#636363" stroke-width="1.27632"/>
<line x1="14.268" y1="307.315" x2="14.268" y2="448.516" stroke="#636363" stroke-width="1.27632"/>
<line x1="325.574" y1="307.315" x2="325.574" y2="448.516" stroke="#636363" stroke-width="1.27632"/>
<line x1="335.541" y1="307.315" x2="335.541" y2="448.516" stroke="#636363" stroke-width="1.27632"/>
<line x1="351.821" y1="307.315" x2="351.821" y2="448.516" stroke="#636363" stroke-width="1.27632"/>
<line x1="361.788" y1="307.315" x2="361.788" y2="448.516" stroke="#636363" stroke-width="1.27632"/>
<line x1="-17.9326" y1="398.042" x2="605.344" y2="398.042" stroke="#636363" stroke-width="1.27632"/>
<line x1="-17.9326" y1="398.707" x2="605.344" y2="398.707" stroke="#4A4A4A" stroke-width="1.27632"/>
<line x1="-17.9326" y1="418.641" x2="605.344" y2="418.641" stroke="#636363" stroke-width="1.27632"/>
<line x1="-17.9326" y1="415.318" x2="605.344" y2="415.318" stroke="#4A4A4A" stroke-width="1.27632"/>
<line x1="-16.936" y1="356.18" x2="606.341" y2="356.18" stroke="#636363" stroke-width="1.27632"/>
<circle cx="159.814" cy="429.246" r="13.3158" stroke="#636363" stroke-width="1.27632"/>
<circle r="13.3158" transform="matrix(-1 0 0 1 467.258 376.753)" stroke="#636363" stroke-width="1.27632"/>
<circle cx="7.31731" cy="377.75" r="6.33882" stroke="#636363" stroke-width="1.27632"/>
<circle cx="159.814" cy="324.259" r="13.3158" stroke="#636363" stroke-width="1.27632"/>
<circle cx="317.627" cy="393.364" r="4.67764" stroke="#636363" stroke-width="1.27632"/>
<circle cx="343.873" cy="393.364" r="4.67764" stroke="#636363" stroke-width="1.27632"/>
<rect x="193.038" y="356.829" width="11.9605" height="41.8466" fill="black"/>
<path fill-rule="evenodd" clip-rule="evenodd" d="M180.895 399.34C193.366 399.34 202.32 388.644 202.32 377.745C202.32 367.45 193.425 356.149 180.895 356.149C168.912 356.149 159.814 365.818 159.814 377.745C159.814 389.672 168.912 399.34 180.895 399.34ZM182.208 388.425C188.352 388.425 193.038 383.847 193.038 377.745C193.038 371.642 188.352 367.065 182.208 367.065C176.064 367.065 171.306 371.847 171.306 377.745C171.306 383.643 176.064 388.425 182.208 388.425Z" fill="black"/>
<path fill-rule="evenodd" clip-rule="evenodd" d="M253.045 368.495L242.093 373.583C240.696 370.436 237.75 367.903 233.765 367.903C228.101 367.903 223.715 372.311 223.715 377.749C223.715 383.186 228.101 387.594 233.765 387.594C237.84 387.594 240.829 385.313 242.186 382.008L253.116 387.162C249.758 394.373 242.553 399.344 233.571 399.344C221.478 399.344 211.976 389.676 211.976 377.749C211.976 365.822 221.909 356.153 233.571 356.153C241.995 356.153 249.517 361.198 253.045 368.495Z" fill="black"/>
<rect x="259.817" y="356.822" width="11.9605" height="41.8616" fill="black"/>
<path d="M286.396 373.101L298.357 372.104V398.683H286.396V373.101Z" fill="black"/>
<path d="M312.975 373.101L324.936 372.104V398.683H312.975V373.101Z" fill="black"/>
<path d="M282.497 356.154C293.082 356.154 298.357 364.263 298.357 372.766L286.396 374.989C286.396 371.313 283.074 368.003 279.087 368.003C275.1 368.003 271.778 371.439 271.778 375.426L268.61 370.955C267.363 368.003 271.882 356.154 282.497 356.154Z" fill="black"/>
<path d="M309.076 356.154C319.66 356.154 324.935 364.263 324.935 372.766L312.975 374.989C312.975 371.313 309.652 368.003 305.666 368.003C301.679 368.003 298.356 371.439 298.356 375.426L295.189 370.955C293.942 368.003 298.46 356.154 309.076 356.154Z" fill="black"/>
<path d="M309.076 356.154C319.661 356.154 324.936 364.263 324.936 372.766L312.975 373.762C312.975 370.086 309.653 367.118 305.666 367.118C301.679 367.118 298.357 369.776 298.357 373.762L292.376 367.45C295.034 361.47 298.461 356.154 309.076 356.154Z" fill="black"/>
<circle cx="343.36" cy="390.857" r="7.79227" fill="black"/>
<circle cx="80.0568" cy="376.753" r="66.1152" stroke="#4A4A4A" stroke-width="0.664474"/>
<rect x="80.0566" y="310.775" width="93.3064" height="93.3064" transform="rotate(45 80.0566 310.775)" stroke="#4A4A4A" stroke-width="0.664474"/>
<circle cx="20.2536" cy="376.752" r="6.31251" stroke="#4A4A4A" stroke-width="0.664474"/>
<circle cx="33.5432" cy="376.752" r="6.31251" stroke="#4A4A4A" stroke-width="0.664474"/>
<circle cx="46.8327" cy="376.752" r="6.31251" stroke="#4A4A4A" stroke-width="0.664474"/>
<circle cx="60.1223" cy="376.752" r="6.31251" stroke="#4A4A4A" stroke-width="0.664474"/>
<circle cx="73.4113" cy="376.752" r="6.31251" stroke="#4A4A4A" stroke-width="0.664474"/>
<circle cx="73.4113" cy="376.752" r="6.31251" stroke="#4A4A4A" stroke-width="0.664474"/>
<circle cx="80.0561" cy="376.752" r="12.9572" stroke="#4A4A4A" stroke-width="0.664474"/>
<circle cx="80.0565" cy="347.848" r="26.2467" stroke="#4A4A4A" stroke-width="0.664474"/>
<circle cx="80.0565" cy="376.752" r="26.2467" stroke="#4A4A4A" stroke-width="0.664474"/>
<circle cx="80.0564" cy="376.752" r="39.5362" stroke="#4A4A4A" stroke-width="0.664474"/>
<circle cx="80.0564" cy="376.752" r="52.8257" stroke="#4A4A4A" stroke-width="0.664474"/>
<mask id="path-94-inside-2_1521:4173" fill="white">
<path d="M145.839 362.798C147.672 362.798 149.486 363.159 151.179 363.861C152.872 364.562 154.41 365.59 155.706 366.885C157.002 368.181 158.03 369.719 158.731 371.412C159.432 373.105 159.793 374.92 159.793 376.752C159.793 378.585 159.432 380.399 158.731 382.092C158.03 383.785 157.002 385.323 155.706 386.619C154.41 387.915 152.872 388.943 151.179 389.644C149.486 390.345 147.672 390.706 145.839 390.706L145.839 376.752V362.798Z"/>
</mask>
<path d="M145.839 362.798C147.672 362.798 149.486 363.159 151.179 363.861C152.872 364.562 154.41 365.59 155.706 366.885C157.002 368.181 158.03 369.719 158.731 371.412C159.432 373.105 159.793 374.92 159.793 376.752C159.793 378.585 159.432 380.399 158.731 382.092C158.03 383.785 157.002 385.323 155.706 386.619C154.41 387.915 152.872 388.943 151.179 389.644C149.486 390.345 147.672 390.706 145.839 390.706L145.839 376.752V362.798Z" stroke="#636363" stroke-width="1.32895" mask="url(#path-94-inside-2_1521:4173)"/>
<rect x="80.0771" y="310.775" width="93.3064" height="93.3064" rx="26.2467" transform="rotate(45 80.0771 310.775)" stroke="black" stroke-width="0.664474"/>
</g>
<rect x="0.797081" y="310.643" width="484.692" height="133.505" stroke="#D9D9D9" stroke-width="0.664474"/>
</g>
<g opacity="0.24">
<g clip-path="url(#clip2_1521:4173)">
<line x1="-17.9326" y1="69.2427" x2="605.344" y2="69.2427" stroke="#4A4A4A" stroke-width="1.27632"/>
<line x1="-17.9326" y1="66.585" x2="605.344" y2="66.585" stroke="#636363" stroke-width="1.27632"/>
<line x1="146.499" y1="38.9829" x2="146.499" y2="180.184" stroke="#636363" stroke-width="1.27632"/>
<line x1="159.788" y1="38.9829" x2="159.788" y2="180.184" stroke="#636363" stroke-width="1.27632"/>
<line y1="-0.63816" x2="141.201" y2="-0.63816" transform="matrix(-4.37114e-08 1 1 4.37114e-08 453.969 38.9829)" stroke="#636363" stroke-width="1.27632"/>
<line x1="14.268" y1="38.9829" x2="14.268" y2="180.184" stroke="#636363" stroke-width="1.27632"/>
<line x1="325.574" y1="38.9829" x2="325.574" y2="180.184" stroke="#636363" stroke-width="1.27632"/>
<line x1="335.541" y1="38.9829" x2="335.541" y2="180.184" stroke="#636363" stroke-width="1.27632"/>
<line x1="351.821" y1="38.9829" x2="351.821" y2="180.184" stroke="#636363" stroke-width="1.27632"/>
<line x1="361.788" y1="38.9829" x2="361.788" y2="180.184" stroke="#636363" stroke-width="1.27632"/>
<line x1="-17.9326" y1="129.71" x2="605.344" y2="129.71" stroke="#636363" stroke-width="1.27632"/>
<line x1="-17.9326" y1="130.375" x2="605.344" y2="130.375" stroke="#4A4A4A" stroke-width="1.27632"/>
<line x1="-17.9326" y1="150.309" x2="605.344" y2="150.309" stroke="#636363" stroke-width="1.27632"/>
<line x1="-17.9326" y1="146.986" x2="605.344" y2="146.986" stroke="#4A4A4A" stroke-width="1.27632"/>
<line x1="-16.936" y1="87.8482" x2="606.341" y2="87.8482" stroke="#636363" stroke-width="1.27632"/>
<circle cx="159.814" cy="160.914" r="13.3158" stroke="#636363" stroke-width="1.27632"/>
<circle r="13.3158" transform="matrix(-1 0 0 1 467.258 108.421)" stroke="#636363" stroke-width="1.27632"/>
<circle cx="7.31731" cy="109.418" r="6.33882" stroke="#636363" stroke-width="1.27632"/>
<circle cx="159.814" cy="55.9271" r="13.3158" stroke="#636363" stroke-width="1.27632"/>
<circle cx="317.627" cy="125.032" r="4.67764" stroke="#636363" stroke-width="1.27632"/>
<circle cx="343.873" cy="125.032" r="4.67764" stroke="#636363" stroke-width="1.27632"/>
<rect x="193.038" y="88.4971" width="11.9605" height="41.8466" fill="black"/>
<path fill-rule="evenodd" clip-rule="evenodd" d="M180.895 131.008C193.366 131.008 202.32 120.312 202.32 109.413C202.32 99.1181 193.425 87.8174 180.895 87.8174C168.912 87.8174 159.814 97.486 159.814 109.413C159.814 121.34 168.912 131.008 180.895 131.008ZM182.208 120.093C188.352 120.093 193.038 115.515 193.038 109.413C193.038 103.31 188.352 98.7333 182.208 98.7333C176.064 98.7333 171.306 103.515 171.306 109.413C171.306 115.311 176.064 120.093 182.208 120.093Z" fill="black"/>
<path fill-rule="evenodd" clip-rule="evenodd" d="M253.045 100.163L242.093 105.251C240.696 102.104 237.75 99.5708 233.765 99.5708C228.101 99.5708 223.715 103.979 223.715 109.417C223.715 114.854 228.101 119.262 233.765 119.262C237.84 119.262 240.829 116.981 242.186 113.676L253.116 118.83C249.758 126.04 242.553 131.012 233.571 131.012C221.478 131.012 211.976 121.344 211.976 109.417C211.976 97.4899 221.909 87.8213 233.571 87.8213C241.995 87.8213 249.517 92.8663 253.045 100.163Z" fill="black"/>
<rect x="259.817" y="88.4897" width="11.9605" height="41.8616" fill="black"/>
<path d="M286.396 104.769L298.357 103.772V130.351H286.396V104.769Z" fill="black"/>
<path d="M312.975 104.769L324.936 103.772V130.351H312.975V104.769Z" fill="black"/>
<path d="M282.497 87.8218C293.082 87.8218 298.357 95.9311 298.357 104.434L286.396 106.657C286.396 102.981 283.074 99.6707 279.087 99.6707C275.1 99.6707 271.778 103.107 271.778 107.094L268.61 102.623C267.363 99.6707 271.882 87.8218 282.497 87.8218Z" fill="black"/>
<path d="M309.076 87.8218C319.66 87.8218 324.935 95.9311 324.935 104.434L312.975 106.657C312.975 102.981 309.652 99.6707 305.666 99.6707C301.679 99.6707 298.356 103.107 298.356 107.094L295.189 102.623C293.942 99.6707 298.46 87.8218 309.076 87.8218Z" fill="black"/>
<path d="M309.076 87.8218C319.661 87.8218 324.936 95.9311 324.936 104.434L312.975 105.43C312.975 101.754 309.653 98.7856 305.666 98.7856C301.679 98.7856 298.357 101.444 298.357 105.43L292.376 99.1178C295.034 93.1376 298.461 87.8218 309.076 87.8218Z" fill="black"/>
<circle cx="343.36" cy="122.525" r="7.79227" fill="black"/>
<circle cx="80.0568" cy="108.421" r="66.1152" stroke="#4A4A4A" stroke-width="0.664474"/>
<rect x="80.0566" y="42.4425" width="93.3064" height="93.3064" transform="rotate(45 80.0566 42.4425)" stroke="#4A4A4A" stroke-width="0.664474"/>
<circle cx="20.2536" cy="108.42" r="6.31251" stroke="#4A4A4A" stroke-width="0.664474"/>
<circle cx="33.5432" cy="108.42" r="6.31251" stroke="#4A4A4A" stroke-width="0.664474"/>
<circle cx="46.8327" cy="108.42" r="6.31251" stroke="#4A4A4A" stroke-width="0.664474"/>
<circle cx="60.1223" cy="108.42" r="6.31251" stroke="#4A4A4A" stroke-width="0.664474"/>
<circle cx="73.4113" cy="108.42" r="6.31251" stroke="#4A4A4A" stroke-width="0.664474"/>
<circle cx="73.4113" cy="108.42" r="6.31251" stroke="#4A4A4A" stroke-width="0.664474"/>
<circle cx="80.0561" cy="108.42" r="12.9572" stroke="#4A4A4A" stroke-width="0.664474"/>
<circle cx="80.0565" cy="79.5155" r="26.2467" stroke="#4A4A4A" stroke-width="0.664474"/>
<circle cx="80.0565" cy="108.42" r="26.2467" stroke="#4A4A4A" stroke-width="0.664474"/>
<circle cx="80.0564" cy="108.42" r="39.5362" stroke="#4A4A4A" stroke-width="0.664474"/>
<circle cx="80.0564" cy="108.42" r="52.8257" stroke="#4A4A4A" stroke-width="0.664474"/>
<mask id="path-141-inside-3_1521:4173" fill="white">
<path d="M145.839 94.4663C147.672 94.4663 149.486 94.8272 151.179 95.5285C152.872 96.2297 154.41 97.2576 155.706 98.5533C157.002 99.8491 158.03 101.387 158.731 103.08C159.432 104.773 159.793 106.588 159.793 108.42C159.793 110.253 159.432 112.067 158.731 113.76C158.03 115.453 157.002 116.991 155.706 118.287C154.41 119.583 152.872 120.611 151.179 121.312C149.486 122.013 147.672 122.374 145.839 122.374L145.839 108.42V94.4663Z"/>
</mask>
<path d="M145.839 94.4663C147.672 94.4663 149.486 94.8272 151.179 95.5285C152.872 96.2297 154.41 97.2576 155.706 98.5533C157.002 99.8491 158.03 101.387 158.731 103.08C159.432 104.773 159.793 106.588 159.793 108.42C159.793 110.253 159.432 112.067 158.731 113.76C158.03 115.453 157.002 116.991 155.706 118.287C154.41 119.583 152.872 120.611 151.179 121.312C149.486 122.013 147.672 122.374 145.839 122.374L145.839 108.42V94.4663Z" stroke="#636363" stroke-width="1.32895" mask="url(#path-141-inside-3_1521:4173)"/>
<rect x="80.0771" y="42.4425" width="93.3064" height="93.3064" rx="26.2467" transform="rotate(45 80.0771 42.4425)" stroke="black" stroke-width="0.664474"/>
</g>
<rect x="0.797081" y="42.3112" width="484.692" height="133.505" stroke="#D9D9D9" stroke-width="0.664474"/>
</g>
<defs>
<clipPath id="clip0_1521:4173">
</clipPath>
<clipPath id="clip1_1521:4173">
</clipPath>
<clipPath id="clip2_1521:4173">
</clipPath>
</defs>
</svg>
