<svg width="480" height="251" viewBox="0 0 480 251" fill="none" xmlns="http://www.w3.org/2000/svg">
<rect y="0.826172" width="479.29" height="250.119" rx="7.84435" fill="#EAEAEA"/>
<path d="M151.258 127.82C151.258 133.398 149.859 137.734 147.062 140.828C144.281 143.922 140.336 145.469 135.227 145.469C130.055 145.469 126.078 143.938 123.297 140.875C120.531 137.797 119.148 133.43 119.148 127.773C119.148 122.117 120.539 117.773 123.32 114.742C126.117 111.711 130.102 110.195 135.273 110.195C140.367 110.195 144.305 111.734 147.086 114.812C149.867 117.891 151.258 122.227 151.258 127.82ZM125.102 127.82C125.102 132.039 125.953 135.242 127.656 137.43C129.359 139.602 131.883 140.688 135.227 140.688C138.555 140.688 141.062 139.609 142.75 137.453C144.453 135.297 145.305 132.086 145.305 127.82C145.305 123.617 144.461 120.43 142.773 118.258C141.102 116.086 138.602 115 135.273 115C131.914 115 129.375 116.086 127.656 118.258C125.953 120.43 125.102 123.617 125.102 127.82ZM171.18 145.469C167.898 145.469 165.352 144.289 163.539 141.93H163.211C163.43 144.117 163.539 145.445 163.539 145.914V156.531H158.031V119.078H162.484C162.609 119.562 162.867 120.719 163.258 122.547H163.539C165.258 119.922 167.836 118.609 171.273 118.609C174.508 118.609 177.023 119.781 178.82 122.125C180.633 124.469 181.539 127.758 181.539 131.992C181.539 136.227 180.617 139.531 178.773 141.906C176.945 144.281 174.414 145.469 171.18 145.469ZM169.844 123.109C167.656 123.109 166.055 123.75 165.039 125.031C164.039 126.312 163.539 128.359 163.539 131.172V131.992C163.539 135.148 164.039 137.438 165.039 138.859C166.039 140.266 167.672 140.969 169.938 140.969C171.844 140.969 173.312 140.188 174.344 138.625C175.375 137.062 175.891 134.836 175.891 131.945C175.891 129.039 175.375 126.844 174.344 125.359C173.328 123.859 171.828 123.109 169.844 123.109ZM199.258 145.469C195.227 145.469 192.07 144.297 189.789 141.953C187.523 139.594 186.391 136.352 186.391 132.227C186.391 127.992 187.445 124.664 189.555 122.242C191.664 119.82 194.562 118.609 198.25 118.609C201.672 118.609 204.375 119.648 206.359 121.727C208.344 123.805 209.336 126.664 209.336 130.305V133.281H192.062C192.141 135.797 192.82 137.734 194.102 139.094C195.383 140.438 197.188 141.109 199.516 141.109C201.047 141.109 202.469 140.969 203.781 140.688C205.109 140.391 206.531 139.906 208.047 139.234V143.711C206.703 144.352 205.344 144.805 203.969 145.07C202.594 145.336 201.023 145.469 199.258 145.469ZM198.25 122.781C196.5 122.781 195.094 123.336 194.031 124.445C192.984 125.555 192.359 127.172 192.156 129.297H203.922C203.891 127.156 203.375 125.539 202.375 124.445C201.375 123.336 200 122.781 198.25 122.781ZM238.398 145H232.867V129.062C232.867 127.062 232.461 125.57 231.648 124.586C230.852 123.602 229.578 123.109 227.828 123.109C225.5 123.109 223.797 123.797 222.719 125.172C221.641 126.547 221.102 128.852 221.102 132.086V145H215.594V119.078H219.906L220.68 122.477H220.961C221.742 121.242 222.852 120.289 224.289 119.617C225.727 118.945 227.32 118.609 229.07 118.609C235.289 118.609 238.398 121.773 238.398 128.102V145ZM278.875 135.695C278.875 138.742 277.773 141.133 275.57 142.867C273.367 144.602 270.328 145.469 266.453 145.469C262.578 145.469 259.406 144.867 256.938 143.664V138.367C258.5 139.102 260.156 139.68 261.906 140.102C263.672 140.523 265.312 140.734 266.828 140.734C269.047 140.734 270.68 140.312 271.727 139.469C272.789 138.625 273.32 137.492 273.32 136.07C273.32 134.789 272.836 133.703 271.867 132.812C270.898 131.922 268.898 130.867 265.867 129.648C262.742 128.383 260.539 126.938 259.258 125.312C257.977 123.688 257.336 121.734 257.336 119.453C257.336 116.594 258.352 114.344 260.383 112.703C262.414 111.062 265.141 110.242 268.562 110.242C271.844 110.242 275.109 110.961 278.359 112.398L276.578 116.969C273.531 115.688 270.812 115.047 268.422 115.047C266.609 115.047 265.234 115.445 264.297 116.242C263.359 117.023 262.891 118.062 262.891 119.359C262.891 120.25 263.078 121.016 263.453 121.656C263.828 122.281 264.445 122.875 265.305 123.438C266.164 124 267.711 124.742 269.945 125.664C272.461 126.711 274.305 127.688 275.477 128.594C276.648 129.5 277.508 130.523 278.055 131.664C278.602 132.805 278.875 134.148 278.875 135.695ZM301.141 145L300.039 141.391H299.852C298.602 142.969 297.344 144.047 296.078 144.625C294.812 145.188 293.188 145.469 291.203 145.469C288.656 145.469 286.664 144.781 285.227 143.406C283.805 142.031 283.094 140.086 283.094 137.57C283.094 134.898 284.086 132.883 286.07 131.523C288.055 130.164 291.078 129.422 295.141 129.297L299.617 129.156V127.773C299.617 126.117 299.227 124.883 298.445 124.07C297.68 123.242 296.484 122.828 294.859 122.828C293.531 122.828 292.258 123.023 291.039 123.414C289.82 123.805 288.648 124.266 287.523 124.797L285.742 120.859C287.148 120.125 288.688 119.57 290.359 119.195C292.031 118.805 293.609 118.609 295.094 118.609C298.391 118.609 300.875 119.328 302.547 120.766C304.234 122.203 305.078 124.461 305.078 127.539V145H301.141ZM292.938 141.25C294.938 141.25 296.539 140.695 297.742 139.586C298.961 138.461 299.57 136.891 299.57 134.875V132.625L296.242 132.766C293.648 132.859 291.758 133.297 290.57 134.078C289.398 134.844 288.812 136.023 288.812 137.617C288.812 138.773 289.156 139.672 289.844 140.312C290.531 140.938 291.562 141.25 292.938 141.25ZM335.57 145H330.039V129.062C330.039 127.062 329.633 125.57 328.82 124.586C328.023 123.602 326.75 123.109 325 123.109C322.672 123.109 320.969 123.797 319.891 125.172C318.812 126.547 318.273 128.852 318.273 132.086V145H312.766V119.078H317.078L317.852 122.477H318.133C318.914 121.242 320.023 120.289 321.461 119.617C322.898 118.945 324.492 118.609 326.242 118.609C332.461 118.609 335.57 121.773 335.57 128.102V145ZM360.648 137.617C360.648 140.148 359.727 142.094 357.883 143.453C356.039 144.797 353.398 145.469 349.961 145.469C346.508 145.469 343.734 144.945 341.641 143.898V139.141C344.688 140.547 347.523 141.25 350.148 141.25C353.539 141.25 355.234 140.227 355.234 138.18C355.234 137.523 355.047 136.977 354.672 136.539C354.297 136.102 353.68 135.648 352.82 135.18C351.961 134.711 350.766 134.18 349.234 133.586C346.25 132.43 344.227 131.273 343.164 130.117C342.117 128.961 341.594 127.461 341.594 125.617C341.594 123.398 342.484 121.68 344.266 120.461C346.062 119.227 348.5 118.609 351.578 118.609C354.625 118.609 357.508 119.227 360.227 120.461L358.445 124.609C355.648 123.453 353.297 122.875 351.391 122.875C348.484 122.875 347.031 123.703 347.031 125.359C347.031 126.172 347.406 126.859 348.156 127.422C348.922 127.984 350.578 128.758 353.125 129.742C355.266 130.57 356.82 131.328 357.789 132.016C358.758 132.703 359.477 133.5 359.945 134.406C360.414 135.297 360.648 136.367 360.648 137.617Z" fill="#131313"/>
</svg>
