<svg width="481" height="251" viewBox="0 0 481 251" fill="none" xmlns="http://www.w3.org/2000/svg">
<rect x="1" y="0.382812" width="479.29" height="250.119" rx="7.84435" fill="#EAEAEA"/>
<path d="M169.682 118.864C169.682 120.656 169.25 122.336 168.385 123.904C167.554 125.472 166.226 126.736 164.402 127.696C162.61 128.656 160.338 129.136 157.586 129.136H151.97V142H145.25V108.496H157.586C160.178 108.496 162.386 108.944 164.21 109.84C166.034 110.736 167.394 111.968 168.29 113.536C169.218 115.104 169.682 116.88 169.682 118.864ZM157.298 123.712C159.154 123.712 160.53 123.296 161.426 122.464C162.322 121.6 162.77 120.4 162.77 118.864C162.77 115.6 160.946 113.968 157.298 113.968H151.97V123.712H157.298ZM186.261 142.432C183.701 142.432 181.397 141.872 179.349 140.752C177.301 139.6 175.685 137.984 174.501 135.904C173.349 133.824 172.773 131.424 172.773 128.704C172.773 125.984 173.365 123.584 174.549 121.504C175.765 119.424 177.413 117.824 179.493 116.704C181.573 115.552 183.893 114.976 186.453 114.976C189.013 114.976 191.333 115.552 193.413 116.704C195.493 117.824 197.125 119.424 198.309 121.504C199.525 123.584 200.133 125.984 200.133 128.704C200.133 131.424 199.509 133.824 198.261 135.904C197.045 137.984 195.381 139.6 193.269 140.752C191.189 141.872 188.853 142.432 186.261 142.432ZM186.261 136.576C187.477 136.576 188.613 136.288 189.669 135.712C190.757 135.104 191.621 134.208 192.261 133.024C192.901 131.84 193.221 130.4 193.221 128.704C193.221 126.176 192.549 124.24 191.205 122.896C189.893 121.52 188.277 120.832 186.357 120.832C184.437 120.832 182.821 121.52 181.509 122.896C180.229 124.24 179.589 126.176 179.589 128.704C179.589 131.232 180.213 133.184 181.461 134.56C182.741 135.904 184.341 136.576 186.261 136.576ZM211.782 119.248C212.646 118.032 213.83 117.024 215.334 116.224C216.87 115.392 218.614 114.976 220.566 114.976C222.838 114.976 224.886 115.536 226.71 116.656C228.566 117.776 230.022 119.376 231.078 121.456C232.166 123.504 232.71 125.888 232.71 128.608C232.71 131.328 232.166 133.744 231.078 135.856C230.022 137.936 228.566 139.552 226.71 140.704C224.886 141.856 222.838 142.432 220.566 142.432C218.614 142.432 216.886 142.032 215.382 141.232C213.91 140.432 212.71 139.424 211.782 138.208V154.672H205.062V115.408H211.782V119.248ZM225.846 128.608C225.846 127.008 225.51 125.632 224.838 124.48C224.198 123.296 223.334 122.4 222.246 121.792C221.19 121.184 220.038 120.88 218.79 120.88C217.574 120.88 216.422 121.2 215.334 121.84C214.278 122.448 213.414 123.344 212.742 124.528C212.102 125.712 211.782 127.104 211.782 128.704C211.782 130.304 212.102 131.696 212.742 132.88C213.414 134.064 214.278 134.976 215.334 135.616C216.422 136.224 217.574 136.528 218.79 136.528C220.038 136.528 221.19 136.208 222.246 135.568C223.334 134.928 224.198 134.016 224.838 132.832C225.51 131.648 225.846 130.24 225.846 128.608ZM244.313 119.248C245.177 118.032 246.361 117.024 247.865 116.224C249.401 115.392 251.145 114.976 253.097 114.976C255.369 114.976 257.417 115.536 259.241 116.656C261.097 117.776 262.553 119.376 263.609 121.456C264.697 123.504 265.241 125.888 265.241 128.608C265.241 131.328 264.697 133.744 263.609 135.856C262.553 137.936 261.097 139.552 259.241 140.704C257.417 141.856 255.369 142.432 253.097 142.432C251.145 142.432 249.417 142.032 247.913 141.232C246.441 140.432 245.241 139.424 244.313 138.208V154.672H237.593V115.408H244.313V119.248ZM258.377 128.608C258.377 127.008 258.041 125.632 257.369 124.48C256.729 123.296 255.865 122.4 254.777 121.792C253.721 121.184 252.569 120.88 251.321 120.88C250.105 120.88 248.953 121.2 247.865 121.84C246.809 122.448 245.945 123.344 245.273 124.528C244.633 125.712 244.313 127.104 244.313 128.704C244.313 130.304 244.633 131.696 245.273 132.88C245.945 134.064 246.809 134.976 247.865 135.616C248.953 136.224 250.105 136.528 251.321 136.528C252.569 136.528 253.721 136.208 254.777 135.568C255.865 134.928 256.729 134.016 257.369 132.832C258.041 131.648 258.377 130.24 258.377 128.608ZM273.533 112.24C272.349 112.24 271.357 111.872 270.557 111.136C269.789 110.368 269.405 109.424 269.405 108.304C269.405 107.184 269.789 106.256 270.557 105.52C271.357 104.752 272.349 104.368 273.533 104.368C274.717 104.368 275.693 104.752 276.461 105.52C277.261 106.256 277.661 107.184 277.661 108.304C277.661 109.424 277.261 110.368 276.461 111.136C275.693 111.872 274.717 112.24 273.533 112.24ZM276.845 115.408V142H270.125V115.408H276.845ZM298.22 115.024C301.388 115.024 303.948 116.032 305.9 118.048C307.852 120.032 308.828 122.816 308.828 126.4V142H302.108V127.312C302.108 125.2 301.58 123.584 300.524 122.464C299.468 121.312 298.028 120.736 296.204 120.736C294.348 120.736 292.876 121.312 291.788 122.464C290.732 123.584 290.204 125.2 290.204 127.312V142H283.484V115.408H290.204V118.72C291.1 117.568 292.236 116.672 293.612 116.032C295.02 115.36 296.556 115.024 298.22 115.024ZM325.394 142.432C323.218 142.432 321.266 142.048 319.538 141.28C317.81 140.48 316.434 139.408 315.41 138.064C314.418 136.72 313.874 135.232 313.778 133.6H320.546C320.674 134.624 321.17 135.472 322.034 136.144C322.93 136.816 324.034 137.152 325.346 137.152C326.626 137.152 327.618 136.896 328.322 136.384C329.058 135.872 329.426 135.216 329.426 134.416C329.426 133.552 328.978 132.912 328.082 132.496C327.218 132.048 325.826 131.568 323.906 131.056C321.922 130.576 320.29 130.08 319.01 129.568C317.762 129.056 316.674 128.272 315.746 127.216C314.85 126.16 314.402 124.736 314.402 122.944C314.402 121.472 314.818 120.128 315.65 118.912C316.514 117.696 317.73 116.736 319.298 116.032C320.898 115.328 322.77 114.976 324.914 114.976C328.082 114.976 330.61 115.776 332.498 117.376C334.386 118.944 335.426 121.072 335.618 123.76H329.186C329.09 122.704 328.642 121.872 327.842 121.264C327.074 120.624 326.034 120.304 324.722 120.304C323.506 120.304 322.562 120.528 321.89 120.976C321.25 121.424 320.93 122.048 320.93 122.848C320.93 123.744 321.378 124.432 322.274 124.912C323.17 125.36 324.562 125.824 326.45 126.304C328.37 126.784 329.954 127.28 331.202 127.792C332.45 128.304 333.522 129.104 334.418 130.192C335.346 131.248 335.826 132.656 335.858 134.416C335.858 135.952 335.426 137.328 334.562 138.544C333.73 139.76 332.514 140.72 330.914 141.424C329.346 142.096 327.506 142.432 325.394 142.432Z" fill="#131313"/>
</svg>
