<svg width="1033" height="474" viewBox="0 0 1033 474" fill="none" xmlns="http://www.w3.org/2000/svg">
<rect x="620.758" y="3.86972" width="463.652" height="618.758" rx="3.52324" transform="rotate(90 620.758 3.86972)" fill="white" stroke="#EEEEEE" stroke-width="2.34882"/>
<rect x="1032.05" y="435.979" width="32.7173" height="356.313" rx="4.69765" transform="rotate(90 1032.05 435.979)" fill="#181818"/>
<rect x="1031.79" y="0.390625" width="106.169" height="356.313" rx="4.71541" transform="rotate(90 1031.79 0.390625)" fill="#1E6CFF"/>
<rect width="76.8271" height="356.313" rx="4.71541" transform="matrix(1.03326e-06 -1 -1 -7.79462e-08 1031.79 194.795)" fill="#3DA2FF"/>
<rect width="76.8271" height="356.313" rx="4.71541" transform="matrix(1.10322e-06 -1 -1 -7.77526e-08 1031.79 283.004)" fill="#0057FF"/>
<rect width="76.8271" height="356.313" rx="4.71541" transform="matrix(1.10322e-06 -1 -1 -7.77526e-08 1031.79 371.213)" fill="#091BB9"/>
<rect width="38.4071" height="178.414" rx="4.71541" transform="matrix(7.04934e-08 -1 -1 -1.05083e-07 853.894 419.571)" fill="#1E6FFF"/>
<rect width="38.4071" height="168.954" rx="4.71541" transform="matrix(8.63958e-08 -1 -1 -8.57407e-08 1031.79 418.991)" fill="#1E6FFF"/>
<path d="M693.547 19.916C693.547 20.8851 693.23 21.6278 692.595 22.144C691.96 22.6603 691.057 22.9185 689.885 22.9185H688.92V26.3906H687.403V17.1104H690.075C691.234 17.1104 692.102 17.3473 692.677 17.8213C693.257 18.2952 693.547 18.9935 693.547 19.916ZM688.92 21.6426H689.726C690.504 21.6426 691.076 21.5072 691.44 21.2363C691.804 20.9655 691.986 20.5423 691.986 19.9668C691.986 19.4336 691.823 19.0358 691.497 18.7734C691.171 18.5111 690.663 18.3799 689.973 18.3799H688.92V21.6426ZM698.803 19.2432C699.103 19.2432 699.351 19.2643 699.546 19.3066L699.4 20.6968C699.188 20.646 698.968 20.6206 698.74 20.6206C698.143 20.6206 697.658 20.8153 697.286 21.2046C696.918 21.5939 696.734 22.0996 696.734 22.7217V26.3906H695.242V19.3701H696.41L696.607 20.6079H696.683C696.916 20.189 697.218 19.8568 697.591 19.6113C697.967 19.3659 698.371 19.2432 698.803 19.2432ZM702.345 26.3906H700.853V19.3701H702.345V26.3906ZM700.764 17.5103C700.764 17.2437 700.836 17.0384 700.98 16.8945C701.128 16.7507 701.338 16.6787 701.609 16.6787C701.871 16.6787 702.074 16.7507 702.218 16.8945C702.366 17.0384 702.44 17.2437 702.44 17.5103C702.44 17.7642 702.366 17.9652 702.218 18.1133C702.074 18.2572 701.871 18.3291 701.609 18.3291C701.338 18.3291 701.128 18.2572 700.98 18.1133C700.836 17.9652 700.764 17.7642 700.764 17.5103ZM710.4 26.3906H708.902V22.0615C708.902 21.5241 708.801 21.1242 708.597 20.8618C708.394 20.5952 708.077 20.4619 707.645 20.4619C707.07 20.4619 706.647 20.6502 706.376 21.0269C706.109 21.3993 705.976 22.0213 705.976 22.8931V26.3906H704.484V19.3701H705.652L705.862 20.2905H705.938C706.132 19.9562 706.414 19.6981 706.782 19.5161C707.154 19.3341 707.563 19.2432 708.007 19.2432C709.086 19.2432 709.801 19.6113 710.153 20.3477H710.254C710.462 20.0007 710.753 19.7298 711.13 19.5352C711.507 19.3405 711.938 19.2432 712.425 19.2432C713.263 19.2432 713.872 19.4548 714.253 19.8779C714.638 20.3011 714.831 20.9465 714.831 21.814V26.3906H713.339V22.0615C713.339 21.5241 713.235 21.1242 713.028 20.8618C712.825 20.5952 712.508 20.4619 712.076 20.4619C711.496 20.4619 711.071 20.6439 710.8 21.0078C710.533 21.3675 710.4 21.9219 710.4 22.6709V26.3906ZM721.305 26.3906L721.007 25.4131H720.956C720.618 25.8405 720.277 26.1325 719.934 26.2891C719.592 26.4414 719.151 26.5176 718.614 26.5176C717.924 26.5176 717.385 26.3314 716.995 25.959C716.61 25.5866 716.418 25.0597 716.418 24.3784C716.418 23.6548 716.686 23.1089 717.224 22.7407C717.761 22.3726 718.58 22.1715 719.68 22.1377L720.893 22.0996V21.7251C720.893 21.2765 720.787 20.9422 720.575 20.7222C720.368 20.4979 720.044 20.3857 719.604 20.3857C719.245 20.3857 718.9 20.4386 718.57 20.5444C718.24 20.6502 717.922 20.7751 717.617 20.9189L717.135 19.8525C717.516 19.6536 717.933 19.5034 718.385 19.4019C718.838 19.2961 719.266 19.2432 719.668 19.2432C720.561 19.2432 721.233 19.4378 721.686 19.8271C722.143 20.2165 722.372 20.828 722.372 21.6616V26.3906H721.305ZM719.084 25.375C719.625 25.375 720.059 25.2248 720.385 24.9243C720.715 24.6196 720.88 24.1943 720.88 23.6484V23.0391L719.979 23.0771C719.276 23.1025 718.764 23.221 718.443 23.4326C718.125 23.64 717.967 23.9595 717.967 24.3911C717.967 24.7043 718.06 24.9476 718.246 25.1211C718.432 25.2904 718.711 25.375 719.084 25.375ZM728.015 19.2432C728.315 19.2432 728.563 19.2643 728.758 19.3066L728.612 20.6968C728.4 20.646 728.18 20.6206 727.951 20.6206C727.355 20.6206 726.87 20.8153 726.498 21.2046C726.13 21.5939 725.946 22.0996 725.946 22.7217V26.3906H724.454V19.3701H725.622L725.819 20.6079H725.895C726.128 20.189 726.43 19.8568 726.802 19.6113C727.179 19.3659 727.583 19.2432 728.015 19.2432ZM728.999 19.3701H730.624L732.052 23.3501C732.268 23.9172 732.412 24.4504 732.484 24.9497H732.534C732.573 24.717 732.642 24.4355 732.744 24.1055C732.845 23.7712 733.383 22.1927 734.356 19.3701H735.969L732.966 27.3237C732.42 28.7837 731.51 29.5137 730.237 29.5137C729.906 29.5137 729.585 29.4777 729.272 29.4058V28.2251C729.496 28.2759 729.752 28.3013 730.04 28.3013C730.759 28.3013 731.265 27.8844 731.557 27.0508L731.817 26.3906L728.999 19.3701Z" fill="white"/>
<path d="M693.16 457.337L692.233 454.76H688.685L687.777 457.337H686.177L689.65 448.019H691.3L694.772 457.337H693.16ZM691.833 453.452L690.964 450.926C690.9 450.757 690.811 450.49 690.697 450.126C690.587 449.762 690.511 449.495 690.469 449.326C690.354 449.847 690.187 450.416 689.967 451.034L689.129 453.452H691.833ZM699.946 449.225C699.074 449.225 698.388 449.534 697.889 450.151C697.39 450.769 697.14 451.622 697.14 452.709C697.14 453.848 697.379 454.709 697.857 455.293C698.34 455.877 699.036 456.169 699.946 456.169C700.339 456.169 700.72 456.131 701.088 456.055C701.456 455.974 701.839 455.873 702.237 455.75V457.051C701.509 457.326 700.684 457.464 699.761 457.464C698.403 457.464 697.36 457.053 696.632 456.232C695.904 455.407 695.54 454.229 695.54 452.697C695.54 451.732 695.716 450.888 696.067 450.164C696.423 449.44 696.935 448.886 697.603 448.501C698.272 448.116 699.057 447.923 699.958 447.923C700.906 447.923 701.782 448.122 702.586 448.52L702.04 449.783C701.727 449.635 701.395 449.506 701.044 449.396C700.697 449.282 700.331 449.225 699.946 449.225ZM708.248 457.337L705.557 449.586H705.506C705.578 450.737 705.614 451.817 705.614 452.824V457.337H704.237V448.057H706.376L708.953 455.439H708.991L711.644 448.057H713.79V457.337H712.33V452.748C712.33 452.286 712.34 451.685 712.362 450.945C712.387 450.204 712.408 449.756 712.425 449.599H712.374L709.588 457.337H708.248ZM719.611 448.057H722.365C723.643 448.057 724.566 448.243 725.133 448.615C725.704 448.988 725.99 449.576 725.99 450.38C725.99 450.922 725.85 451.372 725.571 451.732C725.292 452.092 724.89 452.318 724.365 452.411V452.475C725.017 452.597 725.495 452.841 725.8 453.205C726.108 453.564 726.263 454.053 726.263 454.671C726.263 455.505 725.971 456.158 725.387 456.632C724.807 457.102 723.999 457.337 722.962 457.337H719.611V448.057ZM721.128 451.891H722.588C723.222 451.891 723.686 451.791 723.978 451.592C724.27 451.389 724.416 451.046 724.416 450.564C724.416 450.128 724.257 449.813 723.94 449.618C723.627 449.424 723.127 449.326 722.442 449.326H721.128V451.891ZM721.128 453.122V456.061H722.74C723.375 456.061 723.853 455.94 724.175 455.699C724.5 455.454 724.663 455.069 724.663 454.544C724.663 454.062 724.498 453.704 724.168 453.471C723.838 453.238 723.337 453.122 722.664 453.122H721.128ZM729.526 457.337H728.034V447.46H729.526V457.337ZM736.057 457.337L735.759 456.359H735.708C735.37 456.787 735.029 457.079 734.686 457.235C734.344 457.388 733.903 457.464 733.366 457.464C732.676 457.464 732.137 457.278 731.747 456.905C731.362 456.533 731.17 456.006 731.17 455.325C731.17 454.601 731.438 454.055 731.976 453.687C732.513 453.319 733.332 453.118 734.432 453.084L735.645 453.046V452.671C735.645 452.223 735.539 451.889 735.327 451.668C735.12 451.444 734.796 451.332 734.356 451.332C733.997 451.332 733.652 451.385 733.322 451.491C732.991 451.597 732.674 451.721 732.369 451.865L731.887 450.799C732.268 450.6 732.685 450.45 733.137 450.348C733.59 450.242 734.018 450.189 734.42 450.189C735.313 450.189 735.985 450.384 736.438 450.773C736.895 451.163 737.124 451.774 737.124 452.608V457.337H736.057ZM733.836 456.321C734.377 456.321 734.811 456.171 735.137 455.871C735.467 455.566 735.632 455.141 735.632 454.595V453.985L734.731 454.023C734.028 454.049 733.516 454.167 733.195 454.379C732.877 454.586 732.719 454.906 732.719 455.337C732.719 455.651 732.812 455.894 732.998 456.067C733.184 456.237 733.463 456.321 733.836 456.321ZM742.037 457.464C740.975 457.464 740.166 457.155 739.612 456.537C739.062 455.915 738.787 455.024 738.787 453.865C738.787 452.684 739.075 451.776 739.65 451.142C740.23 450.507 741.066 450.189 742.157 450.189C742.898 450.189 743.565 450.327 744.157 450.602L743.706 451.802C743.076 451.556 742.555 451.434 742.145 451.434C740.93 451.434 740.323 452.24 740.323 453.852C740.323 454.639 740.473 455.232 740.774 455.629C741.078 456.023 741.523 456.22 742.107 456.22C742.771 456.22 743.399 456.055 743.992 455.725V457.026C743.725 457.182 743.44 457.295 743.135 457.362C742.835 457.43 742.469 457.464 742.037 457.464ZM747.083 453.63L747.927 452.576L750.048 450.316H751.768L748.943 453.332L751.946 457.337H750.194L747.94 454.258L747.121 454.931V457.337H745.642V447.46H747.121V452.278L747.045 453.63H747.083Z" fill="white"/>
<path d="M692.753 141.449C692.753 142.274 692.455 142.921 691.858 143.391C691.262 143.861 690.439 144.096 689.389 144.096C688.34 144.096 687.481 143.933 686.812 143.607V142.172C687.235 142.371 687.684 142.528 688.158 142.642C688.636 142.756 689.08 142.813 689.491 142.813C690.092 142.813 690.534 142.699 690.817 142.471C691.105 142.242 691.249 141.935 691.249 141.55C691.249 141.203 691.118 140.909 690.855 140.668C690.593 140.427 690.051 140.141 689.23 139.811C688.384 139.468 687.787 139.077 687.44 138.637C687.093 138.197 686.92 137.668 686.92 137.05C686.92 136.275 687.195 135.666 687.745 135.222C688.295 134.777 689.034 134.555 689.96 134.555C690.849 134.555 691.734 134.75 692.614 135.139L692.131 136.377C691.306 136.03 690.57 135.856 689.922 135.856C689.431 135.856 689.059 135.964 688.805 136.18C688.551 136.392 688.424 136.673 688.424 137.024C688.424 137.266 688.475 137.473 688.577 137.646C688.678 137.816 688.845 137.977 689.078 138.129C689.311 138.281 689.73 138.482 690.335 138.732C691.016 139.015 691.516 139.28 691.833 139.525C692.15 139.771 692.383 140.048 692.531 140.357C692.679 140.666 692.753 141.03 692.753 141.449ZM697.457 144.096C696.365 144.096 695.51 143.778 694.893 143.144C694.279 142.505 693.972 141.626 693.972 140.509C693.972 139.362 694.258 138.461 694.829 137.805C695.4 137.149 696.185 136.821 697.184 136.821C698.111 136.821 698.843 137.103 699.38 137.666C699.918 138.228 700.187 139.003 700.187 139.989V140.795H695.508C695.529 141.476 695.714 142.001 696.061 142.369C696.408 142.733 696.896 142.915 697.527 142.915C697.942 142.915 698.327 142.877 698.682 142.801C699.042 142.72 699.427 142.589 699.837 142.407V143.62C699.473 143.793 699.105 143.916 698.733 143.988C698.361 144.06 697.935 144.096 697.457 144.096ZM697.184 137.951C696.71 137.951 696.329 138.101 696.042 138.402C695.758 138.702 695.589 139.14 695.534 139.716H698.72C698.712 139.136 698.572 138.698 698.301 138.402C698.03 138.101 697.658 137.951 697.184 137.951ZM704.712 144.096C703.65 144.096 702.842 143.787 702.288 143.169C701.737 142.547 701.462 141.656 701.462 140.497C701.462 139.316 701.75 138.408 702.326 137.773C702.905 137.139 703.741 136.821 704.833 136.821C705.574 136.821 706.24 136.959 706.833 137.234L706.382 138.434C705.751 138.188 705.231 138.065 704.82 138.065C703.606 138.065 702.999 138.872 702.999 140.484C702.999 141.271 703.149 141.863 703.449 142.261C703.754 142.655 704.198 142.852 704.782 142.852C705.447 142.852 706.075 142.687 706.667 142.356V143.658C706.401 143.814 706.115 143.926 705.811 143.994C705.51 144.062 705.144 144.096 704.712 144.096ZM714.545 140.446C714.545 141.593 714.251 142.488 713.663 143.131C713.074 143.774 712.256 144.096 711.206 144.096C710.55 144.096 709.97 143.948 709.467 143.651C708.963 143.355 708.576 142.93 708.305 142.375C708.034 141.821 707.899 141.178 707.899 140.446C707.899 139.307 708.191 138.419 708.775 137.78C709.359 137.141 710.182 136.821 711.244 136.821C712.26 136.821 713.064 137.149 713.656 137.805C714.249 138.457 714.545 139.337 714.545 140.446ZM709.435 140.446C709.435 142.067 710.034 142.877 711.231 142.877C712.416 142.877 713.009 142.067 713.009 140.446C713.009 138.842 712.412 138.04 711.219 138.04C710.592 138.04 710.138 138.247 709.854 138.662C709.575 139.077 709.435 139.671 709.435 140.446ZM722.441 143.969H720.943V139.652C720.943 139.111 720.833 138.707 720.613 138.44C720.397 138.173 720.053 138.04 719.579 138.04C718.948 138.04 718.487 138.226 718.195 138.599C717.903 138.971 717.757 139.595 717.757 140.471V143.969H716.265V136.948H717.433L717.643 137.869H717.719C717.93 137.534 718.231 137.276 718.62 137.094C719.009 136.912 719.441 136.821 719.915 136.821C721.599 136.821 722.441 137.678 722.441 139.392V143.969ZM726.885 144.096C726.009 144.096 725.325 143.778 724.834 143.144C724.344 142.509 724.098 141.618 724.098 140.471C724.098 139.32 724.346 138.425 724.841 137.786C725.34 137.143 726.03 136.821 726.91 136.821C727.833 136.821 728.535 137.162 729.018 137.843H729.094C729.022 137.34 728.986 136.942 728.986 136.65V134.092H730.484V143.969H729.316L729.056 143.048H728.986C728.508 143.747 727.807 144.096 726.885 144.096ZM727.285 142.89C727.898 142.89 728.345 142.718 728.624 142.375C728.903 142.028 729.047 141.468 729.056 140.693V140.484C729.056 139.599 728.912 138.971 728.624 138.599C728.336 138.226 727.886 138.04 727.272 138.04C726.747 138.04 726.343 138.254 726.06 138.681C725.776 139.104 725.634 139.709 725.634 140.497C725.634 141.275 725.772 141.87 726.047 142.28C726.322 142.687 726.735 142.89 727.285 142.89ZM737.009 143.969L736.711 142.991H736.66C736.322 143.419 735.981 143.711 735.638 143.867C735.295 144.02 734.855 144.096 734.318 144.096C733.628 144.096 733.089 143.91 732.699 143.537C732.314 143.165 732.122 142.638 732.122 141.957C732.122 141.233 732.39 140.687 732.928 140.319C733.465 139.951 734.284 139.75 735.384 139.716L736.597 139.678V139.303C736.597 138.855 736.491 138.52 736.279 138.3C736.072 138.076 735.748 137.964 735.308 137.964C734.948 137.964 734.604 138.017 734.273 138.123C733.943 138.228 733.626 138.353 733.321 138.497L732.839 137.431C733.22 137.232 733.637 137.082 734.089 136.98C734.542 136.874 734.97 136.821 735.372 136.821C736.264 136.821 736.937 137.016 737.39 137.405C737.847 137.795 738.076 138.406 738.076 139.24V143.969H737.009ZM734.788 142.953C735.329 142.953 735.763 142.803 736.089 142.502C736.419 142.198 736.584 141.772 736.584 141.227V140.617L735.683 140.655C734.98 140.681 734.468 140.799 734.146 141.011C733.829 141.218 733.67 141.538 733.67 141.969C733.67 142.282 733.764 142.526 733.95 142.699C734.136 142.868 734.415 142.953 734.788 142.953ZM743.719 136.821C744.019 136.821 744.267 136.842 744.461 136.885L744.315 138.275C744.104 138.224 743.884 138.199 743.655 138.199C743.059 138.199 742.574 138.393 742.202 138.783C741.833 139.172 741.649 139.678 741.649 140.3V143.969H740.158V136.948H741.326L741.522 138.186H741.599C741.831 137.767 742.134 137.435 742.506 137.189C742.883 136.944 743.287 136.821 743.719 136.821ZM744.703 136.948H746.328L747.756 140.928C747.972 141.495 748.116 142.028 748.188 142.528H748.238C748.276 142.295 748.346 142.014 748.448 141.684C748.549 141.349 749.087 139.771 750.06 136.948H751.672L748.67 144.902C748.124 146.362 747.214 147.092 745.94 147.092C745.61 147.092 745.289 147.056 744.976 146.984V145.803C745.2 145.854 745.456 145.879 745.744 145.879C746.463 145.879 746.969 145.463 747.261 144.629L747.521 143.969L744.703 136.948Z" fill="white"/>
<path d="M692.753 228.351C692.753 229.176 692.455 229.824 691.858 230.293C691.262 230.763 690.439 230.998 689.389 230.998C688.34 230.998 687.481 230.835 686.812 230.509V229.075C687.235 229.274 687.684 229.43 688.158 229.544C688.636 229.659 689.08 229.716 689.491 229.716C690.092 229.716 690.534 229.602 690.817 229.373C691.105 229.145 691.249 228.838 691.249 228.453C691.249 228.106 691.118 227.812 690.855 227.57C690.593 227.329 690.051 227.043 689.23 226.713C688.384 226.371 687.787 225.979 687.44 225.539C687.093 225.099 686.92 224.57 686.92 223.952C686.92 223.178 687.195 222.568 687.745 222.124C688.295 221.68 689.034 221.458 689.96 221.458C690.849 221.458 691.734 221.652 692.614 222.042L692.131 223.279C691.306 222.932 690.57 222.759 689.922 222.759C689.431 222.759 689.059 222.867 688.805 223.083C688.551 223.294 688.424 223.576 688.424 223.927C688.424 224.168 688.475 224.375 688.577 224.549C688.678 224.718 688.845 224.879 689.078 225.031C689.311 225.184 689.73 225.385 690.335 225.634C691.016 225.918 691.516 226.182 691.833 226.428C692.15 226.673 692.383 226.95 692.531 227.259C692.679 227.568 692.753 227.932 692.753 228.351ZM697.457 230.998C696.365 230.998 695.51 230.681 694.893 230.046C694.279 229.407 693.972 228.529 693.972 227.412C693.972 226.265 694.258 225.363 694.829 224.708C695.4 224.052 696.185 223.724 697.184 223.724C698.111 223.724 698.843 224.005 699.38 224.568C699.918 225.131 700.187 225.905 700.187 226.891V227.697H695.508C695.529 228.379 695.714 228.903 696.061 229.271C696.408 229.635 696.896 229.817 697.527 229.817C697.942 229.817 698.327 229.779 698.682 229.703C699.042 229.623 699.427 229.492 699.837 229.31V230.522C699.473 230.695 699.105 230.818 698.733 230.89C698.361 230.962 697.935 230.998 697.457 230.998ZM697.184 224.854C696.71 224.854 696.329 225.004 696.042 225.304C695.758 225.605 695.589 226.043 695.534 226.618H698.72C698.712 226.038 698.572 225.6 698.301 225.304C698.03 225.004 697.658 224.854 697.184 224.854ZM704.712 230.998C703.65 230.998 702.842 230.689 702.288 230.071C701.737 229.449 701.462 228.558 701.462 227.399C701.462 226.218 701.75 225.311 702.326 224.676C702.905 224.041 703.741 223.724 704.833 223.724C705.574 223.724 706.24 223.861 706.833 224.136L706.382 225.336C705.751 225.09 705.231 224.968 704.82 224.968C703.606 224.968 702.999 225.774 702.999 227.386C702.999 228.173 703.149 228.766 703.449 229.164C703.754 229.557 704.198 229.754 704.782 229.754C705.447 229.754 706.075 229.589 706.667 229.259V230.56C706.401 230.717 706.115 230.829 705.811 230.896C705.51 230.964 705.144 230.998 704.712 230.998ZM714.545 227.348C714.545 228.495 714.251 229.39 713.663 230.033C713.074 230.676 712.256 230.998 711.206 230.998C710.55 230.998 709.97 230.85 709.467 230.554C708.963 230.257 708.576 229.832 708.305 229.278C708.034 228.723 707.899 228.08 707.899 227.348C707.899 226.21 708.191 225.321 708.775 224.682C709.359 224.043 710.182 223.724 711.244 223.724C712.26 223.724 713.064 224.052 713.656 224.708C714.249 225.359 714.545 226.239 714.545 227.348ZM709.435 227.348C709.435 228.969 710.034 229.779 711.231 229.779C712.416 229.779 713.009 228.969 713.009 227.348C713.009 225.744 712.412 224.942 711.219 224.942C710.592 224.942 710.138 225.15 709.854 225.564C709.575 225.979 709.435 226.574 709.435 227.348ZM722.441 230.871H720.943V226.555C720.943 226.013 720.833 225.609 720.613 225.342C720.397 225.076 720.053 224.942 719.579 224.942C718.948 224.942 718.487 225.129 718.195 225.501C717.903 225.873 717.757 226.498 717.757 227.374V230.871H716.265V223.851H717.433L717.643 224.771H717.719C717.93 224.437 718.231 224.179 718.62 223.997C719.009 223.815 719.441 223.724 719.915 223.724C721.599 223.724 722.441 224.581 722.441 226.294V230.871ZM726.885 230.998C726.009 230.998 725.325 230.681 724.834 230.046C724.344 229.411 724.098 228.52 724.098 227.374C724.098 226.222 724.346 225.327 724.841 224.688C725.34 224.045 726.03 223.724 726.91 223.724C727.833 223.724 728.535 224.064 729.018 224.746H729.094C729.022 224.242 728.986 223.844 728.986 223.552V220.994H730.484V230.871H729.316L729.056 229.951H728.986C728.508 230.649 727.807 230.998 726.885 230.998ZM727.285 229.792C727.898 229.792 728.345 229.621 728.624 229.278C728.903 228.931 729.047 228.37 729.056 227.596V227.386C729.056 226.502 728.912 225.873 728.624 225.501C728.336 225.129 727.886 224.942 727.272 224.942C726.747 224.942 726.343 225.156 726.06 225.583C725.776 226.007 725.634 226.612 725.634 227.399C725.634 228.178 725.772 228.772 726.047 229.183C726.322 229.589 726.735 229.792 727.285 229.792ZM737.009 230.871L736.711 229.894H736.66C736.322 230.321 735.981 230.613 735.638 230.77C735.295 230.922 734.855 230.998 734.318 230.998C733.628 230.998 733.089 230.812 732.699 230.439C732.314 230.067 732.122 229.54 732.122 228.859C732.122 228.135 732.39 227.589 732.928 227.221C733.465 226.853 734.284 226.652 735.384 226.618L736.597 226.58V226.206C736.597 225.757 736.491 225.423 736.279 225.203C736.072 224.978 735.748 224.866 735.308 224.866C734.948 224.866 734.604 224.919 734.273 225.025C733.943 225.131 733.626 225.256 733.321 225.399L732.839 224.333C733.22 224.134 733.637 223.984 734.089 223.882C734.542 223.777 734.97 223.724 735.372 223.724C736.264 223.724 736.937 223.918 737.39 224.308C737.847 224.697 738.076 225.308 738.076 226.142V230.871H737.009ZM734.788 229.855C735.329 229.855 735.763 229.705 736.089 229.405C736.419 229.1 736.584 228.675 736.584 228.129V227.52L735.683 227.558C734.98 227.583 734.468 227.701 734.146 227.913C733.829 228.12 733.67 228.44 733.67 228.872C733.67 229.185 733.764 229.428 733.95 229.602C734.136 229.771 734.415 229.855 734.788 229.855ZM743.719 223.724C744.019 223.724 744.267 223.745 744.461 223.787L744.315 225.177C744.104 225.126 743.884 225.101 743.655 225.101C743.059 225.101 742.574 225.296 742.202 225.685C741.833 226.074 741.649 226.58 741.649 227.202V230.871H740.158V223.851H741.326L741.522 225.088H741.599C741.831 224.669 742.134 224.337 742.506 224.092C742.883 223.846 743.287 223.724 743.719 223.724ZM744.703 223.851H746.328L747.756 227.831C747.972 228.398 748.116 228.931 748.188 229.43H748.238C748.276 229.197 748.346 228.916 748.448 228.586C748.549 228.252 749.087 226.673 750.06 223.851H751.672L748.67 231.804C748.124 233.264 747.214 233.994 745.94 233.994C745.61 233.994 745.289 233.958 744.976 233.886V232.706C745.2 232.756 745.456 232.782 745.744 232.782C746.463 232.782 746.969 232.365 747.261 231.531L747.521 230.871L744.703 223.851Z" fill="white"/>
<path d="M692.753 317.867C692.753 318.692 692.455 319.339 691.858 319.809C691.262 320.279 690.439 320.514 689.389 320.514C688.34 320.514 687.481 320.351 686.812 320.025V318.59C687.235 318.789 687.684 318.946 688.158 319.06C688.636 319.174 689.08 319.231 689.491 319.231C690.092 319.231 690.534 319.117 690.817 318.889C691.105 318.66 691.249 318.353 691.249 317.968C691.249 317.621 691.118 317.327 690.855 317.086C690.593 316.845 690.051 316.559 689.23 316.229C688.384 315.886 687.787 315.495 687.44 315.055C687.093 314.615 686.92 314.086 686.92 313.468C686.92 312.693 687.195 312.084 687.745 311.64C688.295 311.195 689.034 310.973 689.96 310.973C690.849 310.973 691.734 311.168 692.614 311.557L692.131 312.795C691.306 312.448 690.57 312.274 689.922 312.274C689.431 312.274 689.059 312.382 688.805 312.598C688.551 312.81 688.424 313.091 688.424 313.442C688.424 313.684 688.475 313.891 688.577 314.064C688.678 314.234 688.845 314.395 689.078 314.547C689.311 314.699 689.73 314.9 690.335 315.15C691.016 315.433 691.516 315.698 691.833 315.943C692.15 316.189 692.383 316.466 692.531 316.775C692.679 317.084 692.753 317.448 692.753 317.867ZM697.457 320.514C696.365 320.514 695.51 320.196 694.893 319.562C694.279 318.923 693.972 318.044 693.972 316.927C693.972 315.78 694.258 314.879 694.829 314.223C695.4 313.567 696.185 313.239 697.184 313.239C698.111 313.239 698.843 313.521 699.38 314.083C699.918 314.646 700.187 315.421 700.187 316.407V317.213H695.508C695.529 317.894 695.714 318.419 696.061 318.787C696.408 319.151 696.896 319.333 697.527 319.333C697.942 319.333 698.327 319.295 698.682 319.219C699.042 319.138 699.427 319.007 699.837 318.825V320.038C699.473 320.211 699.105 320.334 698.733 320.406C698.361 320.478 697.935 320.514 697.457 320.514ZM697.184 314.369C696.71 314.369 696.329 314.519 696.042 314.82C695.758 315.12 695.589 315.558 695.534 316.134H698.72C698.712 315.554 698.572 315.116 698.301 314.82C698.03 314.519 697.658 314.369 697.184 314.369ZM704.712 320.514C703.65 320.514 702.842 320.205 702.288 319.587C701.737 318.965 701.462 318.074 701.462 316.915C701.462 315.734 701.75 314.826 702.326 314.191C702.905 313.557 703.741 313.239 704.833 313.239C705.574 313.239 706.24 313.377 706.833 313.652L706.382 314.852C705.751 314.606 705.231 314.483 704.82 314.483C703.606 314.483 702.999 315.29 702.999 316.902C702.999 317.689 703.149 318.281 703.449 318.679C703.754 319.073 704.198 319.27 704.782 319.27C705.447 319.27 706.075 319.104 706.667 318.774V320.076C706.401 320.232 706.115 320.344 705.811 320.412C705.51 320.48 705.144 320.514 704.712 320.514ZM714.545 316.864C714.545 318.011 714.251 318.906 713.663 319.549C713.074 320.192 712.256 320.514 711.206 320.514C710.55 320.514 709.97 320.366 709.467 320.069C708.963 319.773 708.576 319.348 708.305 318.793C708.034 318.239 707.899 317.596 707.899 316.864C707.899 315.725 708.191 314.837 708.775 314.198C709.359 313.559 710.182 313.239 711.244 313.239C712.26 313.239 713.064 313.567 713.656 314.223C714.249 314.875 714.545 315.755 714.545 316.864ZM709.435 316.864C709.435 318.485 710.034 319.295 711.231 319.295C712.416 319.295 713.009 318.485 713.009 316.864C713.009 315.26 712.412 314.458 711.219 314.458C710.592 314.458 710.138 314.665 709.854 315.08C709.575 315.495 709.435 316.089 709.435 316.864ZM722.441 320.387H720.943V316.07C720.943 315.529 720.833 315.125 720.613 314.858C720.397 314.591 720.053 314.458 719.579 314.458C718.948 314.458 718.487 314.644 718.195 315.017C717.903 315.389 717.757 316.013 717.757 316.889V320.387H716.265V313.366H717.433L717.643 314.287H717.719C717.93 313.952 718.231 313.694 718.62 313.512C719.009 313.33 719.441 313.239 719.915 313.239C721.599 313.239 722.441 314.096 722.441 315.81V320.387ZM726.885 320.514C726.009 320.514 725.325 320.196 724.834 319.562C724.344 318.927 724.098 318.036 724.098 316.889C724.098 315.738 724.346 314.843 724.841 314.204C725.34 313.561 726.03 313.239 726.91 313.239C727.833 313.239 728.535 313.58 729.018 314.261H729.094C729.022 313.758 728.986 313.36 728.986 313.068V310.51H730.484V320.387H729.316L729.056 319.466H728.986C728.508 320.165 727.807 320.514 726.885 320.514ZM727.285 319.308C727.898 319.308 728.345 319.136 728.624 318.793C728.903 318.446 729.047 317.886 729.056 317.111V316.902C729.056 316.017 728.912 315.389 728.624 315.017C728.336 314.644 727.886 314.458 727.272 314.458C726.747 314.458 726.343 314.672 726.06 315.099C725.776 315.522 725.634 316.127 725.634 316.915C725.634 317.693 725.772 318.288 726.047 318.698C726.322 319.104 726.735 319.308 727.285 319.308ZM737.009 320.387L736.711 319.409H736.66C736.322 319.837 735.981 320.129 735.638 320.285C735.295 320.438 734.855 320.514 734.318 320.514C733.628 320.514 733.089 320.327 732.699 319.955C732.314 319.583 732.122 319.056 732.122 318.375C732.122 317.651 732.39 317.105 732.928 316.737C733.465 316.369 734.284 316.168 735.384 316.134L736.597 316.096V315.721C736.597 315.273 736.491 314.938 736.279 314.718C736.072 314.494 735.748 314.382 735.308 314.382C734.948 314.382 734.604 314.435 734.273 314.541C733.943 314.646 733.626 314.771 733.321 314.915L732.839 313.849C733.22 313.65 733.637 313.5 734.089 313.398C734.542 313.292 734.97 313.239 735.372 313.239C736.264 313.239 736.937 313.434 737.39 313.823C737.847 314.213 738.076 314.824 738.076 315.658V320.387H737.009ZM734.788 319.371C735.329 319.371 735.763 319.221 736.089 318.92C736.419 318.616 736.584 318.19 736.584 317.645V317.035L735.683 317.073C734.98 317.099 734.468 317.217 734.146 317.429C733.829 317.636 733.67 317.956 733.67 318.387C733.67 318.7 733.764 318.944 733.95 319.117C734.136 319.286 734.415 319.371 734.788 319.371ZM743.719 313.239C744.019 313.239 744.267 313.26 744.461 313.303L744.315 314.693C744.104 314.642 743.884 314.617 743.655 314.617C743.059 314.617 742.574 314.811 742.202 315.201C741.833 315.59 741.649 316.096 741.649 316.718V320.387H740.158V313.366H741.326L741.522 314.604H741.599C741.831 314.185 742.134 313.853 742.506 313.607C742.883 313.362 743.287 313.239 743.719 313.239ZM744.703 313.366H746.328L747.756 317.346C747.972 317.913 748.116 318.446 748.188 318.946H748.238C748.276 318.713 748.346 318.432 748.448 318.102C748.549 317.767 749.087 316.189 750.06 313.366H751.672L748.67 321.32C748.124 322.78 747.214 323.51 745.94 323.51C745.61 323.51 745.289 323.474 744.976 323.402V322.221C745.2 322.272 745.456 322.297 745.744 322.297C746.463 322.297 746.969 321.881 747.261 321.047L747.521 320.387L744.703 313.366Z" fill="white"/>
<path d="M693.16 402.991L692.233 400.414H688.685L687.777 402.991H686.177L689.65 393.673H691.3L694.772 402.991H693.16ZM691.833 399.106L690.964 396.58C690.9 396.411 690.811 396.144 690.697 395.78C690.587 395.416 690.511 395.15 690.469 394.98C690.354 395.501 690.187 396.07 689.967 396.688L689.129 399.106H691.833ZM698.67 403.118C697.608 403.118 696.799 402.809 696.245 402.191C695.695 401.569 695.42 400.679 695.42 399.519C695.42 398.338 695.707 397.431 696.283 396.796C696.863 396.161 697.698 395.844 698.79 395.844C699.531 395.844 700.197 395.981 700.79 396.256L700.339 397.456C699.709 397.211 699.188 397.088 698.778 397.088C697.563 397.088 696.956 397.894 696.956 399.506C696.956 400.293 697.106 400.886 697.406 401.284C697.711 401.677 698.156 401.874 698.74 401.874C699.404 401.874 700.032 401.709 700.625 401.379V402.68C700.358 402.837 700.073 402.949 699.768 403.017C699.467 403.084 699.101 403.118 698.67 403.118ZM705.106 403.118C704.044 403.118 703.236 402.809 702.681 402.191C702.131 401.569 701.856 400.679 701.856 399.519C701.856 398.338 702.144 397.431 702.719 396.796C703.299 396.161 704.135 395.844 705.227 395.844C705.967 395.844 706.634 395.981 707.226 396.256L706.776 397.456C706.145 397.211 705.625 397.088 705.214 397.088C704 397.088 703.392 397.894 703.392 399.506C703.392 400.293 703.543 400.886 703.843 401.284C704.148 401.677 704.592 401.874 705.176 401.874C705.84 401.874 706.469 401.709 707.061 401.379V402.68C706.795 402.837 706.509 402.949 706.204 403.017C705.904 403.084 705.538 403.118 705.106 403.118ZM711.778 403.118C710.686 403.118 709.831 402.801 709.213 402.166C708.6 401.527 708.293 400.649 708.293 399.532C708.293 398.385 708.578 397.484 709.15 396.828C709.721 396.172 710.506 395.844 711.505 395.844C712.431 395.844 713.163 396.125 713.701 396.688C714.238 397.251 714.507 398.025 714.507 399.011V399.817H709.829C709.85 400.499 710.034 401.023 710.381 401.392C710.728 401.756 711.217 401.938 711.847 401.938C712.262 401.938 712.647 401.899 713.003 401.823C713.362 401.743 713.747 401.612 714.158 401.43V402.642C713.794 402.816 713.426 402.938 713.053 403.01C712.681 403.082 712.256 403.118 711.778 403.118ZM711.505 396.974C711.031 396.974 710.65 397.124 710.362 397.424C710.079 397.725 709.909 398.163 709.854 398.738H713.041C713.032 398.159 712.893 397.721 712.622 397.424C712.351 397.124 711.979 396.974 711.505 396.974ZM722.378 402.991H720.88V398.675C720.88 398.133 720.77 397.729 720.55 397.462C720.334 397.196 719.989 397.062 719.515 397.062C718.885 397.062 718.424 397.249 718.132 397.621C717.84 397.993 717.694 398.618 717.694 399.494V402.991H716.202V395.971H717.37L717.579 396.891H717.656C717.867 396.557 718.168 396.299 718.557 396.117C718.946 395.935 719.378 395.844 719.852 395.844C721.536 395.844 722.378 396.701 722.378 398.415V402.991ZM727.069 401.912C727.433 401.912 727.797 401.855 728.161 401.741V402.864C727.996 402.936 727.782 402.995 727.52 403.042C727.262 403.093 726.993 403.118 726.714 403.118C725.3 403.118 724.594 402.373 724.594 400.884V397.101H723.635V396.44L724.663 395.895L725.171 394.409H726.092V395.971H728.091V397.101H726.092V400.858C726.092 401.218 726.18 401.485 726.358 401.658C726.54 401.827 726.777 401.912 727.069 401.912Z" fill="white"/>
<path d="M879.243 397.958H882.658V402.617C882.1 402.799 881.562 402.928 881.046 403.004C880.534 403.08 879.979 403.118 879.383 403.118C877.978 403.118 876.895 402.703 876.133 401.874C875.371 401.04 874.99 399.866 874.99 398.351C874.99 396.857 875.42 395.689 876.279 394.847C877.138 394.001 878.321 393.578 879.827 393.578C880.796 393.578 881.715 393.764 882.582 394.136L882.049 395.399C881.296 395.052 880.542 394.879 879.789 394.879C878.799 394.879 878.016 395.19 877.44 395.812C876.865 396.434 876.577 397.285 876.577 398.364C876.577 399.498 876.835 400.361 877.352 400.954C877.872 401.542 878.619 401.836 879.592 401.836C880.083 401.836 880.608 401.775 881.167 401.652V399.259H879.243V397.958ZM888.295 395.844C888.595 395.844 888.843 395.865 889.038 395.907L888.892 397.297C888.68 397.247 888.46 397.221 888.231 397.221C887.635 397.221 887.15 397.416 886.778 397.805C886.41 398.194 886.226 398.7 886.226 399.322V402.991H884.734V395.971H885.902L886.099 397.208H886.175C886.408 396.79 886.71 396.457 887.083 396.212C887.459 395.966 887.863 395.844 888.295 395.844ZM894.738 402.991L894.439 402.014H894.389C894.05 402.441 893.709 402.733 893.367 402.89C893.024 403.042 892.584 403.118 892.046 403.118C891.357 403.118 890.817 402.932 890.428 402.56C890.043 402.187 889.85 401.66 889.85 400.979C889.85 400.255 890.119 399.709 890.656 399.341C891.194 398.973 892.013 398.772 893.113 398.738L894.325 398.7V398.326C894.325 397.877 894.219 397.543 894.008 397.323C893.8 397.098 893.477 396.986 893.037 396.986C892.677 396.986 892.332 397.039 892.002 397.145C891.672 397.251 891.354 397.376 891.05 397.52L890.567 396.453C890.948 396.254 891.365 396.104 891.818 396.002C892.271 395.897 892.698 395.844 893.1 395.844C893.993 395.844 894.666 396.038 895.119 396.428C895.576 396.817 895.804 397.429 895.804 398.262V402.991H894.738ZM892.516 401.976C893.058 401.976 893.492 401.825 893.817 401.525C894.147 401.22 894.312 400.795 894.312 400.249V399.64L893.411 399.678C892.709 399.703 892.197 399.822 891.875 400.033C891.558 400.241 891.399 400.56 891.399 400.992C891.399 401.305 891.492 401.548 891.678 401.722C891.864 401.891 892.144 401.976 892.516 401.976ZM900.254 403.118C899.378 403.118 898.694 402.801 898.204 402.166C897.713 401.531 897.467 400.64 897.467 399.494C897.467 398.343 897.715 397.448 898.21 396.809C898.709 396.165 899.399 395.844 900.279 395.844C901.202 395.844 901.904 396.184 902.387 396.866H902.463C902.391 396.362 902.355 395.964 902.355 395.672V393.114H903.853V402.991H902.685L902.425 402.071H902.355C901.877 402.769 901.176 403.118 900.254 403.118ZM900.654 401.912C901.267 401.912 901.714 401.741 901.993 401.398C902.272 401.051 902.416 400.49 902.425 399.716V399.506C902.425 398.622 902.281 397.993 901.993 397.621C901.705 397.249 901.255 397.062 900.641 397.062C900.116 397.062 899.712 397.276 899.429 397.704C899.145 398.127 899.003 398.732 899.003 399.519C899.003 400.298 899.141 400.892 899.416 401.303C899.691 401.709 900.104 401.912 900.654 401.912ZM907.478 402.991H905.986V395.971H907.478V402.991ZM905.897 394.111C905.897 393.844 905.969 393.639 906.113 393.495C906.261 393.351 906.47 393.279 906.741 393.279C907.004 393.279 907.207 393.351 907.351 393.495C907.499 393.639 907.573 393.844 907.573 394.111C907.573 394.365 907.499 394.566 907.351 394.714C907.207 394.858 907.004 394.93 906.741 394.93C906.47 394.93 906.261 394.858 906.113 394.714C905.969 394.566 905.897 394.365 905.897 394.111ZM912.683 403.118C911.591 403.118 910.736 402.801 910.118 402.166C909.505 401.527 909.198 400.649 909.198 399.532C909.198 398.385 909.483 397.484 910.055 396.828C910.626 396.172 911.411 395.844 912.41 395.844C913.336 395.844 914.069 396.125 914.606 396.688C915.143 397.251 915.412 398.025 915.412 399.011V399.817H910.734C910.755 400.499 910.939 401.023 911.286 401.392C911.633 401.756 912.122 401.938 912.752 401.938C913.167 401.938 913.552 401.899 913.908 401.823C914.267 401.743 914.653 401.612 915.063 401.43V402.642C914.699 402.816 914.331 402.938 913.958 403.01C913.586 403.082 913.161 403.118 912.683 403.118ZM912.41 396.974C911.936 396.974 911.555 397.124 911.267 397.424C910.984 397.725 910.814 398.163 910.759 398.738H913.946C913.937 398.159 913.798 397.721 913.527 397.424C913.256 397.124 912.884 396.974 912.41 396.974ZM923.283 402.991H921.785V398.675C921.785 398.133 921.675 397.729 921.455 397.462C921.239 397.196 920.894 397.062 920.42 397.062C919.79 397.062 919.329 397.249 919.037 397.621C918.745 397.993 918.599 398.618 918.599 399.494V402.991H917.107V395.971H918.275L918.484 396.891H918.561C918.772 396.557 919.073 396.299 919.462 396.117C919.851 395.935 920.283 395.844 920.757 395.844C922.441 395.844 923.283 396.701 923.283 398.415V402.991ZM927.974 401.912C928.338 401.912 928.702 401.855 929.066 401.741V402.864C928.901 402.936 928.687 402.995 928.425 403.042C928.167 403.093 927.898 403.118 927.619 403.118C926.205 403.118 925.499 402.373 925.499 400.884V397.101H924.54V396.44L925.568 395.895L926.076 394.409H926.997V395.971H928.996V397.101H926.997V400.858C926.997 401.218 927.085 401.485 927.263 401.658C927.445 401.827 927.682 401.912 927.974 401.912Z" fill="white"/>
</svg>
