<svg width="1032" height="474" viewBox="0 0 1032 474" fill="none" xmlns="http://www.w3.org/2000/svg">
<rect x="619.826" y="1.17441" width="466.651" height="618.651" rx="3.52324" transform="rotate(90 619.826 1.17441)" fill="white" stroke="#EEEEEE" stroke-width="2.34882"/>
<rect x="862" y="381" width="168.95" height="38.41" rx="4.72" fill="url(#paint0_linear)"/>
<rect x="1031.05" y="435.979" width="32.7173" height="356.313" rx="4.69765" transform="rotate(90 1031.05 435.979)" fill="#181818"/>
<rect x="1030.79" y="0.390625" width="106.169" height="356.313" rx="4.71541" transform="rotate(90 1030.79 0.390625)" fill="#1E6CFF"/>
<rect width="76.8271" height="356.313" rx="4.71541" transform="matrix(1.03326e-06 -1 -1 -7.79462e-08 1030.79 194.795)" fill="#3DA2FF"/>
<rect width="76.8271" height="356.313" rx="4.71541" transform="matrix(1.10322e-06 -1 -1 -7.77526e-08 1030.79 283.004)" fill="#0057FF"/>
<rect width="76.8271" height="356.313" rx="4.71541" transform="matrix(1.10322e-06 -1 -1 -7.77526e-08 1030.79 371.213)" fill="#091BB9"/>
<rect width="38.4071" height="178.414" rx="4.71541" transform="matrix(7.04934e-08 -1 -1 -1.05083e-07 852.894 419.571)" fill="#1E6FFF"/>
<path d="M692.547 19.916C692.547 20.8851 692.23 21.6278 691.595 22.144C690.96 22.6603 690.057 22.9185 688.885 22.9185H687.92V26.3906H686.403V17.1104H689.075C690.234 17.1104 691.102 17.3473 691.677 17.8213C692.257 18.2952 692.547 18.9935 692.547 19.916ZM687.92 21.6426H688.726C689.504 21.6426 690.076 21.5072 690.44 21.2363C690.804 20.9655 690.986 20.5423 690.986 19.9668C690.986 19.4336 690.823 19.0358 690.497 18.7734C690.171 18.5111 689.663 18.3799 688.973 18.3799H687.92V21.6426ZM697.803 19.2432C698.103 19.2432 698.351 19.2643 698.546 19.3066L698.4 20.6968C698.188 20.646 697.968 20.6206 697.74 20.6206C697.143 20.6206 696.658 20.8153 696.286 21.2046C695.918 21.5939 695.734 22.0996 695.734 22.7217V26.3906H694.242V19.3701H695.41L695.607 20.6079H695.683C695.916 20.189 696.218 19.8568 696.591 19.6113C696.967 19.3659 697.371 19.2432 697.803 19.2432ZM701.345 26.3906H699.853V19.3701H701.345V26.3906ZM699.764 17.5103C699.764 17.2437 699.836 17.0384 699.98 16.8945C700.128 16.7507 700.338 16.6787 700.609 16.6787C700.871 16.6787 701.074 16.7507 701.218 16.8945C701.366 17.0384 701.44 17.2437 701.44 17.5103C701.44 17.7642 701.366 17.9652 701.218 18.1133C701.074 18.2572 700.871 18.3291 700.609 18.3291C700.338 18.3291 700.128 18.2572 699.98 18.1133C699.836 17.9652 699.764 17.7642 699.764 17.5103ZM709.4 26.3906H707.902V22.0615C707.902 21.5241 707.801 21.1242 707.597 20.8618C707.394 20.5952 707.077 20.4619 706.645 20.4619C706.07 20.4619 705.647 20.6502 705.376 21.0269C705.109 21.3993 704.976 22.0213 704.976 22.8931V26.3906H703.484V19.3701H704.652L704.862 20.2905H704.938C705.132 19.9562 705.414 19.6981 705.782 19.5161C706.154 19.3341 706.563 19.2432 707.007 19.2432C708.086 19.2432 708.801 19.6113 709.153 20.3477H709.254C709.462 20.0007 709.753 19.7298 710.13 19.5352C710.507 19.3405 710.938 19.2432 711.425 19.2432C712.263 19.2432 712.872 19.4548 713.253 19.8779C713.638 20.3011 713.831 20.9465 713.831 21.814V26.3906H712.339V22.0615C712.339 21.5241 712.235 21.1242 712.028 20.8618C711.825 20.5952 711.508 20.4619 711.076 20.4619C710.496 20.4619 710.071 20.6439 709.8 21.0078C709.533 21.3675 709.4 21.9219 709.4 22.6709V26.3906ZM720.305 26.3906L720.007 25.4131H719.956C719.618 25.8405 719.277 26.1325 718.934 26.2891C718.592 26.4414 718.151 26.5176 717.614 26.5176C716.924 26.5176 716.385 26.3314 715.995 25.959C715.61 25.5866 715.418 25.0597 715.418 24.3784C715.418 23.6548 715.686 23.1089 716.224 22.7407C716.761 22.3726 717.58 22.1715 718.68 22.1377L719.893 22.0996V21.7251C719.893 21.2765 719.787 20.9422 719.575 20.7222C719.368 20.4979 719.044 20.3857 718.604 20.3857C718.245 20.3857 717.9 20.4386 717.57 20.5444C717.24 20.6502 716.922 20.7751 716.617 20.9189L716.135 19.8525C716.516 19.6536 716.933 19.5034 717.385 19.4019C717.838 19.2961 718.266 19.2432 718.668 19.2432C719.561 19.2432 720.233 19.4378 720.686 19.8271C721.143 20.2165 721.372 20.828 721.372 21.6616V26.3906H720.305ZM718.084 25.375C718.625 25.375 719.059 25.2248 719.385 24.9243C719.715 24.6196 719.88 24.1943 719.88 23.6484V23.0391L718.979 23.0771C718.276 23.1025 717.764 23.221 717.443 23.4326C717.125 23.64 716.967 23.9595 716.967 24.3911C716.967 24.7043 717.06 24.9476 717.246 25.1211C717.432 25.2904 717.711 25.375 718.084 25.375ZM727.015 19.2432C727.315 19.2432 727.563 19.2643 727.758 19.3066L727.612 20.6968C727.4 20.646 727.18 20.6206 726.951 20.6206C726.355 20.6206 725.87 20.8153 725.498 21.2046C725.13 21.5939 724.946 22.0996 724.946 22.7217V26.3906H723.454V19.3701H724.622L724.819 20.6079H724.895C725.128 20.189 725.43 19.8568 725.802 19.6113C726.179 19.3659 726.583 19.2432 727.015 19.2432ZM727.999 19.3701H729.624L731.052 23.3501C731.268 23.9172 731.412 24.4504 731.484 24.9497H731.534C731.573 24.717 731.642 24.4355 731.744 24.1055C731.845 23.7712 732.383 22.1927 733.356 19.3701H734.969L731.966 27.3237C731.42 28.7837 730.51 29.5137 729.237 29.5137C728.906 29.5137 728.585 29.4777 728.272 29.4058V28.2251C728.496 28.2759 728.752 28.3013 729.04 28.3013C729.759 28.3013 730.265 27.8844 730.557 27.0508L730.817 26.3906L727.999 19.3701Z" fill="white"/>
<path d="M692.16 457.337L691.233 454.76H687.685L686.777 457.337H685.177L688.65 448.019H690.3L693.772 457.337H692.16ZM690.833 453.452L689.964 450.926C689.9 450.757 689.811 450.49 689.697 450.126C689.587 449.762 689.511 449.495 689.469 449.326C689.354 449.847 689.187 450.416 688.967 451.034L688.129 453.452H690.833ZM698.946 449.225C698.074 449.225 697.388 449.534 696.889 450.151C696.39 450.769 696.14 451.622 696.14 452.709C696.14 453.848 696.379 454.709 696.857 455.293C697.34 455.877 698.036 456.169 698.946 456.169C699.339 456.169 699.72 456.131 700.088 456.055C700.456 455.974 700.839 455.873 701.237 455.75V457.051C700.509 457.326 699.684 457.464 698.761 457.464C697.403 457.464 696.36 457.053 695.632 456.232C694.904 455.407 694.54 454.229 694.54 452.697C694.54 451.732 694.716 450.888 695.067 450.164C695.423 449.44 695.935 448.886 696.603 448.501C697.272 448.116 698.057 447.923 698.958 447.923C699.906 447.923 700.782 448.122 701.586 448.52L701.04 449.783C700.727 449.635 700.395 449.506 700.044 449.396C699.697 449.282 699.331 449.225 698.946 449.225ZM707.248 457.337L704.557 449.586H704.506C704.578 450.737 704.614 451.817 704.614 452.824V457.337H703.237V448.057H705.376L707.953 455.439H707.991L710.644 448.057H712.79V457.337H711.33V452.748C711.33 452.286 711.34 451.685 711.362 450.945C711.387 450.204 711.408 449.756 711.425 449.599H711.374L708.588 457.337H707.248ZM718.611 448.057H721.365C722.643 448.057 723.566 448.243 724.133 448.615C724.704 448.988 724.99 449.576 724.99 450.38C724.99 450.922 724.85 451.372 724.571 451.732C724.292 452.092 723.89 452.318 723.365 452.411V452.475C724.017 452.597 724.495 452.841 724.8 453.205C725.108 453.564 725.263 454.053 725.263 454.671C725.263 455.505 724.971 456.158 724.387 456.632C723.807 457.102 722.999 457.337 721.962 457.337H718.611V448.057ZM720.128 451.891H721.588C722.222 451.891 722.686 451.791 722.978 451.592C723.27 451.389 723.416 451.046 723.416 450.564C723.416 450.128 723.257 449.813 722.94 449.618C722.627 449.424 722.127 449.326 721.442 449.326H720.128V451.891ZM720.128 453.122V456.061H721.74C722.375 456.061 722.853 455.94 723.175 455.699C723.5 455.454 723.663 455.069 723.663 454.544C723.663 454.062 723.498 453.704 723.168 453.471C722.838 453.238 722.337 453.122 721.664 453.122H720.128ZM728.526 457.337H727.034V447.46H728.526V457.337ZM735.057 457.337L734.759 456.359H734.708C734.37 456.787 734.029 457.079 733.686 457.235C733.344 457.388 732.903 457.464 732.366 457.464C731.676 457.464 731.137 457.278 730.747 456.905C730.362 456.533 730.17 456.006 730.17 455.325C730.17 454.601 730.438 454.055 730.976 453.687C731.513 453.319 732.332 453.118 733.432 453.084L734.645 453.046V452.671C734.645 452.223 734.539 451.889 734.327 451.668C734.12 451.444 733.796 451.332 733.356 451.332C732.997 451.332 732.652 451.385 732.322 451.491C731.991 451.597 731.674 451.721 731.369 451.865L730.887 450.799C731.268 450.6 731.685 450.45 732.137 450.348C732.59 450.242 733.018 450.189 733.42 450.189C734.313 450.189 734.985 450.384 735.438 450.773C735.895 451.163 736.124 451.774 736.124 452.608V457.337H735.057ZM732.836 456.321C733.377 456.321 733.811 456.171 734.137 455.871C734.467 455.566 734.632 455.141 734.632 454.595V453.985L733.731 454.023C733.028 454.049 732.516 454.167 732.195 454.379C731.877 454.586 731.719 454.906 731.719 455.337C731.719 455.651 731.812 455.894 731.998 456.067C732.184 456.237 732.463 456.321 732.836 456.321ZM741.037 457.464C739.975 457.464 739.166 457.155 738.612 456.537C738.062 455.915 737.787 455.024 737.787 453.865C737.787 452.684 738.075 451.776 738.65 451.142C739.23 450.507 740.066 450.189 741.157 450.189C741.898 450.189 742.565 450.327 743.157 450.602L742.706 451.802C742.076 451.556 741.555 451.434 741.145 451.434C739.93 451.434 739.323 452.24 739.323 453.852C739.323 454.639 739.473 455.232 739.774 455.629C740.078 456.023 740.523 456.22 741.107 456.22C741.771 456.22 742.399 456.055 742.992 455.725V457.026C742.725 457.182 742.44 457.295 742.135 457.362C741.835 457.43 741.469 457.464 741.037 457.464ZM746.083 453.63L746.927 452.576L749.048 450.316H750.768L747.943 453.332L750.946 457.337H749.194L746.94 454.258L746.121 454.931V457.337H744.642V447.46H746.121V452.278L746.045 453.63H746.083Z" fill="white"/>
<path d="M27.9824 32L27.0557 29.4229H23.5073L22.5996 32H21L24.4722 22.6816H26.1226L29.5947 32H27.9824ZM26.6558 28.1152L25.7861 25.5889C25.7227 25.4196 25.6338 25.153 25.5195 24.7891C25.4095 24.4251 25.3333 24.1585 25.291 23.9893C25.1768 24.5098 25.0096 25.0789 24.7896 25.6968L23.9517 28.1152H26.6558ZM34.7681 23.8877C33.8963 23.8877 33.2108 24.1966 32.7114 24.8145C32.2121 25.4323 31.9624 26.285 31.9624 27.3726C31.9624 28.5109 32.2015 29.3721 32.6797 29.9561C33.1621 30.54 33.8582 30.832 34.7681 30.832C35.1616 30.832 35.5425 30.7939 35.9106 30.7178C36.2788 30.6374 36.6618 30.5358 37.0596 30.4131V31.7144C36.3317 31.9894 35.5065 32.127 34.584 32.127C33.2256 32.127 32.1825 31.7165 31.4546 30.8955C30.7267 30.0703 30.3628 28.8918 30.3628 27.3599C30.3628 26.395 30.5384 25.5508 30.8896 24.8271C31.2451 24.1035 31.7572 23.5492 32.4258 23.1641C33.0944 22.779 33.8794 22.5864 34.7808 22.5864C35.7287 22.5864 36.6047 22.7853 37.4087 23.1831L36.8628 24.4463C36.5496 24.2982 36.2174 24.1691 35.8662 24.0591C35.5192 23.9448 35.1532 23.8877 34.7681 23.8877ZM43.0708 32L40.3794 24.2495H40.3286C40.4006 25.4006 40.4365 26.4797 40.4365 27.4868V32H39.0591V22.7197H41.1982L43.7754 30.1021H43.8135L46.4668 22.7197H48.6123V32H47.1523V27.4106C47.1523 26.9494 47.1629 26.3485 47.1841 25.6079C47.2095 24.8674 47.2306 24.4188 47.2476 24.2622H47.1968L44.4102 32H43.0708ZM62.9961 32H61.3457L59.7715 26.4648C59.7038 26.2236 59.6191 25.8766 59.5176 25.4238C59.416 24.9668 59.3547 24.6494 59.3335 24.4717C59.2912 24.7425 59.2214 25.0938 59.124 25.5254C59.0309 25.957 58.9526 26.2786 58.8892 26.4902L57.353 32H55.7026L54.5029 27.3535L53.2842 22.7197H54.833L56.1597 28.1279C56.367 28.9954 56.5151 29.7614 56.604 30.4258C56.6506 30.0661 56.7204 29.6641 56.8135 29.2197C56.9066 28.7754 56.9912 28.4157 57.0674 28.1406L58.5781 22.7197H60.0825L61.6313 28.166C61.7795 28.6696 61.936 29.4229 62.1011 30.4258C62.1646 29.8206 62.3169 29.0505 62.5581 28.1152L63.8784 22.7197H65.4146L62.9961 32ZM72.7524 32H71.2544V27.6836C71.2544 27.1419 71.1444 26.7378 70.9243 26.4712C70.7085 26.2046 70.3636 26.0713 69.8896 26.0713C69.2633 26.0713 68.8021 26.2596 68.5059 26.6362C68.2139 27.0086 68.0679 27.6349 68.0679 28.5151V32H66.5762V22.123H68.0679V24.6304C68.0679 25.0324 68.0425 25.4619 67.9917 25.9189H68.0869C68.29 25.5804 68.5715 25.318 68.9312 25.1318C69.2951 24.9456 69.7183 24.8525 70.2007 24.8525C71.9019 24.8525 72.7524 25.7095 72.7524 27.4233V32ZM76.3198 32H74.8281V24.9795H76.3198V32ZM74.7393 23.1196C74.7393 22.853 74.8112 22.6478 74.9551 22.5039C75.1032 22.36 75.3127 22.2881 75.5835 22.2881C75.8459 22.2881 76.049 22.36 76.1929 22.5039C76.341 22.6478 76.415 22.853 76.415 23.1196C76.415 23.3735 76.341 23.5745 76.1929 23.7227C76.049 23.8665 75.8459 23.9385 75.5835 23.9385C75.3127 23.9385 75.1032 23.8665 74.9551 23.7227C74.8112 23.5745 74.7393 23.3735 74.7393 23.1196ZM81.0742 30.9209C81.4382 30.9209 81.8021 30.8638 82.166 30.7495V31.873C82.001 31.945 81.7873 32.0042 81.5249 32.0508C81.2668 32.1016 80.998 32.127 80.7188 32.127C79.3053 32.127 78.5986 31.3822 78.5986 29.8926V26.1094H77.6401V25.4492L78.6685 24.9033L79.1763 23.418H80.0967V24.9795H82.0962V26.1094H80.0967V29.8672C80.0967 30.2269 80.1855 30.4935 80.3633 30.667C80.5452 30.8363 80.7822 30.9209 81.0742 30.9209ZM86.6411 32.127C85.5493 32.127 84.6945 31.8096 84.0767 31.1748C83.4631 30.5358 83.1562 29.6577 83.1562 28.5405C83.1562 27.3937 83.4419 26.4924 84.0132 25.8364C84.5845 25.1805 85.3695 24.8525 86.3682 24.8525C87.2949 24.8525 88.027 25.134 88.5645 25.6968C89.1019 26.2596 89.3706 27.034 89.3706 28.02V28.8262H84.6924C84.7135 29.5075 84.8976 30.0322 85.2446 30.4004C85.5916 30.7643 86.0804 30.9463 86.7109 30.9463C87.1257 30.9463 87.5107 30.9082 87.8662 30.832C88.2259 30.7516 88.611 30.6204 89.0215 30.4385V31.6509C88.6576 31.8244 88.2894 31.9471 87.917 32.019C87.5446 32.091 87.1193 32.127 86.6411 32.127ZM86.3682 25.9824C85.8942 25.9824 85.5133 26.1326 85.2256 26.4331C84.9421 26.7336 84.7728 27.1715 84.7178 27.7471H87.9043C87.8958 27.1673 87.7562 26.7293 87.4854 26.4331C87.2145 26.1326 86.8421 25.9824 86.3682 25.9824Z" fill="#181818"/>
<path d="M691.753 141.449C691.753 142.274 691.455 142.921 690.858 143.391C690.262 143.861 689.439 144.096 688.389 144.096C687.34 144.096 686.481 143.933 685.812 143.607V142.172C686.235 142.371 686.684 142.528 687.158 142.642C687.636 142.756 688.08 142.813 688.491 142.813C689.092 142.813 689.534 142.699 689.817 142.471C690.105 142.242 690.249 141.935 690.249 141.55C690.249 141.203 690.118 140.909 689.855 140.668C689.593 140.427 689.051 140.141 688.23 139.811C687.384 139.468 686.787 139.077 686.44 138.637C686.093 138.197 685.92 137.668 685.92 137.05C685.92 136.275 686.195 135.666 686.745 135.222C687.295 134.777 688.034 134.555 688.96 134.555C689.849 134.555 690.734 134.75 691.614 135.139L691.131 136.377C690.306 136.03 689.57 135.856 688.922 135.856C688.431 135.856 688.059 135.964 687.805 136.18C687.551 136.392 687.424 136.673 687.424 137.024C687.424 137.266 687.475 137.473 687.577 137.646C687.678 137.816 687.845 137.977 688.078 138.129C688.311 138.281 688.73 138.482 689.335 138.732C690.016 139.015 690.516 139.28 690.833 139.525C691.15 139.771 691.383 140.048 691.531 140.357C691.679 140.666 691.753 141.03 691.753 141.449ZM696.457 144.096C695.365 144.096 694.51 143.778 693.893 143.144C693.279 142.505 692.972 141.626 692.972 140.509C692.972 139.362 693.258 138.461 693.829 137.805C694.4 137.149 695.185 136.821 696.184 136.821C697.111 136.821 697.843 137.103 698.38 137.666C698.918 138.228 699.187 139.003 699.187 139.989V140.795H694.508C694.529 141.476 694.714 142.001 695.061 142.369C695.408 142.733 695.896 142.915 696.527 142.915C696.942 142.915 697.327 142.877 697.682 142.801C698.042 142.72 698.427 142.589 698.837 142.407V143.62C698.473 143.793 698.105 143.916 697.733 143.988C697.361 144.06 696.935 144.096 696.457 144.096ZM696.184 137.951C695.71 137.951 695.329 138.101 695.042 138.402C694.758 138.702 694.589 139.14 694.534 139.716H697.72C697.712 139.136 697.572 138.698 697.301 138.402C697.03 138.101 696.658 137.951 696.184 137.951ZM703.712 144.096C702.65 144.096 701.842 143.787 701.288 143.169C700.737 142.547 700.462 141.656 700.462 140.497C700.462 139.316 700.75 138.408 701.326 137.773C701.905 137.139 702.741 136.821 703.833 136.821C704.574 136.821 705.24 136.959 705.833 137.234L705.382 138.434C704.751 138.188 704.231 138.065 703.82 138.065C702.606 138.065 701.999 138.872 701.999 140.484C701.999 141.271 702.149 141.863 702.449 142.261C702.754 142.655 703.198 142.852 703.782 142.852C704.447 142.852 705.075 142.687 705.667 142.356V143.658C705.401 143.814 705.115 143.926 704.811 143.994C704.51 144.062 704.144 144.096 703.712 144.096ZM713.545 140.446C713.545 141.593 713.251 142.488 712.663 143.131C712.074 143.774 711.256 144.096 710.206 144.096C709.55 144.096 708.97 143.948 708.467 143.651C707.963 143.355 707.576 142.93 707.305 142.375C707.034 141.821 706.899 141.178 706.899 140.446C706.899 139.307 707.191 138.419 707.775 137.78C708.359 137.141 709.182 136.821 710.244 136.821C711.26 136.821 712.064 137.149 712.656 137.805C713.249 138.457 713.545 139.337 713.545 140.446ZM708.435 140.446C708.435 142.067 709.034 142.877 710.231 142.877C711.416 142.877 712.009 142.067 712.009 140.446C712.009 138.842 711.412 138.04 710.219 138.04C709.592 138.04 709.138 138.247 708.854 138.662C708.575 139.077 708.435 139.671 708.435 140.446ZM721.441 143.969H719.943V139.652C719.943 139.111 719.833 138.707 719.613 138.44C719.397 138.173 719.053 138.04 718.579 138.04C717.948 138.04 717.487 138.226 717.195 138.599C716.903 138.971 716.757 139.595 716.757 140.471V143.969H715.265V136.948H716.433L716.643 137.869H716.719C716.93 137.534 717.231 137.276 717.62 137.094C718.009 136.912 718.441 136.821 718.915 136.821C720.599 136.821 721.441 137.678 721.441 139.392V143.969ZM725.885 144.096C725.009 144.096 724.325 143.778 723.834 143.144C723.344 142.509 723.098 141.618 723.098 140.471C723.098 139.32 723.346 138.425 723.841 137.786C724.34 137.143 725.03 136.821 725.91 136.821C726.833 136.821 727.535 137.162 728.018 137.843H728.094C728.022 137.34 727.986 136.942 727.986 136.65V134.092H729.484V143.969H728.316L728.056 143.048H727.986C727.508 143.747 726.807 144.096 725.885 144.096ZM726.285 142.89C726.898 142.89 727.345 142.718 727.624 142.375C727.903 142.028 728.047 141.468 728.056 140.693V140.484C728.056 139.599 727.912 138.971 727.624 138.599C727.336 138.226 726.886 138.04 726.272 138.04C725.747 138.04 725.343 138.254 725.06 138.681C724.776 139.104 724.634 139.709 724.634 140.497C724.634 141.275 724.772 141.87 725.047 142.28C725.322 142.687 725.735 142.89 726.285 142.89ZM736.009 143.969L735.711 142.991H735.66C735.322 143.419 734.981 143.711 734.638 143.867C734.295 144.02 733.855 144.096 733.318 144.096C732.628 144.096 732.089 143.91 731.699 143.537C731.314 143.165 731.122 142.638 731.122 141.957C731.122 141.233 731.39 140.687 731.928 140.319C732.465 139.951 733.284 139.75 734.384 139.716L735.597 139.678V139.303C735.597 138.855 735.491 138.52 735.279 138.3C735.072 138.076 734.748 137.964 734.308 137.964C733.948 137.964 733.604 138.017 733.273 138.123C732.943 138.228 732.626 138.353 732.321 138.497L731.839 137.431C732.22 137.232 732.637 137.082 733.089 136.98C733.542 136.874 733.97 136.821 734.372 136.821C735.264 136.821 735.937 137.016 736.39 137.405C736.847 137.795 737.076 138.406 737.076 139.24V143.969H736.009ZM733.788 142.953C734.329 142.953 734.763 142.803 735.089 142.502C735.419 142.198 735.584 141.772 735.584 141.227V140.617L734.683 140.655C733.98 140.681 733.468 140.799 733.146 141.011C732.829 141.218 732.67 141.538 732.67 141.969C732.67 142.282 732.764 142.526 732.95 142.699C733.136 142.868 733.415 142.953 733.788 142.953ZM742.719 136.821C743.019 136.821 743.267 136.842 743.461 136.885L743.315 138.275C743.104 138.224 742.884 138.199 742.655 138.199C742.059 138.199 741.574 138.393 741.202 138.783C740.833 139.172 740.649 139.678 740.649 140.3V143.969H739.158V136.948H740.326L740.522 138.186H740.599C740.831 137.767 741.134 137.435 741.506 137.189C741.883 136.944 742.287 136.821 742.719 136.821ZM743.703 136.948H745.328L746.756 140.928C746.972 141.495 747.116 142.028 747.188 142.528H747.238C747.276 142.295 747.346 142.014 747.448 141.684C747.549 141.349 748.087 139.771 749.06 136.948H750.672L747.67 144.902C747.124 146.362 746.214 147.092 744.94 147.092C744.61 147.092 744.289 147.056 743.976 146.984V145.803C744.2 145.854 744.456 145.879 744.744 145.879C745.463 145.879 745.969 145.463 746.261 144.629L746.521 143.969L743.703 136.948Z" fill="white"/>
<path d="M691.753 228.351C691.753 229.176 691.455 229.824 690.858 230.293C690.262 230.763 689.439 230.998 688.389 230.998C687.34 230.998 686.481 230.835 685.812 230.509V229.075C686.235 229.274 686.684 229.43 687.158 229.544C687.636 229.659 688.08 229.716 688.491 229.716C689.092 229.716 689.534 229.602 689.817 229.373C690.105 229.145 690.249 228.838 690.249 228.453C690.249 228.106 690.118 227.812 689.855 227.57C689.593 227.329 689.051 227.043 688.23 226.713C687.384 226.371 686.787 225.979 686.44 225.539C686.093 225.099 685.92 224.57 685.92 223.952C685.92 223.178 686.195 222.568 686.745 222.124C687.295 221.68 688.034 221.458 688.96 221.458C689.849 221.458 690.734 221.652 691.614 222.042L691.131 223.279C690.306 222.932 689.57 222.759 688.922 222.759C688.431 222.759 688.059 222.867 687.805 223.083C687.551 223.294 687.424 223.576 687.424 223.927C687.424 224.168 687.475 224.375 687.577 224.549C687.678 224.718 687.845 224.879 688.078 225.031C688.311 225.184 688.73 225.385 689.335 225.634C690.016 225.918 690.516 226.182 690.833 226.428C691.15 226.673 691.383 226.95 691.531 227.259C691.679 227.568 691.753 227.932 691.753 228.351ZM696.457 230.998C695.365 230.998 694.51 230.681 693.893 230.046C693.279 229.407 692.972 228.529 692.972 227.412C692.972 226.265 693.258 225.363 693.829 224.708C694.4 224.052 695.185 223.724 696.184 223.724C697.111 223.724 697.843 224.005 698.38 224.568C698.918 225.131 699.187 225.905 699.187 226.891V227.697H694.508C694.529 228.379 694.714 228.903 695.061 229.271C695.408 229.635 695.896 229.817 696.527 229.817C696.942 229.817 697.327 229.779 697.682 229.703C698.042 229.623 698.427 229.492 698.837 229.31V230.522C698.473 230.695 698.105 230.818 697.733 230.89C697.361 230.962 696.935 230.998 696.457 230.998ZM696.184 224.854C695.71 224.854 695.329 225.004 695.042 225.304C694.758 225.605 694.589 226.043 694.534 226.618H697.72C697.712 226.038 697.572 225.6 697.301 225.304C697.03 225.004 696.658 224.854 696.184 224.854ZM703.712 230.998C702.65 230.998 701.842 230.689 701.288 230.071C700.737 229.449 700.462 228.558 700.462 227.399C700.462 226.218 700.75 225.311 701.326 224.676C701.905 224.041 702.741 223.724 703.833 223.724C704.574 223.724 705.24 223.861 705.833 224.136L705.382 225.336C704.751 225.09 704.231 224.968 703.82 224.968C702.606 224.968 701.999 225.774 701.999 227.386C701.999 228.173 702.149 228.766 702.449 229.164C702.754 229.557 703.198 229.754 703.782 229.754C704.447 229.754 705.075 229.589 705.667 229.259V230.56C705.401 230.717 705.115 230.829 704.811 230.896C704.51 230.964 704.144 230.998 703.712 230.998ZM713.545 227.348C713.545 228.495 713.251 229.39 712.663 230.033C712.074 230.676 711.256 230.998 710.206 230.998C709.55 230.998 708.97 230.85 708.467 230.554C707.963 230.257 707.576 229.832 707.305 229.278C707.034 228.723 706.899 228.08 706.899 227.348C706.899 226.21 707.191 225.321 707.775 224.682C708.359 224.043 709.182 223.724 710.244 223.724C711.26 223.724 712.064 224.052 712.656 224.708C713.249 225.359 713.545 226.239 713.545 227.348ZM708.435 227.348C708.435 228.969 709.034 229.779 710.231 229.779C711.416 229.779 712.009 228.969 712.009 227.348C712.009 225.744 711.412 224.942 710.219 224.942C709.592 224.942 709.138 225.15 708.854 225.564C708.575 225.979 708.435 226.574 708.435 227.348ZM721.441 230.871H719.943V226.555C719.943 226.013 719.833 225.609 719.613 225.342C719.397 225.076 719.053 224.942 718.579 224.942C717.948 224.942 717.487 225.129 717.195 225.501C716.903 225.873 716.757 226.498 716.757 227.374V230.871H715.265V223.851H716.433L716.643 224.771H716.719C716.93 224.437 717.231 224.179 717.62 223.997C718.009 223.815 718.441 223.724 718.915 223.724C720.599 223.724 721.441 224.581 721.441 226.294V230.871ZM725.885 230.998C725.009 230.998 724.325 230.681 723.834 230.046C723.344 229.411 723.098 228.52 723.098 227.374C723.098 226.222 723.346 225.327 723.841 224.688C724.34 224.045 725.03 223.724 725.91 223.724C726.833 223.724 727.535 224.064 728.018 224.746H728.094C728.022 224.242 727.986 223.844 727.986 223.552V220.994H729.484V230.871H728.316L728.056 229.951H727.986C727.508 230.649 726.807 230.998 725.885 230.998ZM726.285 229.792C726.898 229.792 727.345 229.621 727.624 229.278C727.903 228.931 728.047 228.37 728.056 227.596V227.386C728.056 226.502 727.912 225.873 727.624 225.501C727.336 225.129 726.886 224.942 726.272 224.942C725.747 224.942 725.343 225.156 725.06 225.583C724.776 226.007 724.634 226.612 724.634 227.399C724.634 228.178 724.772 228.772 725.047 229.183C725.322 229.589 725.735 229.792 726.285 229.792ZM736.009 230.871L735.711 229.894H735.66C735.322 230.321 734.981 230.613 734.638 230.77C734.295 230.922 733.855 230.998 733.318 230.998C732.628 230.998 732.089 230.812 731.699 230.439C731.314 230.067 731.122 229.54 731.122 228.859C731.122 228.135 731.39 227.589 731.928 227.221C732.465 226.853 733.284 226.652 734.384 226.618L735.597 226.58V226.206C735.597 225.757 735.491 225.423 735.279 225.203C735.072 224.978 734.748 224.866 734.308 224.866C733.948 224.866 733.604 224.919 733.273 225.025C732.943 225.131 732.626 225.256 732.321 225.399L731.839 224.333C732.22 224.134 732.637 223.984 733.089 223.882C733.542 223.777 733.97 223.724 734.372 223.724C735.264 223.724 735.937 223.918 736.39 224.308C736.847 224.697 737.076 225.308 737.076 226.142V230.871H736.009ZM733.788 229.855C734.329 229.855 734.763 229.705 735.089 229.405C735.419 229.1 735.584 228.675 735.584 228.129V227.52L734.683 227.558C733.98 227.583 733.468 227.701 733.146 227.913C732.829 228.12 732.67 228.44 732.67 228.872C732.67 229.185 732.764 229.428 732.95 229.602C733.136 229.771 733.415 229.855 733.788 229.855ZM742.719 223.724C743.019 223.724 743.267 223.745 743.461 223.787L743.315 225.177C743.104 225.126 742.884 225.101 742.655 225.101C742.059 225.101 741.574 225.296 741.202 225.685C740.833 226.074 740.649 226.58 740.649 227.202V230.871H739.158V223.851H740.326L740.522 225.088H740.599C740.831 224.669 741.134 224.337 741.506 224.092C741.883 223.846 742.287 223.724 742.719 223.724ZM743.703 223.851H745.328L746.756 227.831C746.972 228.398 747.116 228.931 747.188 229.43H747.238C747.276 229.197 747.346 228.916 747.448 228.586C747.549 228.252 748.087 226.673 749.06 223.851H750.672L747.67 231.804C747.124 233.264 746.214 233.994 744.94 233.994C744.61 233.994 744.289 233.958 743.976 233.886V232.706C744.2 232.756 744.456 232.782 744.744 232.782C745.463 232.782 745.969 232.365 746.261 231.531L746.521 230.871L743.703 223.851Z" fill="white"/>
<path d="M691.753 317.867C691.753 318.692 691.455 319.339 690.858 319.809C690.262 320.279 689.439 320.514 688.389 320.514C687.34 320.514 686.481 320.351 685.812 320.025V318.59C686.235 318.789 686.684 318.946 687.158 319.06C687.636 319.174 688.08 319.231 688.491 319.231C689.092 319.231 689.534 319.117 689.817 318.889C690.105 318.66 690.249 318.353 690.249 317.968C690.249 317.621 690.118 317.327 689.855 317.086C689.593 316.845 689.051 316.559 688.23 316.229C687.384 315.886 686.787 315.495 686.44 315.055C686.093 314.615 685.92 314.086 685.92 313.468C685.92 312.693 686.195 312.084 686.745 311.64C687.295 311.195 688.034 310.973 688.96 310.973C689.849 310.973 690.734 311.168 691.614 311.557L691.131 312.795C690.306 312.448 689.57 312.274 688.922 312.274C688.431 312.274 688.059 312.382 687.805 312.598C687.551 312.81 687.424 313.091 687.424 313.442C687.424 313.684 687.475 313.891 687.577 314.064C687.678 314.234 687.845 314.395 688.078 314.547C688.311 314.699 688.73 314.9 689.335 315.15C690.016 315.433 690.516 315.698 690.833 315.943C691.15 316.189 691.383 316.466 691.531 316.775C691.679 317.084 691.753 317.448 691.753 317.867ZM696.457 320.514C695.365 320.514 694.51 320.196 693.893 319.562C693.279 318.923 692.972 318.044 692.972 316.927C692.972 315.78 693.258 314.879 693.829 314.223C694.4 313.567 695.185 313.239 696.184 313.239C697.111 313.239 697.843 313.521 698.38 314.083C698.918 314.646 699.187 315.421 699.187 316.407V317.213H694.508C694.529 317.894 694.714 318.419 695.061 318.787C695.408 319.151 695.896 319.333 696.527 319.333C696.942 319.333 697.327 319.295 697.682 319.219C698.042 319.138 698.427 319.007 698.837 318.825V320.038C698.473 320.211 698.105 320.334 697.733 320.406C697.361 320.478 696.935 320.514 696.457 320.514ZM696.184 314.369C695.71 314.369 695.329 314.519 695.042 314.82C694.758 315.12 694.589 315.558 694.534 316.134H697.72C697.712 315.554 697.572 315.116 697.301 314.82C697.03 314.519 696.658 314.369 696.184 314.369ZM703.712 320.514C702.65 320.514 701.842 320.205 701.288 319.587C700.737 318.965 700.462 318.074 700.462 316.915C700.462 315.734 700.75 314.826 701.326 314.191C701.905 313.557 702.741 313.239 703.833 313.239C704.574 313.239 705.24 313.377 705.833 313.652L705.382 314.852C704.751 314.606 704.231 314.483 703.82 314.483C702.606 314.483 701.999 315.29 701.999 316.902C701.999 317.689 702.149 318.281 702.449 318.679C702.754 319.073 703.198 319.27 703.782 319.27C704.447 319.27 705.075 319.104 705.667 318.774V320.076C705.401 320.232 705.115 320.344 704.811 320.412C704.51 320.48 704.144 320.514 703.712 320.514ZM713.545 316.864C713.545 318.011 713.251 318.906 712.663 319.549C712.074 320.192 711.256 320.514 710.206 320.514C709.55 320.514 708.97 320.366 708.467 320.069C707.963 319.773 707.576 319.348 707.305 318.793C707.034 318.239 706.899 317.596 706.899 316.864C706.899 315.725 707.191 314.837 707.775 314.198C708.359 313.559 709.182 313.239 710.244 313.239C711.26 313.239 712.064 313.567 712.656 314.223C713.249 314.875 713.545 315.755 713.545 316.864ZM708.435 316.864C708.435 318.485 709.034 319.295 710.231 319.295C711.416 319.295 712.009 318.485 712.009 316.864C712.009 315.26 711.412 314.458 710.219 314.458C709.592 314.458 709.138 314.665 708.854 315.08C708.575 315.495 708.435 316.089 708.435 316.864ZM721.441 320.387H719.943V316.07C719.943 315.529 719.833 315.125 719.613 314.858C719.397 314.591 719.053 314.458 718.579 314.458C717.948 314.458 717.487 314.644 717.195 315.017C716.903 315.389 716.757 316.013 716.757 316.889V320.387H715.265V313.366H716.433L716.643 314.287H716.719C716.93 313.952 717.231 313.694 717.62 313.512C718.009 313.33 718.441 313.239 718.915 313.239C720.599 313.239 721.441 314.096 721.441 315.81V320.387ZM725.885 320.514C725.009 320.514 724.325 320.196 723.834 319.562C723.344 318.927 723.098 318.036 723.098 316.889C723.098 315.738 723.346 314.843 723.841 314.204C724.34 313.561 725.03 313.239 725.91 313.239C726.833 313.239 727.535 313.58 728.018 314.261H728.094C728.022 313.758 727.986 313.36 727.986 313.068V310.51H729.484V320.387H728.316L728.056 319.466H727.986C727.508 320.165 726.807 320.514 725.885 320.514ZM726.285 319.308C726.898 319.308 727.345 319.136 727.624 318.793C727.903 318.446 728.047 317.886 728.056 317.111V316.902C728.056 316.017 727.912 315.389 727.624 315.017C727.336 314.644 726.886 314.458 726.272 314.458C725.747 314.458 725.343 314.672 725.06 315.099C724.776 315.522 724.634 316.127 724.634 316.915C724.634 317.693 724.772 318.288 725.047 318.698C725.322 319.104 725.735 319.308 726.285 319.308ZM736.009 320.387L735.711 319.409H735.66C735.322 319.837 734.981 320.129 734.638 320.285C734.295 320.438 733.855 320.514 733.318 320.514C732.628 320.514 732.089 320.327 731.699 319.955C731.314 319.583 731.122 319.056 731.122 318.375C731.122 317.651 731.39 317.105 731.928 316.737C732.465 316.369 733.284 316.168 734.384 316.134L735.597 316.096V315.721C735.597 315.273 735.491 314.938 735.279 314.718C735.072 314.494 734.748 314.382 734.308 314.382C733.948 314.382 733.604 314.435 733.273 314.541C732.943 314.646 732.626 314.771 732.321 314.915L731.839 313.849C732.22 313.65 732.637 313.5 733.089 313.398C733.542 313.292 733.97 313.239 734.372 313.239C735.264 313.239 735.937 313.434 736.39 313.823C736.847 314.213 737.076 314.824 737.076 315.658V320.387H736.009ZM733.788 319.371C734.329 319.371 734.763 319.221 735.089 318.92C735.419 318.616 735.584 318.19 735.584 317.645V317.035L734.683 317.073C733.98 317.099 733.468 317.217 733.146 317.429C732.829 317.636 732.67 317.956 732.67 318.387C732.67 318.7 732.764 318.944 732.95 319.117C733.136 319.286 733.415 319.371 733.788 319.371ZM742.719 313.239C743.019 313.239 743.267 313.26 743.461 313.303L743.315 314.693C743.104 314.642 742.884 314.617 742.655 314.617C742.059 314.617 741.574 314.811 741.202 315.201C740.833 315.59 740.649 316.096 740.649 316.718V320.387H739.158V313.366H740.326L740.522 314.604H740.599C740.831 314.185 741.134 313.853 741.506 313.607C741.883 313.362 742.287 313.239 742.719 313.239ZM743.703 313.366H745.328L746.756 317.346C746.972 317.913 747.116 318.446 747.188 318.946H747.238C747.276 318.713 747.346 318.432 747.448 318.102C747.549 317.767 748.087 316.189 749.06 313.366H750.672L747.67 321.32C747.124 322.78 746.214 323.51 744.94 323.51C744.61 323.51 744.289 323.474 743.976 323.402V322.221C744.2 322.272 744.456 322.297 744.744 322.297C745.463 322.297 745.969 321.881 746.261 321.047L746.521 320.387L743.703 313.366Z" fill="white"/>
<path d="M692.16 402.991L691.233 400.414H687.685L686.777 402.991H685.177L688.65 393.673H690.3L693.772 402.991H692.16ZM690.833 399.106L689.964 396.58C689.9 396.411 689.811 396.144 689.697 395.78C689.587 395.416 689.511 395.15 689.469 394.98C689.354 395.501 689.187 396.07 688.967 396.688L688.129 399.106H690.833ZM697.67 403.118C696.608 403.118 695.799 402.809 695.245 402.191C694.695 401.569 694.42 400.679 694.42 399.519C694.42 398.338 694.707 397.431 695.283 396.796C695.863 396.161 696.698 395.844 697.79 395.844C698.531 395.844 699.197 395.981 699.79 396.256L699.339 397.456C698.709 397.211 698.188 397.088 697.778 397.088C696.563 397.088 695.956 397.894 695.956 399.506C695.956 400.293 696.106 400.886 696.406 401.284C696.711 401.677 697.156 401.874 697.74 401.874C698.404 401.874 699.032 401.709 699.625 401.379V402.68C699.358 402.837 699.073 402.949 698.768 403.017C698.467 403.084 698.101 403.118 697.67 403.118ZM704.106 403.118C703.044 403.118 702.236 402.809 701.681 402.191C701.131 401.569 700.856 400.679 700.856 399.519C700.856 398.338 701.144 397.431 701.719 396.796C702.299 396.161 703.135 395.844 704.227 395.844C704.967 395.844 705.634 395.981 706.226 396.256L705.776 397.456C705.145 397.211 704.625 397.088 704.214 397.088C703 397.088 702.392 397.894 702.392 399.506C702.392 400.293 702.543 400.886 702.843 401.284C703.148 401.677 703.592 401.874 704.176 401.874C704.84 401.874 705.469 401.709 706.061 401.379V402.68C705.795 402.837 705.509 402.949 705.204 403.017C704.904 403.084 704.538 403.118 704.106 403.118ZM710.778 403.118C709.686 403.118 708.831 402.801 708.213 402.166C707.6 401.527 707.293 400.649 707.293 399.532C707.293 398.385 707.578 397.484 708.15 396.828C708.721 396.172 709.506 395.844 710.505 395.844C711.431 395.844 712.163 396.125 712.701 396.688C713.238 397.251 713.507 398.025 713.507 399.011V399.817H708.829C708.85 400.499 709.034 401.023 709.381 401.392C709.728 401.756 710.217 401.938 710.847 401.938C711.262 401.938 711.647 401.899 712.003 401.823C712.362 401.743 712.747 401.612 713.158 401.43V402.642C712.794 402.816 712.426 402.938 712.053 403.01C711.681 403.082 711.256 403.118 710.778 403.118ZM710.505 396.974C710.031 396.974 709.65 397.124 709.362 397.424C709.079 397.725 708.909 398.163 708.854 398.738H712.041C712.032 398.159 711.893 397.721 711.622 397.424C711.351 397.124 710.979 396.974 710.505 396.974ZM721.378 402.991H719.88V398.675C719.88 398.133 719.77 397.729 719.55 397.462C719.334 397.196 718.989 397.062 718.515 397.062C717.885 397.062 717.424 397.249 717.132 397.621C716.84 397.993 716.694 398.618 716.694 399.494V402.991H715.202V395.971H716.37L716.579 396.891H716.656C716.867 396.557 717.168 396.299 717.557 396.117C717.946 395.935 718.378 395.844 718.852 395.844C720.536 395.844 721.378 396.701 721.378 398.415V402.991ZM726.069 401.912C726.433 401.912 726.797 401.855 727.161 401.741V402.864C726.996 402.936 726.782 402.995 726.52 403.042C726.262 403.093 725.993 403.118 725.714 403.118C724.3 403.118 723.594 402.373 723.594 400.884V397.101H722.635V396.44L723.663 395.895L724.171 394.409H725.092V395.971H727.091V397.101H725.092V400.858C725.092 401.218 725.18 401.485 725.358 401.658C725.54 401.827 725.777 401.912 726.069 401.912Z" fill="white"/>
<path d="M878.243 397.958H881.658V402.617C881.1 402.799 880.562 402.928 880.046 403.004C879.534 403.08 878.979 403.118 878.383 403.118C876.978 403.118 875.895 402.703 875.133 401.874C874.371 401.04 873.99 399.866 873.99 398.351C873.99 396.857 874.42 395.689 875.279 394.847C876.138 394.001 877.321 393.578 878.827 393.578C879.796 393.578 880.715 393.764 881.582 394.136L881.049 395.399C880.296 395.052 879.542 394.879 878.789 394.879C877.799 394.879 877.016 395.19 876.44 395.812C875.865 396.434 875.577 397.285 875.577 398.364C875.577 399.498 875.835 400.361 876.352 400.954C876.872 401.542 877.619 401.836 878.592 401.836C879.083 401.836 879.608 401.775 880.167 401.652V399.259H878.243V397.958ZM887.295 395.844C887.595 395.844 887.843 395.865 888.038 395.907L887.892 397.297C887.68 397.247 887.46 397.221 887.231 397.221C886.635 397.221 886.15 397.416 885.778 397.805C885.41 398.194 885.226 398.7 885.226 399.322V402.991H883.734V395.971H884.902L885.099 397.208H885.175C885.408 396.79 885.71 396.457 886.083 396.212C886.459 395.966 886.863 395.844 887.295 395.844ZM893.738 402.991L893.439 402.014H893.389C893.05 402.441 892.709 402.733 892.367 402.89C892.024 403.042 891.584 403.118 891.046 403.118C890.357 403.118 889.817 402.932 889.428 402.56C889.043 402.187 888.85 401.66 888.85 400.979C888.85 400.255 889.119 399.709 889.656 399.341C890.194 398.973 891.013 398.772 892.113 398.738L893.325 398.7V398.326C893.325 397.877 893.219 397.543 893.008 397.323C892.8 397.098 892.477 396.986 892.037 396.986C891.677 396.986 891.332 397.039 891.002 397.145C890.672 397.251 890.354 397.376 890.05 397.52L889.567 396.453C889.948 396.254 890.365 396.104 890.818 396.002C891.271 395.897 891.698 395.844 892.1 395.844C892.993 395.844 893.666 396.038 894.119 396.428C894.576 396.817 894.804 397.429 894.804 398.262V402.991H893.738ZM891.516 401.976C892.058 401.976 892.492 401.825 892.817 401.525C893.147 401.22 893.312 400.795 893.312 400.249V399.64L892.411 399.678C891.709 399.703 891.197 399.822 890.875 400.033C890.558 400.241 890.399 400.56 890.399 400.992C890.399 401.305 890.492 401.548 890.678 401.722C890.864 401.891 891.144 401.976 891.516 401.976ZM899.254 403.118C898.378 403.118 897.694 402.801 897.204 402.166C896.713 401.531 896.467 400.64 896.467 399.494C896.467 398.343 896.715 397.448 897.21 396.809C897.709 396.165 898.399 395.844 899.279 395.844C900.202 395.844 900.904 396.184 901.387 396.866H901.463C901.391 396.362 901.355 395.964 901.355 395.672V393.114H902.853V402.991H901.685L901.425 402.071H901.355C900.877 402.769 900.176 403.118 899.254 403.118ZM899.654 401.912C900.267 401.912 900.714 401.741 900.993 401.398C901.272 401.051 901.416 400.49 901.425 399.716V399.506C901.425 398.622 901.281 397.993 900.993 397.621C900.705 397.249 900.255 397.062 899.641 397.062C899.116 397.062 898.712 397.276 898.429 397.704C898.145 398.127 898.003 398.732 898.003 399.519C898.003 400.298 898.141 400.892 898.416 401.303C898.691 401.709 899.104 401.912 899.654 401.912ZM906.478 402.991H904.986V395.971H906.478V402.991ZM904.897 394.111C904.897 393.844 904.969 393.639 905.113 393.495C905.261 393.351 905.47 393.279 905.741 393.279C906.004 393.279 906.207 393.351 906.351 393.495C906.499 393.639 906.573 393.844 906.573 394.111C906.573 394.365 906.499 394.566 906.351 394.714C906.207 394.858 906.004 394.93 905.741 394.93C905.47 394.93 905.261 394.858 905.113 394.714C904.969 394.566 904.897 394.365 904.897 394.111ZM911.683 403.118C910.591 403.118 909.736 402.801 909.118 402.166C908.505 401.527 908.198 400.649 908.198 399.532C908.198 398.385 908.483 397.484 909.055 396.828C909.626 396.172 910.411 395.844 911.41 395.844C912.336 395.844 913.069 396.125 913.606 396.688C914.143 397.251 914.412 398.025 914.412 399.011V399.817H909.734C909.755 400.499 909.939 401.023 910.286 401.392C910.633 401.756 911.122 401.938 911.752 401.938C912.167 401.938 912.552 401.899 912.908 401.823C913.267 401.743 913.653 401.612 914.063 401.43V402.642C913.699 402.816 913.331 402.938 912.958 403.01C912.586 403.082 912.161 403.118 911.683 403.118ZM911.41 396.974C910.936 396.974 910.555 397.124 910.267 397.424C909.984 397.725 909.814 398.163 909.759 398.738H912.946C912.937 398.159 912.798 397.721 912.527 397.424C912.256 397.124 911.884 396.974 911.41 396.974ZM922.283 402.991H920.785V398.675C920.785 398.133 920.675 397.729 920.455 397.462C920.239 397.196 919.894 397.062 919.42 397.062C918.79 397.062 918.329 397.249 918.037 397.621C917.745 397.993 917.599 398.618 917.599 399.494V402.991H916.107V395.971H917.275L917.484 396.891H917.561C917.772 396.557 918.073 396.299 918.462 396.117C918.851 395.935 919.283 395.844 919.757 395.844C921.441 395.844 922.283 396.701 922.283 398.415V402.991ZM926.974 401.912C927.338 401.912 927.702 401.855 928.066 401.741V402.864C927.901 402.936 927.687 402.995 927.425 403.042C927.167 403.093 926.898 403.118 926.619 403.118C925.205 403.118 924.499 402.373 924.499 400.884V397.101H923.54V396.44L924.568 395.895L925.076 394.409H925.997V395.971H927.996V397.101H925.997V400.858C925.997 401.218 926.085 401.485 926.263 401.658C926.445 401.827 926.682 401.912 926.974 401.912Z" fill="white"/>
<defs>
<linearGradient id="paint0_linear" x1="862" y1="419.41" x2="1034.84" y2="406.926" gradientUnits="userSpaceOnUse">
<stop stop-color="#0F45FF"/>
<stop offset="1" stop-color="#2888FF"/>
</linearGradient>
</defs>
</svg>
