<svg width="480" height="251" viewBox="0 0 480 251" fill="none" xmlns="http://www.w3.org/2000/svg">
<rect y="0.826172" width="479.29" height="250.119" rx="7.84435" fill="#EAEAEA"/>
<path d="M88.5855 139.432C86.8575 139.432 85.2615 139.12 83.7975 138.496C82.3575 137.872 81.0975 137.02 80.0175 135.94L81.8175 133.852C82.7055 134.74 83.7375 135.46 84.9135 136.012C86.0895 136.54 87.3615 136.804 88.7295 136.804C90.3615 136.804 91.6215 136.456 92.5095 135.76C93.4215 135.064 93.8775 134.164 93.8775 133.06C93.8775 132.436 93.7695 131.908 93.5535 131.476C93.3375 131.044 93.0375 130.672 92.6535 130.36C92.2695 130.048 91.8135 129.772 91.2855 129.532C90.7815 129.292 90.2295 129.04 89.6295 128.776L86.2455 127.3C85.6455 127.06 85.0455 126.772 84.4455 126.436C83.8455 126.1 83.2935 125.692 82.7895 125.212C82.3095 124.732 81.9135 124.168 81.6015 123.52C81.2895 122.848 81.1335 122.08 81.1335 121.216C81.1335 120.328 81.3255 119.5 81.7095 118.732C82.0935 117.964 82.6215 117.304 83.2935 116.752C83.9895 116.176 84.8055 115.732 85.7415 115.42C86.7015 115.108 87.7455 114.952 88.8735 114.952C90.3615 114.952 91.7295 115.228 92.9775 115.78C94.2255 116.308 95.2815 117.004 96.1455 117.868L94.5615 119.812C93.7935 119.116 92.9415 118.576 92.0055 118.192C91.0695 117.784 89.9895 117.58 88.7655 117.58C87.3975 117.58 86.2935 117.892 85.4535 118.516C84.6135 119.116 84.1935 119.956 84.1935 121.036C84.1935 121.612 84.3135 122.104 84.5535 122.512C84.8175 122.896 85.1415 123.244 85.5255 123.556C85.9335 123.844 86.3895 124.096 86.8935 124.312C87.3975 124.528 87.9015 124.744 88.4055 124.96L91.7175 126.4C92.4375 126.688 93.1095 127.024 93.7335 127.408C94.3815 127.768 94.9335 128.2 95.3895 128.704C95.8695 129.184 96.2415 129.76 96.5055 130.432C96.7935 131.08 96.9375 131.836 96.9375 132.7C96.9375 133.636 96.7455 134.512 96.3615 135.328C95.9775 136.144 95.4255 136.864 94.7055 137.488C93.9855 138.088 93.1095 138.568 92.0775 138.928C91.0455 139.264 89.8815 139.432 88.5855 139.432ZM109.991 139.432C108.839 139.432 107.735 139.228 106.679 138.82C105.647 138.412 104.735 137.824 103.943 137.056C103.151 136.264 102.515 135.304 102.035 134.176C101.579 133.024 101.351 131.728 101.351 130.288C101.351 128.824 101.579 127.528 102.035 126.4C102.515 125.248 103.151 124.276 103.943 123.484C104.735 122.692 105.647 122.092 106.679 121.684C107.735 121.276 108.839 121.072 109.991 121.072C111.143 121.072 112.235 121.276 113.267 121.684C114.323 122.092 115.247 122.692 116.039 123.484C116.831 124.276 117.455 125.248 117.911 126.4C118.391 127.528 118.631 128.824 118.631 130.288C118.631 131.728 118.391 133.024 117.911 134.176C117.455 135.304 116.831 136.264 116.039 137.056C115.247 137.824 114.323 138.412 113.267 138.82C112.235 139.228 111.143 139.432 109.991 139.432ZM109.991 136.984C110.831 136.984 111.587 136.828 112.259 136.516C112.955 136.18 113.543 135.724 114.023 135.148C114.527 134.548 114.911 133.84 115.175 133.024C115.439 132.208 115.571 131.296 115.571 130.288C115.571 129.28 115.439 128.368 115.175 127.552C114.911 126.712 114.527 125.992 114.023 125.392C113.543 124.792 112.955 124.336 112.259 124.024C111.587 123.688 110.831 123.52 109.991 123.52C109.151 123.52 108.383 123.688 107.687 124.024C107.015 124.336 106.427 124.792 105.923 125.392C105.443 125.992 105.071 126.712 104.807 127.552C104.543 128.368 104.411 129.28 104.411 130.288C104.411 131.296 104.543 132.208 104.807 133.024C105.071 133.84 105.443 134.548 105.923 135.148C106.427 135.724 107.015 136.18 107.687 136.516C108.383 136.828 109.151 136.984 109.991 136.984ZM129.633 139.432C127.521 139.432 125.973 138.844 124.989 137.668C124.029 136.468 123.549 134.704 123.549 132.376V121.504H126.537V131.98C126.537 133.636 126.837 134.872 127.437 135.688C128.061 136.48 129.105 136.876 130.569 136.876C131.577 136.876 132.489 136.624 133.305 136.12C134.121 135.592 135.021 134.764 136.005 133.636V121.504H138.957V139H136.545L136.293 135.94H136.149C135.261 136.972 134.289 137.812 133.233 138.46C132.201 139.108 131.001 139.432 129.633 139.432ZM147.619 139V121.504H150.067L150.319 125.644H150.427C151.339 124.228 152.455 123.112 153.775 122.296C155.119 121.48 156.607 121.072 158.239 121.072C158.887 121.072 159.487 121.132 160.039 121.252C160.591 121.348 161.143 121.528 161.695 121.792L161.011 124.348C160.387 124.132 159.859 123.976 159.427 123.88C159.019 123.784 158.467 123.736 157.771 123.736C156.451 123.736 155.179 124.12 153.955 124.888C152.755 125.632 151.627 126.916 150.571 128.74V139H147.619ZM176.405 139.432C175.037 139.432 173.765 139.228 172.589 138.82C171.437 138.412 170.429 137.824 169.565 137.056C168.701 136.264 168.029 135.304 167.549 134.176C167.069 133.024 166.829 131.728 166.829 130.288C166.829 128.824 167.081 127.528 167.585 126.4C168.113 125.248 168.821 124.276 169.709 123.484C170.597 122.692 171.629 122.092 172.805 121.684C174.005 121.276 175.265 121.072 176.585 121.072C178.025 121.072 179.261 121.324 180.293 121.828C181.349 122.332 182.237 122.932 182.957 123.628L181.481 125.536C180.761 124.912 180.005 124.42 179.213 124.06C178.445 123.7 177.605 123.52 176.693 123.52C175.685 123.52 174.761 123.688 173.921 124.024C173.081 124.336 172.361 124.792 171.761 125.392C171.185 125.992 170.729 126.712 170.393 127.552C170.057 128.368 169.889 129.28 169.889 130.288C169.889 131.296 170.045 132.208 170.357 133.024C170.693 133.84 171.149 134.548 171.725 135.148C172.325 135.724 173.033 136.18 173.849 136.516C174.689 136.828 175.613 136.984 176.621 136.984C177.701 136.984 178.685 136.78 179.573 136.372C180.485 135.94 181.301 135.412 182.021 134.788L183.353 136.696C182.369 137.56 181.289 138.232 180.113 138.712C178.937 139.192 177.701 139.432 176.405 139.432ZM197.415 139.432C196.095 139.432 194.859 139.228 193.707 138.82C192.579 138.412 191.583 137.812 190.719 137.02C189.879 136.228 189.207 135.268 188.703 134.14C188.223 132.988 187.983 131.68 187.983 130.216C187.983 128.8 188.223 127.528 188.703 126.4C189.207 125.272 189.867 124.312 190.683 123.52C191.523 122.728 192.471 122.128 193.527 121.72C194.607 121.288 195.735 121.072 196.911 121.072C198.159 121.072 199.275 121.276 200.259 121.684C201.267 122.068 202.107 122.62 202.779 123.34C203.475 124.06 204.003 124.924 204.363 125.932C204.723 126.94 204.903 128.056 204.903 129.28C204.903 129.616 204.891 129.94 204.867 130.252C204.843 130.564 204.807 130.84 204.759 131.08H190.971C191.163 133.072 191.883 134.572 193.131 135.58C194.403 136.564 195.951 137.056 197.775 137.056C198.831 137.056 199.779 136.912 200.619 136.624C201.483 136.312 202.311 135.904 203.103 135.4L204.183 137.344C203.319 137.92 202.323 138.412 201.195 138.82C200.091 139.228 198.831 139.432 197.415 139.432ZM196.983 123.412C196.263 123.412 195.567 123.532 194.895 123.772C194.247 124.012 193.659 124.36 193.131 124.816C192.603 125.248 192.159 125.8 191.799 126.472C191.439 127.144 191.187 127.912 191.043 128.776H202.203C202.083 126.976 201.555 125.632 200.619 124.744C199.707 123.856 198.495 123.412 196.983 123.412ZM241.343 139.432C239.879 139.432 238.523 139.156 237.275 138.604C236.027 138.052 234.935 137.26 233.999 136.228C233.087 135.172 232.367 133.888 231.839 132.376C231.311 130.84 231.047 129.112 231.047 127.192C231.047 125.296 231.311 123.592 231.839 122.08C232.367 120.568 233.099 119.284 234.035 118.228C234.971 117.172 236.087 116.368 237.383 115.816C238.679 115.24 240.095 114.952 241.631 114.952C243.047 114.952 244.295 115.24 245.375 115.816C246.479 116.392 247.379 117.064 248.075 117.832L246.383 119.74C245.759 119.092 245.063 118.576 244.295 118.192C243.527 117.784 242.639 117.58 241.631 117.58C240.503 117.58 239.471 117.808 238.535 118.264C237.623 118.696 236.843 119.332 236.195 120.172C235.547 120.988 235.043 121.984 234.683 123.16C234.323 124.336 234.143 125.656 234.143 127.12C234.143 128.608 234.323 129.952 234.683 131.152C235.043 132.328 235.547 133.336 236.195 134.176C236.843 135.016 237.623 135.664 238.535 136.12C239.471 136.576 240.503 136.804 241.631 136.804C242.711 136.804 243.671 136.576 244.511 136.12C245.375 135.664 246.191 135.016 246.959 134.176L248.651 136.012C247.715 137.092 246.659 137.932 245.483 138.532C244.307 139.132 242.927 139.432 241.343 139.432ZM261.093 139.432C259.941 139.432 258.837 139.228 257.781 138.82C256.749 138.412 255.837 137.824 255.045 137.056C254.253 136.264 253.617 135.304 253.137 134.176C252.681 133.024 252.453 131.728 252.453 130.288C252.453 128.824 252.681 127.528 253.137 126.4C253.617 125.248 254.253 124.276 255.045 123.484C255.837 122.692 256.749 122.092 257.781 121.684C258.837 121.276 259.941 121.072 261.093 121.072C262.245 121.072 263.337 121.276 264.369 121.684C265.425 122.092 266.349 122.692 267.141 123.484C267.933 124.276 268.557 125.248 269.013 126.4C269.493 127.528 269.733 128.824 269.733 130.288C269.733 131.728 269.493 133.024 269.013 134.176C268.557 135.304 267.933 136.264 267.141 137.056C266.349 137.824 265.425 138.412 264.369 138.82C263.337 139.228 262.245 139.432 261.093 139.432ZM261.093 136.984C261.933 136.984 262.689 136.828 263.361 136.516C264.057 136.18 264.645 135.724 265.125 135.148C265.629 134.548 266.013 133.84 266.277 133.024C266.541 132.208 266.673 131.296 266.673 130.288C266.673 129.28 266.541 128.368 266.277 127.552C266.013 126.712 265.629 125.992 265.125 125.392C264.645 124.792 264.057 124.336 263.361 124.024C262.689 123.688 261.933 123.52 261.093 123.52C260.253 123.52 259.485 123.688 258.789 124.024C258.117 124.336 257.529 124.792 257.025 125.392C256.545 125.992 256.173 126.712 255.909 127.552C255.645 128.368 255.513 129.28 255.513 130.288C255.513 131.296 255.645 132.208 255.909 133.024C256.173 133.84 256.545 134.548 257.025 135.148C257.529 135.724 258.117 136.18 258.789 136.516C259.485 136.828 260.253 136.984 261.093 136.984ZM281.635 139.432C280.483 139.432 279.439 139.228 278.503 138.82C277.591 138.412 276.799 137.824 276.127 137.056C275.455 136.264 274.939 135.304 274.579 134.176C274.219 133.048 274.039 131.752 274.039 130.288C274.039 128.872 274.255 127.6 274.687 126.472C275.143 125.32 275.731 124.348 276.451 123.556C277.195 122.764 278.047 122.152 279.007 121.72C279.967 121.288 280.963 121.072 281.995 121.072C283.051 121.072 283.987 121.276 284.803 121.684C285.643 122.068 286.447 122.62 287.215 123.34H287.323L287.179 120.1V113.368H290.131V139H287.683L287.431 136.696H287.323C286.603 137.44 285.739 138.088 284.731 138.64C283.747 139.168 282.715 139.432 281.635 139.432ZM282.247 136.948C283.975 136.948 285.619 136.072 287.179 134.32V125.608C286.387 124.864 285.607 124.336 284.839 124.024C284.095 123.712 283.339 123.556 282.571 123.556C281.803 123.556 281.083 123.724 280.411 124.06C279.763 124.372 279.187 124.828 278.683 125.428C278.203 126.004 277.819 126.7 277.531 127.516C277.243 128.332 277.099 129.244 277.099 130.252C277.099 132.364 277.543 134.008 278.431 135.184C279.343 136.36 280.615 136.948 282.247 136.948ZM305.345 139.432C304.025 139.432 302.789 139.228 301.637 138.82C300.509 138.412 299.513 137.812 298.649 137.02C297.809 136.228 297.137 135.268 296.633 134.14C296.153 132.988 295.913 131.68 295.913 130.216C295.913 128.8 296.153 127.528 296.633 126.4C297.137 125.272 297.797 124.312 298.613 123.52C299.453 122.728 300.401 122.128 301.457 121.72C302.537 121.288 303.665 121.072 304.841 121.072C306.089 121.072 307.205 121.276 308.189 121.684C309.197 122.068 310.037 122.62 310.709 123.34C311.405 124.06 311.933 124.924 312.293 125.932C312.653 126.94 312.833 128.056 312.833 129.28C312.833 129.616 312.821 129.94 312.797 130.252C312.773 130.564 312.737 130.84 312.689 131.08H298.901C299.093 133.072 299.813 134.572 301.061 135.58C302.333 136.564 303.881 137.056 305.705 137.056C306.761 137.056 307.709 136.912 308.549 136.624C309.413 136.312 310.241 135.904 311.033 135.4L312.113 137.344C311.249 137.92 310.253 138.412 309.125 138.82C308.021 139.228 306.761 139.432 305.345 139.432ZM304.913 123.412C304.193 123.412 303.497 123.532 302.825 123.772C302.177 124.012 301.589 124.36 301.061 124.816C300.533 125.248 300.089 125.8 299.729 126.472C299.369 127.144 299.117 127.912 298.973 128.776H310.133C310.013 126.976 309.485 125.632 308.549 124.744C307.637 123.856 306.425 123.412 304.913 123.412ZM340.309 139V115.384H347.437C348.733 115.384 349.921 115.504 351.001 115.744C352.081 115.984 353.005 116.38 353.773 116.932C354.541 117.46 355.129 118.168 355.537 119.056C355.969 119.944 356.185 121.036 356.185 122.332C356.185 123.58 355.969 124.66 355.537 125.572C355.129 126.484 354.529 127.24 353.737 127.84C352.969 128.44 352.045 128.896 350.965 129.208C349.909 129.496 348.733 129.64 347.437 129.64H343.297V139H340.309ZM343.297 127.192H347.077C349.165 127.192 350.701 126.808 351.685 126.04C352.669 125.248 353.161 124.012 353.161 122.332C353.161 120.628 352.657 119.452 351.649 118.804C350.641 118.132 349.117 117.796 347.077 117.796H343.297V127.192ZM363.479 139V121.504H365.927L366.179 125.644H366.287C367.199 124.228 368.315 123.112 369.635 122.296C370.979 121.48 372.467 121.072 374.099 121.072C374.747 121.072 375.347 121.132 375.899 121.252C376.451 121.348 377.003 121.528 377.555 121.792L376.871 124.348C376.247 124.132 375.719 123.976 375.287 123.88C374.879 123.784 374.327 123.736 373.631 123.736C372.311 123.736 371.039 124.12 369.815 124.888C368.615 125.632 367.487 126.916 366.431 128.74V139H363.479ZM390.609 139.432C389.457 139.432 388.353 139.228 387.297 138.82C386.265 138.412 385.353 137.824 384.561 137.056C383.769 136.264 383.133 135.304 382.653 134.176C382.197 133.024 381.969 131.728 381.969 130.288C381.969 128.824 382.197 127.528 382.653 126.4C383.133 125.248 383.769 124.276 384.561 123.484C385.353 122.692 386.265 122.092 387.297 121.684C388.353 121.276 389.457 121.072 390.609 121.072C391.761 121.072 392.853 121.276 393.885 121.684C394.941 122.092 395.865 122.692 396.657 123.484C397.449 124.276 398.073 125.248 398.529 126.4C399.009 127.528 399.249 128.824 399.249 130.288C399.249 131.728 399.009 133.024 398.529 134.176C398.073 135.304 397.449 136.264 396.657 137.056C395.865 137.824 394.941 138.412 393.885 138.82C392.853 139.228 391.761 139.432 390.609 139.432ZM390.609 136.984C391.449 136.984 392.205 136.828 392.877 136.516C393.573 136.18 394.161 135.724 394.641 135.148C395.145 134.548 395.529 133.84 395.793 133.024C396.057 132.208 396.189 131.296 396.189 130.288C396.189 129.28 396.057 128.368 395.793 127.552C395.529 126.712 395.145 125.992 394.641 125.392C394.161 124.792 393.573 124.336 392.877 124.024C392.205 123.688 391.449 123.52 390.609 123.52C389.769 123.52 389.001 123.688 388.305 124.024C387.633 124.336 387.045 124.792 386.541 125.392C386.061 125.992 385.689 126.712 385.425 127.552C385.161 128.368 385.029 129.28 385.029 130.288C385.029 131.296 385.161 132.208 385.425 133.024C385.689 133.84 386.061 134.548 386.541 135.148C387.045 135.724 387.633 136.18 388.305 136.516C389.001 136.828 389.769 136.984 390.609 136.984Z" fill="#131313"/>
</svg>
