<svg width="486" height="477" viewBox="0 0 486 477" fill="none" xmlns="http://www.w3.org/2000/svg">
<rect x="0.0644531" y="0.675293" width="485" height="476.181" rx="10.6356" fill="#F5F5F5"/>
<g clip-path="url(#clip0)">
<line x1="-1.86377" y1="203.554" x2="584.525" y2="203.554" stroke="#4B4B4B" stroke-width="0.656283"/>
<line x1="-1.86377" y1="200.929" x2="584.525" y2="200.929" stroke="#3E3E3E" stroke-width="0.656283"/>
<line x1="33.9038" y1="173.365" x2="33.9038" y2="312.825" stroke="#3E3E3E" stroke-width="0.656283"/>
<line y1="-0.328142" x2="139.46" y2="-0.328142" transform="matrix(-4.37114e-08 1 1 4.37114e-08 454.705 173.365)" stroke="#3E3E3E" stroke-width="0.656283"/>
<line x1="197.647" y1="173.365" x2="197.646" y2="312.825" stroke="#3E3E3E" stroke-width="0.656283"/>
<line x1="207.491" y1="173.365" x2="207.491" y2="312.825" stroke="#3E3E3E" stroke-width="0.656283"/>
<line x1="223.569" y1="173.365" x2="223.569" y2="312.825" stroke="#3E3E3E" stroke-width="0.656283"/>
<line x1="233.414" y1="173.365" x2="233.414" y2="312.825" stroke="#3E3E3E" stroke-width="0.656283"/>
<line x1="-1.86377" y1="263.276" x2="584.525" y2="263.276" stroke="#3E3E3E" stroke-width="0.656283"/>
<line x1="-1.86377" y1="263.932" x2="584.525" y2="263.932" stroke="#4B4B4B" stroke-width="0.656283"/>
<line x1="-1.86377" y1="283.621" x2="584.525" y2="283.621" stroke="#3E3E3E" stroke-width="0.656283"/>
<line x1="-1.86377" y1="280.34" x2="584.525" y2="280.34" stroke="#4B4B4B" stroke-width="0.656283"/>
<line x1="-0.879395" y1="221.93" x2="585.51" y2="221.93" stroke="#3E3E3E" stroke-width="0.656283"/>
<circle cx="85.094" cy="293.793" r="13.4538" stroke="#3E3E3E" stroke-width="0.656283"/>
<circle cx="20.4499" cy="240.306" r="13.4538" stroke="#3E3E3E" stroke-width="0.656283"/>
<circle r="13.4538" transform="matrix(-1 0 0 1 467.83 240.306)" stroke="#3E3E3E" stroke-width="0.656283"/>
<circle cx="82.1408" cy="190.1" r="13.4538" stroke="#3E3E3E" stroke-width="0.656283"/>
<circle cx="202.569" cy="258.354" r="4.92212" stroke="#3E3E3E" stroke-width="0.656283"/>
<circle cx="228.491" cy="258.354" r="4.92212" stroke="#3E3E3E" stroke-width="0.656283"/>
<rect x="67.0464" y="222.269" width="11.8131" height="41.3308" fill="#4D4D4D"/>
<path fill-rule="evenodd" clip-rule="evenodd" d="M55.053 264.257C67.3696 264.257 76.2138 253.692 76.2138 242.927C76.2138 232.76 67.4285 221.598 55.053 221.598C43.2177 221.598 34.2319 231.148 34.2319 242.927C34.2319 254.707 43.2177 264.257 55.053 264.257ZM56.3497 253.475C62.418 253.475 67.0463 248.954 67.0463 242.927C67.0463 236.9 62.418 232.379 56.3497 232.379C50.2815 232.379 45.5819 237.102 45.5819 242.927C45.5819 248.753 50.2815 253.475 56.3497 253.475Z" fill="#4D4D4D"/>
<path fill-rule="evenodd" clip-rule="evenodd" d="M126.314 233.792L115.496 238.818C114.116 235.709 111.206 233.208 107.271 233.208C101.677 233.208 97.3445 237.561 97.3445 242.932C97.3445 248.303 101.677 252.657 107.271 252.657C111.296 252.657 114.249 250.403 115.588 247.139L126.383 252.229C123.066 259.35 115.95 264.26 107.08 264.26C95.1353 264.26 85.7505 254.711 85.7505 242.931C85.7505 231.151 95.5619 221.602 107.08 221.602C115.4 221.602 122.83 226.585 126.314 233.792Z" fill="#4D4D4D"/>
<rect x="133.003" y="222.261" width="11.8131" height="41.3456" fill="#4D4D4D"/>
<path d="M159.254 238.34L171.067 237.356V263.607H159.254V238.34Z" fill="#4D4D4D"/>
<path d="M185.506 238.34L197.319 237.356V263.607H185.506V238.34Z" fill="#4D4D4D"/>
<path d="M155.403 221.602C165.857 221.602 171.067 229.611 171.067 238.009L159.254 240.205C159.254 236.574 155.973 233.305 152.035 233.305C148.097 233.305 144.816 236.699 144.816 240.637L141.687 236.221C140.456 233.305 144.918 221.602 155.403 221.602Z" fill="#4D4D4D"/>
<path d="M181.655 221.602C192.108 221.602 197.319 229.611 197.319 238.009L185.505 240.205C185.505 236.574 182.224 233.305 178.286 233.305C174.349 233.305 171.067 236.699 171.067 240.637L167.939 236.221C166.707 233.305 171.17 221.602 181.655 221.602Z" fill="#4D4D4D"/>
<path d="M181.654 221.602C192.108 221.602 197.319 229.611 197.319 238.009L185.505 238.994C185.505 235.362 182.224 232.431 178.286 232.431C174.349 232.431 171.067 235.056 171.067 238.994L165.161 232.759C167.786 226.852 171.17 221.602 181.654 221.602Z" fill="#4D4D4D"/>
<circle cx="215.516" cy="255.877" r="7.69621" fill="#4D4D4D"/>
</g>
<g opacity="0.23" clip-path="url(#clip1)">
<line x1="-1.86377" y1="333.391" x2="584.525" y2="333.391" stroke="#4B4B4B" stroke-width="0.656283"/>
<line x1="-1.86377" y1="330.766" x2="584.525" y2="330.766" stroke="#3E3E3E" stroke-width="0.656283"/>
<line x1="33.9038" y1="303.202" x2="33.9038" y2="442.662" stroke="#3E3E3E" stroke-width="0.656283"/>
<line y1="-0.328142" x2="139.46" y2="-0.328142" transform="matrix(-4.37114e-08 1 1 4.37114e-08 454.705 303.202)" stroke="#3E3E3E" stroke-width="0.656283"/>
<line x1="197.647" y1="303.202" x2="197.646" y2="442.662" stroke="#3E3E3E" stroke-width="0.656283"/>
<line x1="207.491" y1="303.202" x2="207.491" y2="442.662" stroke="#3E3E3E" stroke-width="0.656283"/>
<line x1="223.569" y1="303.202" x2="223.569" y2="442.662" stroke="#3E3E3E" stroke-width="0.656283"/>
<line x1="233.414" y1="303.202" x2="233.414" y2="442.662" stroke="#3E3E3E" stroke-width="0.656283"/>
<line x1="-1.86377" y1="393.113" x2="584.525" y2="393.113" stroke="#3E3E3E" stroke-width="0.656283"/>
<line x1="-1.86377" y1="393.769" x2="584.525" y2="393.769" stroke="#4B4B4B" stroke-width="0.656283"/>
<line x1="-1.86377" y1="413.458" x2="584.525" y2="413.457" stroke="#3E3E3E" stroke-width="0.656283"/>
<line x1="-1.86377" y1="410.176" x2="584.525" y2="410.176" stroke="#4B4B4B" stroke-width="0.656283"/>
<line x1="-0.879395" y1="351.767" x2="585.51" y2="351.767" stroke="#3E3E3E" stroke-width="0.656283"/>
<circle cx="85.094" cy="423.63" r="13.4538" stroke="#3E3E3E" stroke-width="0.656283"/>
<circle cx="20.4499" cy="370.143" r="13.4538" stroke="#3E3E3E" stroke-width="0.656283"/>
<circle r="13.4538" transform="matrix(-1 0 0 1 467.83 370.143)" stroke="#3E3E3E" stroke-width="0.656283"/>
<circle cx="82.1408" cy="319.937" r="13.4538" stroke="#3E3E3E" stroke-width="0.656283"/>
<circle cx="202.569" cy="388.19" r="4.92212" stroke="#3E3E3E" stroke-width="0.656283"/>
<circle cx="228.491" cy="388.19" r="4.92212" stroke="#3E3E3E" stroke-width="0.656283"/>
<rect x="67.0464" y="352.106" width="11.8131" height="41.3308" fill="white"/>
<path fill-rule="evenodd" clip-rule="evenodd" d="M55.053 394.093C67.3696 394.093 76.2138 383.529 76.2138 372.764C76.2138 362.596 67.4285 351.435 55.053 351.435C43.2177 351.435 34.2319 360.984 34.2319 372.764C34.2319 384.544 43.2177 394.093 55.053 394.093ZM56.3497 383.312C62.418 383.312 67.0463 378.791 67.0463 372.764C67.0463 366.737 62.418 362.216 56.3497 362.216C50.2815 362.216 45.5819 366.938 45.5819 372.764C45.5819 378.589 50.2815 383.312 56.3497 383.312Z" fill="white"/>
<path fill-rule="evenodd" clip-rule="evenodd" d="M126.314 363.629L115.496 368.654C114.116 365.546 111.206 363.045 107.271 363.045C101.677 363.045 97.3445 367.398 97.3445 372.769C97.3445 378.14 101.677 382.493 107.271 382.493C111.296 382.493 114.249 380.24 115.588 376.976L126.383 382.066C123.066 389.187 115.95 394.097 107.08 394.097C95.1353 394.097 85.7505 384.547 85.7505 372.768C85.7505 360.988 95.5619 351.438 107.08 351.438C115.4 351.438 122.83 356.422 126.314 363.629Z" fill="white"/>
<rect x="133.003" y="352.098" width="11.8131" height="41.3456" fill="white"/>
<path d="M159.254 368.177L171.067 367.193V393.444H159.254V368.177Z" fill="white"/>
<path d="M185.506 368.177L197.319 367.193V393.444H185.506V368.177Z" fill="white"/>
<path d="M155.403 351.439C165.857 351.439 171.067 359.448 171.067 367.846L159.254 370.042C159.254 366.411 155.973 363.142 152.035 363.142C148.097 363.142 144.816 366.536 144.816 370.474L141.687 366.058C140.456 363.142 144.918 351.439 155.403 351.439Z" fill="white"/>
<path d="M181.655 351.439C192.108 351.439 197.319 359.448 197.319 367.846L185.505 370.042C185.505 366.411 182.224 363.142 178.286 363.142C174.349 363.142 171.067 366.536 171.067 370.474L167.939 366.058C166.707 363.142 171.17 351.439 181.655 351.439Z" fill="white"/>
<path d="M181.654 351.439C192.108 351.439 197.319 359.448 197.319 367.846L185.505 368.83C185.505 365.199 182.224 362.268 178.286 362.268C174.349 362.268 171.067 364.893 171.067 368.83L165.161 362.596C167.786 356.689 171.17 351.439 181.654 351.439Z" fill="white"/>
<circle cx="215.516" cy="385.714" r="7.69621" fill="white"/>
</g>
<g opacity="0.23" clip-path="url(#clip2)">
<line x1="-1.86377" y1="69.4404" x2="584.525" y2="69.4404" stroke="#4B4B4B" stroke-width="0.656283"/>
<line x1="-1.86377" y1="66.8154" x2="584.525" y2="66.8154" stroke="#3E3E3E" stroke-width="0.656283"/>
<line x1="33.9038" y1="39.2515" x2="33.9038" y2="178.712" stroke="#3E3E3E" stroke-width="0.656283"/>
<line y1="-0.328142" x2="139.46" y2="-0.328142" transform="matrix(-4.37114e-08 1 1 4.37114e-08 454.705 39.2515)" stroke="#3E3E3E" stroke-width="0.656283"/>
<line x1="197.647" y1="39.2515" x2="197.646" y2="178.712" stroke="#3E3E3E" stroke-width="0.656283"/>
<line x1="207.491" y1="39.2515" x2="207.491" y2="178.712" stroke="#3E3E3E" stroke-width="0.656283"/>
<line x1="223.569" y1="39.2515" x2="223.569" y2="178.712" stroke="#3E3E3E" stroke-width="0.656283"/>
<line x1="233.414" y1="39.2515" x2="233.414" y2="178.712" stroke="#3E3E3E" stroke-width="0.656283"/>
<line x1="-1.86377" y1="129.162" x2="584.525" y2="129.162" stroke="#3E3E3E" stroke-width="0.656283"/>
<line x1="-1.86377" y1="129.818" x2="584.525" y2="129.818" stroke="#4B4B4B" stroke-width="0.656283"/>
<line x1="-1.86377" y1="149.507" x2="584.525" y2="149.507" stroke="#3E3E3E" stroke-width="0.656283"/>
<line x1="-1.86377" y1="146.226" x2="584.525" y2="146.226" stroke="#4B4B4B" stroke-width="0.656283"/>
<line x1="-0.879395" y1="87.8159" x2="585.51" y2="87.8159" stroke="#3E3E3E" stroke-width="0.656283"/>
<circle cx="85.094" cy="159.679" r="13.4538" stroke="#3E3E3E" stroke-width="0.656283"/>
<circle cx="20.4499" cy="106.192" r="13.4538" stroke="#3E3E3E" stroke-width="0.656283"/>
<circle r="13.4538" transform="matrix(-1 0 0 1 467.83 106.192)" stroke="#3E3E3E" stroke-width="0.656283"/>
<circle cx="82.1408" cy="55.9865" r="13.4538" stroke="#3E3E3E" stroke-width="0.656283"/>
<circle cx="202.569" cy="124.24" r="4.92212" stroke="#3E3E3E" stroke-width="0.656283"/>
<circle cx="228.491" cy="124.24" r="4.92212" stroke="#3E3E3E" stroke-width="0.656283"/>
<rect x="67.0464" y="88.1553" width="11.8131" height="41.3308" fill="white"/>
<path fill-rule="evenodd" clip-rule="evenodd" d="M55.053 130.143C67.3696 130.143 76.2138 119.578 76.2138 108.814C76.2138 98.6458 67.4285 87.4844 55.053 87.4844C43.2177 87.4844 34.2319 97.0338 34.2319 108.814C34.2319 120.593 43.2177 130.143 55.053 130.143ZM56.3497 119.361C62.418 119.361 67.0463 114.841 67.0463 108.813C67.0463 102.786 62.418 98.2652 56.3497 98.2652C50.2815 98.2652 45.5819 102.988 45.5819 108.813C45.5819 114.639 50.2815 119.361 56.3497 119.361Z" fill="white"/>
<path fill-rule="evenodd" clip-rule="evenodd" d="M126.314 99.6785L115.496 104.704C114.116 101.595 111.206 99.0939 107.271 99.0939C101.677 99.0939 97.3445 103.448 97.3445 108.818C97.3445 114.189 101.677 118.543 107.271 118.543C111.296 118.543 114.249 116.289 115.588 113.025L126.383 118.115C123.066 125.236 115.95 130.146 107.08 130.146C95.1353 130.146 85.7505 120.597 85.7505 108.817C85.7505 97.0372 95.5619 87.4878 107.08 87.4878C115.4 87.4878 122.83 92.471 126.314 99.6785Z" fill="white"/>
<rect x="133.003" y="88.147" width="11.8131" height="41.3456" fill="white"/>
<path d="M159.254 104.227L171.067 103.242V129.494H159.254V104.227Z" fill="white"/>
<path d="M185.506 104.227L197.319 103.242V129.494H185.506V104.227Z" fill="white"/>
<path d="M155.403 87.4883C165.857 87.4883 171.067 95.4976 171.067 103.895L159.254 106.092C159.254 102.46 155.973 99.1911 152.035 99.1911C148.097 99.1911 144.816 102.585 144.816 106.523L141.687 102.107C140.456 99.1911 144.918 87.4883 155.403 87.4883Z" fill="white"/>
<path d="M181.655 87.4883C192.108 87.4883 197.319 95.4976 197.319 103.895L185.505 106.092C185.505 102.46 182.224 99.1911 178.286 99.1911C174.349 99.1911 171.067 102.585 171.067 106.523L167.939 102.107C166.707 99.1911 171.17 87.4883 181.655 87.4883Z" fill="white"/>
<path d="M181.654 87.4883C192.108 87.4883 197.319 95.4976 197.319 103.895L185.505 104.88C185.505 101.248 182.224 98.317 178.286 98.317C174.349 98.317 171.067 100.942 171.067 104.88L165.161 98.6451C167.786 92.7385 171.17 87.4883 181.654 87.4883Z" fill="white"/>
<circle cx="215.516" cy="121.764" r="7.69621" fill="white"/>
</g>
<defs>
<clipPath id="clip0">
<rect width="474.821" height="131.257" fill="white" transform="translate(6.79102 176.324)"/>
</clipPath>
<clipPath id="clip1">
<rect width="474.821" height="131.257" fill="white" transform="translate(6.79102 306.161)"/>
</clipPath>
<clipPath id="clip2">
<rect width="474.821" height="131.257" fill="white" transform="translate(6.79102 42.2104)"/>
</clipPath>
</defs>
</svg>
