<svg width="482" height="477" viewBox="0 0 482 477" fill="none" xmlns="http://www.w3.org/2000/svg">
<rect x="0.499756" y="0.165039" width="480.727" height="476.577" rx="10.6356" fill="#181818"/>
<g clip-path="url(#clip0)">
<line x1="-17.8969" y1="201.85" x2="605.354" y2="201.85" stroke="#4A4A4A" stroke-width="1.27627"/>
<line x1="-17.8969" y1="199.193" x2="605.354" y2="199.193" stroke="#636363" stroke-width="1.27627"/>
<line x1="146.527" y1="171.592" x2="146.527" y2="312.787" stroke="#636363" stroke-width="1.27627"/>
<line x1="159.816" y1="171.592" x2="159.816" y2="312.787" stroke="#636363" stroke-width="1.27627"/>
<line y1="-0.638134" x2="141.195" y2="-0.638134" transform="matrix(-4.37114e-08 1 1 4.37114e-08 453.985 171.592)" stroke="#636363" stroke-width="1.27627"/>
<line x1="14.3025" y1="171.592" x2="14.3025" y2="312.787" stroke="#636363" stroke-width="1.27627"/>
<line x1="325.595" y1="171.592" x2="325.595" y2="312.787" stroke="#636363" stroke-width="1.27627"/>
<line x1="335.562" y1="171.592" x2="335.562" y2="312.787" stroke="#636363" stroke-width="1.27627"/>
<line x1="351.841" y1="171.592" x2="351.841" y2="312.787" stroke="#636363" stroke-width="1.27627"/>
<line x1="361.808" y1="171.592" x2="361.808" y2="312.787" stroke="#636363" stroke-width="1.27627"/>
<line x1="-17.8969" y1="262.315" x2="605.354" y2="262.315" stroke="#636363" stroke-width="1.27627"/>
<line x1="-17.8969" y1="262.98" x2="605.354" y2="262.98" stroke="#4A4A4A" stroke-width="1.27627"/>
<line x1="-17.8969" y1="282.913" x2="605.354" y2="282.913" stroke="#636363" stroke-width="1.27627"/>
<line x1="-17.8969" y1="279.591" x2="605.354" y2="279.591" stroke="#4A4A4A" stroke-width="1.27627"/>
<line x1="-16.9005" y1="220.455" x2="606.351" y2="220.455" stroke="#636363" stroke-width="1.27627"/>
<circle cx="159.843" cy="293.518" r="13.3152" stroke="#636363" stroke-width="1.27627"/>
<circle r="13.3152" transform="matrix(-1 0 0 1 467.274 241.027)" stroke="#636363" stroke-width="1.27627"/>
<circle cx="7.35203" cy="242.023" r="6.33856" stroke="#636363" stroke-width="1.27627"/>
<circle cx="159.843" cy="188.535" r="13.3152" stroke="#636363" stroke-width="1.27627"/>
<circle cx="317.649" cy="257.638" r="4.67744" stroke="#636363" stroke-width="1.27627"/>
<circle cx="343.894" cy="257.638" r="4.67744" stroke="#636363" stroke-width="1.27627"/>
<rect x="193.065" y="221.105" width="11.96" height="41.8449" fill="white"/>
<path fill-rule="evenodd" clip-rule="evenodd" d="M180.923 263.614C193.392 263.614 202.347 252.918 202.347 242.019C202.347 231.725 193.452 220.425 180.923 220.425C168.94 220.425 159.843 230.093 159.843 242.019C159.843 253.946 168.94 263.614 180.923 263.614ZM182.235 252.699C188.379 252.699 193.065 248.122 193.065 242.02C193.065 235.917 188.379 231.34 182.235 231.34C176.091 231.34 171.333 236.122 171.333 242.02C171.333 247.917 176.091 252.699 182.235 252.699Z" fill="white"/>
<path fill-rule="evenodd" clip-rule="evenodd" d="M253.069 232.771L242.117 237.858C240.72 234.711 237.774 232.178 233.79 232.178C228.126 232.178 223.74 236.586 223.74 242.024C223.74 247.461 228.126 251.869 233.79 251.869C237.865 251.869 240.854 249.588 242.211 246.283L253.14 251.436C249.782 258.647 242.577 263.618 233.596 263.618C221.503 263.618 212.002 253.95 212.002 242.023C212.002 230.097 221.935 220.429 233.596 220.429C242.02 220.429 249.542 225.474 253.069 232.771Z" fill="white"/>
<rect x="259.842" y="221.096" width="11.96" height="41.8599" fill="white"/>
<path d="M286.419 237.375L298.379 236.379V262.957H286.419V237.375Z" fill="white"/>
<path d="M312.997 237.375L324.958 236.379V262.957H312.997V237.375Z" fill="white"/>
<path d="M282.52 220.429C293.104 220.429 298.379 228.538 298.379 237.04L286.419 239.264C286.419 235.587 283.097 232.277 279.11 232.277C275.124 232.277 271.801 235.714 271.801 239.7L268.634 235.23C267.387 232.277 271.905 220.429 282.52 220.429Z" fill="white"/>
<path d="M309.098 220.429C319.682 220.429 324.957 228.538 324.957 237.04L312.997 239.264C312.997 235.587 309.675 232.277 305.688 232.277C301.701 232.277 298.379 235.714 298.379 239.7L295.212 235.23C293.965 232.277 298.483 220.429 309.098 220.429Z" fill="white"/>
<path d="M309.099 220.429C319.682 220.429 324.957 228.538 324.957 237.04L312.997 238.037C312.997 234.36 309.675 231.392 305.688 231.392C301.702 231.392 298.38 234.05 298.38 238.037L292.399 231.725C295.057 225.745 298.483 220.429 309.099 220.429Z" fill="white"/>
<circle cx="343.381" cy="255.131" r="7.79194" fill="white"/>
<circle cx="80.0885" cy="241.027" r="66.1125" stroke="#4A4A4A" stroke-width="0.664447"/>
<rect x="80.0875" y="175.052" width="93.3025" height="93.3025" transform="rotate(45 80.0875 175.052)" stroke="#4A4A4A" stroke-width="0.664447"/>
<circle cx="20.2873" cy="241.027" r="6.31224" stroke="#4A4A4A" stroke-width="0.664447"/>
<circle cx="33.5763" cy="241.027" r="6.31224" stroke="#4A4A4A" stroke-width="0.664447"/>
<circle cx="46.8653" cy="241.027" r="6.31224" stroke="#4A4A4A" stroke-width="0.664447"/>
<circle cx="60.1543" cy="241.027" r="6.31224" stroke="#4A4A4A" stroke-width="0.664447"/>
<circle cx="73.443" cy="241.027" r="6.31224" stroke="#4A4A4A" stroke-width="0.664447"/>
<circle cx="73.443" cy="241.027" r="6.31224" stroke="#4A4A4A" stroke-width="0.664447"/>
<circle cx="80.0875" cy="241.026" r="12.9567" stroke="#4A4A4A" stroke-width="0.664447"/>
<circle cx="80.0877" cy="212.124" r="26.2456" stroke="#4A4A4A" stroke-width="0.664447"/>
<circle cx="80.0877" cy="241.026" r="26.2456" stroke="#4A4A4A" stroke-width="0.664447"/>
<circle cx="80.0876" cy="241.026" r="39.5346" stroke="#4A4A4A" stroke-width="0.664447"/>
<circle cx="80.0876" cy="241.026" r="52.8235" stroke="#4A4A4A" stroke-width="0.664447"/>
<mask id="path-47-inside-1" fill="white">
<path d="M145.868 227.073C147.7 227.073 149.515 227.434 151.208 228.135C152.9 228.836 154.439 229.864 155.734 231.16C157.03 232.456 158.058 233.994 158.759 235.687C159.46 237.38 159.821 239.194 159.821 241.026C159.821 242.859 159.46 244.673 158.759 246.366C158.058 248.059 157.03 249.597 155.734 250.893C154.439 252.189 152.9 253.216 151.208 253.918C149.515 254.619 147.7 254.98 145.868 254.98L145.868 241.026V227.073Z"/>
</mask>
<path d="M145.868 227.073C147.7 227.073 149.515 227.434 151.208 228.135C152.9 228.836 154.439 229.864 155.734 231.16C157.03 232.456 158.058 233.994 158.759 235.687C159.46 237.38 159.821 239.194 159.821 241.026C159.821 242.859 159.46 244.673 158.759 246.366C158.058 248.059 157.03 249.597 155.734 250.893C154.439 252.189 152.9 253.216 151.208 253.918C149.515 254.619 147.7 254.98 145.868 254.98L145.868 241.026V227.073Z" stroke="#636363" stroke-width="1.32889" mask="url(#path-47-inside-1)"/>
<rect x="80.1089" y="175.052" width="93.3025" height="93.3025" rx="26.2456" transform="rotate(45 80.1089 175.052)" stroke="white" stroke-width="0.664447"/>
</g>
<rect x="0.831979" y="174.921" width="480.063" height="132.225" stroke="#D9D9D9" stroke-width="0.664447"/>
<g opacity="0.22">
<g clip-path="url(#clip1)">
<line x1="-17.8969" y1="334.723" x2="605.354" y2="334.723" stroke="#4A4A4A" stroke-width="1.27627"/>
<line x1="-17.8969" y1="332.066" x2="605.354" y2="332.066" stroke="#636363" stroke-width="1.27627"/>
<line x1="146.527" y1="304.465" x2="146.527" y2="445.66" stroke="#636363" stroke-width="1.27627"/>
<line x1="159.816" y1="304.465" x2="159.816" y2="445.66" stroke="#636363" stroke-width="1.27627"/>
<line y1="-0.638134" x2="141.195" y2="-0.638134" transform="matrix(-4.37114e-08 1 1 4.37114e-08 453.985 304.465)" stroke="#636363" stroke-width="1.27627"/>
<line x1="14.3025" y1="304.465" x2="14.3025" y2="445.66" stroke="#636363" stroke-width="1.27627"/>
<line x1="325.595" y1="304.465" x2="325.595" y2="445.66" stroke="#636363" stroke-width="1.27627"/>
<line x1="335.562" y1="304.465" x2="335.562" y2="445.66" stroke="#636363" stroke-width="1.27627"/>
<line x1="351.841" y1="304.465" x2="351.841" y2="445.66" stroke="#636363" stroke-width="1.27627"/>
<line x1="361.808" y1="304.465" x2="361.808" y2="445.66" stroke="#636363" stroke-width="1.27627"/>
<line x1="-17.8969" y1="395.188" x2="605.354" y2="395.188" stroke="#636363" stroke-width="1.27627"/>
<line x1="-17.8969" y1="395.853" x2="605.354" y2="395.853" stroke="#4A4A4A" stroke-width="1.27627"/>
<line x1="-17.8969" y1="415.786" x2="605.354" y2="415.786" stroke="#636363" stroke-width="1.27627"/>
<line x1="-17.8969" y1="412.464" x2="605.354" y2="412.464" stroke="#4A4A4A" stroke-width="1.27627"/>
<line x1="-16.9005" y1="353.328" x2="606.351" y2="353.328" stroke="#636363" stroke-width="1.27627"/>
<circle cx="159.843" cy="426.391" r="13.3152" stroke="#636363" stroke-width="1.27627"/>
<circle r="13.3152" transform="matrix(-1 0 0 1 467.274 373.9)" stroke="#636363" stroke-width="1.27627"/>
<circle cx="7.35203" cy="374.896" r="6.33856" stroke="#636363" stroke-width="1.27627"/>
<circle cx="159.843" cy="321.408" r="13.3152" stroke="#636363" stroke-width="1.27627"/>
<circle cx="317.649" cy="390.511" r="4.67744" stroke="#636363" stroke-width="1.27627"/>
<circle cx="343.894" cy="390.511" r="4.67744" stroke="#636363" stroke-width="1.27627"/>
<rect x="193.065" y="353.978" width="11.96" height="41.8449" fill="white"/>
<path fill-rule="evenodd" clip-rule="evenodd" d="M180.923 396.487C193.392 396.487 202.347 385.791 202.347 374.892C202.347 364.598 193.452 353.298 180.923 353.298C168.94 353.298 159.843 362.966 159.843 374.892C159.843 386.819 168.94 396.487 180.923 396.487ZM182.235 385.572C188.379 385.572 193.065 380.995 193.065 374.893C193.065 368.79 188.379 364.213 182.235 364.213C176.091 364.213 171.333 368.995 171.333 374.893C171.333 380.791 176.091 385.572 182.235 385.572Z" fill="white"/>
<path fill-rule="evenodd" clip-rule="evenodd" d="M253.069 365.644L242.117 370.731C240.72 367.584 237.774 365.051 233.79 365.051C228.126 365.051 223.74 369.459 223.74 374.897C223.74 380.334 228.126 384.742 233.79 384.742C237.865 384.742 240.854 382.461 242.211 379.156L253.14 384.31C249.782 391.52 242.577 396.491 233.596 396.491C221.503 396.491 212.002 386.823 212.002 374.897C212.002 362.97 221.935 353.302 233.596 353.302C242.02 353.302 249.542 358.347 253.069 365.644Z" fill="white"/>
<rect x="259.842" y="353.969" width="11.96" height="41.8599" fill="white"/>
<path d="M286.419 370.248L298.379 369.252V395.83H286.419V370.248Z" fill="white"/>
<path d="M312.997 370.248L324.958 369.252V395.83H312.997V370.248Z" fill="white"/>
<path d="M282.52 353.302C293.104 353.302 298.379 361.411 298.379 369.913L286.419 372.137C286.419 368.46 283.097 365.15 279.11 365.15C275.124 365.15 271.801 368.587 271.801 372.573L268.634 368.103C267.387 365.15 271.905 353.302 282.52 353.302Z" fill="white"/>
<path d="M309.098 353.302C319.682 353.302 324.957 361.411 324.957 369.913L312.997 372.137C312.997 368.46 309.675 365.15 305.688 365.15C301.701 365.15 298.379 368.587 298.379 372.573L295.212 368.103C293.965 365.15 298.483 353.302 309.098 353.302Z" fill="white"/>
<path d="M309.099 353.302C319.682 353.302 324.957 361.411 324.957 369.913L312.997 370.91C312.997 367.233 309.675 364.265 305.688 364.265C301.702 364.265 298.38 366.923 298.38 370.91L292.399 364.598C295.057 358.618 298.483 353.302 309.099 353.302Z" fill="white"/>
<circle cx="343.381" cy="388.004" r="7.79194" fill="white"/>
<circle cx="80.0885" cy="373.9" r="66.1125" stroke="#4A4A4A" stroke-width="0.664447"/>
<rect x="80.0875" y="307.925" width="93.3025" height="93.3025" transform="rotate(45 80.0875 307.925)" stroke="#4A4A4A" stroke-width="0.664447"/>
<circle cx="20.2873" cy="373.9" r="6.31224" stroke="#4A4A4A" stroke-width="0.664447"/>
<circle cx="33.5763" cy="373.9" r="6.31224" stroke="#4A4A4A" stroke-width="0.664447"/>
<circle cx="46.8653" cy="373.9" r="6.31224" stroke="#4A4A4A" stroke-width="0.664447"/>
<circle cx="60.1543" cy="373.9" r="6.31224" stroke="#4A4A4A" stroke-width="0.664447"/>
<circle cx="73.443" cy="373.9" r="6.31224" stroke="#4A4A4A" stroke-width="0.664447"/>
<circle cx="73.443" cy="373.9" r="6.31224" stroke="#4A4A4A" stroke-width="0.664447"/>
<circle cx="80.0875" cy="373.899" r="12.9567" stroke="#4A4A4A" stroke-width="0.664447"/>
<circle cx="80.0877" cy="344.997" r="26.2456" stroke="#4A4A4A" stroke-width="0.664447"/>
<circle cx="80.0877" cy="373.899" r="26.2456" stroke="#4A4A4A" stroke-width="0.664447"/>
<circle cx="80.0876" cy="373.9" r="39.5346" stroke="#4A4A4A" stroke-width="0.664447"/>
<circle cx="80.0876" cy="373.899" r="52.8235" stroke="#4A4A4A" stroke-width="0.664447"/>
<mask id="path-94-inside-2" fill="white">
<path d="M145.868 359.946C147.7 359.946 149.515 360.307 151.208 361.008C152.9 361.709 154.439 362.737 155.734 364.033C157.03 365.329 158.058 366.867 158.759 368.56C159.46 370.253 159.821 372.067 159.821 373.899C159.821 375.732 159.46 377.546 158.759 379.239C158.058 380.932 157.03 382.47 155.734 383.766C154.439 385.062 152.9 386.089 151.208 386.791C149.515 387.492 147.7 387.853 145.868 387.853L145.868 373.899V359.946Z"/>
</mask>
<path d="M145.868 359.946C147.7 359.946 149.515 360.307 151.208 361.008C152.9 361.709 154.439 362.737 155.734 364.033C157.03 365.329 158.058 366.867 158.759 368.56C159.46 370.253 159.821 372.067 159.821 373.899C159.821 375.732 159.46 377.546 158.759 379.239C158.058 380.932 157.03 382.47 155.734 383.766C154.439 385.062 152.9 386.089 151.208 386.791C149.515 387.492 147.7 387.853 145.868 387.853L145.868 373.899V359.946Z" stroke="#636363" stroke-width="1.32889" mask="url(#path-94-inside-2)"/>
<rect x="80.1089" y="307.925" width="93.3025" height="93.3025" rx="26.2456" transform="rotate(45 80.1089 307.925)" stroke="white" stroke-width="0.664447"/>
</g>
<rect x="0.831979" y="307.794" width="480.063" height="132.225" stroke="#D9D9D9" stroke-width="0.664447"/>
</g>
<g opacity="0.22">
<g clip-path="url(#clip2)">
<line x1="-17.8969" y1="70.5831" x2="605.354" y2="70.5831" stroke="#4A4A4A" stroke-width="1.27627"/>
<line x1="-17.8969" y1="67.9256" x2="605.354" y2="67.9256" stroke="#636363" stroke-width="1.27627"/>
<line x1="146.527" y1="40.3247" x2="146.527" y2="181.52" stroke="#636363" stroke-width="1.27627"/>
<line x1="159.816" y1="40.3247" x2="159.816" y2="181.52" stroke="#636363" stroke-width="1.27627"/>
<line y1="-0.638134" x2="141.195" y2="-0.638134" transform="matrix(-4.37114e-08 1 1 4.37114e-08 453.985 40.3247)" stroke="#636363" stroke-width="1.27627"/>
<line x1="14.3025" y1="40.3247" x2="14.3025" y2="181.52" stroke="#636363" stroke-width="1.27627"/>
<line x1="325.595" y1="40.3247" x2="325.595" y2="181.52" stroke="#636363" stroke-width="1.27627"/>
<line x1="335.562" y1="40.3247" x2="335.562" y2="181.52" stroke="#636363" stroke-width="1.27627"/>
<line x1="351.841" y1="40.3247" x2="351.841" y2="181.52" stroke="#636363" stroke-width="1.27627"/>
<line x1="361.808" y1="40.3247" x2="361.808" y2="181.52" stroke="#636363" stroke-width="1.27627"/>
<line x1="-17.8969" y1="131.048" x2="605.354" y2="131.048" stroke="#636363" stroke-width="1.27627"/>
<line x1="-17.8969" y1="131.713" x2="605.354" y2="131.713" stroke="#4A4A4A" stroke-width="1.27627"/>
<line x1="-17.8969" y1="151.646" x2="605.354" y2="151.646" stroke="#636363" stroke-width="1.27627"/>
<line x1="-17.8969" y1="148.324" x2="605.354" y2="148.324" stroke="#4A4A4A" stroke-width="1.27627"/>
<line x1="-16.9005" y1="89.188" x2="606.351" y2="89.188" stroke="#636363" stroke-width="1.27627"/>
<circle cx="159.843" cy="162.251" r="13.3152" stroke="#636363" stroke-width="1.27627"/>
<circle r="13.3152" transform="matrix(-1 0 0 1 467.274 109.76)" stroke="#636363" stroke-width="1.27627"/>
<circle cx="7.35203" cy="110.756" r="6.33856" stroke="#636363" stroke-width="1.27627"/>
<circle cx="159.843" cy="57.2683" r="13.3152" stroke="#636363" stroke-width="1.27627"/>
<circle cx="317.649" cy="126.371" r="4.67744" stroke="#636363" stroke-width="1.27627"/>
<circle cx="343.894" cy="126.371" r="4.67744" stroke="#636363" stroke-width="1.27627"/>
<rect x="193.065" y="89.8376" width="11.96" height="41.8449" fill="white"/>
<path fill-rule="evenodd" clip-rule="evenodd" d="M180.923 132.347C193.392 132.347 202.347 121.651 202.347 110.752C202.347 100.458 193.452 89.1577 180.923 89.1577C168.94 89.1577 159.843 98.8259 159.843 110.752C159.843 122.679 168.94 132.347 180.923 132.347ZM182.235 121.432C188.379 121.432 193.065 116.855 193.065 110.752C193.065 104.65 188.379 100.073 182.235 100.073C176.091 100.073 171.333 104.854 171.333 110.752C171.333 116.65 176.091 121.432 182.235 121.432Z" fill="white"/>
<path fill-rule="evenodd" clip-rule="evenodd" d="M253.069 101.504L242.117 106.591C240.72 103.444 237.774 100.911 233.79 100.911C228.126 100.911 223.74 105.319 223.74 110.757C223.74 116.194 228.126 120.602 233.79 120.602C237.865 120.602 240.854 118.321 242.211 115.016L253.14 120.169C249.782 127.38 242.577 132.351 233.596 132.351C221.503 132.351 212.002 122.683 212.002 110.756C212.002 98.8301 221.935 89.1619 233.596 89.1619C242.02 89.1619 249.542 94.2068 253.069 101.504Z" fill="white"/>
<rect x="259.842" y="89.8293" width="11.96" height="41.8599" fill="white"/>
<path d="M286.419 106.108L298.379 105.112V131.689H286.419V106.108Z" fill="white"/>
<path d="M312.997 106.108L324.958 105.112V131.689H312.997V106.108Z" fill="white"/>
<path d="M282.52 89.1619C293.104 89.1619 298.379 97.2708 298.379 105.773L286.419 107.997C286.419 104.32 283.097 101.01 279.11 101.01C275.124 101.01 271.801 104.447 271.801 108.433L268.634 103.963C267.387 101.01 271.905 89.1619 282.52 89.1619Z" fill="white"/>
<path d="M309.098 89.1619C319.682 89.1619 324.957 97.2708 324.957 105.773L312.997 107.997C312.997 104.32 309.675 101.01 305.688 101.01C301.701 101.01 298.379 104.447 298.379 108.433L295.212 103.963C293.965 101.01 298.483 89.1619 309.098 89.1619Z" fill="white"/>
<path d="M309.099 89.1619C319.682 89.1619 324.957 97.2708 324.957 105.773L312.997 106.77C312.997 103.093 309.675 100.125 305.688 100.125C301.702 100.125 298.38 102.783 298.38 106.77L292.399 100.457C295.057 94.4774 298.483 89.1619 309.099 89.1619Z" fill="white"/>
<circle cx="343.381" cy="123.864" r="7.79194" fill="white"/>
<circle cx="80.0885" cy="109.76" r="66.1125" stroke="#4A4A4A" stroke-width="0.664447"/>
<rect x="80.0875" y="43.7845" width="93.3025" height="93.3025" transform="rotate(45 80.0875 43.7845)" stroke="#4A4A4A" stroke-width="0.664447"/>
<circle cx="20.2873" cy="109.759" r="6.31224" stroke="#4A4A4A" stroke-width="0.664447"/>
<circle cx="33.5763" cy="109.759" r="6.31224" stroke="#4A4A4A" stroke-width="0.664447"/>
<circle cx="46.8653" cy="109.759" r="6.31224" stroke="#4A4A4A" stroke-width="0.664447"/>
<circle cx="60.1543" cy="109.759" r="6.31224" stroke="#4A4A4A" stroke-width="0.664447"/>
<circle cx="73.443" cy="109.759" r="6.31224" stroke="#4A4A4A" stroke-width="0.664447"/>
<circle cx="73.443" cy="109.759" r="6.31224" stroke="#4A4A4A" stroke-width="0.664447"/>
<circle cx="80.0875" cy="109.759" r="12.9567" stroke="#4A4A4A" stroke-width="0.664447"/>
<circle cx="80.0877" cy="80.8564" r="26.2456" stroke="#4A4A4A" stroke-width="0.664447"/>
<circle cx="80.0877" cy="109.759" r="26.2456" stroke="#4A4A4A" stroke-width="0.664447"/>
<circle cx="80.0876" cy="109.759" r="39.5346" stroke="#4A4A4A" stroke-width="0.664447"/>
<circle cx="80.0876" cy="109.759" r="52.8235" stroke="#4A4A4A" stroke-width="0.664447"/>
<mask id="path-141-inside-3" fill="white">
<path d="M145.868 95.8059C147.7 95.8059 149.515 96.1668 151.208 96.868C152.9 97.5693 154.439 98.5971 155.734 99.8928C157.03 101.188 158.058 102.727 158.759 104.42C159.46 106.112 159.821 107.927 159.821 109.759C159.821 111.592 159.46 113.406 158.759 115.099C158.058 116.792 157.03 118.33 155.734 119.626C154.439 120.922 152.9 121.949 151.208 122.651C149.515 123.352 147.7 123.713 145.868 123.713L145.868 109.759V95.8059Z"/>
</mask>
<path d="M145.868 95.8059C147.7 95.8059 149.515 96.1668 151.208 96.868C152.9 97.5693 154.439 98.5971 155.734 99.8928C157.03 101.188 158.058 102.727 158.759 104.42C159.46 106.112 159.821 107.927 159.821 109.759C159.821 111.592 159.46 113.406 158.759 115.099C158.058 116.792 157.03 118.33 155.734 119.626C154.439 120.922 152.9 121.949 151.208 122.651C149.515 123.352 147.7 123.713 145.868 123.713L145.868 109.759V95.8059Z" stroke="#636363" stroke-width="1.32889" mask="url(#path-141-inside-3)"/>
<rect x="80.1089" y="43.7848" width="93.3025" height="93.3025" rx="26.2456" transform="rotate(45 80.1089 43.7848)" stroke="white" stroke-width="0.664447"/>
</g>
<rect x="0.831979" y="43.6535" width="480.063" height="132.225" stroke="#D9D9D9" stroke-width="0.664447"/>
</g>
<defs>
<clipPath id="clip0">
</clipPath>
<clipPath id="clip1">
</clipPath>
<clipPath id="clip2">
</clipPath>
</defs>
</svg>
