<svg width="482" height="481" viewBox="0 0 482 481" fill="none" xmlns="http://www.w3.org/2000/svg">
<rect x="0.772949" y="0.0146484" width="480.727" height="480.727" rx="10.6356" fill="#181818"/>
<g clip-path="url(#clip0)">
<line x1="-4.92838" y1="207.441" x2="581.461" y2="207.441" stroke="#4B4B4B" stroke-width="0.656283"/>
<line x1="-4.92838" y1="204.816" x2="581.461" y2="204.816" stroke="#3E3E3E" stroke-width="0.656283"/>
<line x1="30.8392" y1="177.251" x2="30.8392" y2="316.712" stroke="#3E3E3E" stroke-width="0.656283"/>
<line y1="-0.328142" x2="139.46" y2="-0.328142" transform="matrix(-4.37114e-08 1 1 4.37114e-08 451.64 177.251)" stroke="#3E3E3E" stroke-width="0.656283"/>
<line x1="194.582" y1="177.251" x2="194.582" y2="316.712" stroke="#3E3E3E" stroke-width="0.656283"/>
<line x1="204.426" y1="177.251" x2="204.426" y2="316.712" stroke="#3E3E3E" stroke-width="0.656283"/>
<line x1="220.505" y1="177.251" x2="220.505" y2="316.712" stroke="#3E3E3E" stroke-width="0.656283"/>
<line x1="230.349" y1="177.251" x2="230.349" y2="316.712" stroke="#3E3E3E" stroke-width="0.656283"/>
<line x1="-4.92838" y1="267.162" x2="581.461" y2="267.162" stroke="#3E3E3E" stroke-width="0.656283"/>
<line x1="-4.92838" y1="267.818" x2="581.461" y2="267.818" stroke="#4B4B4B" stroke-width="0.656283"/>
<line x1="-4.92838" y1="287.507" x2="581.461" y2="287.507" stroke="#3E3E3E" stroke-width="0.656283"/>
<line x1="-4.92838" y1="284.226" x2="581.461" y2="284.226" stroke="#4B4B4B" stroke-width="0.656283"/>
<line x1="-3.9439" y1="225.816" x2="582.445" y2="225.816" stroke="#3E3E3E" stroke-width="0.656283"/>
<circle cx="82.0294" cy="297.679" r="13.4538" stroke="#3E3E3E" stroke-width="0.656283"/>
<circle cx="17.3854" cy="244.192" r="13.4538" stroke="#3E3E3E" stroke-width="0.656283"/>
<circle r="13.4538" transform="matrix(-1 0 0 1 464.766 244.192)" stroke="#3E3E3E" stroke-width="0.656283"/>
<circle cx="79.076" cy="193.987" r="13.4538" stroke="#3E3E3E" stroke-width="0.656283"/>
<circle cx="199.504" cy="262.24" r="4.92212" stroke="#3E3E3E" stroke-width="0.656283"/>
<circle cx="225.427" cy="262.24" r="4.92212" stroke="#3E3E3E" stroke-width="0.656283"/>
<rect x="63.9813" y="226.155" width="11.8131" height="41.3308" fill="white"/>
<path fill-rule="evenodd" clip-rule="evenodd" d="M51.9881 268.143C64.3047 268.143 73.1488 257.578 73.1488 246.814C73.1488 236.646 64.3636 225.484 51.9881 225.484C40.1528 225.484 31.167 235.034 31.167 246.814C31.167 258.593 40.1528 268.143 51.9881 268.143ZM53.2848 257.361C59.353 257.361 63.9814 252.841 63.9814 246.813C63.9814 240.786 59.353 236.265 53.2848 236.265C47.2166 236.265 42.517 240.988 42.517 246.813C42.517 252.639 47.2166 257.361 53.2848 257.361Z" fill="white"/>
<path fill-rule="evenodd" clip-rule="evenodd" d="M123.249 237.678L112.431 242.704C111.051 239.595 108.141 237.094 104.207 237.094C98.6121 237.094 94.2796 241.448 94.2796 246.818C94.2796 252.189 98.6121 256.543 104.207 256.543C108.231 256.543 111.184 254.289 112.523 251.025L123.318 256.115C120.001 263.236 112.885 268.146 104.015 268.146C92.0704 268.146 82.6856 258.597 82.6856 246.817C82.6856 235.037 92.497 225.488 104.015 225.488C112.335 225.488 119.765 230.471 123.249 237.678Z" fill="white"/>
<rect x="129.938" y="226.147" width="11.8131" height="41.3456" fill="white"/>
<path d="M156.189 242.227L168.003 241.242V267.494H156.189V242.227Z" fill="white"/>
<path d="M182.441 242.227L194.254 241.242V267.494H182.441V242.227Z" fill="white"/>
<path d="M152.338 225.488C162.792 225.488 168.002 233.498 168.002 241.895L156.189 244.092C156.189 240.46 152.908 237.191 148.97 237.191C145.032 237.191 141.751 240.585 141.751 244.523L138.622 240.107C137.391 237.191 141.853 225.488 152.338 225.488Z" fill="white"/>
<path d="M178.59 225.488C189.043 225.488 194.254 233.498 194.254 241.895L182.44 244.092C182.44 240.46 179.159 237.191 175.221 237.191C171.284 237.191 168.002 240.585 168.002 244.523L164.873 240.107C163.642 237.191 168.105 225.488 178.59 225.488Z" fill="white"/>
<path d="M178.59 225.488C189.044 225.488 194.254 233.498 194.254 241.895L182.441 242.88C182.441 239.248 179.159 236.317 175.221 236.317C171.284 236.317 168.002 238.942 168.002 242.88L162.096 236.645C164.721 230.739 168.105 225.488 178.59 225.488Z" fill="white"/>
<circle cx="212.451" cy="259.763" r="7.69621" fill="white"/>
</g>
<g opacity="0.23" clip-path="url(#clip1)">
<line x1="-4.92838" y1="337.278" x2="581.461" y2="337.278" stroke="#4B4B4B" stroke-width="0.656283"/>
<line x1="-4.92838" y1="334.653" x2="581.461" y2="334.653" stroke="#3E3E3E" stroke-width="0.656283"/>
<line x1="30.8392" y1="307.088" x2="30.8392" y2="446.549" stroke="#3E3E3E" stroke-width="0.656283"/>
<line y1="-0.328142" x2="139.46" y2="-0.328142" transform="matrix(-4.37114e-08 1 1 4.37114e-08 451.64 307.088)" stroke="#3E3E3E" stroke-width="0.656283"/>
<line x1="194.582" y1="307.088" x2="194.582" y2="446.549" stroke="#3E3E3E" stroke-width="0.656283"/>
<line x1="204.426" y1="307.088" x2="204.426" y2="446.549" stroke="#3E3E3E" stroke-width="0.656283"/>
<line x1="220.505" y1="307.088" x2="220.505" y2="446.549" stroke="#3E3E3E" stroke-width="0.656283"/>
<line x1="230.349" y1="307.088" x2="230.349" y2="446.549" stroke="#3E3E3E" stroke-width="0.656283"/>
<line x1="-4.92838" y1="396.999" x2="581.461" y2="396.999" stroke="#3E3E3E" stroke-width="0.656283"/>
<line x1="-4.92838" y1="397.655" x2="581.461" y2="397.655" stroke="#4B4B4B" stroke-width="0.656283"/>
<line x1="-4.92838" y1="417.344" x2="581.461" y2="417.344" stroke="#3E3E3E" stroke-width="0.656283"/>
<line x1="-4.92838" y1="414.063" x2="581.461" y2="414.063" stroke="#4B4B4B" stroke-width="0.656283"/>
<line x1="-3.9439" y1="355.653" x2="582.445" y2="355.653" stroke="#3E3E3E" stroke-width="0.656283"/>
<circle cx="82.0294" cy="427.516" r="13.4538" stroke="#3E3E3E" stroke-width="0.656283"/>
<circle cx="17.3854" cy="374.029" r="13.4538" stroke="#3E3E3E" stroke-width="0.656283"/>
<circle r="13.4538" transform="matrix(-1 0 0 1 464.766 374.029)" stroke="#3E3E3E" stroke-width="0.656283"/>
<circle cx="79.076" cy="323.824" r="13.4538" stroke="#3E3E3E" stroke-width="0.656283"/>
<circle cx="199.504" cy="392.077" r="4.92212" stroke="#3E3E3E" stroke-width="0.656283"/>
<circle cx="225.427" cy="392.077" r="4.92212" stroke="#3E3E3E" stroke-width="0.656283"/>
<rect x="63.9813" y="355.992" width="11.8131" height="41.3308" fill="white"/>
<path fill-rule="evenodd" clip-rule="evenodd" d="M51.9881 397.98C64.3047 397.98 73.1488 387.415 73.1488 376.651C73.1488 366.483 64.3636 355.321 51.9881 355.321C40.1528 355.321 31.167 364.871 31.167 376.651C31.167 388.43 40.1528 397.98 51.9881 397.98ZM53.2848 387.198C59.353 387.198 63.9814 382.677 63.9814 376.65C63.9814 370.623 59.353 366.102 53.2848 366.102C47.2166 366.102 42.517 370.825 42.517 376.65C42.517 382.476 47.2166 387.198 53.2848 387.198Z" fill="white"/>
<path fill-rule="evenodd" clip-rule="evenodd" d="M123.249 367.515L112.431 372.541C111.051 369.432 108.141 366.931 104.207 366.931C98.6121 366.931 94.2796 371.285 94.2796 376.655C94.2796 382.026 98.6121 386.38 104.207 386.38C108.231 386.38 111.184 384.126 112.523 380.862L123.318 385.952C120.001 393.073 112.885 397.983 104.015 397.983C92.0704 397.983 82.6856 388.434 82.6856 376.654C82.6856 364.874 92.497 355.325 104.015 355.325C112.335 355.325 119.765 360.308 123.249 367.515Z" fill="white"/>
<rect x="129.938" y="355.984" width="11.8131" height="41.3456" fill="white"/>
<path d="M156.189 372.064L168.003 371.079V397.33H156.189V372.064Z" fill="white"/>
<path d="M182.441 372.064L194.254 371.079V397.33H182.441V372.064Z" fill="white"/>
<path d="M152.338 355.325C162.792 355.325 168.002 363.335 168.002 371.732L156.189 373.929C156.189 370.297 152.908 367.028 148.97 367.028C145.032 367.028 141.751 370.422 141.751 374.36L138.622 369.944C137.391 367.028 141.853 355.325 152.338 355.325Z" fill="white"/>
<path d="M178.59 355.325C189.043 355.325 194.254 363.335 194.254 371.732L182.44 373.929C182.44 370.297 179.159 367.028 175.221 367.028C171.284 367.028 168.002 370.422 168.002 374.36L164.873 369.944C163.642 367.028 168.105 355.325 178.59 355.325Z" fill="white"/>
<path d="M178.59 355.325C189.044 355.325 194.254 363.335 194.254 371.732L182.441 372.717C182.441 369.085 179.159 366.154 175.221 366.154C171.284 366.154 168.002 368.779 168.002 372.717L162.096 366.482C164.721 360.575 168.105 355.325 178.59 355.325Z" fill="white"/>
<circle cx="212.451" cy="389.6" r="7.69621" fill="white"/>
</g>
<g opacity="0.23" clip-path="url(#clip2)">
<line x1="-4.92838" y1="73.3266" x2="581.461" y2="73.3266" stroke="#4B4B4B" stroke-width="0.656283"/>
<line x1="-4.92838" y1="70.7016" x2="581.461" y2="70.7016" stroke="#3E3E3E" stroke-width="0.656283"/>
<line x1="30.8392" y1="43.1375" x2="30.8392" y2="182.598" stroke="#3E3E3E" stroke-width="0.656283"/>
<line y1="-0.328142" x2="139.46" y2="-0.328142" transform="matrix(-4.37114e-08 1 1 4.37114e-08 451.64 43.1375)" stroke="#3E3E3E" stroke-width="0.656283"/>
<line x1="194.582" y1="43.1375" x2="194.582" y2="182.598" stroke="#3E3E3E" stroke-width="0.656283"/>
<line x1="204.426" y1="43.1375" x2="204.426" y2="182.598" stroke="#3E3E3E" stroke-width="0.656283"/>
<line x1="220.505" y1="43.1375" x2="220.505" y2="182.598" stroke="#3E3E3E" stroke-width="0.656283"/>
<line x1="230.349" y1="43.1375" x2="230.349" y2="182.598" stroke="#3E3E3E" stroke-width="0.656283"/>
<line x1="-4.92838" y1="133.048" x2="581.461" y2="133.048" stroke="#3E3E3E" stroke-width="0.656283"/>
<line x1="-4.92838" y1="133.704" x2="581.461" y2="133.704" stroke="#4B4B4B" stroke-width="0.656283"/>
<line x1="-4.92838" y1="153.393" x2="581.461" y2="153.393" stroke="#3E3E3E" stroke-width="0.656283"/>
<line x1="-4.92838" y1="150.112" x2="581.461" y2="150.112" stroke="#4B4B4B" stroke-width="0.656283"/>
<line x1="-3.9439" y1="91.7021" x2="582.445" y2="91.7021" stroke="#3E3E3E" stroke-width="0.656283"/>
<circle cx="82.0294" cy="163.565" r="13.4538" stroke="#3E3E3E" stroke-width="0.656283"/>
<circle cx="17.3854" cy="110.078" r="13.4538" stroke="#3E3E3E" stroke-width="0.656283"/>
<circle r="13.4538" transform="matrix(-1 0 0 1 464.766 110.078)" stroke="#3E3E3E" stroke-width="0.656283"/>
<circle cx="79.076" cy="59.8728" r="13.4538" stroke="#3E3E3E" stroke-width="0.656283"/>
<circle cx="199.504" cy="128.126" r="4.92212" stroke="#3E3E3E" stroke-width="0.656283"/>
<circle cx="225.427" cy="128.126" r="4.92212" stroke="#3E3E3E" stroke-width="0.656283"/>
<rect x="63.9813" y="92.0413" width="11.8131" height="41.3308" fill="white"/>
<path fill-rule="evenodd" clip-rule="evenodd" d="M51.9881 134.029C64.3047 134.029 73.1488 123.464 73.1488 112.7C73.1488 102.532 64.3636 91.3704 51.9881 91.3704C40.1528 91.3704 31.167 100.92 31.167 112.7C31.167 124.479 40.1528 134.029 51.9881 134.029ZM53.2848 123.247C59.353 123.247 63.9814 118.727 63.9814 112.699C63.9814 106.672 59.353 102.151 53.2848 102.151C47.2166 102.151 42.517 106.874 42.517 112.699C42.517 118.525 47.2166 123.247 53.2848 123.247Z" fill="white"/>
<path fill-rule="evenodd" clip-rule="evenodd" d="M123.249 103.564L112.431 108.59C111.051 105.481 108.141 102.98 104.207 102.98C98.6121 102.98 94.2796 107.334 94.2796 112.704C94.2796 118.075 98.6121 122.429 104.207 122.429C108.231 122.429 111.184 120.175 112.523 116.911L123.318 122.001C120.001 129.122 112.885 134.032 104.015 134.032C92.0704 134.032 82.6856 124.483 82.6856 112.703C82.6856 100.923 92.497 91.3738 104.015 91.3738C112.335 91.3738 119.765 96.357 123.249 103.564Z" fill="white"/>
<rect x="129.938" y="92.0332" width="11.8131" height="41.3456" fill="white"/>
<path d="M156.189 108.113L168.003 107.128V133.38H156.189V108.113Z" fill="white"/>
<path d="M182.441 108.113L194.254 107.128V133.38H182.441V108.113Z" fill="white"/>
<path d="M152.338 91.3743C162.792 91.3743 168.002 99.3836 168.002 107.781L156.189 109.978C156.189 106.346 152.908 103.077 148.97 103.077C145.032 103.077 141.751 106.471 141.751 110.409L138.622 105.993C137.391 103.077 141.853 91.3743 152.338 91.3743Z" fill="white"/>
<path d="M178.59 91.3743C189.043 91.3743 194.254 99.3836 194.254 107.781L182.44 109.978C182.44 106.346 179.159 103.077 175.221 103.077C171.284 103.077 168.002 106.471 168.002 110.409L164.873 105.993C163.642 103.077 168.105 91.3743 178.59 91.3743Z" fill="white"/>
<path d="M178.59 91.3743C189.044 91.3743 194.254 99.3836 194.254 107.781L182.441 108.766C182.441 105.134 179.159 102.203 175.221 102.203C171.284 102.203 168.002 104.828 168.002 108.766L162.096 102.531C164.721 96.6245 168.105 91.3743 178.59 91.3743Z" fill="white"/>
<circle cx="212.451" cy="125.649" r="7.69621" fill="white"/>
</g>
<defs>
<clipPath id="clip0">
<rect width="474.821" height="131.257" fill="white" transform="translate(3.72632 180.21)"/>
</clipPath>
<clipPath id="clip1">
<rect width="474.821" height="131.257" fill="white" transform="translate(3.72632 310.047)"/>
</clipPath>
<clipPath id="clip2">
<rect width="474.821" height="131.257" fill="white" transform="translate(3.72632 46.0964)"/>
</clipPath>
</defs>
</svg>
