<svg width="486" height="477" viewBox="0 0 486 477" fill="none" xmlns="http://www.w3.org/2000/svg">
<rect x="0.564453" y="0.675293" width="484.5" height="476.181" rx="10.6356" fill="#F7F7F7"/>
<g clip-path="url(#clip0_2642:4102)">
<line x1="-17.832" y1="201.964" x2="605.419" y2="201.964" stroke="#4A4A4A" stroke-width="1.27627"/>
<line x1="-17.832" y1="199.307" x2="605.419" y2="199.307" stroke="#636363" stroke-width="1.27627"/>
<line x1="146.592" y1="171.706" x2="146.592" y2="312.901" stroke="#636363" stroke-width="1.27627"/>
<line x1="159.881" y1="171.706" x2="159.881" y2="312.901" stroke="#636363" stroke-width="1.27627"/>
<line y1="-0.638134" x2="141.195" y2="-0.638134" transform="matrix(-4.37114e-08 1 1 4.37114e-08 454.05 171.706)" stroke="#636363" stroke-width="1.27627"/>
<line x1="14.3676" y1="171.706" x2="14.3676" y2="312.901" stroke="#636363" stroke-width="1.27627"/>
<line x1="325.661" y1="171.706" x2="325.661" y2="312.901" stroke="#636363" stroke-width="1.27627"/>
<line x1="335.627" y1="171.706" x2="335.627" y2="312.901" stroke="#636363" stroke-width="1.27627"/>
<line x1="351.906" y1="171.706" x2="351.906" y2="312.901" stroke="#636363" stroke-width="1.27627"/>
<line x1="361.873" y1="171.706" x2="361.873" y2="312.901" stroke="#636363" stroke-width="1.27627"/>
<line x1="-17.832" y1="262.429" x2="605.419" y2="262.429" stroke="#636363" stroke-width="1.27627"/>
<line x1="-17.832" y1="263.094" x2="605.419" y2="263.094" stroke="#4A4A4A" stroke-width="1.27627"/>
<line x1="-17.832" y1="283.027" x2="605.419" y2="283.027" stroke="#636363" stroke-width="1.27627"/>
<line x1="-17.832" y1="279.704" x2="605.419" y2="279.704" stroke="#4A4A4A" stroke-width="1.27627"/>
<line x1="-16.8359" y1="220.569" x2="606.415" y2="220.569" stroke="#636363" stroke-width="1.27627"/>
<circle cx="159.907" cy="293.632" r="13.3152" stroke="#636363" stroke-width="1.27627"/>
<circle r="13.3152" transform="matrix(-1 0 0 1 467.339 241.14)" stroke="#636363" stroke-width="1.27627"/>
<circle cx="7.41712" cy="242.137" r="6.33856" stroke="#636363" stroke-width="1.27627"/>
<circle cx="159.907" cy="188.649" r="13.3152" stroke="#636363" stroke-width="1.27627"/>
<circle cx="317.714" cy="257.752" r="4.67744" stroke="#636363" stroke-width="1.27627"/>
<circle cx="343.959" cy="257.752" r="4.67744" stroke="#636363" stroke-width="1.27627"/>
<rect x="193.129" y="221.218" width="11.96" height="41.8449" fill="#4D4D4D"/>
<path fill-rule="evenodd" clip-rule="evenodd" d="M180.987 263.728C193.457 263.728 202.411 253.032 202.411 242.133C202.411 231.839 193.517 220.539 180.987 220.539C169.005 220.539 159.907 230.207 159.907 242.133C159.907 254.059 169.005 263.728 180.987 263.728ZM182.3 252.813C188.443 252.813 193.129 248.236 193.129 242.133C193.129 236.031 188.443 231.454 182.3 231.454C176.156 231.454 171.398 236.235 171.398 242.133C171.398 248.031 176.156 252.813 182.3 252.813Z" fill="#4D4D4D"/>
<path fill-rule="evenodd" clip-rule="evenodd" d="M253.134 232.885L242.182 237.972C240.785 234.825 237.839 232.292 233.855 232.292C228.191 232.292 223.805 236.7 223.805 242.138C223.805 247.575 228.191 251.983 233.855 251.983C237.93 251.983 240.919 249.702 242.275 246.397L253.204 251.55C249.847 258.761 242.642 263.732 233.661 263.732C221.568 263.732 212.066 254.064 212.066 242.137C212.066 230.211 222 220.543 233.661 220.543C242.084 220.543 249.606 225.588 253.134 232.885Z" fill="#4D4D4D"/>
<rect x="259.906" y="221.21" width="11.96" height="41.8599" fill="#4D4D4D"/>
<path d="M286.484 237.489L298.444 236.492V263.07H286.484V237.489Z" fill="#4D4D4D"/>
<path d="M313.062 237.489L325.022 236.492V263.07H313.062V237.489Z" fill="#4D4D4D"/>
<path d="M282.585 220.542C293.169 220.542 298.444 228.651 298.444 237.154L286.484 239.377C286.484 235.701 283.162 232.391 279.175 232.391C275.188 232.391 271.866 235.827 271.866 239.814L268.698 235.343C267.452 232.391 271.97 220.542 282.585 220.542Z" fill="#4D4D4D"/>
<path d="M309.163 220.542C319.747 220.542 325.022 228.651 325.022 237.154L313.062 239.377C313.062 235.701 309.74 232.391 305.753 232.391C301.766 232.391 298.444 235.827 298.444 239.814L295.276 235.343C294.03 232.391 298.548 220.542 309.163 220.542Z" fill="#4D4D4D"/>
<path d="M309.163 220.542C319.747 220.542 325.022 228.651 325.022 237.154L313.062 238.15C313.062 234.474 309.74 231.506 305.753 231.506C301.767 231.506 298.444 234.164 298.444 238.15L292.464 231.838C295.122 225.858 298.548 220.542 309.163 220.542Z" fill="#4D4D4D"/>
<circle cx="343.445" cy="255.245" r="7.79194" fill="#4D4D4D"/>
<circle cx="80.1537" cy="241.141" r="66.1125" stroke="#4A4A4A" stroke-width="0.664447"/>
<rect x="80.1523" y="175.165" width="93.3025" height="93.3025" transform="rotate(45 80.1523 175.165)" stroke="#4A4A4A" stroke-width="0.664447"/>
<circle cx="20.3525" cy="241.14" r="6.31224" stroke="#4A4A4A" stroke-width="0.664447"/>
<circle cx="33.6415" cy="241.14" r="6.31224" stroke="#4A4A4A" stroke-width="0.664447"/>
<circle cx="46.9306" cy="241.14" r="6.31224" stroke="#4A4A4A" stroke-width="0.664447"/>
<circle cx="60.2197" cy="241.14" r="6.31224" stroke="#4A4A4A" stroke-width="0.664447"/>
<circle cx="73.5078" cy="241.14" r="6.31224" stroke="#4A4A4A" stroke-width="0.664447"/>
<circle cx="73.5078" cy="241.14" r="6.31224" stroke="#4A4A4A" stroke-width="0.664447"/>
<circle cx="80.1522" cy="241.14" r="12.9567" stroke="#4A4A4A" stroke-width="0.664447"/>
<circle cx="80.1531" cy="212.237" r="26.2456" stroke="#4A4A4A" stroke-width="0.664447"/>
<circle cx="80.1531" cy="241.14" r="26.2456" stroke="#4A4A4A" stroke-width="0.664447"/>
<circle cx="80.1529" cy="241.14" r="39.5346" stroke="#4A4A4A" stroke-width="0.664447"/>
<circle cx="80.1528" cy="241.14" r="52.8235" stroke="#4A4A4A" stroke-width="0.664447"/>
<mask id="path-47-inside-1_2642:4102" fill="white">
<path d="M145.933 227.187C147.765 227.187 149.58 227.547 151.273 228.249C152.966 228.95 154.504 229.978 155.799 231.273C157.095 232.569 158.123 234.107 158.824 235.8C159.525 237.493 159.886 239.308 159.886 241.14C159.886 242.972 159.525 244.787 158.824 246.48C158.123 248.173 157.095 249.711 155.799 251.006C154.504 252.302 152.966 253.33 151.273 254.031C149.58 254.732 147.765 255.093 145.933 255.093L145.933 241.14L145.933 227.187Z"/>
</mask>
<path d="M145.933 227.187C147.765 227.187 149.58 227.547 151.273 228.249C152.966 228.95 154.504 229.978 155.799 231.273C157.095 232.569 158.123 234.107 158.824 235.8C159.525 237.493 159.886 239.308 159.886 241.14C159.886 242.972 159.525 244.787 158.824 246.48C158.123 248.173 157.095 249.711 155.799 251.006C154.504 252.302 152.966 253.33 151.273 254.031C149.58 254.732 147.765 255.093 145.933 255.093L145.933 241.14L145.933 227.187Z" stroke="#636363" stroke-width="1.32889" mask="url(#path-47-inside-1_2642:4102)"/>
<rect x="80.1738" y="175.166" width="93.3025" height="93.3025" rx="26.2456" transform="rotate(45 80.1738 175.166)" stroke="#4D4D4D" stroke-width="0.664447"/>
</g>
<rect x="0.896677" y="175.034" width="480.063" height="132.225" stroke="#D9D9D9" stroke-width="0.664447"/>
<g opacity="0.22">
<g clip-path="url(#clip1_2642:4102)">
<line x1="-17.832" y1="334.837" x2="605.419" y2="334.837" stroke="#4A4A4A" stroke-width="1.27627"/>
<line x1="-17.832" y1="332.179" x2="605.419" y2="332.18" stroke="#636363" stroke-width="1.27627"/>
<line x1="146.592" y1="304.579" x2="146.592" y2="445.774" stroke="#636363" stroke-width="1.27627"/>
<line x1="159.881" y1="304.579" x2="159.881" y2="445.774" stroke="#636363" stroke-width="1.27627"/>
<line y1="-0.638134" x2="141.195" y2="-0.638134" transform="matrix(-4.37114e-08 1 1 4.37114e-08 454.05 304.579)" stroke="#636363" stroke-width="1.27627"/>
<line x1="14.3676" y1="304.579" x2="14.3676" y2="445.774" stroke="#636363" stroke-width="1.27627"/>
<line x1="325.661" y1="304.579" x2="325.661" y2="445.774" stroke="#636363" stroke-width="1.27627"/>
<line x1="335.627" y1="304.579" x2="335.627" y2="445.774" stroke="#636363" stroke-width="1.27627"/>
<line x1="351.906" y1="304.579" x2="351.906" y2="445.774" stroke="#636363" stroke-width="1.27627"/>
<line x1="361.873" y1="304.579" x2="361.873" y2="445.774" stroke="#636363" stroke-width="1.27627"/>
<line x1="-17.832" y1="395.302" x2="605.419" y2="395.302" stroke="#636363" stroke-width="1.27627"/>
<line x1="-17.832" y1="395.967" x2="605.419" y2="395.967" stroke="#4A4A4A" stroke-width="1.27627"/>
<line x1="-17.832" y1="415.9" x2="605.419" y2="415.9" stroke="#636363" stroke-width="1.27627"/>
<line x1="-17.832" y1="412.577" x2="605.419" y2="412.577" stroke="#4A4A4A" stroke-width="1.27627"/>
<line x1="-16.8359" y1="353.442" x2="606.415" y2="353.442" stroke="#636363" stroke-width="1.27627"/>
<circle cx="159.907" cy="426.505" r="13.3152" stroke="#636363" stroke-width="1.27627"/>
<circle r="13.3152" transform="matrix(-1 0 0 1 467.339 374.014)" stroke="#636363" stroke-width="1.27627"/>
<circle cx="7.41712" cy="375.01" r="6.33856" stroke="#636363" stroke-width="1.27627"/>
<circle cx="159.907" cy="321.522" r="13.3152" stroke="#636363" stroke-width="1.27627"/>
<circle cx="317.714" cy="390.624" r="4.67744" stroke="#636363" stroke-width="1.27627"/>
<circle cx="343.959" cy="390.624" r="4.67744" stroke="#636363" stroke-width="1.27627"/>
<rect x="193.129" y="354.092" width="11.96" height="41.8449" fill="white"/>
<path fill-rule="evenodd" clip-rule="evenodd" d="M180.987 396.601C193.457 396.601 202.411 385.905 202.411 375.006C202.411 364.712 193.517 353.412 180.987 353.412C169.005 353.412 159.907 363.08 159.907 375.006C159.907 386.932 169.005 396.601 180.987 396.601ZM182.3 385.686C188.443 385.686 193.129 381.109 193.129 375.006C193.129 368.904 188.443 364.327 182.3 364.327C176.156 364.327 171.398 369.108 171.398 375.006C171.398 380.904 176.156 385.686 182.3 385.686Z" fill="white"/>
<path fill-rule="evenodd" clip-rule="evenodd" d="M253.134 365.758L242.182 370.845C240.785 367.698 237.839 365.165 233.855 365.165C228.191 365.165 223.805 369.573 223.805 375.011C223.805 380.448 228.191 384.856 233.855 384.856C237.93 384.856 240.919 382.575 242.275 379.27L253.204 384.423C249.847 391.634 242.642 396.605 233.661 396.605C221.568 396.605 212.066 386.937 212.066 375.01C212.066 363.084 222 353.416 233.661 353.416C242.084 353.416 249.606 358.461 253.134 365.758Z" fill="white"/>
<rect x="259.906" y="354.083" width="11.96" height="41.8599" fill="white"/>
<path d="M286.484 370.362L298.444 369.365V395.943H286.484V370.362Z" fill="white"/>
<path d="M313.062 370.362L325.022 369.365V395.943H313.062V370.362Z" fill="white"/>
<path d="M282.585 353.416C293.169 353.416 298.444 361.525 298.444 370.027L286.484 372.251C286.484 368.574 283.162 365.264 279.175 365.264C275.188 365.264 271.866 368.701 271.866 372.687L268.698 368.217C267.452 365.264 271.97 353.416 282.585 353.416Z" fill="white"/>
<path d="M309.163 353.416C319.747 353.416 325.022 361.525 325.022 370.027L313.062 372.251C313.062 368.574 309.74 365.264 305.753 365.264C301.766 365.264 298.444 368.701 298.444 372.687L295.276 368.217C294.03 365.264 298.548 353.416 309.163 353.416Z" fill="white"/>
<path d="M309.163 353.416C319.747 353.416 325.022 361.525 325.022 370.027L313.062 371.024C313.062 367.347 309.74 364.379 305.753 364.379C301.767 364.379 298.444 367.037 298.444 371.024L292.464 364.711C295.122 358.731 298.548 353.416 309.163 353.416Z" fill="white"/>
<circle cx="343.445" cy="388.118" r="7.79194" fill="white"/>
<circle cx="80.1537" cy="374.014" r="66.1125" stroke="#4A4A4A" stroke-width="0.664447"/>
<rect x="80.1523" y="308.038" width="93.3025" height="93.3025" transform="rotate(45 80.1523 308.038)" stroke="#4A4A4A" stroke-width="0.664447"/>
<circle cx="20.3525" cy="374.013" r="6.31224" stroke="#4A4A4A" stroke-width="0.664447"/>
<circle cx="33.6415" cy="374.013" r="6.31224" stroke="#4A4A4A" stroke-width="0.664447"/>
<circle cx="46.9306" cy="374.013" r="6.31224" stroke="#4A4A4A" stroke-width="0.664447"/>
<circle cx="60.2197" cy="374.013" r="6.31224" stroke="#4A4A4A" stroke-width="0.664447"/>
<circle cx="73.5078" cy="374.013" r="6.31224" stroke="#4A4A4A" stroke-width="0.664447"/>
<circle cx="73.5078" cy="374.013" r="6.31224" stroke="#4A4A4A" stroke-width="0.664447"/>
<circle cx="80.1522" cy="374.013" r="12.9567" stroke="#4A4A4A" stroke-width="0.664447"/>
<circle cx="80.1531" cy="345.11" r="26.2456" stroke="#4A4A4A" stroke-width="0.664447"/>
<circle cx="80.1531" cy="374.013" r="26.2456" stroke="#4A4A4A" stroke-width="0.664447"/>
<circle cx="80.1529" cy="374.013" r="39.5346" stroke="#4A4A4A" stroke-width="0.664447"/>
<circle cx="80.1528" cy="374.013" r="52.8235" stroke="#4A4A4A" stroke-width="0.664447"/>
<mask id="path-94-inside-2_2642:4102" fill="white">
<path d="M145.933 360.06C147.765 360.06 149.58 360.421 151.273 361.122C152.966 361.823 154.504 362.851 155.799 364.147C157.095 365.442 158.123 366.981 158.824 368.673C159.525 370.366 159.886 372.181 159.886 374.013C159.886 375.846 159.525 377.66 158.824 379.353C158.123 381.046 157.095 382.584 155.799 383.88C154.504 385.175 152.966 386.203 151.273 386.904C149.58 387.606 147.765 387.967 145.933 387.967L145.933 374.013L145.933 360.06Z"/>
</mask>
<path d="M145.933 360.06C147.765 360.06 149.58 360.421 151.273 361.122C152.966 361.823 154.504 362.851 155.799 364.147C157.095 365.442 158.123 366.981 158.824 368.673C159.525 370.366 159.886 372.181 159.886 374.013C159.886 375.846 159.525 377.66 158.824 379.353C158.123 381.046 157.095 382.584 155.799 383.88C154.504 385.175 152.966 386.203 151.273 386.904C149.58 387.606 147.765 387.967 145.933 387.967L145.933 374.013L145.933 360.06Z" stroke="#636363" stroke-width="1.32889" mask="url(#path-94-inside-2_2642:4102)"/>
<rect x="80.1738" y="308.039" width="93.3025" height="93.3025" rx="26.2456" transform="rotate(45 80.1738 308.039)" stroke="white" stroke-width="0.664447"/>
</g>
<rect x="0.896677" y="307.907" width="480.063" height="132.225" stroke="#D9D9D9" stroke-width="0.664447"/>
</g>
<g opacity="0.22">
<g clip-path="url(#clip2_2642:4102)">
<line x1="-17.832" y1="70.6968" x2="605.419" y2="70.6968" stroke="#4A4A4A" stroke-width="1.27627"/>
<line x1="-17.832" y1="68.0396" x2="605.419" y2="68.0396" stroke="#636363" stroke-width="1.27627"/>
<line x1="146.592" y1="40.4385" x2="146.592" y2="181.633" stroke="#636363" stroke-width="1.27627"/>
<line x1="159.881" y1="40.4385" x2="159.881" y2="181.633" stroke="#636363" stroke-width="1.27627"/>
<line y1="-0.638134" x2="141.195" y2="-0.638134" transform="matrix(-4.37114e-08 1 1 4.37114e-08 454.05 40.4385)" stroke="#636363" stroke-width="1.27627"/>
<line x1="14.3676" y1="40.4385" x2="14.3676" y2="181.633" stroke="#636363" stroke-width="1.27627"/>
<line x1="325.661" y1="40.4385" x2="325.661" y2="181.633" stroke="#636363" stroke-width="1.27627"/>
<line x1="335.627" y1="40.4385" x2="335.627" y2="181.633" stroke="#636363" stroke-width="1.27627"/>
<line x1="351.906" y1="40.4385" x2="351.906" y2="181.633" stroke="#636363" stroke-width="1.27627"/>
<line x1="361.873" y1="40.4385" x2="361.873" y2="181.633" stroke="#636363" stroke-width="1.27627"/>
<line x1="-17.832" y1="131.162" x2="605.419" y2="131.162" stroke="#636363" stroke-width="1.27627"/>
<line x1="-17.832" y1="131.827" x2="605.419" y2="131.827" stroke="#4A4A4A" stroke-width="1.27627"/>
<line x1="-17.832" y1="151.76" x2="605.419" y2="151.76" stroke="#636363" stroke-width="1.27627"/>
<line x1="-17.832" y1="148.438" x2="605.419" y2="148.438" stroke="#4A4A4A" stroke-width="1.27627"/>
<line x1="-16.8359" y1="89.3018" x2="606.415" y2="89.3018" stroke="#636363" stroke-width="1.27627"/>
<circle cx="159.907" cy="162.365" r="13.3152" stroke="#636363" stroke-width="1.27627"/>
<circle r="13.3152" transform="matrix(-1 0 0 1 467.339 109.873)" stroke="#636363" stroke-width="1.27627"/>
<circle cx="7.41712" cy="110.87" r="6.33856" stroke="#636363" stroke-width="1.27627"/>
<circle cx="159.907" cy="57.3821" r="13.3152" stroke="#636363" stroke-width="1.27627"/>
<circle cx="317.714" cy="126.485" r="4.67744" stroke="#636363" stroke-width="1.27627"/>
<circle cx="343.959" cy="126.485" r="4.67744" stroke="#636363" stroke-width="1.27627"/>
<rect x="193.129" y="89.9512" width="11.96" height="41.8449" fill="white"/>
<path fill-rule="evenodd" clip-rule="evenodd" d="M180.987 132.461C193.457 132.461 202.411 121.765 202.411 110.866C202.411 100.572 193.517 89.2715 180.987 89.2715C169.005 89.2715 159.907 98.9397 159.907 110.866C159.907 122.792 169.005 132.461 180.987 132.461ZM182.3 121.545C188.443 121.545 193.129 116.968 193.129 110.866C193.129 104.764 188.443 100.187 182.3 100.187C176.156 100.187 171.398 104.968 171.398 110.866C171.398 116.764 176.156 121.545 182.3 121.545Z" fill="white"/>
<path fill-rule="evenodd" clip-rule="evenodd" d="M253.134 101.618L242.182 106.705C240.785 103.558 237.839 101.025 233.855 101.025C228.191 101.025 223.805 105.433 223.805 110.871C223.805 116.308 228.191 120.716 233.855 120.716C237.93 120.716 240.919 118.435 242.275 115.13L253.204 120.283C249.847 127.494 242.642 132.465 233.661 132.465C221.568 132.465 212.066 122.797 212.066 110.87C212.066 98.9441 222 89.2759 233.661 89.2759C242.084 89.2759 249.606 94.3208 253.134 101.618Z" fill="white"/>
<rect x="259.906" y="89.9429" width="11.96" height="41.8599" fill="white"/>
<path d="M286.484 106.222L298.444 105.225V131.803H286.484V106.222Z" fill="white"/>
<path d="M313.062 106.222L325.022 105.225V131.803H313.062V106.222Z" fill="white"/>
<path d="M282.585 89.2754C293.169 89.2754 298.444 97.3844 298.444 105.887L286.484 108.11C286.484 104.434 283.162 101.124 279.175 101.124C275.188 101.124 271.866 104.56 271.866 108.547L268.698 104.076C267.452 101.124 271.97 89.2754 282.585 89.2754Z" fill="white"/>
<path d="M309.163 89.2754C319.747 89.2754 325.022 97.3844 325.022 105.887L313.062 108.11C313.062 104.434 309.74 101.124 305.753 101.124C301.766 101.124 298.444 104.56 298.444 108.547L295.276 104.076C294.03 101.124 298.548 89.2754 309.163 89.2754Z" fill="white"/>
<path d="M309.163 89.2754C319.747 89.2754 325.022 97.3844 325.022 105.887L313.062 106.883C313.062 103.207 309.74 100.239 305.753 100.239C301.767 100.239 298.444 102.897 298.444 106.883L292.464 100.571C295.122 94.591 298.548 89.2754 309.163 89.2754Z" fill="white"/>
<circle cx="343.445" cy="123.978" r="7.79194" fill="white"/>
<circle cx="80.1537" cy="109.874" r="66.1125" stroke="#4A4A4A" stroke-width="0.664447"/>
<rect x="80.1523" y="43.8981" width="93.3025" height="93.3025" transform="rotate(45 80.1523 43.8981)" stroke="#4A4A4A" stroke-width="0.664447"/>
<circle cx="20.3525" cy="109.873" r="6.31224" stroke="#4A4A4A" stroke-width="0.664447"/>
<circle cx="33.6415" cy="109.873" r="6.31224" stroke="#4A4A4A" stroke-width="0.664447"/>
<circle cx="46.9306" cy="109.873" r="6.31224" stroke="#4A4A4A" stroke-width="0.664447"/>
<circle cx="60.2197" cy="109.873" r="6.31224" stroke="#4A4A4A" stroke-width="0.664447"/>
<circle cx="73.5078" cy="109.873" r="6.31224" stroke="#4A4A4A" stroke-width="0.664447"/>
<circle cx="73.5078" cy="109.873" r="6.31224" stroke="#4A4A4A" stroke-width="0.664447"/>
<circle cx="80.1522" cy="109.872" r="12.9567" stroke="#4A4A4A" stroke-width="0.664447"/>
<circle cx="80.1531" cy="80.97" r="26.2456" stroke="#4A4A4A" stroke-width="0.664447"/>
<circle cx="80.1531" cy="109.873" r="26.2456" stroke="#4A4A4A" stroke-width="0.664447"/>
<circle cx="80.1529" cy="109.873" r="39.5346" stroke="#4A4A4A" stroke-width="0.664447"/>
<circle cx="80.1528" cy="109.873" r="52.8235" stroke="#4A4A4A" stroke-width="0.664447"/>
<mask id="path-141-inside-3_2642:4102" fill="white">
<path d="M145.933 95.9194C147.765 95.9194 149.58 96.2803 151.273 96.9816C152.966 97.6828 154.504 98.7106 155.799 100.006C157.095 101.302 158.123 102.84 158.824 104.533C159.525 106.226 159.886 108.04 159.886 109.873C159.886 111.705 159.525 113.52 158.824 115.213C158.123 116.905 157.095 118.444 155.799 119.739C154.504 121.035 152.966 122.063 151.273 122.764C149.58 123.465 147.765 123.826 145.933 123.826L145.933 109.873L145.933 95.9194Z"/>
</mask>
<path d="M145.933 95.9194C147.765 95.9194 149.58 96.2803 151.273 96.9816C152.966 97.6828 154.504 98.7106 155.799 100.006C157.095 101.302 158.123 102.84 158.824 104.533C159.525 106.226 159.886 108.04 159.886 109.873C159.886 111.705 159.525 113.52 158.824 115.213C158.123 116.905 157.095 118.444 155.799 119.739C154.504 121.035 152.966 122.063 151.273 122.764C149.58 123.465 147.765 123.826 145.933 123.826L145.933 109.873L145.933 95.9194Z" stroke="#636363" stroke-width="1.32889" mask="url(#path-141-inside-3_2642:4102)"/>
<rect x="80.1738" y="43.8985" width="93.3025" height="93.3025" rx="26.2456" transform="rotate(45 80.1738 43.8985)" stroke="white" stroke-width="0.664447"/>
</g>
<rect x="0.896677" y="43.7673" width="480.063" height="132.225" stroke="#D9D9D9" stroke-width="0.664447"/>
</g>
<defs>
<clipPath id="clip0_2642:4102">
</clipPath>
<clipPath id="clip1_2642:4102">
</clipPath>
<clipPath id="clip2_2642:4102">
</clipPath>
</defs>
</svg>
