<svg width="480" height="559" viewBox="0 0 480 559" fill="none" xmlns="http://www.w3.org/2000/svg">
<path d="M0.499756 137.586C0.499756 132.063 4.97691 127.586 10.4998 127.586H212C217.523 127.586 222 132.063 222 137.586V190.44C222 195.963 217.523 200.44 212 200.44H10.4997C4.9769 200.44 0.499756 195.963 0.499756 190.44V137.586Z" fill="#DCFFDD"/>
<path d="M0.499756 53.208C0.499756 47.6852 4.97691 43.208 10.4998 43.208H212C217.523 43.208 222 47.6852 222 53.208V106.062C222 111.585 217.523 116.062 212 116.062H10.4998C4.97691 116.062 0.499756 111.585 0.499756 106.062V53.208Z" fill="#DCFFDD"/>
<path d="M0.499756 355.982C0.499756 350.46 4.97691 345.982 10.4998 345.982H212C217.523 345.982 222 350.46 222 355.982V408.837C222 414.359 217.523 418.837 212 418.837H10.4997C4.9769 418.837 0.499756 414.359 0.499756 408.837V355.982Z" fill="#DCFFDD"/>
<path d="M0.499756 227.419C0.499756 221.896 4.97691 217.419 10.4998 217.419H212C217.523 217.419 222 221.896 222 227.419V280.273C222 285.796 217.523 290.273 212 290.273H10.4997C4.9769 290.273 0.499756 285.796 0.499756 280.273V227.419Z" fill="#DCFFDD"/>
<path d="M0.499756 495.662C0.499756 490.139 4.97691 485.662 10.4998 485.662H212C217.523 485.662 222 490.139 222 495.662V548.516C222 554.039 217.523 558.516 212 558.516H10.4997C4.9769 558.516 0.499756 554.039 0.499756 548.516V495.662Z" fill="#DCFFDD"/>
<path d="M261.073 136.27C261.073 130.747 265.55 126.27 271.073 126.27H469.224C474.747 126.27 479.224 130.747 479.224 136.27V189.124C479.224 194.647 474.747 199.124 469.224 199.124H271.073C265.55 199.124 261.073 194.647 261.073 189.124V136.27Z" fill="#FFDCDC"/>
<path d="M261.073 51.5889C261.073 46.066 265.55 41.5889 271.073 41.5889H469.224C474.747 41.5889 479.224 46.066 479.224 51.5889V102.01C479.224 107.533 474.747 112.01 469.224 112.01H271.073C265.55 112.01 261.073 107.533 261.073 102.01V51.5889Z" fill="#FFDCDC"/>
<path d="M261.073 354.363C261.073 348.84 265.55 344.363 271.073 344.363H469.224C474.747 344.363 479.224 348.84 479.224 354.363V404.785C479.224 410.308 474.747 414.785 469.224 414.785H271.073C265.55 414.785 261.073 410.308 261.073 404.785V354.363Z" fill="#FFDCDC"/>
<path d="M261.073 225.8C261.073 220.277 265.55 215.8 271.073 215.8H469.224C474.747 215.8 479.224 220.277 479.224 225.8V276.221C479.224 281.744 474.747 286.221 469.224 286.221H271.073C265.55 286.221 261.073 281.744 261.073 276.221V225.8Z" fill="#FFDCDC"/>
<path d="M261.073 494.043C261.073 488.52 265.55 484.043 271.073 484.043H469.224C474.747 484.043 479.224 488.52 479.224 494.043V548.516C479.224 554.039 474.747 558.516 469.224 558.516H271.073C265.55 558.516 261.073 554.039 261.073 548.516V494.043Z" fill="#FFDCDC"/>
<rect x="367.737" y="46" width="43.4682" height="43.4682" rx="14.0039" transform="rotate(45 367.737 46)" fill="#1E6CFF"/>
<rect x="357.397" y="72.3574" width="2.50409" height="8.76113" fill="white"/>
<path fill-rule="evenodd" clip-rule="evenodd" d="M354.855 81.2575C357.466 81.2575 359.341 79.0181 359.341 76.7362C359.341 74.5809 357.479 72.215 354.855 72.215C352.347 72.215 350.442 74.2392 350.442 76.7362C350.442 79.2333 352.347 81.2575 354.855 81.2575ZM355.13 78.9722C356.416 78.9722 357.398 78.0139 357.398 76.7363C357.398 75.4586 356.416 74.5004 355.13 74.5004C353.844 74.5004 352.848 75.5014 352.848 76.7363C352.848 77.9711 353.844 78.9722 355.13 78.9722Z" fill="white"/>
<path fill-rule="evenodd" clip-rule="evenodd" d="M369.961 74.8L367.668 75.8653C367.375 75.2064 366.758 74.6761 365.924 74.6761C364.738 74.6761 363.82 75.599 363.82 76.7374C363.82 77.8758 364.738 78.7987 365.924 78.7987C366.777 78.7987 367.403 78.3211 367.687 77.6291L369.975 78.7081C369.272 80.2177 367.764 81.2585 365.884 81.2585C363.352 81.2585 361.362 79.2342 361.362 76.7372C361.362 74.2401 363.442 72.2159 365.884 72.2159C367.647 72.2159 369.222 73.2722 369.961 74.8Z" fill="white"/>
<rect x="371.379" y="72.3557" width="2.50409" height="8.76426" fill="white"/>
<path d="M376.943 75.764L379.447 75.5553V81.12H376.943V75.764Z" fill="white"/>
<path d="M382.508 75.764L385.012 75.5553V81.12H382.508V75.764Z" fill="white"/>
<path d="M376.127 72.216C378.343 72.216 379.448 73.9137 379.448 75.6939L376.943 76.1594C376.943 75.3896 376.248 74.6967 375.413 74.6967C374.578 74.6967 373.883 75.4161 373.883 76.2508L373.22 75.3148C372.959 74.6967 373.905 72.216 376.127 72.216Z" fill="white"/>
<path d="M381.692 72.216C383.908 72.216 385.012 73.9137 385.012 75.6939L382.508 76.1594C382.508 75.3896 381.812 74.6967 380.978 74.6967C380.143 74.6967 379.447 75.4161 379.447 76.2508L378.784 75.3148C378.523 74.6967 379.469 72.216 381.692 72.216Z" fill="white"/>
<path d="M381.692 72.216C383.908 72.216 385.012 73.9137 385.012 75.6939L382.508 75.9025C382.508 75.1328 381.812 74.5114 380.978 74.5114C380.143 74.5114 379.447 75.0678 379.447 75.9025L378.195 74.5809C378.752 73.3289 379.469 72.216 381.692 72.216Z" fill="white"/>
<rect x="338.791" y="492" width="43.5453" height="43.5453" rx="14.0039" transform="rotate(45 338.791 492)" fill="#1E6CFF"/>
<rect x="328.434" y="518.404" width="2.50853" height="8.77667" fill="white"/>
<path fill-rule="evenodd" clip-rule="evenodd" d="M325.887 527.32C328.502 527.32 330.381 525.077 330.381 522.791C330.381 520.632 328.515 518.261 325.887 518.261C323.374 518.261 321.466 520.289 321.466 522.791C321.466 525.292 323.374 527.32 325.887 527.32ZM326.162 525.031C327.451 525.031 328.434 524.071 328.434 522.791C328.434 521.511 327.451 520.551 326.162 520.551C324.874 520.551 323.876 521.554 323.876 522.791C323.876 524.028 324.874 525.031 326.162 525.031Z" fill="white"/>
<path fill-rule="evenodd" clip-rule="evenodd" d="M341.019 520.851L338.722 521.918C338.429 521.258 337.811 520.727 336.976 520.727C335.788 520.727 334.867 521.651 334.867 522.792C334.867 523.932 335.788 524.857 336.976 524.857C337.83 524.857 338.457 524.378 338.742 523.685L341.034 524.766C340.33 526.278 338.818 527.321 336.935 527.321C334.398 527.321 332.406 525.293 332.406 522.792C332.406 520.29 334.489 518.262 336.935 518.262C338.702 518.262 340.279 519.321 341.019 520.851Z" fill="white"/>
<rect x="342.44" y="518.402" width="2.50853" height="8.77981" fill="white"/>
<path d="M348.014 521.817L350.523 521.608V527.182H348.014V521.817Z" fill="white"/>
<path d="M353.589 521.817L356.097 521.608V527.182H353.589V521.817Z" fill="white"/>
<path d="M347.197 518.262C349.416 518.262 350.523 519.963 350.523 521.746L348.014 522.213C348.014 521.442 347.317 520.748 346.481 520.748C345.645 520.748 344.948 521.468 344.948 522.304L344.284 521.367C344.022 520.748 344.97 518.262 347.197 518.262Z" fill="white"/>
<path d="M352.771 518.262C354.991 518.262 356.097 519.963 356.097 521.746L353.589 522.213C353.589 521.442 352.892 520.748 352.056 520.748C351.22 520.748 350.523 521.468 350.523 522.304L349.858 521.367C349.597 520.748 350.545 518.262 352.771 518.262Z" fill="white"/>
<path d="M352.771 518.262C354.991 518.262 356.097 519.963 356.097 521.746L353.589 521.956C353.589 521.184 352.892 520.562 352.056 520.562C351.22 520.562 350.523 521.119 350.523 521.956L349.268 520.632C349.826 519.377 350.545 518.262 352.771 518.262Z" fill="white"/>
<rect x="87.9095" y="151.204" width="5.99431" height="20.9724" fill="black"/>
<path fill-rule="evenodd" clip-rule="evenodd" d="M81.8237 172.509C88.0735 172.509 92.5613 167.149 92.5613 161.686C92.5613 156.527 88.1034 150.863 81.8237 150.863C75.8182 150.863 71.2585 155.709 71.2585 161.686C71.2585 167.664 75.8182 172.509 81.8237 172.509ZM82.4817 167.038C85.5609 167.038 87.9095 164.745 87.9095 161.686C87.9095 158.628 85.5609 156.334 82.4817 156.334C79.4025 156.334 77.0178 158.73 77.0178 161.686C77.0178 164.642 79.4025 167.038 82.4817 167.038Z" fill="black"/>
<path fill-rule="evenodd" clip-rule="evenodd" d="M117.983 157.051L112.494 159.601C111.794 158.023 110.318 156.754 108.321 156.754C105.482 156.754 103.284 158.963 103.284 161.688C103.284 164.414 105.482 166.623 108.321 166.623C110.363 166.623 111.861 165.479 112.541 163.823L118.019 166.406C116.336 170.02 112.725 172.511 108.224 172.511C102.163 172.511 97.4005 167.666 97.4005 161.688C97.4005 155.711 102.379 150.865 108.224 150.865C112.445 150.865 116.215 153.394 117.983 157.051Z" fill="black"/>
<rect x="121.378" y="151.2" width="5.99431" height="20.9799" fill="black"/>
<path d="M134.699 159.359L140.693 158.859V172.18H134.699V159.359Z" fill="black"/>
<path d="M148.019 159.359L154.013 158.859V172.18H148.019V159.359Z" fill="black"/>
<path d="M132.744 150.865C138.049 150.865 140.693 154.929 140.693 159.191L134.698 160.305C134.698 158.462 133.033 156.804 131.035 156.804C129.037 156.804 127.372 158.526 127.372 160.524L125.784 158.283C125.16 156.804 127.424 150.865 132.744 150.865Z" fill="black"/>
<path d="M146.065 150.865C151.37 150.865 154.013 154.929 154.013 159.191L148.019 160.305C148.019 158.462 146.354 156.804 144.356 156.804C142.358 156.804 140.693 158.526 140.693 160.524L139.105 158.283C138.48 156.804 140.745 150.865 146.065 150.865Z" fill="black"/>
<path d="M146.065 150.865C151.37 150.865 154.013 154.929 154.013 159.191L148.019 159.69C148.019 157.847 146.354 156.36 144.356 156.36C142.358 156.36 140.693 157.692 140.693 159.69L137.695 156.526C139.028 153.529 140.745 150.865 146.065 150.865Z" fill="black"/>
<rect x="79.6275" y="177.84" width="1.87387" height="6.55616" fill="black"/>
<path fill-rule="evenodd" clip-rule="evenodd" d="M77.725 184.5C79.6788 184.5 81.0817 182.824 81.0817 181.117C81.0817 179.504 79.6881 177.733 77.725 177.733C75.8476 177.733 74.4222 179.248 74.4222 181.117C74.4222 182.985 75.8476 184.5 77.725 184.5ZM77.9306 182.79C78.8932 182.79 79.6274 182.073 79.6274 181.117C79.6274 180.161 78.8932 179.443 77.9306 179.443C76.968 179.443 76.2225 180.193 76.2225 181.117C76.2225 182.041 76.968 182.79 77.9306 182.79Z" fill="black"/>
<path d="M84.2469 182.438L86.1208 182.174V175.952L84.2469 176.717L84.2469 182.438Z" fill="black"/>
<path d="M82.9975 177.842H87.6822V179.507H82.9975V177.842Z" fill="black"/>
<path d="M86.4331 184.396C84.4776 184.396 84.2469 183.188 84.2469 182.42C84.7817 182.098 85.746 182.004 86.1208 182.004C86.1208 182.37 86.381 182.736 86.9015 182.736H87.6823L87.6823 184.359C87.2138 184.396 87.0299 184.396 86.4331 184.396Z" fill="black"/>
<path fill-rule="evenodd" clip-rule="evenodd" d="M95.3289 175.733H93.4807V181.231H93.4835C93.5566 183.147 95.0931 184.396 97.0572 184.396V182.462C97.038 182.462 97.0188 182.463 96.9994 182.463V180.913H96.9987V182.463C96.0538 182.462 95.3287 182.05 95.3287 180.913L95.3289 180.881V175.733ZM97.0578 182.462C97.9786 182.445 98.6774 182.026 98.6774 180.913H98.678V175.733H100.633V180.999C100.634 181.028 100.634 181.057 100.634 181.087C100.634 181.117 100.634 181.146 100.633 181.176V181.231H100.631C100.558 183.146 99.0215 184.395 97.0578 184.395V182.462Z" fill="black"/>
<path d="M102.114 180.047C102.114 182.519 103.999 184.396 106.424 184.396V175.733C104.085 175.733 102.114 177.575 102.114 180.047Z" fill="black"/>
<path d="M110.619 180.064C110.619 182.934 108.85 184.396 106.424 184.396V175.733C108.763 175.733 110.619 177.195 110.619 180.064Z" fill="black"/>
<path d="M103.933 180.064C103.933 181.505 105.018 182.588 106.431 182.588V177.54C105.068 177.54 103.933 178.624 103.933 180.064Z" fill="#DCFFDD"/>
<path d="M109 180.064C109 181.595 107.844 182.588 106.431 182.588V177.54C107.794 177.54 109 178.533 109 180.064Z" fill="#DCFFDD"/>
<path d="M111.508 176.836L107.58 179.052L107.58 181.219L111.508 183.128L113.701 180.29L111.508 176.836Z" fill="#DCFFDD"/>
<path d="M111.13 175.733H112.99V184.306H111.13V175.733Z" fill="black"/>
<path d="M111.13 182.644H116.571V184.396H111.13V182.644Z" fill="black"/>
<path d="M120.782 175.724L122.259 175.724L122.188 176.754L119.319 184.395L117.527 184.395L120.782 175.724Z" fill="black"/>
<path d="M122.641 175.724L121.165 175.724L121.236 176.754L124.104 184.395L125.897 184.395L122.641 175.724Z" fill="black"/>
<path d="M120.993 175.724L122.469 175.724L122.399 176.754L119.53 184.395L117.737 184.395L120.993 175.724Z" fill="black"/>
<path d="M122.869 175.724L121.393 175.724L124.649 184.395L126.125 184.395L122.869 175.724Z" fill="black"/>
<path d="M119.242 181.542H124.336V183.111H119.242V181.542Z" fill="black"/>
<rect x="346.81" y="153.867" width="5.99431" height="20.9724" fill="black"/>
<path fill-rule="evenodd" clip-rule="evenodd" d="M340.724 175.172C346.974 175.172 351.462 169.811 351.462 164.349C351.462 159.189 347.004 153.526 340.724 153.526C334.719 153.526 330.159 158.372 330.159 164.349C330.159 170.326 334.719 175.172 340.724 175.172ZM341.382 169.701C344.461 169.701 346.81 167.407 346.81 164.349C346.81 161.29 344.461 158.996 341.382 158.996C338.303 158.996 335.918 161.393 335.918 164.349C335.918 167.305 338.303 169.701 341.382 169.701Z" fill="black"/>
<path fill-rule="evenodd" clip-rule="evenodd" d="M376.884 159.713L371.395 162.263C370.695 160.686 369.218 159.416 367.221 159.416C364.383 159.416 362.184 161.626 362.184 164.351C362.184 167.076 364.383 169.285 367.221 169.285C369.264 169.285 370.762 168.142 371.442 166.485L376.919 169.068C375.236 172.682 371.625 175.174 367.124 175.174C361.063 175.174 356.301 170.328 356.301 164.351C356.301 158.373 361.28 153.528 367.124 153.528C371.346 153.528 375.116 156.056 376.884 159.713Z" fill="black"/>
<rect x="380.278" y="153.862" width="5.99431" height="20.9799" fill="black"/>
<path d="M393.599 162.021L399.593 161.522V174.842H393.599V162.021Z" fill="black"/>
<path d="M406.92 162.021L412.914 161.522V174.842H406.92V162.021Z" fill="black"/>
<path d="M391.645 153.528C396.949 153.528 399.593 157.592 399.593 161.853L393.599 162.968C393.599 161.125 391.934 159.466 389.936 159.466C387.938 159.466 386.272 161.188 386.272 163.187L384.685 160.946C384.06 159.466 386.325 153.528 391.645 153.528Z" fill="black"/>
<path d="M404.965 153.528C410.27 153.528 412.914 157.592 412.914 161.853L406.919 162.968C406.919 161.125 405.254 159.466 403.256 159.466C401.258 159.466 399.593 161.188 399.593 163.187L398.006 160.946C397.381 159.466 399.645 153.528 404.965 153.528Z" fill="black"/>
<path d="M404.965 153.528C410.27 153.528 412.914 157.592 412.914 161.853L406.919 162.353C406.919 160.51 405.254 159.023 403.256 159.023C401.258 159.023 399.593 160.355 399.593 162.353L396.596 159.189C397.928 156.192 399.645 153.528 404.965 153.528Z" fill="black"/>
<path d="M8.128 8.09289C9.304 8.09289 10.366 8.36889 11.314 8.92089C12.274 9.47289 13.024 10.2469 13.564 11.2429C14.116 12.2269 14.392 13.3429 14.392 14.5909C14.392 15.8389 14.116 16.9609 13.564 17.9569C13.024 18.9409 12.274 19.7149 11.314 20.2789C10.366 20.8309 9.304 21.1069 8.128 21.1069C6.94 21.1069 5.866 20.8309 4.906 20.2789C3.958 19.7149 3.208 18.9409 2.656 17.9569C2.104 16.9609 1.828 15.8389 1.828 14.5909C1.828 13.3429 2.104 12.2269 2.656 11.2429C3.208 10.2469 3.958 9.47289 4.906 8.92089C5.866 8.36889 6.94 8.09289 8.128 8.09289ZM8.128 10.0009C7.312 10.0009 6.586 10.1869 5.95 10.5589C5.314 10.9309 4.816 11.4649 4.456 12.1609C4.108 12.8569 3.934 13.6669 3.934 14.5909C3.934 15.5149 4.108 16.3249 4.456 17.0209C4.816 17.7169 5.314 18.2509 5.95 18.6229C6.586 18.9949 7.312 19.1809 8.128 19.1809C8.932 19.1809 9.646 18.9949 10.27 18.6229C10.906 18.2509 11.398 17.7169 11.746 17.0209C12.106 16.3249 12.286 15.5149 12.286 14.5909C12.286 13.6669 12.106 12.8569 11.746 12.1609C11.398 11.4649 10.906 10.9309 10.27 10.5589C9.646 10.1869 8.932 10.0009 8.128 10.0009ZM22.6007 14.5369L28.1987 20.9629H25.6967L20.6747 15.0769V20.9629H18.6227V8.25489H20.6747V14.0689L25.7147 8.25489H28.1987L22.6007 14.5369Z" fill="#17C147"/>
<path d="M8.128 310.867C9.304 310.867 10.366 311.143 11.314 311.695C12.274 312.247 13.024 313.021 13.564 314.017C14.116 315.001 14.392 316.117 14.392 317.365C14.392 318.613 14.116 319.735 13.564 320.731C13.024 321.715 12.274 322.489 11.314 323.053C10.366 323.605 9.304 323.881 8.128 323.881C6.94 323.881 5.866 323.605 4.906 323.053C3.958 322.489 3.208 321.715 2.656 320.731C2.104 319.735 1.828 318.613 1.828 317.365C1.828 316.117 2.104 315.001 2.656 314.017C3.208 313.021 3.958 312.247 4.906 311.695C5.866 311.143 6.94 310.867 8.128 310.867ZM8.128 312.775C7.312 312.775 6.586 312.961 5.95 313.333C5.314 313.705 4.816 314.239 4.456 314.935C4.108 315.631 3.934 316.441 3.934 317.365C3.934 318.289 4.108 319.099 4.456 319.795C4.816 320.491 5.314 321.025 5.95 321.397C6.586 321.769 7.312 321.955 8.128 321.955C8.932 321.955 9.646 321.769 10.27 321.397C10.906 321.025 11.398 320.491 11.746 319.795C12.106 319.099 12.286 318.289 12.286 317.365C12.286 316.441 12.106 315.631 11.746 314.935C11.398 314.239 10.906 313.705 10.27 313.333C9.646 312.961 8.932 312.775 8.128 312.775ZM22.6007 317.311L28.1987 323.737H25.6967L20.6747 317.851V323.737H18.6227V311.029H20.6747V316.843L25.7147 311.029H28.1987L22.6007 317.311Z" fill="#17C147"/>
<path d="M8.128 450.546C9.304 450.546 10.366 450.822 11.314 451.374C12.274 451.926 13.024 452.7 13.564 453.696C14.116 454.68 14.392 455.796 14.392 457.044C14.392 458.292 14.116 459.414 13.564 460.41C13.024 461.394 12.274 462.168 11.314 462.732C10.366 463.284 9.304 463.56 8.128 463.56C6.94 463.56 5.866 463.284 4.906 462.732C3.958 462.168 3.208 461.394 2.656 460.41C2.104 459.414 1.828 458.292 1.828 457.044C1.828 455.796 2.104 454.68 2.656 453.696C3.208 452.7 3.958 451.926 4.906 451.374C5.866 450.822 6.94 450.546 8.128 450.546ZM8.128 452.454C7.312 452.454 6.586 452.64 5.95 453.012C5.314 453.384 4.816 453.918 4.456 454.614C4.108 455.31 3.934 456.12 3.934 457.044C3.934 457.968 4.108 458.778 4.456 459.474C4.816 460.17 5.314 460.704 5.95 461.076C6.586 461.448 7.312 461.634 8.128 461.634C8.932 461.634 9.646 461.448 10.27 461.076C10.906 460.704 11.398 460.17 11.746 459.474C12.106 458.778 12.286 457.968 12.286 457.044C12.286 456.12 12.106 455.31 11.746 454.614C11.398 453.918 10.906 453.384 10.27 453.012C9.646 452.64 8.932 452.454 8.128 452.454ZM22.6007 456.99L28.1987 463.416H25.6967L20.6747 457.53V463.416H18.6227V450.708H20.6747V456.522L25.7147 450.708H28.1987L22.6007 456.99Z" fill="#17C147"/>
<path d="M268.939 16.0759C269.707 16.2319 270.325 16.5979 270.793 17.1739C271.273 17.7499 271.513 18.4219 271.513 19.1899C271.513 20.2459 271.159 21.0859 270.451 21.7099C269.743 22.3219 268.717 22.6279 267.373 22.6279H262.315V9.91993H267.283C268.555 9.91993 269.527 10.2079 270.199 10.7839C270.883 11.3479 271.225 12.1279 271.225 13.1239C271.225 13.9279 271.015 14.5819 270.595 15.0859C270.175 15.5779 269.623 15.9079 268.939 16.0759ZM264.367 15.3919H266.905C267.625 15.3919 268.171 15.2239 268.543 14.8879C268.927 14.5519 269.119 14.0839 269.119 13.4839C269.119 12.8959 268.927 12.4339 268.543 12.0979C268.171 11.7619 267.601 11.5939 266.833 11.5939H264.367V15.3919ZM266.959 20.9359C267.739 20.9359 268.339 20.7619 268.759 20.4139C269.191 20.0539 269.407 19.5559 269.407 18.9199C269.407 18.2839 269.191 17.7859 268.759 17.4259C268.327 17.0659 267.721 16.8859 266.941 16.8859H264.367V20.9359H266.959ZM283.18 19.8739H277.816L276.844 22.6279H274.648L279.328 10.1179H281.686L286.348 22.6279H284.152L283.18 19.8739ZM282.604 18.2899L280.498 12.3499L278.392 18.2899H282.604ZM300.939 16.2559C300.939 17.5399 300.675 18.6619 300.147 19.6219C299.631 20.5699 298.869 21.3079 297.861 21.8359C296.865 22.3639 295.671 22.6279 294.279 22.6279H290.031V9.91993H294.279C295.671 9.91993 296.865 10.1839 297.861 10.7119C298.869 11.2279 299.631 11.9599 300.147 12.9079C300.675 13.8559 300.939 14.9719 300.939 16.2559ZM294.117 20.7739C295.641 20.7739 296.811 20.3779 297.627 19.5859C298.443 18.7939 298.851 17.6839 298.851 16.2559C298.851 14.8279 298.443 13.7179 297.627 12.9259C296.811 12.1339 295.641 11.7379 294.117 11.7379H292.083V20.7739H294.117Z" fill="#FF0B54"/>
<path d="M268.939 318.85C269.707 319.006 270.325 319.372 270.793 319.948C271.273 320.524 271.513 321.196 271.513 321.964C271.513 323.02 271.159 323.86 270.451 324.484C269.743 325.096 268.717 325.402 267.373 325.402H262.315V312.694H267.283C268.555 312.694 269.527 312.982 270.199 313.558C270.883 314.122 271.225 314.902 271.225 315.898C271.225 316.702 271.015 317.356 270.595 317.86C270.175 318.352 269.623 318.682 268.939 318.85ZM264.367 318.166H266.905C267.625 318.166 268.171 317.998 268.543 317.662C268.927 317.326 269.119 316.858 269.119 316.258C269.119 315.67 268.927 315.208 268.543 314.872C268.171 314.536 267.601 314.368 266.833 314.368H264.367V318.166ZM266.959 323.71C267.739 323.71 268.339 323.536 268.759 323.188C269.191 322.828 269.407 322.33 269.407 321.694C269.407 321.058 269.191 320.56 268.759 320.2C268.327 319.84 267.721 319.66 266.941 319.66H264.367V323.71H266.959ZM283.18 322.648H277.816L276.844 325.402H274.648L279.328 312.892H281.686L286.348 325.402H284.152L283.18 322.648ZM282.604 321.064L280.498 315.124L278.392 321.064H282.604ZM300.939 319.03C300.939 320.314 300.675 321.436 300.147 322.396C299.631 323.344 298.869 324.082 297.861 324.61C296.865 325.138 295.671 325.402 294.279 325.402H290.031V312.694H294.279C295.671 312.694 296.865 312.958 297.861 313.486C298.869 314.002 299.631 314.734 300.147 315.682C300.675 316.63 300.939 317.746 300.939 319.03ZM294.117 323.548C295.641 323.548 296.811 323.152 297.627 322.36C298.443 321.568 298.851 320.458 298.851 319.03C298.851 317.602 298.443 316.492 297.627 315.7C296.811 314.908 295.641 314.512 294.117 314.512H292.083V323.548H294.117Z" fill="#FF0B54"/>
<path d="M268.939 458.53C269.707 458.686 270.325 459.052 270.793 459.628C271.273 460.204 271.513 460.876 271.513 461.644C271.513 462.7 271.159 463.54 270.451 464.164C269.743 464.776 268.717 465.082 267.373 465.082H262.315V452.374H267.283C268.555 452.374 269.527 452.662 270.199 453.238C270.883 453.802 271.225 454.582 271.225 455.578C271.225 456.382 271.015 457.036 270.595 457.54C270.175 458.032 269.623 458.362 268.939 458.53ZM264.367 457.846H266.905C267.625 457.846 268.171 457.678 268.543 457.342C268.927 457.006 269.119 456.538 269.119 455.938C269.119 455.35 268.927 454.888 268.543 454.552C268.171 454.216 267.601 454.048 266.833 454.048H264.367V457.846ZM266.959 463.39C267.739 463.39 268.339 463.216 268.759 462.868C269.191 462.508 269.407 462.01 269.407 461.374C269.407 460.738 269.191 460.24 268.759 459.88C268.327 459.52 267.721 459.34 266.941 459.34H264.367V463.39H266.959ZM283.18 462.328H277.816L276.844 465.082H274.648L279.328 452.572H281.686L286.348 465.082H284.152L283.18 462.328ZM282.604 460.744L280.498 454.804L278.392 460.744H282.604ZM300.939 458.71C300.939 459.994 300.675 461.116 300.147 462.076C299.631 463.024 298.869 463.762 297.861 464.29C296.865 464.818 295.671 465.082 294.279 465.082H290.031V452.374H294.279C295.671 452.374 296.865 452.638 297.861 453.166C298.869 453.682 299.631 454.414 300.147 455.362C300.675 456.31 300.939 457.426 300.939 458.71ZM294.117 463.228C295.641 463.228 296.811 462.832 297.627 462.04C298.443 461.248 298.851 460.138 298.851 458.71C298.851 457.282 298.443 456.172 297.627 455.38C296.811 454.588 295.641 454.192 294.117 454.192H292.083V463.228H294.117Z" fill="#FF0B54"/>
<g clip-path="url(#clip0)">
<rect x="91.886" y="51.5771" width="36.0355" height="36.0355" rx="10.1924" transform="rotate(45 91.886 51.5771)" fill="#1E6CFF"/>
<rect x="82.7112" y="73.5997" width="2.22414" height="7.78164" fill="#DCFFDD"/>
<path fill-rule="evenodd" clip-rule="evenodd" d="M80.4533 81.5048C82.7722 81.5048 84.4374 79.5157 84.4374 77.489C84.4374 75.5746 82.7833 73.4732 80.4533 73.4732C78.225 73.4732 76.5331 75.2711 76.5331 77.489C76.5331 79.7069 78.225 81.5048 80.4533 81.5048ZM80.6976 79.475C81.8401 79.475 82.7115 78.6238 82.7115 77.489C82.7115 76.3542 81.8401 75.5031 80.6976 75.5031C79.555 75.5031 78.6702 76.3922 78.6702 77.489C78.6702 78.5859 79.555 79.475 80.6976 79.475Z" fill="#DCFFDD"/>
<path fill-rule="evenodd" clip-rule="evenodd" d="M93.8699 75.769L91.8334 76.7151C91.5736 76.1298 91.0257 75.6588 90.2848 75.6588C89.2315 75.6588 88.4158 76.4785 88.4158 77.4897C88.4158 78.5008 89.2315 79.3205 90.2848 79.3205C91.0426 79.3205 91.5984 78.8963 91.8507 78.2817L93.8832 79.2401C93.2588 80.5811 91.919 81.5057 90.2487 81.5057C87.9999 81.5057 86.2329 79.7077 86.2329 77.4899C86.2329 75.272 88.0802 73.4741 90.2487 73.4741C91.8151 73.4741 93.2139 74.4122 93.8699 75.769Z" fill="#DCFFDD"/>
<rect x="95.1295" y="73.5979" width="2.22414" height="7.78442" fill="#DCFFDD"/>
<path d="M100.072 76.6255L102.296 76.4402V81.3827H100.072V76.6255Z" fill="#DCFFDD"/>
<path d="M105.015 76.6255L107.239 76.4402V81.3827H105.015V76.6255Z" fill="#DCFFDD"/>
<path d="M99.3471 73.4739C101.315 73.4739 102.296 74.9819 102.296 76.563L100.072 76.9765C100.072 76.2928 99.4543 75.6773 98.7129 75.6773C97.9715 75.6773 97.3537 76.3163 97.3537 77.0577L96.7647 76.2264C96.5328 75.6773 97.373 73.4739 99.3471 73.4739Z" fill="#DCFFDD"/>
<path d="M104.29 73.4739C106.258 73.4739 107.239 74.9819 107.239 76.563L105.015 76.9765C105.015 76.2928 104.397 75.6773 103.656 75.6773C102.914 75.6773 102.296 76.3163 102.296 77.0577L101.707 76.2264C101.475 75.6773 102.316 73.4739 104.29 73.4739Z" fill="#DCFFDD"/>
<path d="M104.29 73.4739C106.258 73.4739 107.239 74.9819 107.239 76.563L105.015 76.7484C105.015 76.0646 104.397 75.5127 103.656 75.5127C102.914 75.5127 102.296 76.007 102.296 76.7484L101.184 75.5745C101.679 74.4624 102.316 73.4739 104.29 73.4739Z" fill="#DCFFDD"/>
<rect x="123.009" y="74.5533" width="2.03107" height="7.10614" fill="black"/>
<path fill-rule="evenodd" clip-rule="evenodd" d="M120.947 81.7725C123.065 81.7725 124.585 79.9561 124.585 78.1053C124.585 76.3571 123.075 74.4381 120.947 74.4381C118.912 74.4381 117.367 76.0799 117.367 78.1053C117.367 80.1306 118.912 81.7725 120.947 81.7725ZM121.17 79.9184C122.213 79.9184 123.009 79.1411 123.009 78.1048C123.009 77.0686 122.213 76.2913 121.17 76.2913C120.126 76.2913 119.318 77.1032 119.318 78.1048C119.318 79.1064 120.126 79.9184 121.17 79.9184Z" fill="black"/>
<path d="M128.016 79.5375L130.047 79.2509V72.5067L128.016 73.3366L128.016 79.5375Z" fill="black"/>
<path d="M126.662 74.5557H131.739V76.3611H126.662V74.5557Z" fill="black"/>
<path d="M130.385 81.6595C128.266 81.6595 128.016 80.3506 128.016 79.5176C128.596 79.1688 129.641 79.0667 130.047 79.0667C130.047 79.4634 130.329 79.86 130.893 79.86H131.739L131.739 81.6199C131.232 81.6595 131.032 81.6595 130.385 81.6595Z" fill="black"/>
<path d="M136.872 71.8453H146.457V78.7212H136.872V71.8453Z" fill="black"/>
<path d="M146.458 78.541C146.458 81.0377 144.363 82.679 141.666 82.679V74.4364C144.267 74.4364 146.458 76.0444 146.458 78.541Z" fill="black"/>
<path d="M136.873 78.541C136.873 81.0377 138.968 82.679 141.665 82.679V74.4364C139.064 74.4364 136.873 76.0444 136.873 78.541Z" fill="black"/>
<path d="M143.962 78.4144C143.962 79.8363 142.93 80.3523 141.587 80.3523V76.4766C142.882 76.4766 143.962 76.9925 143.962 78.4144Z" fill="#DCFFDD"/>
<path d="M139.223 78.4144C139.223 79.8363 140.25 80.3523 141.587 80.3523V76.4766C140.298 76.4766 139.223 76.9925 139.223 78.4144Z" fill="#DCFFDD"/>
<path d="M139.224 71.845H143.962V78.3235H139.224V71.845Z" fill="#DCFFDD"/>
<path d="M148.4 77.24C148.4 80.3314 150.757 82.6788 153.79 82.6788V71.845C150.865 71.845 148.4 74.1486 148.4 77.24Z" fill="black"/>
<path d="M159.036 77.2619C159.036 80.8505 156.824 82.6788 153.791 82.6788V71.845C156.716 71.845 159.036 73.6733 159.036 77.2619Z" fill="black"/>
<path d="M150.674 77.2621C150.674 79.0636 152.031 80.4188 153.799 80.4188V74.1053C152.094 74.1053 150.674 75.4605 150.674 77.2621Z" fill="#DCFFDD"/>
<path d="M157.011 77.2621C157.011 79.1765 155.566 80.4188 153.799 80.4188V74.1053C155.503 74.1053 157.011 75.3476 157.011 77.2621Z" fill="#DCFFDD"/>
<path d="M160.148 73.225L155.236 75.9966L155.236 78.7067L160.148 81.0935L162.89 77.5445L160.148 73.225Z" fill="#DCFFDD"/>
<path d="M159.676 71.845H162.002V82.5666H159.676V71.845Z" fill="black"/>
<path d="M159.676 80.4886H166.479V82.6788H159.676V80.4886Z" fill="black"/>
<path d="M171.747 71.8339L173.593 71.8339L173.505 73.1226L169.917 82.6785L167.675 82.6785L171.747 71.8339Z" fill="black"/>
<path d="M174.072 71.8339L172.225 71.8339L172.314 73.1226L175.902 82.6785L178.143 82.6785L174.072 71.8339Z" fill="black"/>
<path d="M172.011 71.8339L173.857 71.8339L173.769 73.1226L170.181 82.6785L167.939 82.6785L172.011 71.8339Z" fill="black"/>
<path d="M174.356 71.8339L172.51 71.8339L176.582 82.6785L178.428 82.6785L174.356 71.8339Z" fill="black"/>
<path d="M169.82 79.1098H176.191V81.0721H169.82V79.1098Z" fill="black"/>
</g>
<g clip-path="url(#clip1)">
<rect x="81.4433" y="496.043" width="36.0355" height="36.0355" rx="10.1924" transform="rotate(45 81.4433 496.043)" fill="#1E6CFF"/>
<rect x="72.2684" y="518.066" width="2.22414" height="7.78164" fill="#DCFFDD"/>
<path fill-rule="evenodd" clip-rule="evenodd" d="M70.0105 525.971C72.3294 525.971 73.9946 523.982 73.9946 521.955C73.9946 520.041 72.3405 517.94 70.0105 517.94C67.7822 517.94 66.0904 519.737 66.0904 521.955C66.0904 524.173 67.7822 525.971 70.0105 525.971ZM70.2548 523.941C71.3973 523.941 72.2687 523.09 72.2687 521.955C72.2687 520.821 71.3973 519.969 70.2548 519.969C69.1123 519.969 68.2274 520.859 68.2274 521.955C68.2274 523.052 69.1123 523.941 70.2548 523.941Z" fill="#DCFFDD"/>
<path fill-rule="evenodd" clip-rule="evenodd" d="M83.4271 520.235L81.3906 521.181C81.1308 520.596 80.583 520.125 79.8421 520.125C78.7888 520.125 77.973 520.945 77.973 521.956C77.973 522.967 78.7888 523.787 79.8421 523.787C80.5998 523.787 81.1557 523.363 81.4079 522.748L83.4404 523.706C82.816 525.047 81.4762 525.972 79.8059 525.972C77.5571 525.972 75.7901 524.174 75.7901 521.956C75.7901 519.738 77.6374 517.94 79.8059 517.94C81.3723 517.94 82.7711 518.878 83.4271 520.235Z" fill="#DCFFDD"/>
<rect x="84.6868" y="518.064" width="2.22414" height="7.78442" fill="#DCFFDD"/>
<path d="M89.6294 521.092L91.8535 520.906V525.849H89.6294V521.092Z" fill="#DCFFDD"/>
<path d="M94.5718 521.092L96.7959 520.906V525.849H94.5718V521.092Z" fill="#DCFFDD"/>
<path d="M88.9043 517.94C90.8725 517.94 91.8535 519.448 91.8535 521.029L89.6293 521.443C89.6293 520.759 89.0115 520.144 88.2701 520.144C87.5288 520.144 86.9109 520.783 86.9109 521.524L86.3219 520.693C86.0901 520.144 86.9303 517.94 88.9043 517.94Z" fill="#DCFFDD"/>
<path d="M93.8469 517.94C95.8151 517.94 96.7961 519.448 96.7961 521.029L94.5719 521.443C94.5719 520.759 93.9541 520.144 93.2127 520.144C92.4714 520.144 91.8535 520.783 91.8535 521.524L91.2645 520.693C91.0326 520.144 91.8729 517.94 93.8469 517.94Z" fill="#DCFFDD"/>
<path d="M93.8469 517.94C95.8151 517.94 96.7961 519.448 96.7961 521.029L94.5719 521.215C94.5719 520.531 93.9541 519.979 93.2127 519.979C92.4714 519.979 91.8536 520.473 91.8536 521.215L90.7415 520.041C91.2357 518.929 91.8729 517.94 93.8469 517.94Z" fill="#DCFFDD"/>
<rect x="112.566" y="519.02" width="2.03107" height="7.10614" fill="black"/>
<path fill-rule="evenodd" clip-rule="evenodd" d="M110.504 526.239C112.622 526.239 114.142 524.422 114.142 522.572C114.142 520.823 112.632 518.904 110.504 518.904C108.469 518.904 106.924 520.546 106.924 522.572C106.924 524.597 108.469 526.239 110.504 526.239ZM110.727 524.385C111.77 524.385 112.566 523.607 112.566 522.571C112.566 521.535 111.77 520.758 110.727 520.758C109.684 520.758 108.876 521.57 108.876 522.571C108.876 523.573 109.684 524.385 110.727 524.385Z" fill="black"/>
<path d="M117.573 524.004L119.604 523.717V516.973L117.573 517.803L117.573 524.004Z" fill="black"/>
<path d="M116.219 519.022H121.297V520.827H116.219V519.022Z" fill="black"/>
<path d="M119.943 526.126C117.823 526.126 117.573 524.817 117.573 523.984C118.153 523.635 119.198 523.533 119.604 523.533C119.604 523.93 119.886 524.326 120.45 524.326H121.297L121.297 526.086C120.789 526.126 120.59 526.126 119.943 526.126Z" fill="black"/>
<path d="M126.43 516.312H136.014V523.188H126.43V516.312Z" fill="black"/>
<path d="M136.016 523.007C136.016 525.504 133.92 527.145 131.223 527.145V518.903C133.824 518.903 136.016 520.511 136.016 523.007Z" fill="black"/>
<path d="M126.43 523.007C126.43 525.504 128.525 527.145 131.222 527.145V518.903C128.622 518.903 126.43 520.511 126.43 523.007Z" fill="black"/>
<path d="M133.519 522.881C133.519 524.303 132.488 524.819 131.144 524.819V520.943C132.44 520.943 133.519 521.459 133.519 522.881Z" fill="#DCFFDD"/>
<path d="M128.781 522.881C128.781 524.303 129.807 524.819 131.145 524.819V520.943C129.855 520.943 128.781 521.459 128.781 522.881Z" fill="#DCFFDD"/>
<path d="M128.781 516.311H133.519V522.79H128.781V516.311Z" fill="#DCFFDD"/>
<path d="M137.957 521.706C137.957 524.798 140.314 527.145 143.347 527.145V516.311C140.422 516.311 137.957 518.615 137.957 521.706Z" fill="black"/>
<path d="M148.593 521.728C148.593 525.317 146.381 527.145 143.348 527.145V516.311C146.273 516.311 148.593 518.14 148.593 521.728Z" fill="black"/>
<path d="M140.232 521.728C140.232 523.53 141.588 524.885 143.356 524.885V518.572C141.651 518.572 140.232 519.927 140.232 521.728Z" fill="#DCFFDD"/>
<path d="M146.569 521.728C146.569 523.643 145.124 524.885 143.356 524.885V518.572C145.061 518.572 146.569 519.814 146.569 521.728Z" fill="#DCFFDD"/>
<path d="M149.705 517.691L144.793 520.463L144.793 523.173L149.705 525.56L152.448 522.011L149.705 517.691Z" fill="#DCFFDD"/>
<path d="M149.233 516.311H151.559V527.033H149.233V516.311Z" fill="black"/>
<path d="M149.233 524.955H156.037V527.145H149.233V524.955Z" fill="black"/>
<path d="M161.304 516.3L163.15 516.3L163.062 517.589L159.474 527.145L157.233 527.145L161.304 516.3Z" fill="black"/>
<path d="M163.629 516.3L161.783 516.3L161.871 517.589L165.459 527.145L167.701 527.145L163.629 516.3Z" fill="black"/>
<path d="M161.568 516.3L163.414 516.3L163.326 517.589L159.738 527.145L157.496 527.145L161.568 516.3Z" fill="black"/>
<path d="M163.914 516.3L162.068 516.3L166.139 527.145L167.985 527.145L163.914 516.3Z" fill="black"/>
<path d="M159.377 523.576H165.748V525.538H159.377V523.576Z" fill="black"/>
</g>
<path d="M383.934 520.146C384.587 520.146 385.147 520.3 385.614 520.608C386.081 520.916 386.412 521.331 386.608 521.854V520.244H388.568V528H386.608V526.376C386.412 526.899 386.081 527.319 385.614 527.636C385.147 527.944 384.587 528.098 383.934 528.098C383.281 528.098 382.693 527.939 382.17 527.622C381.647 527.305 381.237 526.847 380.938 526.25C380.649 525.643 380.504 524.934 380.504 524.122C380.504 523.31 380.649 522.605 380.938 522.008C381.237 521.401 381.647 520.939 382.17 520.622C382.693 520.305 383.281 520.146 383.934 520.146ZM384.55 521.868C383.934 521.868 383.439 522.069 383.066 522.47C382.693 522.871 382.506 523.422 382.506 524.122C382.506 524.822 382.693 525.373 383.066 525.774C383.439 526.166 383.934 526.362 384.55 526.362C385.147 526.362 385.637 526.161 386.02 525.76C386.412 525.349 386.608 524.803 386.608 524.122C386.608 523.431 386.412 522.885 386.02 522.484C385.637 522.073 385.147 521.868 384.55 521.868ZM394.501 526.306V528H393.465C392.597 528 391.93 527.79 391.463 527.37C391.006 526.95 390.777 526.25 390.777 525.27V521.91H389.699V520.244H390.777V518.326H392.751V520.244H394.487V521.91H392.751V525.298C392.751 525.671 392.826 525.933 392.975 526.082C393.124 526.231 393.376 526.306 393.731 526.306H394.501ZM406.39 520.244V528H404.416V526.432C404.211 526.955 403.87 527.365 403.394 527.664C402.928 527.953 402.386 528.098 401.77 528.098C400.874 528.098 400.16 527.804 399.628 527.216C399.096 526.628 398.83 525.807 398.83 524.752V520.244H400.79V524.528C400.79 525.144 400.949 525.625 401.266 525.97C401.584 526.306 402.013 526.474 402.554 526.474C403.124 526.474 403.576 526.292 403.912 525.928C404.248 525.564 404.416 525.041 404.416 524.36V520.244H406.39ZM411.671 520.146C412.67 520.146 413.5 520.417 414.163 520.958C414.835 521.499 415.255 522.237 415.423 523.17H413.337C413.253 522.759 413.062 522.437 412.763 522.204C412.464 521.961 412.086 521.84 411.629 521.84C411.106 521.84 410.668 522.036 410.313 522.428C409.968 522.811 409.795 523.375 409.795 524.122C409.795 524.869 409.968 525.438 410.313 525.83C410.668 526.213 411.106 526.404 411.629 526.404C412.086 526.404 412.464 526.287 412.763 526.054C413.062 525.811 413.253 525.485 413.337 525.074H415.423C415.255 526.007 414.835 526.745 414.163 527.286C413.5 527.827 412.67 528.098 411.671 528.098C410.915 528.098 410.243 527.939 409.655 527.622C409.067 527.295 408.61 526.833 408.283 526.236C407.956 525.639 407.793 524.934 407.793 524.122C407.793 523.31 407.956 522.605 408.283 522.008C408.61 521.401 409.067 520.939 409.655 520.622C410.243 520.305 410.915 520.146 411.671 520.146ZM418.8 517.64V528H416.826V517.64H418.8ZM423.623 520.146C424.277 520.146 424.837 520.3 425.303 520.608C425.77 520.916 426.101 521.331 426.297 521.854V520.244H428.257V528H426.297V526.376C426.101 526.899 425.77 527.319 425.303 527.636C424.837 527.944 424.277 528.098 423.623 528.098C422.97 528.098 422.382 527.939 421.859 527.622C421.337 527.305 420.926 526.847 420.627 526.25C420.338 525.643 420.193 524.934 420.193 524.122C420.193 523.31 420.338 522.605 420.627 522.008C420.926 521.401 421.337 520.939 421.859 520.622C422.382 520.305 422.97 520.146 423.623 520.146ZM424.239 521.868C423.623 521.868 423.129 522.069 422.755 522.47C422.382 522.871 422.195 523.422 422.195 524.122C422.195 524.822 422.382 525.373 422.755 525.774C423.129 526.166 423.623 526.362 424.239 526.362C424.837 526.362 425.327 526.161 425.709 525.76C426.101 525.349 426.297 524.803 426.297 524.122C426.297 523.431 426.101 522.885 425.709 522.484C425.327 522.073 424.837 521.868 424.239 521.868Z" fill="#131313"/>
<path d="M45.6753 384.928H41.7133L41.0133 386.916H38.9273L42.5673 377.144H44.8213L48.4473 386.916H46.3613L45.6753 384.928ZM45.1433 383.43L43.6873 379.258L42.2313 383.43H45.1433ZM53.9787 376.934C55.2107 376.934 56.2327 377.251 57.0447 377.886C57.8567 378.521 58.3934 379.384 58.6547 380.476H56.5827C56.368 379.944 56.032 379.524 55.5747 379.216C55.1267 378.908 54.5854 378.754 53.9507 378.754C53.428 378.754 52.9567 378.885 52.5367 379.146C52.1167 379.407 51.79 379.781 51.5567 380.266C51.3234 380.751 51.2067 381.321 51.2067 381.974C51.2067 382.618 51.3234 383.183 51.5567 383.668C51.79 384.153 52.1167 384.527 52.5367 384.788C52.9567 385.049 53.428 385.18 53.9507 385.18C54.5854 385.18 55.1267 385.026 55.5747 384.718C56.032 384.41 56.368 383.99 56.5827 383.458H58.6547C58.3934 384.55 57.8567 385.413 57.0447 386.048C56.2327 386.683 55.2107 387 53.9787 387C53.036 387 52.2007 386.79 51.4727 386.37C50.754 385.941 50.194 385.343 49.7927 384.578C49.4007 383.813 49.2047 382.945 49.2047 381.974C49.2047 380.994 49.4007 380.121 49.7927 379.356C50.194 378.591 50.754 377.998 51.4727 377.578C52.1914 377.149 53.0267 376.934 53.9787 376.934ZM70.7897 377.144V386.916H68.8297V380.098L66.3237 386.916H64.6157L62.1097 380.126V386.916H60.1357V377.144H62.5297L65.4977 384.494L68.4097 377.144H70.7897ZM84.32 381.96C84.32 382.94 84.1146 383.803 83.704 384.55C83.2933 385.297 82.696 385.88 81.912 386.3C81.1373 386.711 80.2133 386.916 79.14 386.916H75.626V377.032H79.14C80.2133 377.032 81.1373 377.237 81.912 377.648C82.696 378.049 83.2933 378.623 83.704 379.37C84.1146 380.107 84.32 380.971 84.32 381.96ZM78.972 385.152C80.036 385.152 80.8573 384.872 81.436 384.312C82.024 383.752 82.318 382.968 82.318 381.96C82.318 380.943 82.024 380.154 81.436 379.594C80.8573 379.034 80.036 378.754 78.972 378.754H77.6V385.152H78.972ZM93.0919 382.744C93.0919 382.94 93.0685 383.164 93.0219 383.416H87.3379C87.3659 384.107 87.5525 384.615 87.8979 384.942C88.2432 385.269 88.6725 385.432 89.1859 385.432C89.6432 385.432 90.0212 385.32 90.3199 385.096C90.6279 384.872 90.8239 384.569 90.9079 384.186H92.9939C92.8912 384.727 92.6719 385.213 92.3359 385.642C91.9999 386.071 91.5659 386.407 91.0339 386.65C90.5112 386.893 89.9279 387.014 89.2839 387.014C88.5279 387.014 87.8559 386.855 87.2679 386.538C86.6799 386.211 86.2225 385.749 85.8959 385.152C85.5692 384.555 85.4059 383.85 85.4059 383.038C85.4059 382.226 85.5692 381.521 85.8959 380.924C86.2225 380.317 86.6799 379.855 87.2679 379.538C87.8559 379.221 88.5279 379.062 89.2839 379.062C90.0492 379.062 90.7165 379.221 91.2859 379.538C91.8645 379.855 92.3079 380.294 92.6159 380.854C92.9332 381.405 93.0919 382.035 93.0919 382.744ZM91.1039 382.548C91.1319 381.913 90.9639 381.433 90.5999 381.106C90.2452 380.779 89.8065 380.616 89.2839 380.616C88.7519 380.616 88.3039 380.779 87.9399 381.106C87.5759 381.433 87.3752 381.913 87.3379 382.548H91.1039ZM97.1672 379.062C98.1098 379.062 98.8658 379.3 99.4352 379.776C100.005 380.252 100.359 380.887 100.499 381.68H98.6512C98.5765 381.307 98.4085 381.008 98.1472 380.784C97.8858 380.56 97.5452 380.448 97.1252 380.448C96.7892 380.448 96.5278 380.527 96.3412 380.686C96.1545 380.845 96.0612 381.059 96.0612 381.33C96.0612 381.545 96.1358 381.717 96.2852 381.848C96.4345 381.979 96.6212 382.081 96.8452 382.156C97.0692 382.231 97.3912 382.319 97.8112 382.422C98.3992 382.553 98.8752 382.693 99.2392 382.842C99.6125 382.982 99.9298 383.211 100.191 383.528C100.462 383.836 100.597 384.256 100.597 384.788C100.597 385.451 100.336 385.987 99.8132 386.398C99.2998 386.809 98.6045 387.014 97.7272 387.014C96.7192 387.014 95.9118 386.79 95.3052 386.342C94.6985 385.885 94.3298 385.236 94.1992 384.396H96.0892C96.1358 384.779 96.3038 385.082 96.5932 385.306C96.8825 385.521 97.2605 385.628 97.7272 385.628C98.0632 385.628 98.3198 385.549 98.4972 385.39C98.6745 385.222 98.7632 385.007 98.7632 384.746C98.7632 384.522 98.6838 384.34 98.5252 384.2C98.3758 384.06 98.1845 383.953 97.9512 383.878C97.7272 383.803 97.4052 383.715 96.9852 383.612C96.4065 383.481 95.9352 383.351 95.5712 383.22C95.2165 383.08 94.9085 382.861 94.6472 382.562C94.3952 382.263 94.2692 381.853 94.2692 381.33C94.2692 380.658 94.5258 380.112 95.0392 379.692C95.5525 379.272 96.2618 379.062 97.1672 379.062ZM101.843 376.934C101.843 376.617 101.955 376.36 102.179 376.164C102.403 375.959 102.697 375.856 103.061 375.856C103.425 375.856 103.719 375.959 103.943 376.164C104.167 376.36 104.279 376.617 104.279 376.934C104.279 377.242 104.167 377.499 103.943 377.704C103.719 377.9 103.425 377.998 103.061 377.998C102.697 377.998 102.403 377.9 102.179 377.704C101.955 377.499 101.843 377.242 101.843 376.934ZM104.041 379.16V386.916H102.067V379.16H104.041ZM108.865 379.062C109.518 379.062 110.078 379.216 110.545 379.524C111.012 379.832 111.343 380.247 111.539 380.77V379.16H113.499V386.944C113.499 387.663 113.354 388.307 113.065 388.876C112.785 389.455 112.36 389.907 111.791 390.234C111.231 390.561 110.55 390.724 109.747 390.724C108.627 390.724 107.722 390.458 107.031 389.926C106.34 389.394 105.92 388.671 105.771 387.756H107.717C107.829 388.148 108.044 388.451 108.361 388.666C108.688 388.89 109.103 389.002 109.607 389.002C110.186 389.002 110.652 388.829 111.007 388.484C111.362 388.148 111.539 387.635 111.539 386.944V385.292C111.343 385.815 111.012 386.235 110.545 386.552C110.078 386.86 109.518 387.014 108.865 387.014C108.212 387.014 107.624 386.855 107.101 386.538C106.578 386.221 106.168 385.763 105.869 385.166C105.58 384.559 105.435 383.85 105.435 383.038C105.435 382.226 105.58 381.521 105.869 380.924C106.168 380.317 106.578 379.855 107.101 379.538C107.624 379.221 108.212 379.062 108.865 379.062ZM109.481 380.784C108.865 380.784 108.37 380.985 107.997 381.386C107.624 381.787 107.437 382.338 107.437 383.038C107.437 383.738 107.624 384.289 107.997 384.69C108.37 385.082 108.865 385.278 109.481 385.278C110.078 385.278 110.568 385.077 110.951 384.676C111.343 384.265 111.539 383.719 111.539 383.038C111.539 382.347 111.343 381.801 110.951 381.4C110.568 380.989 110.078 380.784 109.481 380.784ZM119.908 379.048C120.804 379.048 121.518 379.342 122.05 379.93C122.582 380.518 122.848 381.344 122.848 382.408V386.916H120.888V382.632C120.888 382.016 120.729 381.54 120.412 381.204C120.095 380.859 119.661 380.686 119.11 380.686C118.55 380.686 118.102 380.868 117.766 381.232C117.43 381.596 117.262 382.119 117.262 382.8V386.916H115.288V379.16H117.262V380.714C117.467 380.191 117.803 379.785 118.27 379.496C118.746 379.197 119.292 379.048 119.908 379.048ZM130.672 379.062C131.325 379.062 131.885 379.216 132.352 379.524C132.818 379.832 133.15 380.247 133.346 380.77V379.16H135.306V386.916H133.346V385.292C133.15 385.815 132.818 386.235 132.352 386.552C131.885 386.86 131.325 387.014 130.672 387.014C130.018 387.014 129.43 386.855 128.908 386.538C128.385 386.221 127.974 385.763 127.676 385.166C127.386 384.559 127.242 383.85 127.242 383.038C127.242 382.226 127.386 381.521 127.676 380.924C127.974 380.317 128.385 379.855 128.908 379.538C129.43 379.221 130.018 379.062 130.672 379.062ZM131.288 380.784C130.672 380.784 130.177 380.985 129.804 381.386C129.43 381.787 129.244 382.338 129.244 383.038C129.244 383.738 129.43 384.289 129.804 384.69C130.177 385.082 130.672 385.278 131.288 385.278C131.885 385.278 132.375 385.077 132.758 384.676C133.15 384.265 133.346 383.719 133.346 383.038C133.346 382.347 133.15 381.801 132.758 381.4C132.375 380.989 131.885 380.784 131.288 380.784ZM141.239 385.222V386.916H140.203C139.335 386.916 138.667 386.706 138.201 386.286C137.743 385.866 137.515 385.166 137.515 384.186V380.826H136.437V379.16H137.515V377.242H139.489V379.16H141.225V380.826H139.489V384.214C139.489 384.587 139.563 384.849 139.713 384.998C139.862 385.147 140.114 385.222 140.469 385.222H141.239ZM147.612 377.032V382.828C147.612 383.603 147.78 384.186 148.116 384.578C148.461 384.961 148.956 385.152 149.6 385.152C150.235 385.152 150.72 384.961 151.056 384.578C151.401 384.186 151.574 383.603 151.574 382.828V377.032H153.534V382.828C153.534 383.743 153.361 384.517 153.016 385.152C152.68 385.777 152.209 386.244 151.602 386.552C151.005 386.86 150.323 387.014 149.558 387.014C148.373 387.014 147.425 386.659 146.716 385.95C146.007 385.241 145.652 384.2 145.652 382.828V377.032H147.612ZM159.731 376.934C160.963 376.934 161.985 377.251 162.797 377.886C163.609 378.521 164.145 379.384 164.407 380.476H162.335C162.12 379.944 161.784 379.524 161.327 379.216C160.879 378.908 160.337 378.754 159.703 378.754C159.18 378.754 158.709 378.885 158.289 379.146C157.869 379.407 157.542 379.781 157.309 380.266C157.075 380.751 156.959 381.321 156.959 381.974C156.959 382.618 157.075 383.183 157.309 383.668C157.542 384.153 157.869 384.527 158.289 384.788C158.709 385.049 159.18 385.18 159.703 385.18C160.337 385.18 160.879 385.026 161.327 384.718C161.784 384.41 162.12 383.99 162.335 383.458H164.407C164.145 384.55 163.609 385.413 162.797 386.048C161.985 386.683 160.963 387 159.731 387C158.788 387 157.953 386.79 157.225 386.37C156.506 385.941 155.946 385.343 155.545 384.578C155.153 383.813 154.957 382.945 154.957 381.974C154.957 380.994 155.153 380.121 155.545 379.356C155.946 378.591 156.506 377.998 157.225 377.578C157.943 377.149 158.779 376.934 159.731 376.934ZM167.862 385.404H171.18V386.916H165.888V377.032H167.862V385.404ZM178.374 384.928H174.412L173.712 386.916H171.626L175.266 377.144H177.52L181.146 386.916H179.06L178.374 384.928ZM177.842 383.43L176.386 379.258L174.93 383.43H177.842Z" fill="#131313"/>
<path d="M72.6404 256.138H68.7484L68.1044 258H66.0464L69.5604 248.214H71.8424L75.3564 258H73.2844L72.6404 256.138ZM72.1084 254.57L70.6944 250.482L69.2804 254.57H72.1084ZM76.1938 253.1C76.1938 252.139 76.4085 251.28 76.8378 250.524C77.2765 249.759 77.8692 249.166 78.6158 248.746C79.3718 248.317 80.2165 248.102 81.1498 248.102C82.2418 248.102 83.1985 248.382 84.0198 248.942C84.8412 249.502 85.4152 250.277 85.7418 251.266H83.4878C83.2638 250.799 82.9465 250.449 82.5358 250.216C82.1345 249.983 81.6678 249.866 81.1358 249.866C80.5665 249.866 80.0578 250.001 79.6098 250.272C79.1712 250.533 78.8258 250.907 78.5738 251.392C78.3312 251.877 78.2098 252.447 78.2098 253.1C78.2098 253.744 78.3312 254.313 78.5738 254.808C78.8258 255.293 79.1712 255.671 79.6098 255.942C80.0578 256.203 80.5665 256.334 81.1358 256.334C81.6678 256.334 82.1345 256.217 82.5358 255.984C82.9465 255.741 83.2638 255.387 83.4878 254.92H85.7418C85.4152 255.919 84.8412 256.698 84.0198 257.258C83.2078 257.809 82.2512 258.084 81.1498 258.084C80.2165 258.084 79.3718 257.874 78.6158 257.454C77.8692 257.025 77.2765 256.432 76.8378 255.676C76.4085 254.92 76.1938 254.061 76.1938 253.1ZM98.0699 248.228V258H96.1099V251.644L93.4919 258H92.0079L89.3759 251.644V258H87.4159V248.228H89.6419L92.7499 255.494L95.8579 248.228H98.0699ZM102.84 254.094C102.84 253.31 102.994 252.615 103.302 252.008C103.619 251.401 104.044 250.935 104.576 250.608C105.117 250.281 105.719 250.118 106.382 250.118C106.96 250.118 107.464 250.235 107.894 250.468C108.332 250.701 108.682 250.995 108.944 251.35V250.244H110.918V258H108.944V256.866C108.692 257.23 108.342 257.533 107.894 257.776C107.455 258.009 106.946 258.126 106.368 258.126C105.714 258.126 105.117 257.958 104.576 257.622C104.044 257.286 103.619 256.815 103.302 256.208C102.994 255.592 102.84 254.887 102.84 254.094ZM108.944 254.122C108.944 253.646 108.85 253.24 108.664 252.904C108.477 252.559 108.225 252.297 107.908 252.12C107.59 251.933 107.25 251.84 106.886 251.84C106.522 251.84 106.186 251.929 105.878 252.106C105.57 252.283 105.318 252.545 105.122 252.89C104.935 253.226 104.842 253.627 104.842 254.094C104.842 254.561 104.935 254.971 105.122 255.326C105.318 255.671 105.57 255.937 105.878 256.124C106.195 256.311 106.531 256.404 106.886 256.404C107.25 256.404 107.59 256.315 107.908 256.138C108.225 255.951 108.477 255.69 108.664 255.354C108.85 255.009 108.944 254.598 108.944 254.122ZM115.114 251.854V255.606C115.114 255.867 115.175 256.059 115.296 256.18C115.427 256.292 115.641 256.348 115.94 256.348H116.85V258H115.618C113.966 258 113.14 257.197 113.14 255.592V251.854H112.216V250.244H113.14V248.326H115.114V250.244H116.85V251.854H115.114ZM123.528 248.228V254.276C123.528 254.939 123.7 255.447 124.046 255.802C124.391 256.147 124.876 256.32 125.502 256.32C126.136 256.32 126.626 256.147 126.972 255.802C127.317 255.447 127.49 254.939 127.49 254.276V248.228H129.464V254.262C129.464 255.093 129.282 255.797 128.918 256.376C128.563 256.945 128.082 257.375 127.476 257.664C126.878 257.953 126.211 258.098 125.474 258.098C124.746 258.098 124.083 257.953 123.486 257.664C122.898 257.375 122.431 256.945 122.086 256.376C121.74 255.797 121.568 255.093 121.568 254.262V248.228H123.528ZM130.881 253.1C130.881 252.139 131.096 251.28 131.525 250.524C131.964 249.759 132.557 249.166 133.303 248.746C134.059 248.317 134.904 248.102 135.837 248.102C136.929 248.102 137.886 248.382 138.707 248.942C139.529 249.502 140.103 250.277 140.429 251.266H138.175C137.951 250.799 137.634 250.449 137.223 250.216C136.822 249.983 136.355 249.866 135.823 249.866C135.254 249.866 134.745 250.001 134.297 250.272C133.859 250.533 133.513 250.907 133.261 251.392C133.019 251.877 132.897 252.447 132.897 253.1C132.897 253.744 133.019 254.313 133.261 254.808C133.513 255.293 133.859 255.671 134.297 255.942C134.745 256.203 135.254 256.334 135.823 256.334C136.355 256.334 136.822 256.217 137.223 255.984C137.634 255.741 137.951 255.387 138.175 254.92H140.429C140.103 255.919 139.529 256.698 138.707 257.258C137.895 257.809 136.939 258.084 135.837 258.084C134.904 258.084 134.059 257.874 133.303 257.454C132.557 257.025 131.964 256.432 131.525 255.676C131.096 254.92 130.881 254.061 130.881 253.1ZM144.063 256.446H147.283V258H142.103V248.228H144.063V256.446ZM154.521 256.138H150.629L149.985 258H147.927L151.441 248.214H153.723L157.237 258H155.165L154.521 256.138ZM153.989 254.57L152.575 250.482L151.161 254.57H153.989Z" fill="#131313"/>
<path d="M303.5 383.138H299.608L298.964 385H296.906L300.42 375.214H302.702L306.216 385H304.144L303.5 383.138ZM302.968 381.57L301.554 377.482L300.14 381.57H302.968ZM307.053 380.1C307.053 379.139 307.268 378.28 307.697 377.524C308.136 376.759 308.729 376.166 309.475 375.746C310.231 375.317 311.076 375.102 312.009 375.102C313.101 375.102 314.058 375.382 314.879 375.942C315.701 376.502 316.275 377.277 316.601 378.266H314.347C314.123 377.799 313.806 377.449 313.395 377.216C312.994 376.983 312.527 376.866 311.995 376.866C311.426 376.866 310.917 377.001 310.469 377.272C310.031 377.533 309.685 377.907 309.433 378.392C309.191 378.877 309.069 379.447 309.069 380.1C309.069 380.744 309.191 381.313 309.433 381.808C309.685 382.293 310.031 382.671 310.469 382.942C310.917 383.203 311.426 383.334 311.995 383.334C312.527 383.334 312.994 383.217 313.395 382.984C313.806 382.741 314.123 382.387 314.347 381.92H316.601C316.275 382.919 315.701 383.698 314.879 384.258C314.067 384.809 313.111 385.084 312.009 385.084C311.076 385.084 310.231 384.874 309.475 384.454C308.729 384.025 308.136 383.432 307.697 382.676C307.268 381.92 307.053 381.061 307.053 380.1ZM328.929 375.228V385H326.969V378.644L324.351 385H322.867L320.235 378.644V385H318.275V375.228H320.501L323.609 382.494L326.717 375.228H328.929ZM333.699 381.094C333.699 380.31 333.853 379.615 334.161 379.008C334.478 378.401 334.903 377.935 335.435 377.608C335.976 377.281 336.578 377.118 337.241 377.118C337.82 377.118 338.324 377.235 338.753 377.468C339.192 377.701 339.542 377.995 339.803 378.35V377.244H341.777V385H339.803V383.866C339.551 384.23 339.201 384.533 338.753 384.776C338.314 385.009 337.806 385.126 337.227 385.126C336.574 385.126 335.976 384.958 335.435 384.622C334.903 384.286 334.478 383.815 334.161 383.208C333.853 382.592 333.699 381.887 333.699 381.094ZM339.803 381.122C339.803 380.646 339.71 380.24 339.523 379.904C339.336 379.559 339.084 379.297 338.767 379.12C338.45 378.933 338.109 378.84 337.745 378.84C337.381 378.84 337.045 378.929 336.737 379.106C336.429 379.283 336.177 379.545 335.981 379.89C335.794 380.226 335.701 380.627 335.701 381.094C335.701 381.561 335.794 381.971 335.981 382.326C336.177 382.671 336.429 382.937 336.737 383.124C337.054 383.311 337.39 383.404 337.745 383.404C338.109 383.404 338.45 383.315 338.767 383.138C339.084 382.951 339.336 382.69 339.523 382.354C339.71 382.009 339.803 381.598 339.803 381.122ZM345.973 378.854V382.606C345.973 382.867 346.034 383.059 346.155 383.18C346.286 383.292 346.501 383.348 346.799 383.348H347.709V385H346.477C344.825 385 343.999 384.197 343.999 382.592V378.854H343.075V377.244H343.999V375.326H345.973V377.244H347.709V378.854H345.973ZM354.387 375.228V381.276C354.387 381.939 354.56 382.447 354.905 382.802C355.25 383.147 355.736 383.32 356.361 383.32C356.996 383.32 357.486 383.147 357.831 382.802C358.176 382.447 358.349 381.939 358.349 381.276V375.228H360.323V381.262C360.323 382.093 360.141 382.797 359.777 383.376C359.422 383.945 358.942 384.375 358.335 384.664C357.738 384.953 357.07 385.098 356.333 385.098C355.605 385.098 354.942 384.953 354.345 384.664C353.757 384.375 353.29 383.945 352.945 383.376C352.6 382.797 352.427 382.093 352.427 381.262V375.228H354.387ZM361.741 380.1C361.741 379.139 361.955 378.28 362.385 377.524C362.823 376.759 363.416 376.166 364.163 375.746C364.919 375.317 365.763 375.102 366.697 375.102C367.789 375.102 368.745 375.382 369.567 375.942C370.388 376.502 370.962 377.277 371.289 378.266H369.035C368.811 377.799 368.493 377.449 368.083 377.216C367.681 376.983 367.215 376.866 366.683 376.866C366.113 376.866 365.605 377.001 365.157 377.272C364.718 377.533 364.373 377.907 364.121 378.392C363.878 378.877 363.757 379.447 363.757 380.1C363.757 380.744 363.878 381.313 364.121 381.808C364.373 382.293 364.718 382.671 365.157 382.942C365.605 383.203 366.113 383.334 366.683 383.334C367.215 383.334 367.681 383.217 368.083 382.984C368.493 382.741 368.811 382.387 369.035 381.92H371.289C370.962 382.919 370.388 383.698 369.567 384.258C368.755 384.809 367.798 385.084 366.697 385.084C365.763 385.084 364.919 384.874 364.163 384.454C363.416 384.025 362.823 383.432 362.385 382.676C361.955 381.92 361.741 381.061 361.741 380.1ZM374.923 383.446H378.143V385H372.963V375.228H374.923V383.446ZM385.381 383.138H381.489L380.845 385H378.787L382.301 375.214H384.583L388.097 385H386.025L385.381 383.138ZM384.849 381.57L383.435 377.482L382.021 381.57H384.849ZM396.162 375.228C397.189 375.228 398.089 375.429 398.864 375.83C399.648 376.231 400.25 376.805 400.67 377.552C401.099 378.289 401.314 379.148 401.314 380.128C401.314 381.108 401.099 381.967 400.67 382.704C400.25 383.432 399.648 383.997 398.864 384.398C398.089 384.799 397.189 385 396.162 385H392.746V375.228H396.162ZM396.092 383.334C397.119 383.334 397.912 383.054 398.472 382.494C399.032 381.934 399.312 381.145 399.312 380.128C399.312 379.111 399.032 378.317 398.472 377.748C397.912 377.169 397.119 376.88 396.092 376.88H394.706V383.334H396.092ZM409.991 380.954C409.991 381.234 409.973 381.486 409.935 381.71H404.265C404.312 382.27 404.508 382.709 404.853 383.026C405.199 383.343 405.623 383.502 406.127 383.502C406.855 383.502 407.373 383.189 407.681 382.564H409.795C409.571 383.311 409.142 383.927 408.507 384.412C407.873 384.888 407.093 385.126 406.169 385.126C405.423 385.126 404.751 384.963 404.153 384.636C403.565 384.3 403.103 383.829 402.767 383.222C402.441 382.615 402.277 381.915 402.277 381.122C402.277 380.319 402.441 379.615 402.767 379.008C403.094 378.401 403.551 377.935 404.139 377.608C404.727 377.281 405.404 377.118 406.169 377.118C406.907 377.118 407.565 377.277 408.143 377.594C408.731 377.911 409.184 378.364 409.501 378.952C409.828 379.531 409.991 380.198 409.991 380.954ZM407.961 380.394C407.952 379.89 407.77 379.489 407.415 379.19C407.061 378.882 406.627 378.728 406.113 378.728C405.628 378.728 405.217 378.877 404.881 379.176C404.555 379.465 404.354 379.871 404.279 380.394H407.961ZM414.39 385.126C413.755 385.126 413.186 385.014 412.682 384.79C412.178 384.557 411.776 384.244 411.478 383.852C411.188 383.46 411.03 383.026 411.002 382.55H412.976C413.013 382.849 413.158 383.096 413.41 383.292C413.671 383.488 413.993 383.586 414.376 383.586C414.749 383.586 415.038 383.511 415.244 383.362C415.458 383.213 415.566 383.021 415.566 382.788C415.566 382.536 415.435 382.349 415.174 382.228C414.922 382.097 414.516 381.957 413.956 381.808C413.377 381.668 412.901 381.523 412.528 381.374C412.164 381.225 411.846 380.996 411.576 380.688C411.314 380.38 411.184 379.965 411.184 379.442C411.184 379.013 411.305 378.621 411.548 378.266C411.8 377.911 412.154 377.631 412.612 377.426C413.078 377.221 413.624 377.118 414.25 377.118C415.174 377.118 415.911 377.351 416.462 377.818C417.012 378.275 417.316 378.896 417.372 379.68H415.496C415.468 379.372 415.337 379.129 415.104 378.952C414.88 378.765 414.576 378.672 414.194 378.672C413.839 378.672 413.564 378.737 413.368 378.868C413.181 378.999 413.088 379.181 413.088 379.414C413.088 379.675 413.218 379.876 413.48 380.016C413.741 380.147 414.147 380.282 414.698 380.422C415.258 380.562 415.72 380.707 416.084 380.856C416.448 381.005 416.76 381.239 417.022 381.556C417.292 381.864 417.432 382.275 417.442 382.788C417.442 383.236 417.316 383.637 417.064 383.992C416.821 384.347 416.466 384.627 416 384.832C415.542 385.028 415.006 385.126 414.39 385.126ZM420.045 376.32C419.699 376.32 419.41 376.213 419.177 375.998C418.953 375.774 418.841 375.499 418.841 375.172C418.841 374.845 418.953 374.575 419.177 374.36C419.41 374.136 419.699 374.024 420.045 374.024C420.39 374.024 420.675 374.136 420.899 374.36C421.132 374.575 421.249 374.845 421.249 375.172C421.249 375.499 421.132 375.774 420.899 375.998C420.675 376.213 420.39 376.32 420.045 376.32ZM421.011 377.244V385H419.051V377.244H421.011ZM425.985 377.118C426.564 377.118 427.073 377.235 427.511 377.468C427.95 377.692 428.295 377.986 428.547 378.35V377.244H430.521V385.056C430.521 385.775 430.377 386.414 430.087 386.974C429.798 387.543 429.364 387.991 428.785 388.318C428.207 388.654 427.507 388.822 426.685 388.822C425.584 388.822 424.679 388.565 423.969 388.052C423.269 387.539 422.873 386.839 422.779 385.952H424.725C424.828 386.307 425.047 386.587 425.383 386.792C425.729 387.007 426.144 387.114 426.629 387.114C427.199 387.114 427.661 386.941 428.015 386.596C428.37 386.26 428.547 385.747 428.547 385.056V383.852C428.295 384.216 427.945 384.519 427.497 384.762C427.059 385.005 426.555 385.126 425.985 385.126C425.332 385.126 424.735 384.958 424.193 384.622C423.652 384.286 423.223 383.815 422.905 383.208C422.597 382.592 422.443 381.887 422.443 381.094C422.443 380.31 422.597 379.615 422.905 379.008C423.223 378.401 423.647 377.935 424.179 377.608C424.721 377.281 425.323 377.118 425.985 377.118ZM428.547 381.122C428.547 380.646 428.454 380.24 428.267 379.904C428.081 379.559 427.829 379.297 427.511 379.12C427.194 378.933 426.853 378.84 426.489 378.84C426.125 378.84 425.789 378.929 425.481 379.106C425.173 379.283 424.921 379.545 424.725 379.89C424.539 380.226 424.445 380.627 424.445 381.094C424.445 381.561 424.539 381.971 424.725 382.326C424.921 382.671 425.173 382.937 425.481 383.124C425.799 383.311 426.135 383.404 426.489 383.404C426.853 383.404 427.194 383.315 427.511 383.138C427.829 382.951 428.081 382.69 428.267 382.354C428.454 382.009 428.547 381.598 428.547 381.122ZM436.733 377.132C437.657 377.132 438.404 377.426 438.973 378.014C439.543 378.593 439.827 379.405 439.827 380.45V385H437.867V380.716C437.867 380.1 437.713 379.629 437.405 379.302C437.097 378.966 436.677 378.798 436.145 378.798C435.604 378.798 435.175 378.966 434.857 379.302C434.549 379.629 434.395 380.1 434.395 380.716V385H432.435V377.244H434.395V378.21C434.657 377.874 434.988 377.613 435.389 377.426C435.8 377.23 436.248 377.132 436.733 377.132Z" fill="#131313"/>
<path d="M333.706 248.228V254.276C333.706 254.939 333.879 255.447 334.224 255.802C334.57 256.147 335.055 256.32 335.68 256.32C336.315 256.32 336.805 256.147 337.15 255.802C337.496 255.447 337.668 254.939 337.668 254.276V248.228H339.642V254.262C339.642 255.093 339.46 255.797 339.096 256.376C338.742 256.945 338.261 257.375 337.654 257.664C337.057 257.953 336.39 258.098 335.652 258.098C334.924 258.098 334.262 257.953 333.664 257.664C333.076 257.375 332.61 256.945 332.264 256.376C331.919 255.797 331.746 255.093 331.746 254.262V248.228H333.706ZM341.06 253.1C341.06 252.139 341.275 251.28 341.704 250.524C342.143 249.759 342.735 249.166 343.482 248.746C344.238 248.317 345.083 248.102 346.016 248.102C347.108 248.102 348.065 248.382 348.886 248.942C349.707 249.502 350.281 250.277 350.608 251.266H348.354C348.13 250.799 347.813 250.449 347.402 250.216C347.001 249.983 346.534 249.866 346.002 249.866C345.433 249.866 344.924 250.001 344.476 250.272C344.037 250.533 343.692 250.907 343.44 251.392C343.197 251.877 343.076 252.447 343.076 253.1C343.076 253.744 343.197 254.313 343.44 254.808C343.692 255.293 344.037 255.671 344.476 255.942C344.924 256.203 345.433 256.334 346.002 256.334C346.534 256.334 347.001 256.217 347.402 255.984C347.813 255.741 348.13 255.387 348.354 254.92H350.608C350.281 255.919 349.707 256.698 348.886 257.258C348.074 257.809 347.117 258.084 346.016 258.084C345.083 258.084 344.238 257.874 343.482 257.454C342.735 257.025 342.143 256.432 341.704 255.676C341.275 254.92 341.06 254.061 341.06 253.1ZM354.242 256.446H357.462V258H352.282V248.228H354.242V256.446ZM364.7 256.138H360.808L360.164 258H358.106L361.62 248.214H363.902L367.416 258H365.344L364.7 256.138ZM364.168 254.57L362.754 250.482L361.34 254.57H364.168ZM378.057 256.138H374.165L373.521 258H371.463L374.977 248.214H377.259L380.773 258H378.701L378.057 256.138ZM377.525 254.57L376.111 250.482L374.697 254.57H377.525ZM381.611 253.1C381.611 252.139 381.826 251.28 382.255 250.524C382.694 249.759 383.286 249.166 384.033 248.746C384.789 248.317 385.634 248.102 386.567 248.102C387.659 248.102 388.616 248.382 389.437 248.942C390.258 249.502 390.832 250.277 391.159 251.266H388.905C388.681 250.799 388.364 250.449 387.953 250.216C387.552 249.983 387.085 249.866 386.553 249.866C385.984 249.866 385.475 250.001 385.027 250.272C384.588 250.533 384.243 250.907 383.991 251.392C383.748 251.877 383.627 252.447 383.627 253.1C383.627 253.744 383.748 254.313 383.991 254.808C384.243 255.293 384.588 255.671 385.027 255.942C385.475 256.203 385.984 256.334 386.553 256.334C387.085 256.334 387.552 256.217 387.953 255.984C388.364 255.741 388.681 255.387 388.905 254.92H391.159C390.832 255.919 390.258 256.698 389.437 257.258C388.625 257.809 387.668 258.084 386.567 258.084C385.634 258.084 384.789 257.874 384.033 257.454C383.286 257.025 382.694 256.432 382.255 255.676C381.826 254.92 381.611 254.061 381.611 253.1ZM403.487 248.228V258H401.527V251.644L398.909 258H397.425L394.793 251.644V258H392.833V248.228H395.059L398.167 255.494L401.275 248.228H403.487Z" fill="#131313"/>
<defs>
<clipPath id="clip0">
<rect width="127.277" height="50.9619" fill="white" transform="translate(61.3088 51.5771)"/>
</clipPath>
<clipPath id="clip1">
<rect width="127.277" height="50.9619" fill="white" transform="translate(50.8661 496.043)"/>
</clipPath>
</defs>
</svg>
