<svg width="480" height="251" viewBox="0 0 480 251" fill="none" xmlns="http://www.w3.org/2000/svg">
<rect y="0.382812" width="479.29" height="250.119" rx="7.84435" fill="#EAEAEA"/>
<path d="M167.704 117.175H182.763V121.474H167.704V117.175Z" fill="black"/>
<path d="M178.608 139.103C172.855 139.103 171.896 136.116 171.896 132.491H176.877C176.877 133.715 177.104 134.559 180.804 134.559H182.435L182.435 138.98C180.863 139.103 180.611 139.103 178.608 139.103H178.608Z" fill="black"/>
<path d="M122.672 106.914L117.29 106.914L107.319 139.119H112.701L122.672 106.914Z" fill="black"/>
<path d="M78 106.914L83.3814 106.914L93.3523 139.119H87.9709L78 106.914Z" fill="black"/>
<path d="M97.9043 106.914L103.418 106.914L112.216 139.119L106.702 139.119L97.9043 106.914Z" fill="black"/>
<path d="M102.767 106.914L97.2531 106.914L88.4551 139.119L93.9691 139.119L102.767 106.914Z" fill="black"/>
<path d="M133.114 139.411C139.742 139.411 144.569 134.695 144.219 130.852L132.886 131.64L126.487 127.527L121.687 127.984C121.687 134.295 126.715 139.411 133.114 139.411Z" fill="black"/>
<path d="M133.114 116.557C126.944 116.557 121.687 121.673 121.687 127.984L144.045 130.328C145.4 121.709 139.285 116.557 133.114 116.557Z" fill="black"/>
<path d="M139.427 127.984C139.427 131.783 136.98 134.862 133.095 134.862C129.21 134.862 126.201 131.783 126.201 127.984C126.201 124.186 129.21 121.107 133.095 121.107C136.98 121.107 139.427 124.683 139.427 127.984Z" fill="#EAEAEA"/>
<path d="M140.485 128.248C140.56 131.967 136.929 134.861 132.941 134.861C129.142 134.861 126.201 131.845 126.201 128.126C126.201 124.406 129.555 127.845 133.353 127.845C137.342 127.845 140.443 126.205 140.485 128.248Z" fill="#EAEAEA"/>
<path d="M144.055 130.111L134.028 127.356V130.041L146.141 135.755L145.905 130.111H144.055Z" fill="#EAEAEA"/>
<path d="M124.698 125.957L141.26 125.957L144.045 130.114H143.521H124.698L124.698 125.957Z" fill="black"/>
<path fill-rule="evenodd" clip-rule="evenodd" d="M155.098 116.492C160.65 115.805 163.754 119.043 164.636 121.282L160.085 123.074C159.935 122.693 158.811 120.961 155.699 121.346C153.537 121.613 152.832 122.538 152.706 122.866C152.65 123.013 152.656 123.122 152.709 123.243C152.769 123.382 152.965 123.686 153.539 124.006C155.06 124.852 156.182 125.168 157.408 125.514C157.519 125.546 157.631 125.577 157.744 125.609C159.198 126.024 160.774 126.532 162.629 127.986C163.883 128.969 164.6 130.298 164.749 131.741C164.892 133.129 164.496 134.451 163.859 135.534C162.618 137.648 160.155 139.362 157.25 139.375C154.936 139.434 152.813 139.289 151.003 138.48C149.04 137.603 147.754 136.095 146.829 134.107L151.263 132.044C151.828 133.258 152.375 133.737 152.999 134.016C153.768 134.359 154.974 134.543 157.151 134.486L157.183 134.485H157.215C158.206 134.485 159.17 133.861 159.643 133.057C159.866 132.677 159.899 132.389 159.884 132.242C159.874 132.151 159.846 132.019 159.612 131.835C158.489 130.955 157.62 130.659 156.404 130.313C156.294 130.281 156.18 130.25 156.064 130.217C154.803 129.863 153.196 129.412 151.161 128.279C149.841 127.545 148.793 126.502 148.224 125.194C147.647 123.866 147.637 122.427 148.139 121.116C149.131 118.527 151.846 116.894 155.098 116.492Z" fill="black"/>
<path d="M154.031 125.981L155.158 120.925L151.244 122.752L154.031 125.981Z" fill="black"/>
<path d="M156.334 120.739C158.698 120.773 160.53 122.62 160.927 123.5L158.587 125.8C157.013 125.412 155.096 124.932 153.786 124.344C152.874 123.933 152.565 123.09 152.787 122.422C152.98 121.84 153.55 120.698 156.334 120.739Z" fill="#EAEAEA"/>
<path d="M155.53 136.58L155.353 128.801L164.279 132.898L155.53 136.58Z" fill="black"/>
<path d="M159.454 131.762C158.196 130.091 154.089 129.761 152.411 128.981L150.14 130.091L150.761 131.433C150.761 131.433 151.411 133.18 152.93 134.037C154.449 134.894 156.133 135.051 157.67 134.708C159.837 134.223 160.007 132.497 159.454 131.762Z" fill="#EAEAEA"/>
<path d="M151.922 128.607C150.973 128.189 150.005 127.566 149.67 127.276L150.624 130.866L155.76 129.944C153.228 129.241 152.959 129.063 151.922 128.607Z" fill="#EAEAEA"/>
<rect x="171.896" y="110.767" width="4.98953" height="22.2002" fill="black"/>
<path d="M186.636 117.059L191.503 116.991L196.864 138.974L192.692 138.974L186.636 117.059Z" fill="black"/>
<path d="M217.062 117.059L212.195 116.991L206.834 138.974L211.007 138.974L217.062 117.059Z" fill="black"/>
<path d="M204.198 116.991L199.44 116.991L193.006 138.974L197.31 138.974L204.198 116.991Z" fill="black"/>
<path d="M199.501 116.991L204.258 116.991L210.692 138.974L206.389 138.974L199.501 116.991Z" fill="black"/>
<path d="M241.091 127.989C241.091 134.152 236.404 139.149 229.931 139.149C223.681 139.149 218.77 134.152 218.77 127.989C218.77 121.825 223.904 116.828 229.931 116.828C235.957 116.828 241.091 121.825 241.091 127.989Z" fill="black"/>
<path d="M265.927 127.989C265.927 134.152 261.24 139.149 254.766 139.149C248.517 139.149 243.606 134.152 243.606 127.989C243.606 121.825 248.74 116.828 254.766 116.828C260.793 116.828 265.927 121.825 265.927 127.989Z" fill="black"/>
<path d="M236.416 127.988C236.416 131.57 233.692 134.473 229.931 134.473C226.299 134.473 223.445 131.57 223.445 127.988C223.445 124.406 226.428 121.503 229.931 121.503C233.433 121.503 236.416 124.406 236.416 127.988Z" fill="#EAEAEA"/>
<path d="M261.252 127.988C261.252 131.57 258.528 134.473 254.766 134.473C251.135 134.473 248.281 131.57 248.281 127.988C248.281 124.406 251.264 121.503 254.766 121.503C258.269 121.503 261.252 124.406 261.252 127.988Z" fill="#EAEAEA"/>
<path d="M291.828 128.016C291.828 134.899 286.906 139.369 280.606 139.369C274.306 139.369 269.199 134.286 269.199 128.016C269.199 121.746 274.306 116.663 280.606 116.663C286.906 116.663 291.828 121.133 291.828 128.016Z" fill="black"/>
<rect x="287.964" y="106.183" width="4.98953" height="32.837" fill="black"/>
<path d="M287.964 128.016C287.964 131.966 285.172 134.929 281.195 134.929C277.218 134.929 274.138 131.834 274.138 128.016C274.138 124.198 277.218 121.103 281.195 121.103C285.172 121.103 287.964 124.066 287.964 128.016Z" fill="#EAEAEA"/>
<path d="M334.525 129.569C334.439 135.283 330.152 139.621 323.794 139.525C316.385 139.412 314.463 129.981 311.045 129.929C311.125 124.709 316.723 128.565 323.082 128.662C329.441 128.759 330.101 129.056 334.525 129.569Z" fill="black"/>
<path d="M317.112 131.161L322.734 136.558L329.201 130.421L323.836 123.296L317.112 131.161Z" fill="black"/>
<path d="M322.746 136.564L323.851 122.284L333.934 130.829L322.746 136.564Z" fill="black"/>
<path fill-rule="evenodd" clip-rule="evenodd" d="M330.904 108.142C332.848 109.538 333.958 111.366 334.532 112.675L330.052 114.637C329.714 113.865 329.078 112.852 328.052 112.115C327.086 111.421 325.616 110.853 323.31 111.154C320.408 111.532 318.957 113.02 318.511 114.269C318.094 115.439 318.363 116.875 320 117.984C321.679 119.122 323.115 119.566 324.846 120.1C324.997 120.147 325.149 120.194 325.305 120.242C327.291 120.861 329.516 121.639 331.975 123.73C335.248 126.514 334.965 130.797 333.394 133.824C331.803 136.891 328.508 139.589 324.342 139.589C320.973 139.589 318.526 138.991 316.541 137.641C314.768 136.434 313.575 134.738 312.482 133.185C312.418 133.093 312.354 133.002 312.29 132.911L316.286 130.092C317.579 131.924 318.295 132.918 319.293 133.597C320.184 134.204 321.545 134.698 324.342 134.698C326.293 134.698 328.107 133.394 329.053 131.571C330.02 129.709 329.702 128.217 328.806 127.455C327.096 126 325.615 125.461 323.851 124.912C323.693 124.863 323.531 124.813 323.367 124.763C321.645 124.235 319.563 123.596 317.256 122.033C313.875 119.741 312.699 116.01 313.905 112.627C315.082 109.323 318.322 106.872 322.678 106.304C326.177 105.848 328.9 106.703 330.904 108.142Z" fill="black"/>
<path d="M322.623 111.887L329.04 123.732L316.214 116.651L317.943 110.204L322.623 111.887Z" fill="black"/>
<path d="M324.606 110.864C328.202 110.993 330.437 114.537 331.013 116.436L330.903 122.881C327.602 120.651 323.383 120.035 320.652 118.44C319.232 117.611 318.256 116.484 318.502 114.563C318.731 112.773 320.454 110.714 324.606 110.864Z" fill="#EAEAEA"/>
<path d="M318.113 123.926C316.854 123.249 315.574 122.247 315.132 121.784L316.323 127.46L323.212 126.112C319.843 124.953 319.488 124.666 318.113 123.926Z" fill="#EAEAEA"/>
<path d="M309.09 135.019L317.269 130.492L317.939 125.879L310.003 124.534L309.09 135.019Z" fill="#EAEAEA"/>
<path d="M329.288 128.368C328.01 125.289 323.191 125.282 318.495 122.816L313.955 124.764L314.36 127.398L329.288 128.368Z" fill="#EAEAEA"/>
<path d="M329.579 129.458C329.533 132.478 327.101 134.766 323.444 134.71C319.342 134.648 317.925 132.291 316.503 130.318C315.062 124.275 324.603 126.902 328.261 126.958C329.307 127.897 329.589 128.801 329.579 129.458Z" fill="#EAEAEA"/>
<path d="M360.381 127.823C360.381 134.706 355.459 139.176 349.16 139.176C342.86 139.176 337.753 134.093 337.753 127.823C337.753 121.553 342.86 116.47 349.16 116.47C355.459 116.47 360.381 120.94 360.381 127.823Z" fill="black"/>
<rect x="356.518" y="116.827" width="4.98953" height="21.9998" fill="black"/>
<path d="M356.518 127.823C356.518 131.773 353.726 134.736 349.749 134.736C345.772 134.736 342.692 131.641 342.692 127.823C342.692 124.005 345.772 120.91 349.749 120.91C353.726 120.91 356.518 123.873 356.518 127.823Z" fill="#EAEAEA"/>
<path d="M382.774 125.029L387.763 124.505V138.478H382.774V125.029Z" fill="black"/>
<path d="M378.716 115.771C384.754 115.771 387.763 120.115 387.763 124.669L382.77 125.86C382.77 123.891 381.578 120.753 377.635 120.753C373.692 120.753 372.393 123.849 372.393 126.272L369.947 122.723C370.458 119.127 372.66 115.771 378.716 115.771Z" fill="black"/>
<rect x="367.408" y="116.457" width="4.98953" height="22.0207" fill="black"/>
<path fill-rule="evenodd" clip-rule="evenodd" d="M399.708 115.908C405.259 115.222 408.364 118.46 409.245 120.698L404.695 122.49C404.545 122.109 403.42 120.377 400.308 120.762C398.146 121.029 397.441 121.954 397.316 122.282C397.259 122.43 397.266 122.539 397.318 122.659C397.379 122.798 397.574 123.102 398.149 123.422C399.67 124.269 400.791 124.585 402.018 124.931C402.128 124.962 402.24 124.994 402.353 125.026C403.807 125.44 405.383 125.949 407.238 127.402C408.492 128.385 409.209 129.714 409.358 131.158C409.501 132.546 409.105 133.868 408.469 134.951C407.227 137.065 404.765 138.778 401.859 138.792C399.545 138.851 397.422 138.706 395.612 137.897C393.65 137.019 392.363 135.512 391.438 133.524L395.873 131.461C396.437 132.675 396.984 133.153 397.608 133.432C398.377 133.776 399.583 133.959 401.76 133.902L401.792 133.901H401.824C402.815 133.901 403.779 133.277 404.252 132.473C404.475 132.093 404.508 131.806 404.493 131.659C404.484 131.567 404.456 131.435 404.221 131.251C403.098 130.371 402.23 130.076 401.014 129.729C400.903 129.698 400.79 129.666 400.673 129.633C399.412 129.279 397.805 128.828 395.77 127.696C394.451 126.961 393.403 125.919 392.834 124.61C392.256 123.283 392.246 121.844 392.749 120.532C393.741 117.943 396.455 116.311 399.708 115.908Z" fill="black"/>
<path d="M398.64 125.397L399.767 120.341L395.854 122.168L398.64 125.397Z" fill="black"/>
<path d="M400.943 120.155C403.307 120.19 405.139 122.036 405.537 122.916L403.196 125.216C401.622 124.828 399.705 124.349 398.396 123.76C397.483 123.35 397.174 122.507 397.396 121.838C397.589 121.257 398.16 120.114 400.943 120.155Z" fill="#EAEAEA"/>
<path d="M400.139 135.997L399.962 128.217L408.888 132.315L400.139 135.997Z" fill="black"/>
<path d="M404.063 131.179C402.805 129.508 398.699 129.178 397.02 128.398L394.749 129.508L395.37 130.85C395.37 130.85 396.02 132.597 397.539 133.454C399.058 134.311 400.743 134.468 402.28 134.125C404.446 133.64 404.617 131.914 404.063 131.179Z" fill="#EAEAEA"/>
<path d="M396.532 128.022C395.582 127.605 394.614 126.981 394.279 126.692L395.234 130.281L400.369 129.36C397.837 128.657 397.568 128.478 396.532 128.022Z" fill="#EAEAEA"/>
</svg>
