<svg width="24" height="24" viewBox="0 0 16 16" fill="none" xmlns="http://www.w3.org/2000/svg">
<path fill-rule="evenodd" clip-rule="evenodd" d="M10.7121 1.1234C9.21425 -0.374452 6.78575 -0.374452 5.2879 1.1234L1.12339 5.28791C-0.374462 6.78576 -0.374463 9.21426 1.12339 10.7121L5.2879 14.8766C6.78575 16.3745 9.21425 16.3745 10.7121 14.8766L14.8766 10.7121C16.3745 9.21426 16.3745 6.78576 14.8766 5.28791L10.7121 1.1234ZM5.55575 6.63379H4.77456V6.85157C4.55424 6.69036 4.28408 6.58944 3.98146 6.58944C3.19881 6.58944 2.60459 7.22093 2.60459 7.99991C2.60459 8.7789 3.19881 9.41039 3.98146 9.41039C4.28343 9.41039 4.55383 9.31436 4.77456 9.15724V9.36694H5.55575V6.63379ZM4.06724 7.30229C4.4663 7.30229 4.7712 7.59794 4.77456 7.99321V8.00643C4.7712 8.4017 4.4663 8.69735 4.06724 8.69735C3.66595 8.69735 3.35518 8.38505 3.35518 7.99982C3.35518 7.61459 3.66595 7.30229 4.06724 7.30229ZM7.97841 7.72803L8.6938 7.3957C8.46339 6.91911 7.97208 6.5896 7.4219 6.5896C6.66025 6.5896 6.01143 7.22109 6.01143 8.00008C6.01143 8.77906 6.63204 9.41055 7.4219 9.41055C8.0085 9.41055 8.47907 9.08586 8.6984 8.61492L7.9845 8.27829C7.8959 8.49415 7.70067 8.64317 7.43452 8.64317C7.06457 8.64317 6.77806 8.35526 6.77806 8.00011C6.77806 7.64495 7.06457 7.35704 7.43452 7.35704C7.69473 7.35704 7.88715 7.52248 7.97841 7.72803ZM9.13611 6.63329H9.91729V6.94146C10.0699 6.7492 10.3026 6.58965 10.6175 6.58965C11.0002 6.58965 11.2766 6.75198 11.4471 6.99112C11.6162 6.75752 11.8713 6.58965 12.3534 6.58965C12.6208 6.58965 12.8363 6.66888 13 6.79818C13.2487 6.99453 13.378 7.30635 13.3885 7.63153L13.3892 7.63147V7.66729V7.66731C13.3892 7.66975 13.3892 7.67219 13.3892 7.67462L13.3892 7.67463V9.36744H12.608V7.81627C12.6059 7.57756 12.3897 7.36354 12.1307 7.36354C11.8719 7.36354 11.656 7.58517 11.6533 7.84347V9.36744H10.8721V7.81627C10.8699 7.57756 10.6538 7.36354 10.3947 7.36354C10.1343 7.36354 9.91733 7.58799 9.91733 7.84838L9.91729 7.84832V9.36742H9.13611V6.63329Z" fill="white"/>
</svg>
