<svg width="24" height="24" viewBox="0 0 16 16" fill="none" xmlns="http://www.w3.org/2000/svg">
<path fill-rule="evenodd" clip-rule="evenodd" d="M8 16C12.4183 16 16 12.4183 16 8C16 3.58172 12.4183 0 8 0C3.58172 0 0 3.58172 0 8C0 12.4183 3.58172 16 8 16ZM11.9047 5.12315C11.8889 5.09842 11.871 5.07903 11.8475 5.06133C11.6611 4.92121 10.7151 4.25188 9.50446 4.12194C9.50203 4.1217 9.49282 4.12121 9.49064 4.12121C9.46688 4.12121 9.44628 4.13503 9.43634 4.15515L9.37112 4.28558C9.367 4.29358 9.36458 4.30279 9.36458 4.31248C9.36458 4.33891 9.38155 4.36145 9.40531 4.3697C9.40676 4.37018 9.41694 4.37236 9.42058 4.37309C10.455 4.6223 11.0843 5.0737 11.6385 5.57188C10.6574 5.07103 9.68846 4.60194 7.99997 4.60194C6.31149 4.60194 5.34276 5.07127 4.36143 5.57188C4.91561 5.0737 5.54494 4.6223 6.57937 4.37309L6.58816 4.37114L6.59464 4.3697C6.6184 4.36145 6.63537 4.33891 6.63537 4.31248C6.63537 4.30279 6.63318 4.29358 6.62906 4.28558L6.56361 4.15515C6.55367 4.13503 6.53331 4.12121 6.50931 4.12121C6.50712 4.12121 6.49767 4.1217 6.49549 4.12194C5.28482 4.25188 4.33888 4.92121 4.15246 5.06133C4.12894 5.07903 4.11125 5.09842 4.09524 5.12315C3.92361 5.39152 2.87124 7.15661 2.66688 10.3673C2.6647 10.4017 2.67658 10.4373 2.69961 10.463C3.81282 11.7101 5.4104 11.8575 5.75125 11.8747C5.79173 11.8766 5.83052 11.8589 5.85476 11.8264L6.16555 11.4121C6.18979 11.3796 6.1767 11.3341 6.13864 11.3202C5.48288 11.0812 4.7527 10.6657 4.11876 9.93697C4.90446 10.5309 6.08967 11.1474 7.99997 11.1474C9.91028 11.1474 11.0955 10.5309 11.8809 9.93697C11.2468 10.6657 10.5168 11.081 9.86106 11.3202C9.823 11.3341 9.80991 11.3796 9.83415 11.4121L10.1449 11.8264C10.1694 11.8589 10.208 11.8768 10.2485 11.8747C10.5895 11.8572 12.1869 11.7101 13.3001 10.463C13.3231 10.4373 13.335 10.4017 13.3328 10.3673C13.1287 7.15661 12.0763 5.39152 11.9047 5.12315ZM9.57572 9.45043C10.0443 9.45043 10.4242 9.01628 10.4242 8.48073C10.4242 7.94519 10.0443 7.51104 9.57572 7.51104C9.10711 7.51104 8.72723 7.94519 8.72723 8.48073C8.72723 9.01628 9.10711 9.45043 9.57572 9.45043ZM7.27269 8.48073C7.27269 9.01628 6.89281 9.45043 6.4242 9.45043C5.9556 9.45043 5.57572 9.01628 5.57572 8.48073C5.57572 7.94519 5.9556 7.51104 6.4242 7.51104C6.89281 7.51104 7.27269 7.94519 7.27269 8.48073Z" fill="white"/>
</svg>
