<svg width="24" height="24" viewBox="0 0 16 16" fill="none" xmlns="http://www.w3.org/2000/svg">
<path fill-rule="evenodd" clip-rule="evenodd" d="M8 16C12.4183 16 16 12.4183 16 8C16 3.58172 12.4183 0 8 0C3.58172 0 0 3.58172 0 8C0 12.4183 3.58172 16 8 16ZM9.95178 4.06826C9.44246 4.04502 9.2897 4.04012 7.99998 4.04012C6.71026 4.04012 6.5575 4.04502 6.04816 4.06826C5.57724 4.08976 5.32148 4.16844 5.15128 4.23457C4.92582 4.3222 4.7649 4.42688 4.59588 4.5959C4.42687 4.76491 4.32218 4.92583 4.23458 5.15128C4.16843 5.3215 4.08974 5.57725 4.06825 6.04819C4.04501 6.55752 4.0401 6.71027 4.0401 7.99999C4.0401 9.28972 4.04501 9.44247 4.06825 9.95181C4.08974 10.4227 4.16843 10.6785 4.23458 10.8487C4.32218 11.0742 4.42687 11.2351 4.59588 11.4041C4.7649 11.5731 4.92582 11.6778 5.15128 11.7654C5.32148 11.8315 5.57724 11.9102 6.04818 11.9317C6.55743 11.955 6.71018 11.9599 7.99998 11.9599C9.28978 11.9599 9.44253 11.955 9.95178 11.9317C10.4227 11.9102 10.6785 11.8315 10.8487 11.7654C11.0741 11.6778 11.2351 11.5731 11.4041 11.4041C11.5731 11.2351 11.6778 11.0742 11.7654 10.8487C11.8315 10.6785 11.9102 10.4227 11.9317 9.95179C11.9549 9.44247 11.9599 9.28972 11.9599 7.99999C11.9599 6.71027 11.9549 6.55752 11.9317 6.04817C11.9102 5.57725 11.8315 5.3215 11.7654 5.15128C11.6778 4.92583 11.5731 4.76491 11.4041 4.5959C11.2351 4.42688 11.0741 4.3222 10.8487 4.23457C10.6785 4.16844 10.4227 4.08976 9.95178 4.06826ZM6.00851 3.19886C6.5237 3.17535 6.68817 3.16979 7.99998 3.16979C9.31179 3.16979 9.47628 3.17535 9.99145 3.19886C10.5056 3.22233 10.8567 3.30397 11.1639 3.42338C11.4816 3.54682 11.7509 3.71198 12.0195 3.98051C12.288 4.24903 12.4531 4.5184 12.5766 4.83603C12.696 5.14328 12.7776 5.49439 12.8011 6.00852C12.8246 6.52369 12.8302 6.68818 12.8302 7.99999C12.8302 9.3118 12.8246 9.47629 12.8011 9.99146C12.7776 10.5056 12.696 10.8567 12.5766 11.164C12.4531 11.4816 12.288 11.751 12.0195 12.0195C11.7509 12.288 11.4816 12.4532 11.1639 12.5766C10.8567 12.696 10.5056 12.7777 9.99145 12.8011C9.47628 12.8246 9.31179 12.8302 7.99998 12.8302C6.68817 12.8302 6.5237 12.8246 6.00851 12.8011C5.49437 12.7777 5.14327 12.696 4.83601 12.5766C4.51838 12.4532 4.24902 12.288 3.98049 12.0195C3.71197 11.751 3.54681 11.4816 3.42337 11.164C3.30396 10.8567 3.22232 10.5056 3.19885 9.99146C3.17534 9.47629 3.1698 9.3118 3.1698 7.99999C3.1698 6.68818 3.17534 6.52369 3.19885 6.00852C3.22232 5.49439 3.30396 5.14328 3.42337 4.83603C3.54681 4.5184 3.71197 4.24903 3.98049 3.98051C4.24902 3.71198 4.51838 3.54682 4.83601 3.42338C5.14327 3.30397 5.49437 3.22233 6.00851 3.19886ZM5.5196 7.99999C5.5196 6.63013 6.63011 5.51962 7.99998 5.51962C9.36985 5.51962 10.4804 6.63013 10.4804 7.99999C10.4804 9.36986 9.36985 10.4804 7.99998 10.4804C6.63011 10.4804 5.5196 9.36986 5.5196 7.99999ZM6.38991 7.99999C6.38991 8.8892 7.11077 9.61007 7.99998 9.61007C8.88919 9.61007 9.61005 8.8892 9.61005 7.99999C9.61005 7.11079 8.88919 6.38992 7.99998 6.38992C7.11077 6.38992 6.38991 7.11079 6.38991 7.99999ZM10.5784 6.00126C10.8985 6.00126 11.158 5.74174 11.158 5.42162C11.158 5.1015 10.8985 4.84201 10.5784 4.84201C10.2582 4.84201 9.99872 5.1015 9.99872 5.42162C9.99872 5.74174 10.2582 6.00126 10.5784 6.00126Z" fill="white"/>
</svg>
