<svg width="334" height="335" viewBox="0 0 334 335" fill="none" xmlns="http://www.w3.org/2000/svg">
<path d="M110.431 23.7399C141.673 -7.50203 192.327 -7.502 223.569 23.7399L310.431 110.603C341.673 141.845 341.673 192.498 310.431 223.74L223.569 310.603C192.327 341.845 141.673 341.845 110.431 310.603L23.5686 223.74C-7.67336 192.498 -7.67332 141.845 23.5686 110.603L110.431 23.7399Z" fill="#1E6CFF"/>
<path d="M99.7247 138.676H116.019V195.683H99.7247V138.676Z" fill="white"/>
<path fill-rule="evenodd" clip-rule="evenodd" d="M83.1824 196.588C100.171 196.588 112.37 182.017 112.37 167.169C112.37 153.145 100.252 137.75 83.1824 137.75C66.858 137.75 54.4639 150.921 54.4639 167.169C54.4639 183.417 66.858 196.588 83.1824 196.588ZM84.9715 181.718C93.3414 181.718 99.7253 175.482 99.7253 167.169C99.7253 158.855 93.3414 152.62 84.9715 152.62C76.6015 152.62 70.1195 159.134 70.1195 167.169C70.1195 175.204 76.6015 181.718 84.9715 181.718Z" fill="white"/>
<path fill-rule="evenodd" clip-rule="evenodd" d="M181.472 154.568L166.552 161.5C164.648 157.212 160.635 153.761 155.207 153.761C147.491 153.761 141.515 159.767 141.515 167.174C141.515 174.582 147.491 180.587 155.207 180.587C160.759 180.587 164.831 177.479 166.679 172.977L181.568 179.997C176.994 189.821 167.178 196.594 154.943 196.594C138.468 196.594 125.523 183.422 125.523 167.174C125.523 150.926 139.056 137.755 154.943 137.755C166.418 137.755 176.666 144.628 181.472 154.568Z" fill="white"/>
<path d="M190.698 138.664H206.992V195.692H190.698V138.664Z" fill="white"/>
<path d="M226.907 160.842L243.201 159.484V195.693H226.907V160.842Z" fill="white"/>
<path d="M263.115 160.842L279.409 159.484V195.693H263.115V160.842Z" fill="white"/>
<path d="M221.596 137.755C236.015 137.755 243.201 148.802 243.201 160.385L226.907 163.414C226.907 158.406 222.381 153.897 216.95 153.897C211.519 153.897 206.993 158.578 206.993 164.009L202.677 157.919C200.979 153.897 207.134 137.755 221.596 137.755Z" fill="white"/>
<path d="M257.804 137.755C272.223 137.755 279.41 148.802 279.41 160.385L263.116 163.414C263.116 158.406 258.59 153.897 253.158 153.897C247.727 153.897 243.201 158.578 243.201 164.009L238.886 157.919C237.187 153.897 243.343 137.755 257.804 137.755Z" fill="white"/>
<path d="M257.804 137.755C272.223 137.755 279.41 148.802 279.41 160.385L263.116 161.743C263.116 156.734 258.59 152.691 253.158 152.691C247.727 152.691 243.201 156.312 243.201 161.743L235.054 153.143C238.675 144.996 243.342 137.755 257.804 137.755Z" fill="white"/>
</svg>
