<svg width="334" height="335" viewBox="0 0 334 335" fill="none" xmlns="http://www.w3.org/2000/svg">
<path d="M110.431 24.3702C141.673 -6.87172 192.326 -6.87169 223.568 24.3703L310.431 111.233C341.673 142.475 341.673 193.128 310.431 224.37L223.568 311.233C192.326 342.475 141.673 342.475 110.431 311.233L23.5678 224.37C-7.67415 193.128 -7.67411 142.475 23.5678 111.233L110.431 24.3702Z" fill="#28B2FF"/>
<path fill-rule="evenodd" clip-rule="evenodd" d="M128.48 157.022C128.437 159.536 126.385 161.562 123.861 161.562C121.309 161.562 119.241 159.493 119.241 156.942H119.24V198.522H119.24C119.24 198.522 119.24 198.522 119.24 198.522C119.24 195.97 121.309 193.902 123.86 193.902C126.391 193.902 128.446 195.936 128.48 198.458V157.022Z" fill="white"/>
<path fill-rule="evenodd" clip-rule="evenodd" d="M214.72 143.082C214.72 145.633 212.651 147.702 210.1 147.702C207.548 147.702 205.48 145.633 205.48 143.082V184.639C205.492 182.098 207.556 180.041 210.1 180.041C212.651 180.041 214.72 182.11 214.72 184.661C214.72 184.662 214.72 184.662 214.72 184.662H214.72V143.082Z" fill="white"/>
<path fill-rule="evenodd" clip-rule="evenodd" d="M171.6 132.411C171.542 134.912 169.496 136.922 166.981 136.922C164.429 136.922 162.361 134.854 162.361 132.302C162.361 132.302 162.361 132.302 162.361 132.302H162.36V207.762L162.36 207.762C162.36 205.21 164.428 203.142 166.98 203.142C169.521 203.142 171.584 205.194 171.6 207.732V132.411Z" fill="white"/>
<path d="M85.3596 149.242C85.3596 139.886 92.9439 132.302 102.3 132.302C111.655 132.302 119.24 139.886 119.24 149.242V198.522C119.24 207.877 111.655 215.462 102.3 215.462C92.9439 215.462 85.3596 207.877 85.3596 198.522V149.242Z" fill="white"/>
<path d="M128.479 110.742C128.479 101.386 136.064 93.8017 145.419 93.8017C154.775 93.8017 162.359 101.386 162.359 110.742V230.862C162.359 240.217 154.775 247.802 145.419 247.802C136.064 247.802 128.479 240.217 128.479 230.862V110.742Z" fill="white"/>
<path d="M109.999 149.242C109.999 153.494 106.551 156.942 102.299 156.942C98.046 156.942 94.5986 153.494 94.5986 149.242C94.5986 144.989 98.046 141.542 102.299 141.542C106.551 141.542 109.999 144.989 109.999 149.242Z" fill="#28B2FF"/>
<path d="M153.12 230.862C153.12 235.114 149.673 238.562 145.42 238.562C141.167 238.562 137.72 235.114 137.72 230.862C137.72 226.609 141.167 223.162 145.42 223.162C149.673 223.162 153.12 226.609 153.12 230.862Z" fill="#28B2FF"/>
<path fill-rule="evenodd" clip-rule="evenodd" d="M98.9795 157.712V152.322H105.619V157.712C105.619 167.785 113.786 175.952 123.859 175.952C137.6 175.952 148.739 187.091 148.739 200.832V233.942H142.099V200.832C142.099 190.758 133.933 182.592 123.859 182.592C110.119 182.592 98.9795 171.453 98.9795 157.712Z" fill="#28B2FF"/>
<path d="M248.599 192.362C248.599 201.717 241.014 209.302 231.659 209.302C222.303 209.302 214.719 201.717 214.719 192.362V143.082C214.719 133.726 222.303 126.142 231.659 126.142C241.014 126.142 248.599 133.726 248.599 143.082V192.362Z" fill="white"/>
<path d="M205.479 230.862C205.479 240.217 197.895 247.802 188.539 247.802C179.184 247.802 171.599 240.217 171.599 230.862V110.742C171.599 101.386 179.184 93.8017 188.539 93.8017C197.895 93.8017 205.479 101.386 205.479 110.742V230.862Z" fill="white"/>
<path d="M223.96 192.362C223.96 188.109 227.407 184.662 231.66 184.662C235.912 184.662 239.36 188.109 239.36 192.362C239.36 196.614 235.912 200.062 231.66 200.062C227.407 200.062 223.96 196.614 223.96 192.362Z" fill="#28B2FF"/>
<path d="M180.84 110.742C180.84 106.489 184.287 103.042 188.54 103.042C192.793 103.042 196.24 106.489 196.24 110.742C196.24 114.994 192.793 118.442 188.54 118.442C184.287 118.442 180.84 114.994 180.84 110.742Z" fill="#28B2FF"/>
<path fill-rule="evenodd" clip-rule="evenodd" d="M234.98 182.352V189.282H228.34V182.352C228.34 172.278 220.173 164.112 210.1 164.112C196.359 164.112 185.22 152.972 185.22 139.232V107.662H191.86V139.232C191.86 149.305 200.026 157.472 210.1 157.472C223.841 157.472 234.98 168.611 234.98 182.352Z" fill="#28B2FF"/>
<path fill-rule="evenodd" clip-rule="evenodd" d="M191.859 148.857V110.742H185.219V148.857C185.219 158.931 177.053 167.097 166.979 167.097C153.239 167.097 142.099 178.236 142.099 191.977V230.862H148.739V191.977C148.739 181.904 156.906 173.737 166.979 173.737C180.72 173.737 191.859 162.598 191.859 148.857Z" fill="#28B2FF"/>
</svg>
