<svg width="400" height="400" viewBox="0 0 400 400" fill="none" xmlns="http://www.w3.org/2000/svg">
<rect x="200" width="282.843" height="282.843" rx="80" transform="rotate(45 200 0)" fill="#28B2FF"/>
<path fill-rule="evenodd" clip-rule="evenodd" d="M161.481 189.221C161.438 191.735 159.387 193.761 156.862 193.761C154.31 193.761 152.242 191.692 152.242 189.141H152.241V230.721H152.242C152.242 230.721 152.242 230.721 152.242 230.72C152.242 228.169 154.31 226.1 156.862 226.1C159.392 226.1 161.447 228.134 161.481 230.656V189.221Z" fill="white"/>
<path fill-rule="evenodd" clip-rule="evenodd" d="M247.72 175.279C247.72 177.831 245.652 179.899 243.1 179.899C240.549 179.899 238.481 177.831 238.48 175.279V216.836C238.493 214.295 240.556 212.239 243.1 212.239C245.652 212.239 247.72 214.307 247.72 216.859C247.72 216.859 247.72 216.859 247.72 216.859H247.72V175.279Z" fill="white"/>
<path fill-rule="evenodd" clip-rule="evenodd" d="M204.6 164.609C204.543 167.111 202.497 169.12 199.982 169.12C197.43 169.12 195.362 167.052 195.362 164.5C195.362 164.5 195.362 164.5 195.362 164.5H195.36V239.96L195.36 239.96C195.36 237.408 197.429 235.34 199.98 235.34C202.522 235.34 204.584 237.392 204.6 239.93V164.609Z" fill="white"/>
<rect x="118.36" y="164.5" width="33.88" height="83.16" rx="16.94" fill="white"/>
<rect x="161.479" y="126" width="33.88" height="154" rx="16.94" fill="white"/>
<circle cx="135.3" cy="181.44" r="7.7" fill="#28B2FF"/>
<circle cx="178.421" cy="263.059" r="7.7" fill="#28B2FF"/>
<path d="M135.3 184.52V189.91C135.3 201.817 144.953 211.47 156.86 211.47V211.47C168.767 211.47 178.42 221.122 178.42 233.03V266.14" stroke="#28B2FF" stroke-width="6.64"/>
<rect x="281.6" y="241.5" width="33.88" height="83.16" rx="16.94" transform="rotate(-180 281.6 241.5)" fill="white"/>
<rect x="238.479" y="280" width="33.88" height="154" rx="16.94" transform="rotate(-180 238.479 280)" fill="white"/>
<path d="M256.96 224.56C256.96 220.307 260.408 216.86 264.66 216.86C268.913 216.86 272.36 220.307 272.36 224.56C272.36 228.812 268.913 232.26 264.66 232.26C260.408 232.26 256.96 228.812 256.96 224.56Z" fill="#28B2FF"/>
<circle cx="221.541" cy="142.941" r="7.7" transform="rotate(-180 221.541 142.941)" fill="#28B2FF"/>
<path d="M264.66 221.48V214.55C264.66 202.643 255.007 192.99 243.1 192.99V192.99C231.193 192.99 221.54 183.338 221.54 171.43V139.86" stroke="#28B2FF" stroke-width="6.64"/>
<path d="M221.54 142.939V181.055C221.54 192.962 211.887 202.615 199.98 202.615V202.615C188.073 202.615 178.42 212.268 178.42 224.175V263.059" stroke="#28B2FF" stroke-width="6.64"/>
</svg>
