<svg width="400" height="401" viewBox="0 0 400 401" fill="none" xmlns="http://www.w3.org/2000/svg">
<rect x="200" y="0.251953" width="282.843" height="282.843" rx="80" transform="rotate(45 200 0.251953)" fill="#FFBA44"/>
<path d="M139.039 179.028C139.017 171.848 144.82 166.011 152 165.99L247.56 165.714C254.74 165.693 260.578 171.496 260.599 178.676L260.837 259.041C260.858 266.221 255.055 272.058 247.876 272.079L152.315 272.355C145.136 272.376 139.298 266.572 139.277 259.393L139.039 179.028Z" fill="white"/>
<path d="M245.799 165.59C245.799 190.719 225.293 211.091 199.997 211.091C174.701 211.091 154.195 190.719 154.195 165.59C154.195 140.461 174.701 120.09 199.997 120.09C225.293 120.09 245.799 140.461 245.799 165.59Z" fill="white"/>
<path d="M245.799 165.59C245.799 190.719 225.293 211.091 199.997 211.091L245.799 211.091L245.799 165.59Z" fill="white"/>
<path d="M199.997 211.091C174.701 211.091 154.195 190.719 154.195 165.59L154.195 211.091L199.997 211.091Z" fill="white"/>
<ellipse rx="28.4013" ry="28.2977" transform="matrix(1 0 0.00784149 0.999969 200.322 163.582)" fill="#FFBA44"/>
<rect x="192.182" y="160.609" width="15.1951" height="96.2358" rx="7.59756" fill="#FFBA44"/>
<rect x="194.715" y="218.859" width="27.8577" height="12.6626" rx="5.20011" fill="#FFBA44"/>
<rect x="194.715" y="244.184" width="27.8577" height="12.6626" rx="5.20011" fill="#FFBA44"/>
<ellipse rx="10.1301" ry="10.1266" transform="matrix(1 0 0.00586924 0.999983 200.408 155.447)" fill="white"/>
</svg>
