<svg width="334" height="335" viewBox="0 0 334 335" fill="none" xmlns="http://www.w3.org/2000/svg">
<path d="M110.431 24.3702C141.673 -6.87178 192.326 -6.87175 223.568 24.3702L310.431 111.233C341.673 142.475 341.673 193.128 310.431 224.37L223.568 311.233C192.326 342.475 141.673 342.475 110.431 311.233L23.5683 224.37C-7.67366 193.128 -7.67363 142.475 23.5683 111.233L110.431 24.3702Z" fill="#FFBA44"/>
<path d="M106.038 146.576C106.017 139.396 111.82 133.559 119 133.538L214.56 133.262C221.74 133.242 227.577 139.045 227.599 146.225L227.837 226.59C227.858 233.77 222.055 239.607 214.875 239.628L119.315 239.904C112.135 239.925 106.298 234.121 106.276 226.941L106.038 146.576Z" fill="white"/>
<path d="M212.798 133.139C212.798 158.269 192.292 178.64 166.997 178.64C141.701 178.64 121.195 158.269 121.195 133.139C121.195 108.01 141.701 87.6391 166.997 87.6391C192.292 87.6391 212.798 108.01 212.798 133.139Z" fill="white"/>
<path d="M212.798 133.139C212.798 158.269 192.292 178.64 166.997 178.64L212.798 178.64L212.798 133.139Z" fill="white"/>
<path d="M166.997 178.64C141.701 178.64 121.195 158.269 121.195 133.139L121.195 178.64L166.997 178.64Z" fill="white"/>
<path d="M195.723 131.131C195.846 146.759 183.23 159.428 167.544 159.428C151.858 159.428 139.043 146.759 138.921 131.131C138.798 115.503 151.415 102.834 167.1 102.834C182.786 102.834 195.601 115.503 195.723 131.131Z" fill="#FFBA44"/>
<path d="M159.181 135.757C159.181 131.561 162.583 128.16 166.779 128.16C170.975 128.16 174.376 131.561 174.376 135.757V216.798C174.376 220.994 170.975 224.395 166.779 224.395C162.583 224.395 159.181 220.994 159.181 216.798V135.757Z" fill="#FFBA44"/>
<path d="M161.715 191.608C161.715 188.736 164.043 186.408 166.915 186.408H184.372C187.244 186.408 189.572 188.736 189.572 191.608V193.87C189.572 196.742 187.244 199.07 184.372 199.07H166.915C164.043 199.07 161.715 196.742 161.715 193.87V191.608Z" fill="#FFBA44"/>
<path d="M161.715 216.933C161.715 214.061 164.043 211.733 166.915 211.733H184.372C187.244 211.733 189.572 214.061 189.572 216.933V219.195C189.572 222.067 187.244 224.395 184.372 224.395H166.915C164.043 224.395 161.715 222.067 161.715 219.195V216.933Z" fill="#FFBA44"/>
<path d="M177.538 122.997C177.571 128.59 173.062 133.123 167.467 133.123C161.873 133.123 157.311 128.59 157.278 122.997C157.245 117.404 161.754 112.87 167.349 112.87C172.943 112.87 177.505 117.404 177.538 122.997Z" fill="white"/>
</svg>
