<svg width="400" height="401" viewBox="0 0 400 401" fill="none" xmlns="http://www.w3.org/2000/svg">
<rect x="200" y="0.0878906" width="282.843" height="282.843" rx="80" transform="rotate(45 200 0.0878906)" fill="#FE823C"/>
<path d="M225 174.926C225 147.3 202.626 124.926 175 124.926C147.374 124.926 125 147.3 125 174.926C125 202.552 147.374 224.926 175 224.926C175 197.3 197.374 174.926 225 174.926Z" fill="white"/>
<path d="M225 174.926C225 202.552 202.626 224.926 175 224.926C175 252.552 197.374 274.926 225 274.926C252.626 274.926 275 252.552 275 224.926C275 197.3 252.626 174.926 225 174.926Z" fill="white"/>
</svg>
