<svg width="334" height="335" viewBox="0 0 334 335" fill="none" xmlns="http://www.w3.org/2000/svg">
<path d="M110.431 24.3702C141.673 -6.87172 192.326 -6.87169 223.568 24.3703L310.431 111.233C341.673 142.475 341.673 193.128 310.431 224.37L223.568 311.233C192.326 342.475 141.673 342.475 110.431 311.233L23.5683 224.37C-7.6736 193.128 -7.67356 142.475 23.5684 111.233L110.431 24.3702Z" fill="#FE823C"/>
<path d="M192 142.639C192 115.013 169.626 92.6391 142 92.6391C114.374 92.6391 91.9998 115.013 91.9998 142.639C91.9998 170.265 114.374 192.639 142 192.639C142 165.013 164.374 142.639 192 142.639Z" fill="white"/>
<path d="M192 142.639C192 170.265 169.626 192.639 142 192.639C142 220.265 164.374 242.639 192 242.639C219.626 242.639 242 220.265 242 192.639C242 165.013 219.626 142.639 192 142.639Z" fill="white"/>
</svg>
