<svg width="400" height="400" viewBox="0 0 400 400" fill="none" xmlns="http://www.w3.org/2000/svg">
<rect x="200" y="1.41421" width="280.843" height="280.843" rx="79" transform="rotate(45 200 1.41421)" stroke="#111111" stroke-width="2"/>
<rect x="200" width="282.843" height="282.843" rx="80" transform="rotate(45 200 0)" fill="#C960FF"/>
<path d="M223 287.237C223 297.452 212.484 302 199.5 302C186.516 302 176 297.452 176 287.237C176 278.066 180.973 286.64 199.5 286.64C218.027 286.64 223 278.55 223 287.237Z" fill="white"/>
<path d="M236.321 252.133C236.321 271.681 220.052 280 200 280C179.948 280 163.679 269.98 163.679 252.133C163.679 224.568 135 214.889 135 174.96C135 139.077 164.095 110 200 110C235.905 110 265 139.077 265 174.96C265 218.027 236.321 228.501 236.321 252.133Z" fill="white"/>
<path d="M215.256 215.78C223.533 210.569 229 201.43 229 190.97C229 181.983 224.938 173.902 218.483 168.54C213.358 164.235 216.167 186.968 211.915 190.97C207.397 195.2 191.755 195.049 187.085 190.97C182.681 187.081 183.972 165.632 180.517 168.54C174.1 173.902 170 181.983 170 190.97C170 201.393 175.467 210.569 183.744 215.78V252.975C183.744 259.243 189.553 262 199.5 262C209.447 262 215.256 259.81 215.256 252.975V215.78Z" fill="#C960FF"/>
</svg>
