<svg width="334" height="335" viewBox="0 0 334 335" fill="none" xmlns="http://www.w3.org/2000/svg">
<path d="M110.431 24.3702C141.673 -6.87177 192.326 -6.87176 223.568 24.3702L310.431 111.233C341.673 142.475 341.673 193.128 310.431 224.37L223.568 311.233C192.326 342.475 141.673 342.475 110.431 311.233L23.5679 224.37C-7.67402 193.128 -7.674 142.475 23.5679 111.233L110.431 24.3702Z" fill="#C960FF"/>
<path d="M189.999 255.038C189.999 265.253 179.483 269.802 166.499 269.802C153.515 269.802 142.999 265.253 142.999 255.038C142.999 245.867 147.973 254.442 166.499 254.442C185.026 254.442 189.999 246.352 189.999 255.038Z" fill="white"/>
<path d="M203.321 219.935C203.321 239.483 187.052 247.802 166.999 247.802C146.947 247.802 130.678 237.782 130.678 219.935C130.678 192.37 101.999 182.69 101.999 142.762C101.999 106.879 131.094 77.8016 166.999 77.8016C202.904 77.8016 231.999 106.879 231.999 142.762C231.999 185.829 203.321 196.302 203.321 219.935Z" fill="white"/>
<path d="M182.255 183.581C190.532 178.37 195.999 169.232 195.999 158.772C195.999 149.785 191.937 141.704 185.483 136.341C180.357 132.037 183.167 154.769 178.914 158.772C174.396 163.001 158.754 162.85 154.084 158.772C149.68 154.882 150.971 133.434 147.516 136.341C141.1 141.704 136.999 149.785 136.999 158.772C136.999 169.194 142.466 178.37 150.743 183.581V220.777C150.743 227.045 156.552 229.802 166.499 229.802C176.447 229.802 182.255 227.611 182.255 220.777V183.581Z" fill="#C960FF"/>
</svg>
