<svg width="400" height="401" viewBox="0 0 400 401" fill="none" xmlns="http://www.w3.org/2000/svg">
<g clip-path="url(#clip0)">
<rect x="199.998" y="0.923828" width="282.843" height="282.843" rx="80" transform="rotate(45 199.998 0.923828)" fill="#FF6B6B"/>
<path d="M222.786 135.71C222.786 148.294 212.584 158.495 200 158.495C187.416 158.495 177.214 148.294 177.214 135.71C177.214 123.125 187.416 112.924 200 112.924C212.584 112.924 222.786 123.125 222.786 135.71Z" fill="white"/>
<path d="M222.786 266.137C222.786 278.722 212.584 288.923 200 288.923C187.416 288.923 177.214 278.722 177.214 266.137C177.214 253.553 187.416 243.352 200 243.352C212.584 243.352 222.786 253.553 222.786 266.137Z" fill="white"/>
<path d="M265.214 223.71C252.63 223.71 242.428 213.509 242.428 200.924C242.428 188.34 252.63 178.139 265.214 178.139C277.798 178.139 288 188.34 288 200.924C288 213.509 277.798 223.71 265.214 223.71Z" fill="white"/>
<path d="M134.785 223.71C122.2 223.71 111.999 213.509 111.999 200.924C111.999 188.34 122.2 178.139 134.785 178.139C147.369 178.139 157.57 188.34 157.57 200.924C157.57 213.509 147.369 223.71 134.785 223.71Z" fill="white"/>
<path fill-rule="evenodd" clip-rule="evenodd" d="M205.278 140.988L140.063 206.202L129.507 195.646L194.722 130.432L205.278 140.988Z" fill="white"/>
<path fill-rule="evenodd" clip-rule="evenodd" d="M205.278 260.86L140.063 195.646L129.507 206.202L194.722 271.416L205.278 260.86Z" fill="white"/>
<path fill-rule="evenodd" clip-rule="evenodd" d="M194.721 140.988L259.936 206.202L270.492 195.646L205.277 130.432L194.721 140.988Z" fill="white"/>
<path fill-rule="evenodd" clip-rule="evenodd" d="M192.536 263.781V135.71H207.464V263.781H192.536Z" fill="white"/>
<path fill-rule="evenodd" clip-rule="evenodd" d="M136.356 192.673H185.857V207.602H136.356V192.673Z" fill="white"/>
<path fill-rule="evenodd" clip-rule="evenodd" d="M214.143 192.673H263.643V207.602H214.143V192.673Z" fill="white"/>
</g>
<defs>
<clipPath id="clip0">
<rect width="400" height="400" fill="white" transform="translate(0 0.923828)"/>
</clipPath>
</defs>
</svg>
