<svg width="334" height="335" viewBox="0 0 334 335" fill="none" xmlns="http://www.w3.org/2000/svg">
<path d="M110.431 24.3702C141.673 -6.87172 192.326 -6.87169 223.568 24.3703L310.431 111.233C341.673 142.475 341.673 193.128 310.431 224.37L223.568 311.233C192.326 342.475 141.673 342.475 110.431 311.233L23.5685 224.37C-7.67349 193.128 -7.67345 142.475 23.5685 111.233L110.431 24.3702Z" fill="#FF6B6B"/>
<path d="M189.788 102.587C189.788 115.172 179.586 125.373 167.002 125.373C154.418 125.373 144.216 115.172 144.216 102.587C144.216 90.0032 154.418 79.8017 167.002 79.8017C179.586 79.8017 189.788 90.0032 189.788 102.587Z" fill="white"/>
<path d="M189.788 233.016C189.788 245.6 179.586 255.802 167.002 255.802C154.418 255.802 144.216 245.6 144.216 233.016C144.216 220.432 154.418 210.23 167.002 210.23C179.586 210.23 189.788 220.432 189.788 233.016Z" fill="white"/>
<path d="M232.216 190.587C219.631 190.587 209.43 180.386 209.43 167.802C209.43 155.217 219.631 145.016 232.216 145.016C244.8 145.016 255.001 155.217 255.001 167.802C255.001 180.386 244.8 190.587 232.216 190.587Z" fill="white"/>
<path d="M101.787 190.587C89.2023 190.587 79.0008 180.386 79.0008 167.802C79.0008 155.217 89.2023 145.016 101.787 145.016C114.371 145.016 124.572 155.217 124.572 167.802C124.572 180.386 114.371 190.587 101.787 190.587Z" fill="white"/>
<path fill-rule="evenodd" clip-rule="evenodd" d="M172.28 107.866L107.065 173.08L96.5092 162.524L161.724 97.3098L172.28 107.866Z" fill="white"/>
<path fill-rule="evenodd" clip-rule="evenodd" d="M172.28 227.738L107.065 162.524L96.5092 173.08L161.724 238.294L172.28 227.738Z" fill="white"/>
<path fill-rule="evenodd" clip-rule="evenodd" d="M161.723 107.866L226.937 173.08L237.493 162.524L172.279 97.3098L161.723 107.866Z" fill="white"/>
<path fill-rule="evenodd" clip-rule="evenodd" d="M159.538 230.659V102.588H174.466V230.659H159.538Z" fill="white"/>
<path fill-rule="evenodd" clip-rule="evenodd" d="M103.358 159.552H152.858V174.48H103.358V159.552Z" fill="white"/>
<path fill-rule="evenodd" clip-rule="evenodd" d="M181.144 159.552H230.644V174.48H181.144V159.552Z" fill="white"/>
</svg>
