<svg width="400" height="400" viewBox="0 0 400 400" fill="none" xmlns="http://www.w3.org/2000/svg">
<rect x="200" width="282.843" height="282.843" rx="80" transform="rotate(45 200 0)" fill="#ED3266"/>
<path fill-rule="evenodd" clip-rule="evenodd" d="M264.743 174.174C268.997 174.174 272.572 177.352 272.978 181.587C273.718 189.327 274.722 201.842 274.721 212.794C274.721 224.178 273.671 234.862 272.927 241.004C272.53 244.283 270.153 246.935 266.965 247.804L232.852 257.108C228.908 258.184 224.757 256.267 222.648 252.766C218.157 245.308 209.655 233.783 200 233.783V233.783C190.346 233.783 181.843 245.308 177.352 252.766C175.244 256.268 171.092 258.184 167.149 257.108L133.035 247.805C129.848 246.935 127.471 244.283 127.074 241.004C126.329 234.862 125.279 224.178 125.279 212.794C125.279 201.842 126.282 189.327 127.023 181.587C127.428 177.352 131.003 174.174 135.258 174.174H200V174.174H264.743Z" fill="white"/>
<path fill-rule="evenodd" clip-rule="evenodd" d="M120.572 191.913C120.831 189.004 117.644 187.285 115.742 189.5C110.746 195.321 107.727 202.889 107.727 211.161C107.727 219.084 110.495 226.359 115.118 232.073C116.984 234.38 120.248 232.658 120.013 229.7C119.645 225.08 119.404 220.067 119.404 214.873C119.403 207.469 119.91 199.352 120.572 191.913Z" fill="white"/>
<path fill-rule="evenodd" clip-rule="evenodd" d="M279.428 191.913C279.169 189.004 282.356 187.285 284.258 189.5C289.254 195.321 292.273 202.889 292.273 211.161C292.273 219.084 289.505 226.359 284.882 232.073C283.016 234.38 279.752 232.658 279.987 229.7C280.355 225.08 280.596 220.067 280.596 214.873C280.597 207.469 280.09 199.352 279.428 191.913Z" fill="white"/>
<path d="M186.566 133.875C186.566 131.093 188.822 128.838 191.604 128.838H208.395C211.177 128.838 213.432 131.093 213.432 133.875V169.137H186.566V133.875Z" fill="white"/>
<circle cx="247.015" cy="197.681" r="8.39562" fill="#ED3266"/>
<circle cx="230.224" cy="222.868" r="8.39562" fill="#ED3266"/>
<rect x="154" y="190.838" width="12" height="38" rx="4" fill="#ED3266"/>
<rect x="179" y="203.838" width="12" height="38" rx="4" transform="rotate(90 179 203.838)" fill="#ED3266"/>
</svg>
