<svg width="334" height="335" viewBox="0 0 334 335" fill="none" xmlns="http://www.w3.org/2000/svg">
<path d="M110.432 24.3702C141.673 -6.87172 192.327 -6.87169 223.569 24.3703L310.431 111.233C341.673 142.475 341.673 193.128 310.431 224.37L223.569 311.233C192.327 342.475 141.673 342.475 110.432 311.233L23.5686 224.37C-7.6733 193.128 -7.67326 142.475 23.5687 111.233L110.432 24.3702Z" fill="#ED3266"/>
<path fill-rule="evenodd" clip-rule="evenodd" d="M231.743 141.976C235.998 141.976 239.573 145.154 239.978 149.389C240.718 157.129 241.722 169.643 241.721 180.595C241.721 191.979 240.671 202.664 239.927 208.805C239.53 212.085 237.153 214.737 233.965 215.606L199.852 224.91C195.908 225.985 191.757 224.069 189.648 220.568C185.157 213.11 176.655 201.584 167 201.584V201.585C157.346 201.585 148.843 213.11 144.352 220.568C142.244 224.069 138.092 225.985 134.149 224.91L100.035 215.606C96.8479 214.737 94.4709 212.085 94.0736 208.805C93.3295 202.664 92.2794 191.98 92.2794 180.595C92.2786 169.644 93.2825 157.129 94.0229 149.389C94.4281 145.154 98.0031 141.976 102.258 141.976H167V141.976H231.743Z" fill="white"/>
<path fill-rule="evenodd" clip-rule="evenodd" d="M87.5721 159.713C87.8308 156.805 84.6438 155.086 82.7421 157.301C77.7457 163.122 74.7266 170.689 74.7266 178.962C74.7266 186.884 77.4954 194.16 82.118 199.874C83.9843 202.181 87.2481 200.458 87.0129 197.5C86.6454 192.881 86.4037 187.868 86.4037 182.674C86.4032 175.27 86.9103 167.153 87.5721 159.713Z" fill="white"/>
<path fill-rule="evenodd" clip-rule="evenodd" d="M246.428 159.713C246.169 156.805 249.356 155.086 251.258 157.301C256.254 163.122 259.273 170.689 259.273 178.962C259.273 186.884 256.505 194.16 251.882 199.874C250.016 202.181 246.752 200.458 246.987 197.5C247.355 192.881 247.596 187.868 247.596 182.674C247.597 175.27 247.09 167.153 246.428 159.713Z" fill="white"/>
<path d="M153.566 101.676C153.566 98.8944 155.822 96.6391 158.604 96.6391H175.395C178.177 96.6391 180.432 98.8944 180.432 101.676V136.938H153.566V101.676Z" fill="white"/>
<path d="M222.41 165.483C222.41 170.12 218.652 173.879 214.015 173.879C209.378 173.879 205.619 170.12 205.619 165.483C205.619 160.846 209.378 157.087 214.015 157.087C218.652 157.087 222.41 160.846 222.41 165.483Z" fill="#ED3266"/>
<path d="M205.619 190.67C205.619 195.307 201.861 199.066 197.224 199.066C192.587 199.066 188.828 195.307 188.828 190.67C188.828 186.033 192.587 182.274 197.224 182.274C201.861 182.274 205.619 186.033 205.619 190.67Z" fill="#ED3266"/>
<path d="M121 162.639C121 160.43 122.791 158.639 125 158.639H129C131.209 158.639 133 160.43 133 162.639V192.639C133 194.848 131.209 196.639 129 196.639H125C122.791 196.639 121 194.848 121 192.639V162.639Z" fill="#ED3266"/>
<path d="M142 171.639C144.209 171.639 146 173.43 146 175.639L146 179.639C146 181.848 144.209 183.639 142 183.639L112 183.639C109.791 183.639 108 181.848 108 179.639L108 175.639C108 173.43 109.791 171.639 112 171.639L142 171.639Z" fill="#ED3266"/>
</svg>
