<svg width="334" height="335" viewBox="0 0 334 335" fill="none" xmlns="http://www.w3.org/2000/svg">
<path d="M110.431 24.3702C141.673 -6.87172 192.326 -6.87169 223.568 24.3703L310.431 111.233C341.673 142.475 341.673 193.128 310.431 224.37L223.568 311.233C192.326 342.475 141.673 342.475 110.431 311.233L23.568 224.37C-7.67391 193.128 -7.67387 142.475 23.5681 111.233L110.431 24.3702Z" fill="#5EDA12"/>
<path d="M199.566 193.538C231.663 193.538 257.725 167.695 258.078 135.68L198.909 193.534C199.128 193.537 199.347 193.538 199.566 193.538Z" fill="white"/>
<path d="M236.374 114.64C204.277 114.64 178.215 140.483 177.863 172.497L237.032 114.644C236.813 114.641 236.594 114.64 236.374 114.64Z" fill="white"/>
<path d="M258.078 114.639H237.039V135.678H258.078V114.639Z" fill="white"/>
<path d="M198.911 172.497H177.872V193.537H198.911V172.497Z" fill="white"/>
<path d="M237.039 114.639L258.078 135.678L198.905 193.536L177.866 172.497L237.039 114.639Z" fill="white"/>
<path fill-rule="evenodd" clip-rule="evenodd" d="M177.868 199.693V188.079H190.354V199.693C190.354 214.236 182.659 227.694 170.126 235.071L167.665 236.519L161.332 225.759L163.792 224.311L166.959 229.691L163.792 224.311C172.514 219.177 177.868 209.813 177.868 199.693Z" fill="white"/>
<path d="M140.93 195.734C109.16 195.734 83.3638 170.154 83.0149 138.467L141.58 195.73C141.364 195.733 141.147 195.734 140.93 195.734Z" fill="white"/>
<path d="M104.467 117.644C136.237 117.644 162.033 143.224 162.382 174.912L103.817 117.648C104.033 117.646 104.25 117.644 104.467 117.644Z" fill="white"/>
<path d="M82.9999 117.643H103.824V138.468H82.9999V117.643Z" fill="white"/>
<path d="M141.573 174.912H162.398V195.736H141.573V174.912Z" fill="white"/>
<path d="M103.824 117.644L82.9994 138.468L141.568 195.735L162.393 174.911L103.824 117.644Z" fill="white"/>
<path fill-rule="evenodd" clip-rule="evenodd" d="M141.8 177.489C139.941 179.348 136.926 179.348 135.066 177.489L104.593 147.016C102.734 145.156 102.734 142.142 104.593 140.282C106.453 138.423 109.468 138.423 111.327 140.282L141.8 170.755C143.659 172.615 143.659 175.629 141.8 177.489Z" fill="#5EDA12"/>
<path fill-rule="evenodd" clip-rule="evenodd" d="M199.561 174.489C201.42 176.348 204.435 176.348 206.295 174.489L236.768 144.016C238.627 142.156 238.627 139.141 236.768 137.282C234.908 135.423 231.893 135.423 230.034 137.282L199.561 167.755C197.702 169.614 197.702 172.629 199.561 174.489Z" fill="#5EDA12"/>
<path fill-rule="evenodd" clip-rule="evenodd" d="M149.999 248.212C155.286 248.212 159.572 243.926 159.572 238.639C159.572 233.352 155.286 229.066 149.999 229.066C144.713 229.066 140.427 233.352 140.427 238.639C140.427 243.926 144.713 248.212 149.999 248.212ZM149.999 259.639C161.597 259.639 170.999 250.237 170.999 238.639C170.999 227.041 161.597 217.639 149.999 217.639C138.401 217.639 128.999 227.041 128.999 238.639C128.999 250.237 138.401 259.639 149.999 259.639Z" fill="white"/>
<path d="M176.999 206.639C171.499 218.639 162.399 217.639 149.999 217.639L173.999 230.639L176.999 206.639Z" fill="white"/>
<path d="M181.999 224.639C179.166 228.139 172.999 235.639 169.999 245.139L163.999 225.639L181.999 224.639Z" fill="white"/>
</svg>
