<svg width="400" height="401" viewBox="0 0 400 401" fill="none" xmlns="http://www.w3.org/2000/svg">
<path d="M143.431 56.9845C174.673 25.7426 225.327 25.7426 256.569 56.9846L343.431 143.847C374.673 175.089 374.673 225.743 343.431 256.984L256.569 343.847C225.327 375.089 174.673 375.089 143.431 343.847L56.5686 256.984C25.3266 225.743 25.3267 175.089 56.5686 143.847L143.431 56.9845Z" fill="#5EDA12"/>
<path d="M232.567 226.153C264.664 226.153 290.726 200.309 291.078 168.295L231.909 226.149C232.128 226.151 232.347 226.153 232.567 226.153Z" fill="white"/>
<path d="M269.375 147.254C237.277 147.254 211.216 173.097 210.863 205.111L270.032 147.257C269.813 147.255 269.594 147.254 269.375 147.254Z" fill="white"/>
<path d="M291.078 147.254H270.039V168.293H291.078V147.254Z" fill="white"/>
<rect width="21.0391" height="21.0391" transform="matrix(-1 0 0 1 231.911 205.111)" fill="white"/>
<path d="M270.039 147.254L291.078 168.293L231.906 226.151L210.866 205.111L270.039 147.254Z" fill="white"/>
<path d="M217.112 220.693V232.308C217.112 244.639 210.587 256.051 199.96 262.306L197.5 263.754" stroke="white" stroke-width="12.4859"/>
<path d="M173.93 228.349C142.16 228.349 116.364 202.77 116.015 171.082L174.581 228.346C174.364 228.348 174.147 228.349 173.93 228.349Z" fill="white"/>
<path d="M137.468 150.26C169.238 150.26 195.033 175.84 195.382 207.527L136.817 150.264C137.034 150.261 137.25 150.26 137.468 150.26Z" fill="white"/>
<path d="M116 150.258H136.825V171.082H116V150.258Z" fill="white"/>
<rect x="174.573" y="207.527" width="20.8245" height="20.8245" fill="white"/>
<path d="M136.825 150.258L116 171.082L174.569 228.35L195.393 207.525L136.825 150.258Z" fill="white"/>
<path fill-rule="evenodd" clip-rule="evenodd" d="M174.801 210.103C172.941 211.963 169.927 211.963 168.067 210.103L137.594 179.63C135.735 177.771 135.735 174.756 137.594 172.897C139.454 171.037 142.468 171.037 144.328 172.897L174.801 203.37C176.66 205.229 176.66 208.244 174.801 210.103Z" fill="#5EDA12"/>
<path fill-rule="evenodd" clip-rule="evenodd" d="M232.562 207.103C234.421 208.963 237.436 208.963 239.295 207.103L269.768 176.63C271.628 174.771 271.628 171.756 269.768 169.897C267.909 168.037 264.894 168.037 263.035 169.897L232.562 200.37C230.702 202.229 230.702 205.244 232.562 207.103Z" fill="#5EDA12"/>
<path fill-rule="evenodd" clip-rule="evenodd" d="M183 280.827C188.287 280.827 192.573 276.541 192.573 271.254C192.573 265.967 188.287 261.681 183 261.681C177.713 261.681 173.427 265.967 173.427 271.254C173.427 276.541 177.713 280.827 183 280.827ZM183 292.254C194.598 292.254 204 282.852 204 271.254C204 259.656 194.598 250.254 183 250.254C171.402 250.254 162 259.656 162 271.254C162 282.852 171.402 292.254 183 292.254Z" fill="white"/>
<path d="M210 239.254C204.5 251.254 195.4 250.254 183 250.254L207 263.254L210 239.254Z" fill="white"/>
<path d="M215 257.254C212.167 260.754 206 268.254 203 277.754L197 258.254L215 257.254Z" fill="white"/>
</svg>
