<svg width="400" height="401" viewBox="0 0 400 401" fill="none" xmlns="http://www.w3.org/2000/svg">
<rect x="200" y="0.150391" width="282.843" height="282.843" rx="80" transform="rotate(45 200 0.150391)" fill="#00D4CA"/>
<path fill-rule="evenodd" clip-rule="evenodd" d="M118.896 158.316C128.228 154.157 139.165 158.35 143.325 167.682L162.406 212.491L183.674 170.591C186.889 164.561 193.166 160.793 200 160.793C206.834 160.793 213.111 164.561 216.325 170.591L237.593 212.491L256.675 167.682C260.834 158.35 271.772 154.157 281.104 158.316C290.436 162.476 294.629 173.413 290.469 182.745L255.974 260.135C253.096 266.591 246.792 270.843 239.728 271.092C232.664 271.341 226.076 267.543 222.751 261.306L200 218.623L177.248 261.306C173.924 267.543 167.335 271.341 160.272 271.092C153.208 270.843 146.903 266.591 144.025 260.135L109.53 182.745C105.37 173.413 109.564 162.476 118.896 158.316Z" fill="white"/>
</svg>
