<svg width="334" height="335" viewBox="0 0 334 335" fill="none" xmlns="http://www.w3.org/2000/svg">
<path d="M110.431 24.3702C141.673 -6.87172 192.326 -6.87169 223.568 24.3703L310.431 111.233C341.673 142.475 341.673 193.128 310.431 224.37L223.568 311.233C192.326 342.475 141.673 342.475 110.431 311.233L23.568 224.37C-7.67391 193.128 -7.67387 142.475 23.5681 111.233L110.431 24.3702Z" fill="#00D4CA"/>
<path fill-rule="evenodd" clip-rule="evenodd" d="M85.8951 125.967C95.2273 121.807 106.165 126 110.324 135.333L129.406 180.142L150.674 138.242C153.888 132.212 160.165 128.444 166.999 128.444C173.833 128.444 180.11 132.212 183.325 138.242L204.593 180.142L223.674 135.333C227.834 126 238.771 121.807 248.103 125.967C257.435 130.127 261.628 141.064 257.469 150.396L222.973 227.786C220.096 234.242 213.791 238.494 206.727 238.743C199.663 238.992 193.075 235.194 189.75 228.956L166.999 186.274L144.248 228.957C140.923 235.194 134.335 238.992 127.271 238.743C120.207 238.494 113.902 234.242 111.025 227.786L76.5294 150.396C72.3698 141.064 76.5629 130.127 85.8951 125.967Z" fill="white"/>
</svg>
